<?xml version="1.0" encoding="UTF-8"?>
<svg xmlns="http://www.w3.org/2000/svg" width="1536" height="1536" viewBox="0 0 1536.00 1536.00" role="img" aria-label="MapIR render: Learned Generated Map 7">
  <defs>
    <style>
      .grid { stroke: #cde2ec; stroke-width: 0.64; opacity: 0.72; }
      .walls { stroke: #6aa7c7; stroke-width: 1.92; fill: none; stroke-linecap: square; }
      .thresholds { fill: none; stroke-linecap: round; }
      .features { stroke: #4f89a8; fill: none; stroke-width: 1.60; stroke-linecap: round; stroke-linejoin: round; }
      .labels { fill: #4f89a8; font-size: 7.20px; font-family: "Courier New", monospace; font-weight: 600; }
    </style>
  </defs>
  <rect x="0" y="0" width="1536.00" height="1536.00" fill="#4393be" />
  <g class="floors">
<rect x="608.00" y="32.00" width="144.00" height="160.00" fill="#fcfdfe" />
<rect x="240.00" y="80.00" width="64.00" height="128.00" fill="#fcfdfe" />
<rect x="304.00" y="112.00" width="304.00" height="16.00" fill="#fcfdfe" />
<rect x="752.00" y="176.00" width="64.00" height="16.00" fill="#fcfdfe" />
<rect x="736.00" y="192.00" width="16.00" height="96.00" fill="#fcfdfe" />
<rect x="800.00" y="192.00" width="16.00" height="224.00" fill="#fcfdfe" />
<rect x="240.00" y="208.00" width="16.00" height="80.00" fill="#fcfdfe" />
<rect x="288.00" y="208.00" width="16.00" height="80.00" fill="#fcfdfe" />
<rect x="80.00" y="272.00" width="160.00" height="16.00" fill="#fcfdfe" />
<rect x="304.00" y="272.00" width="432.00" height="16.00" fill="#fcfdfe" />
<rect x="752.00" y="272.00" width="48.00" height="16.00" fill="#fcfdfe" />
<rect x="816.00" y="272.00" width="352.00" height="16.00" fill="#fcfdfe" />
<rect x="80.00" y="288.00" width="96.00" height="96.00" fill="#fcfdfe" />
<rect x="816.00" y="288.00" width="128.00" height="128.00" fill="#fcfdfe" />
<rect x="1088.00" y="288.00" width="80.00" height="128.00" fill="#fcfdfe" />
<rect x="944.00" y="336.00" width="144.00" height="16.00" fill="#fcfdfe" />
<rect x="1216.00" y="352.00" width="80.00" height="160.00" fill="#fcfdfe" />
<rect x="176.00" y="368.00" width="384.00" height="16.00" fill="#fcfdfe" />
<rect x="1200.00" y="368.00" width="16.00" height="128.00" fill="#fcfdfe" />
<rect x="1296.00" y="368.00" width="16.00" height="128.00" fill="#fcfdfe" />
<rect x="544.00" y="384.00" width="16.00" height="288.00" fill="#fcfdfe" />
<rect x="624.00" y="400.00" width="176.00" height="16.00" fill="#fcfdfe" />
<rect x="1168.00" y="400.00" width="32.00" height="16.00" fill="#fcfdfe" />
<rect x="624.00" y="416.00" width="16.00" height="128.00" fill="#fcfdfe" />
<rect x="816.00" y="416.00" width="16.00" height="304.00" fill="#fcfdfe" />
<rect x="560.00" y="464.00" width="64.00" height="80.00" fill="#fcfdfe" />
<rect x="640.00" y="464.00" width="176.00" height="16.00" fill="#fcfdfe" />
<rect x="832.00" y="464.00" width="368.00" height="16.00" fill="#fcfdfe" />
<rect x="1248.00" y="512.00" width="16.00" height="128.00" fill="#fcfdfe" />
<rect x="1184.00" y="544.00" width="64.00" height="96.00" fill="#fcfdfe" />
<rect x="1264.00" y="544.00" width="64.00" height="96.00" fill="#fcfdfe" />
<rect x="752.00" y="608.00" width="64.00" height="112.00" fill="#fcfdfe" />
<rect x="832.00" y="608.00" width="64.00" height="112.00" fill="#fcfdfe" />
<rect x="1184.00" y="640.00" width="16.00" height="32.00" fill="#fcfdfe" />
<rect x="320.00" y="656.00" width="224.00" height="16.00" fill="#fcfdfe" />
<rect x="1056.00" y="656.00" width="128.00" height="16.00" fill="#fcfdfe" />
<rect x="320.00" y="672.00" width="160.00" height="112.00" fill="#fcfdfe" />
<rect x="1056.00" y="672.00" width="96.00" height="112.00" fill="#fcfdfe" />
<rect x="752.00" y="720.00" width="16.00" height="112.00" fill="#fcfdfe" />
<rect x="1312.00" y="736.00" width="192.00" height="160.00" fill="#fcfdfe" />
<rect x="464.00" y="784.00" width="16.00" height="48.00" fill="#fcfdfe" />
<rect x="1088.00" y="784.00" width="16.00" height="208.00" fill="#fcfdfe" />
<rect x="480.00" y="816.00" width="272.00" height="16.00" fill="#fcfdfe" />
<rect x="688.00" y="832.00" width="64.00" height="64.00" fill="#fcfdfe" />
<rect x="1408.00" y="896.00" width="16.00" height="112.00" fill="#fcfdfe" />
<rect x="1056.00" y="912.00" width="32.00" height="80.00" fill="#fcfdfe" />
<rect x="1104.00" y="912.00" width="16.00" height="80.00" fill="#fcfdfe" />
<rect x="1264.00" y="928.00" width="144.00" height="80.00" fill="#fcfdfe" />
<rect x="1424.00" y="928.00" width="32.00" height="80.00" fill="#fcfdfe" />
<rect x="1120.00" y="960.00" width="144.00" height="16.00" fill="#fcfdfe" />
<rect x="64.00" y="976.00" width="80.00" height="176.00" fill="#fcfdfe" />
<rect x="48.00" y="992.00" width="16.00" height="144.00" fill="#fcfdfe" />
<rect x="144.00" y="992.00" width="16.00" height="144.00" fill="#fcfdfe" />
<rect x="1056.00" y="992.00" width="16.00" height="32.00" fill="#fcfdfe" />
<rect x="528.00" y="1008.00" width="80.00" height="160.00" fill="#fcfdfe" />
<rect x="816.00" y="1008.00" width="240.00" height="16.00" fill="#fcfdfe" />
<rect x="1312.00" y="1008.00" width="16.00" height="288.00" fill="#fcfdfe" />
<rect x="512.00" y="1024.00" width="16.00" height="160.00" fill="#fcfdfe" />
<rect x="608.00" y="1024.00" width="16.00" height="128.00" fill="#fcfdfe" />
<rect x="816.00" y="1024.00" width="128.00" height="112.00" fill="#fcfdfe" />
<rect x="624.00" y="1088.00" width="192.00" height="16.00" fill="#fcfdfe" />
<rect x="1280.00" y="1120.00" width="32.00" height="176.00" fill="#fcfdfe" />
<rect x="1328.00" y="1120.00" width="16.00" height="176.00" fill="#fcfdfe" />
<rect x="304.00" y="1136.00" width="208.00" height="16.00" fill="#fcfdfe" />
<rect x="832.00" y="1136.00" width="16.00" height="304.00" fill="#fcfdfe" />
<rect x="96.00" y="1152.00" width="16.00" height="144.00" fill="#fcfdfe" />
<rect x="304.00" y="1152.00" width="16.00" height="208.00" fill="#fcfdfe" />
<rect x="64.00" y="1168.00" width="32.00" height="128.00" fill="#fcfdfe" />
<rect x="112.00" y="1168.00" width="192.00" height="16.00" fill="#fcfdfe" />
<rect x="320.00" y="1168.00" width="192.00" height="16.00" fill="#fcfdfe" />
<rect x="112.00" y="1184.00" width="16.00" height="112.00" fill="#fcfdfe" />
<rect x="128.00" y="1248.00" width="176.00" height="16.00" fill="#fcfdfe" />
<rect x="256.00" y="1264.00" width="48.00" height="96.00" fill="#fcfdfe" />
<rect x="784.00" y="1264.00" width="48.00" height="176.00" fill="#fcfdfe" />
<rect x="848.00" y="1264.00" width="32.00" height="176.00" fill="#fcfdfe" />
<rect x="768.00" y="1280.00" width="16.00" height="144.00" fill="#fcfdfe" />
<rect x="880.00" y="1280.00" width="16.00" height="144.00" fill="#fcfdfe" />
<rect x="752.00" y="1296.00" width="16.00" height="112.00" fill="#fcfdfe" />
<rect x="896.00" y="1296.00" width="16.00" height="112.00" fill="#fcfdfe" />
<rect x="1280.00" y="1296.00" width="16.00" height="144.00" fill="#fcfdfe" />
<rect x="432.00" y="1328.00" width="64.00" height="128.00" fill="#fcfdfe" />
<rect x="320.00" y="1344.00" width="112.00" height="16.00" fill="#fcfdfe" />
<rect x="496.00" y="1344.00" width="256.00" height="16.00" fill="#fcfdfe" />
<rect x="1216.00" y="1344.00" width="64.00" height="96.00" fill="#fcfdfe" />
<rect x="1296.00" y="1344.00" width="48.00" height="96.00" fill="#fcfdfe" />
<rect x="1200.00" y="1360.00" width="16.00" height="64.00" fill="#fcfdfe" />
<rect x="1344.00" y="1360.00" width="16.00" height="64.00" fill="#fcfdfe" />
<rect x="1184.00" y="1376.00" width="16.00" height="32.00" fill="#fcfdfe" />
<rect x="1360.00" y="1376.00" width="16.00" height="32.00" fill="#fcfdfe" />
  </g>
  <g class="grid">
<line x1="0.00" y1="0" x2="0.00" y2="1536.00" />
<line x1="16.00" y1="0" x2="16.00" y2="1536.00" />
<line x1="32.00" y1="0" x2="32.00" y2="1536.00" />
<line x1="48.00" y1="0" x2="48.00" y2="1536.00" />
<line x1="64.00" y1="0" x2="64.00" y2="1536.00" />
<line x1="80.00" y1="0" x2="80.00" y2="1536.00" />
<line x1="96.00" y1="0" x2="96.00" y2="1536.00" />
<line x1="112.00" y1="0" x2="112.00" y2="1536.00" />
<line x1="128.00" y1="0" x2="128.00" y2="1536.00" />
<line x1="144.00" y1="0" x2="144.00" y2="1536.00" />
<line x1="160.00" y1="0" x2="160.00" y2="1536.00" />
<line x1="176.00" y1="0" x2="176.00" y2="1536.00" />
<line x1="192.00" y1="0" x2="192.00" y2="1536.00" />
<line x1="208.00" y1="0" x2="208.00" y2="1536.00" />
<line x1="224.00" y1="0" x2="224.00" y2="1536.00" />
<line x1="240.00" y1="0" x2="240.00" y2="1536.00" />
<line x1="256.00" y1="0" x2="256.00" y2="1536.00" />
<line x1="272.00" y1="0" x2="272.00" y2="1536.00" />
<line x1="288.00" y1="0" x2="288.00" y2="1536.00" />
<line x1="304.00" y1="0" x2="304.00" y2="1536.00" />
<line x1="320.00" y1="0" x2="320.00" y2="1536.00" />
<line x1="336.00" y1="0" x2="336.00" y2="1536.00" />
<line x1="352.00" y1="0" x2="352.00" y2="1536.00" />
<line x1="368.00" y1="0" x2="368.00" y2="1536.00" />
<line x1="384.00" y1="0" x2="384.00" y2="1536.00" />
<line x1="400.00" y1="0" x2="400.00" y2="1536.00" />
<line x1="416.00" y1="0" x2="416.00" y2="1536.00" />
<line x1="432.00" y1="0" x2="432.00" y2="1536.00" />
<line x1="448.00" y1="0" x2="448.00" y2="1536.00" />
<line x1="464.00" y1="0" x2="464.00" y2="1536.00" />
<line x1="480.00" y1="0" x2="480.00" y2="1536.00" />
<line x1="496.00" y1="0" x2="496.00" y2="1536.00" />
<line x1="512.00" y1="0" x2="512.00" y2="1536.00" />
<line x1="528.00" y1="0" x2="528.00" y2="1536.00" />
<line x1="544.00" y1="0" x2="544.00" y2="1536.00" />
<line x1="560.00" y1="0" x2="560.00" y2="1536.00" />
<line x1="576.00" y1="0" x2="576.00" y2="1536.00" />
<line x1="592.00" y1="0" x2="592.00" y2="1536.00" />
<line x1="608.00" y1="0" x2="608.00" y2="1536.00" />
<line x1="624.00" y1="0" x2="624.00" y2="1536.00" />
<line x1="640.00" y1="0" x2="640.00" y2="1536.00" />
<line x1="656.00" y1="0" x2="656.00" y2="1536.00" />
<line x1="672.00" y1="0" x2="672.00" y2="1536.00" />
<line x1="688.00" y1="0" x2="688.00" y2="1536.00" />
<line x1="704.00" y1="0" x2="704.00" y2="1536.00" />
<line x1="720.00" y1="0" x2="720.00" y2="1536.00" />
<line x1="736.00" y1="0" x2="736.00" y2="1536.00" />
<line x1="752.00" y1="0" x2="752.00" y2="1536.00" />
<line x1="768.00" y1="0" x2="768.00" y2="1536.00" />
<line x1="784.00" y1="0" x2="784.00" y2="1536.00" />
<line x1="800.00" y1="0" x2="800.00" y2="1536.00" />
<line x1="816.00" y1="0" x2="816.00" y2="1536.00" />
<line x1="832.00" y1="0" x2="832.00" y2="1536.00" />
<line x1="848.00" y1="0" x2="848.00" y2="1536.00" />
<line x1="864.00" y1="0" x2="864.00" y2="1536.00" />
<line x1="880.00" y1="0" x2="880.00" y2="1536.00" />
<line x1="896.00" y1="0" x2="896.00" y2="1536.00" />
<line x1="912.00" y1="0" x2="912.00" y2="1536.00" />
<line x1="928.00" y1="0" x2="928.00" y2="1536.00" />
<line x1="944.00" y1="0" x2="944.00" y2="1536.00" />
<line x1="960.00" y1="0" x2="960.00" y2="1536.00" />
<line x1="976.00" y1="0" x2="976.00" y2="1536.00" />
<line x1="992.00" y1="0" x2="992.00" y2="1536.00" />
<line x1="1008.00" y1="0" x2="1008.00" y2="1536.00" />
<line x1="1024.00" y1="0" x2="1024.00" y2="1536.00" />
<line x1="1040.00" y1="0" x2="1040.00" y2="1536.00" />
<line x1="1056.00" y1="0" x2="1056.00" y2="1536.00" />
<line x1="1072.00" y1="0" x2="1072.00" y2="1536.00" />
<line x1="1088.00" y1="0" x2="1088.00" y2="1536.00" />
<line x1="1104.00" y1="0" x2="1104.00" y2="1536.00" />
<line x1="1120.00" y1="0" x2="1120.00" y2="1536.00" />
<line x1="1136.00" y1="0" x2="1136.00" y2="1536.00" />
<line x1="1152.00" y1="0" x2="1152.00" y2="1536.00" />
<line x1="1168.00" y1="0" x2="1168.00" y2="1536.00" />
<line x1="1184.00" y1="0" x2="1184.00" y2="1536.00" />
<line x1="1200.00" y1="0" x2="1200.00" y2="1536.00" />
<line x1="1216.00" y1="0" x2="1216.00" y2="1536.00" />
<line x1="1232.00" y1="0" x2="1232.00" y2="1536.00" />
<line x1="1248.00" y1="0" x2="1248.00" y2="1536.00" />
<line x1="1264.00" y1="0" x2="1264.00" y2="1536.00" />
<line x1="1280.00" y1="0" x2="1280.00" y2="1536.00" />
<line x1="1296.00" y1="0" x2="1296.00" y2="1536.00" />
<line x1="1312.00" y1="0" x2="1312.00" y2="1536.00" />
<line x1="1328.00" y1="0" x2="1328.00" y2="1536.00" />
<line x1="1344.00" y1="0" x2="1344.00" y2="1536.00" />
<line x1="1360.00" y1="0" x2="1360.00" y2="1536.00" />
<line x1="1376.00" y1="0" x2="1376.00" y2="1536.00" />
<line x1="1392.00" y1="0" x2="1392.00" y2="1536.00" />
<line x1="1408.00" y1="0" x2="1408.00" y2="1536.00" />
<line x1="1424.00" y1="0" x2="1424.00" y2="1536.00" />
<line x1="1440.00" y1="0" x2="1440.00" y2="1536.00" />
<line x1="1456.00" y1="0" x2="1456.00" y2="1536.00" />
<line x1="1472.00" y1="0" x2="1472.00" y2="1536.00" />
<line x1="1488.00" y1="0" x2="1488.00" y2="1536.00" />
<line x1="1504.00" y1="0" x2="1504.00" y2="1536.00" />
<line x1="1520.00" y1="0" x2="1520.00" y2="1536.00" />
<line x1="1536.00" y1="0" x2="1536.00" y2="1536.00" />
<line x1="0" y1="0.00" x2="1536.00" y2="0.00" />
<line x1="0" y1="16.00" x2="1536.00" y2="16.00" />
<line x1="0" y1="32.00" x2="1536.00" y2="32.00" />
<line x1="0" y1="48.00" x2="1536.00" y2="48.00" />
<line x1="0" y1="64.00" x2="1536.00" y2="64.00" />
<line x1="0" y1="80.00" x2="1536.00" y2="80.00" />
<line x1="0" y1="96.00" x2="1536.00" y2="96.00" />
<line x1="0" y1="112.00" x2="1536.00" y2="112.00" />
<line x1="0" y1="128.00" x2="1536.00" y2="128.00" />
<line x1="0" y1="144.00" x2="1536.00" y2="144.00" />
<line x1="0" y1="160.00" x2="1536.00" y2="160.00" />
<line x1="0" y1="176.00" x2="1536.00" y2="176.00" />
<line x1="0" y1="192.00" x2="1536.00" y2="192.00" />
<line x1="0" y1="208.00" x2="1536.00" y2="208.00" />
<line x1="0" y1="224.00" x2="1536.00" y2="224.00" />
<line x1="0" y1="240.00" x2="1536.00" y2="240.00" />
<line x1="0" y1="256.00" x2="1536.00" y2="256.00" />
<line x1="0" y1="272.00" x2="1536.00" y2="272.00" />
<line x1="0" y1="288.00" x2="1536.00" y2="288.00" />
<line x1="0" y1="304.00" x2="1536.00" y2="304.00" />
<line x1="0" y1="320.00" x2="1536.00" y2="320.00" />
<line x1="0" y1="336.00" x2="1536.00" y2="336.00" />
<line x1="0" y1="352.00" x2="1536.00" y2="352.00" />
<line x1="0" y1="368.00" x2="1536.00" y2="368.00" />
<line x1="0" y1="384.00" x2="1536.00" y2="384.00" />
<line x1="0" y1="400.00" x2="1536.00" y2="400.00" />
<line x1="0" y1="416.00" x2="1536.00" y2="416.00" />
<line x1="0" y1="432.00" x2="1536.00" y2="432.00" />
<line x1="0" y1="448.00" x2="1536.00" y2="448.00" />
<line x1="0" y1="464.00" x2="1536.00" y2="464.00" />
<line x1="0" y1="480.00" x2="1536.00" y2="480.00" />
<line x1="0" y1="496.00" x2="1536.00" y2="496.00" />
<line x1="0" y1="512.00" x2="1536.00" y2="512.00" />
<line x1="0" y1="528.00" x2="1536.00" y2="528.00" />
<line x1="0" y1="544.00" x2="1536.00" y2="544.00" />
<line x1="0" y1="560.00" x2="1536.00" y2="560.00" />
<line x1="0" y1="576.00" x2="1536.00" y2="576.00" />
<line x1="0" y1="592.00" x2="1536.00" y2="592.00" />
<line x1="0" y1="608.00" x2="1536.00" y2="608.00" />
<line x1="0" y1="624.00" x2="1536.00" y2="624.00" />
<line x1="0" y1="640.00" x2="1536.00" y2="640.00" />
<line x1="0" y1="656.00" x2="1536.00" y2="656.00" />
<line x1="0" y1="672.00" x2="1536.00" y2="672.00" />
<line x1="0" y1="688.00" x2="1536.00" y2="688.00" />
<line x1="0" y1="704.00" x2="1536.00" y2="704.00" />
<line x1="0" y1="720.00" x2="1536.00" y2="720.00" />
<line x1="0" y1="736.00" x2="1536.00" y2="736.00" />
<line x1="0" y1="752.00" x2="1536.00" y2="752.00" />
<line x1="0" y1="768.00" x2="1536.00" y2="768.00" />
<line x1="0" y1="784.00" x2="1536.00" y2="784.00" />
<line x1="0" y1="800.00" x2="1536.00" y2="800.00" />
<line x1="0" y1="816.00" x2="1536.00" y2="816.00" />
<line x1="0" y1="832.00" x2="1536.00" y2="832.00" />
<line x1="0" y1="848.00" x2="1536.00" y2="848.00" />
<line x1="0" y1="864.00" x2="1536.00" y2="864.00" />
<line x1="0" y1="880.00" x2="1536.00" y2="880.00" />
<line x1="0" y1="896.00" x2="1536.00" y2="896.00" />
<line x1="0" y1="912.00" x2="1536.00" y2="912.00" />
<line x1="0" y1="928.00" x2="1536.00" y2="928.00" />
<line x1="0" y1="944.00" x2="1536.00" y2="944.00" />
<line x1="0" y1="960.00" x2="1536.00" y2="960.00" />
<line x1="0" y1="976.00" x2="1536.00" y2="976.00" />
<line x1="0" y1="992.00" x2="1536.00" y2="992.00" />
<line x1="0" y1="1008.00" x2="1536.00" y2="1008.00" />
<line x1="0" y1="1024.00" x2="1536.00" y2="1024.00" />
<line x1="0" y1="1040.00" x2="1536.00" y2="1040.00" />
<line x1="0" y1="1056.00" x2="1536.00" y2="1056.00" />
<line x1="0" y1="1072.00" x2="1536.00" y2="1072.00" />
<line x1="0" y1="1088.00" x2="1536.00" y2="1088.00" />
<line x1="0" y1="1104.00" x2="1536.00" y2="1104.00" />
<line x1="0" y1="1120.00" x2="1536.00" y2="1120.00" />
<line x1="0" y1="1136.00" x2="1536.00" y2="1136.00" />
<line x1="0" y1="1152.00" x2="1536.00" y2="1152.00" />
<line x1="0" y1="1168.00" x2="1536.00" y2="1168.00" />
<line x1="0" y1="1184.00" x2="1536.00" y2="1184.00" />
<line x1="0" y1="1200.00" x2="1536.00" y2="1200.00" />
<line x1="0" y1="1216.00" x2="1536.00" y2="1216.00" />
<line x1="0" y1="1232.00" x2="1536.00" y2="1232.00" />
<line x1="0" y1="1248.00" x2="1536.00" y2="1248.00" />
<line x1="0" y1="1264.00" x2="1536.00" y2="1264.00" />
<line x1="0" y1="1280.00" x2="1536.00" y2="1280.00" />
<line x1="0" y1="1296.00" x2="1536.00" y2="1296.00" />
<line x1="0" y1="1312.00" x2="1536.00" y2="1312.00" />
<line x1="0" y1="1328.00" x2="1536.00" y2="1328.00" />
<line x1="0" y1="1344.00" x2="1536.00" y2="1344.00" />
<line x1="0" y1="1360.00" x2="1536.00" y2="1360.00" />
<line x1="0" y1="1376.00" x2="1536.00" y2="1376.00" />
<line x1="0" y1="1392.00" x2="1536.00" y2="1392.00" />
<line x1="0" y1="1408.00" x2="1536.00" y2="1408.00" />
<line x1="0" y1="1424.00" x2="1536.00" y2="1424.00" />
<line x1="0" y1="1440.00" x2="1536.00" y2="1440.00" />
<line x1="0" y1="1456.00" x2="1536.00" y2="1456.00" />
<line x1="0" y1="1472.00" x2="1536.00" y2="1472.00" />
<line x1="0" y1="1488.00" x2="1536.00" y2="1488.00" />
<line x1="0" y1="1504.00" x2="1536.00" y2="1504.00" />
<line x1="0" y1="1520.00" x2="1536.00" y2="1520.00" />
<line x1="0" y1="1536.00" x2="1536.00" y2="1536.00" />
  </g>
  <g class="walls">
<line x1="608.00" y1="32.00" x2="752.00" y2="32.00" />
<line x1="240.00" y1="80.00" x2="304.00" y2="80.00" />
<line x1="304.00" y1="112.00" x2="608.00" y2="112.00" />
<line x1="304.00" y1="128.00" x2="608.00" y2="128.00" />
<line x1="608.00" y1="192.00" x2="736.00" y2="192.00" />
<line x1="752.00" y1="192.00" x2="800.00" y2="192.00" />
<line x1="752.00" y1="176.00" x2="816.00" y2="176.00" />
<line x1="256.00" y1="208.00" x2="288.00" y2="208.00" />
<line x1="80.00" y1="272.00" x2="240.00" y2="272.00" />
<line x1="304.00" y1="272.00" x2="736.00" y2="272.00" />
<line x1="752.00" y1="272.00" x2="800.00" y2="272.00" />
<line x1="816.00" y1="272.00" x2="1168.00" y2="272.00" />
<line x1="176.00" y1="288.00" x2="256.00" y2="288.00" />
<line x1="288.00" y1="288.00" x2="800.00" y2="288.00" />
<line x1="944.00" y1="288.00" x2="1088.00" y2="288.00" />
<line x1="944.00" y1="336.00" x2="1088.00" y2="336.00" />
<line x1="944.00" y1="352.00" x2="1088.00" y2="352.00" />
<line x1="1216.00" y1="352.00" x2="1296.00" y2="352.00" />
<line x1="80.00" y1="384.00" x2="544.00" y2="384.00" />
<line x1="176.00" y1="368.00" x2="560.00" y2="368.00" />
<line x1="1200.00" y1="368.00" x2="1216.00" y2="368.00" />
<line x1="1296.00" y1="368.00" x2="1312.00" y2="368.00" />
<line x1="624.00" y1="400.00" x2="800.00" y2="400.00" />
<line x1="1168.00" y1="400.00" x2="1200.00" y2="400.00" />
<line x1="640.00" y1="416.00" x2="816.00" y2="416.00" />
<line x1="832.00" y1="416.00" x2="944.00" y2="416.00" />
<line x1="1088.00" y1="416.00" x2="1200.00" y2="416.00" />
<line x1="560.00" y1="464.00" x2="624.00" y2="464.00" />
<line x1="640.00" y1="464.00" x2="816.00" y2="464.00" />
<line x1="832.00" y1="464.00" x2="1200.00" y2="464.00" />
<line x1="640.00" y1="480.00" x2="816.00" y2="480.00" />
<line x1="832.00" y1="480.00" x2="1200.00" y2="480.00" />
<line x1="1200.00" y1="496.00" x2="1216.00" y2="496.00" />
<line x1="1296.00" y1="496.00" x2="1312.00" y2="496.00" />
<line x1="1216.00" y1="512.00" x2="1248.00" y2="512.00" />
<line x1="1264.00" y1="512.00" x2="1296.00" y2="512.00" />
<line x1="560.00" y1="544.00" x2="640.00" y2="544.00" />
<line x1="1184.00" y1="544.00" x2="1248.00" y2="544.00" />
<line x1="1264.00" y1="544.00" x2="1328.00" y2="544.00" />
<line x1="752.00" y1="608.00" x2="816.00" y2="608.00" />
<line x1="832.00" y1="608.00" x2="896.00" y2="608.00" />
<line x1="1200.00" y1="640.00" x2="1328.00" y2="640.00" />
<line x1="320.00" y1="656.00" x2="544.00" y2="656.00" />
<line x1="1056.00" y1="656.00" x2="1184.00" y2="656.00" />
<line x1="480.00" y1="672.00" x2="560.00" y2="672.00" />
<line x1="1152.00" y1="672.00" x2="1200.00" y2="672.00" />
<line x1="768.00" y1="720.00" x2="896.00" y2="720.00" />
<line x1="1312.00" y1="736.00" x2="1504.00" y2="736.00" />
<line x1="320.00" y1="784.00" x2="464.00" y2="784.00" />
<line x1="1056.00" y1="784.00" x2="1088.00" y2="784.00" />
<line x1="1104.00" y1="784.00" x2="1152.00" y2="784.00" />
<line x1="464.00" y1="832.00" x2="688.00" y2="832.00" />
<line x1="752.00" y1="832.00" x2="768.00" y2="832.00" />
<line x1="480.00" y1="816.00" x2="752.00" y2="816.00" />
<line x1="688.00" y1="896.00" x2="752.00" y2="896.00" />
<line x1="1312.00" y1="896.00" x2="1408.00" y2="896.00" />
<line x1="1424.00" y1="896.00" x2="1504.00" y2="896.00" />
<line x1="1056.00" y1="912.00" x2="1088.00" y2="912.00" />
<line x1="1104.00" y1="912.00" x2="1120.00" y2="912.00" />
<line x1="1264.00" y1="928.00" x2="1408.00" y2="928.00" />
<line x1="1424.00" y1="928.00" x2="1456.00" y2="928.00" />
<line x1="1120.00" y1="960.00" x2="1264.00" y2="960.00" />
<line x1="64.00" y1="976.00" x2="144.00" y2="976.00" />
<line x1="1120.00" y1="976.00" x2="1264.00" y2="976.00" />
<line x1="48.00" y1="992.00" x2="64.00" y2="992.00" />
<line x1="144.00" y1="992.00" x2="160.00" y2="992.00" />
<line x1="1072.00" y1="992.00" x2="1120.00" y2="992.00" />
<line x1="528.00" y1="1008.00" x2="608.00" y2="1008.00" />
<line x1="816.00" y1="1008.00" x2="1056.00" y2="1008.00" />
<line x1="1264.00" y1="1008.00" x2="1312.00" y2="1008.00" />
<line x1="1328.00" y1="1008.00" x2="1456.00" y2="1008.00" />
<line x1="512.00" y1="1024.00" x2="528.00" y2="1024.00" />
<line x1="608.00" y1="1024.00" x2="624.00" y2="1024.00" />
<line x1="944.00" y1="1024.00" x2="1072.00" y2="1024.00" />
<line x1="624.00" y1="1088.00" x2="816.00" y2="1088.00" />
<line x1="624.00" y1="1104.00" x2="816.00" y2="1104.00" />
<line x1="48.00" y1="1136.00" x2="64.00" y2="1136.00" />
<line x1="144.00" y1="1136.00" x2="160.00" y2="1136.00" />
<line x1="304.00" y1="1136.00" x2="512.00" y2="1136.00" />
<line x1="816.00" y1="1136.00" x2="832.00" y2="1136.00" />
<line x1="848.00" y1="1136.00" x2="944.00" y2="1136.00" />
<line x1="1280.00" y1="1120.00" x2="1312.00" y2="1120.00" />
<line x1="1328.00" y1="1120.00" x2="1344.00" y2="1120.00" />
<line x1="64.00" y1="1152.00" x2="96.00" y2="1152.00" />
<line x1="112.00" y1="1152.00" x2="144.00" y2="1152.00" />
<line x1="320.00" y1="1152.00" x2="512.00" y2="1152.00" />
<line x1="608.00" y1="1152.00" x2="624.00" y2="1152.00" />
<line x1="64.00" y1="1168.00" x2="96.00" y2="1168.00" />
<line x1="112.00" y1="1168.00" x2="304.00" y2="1168.00" />
<line x1="320.00" y1="1168.00" x2="512.00" y2="1168.00" />
<line x1="528.00" y1="1168.00" x2="608.00" y2="1168.00" />
<line x1="128.00" y1="1184.00" x2="304.00" y2="1184.00" />
<line x1="320.00" y1="1184.00" x2="528.00" y2="1184.00" />
<line x1="128.00" y1="1248.00" x2="304.00" y2="1248.00" />
<line x1="128.00" y1="1264.00" x2="256.00" y2="1264.00" />
<line x1="784.00" y1="1264.00" x2="832.00" y2="1264.00" />
<line x1="848.00" y1="1264.00" x2="880.00" y2="1264.00" />
<line x1="64.00" y1="1296.00" x2="128.00" y2="1296.00" />
<line x1="752.00" y1="1296.00" x2="768.00" y2="1296.00" />
<line x1="896.00" y1="1296.00" x2="912.00" y2="1296.00" />
<line x1="1296.00" y1="1296.00" x2="1344.00" y2="1296.00" />
<line x1="768.00" y1="1280.00" x2="784.00" y2="1280.00" />
<line x1="880.00" y1="1280.00" x2="896.00" y2="1280.00" />
<line x1="432.00" y1="1328.00" x2="496.00" y2="1328.00" />
<line x1="256.00" y1="1360.00" x2="432.00" y2="1360.00" />
<line x1="496.00" y1="1360.00" x2="752.00" y2="1360.00" />
<line x1="1200.00" y1="1360.00" x2="1216.00" y2="1360.00" />
<line x1="1344.00" y1="1360.00" x2="1360.00" y2="1360.00" />
<line x1="320.00" y1="1344.00" x2="432.00" y2="1344.00" />
<line x1="496.00" y1="1344.00" x2="752.00" y2="1344.00" />
<line x1="1216.00" y1="1344.00" x2="1280.00" y2="1344.00" />
<line x1="1296.00" y1="1344.00" x2="1344.00" y2="1344.00" />
<line x1="1184.00" y1="1376.00" x2="1200.00" y2="1376.00" />
<line x1="1360.00" y1="1376.00" x2="1376.00" y2="1376.00" />
<line x1="752.00" y1="1408.00" x2="768.00" y2="1408.00" />
<line x1="896.00" y1="1408.00" x2="912.00" y2="1408.00" />
<line x1="1184.00" y1="1408.00" x2="1200.00" y2="1408.00" />
<line x1="1360.00" y1="1408.00" x2="1376.00" y2="1408.00" />
<line x1="768.00" y1="1424.00" x2="784.00" y2="1424.00" />
<line x1="880.00" y1="1424.00" x2="896.00" y2="1424.00" />
<line x1="1200.00" y1="1424.00" x2="1216.00" y2="1424.00" />
<line x1="1344.00" y1="1424.00" x2="1360.00" y2="1424.00" />
<line x1="784.00" y1="1440.00" x2="880.00" y2="1440.00" />
<line x1="1216.00" y1="1440.00" x2="1344.00" y2="1440.00" />
<line x1="432.00" y1="1456.00" x2="496.00" y2="1456.00" />
<line x1="608.00" y1="32.00" x2="608.00" y2="112.00" />
<line x1="608.00" y1="128.00" x2="608.00" y2="192.00" />
<line x1="608.00" y1="1008.00" x2="608.00" y2="1024.00" />
<line x1="608.00" y1="1152.00" x2="608.00" y2="1168.00" />
<line x1="752.00" y1="32.00" x2="752.00" y2="176.00" />
<line x1="752.00" y1="192.00" x2="752.00" y2="272.00" />
<line x1="752.00" y1="608.00" x2="752.00" y2="816.00" />
<line x1="752.00" y1="832.00" x2="752.00" y2="896.00" />
<line x1="752.00" y1="1296.00" x2="752.00" y2="1344.00" />
<line x1="752.00" y1="1360.00" x2="752.00" y2="1408.00" />
<line x1="240.00" y1="80.00" x2="240.00" y2="272.00" />
<line x1="304.00" y1="80.00" x2="304.00" y2="112.00" />
<line x1="304.00" y1="128.00" x2="304.00" y2="272.00" />
<line x1="304.00" y1="1136.00" x2="304.00" y2="1168.00" />
<line x1="304.00" y1="1184.00" x2="304.00" y2="1248.00" />
<line x1="816.00" y1="176.00" x2="816.00" y2="272.00" />
<line x1="816.00" y1="416.00" x2="816.00" y2="464.00" />
<line x1="816.00" y1="480.00" x2="816.00" y2="608.00" />
<line x1="816.00" y1="1008.00" x2="816.00" y2="1088.00" />
<line x1="816.00" y1="1104.00" x2="816.00" y2="1136.00" />
<line x1="736.00" y1="192.00" x2="736.00" y2="272.00" />
<line x1="800.00" y1="192.00" x2="800.00" y2="272.00" />
<line x1="800.00" y1="288.00" x2="800.00" y2="400.00" />
<line x1="256.00" y1="208.00" x2="256.00" y2="288.00" />
<line x1="256.00" y1="1264.00" x2="256.00" y2="1360.00" />
<line x1="288.00" y1="208.00" x2="288.00" y2="288.00" />
<line x1="80.00" y1="272.00" x2="80.00" y2="384.00" />
<line x1="1168.00" y1="272.00" x2="1168.00" y2="400.00" />
<line x1="176.00" y1="288.00" x2="176.00" y2="368.00" />
<line x1="944.00" y1="288.00" x2="944.00" y2="336.00" />
<line x1="944.00" y1="352.00" x2="944.00" y2="416.00" />
<line x1="944.00" y1="1024.00" x2="944.00" y2="1136.00" />
<line x1="1088.00" y1="288.00" x2="1088.00" y2="336.00" />
<line x1="1088.00" y1="352.00" x2="1088.00" y2="416.00" />
<line x1="1088.00" y1="784.00" x2="1088.00" y2="912.00" />
<line x1="1216.00" y1="352.00" x2="1216.00" y2="368.00" />
<line x1="1216.00" y1="496.00" x2="1216.00" y2="512.00" />
<line x1="1216.00" y1="1344.00" x2="1216.00" y2="1360.00" />
<line x1="1216.00" y1="1424.00" x2="1216.00" y2="1440.00" />
<line x1="1296.00" y1="352.00" x2="1296.00" y2="368.00" />
<line x1="1296.00" y1="496.00" x2="1296.00" y2="512.00" />
<line x1="1296.00" y1="1296.00" x2="1296.00" y2="1344.00" />
<line x1="560.00" y1="368.00" x2="560.00" y2="464.00" />
<line x1="560.00" y1="544.00" x2="560.00" y2="672.00" />
<line x1="1200.00" y1="368.00" x2="1200.00" y2="400.00" />
<line x1="1200.00" y1="416.00" x2="1200.00" y2="464.00" />
<line x1="1200.00" y1="480.00" x2="1200.00" y2="496.00" />
<line x1="1200.00" y1="640.00" x2="1200.00" y2="672.00" />
<line x1="1200.00" y1="1360.00" x2="1200.00" y2="1376.00" />
<line x1="1200.00" y1="1408.00" x2="1200.00" y2="1424.00" />
<line x1="1312.00" y1="368.00" x2="1312.00" y2="496.00" />
<line x1="1312.00" y1="736.00" x2="1312.00" y2="896.00" />
<line x1="1312.00" y1="1008.00" x2="1312.00" y2="1120.00" />
<line x1="544.00" y1="384.00" x2="544.00" y2="656.00" />
<line x1="624.00" y1="400.00" x2="624.00" y2="464.00" />
<line x1="624.00" y1="1024.00" x2="624.00" y2="1088.00" />
<line x1="624.00" y1="1104.00" x2="624.00" y2="1152.00" />
<line x1="640.00" y1="416.00" x2="640.00" y2="464.00" />
<line x1="640.00" y1="480.00" x2="640.00" y2="544.00" />
<line x1="832.00" y1="416.00" x2="832.00" y2="464.00" />
<line x1="832.00" y1="480.00" x2="832.00" y2="608.00" />
<line x1="832.00" y1="1136.00" x2="832.00" y2="1264.00" />
<line x1="1248.00" y1="512.00" x2="1248.00" y2="544.00" />
<line x1="1264.00" y1="512.00" x2="1264.00" y2="544.00" />
<line x1="1264.00" y1="928.00" x2="1264.00" y2="960.00" />
<line x1="1264.00" y1="976.00" x2="1264.00" y2="1008.00" />
<line x1="1184.00" y1="544.00" x2="1184.00" y2="656.00" />
<line x1="1184.00" y1="1376.00" x2="1184.00" y2="1408.00" />
<line x1="1328.00" y1="544.00" x2="1328.00" y2="640.00" />
<line x1="1328.00" y1="1008.00" x2="1328.00" y2="1120.00" />
<line x1="896.00" y1="608.00" x2="896.00" y2="720.00" />
<line x1="896.00" y1="1280.00" x2="896.00" y2="1296.00" />
<line x1="896.00" y1="1408.00" x2="896.00" y2="1424.00" />
<line x1="320.00" y1="656.00" x2="320.00" y2="784.00" />
<line x1="320.00" y1="1152.00" x2="320.00" y2="1168.00" />
<line x1="320.00" y1="1184.00" x2="320.00" y2="1344.00" />
<line x1="1056.00" y1="656.00" x2="1056.00" y2="784.00" />
<line x1="1056.00" y1="912.00" x2="1056.00" y2="1008.00" />
<line x1="480.00" y1="672.00" x2="480.00" y2="816.00" />
<line x1="1152.00" y1="672.00" x2="1152.00" y2="784.00" />
<line x1="768.00" y1="720.00" x2="768.00" y2="832.00" />
<line x1="768.00" y1="1280.00" x2="768.00" y2="1296.00" />
<line x1="768.00" y1="1408.00" x2="768.00" y2="1424.00" />
<line x1="1504.00" y1="736.00" x2="1504.00" y2="896.00" />
<line x1="464.00" y1="784.00" x2="464.00" y2="832.00" />
<line x1="1104.00" y1="784.00" x2="1104.00" y2="912.00" />
<line x1="688.00" y1="832.00" x2="688.00" y2="896.00" />
<line x1="1408.00" y1="896.00" x2="1408.00" y2="928.00" />
<line x1="1424.00" y1="896.00" x2="1424.00" y2="928.00" />
<line x1="1120.00" y1="912.00" x2="1120.00" y2="960.00" />
<line x1="1120.00" y1="976.00" x2="1120.00" y2="992.00" />
<line x1="1456.00" y1="928.00" x2="1456.00" y2="1008.00" />
<line x1="64.00" y1="976.00" x2="64.00" y2="992.00" />
<line x1="64.00" y1="1136.00" x2="64.00" y2="1152.00" />
<line x1="64.00" y1="1168.00" x2="64.00" y2="1296.00" />
<line x1="144.00" y1="976.00" x2="144.00" y2="992.00" />
<line x1="144.00" y1="1136.00" x2="144.00" y2="1152.00" />
<line x1="48.00" y1="992.00" x2="48.00" y2="1136.00" />
<line x1="160.00" y1="992.00" x2="160.00" y2="1136.00" />
<line x1="1072.00" y1="992.00" x2="1072.00" y2="1024.00" />
<line x1="528.00" y1="1008.00" x2="528.00" y2="1024.00" />
<line x1="528.00" y1="1168.00" x2="528.00" y2="1184.00" />
<line x1="512.00" y1="1024.00" x2="512.00" y2="1136.00" />
<line x1="512.00" y1="1152.00" x2="512.00" y2="1168.00" />
<line x1="1280.00" y1="1120.00" x2="1280.00" y2="1344.00" />
<line x1="1344.00" y1="1120.00" x2="1344.00" y2="1296.00" />
<line x1="1344.00" y1="1344.00" x2="1344.00" y2="1360.00" />
<line x1="1344.00" y1="1424.00" x2="1344.00" y2="1440.00" />
<line x1="848.00" y1="1136.00" x2="848.00" y2="1264.00" />
<line x1="96.00" y1="1152.00" x2="96.00" y2="1168.00" />
<line x1="112.00" y1="1152.00" x2="112.00" y2="1168.00" />
<line x1="128.00" y1="1184.00" x2="128.00" y2="1248.00" />
<line x1="128.00" y1="1264.00" x2="128.00" y2="1296.00" />
<line x1="784.00" y1="1264.00" x2="784.00" y2="1280.00" />
<line x1="784.00" y1="1424.00" x2="784.00" y2="1440.00" />
<line x1="880.00" y1="1264.00" x2="880.00" y2="1280.00" />
<line x1="880.00" y1="1424.00" x2="880.00" y2="1440.00" />
<line x1="912.00" y1="1296.00" x2="912.00" y2="1408.00" />
<line x1="432.00" y1="1328.00" x2="432.00" y2="1344.00" />
<line x1="432.00" y1="1360.00" x2="432.00" y2="1456.00" />
<line x1="496.00" y1="1328.00" x2="496.00" y2="1344.00" />
<line x1="496.00" y1="1360.00" x2="496.00" y2="1456.00" />
<line x1="1360.00" y1="1360.00" x2="1360.00" y2="1376.00" />
<line x1="1360.00" y1="1408.00" x2="1360.00" y2="1424.00" />
<line x1="1376.00" y1="1376.00" x2="1376.00" y2="1408.00" />
  </g>
  <g class="features">
<g data-feature-type="stairsDown"><line data-feature-type="stairsDown" x1="1426.24" y1="819.36" x2="1437.76" y2="819.36" /><line x1="1426.65" y1="821.68" x2="1437.35" y2="821.68" /><line x1="1427.07" y1="824.00" x2="1436.93" y2="824.00" /><line x1="1427.48" y1="826.32" x2="1436.52" y2="826.32" /><line x1="1427.90" y1="828.64" x2="1436.10" y2="828.64" /></g>
<g data-feature-type="stairsUp"><line data-feature-type="stairsUp" x1="835.90" y1="1315.36" x2="844.10" y2="1315.36" /><line x1="835.48" y1="1317.68" x2="844.52" y2="1317.68" /><line x1="835.07" y1="1320.00" x2="844.93" y2="1320.00" /><line x1="834.65" y1="1322.32" x2="845.35" y2="1322.32" /><line x1="834.24" y1="1324.64" x2="845.76" y2="1324.64" /></g>
<circle data-feature-type="pillar" cx="696.00" cy="136.00" r="3.68" fill="#4f89a8" stroke="none" />
<circle data-feature-type="pillar" cx="696.00" cy="104.00" r="3.68" fill="#4f89a8" stroke="none" />
<circle data-feature-type="pillar" cx="712.00" cy="104.00" r="3.68" fill="#4f89a8" stroke="none" />
<g data-feature-type="altar"><rect x="629.28" y="134.40" width="5.44" height="3.20" fill="none" /><line x1="632.00" y1="133.44" x2="632.00" y2="138.56" /><line x1="630.40" y1="136.00" x2="633.60" y2="136.00" /></g>
<circle data-feature-type="pillar" cx="824.00" cy="648.00" r="3.68" fill="#4f89a8" stroke="none" />
<circle data-feature-type="pillar" cx="824.00" cy="696.00" r="3.68" fill="#4f89a8" stroke="none" />
<circle data-feature-type="pillar" cx="392.00" cy="744.00" r="3.68" fill="#4f89a8" stroke="none" />
<circle data-feature-type="pillar" cx="424.00" cy="744.00" r="3.68" fill="#4f89a8" stroke="none" />
<circle data-feature-type="pillar" cx="376.00" cy="712.00" r="3.68" fill="#4f89a8" stroke="none" />
<g data-feature-type="altar"><rect x="357.28" y="726.40" width="5.44" height="3.20" fill="none" /><line x1="360.00" y1="725.44" x2="360.00" y2="730.56" /><line x1="358.40" y1="728.00" x2="361.60" y2="728.00" /></g>
<g data-feature-type="chest"><rect x="453.28" y="758.24" width="5.44" height="3.52" fill="none" /><line x1="453.28" y1="760.00" x2="458.72" y2="760.00" /><circle cx="456.00" cy="760.18" r="0.70" fill="#4f89a8" stroke="none" /></g>
<circle data-feature-type="pillar" cx="904.00" cy="360.00" r="3.68" fill="#4f89a8" stroke="none" />
<circle data-feature-type="pillar" cx="888.00" cy="360.00" r="3.68" fill="#4f89a8" stroke="none" />
<circle data-feature-type="pillar" cx="840.00" cy="360.00" r="3.68" fill="#4f89a8" stroke="none" />
<circle data-feature-type="pillar" cx="1368.00" cy="1000.00" r="3.68" fill="#4f89a8" stroke="none" />
<circle data-feature-type="pillar" cx="1368.00" cy="936.00" r="3.68" fill="#4f89a8" stroke="none" />
<circle data-feature-type="pillar" cx="808.00" cy="1336.00" r="3.68" fill="#4f89a8" stroke="none" />
<circle data-feature-type="pillar" cx="856.00" cy="1368.00" r="3.68" fill="#4f89a8" stroke="none" />
<circle data-feature-type="pillar" cx="872.00" cy="1368.00" r="3.68" fill="#4f89a8" stroke="none" />
<circle data-feature-type="pillar" cx="856.00" cy="1336.00" r="3.68" fill="#4f89a8" stroke="none" />
<g data-feature-type="statue"><circle cx="888.00" cy="1400.00" r="3.52" fill="none" /><line x1="885.76" y1="1400.00" x2="890.24" y2="1400.00" /><line x1="888.00" y1="1397.76" x2="888.00" y2="1402.24" /><line x1="886.39" y1="1398.39" x2="889.61" y2="1401.61" /><line x1="886.39" y1="1401.61" x2="889.61" y2="1398.39" /></g>
<g data-feature-type="trap"><rect x="804.64" y="1380.64" width="6.72" height="6.72" fill="none" /><line x1="804.64" y1="1380.64" x2="811.36" y2="1387.36" /><line x1="804.64" y1="1387.36" x2="811.36" y2="1380.64" /></g>
<circle data-feature-type="pillar" cx="1256.00" cy="584.00" r="3.68" fill="#4f89a8" stroke="none" />
<circle data-feature-type="pillar" cx="1256.00" cy="616.00" r="3.68" fill="#4f89a8" stroke="none" />
<path data-feature-type="curtain" d="M 1238.40 611.84 Q 1240.00 614.34 1238.40 616.00 Q 1240.00 617.66 1238.40 620.16" fill="none" /><path d="M 1241.60 611.84 Q 1240.00 614.34 1241.60 616.00 Q 1240.00 617.66 1241.60 620.16" fill="none" />
<g data-feature-type="statue"><circle cx="1128.00" cy="328.00" r="3.52" fill="none" /><line x1="1125.76" y1="328.00" x2="1130.24" y2="328.00" /><line x1="1128.00" y1="325.76" x2="1128.00" y2="330.24" /><line x1="1126.39" y1="326.39" x2="1129.61" y2="329.61" /><line x1="1126.39" y1="329.61" x2="1129.61" y2="326.39" /></g>
<g data-feature-type="coffin"><rect x="1109.60" y="388.32" width="4.80" height="7.36" rx="0.80" ry="0.80" fill="none" /><line x1="1112.00" y1="389.94" x2="1112.00" y2="394.06" /></g>
<circle data-feature-type="pillar" cx="904.00" cy="1080.00" r="3.68" fill="#4f89a8" stroke="none" />
<circle data-feature-type="pillar" cx="488.00" cy="1400.00" r="3.68" fill="#4f89a8" stroke="none" />
<circle data-feature-type="pillar" cx="120.00" cy="1240.00" r="3.68" fill="#4f89a8" stroke="none" />
<path data-feature-type="curtain" d="M 102.40 1251.84 Q 104.00 1254.34 102.40 1256.00 Q 104.00 1257.66 102.40 1260.16" fill="none" /><path d="M 105.60 1251.84 Q 104.00 1254.34 105.60 1256.00 Q 104.00 1257.66 105.60 1260.16" fill="none" />
<circle data-feature-type="pillar" cx="616.00" cy="504.00" r="3.68" fill="#4f89a8" stroke="none" />
<circle data-feature-type="pillar" cx="1144.00" cy="728.00" r="3.68" fill="#4f89a8" stroke="none" />
<circle data-feature-type="pillar" cx="1096.00" cy="728.00" r="3.68" fill="#4f89a8" stroke="none" />
<circle data-feature-type="pillar" cx="1304.00" cy="1400.00" r="3.68" fill="#4f89a8" stroke="none" />
<g data-feature-type="well"><circle cx="1208.00" cy="1416.00" r="4.00" fill="none" /><circle cx="1208.00" cy="1416.00" r="2.24" fill="none" /></g>
<circle data-feature-type="pillar" cx="1272.00" cy="440.00" r="3.68" fill="#4f89a8" stroke="none" />
<circle data-feature-type="pillar" cx="1384.00" cy="840.00" r="3.68" fill="#4f89a8" stroke="none" />
<circle data-feature-type="pillar" cx="1448.00" cy="840.00" r="3.68" fill="#4f89a8" stroke="none" />
<circle data-feature-type="pillar" cx="1432.00" cy="808.00" r="3.68" fill="#4f89a8" stroke="none" />
<circle data-feature-type="pillar" cx="1384.00" cy="808.00" r="3.68" fill="#4f89a8" stroke="none" />
<circle data-feature-type="pillar" cx="568.00" cy="1064.00" r="3.68" fill="#4f89a8" stroke="none" />
<circle data-feature-type="pillar" cx="568.00" cy="1112.00" r="3.68" fill="#4f89a8" stroke="none" />
<g data-feature-type="coffin"><rect x="565.60" y="1140.32" width="4.80" height="7.36" rx="0.80" ry="0.80" fill="none" /><line x1="568.00" y1="1141.94" x2="568.00" y2="1146.06" /></g>
<path data-feature-type="curtain" d="M 598.40 1139.84 Q 600.00 1142.34 598.40 1144.00 Q 600.00 1145.66 598.40 1148.16" fill="none" /><path d="M 601.60 1139.84 Q 600.00 1142.34 601.60 1144.00 Q 600.00 1145.66 601.60 1148.16" fill="none" />
<circle data-feature-type="pillar" cx="1336.00" cy="1208.00" r="3.68" fill="#4f89a8" stroke="none" />
<g data-feature-type="well"><circle cx="88.00" cy="1128.00" r="4.00" fill="none" /><circle cx="88.00" cy="1128.00" r="2.24" fill="none" /></g>
<g data-feature-type="coffin"><rect x="117.60" y="1124.32" width="4.80" height="7.36" rx="0.80" ry="0.80" fill="none" /><line x1="120.00" y1="1125.94" x2="120.00" y2="1130.06" /></g>
<circle data-feature-type="pillar" cx="296.00" cy="152.00" r="3.68" fill="#4f89a8" stroke="none" />
<g data-feature-type="trap"><rect x="276.64" y="100.64" width="6.72" height="6.72" fill="none" /><line x1="276.64" y1="100.64" x2="283.36" y2="107.36" /><line x1="276.64" y1="107.36" x2="283.36" y2="100.64" /></g>
<g data-feature-type="chest"><rect x="277.28" y="118.24" width="5.44" height="3.52" fill="none" /><line x1="277.28" y1="120.00" x2="282.72" y2="120.00" /><circle cx="280.00" cy="120.18" r="0.70" fill="#4f89a8" stroke="none" /></g>
<circle data-feature-type="pillar" cx="312.00" cy="1304.00" r="3.68" fill="#4f89a8" stroke="none" />
<g data-feature-type="trap"><rect x="276.64" y="1332.64" width="6.72" height="6.72" fill="none" /><line x1="276.64" y1="1332.64" x2="283.36" y2="1339.36" /><line x1="276.64" y1="1339.36" x2="283.36" y2="1332.64" /></g>
<g data-feature-type="trap"><rect x="1076.64" y="932.64" width="6.72" height="6.72" fill="none" /><line x1="1076.64" y1="932.64" x2="1083.36" y2="939.36" /><line x1="1076.64" y1="939.36" x2="1083.36" y2="932.64" /></g>
<g data-feature-type="chest"><rect x="1077.28" y="966.24" width="5.44" height="3.52" fill="none" /><line x1="1077.28" y1="968.00" x2="1082.72" y2="968.00" /><circle cx="1080.00" cy="968.18" r="0.70" fill="#4f89a8" stroke="none" /></g>
  </g>
  <g class="thresholds">
<g data-threshold-type="locked" stroke="#4f89a8" fill="none" stroke-width="1.52"><rect x="611.52" y="117.76" width="8.96" height="4.48" fill="#ffffff" /><circle cx="616.00" cy="116.77" r="1.61" /></g>
<rect data-threshold-type="door" x="163.52" y="373.76" width="8.96" height="4.48" fill="#ffffff" stroke="#4f89a8" stroke-width="1.52" />
<rect data-threshold-type="door" x="755.52" y="709.76" width="8.96" height="4.48" fill="#ffffff" stroke="#4f89a8" stroke-width="1.52" />
<rect data-threshold-type="door" x="467.52" y="773.76" width="8.96" height="4.48" fill="#ffffff" stroke="#4f89a8" stroke-width="1.52" />
<rect data-threshold-type="door" x="803.52" y="405.76" width="8.96" height="4.48" fill="#ffffff" stroke="#4f89a8" stroke-width="1.52" />
<rect data-threshold-type="door" x="1267.52" y="965.76" width="8.96" height="4.48" fill="#ffffff" stroke="#4f89a8" stroke-width="1.52" />
<rect data-threshold-type="door" x="835.52" y="1269.76" width="8.96" height="4.48" fill="#ffffff" stroke="#4f89a8" stroke-width="1.52" />
<rect data-threshold-type="door" x="1251.52" y="549.76" width="8.96" height="4.48" fill="#ffffff" stroke="#4f89a8" stroke-width="1.52" />
<rect data-threshold-type="door" x="1155.52" y="405.76" width="8.96" height="4.48" fill="#ffffff" stroke="#4f89a8" stroke-width="1.52" />
<rect data-threshold-type="door" x="819.52" y="1093.76" width="8.96" height="4.48" fill="#ffffff" stroke="#4f89a8" stroke-width="1.52" />
<rect data-threshold-type="door" x="483.52" y="1349.76" width="8.96" height="4.48" fill="#ffffff" stroke="#4f89a8" stroke-width="1.52" />
<rect data-threshold-type="door" x="115.52" y="1173.76" width="8.96" height="4.48" fill="#ffffff" stroke="#4f89a8" stroke-width="1.52" />
<rect data-threshold-type="door" x="547.52" y="533.76" width="8.96" height="4.48" fill="#ffffff" stroke="#4f89a8" stroke-width="1.52" />
<rect data-threshold-type="door" x="739.52" y="821.76" width="8.96" height="4.48" fill="#ffffff" stroke="#4f89a8" stroke-width="1.52" />
<rect data-threshold-type="door" x="1139.52" y="661.76" width="8.96" height="4.48" fill="#ffffff" stroke="#4f89a8" stroke-width="1.52" />
<g data-threshold-type="secret"><line x1="1283.52" y1="1352.00" x2="1292.48" y2="1352.00" stroke="#4f89a8" stroke-width="1.31" stroke-dasharray="1.31 1.31" /><text x="1293.56" y="1351.10" font-size="5.44" fill="#4f89a8" font-family="Courier New, monospace" font-weight="700">S</text></g>
<rect data-threshold-type="door" x="1251.52" y="501.76" width="8.96" height="4.48" fill="#ffffff" stroke="#4f89a8" stroke-width="1.52" />
<rect data-threshold-type="door" x="1411.52" y="885.76" width="8.96" height="4.48" fill="#ffffff" stroke="#4f89a8" stroke-width="1.52" />
<g data-threshold-type="secret"><line x1="515.52" y1="1144.00" x2="524.48" y2="1144.00" stroke="#4f89a8" stroke-width="1.31" stroke-dasharray="1.31 1.31" /><text x="525.56" y="1143.10" font-size="5.44" fill="#4f89a8" font-family="Courier New, monospace" font-weight="700">S</text></g>
<rect data-threshold-type="door" x="1283.52" y="1285.76" width="8.96" height="4.48" fill="#ffffff" stroke="#4f89a8" stroke-width="1.52" />
<rect data-threshold-type="door" x="99.52" y="1141.76" width="8.96" height="4.48" fill="#ffffff" stroke="#4f89a8" stroke-width="1.52" />
<rect data-threshold-type="door" x="291.52" y="117.76" width="8.96" height="4.48" fill="#ffffff" stroke="#4f89a8" stroke-width="1.52" />
<rect data-threshold-type="door" x="307.52" y="1253.76" width="8.96" height="4.48" fill="#ffffff" stroke="#4f89a8" stroke-width="1.52" />
<rect data-threshold-type="door" x="1107.52" y="965.76" width="8.96" height="4.48" fill="#ffffff" stroke="#4f89a8" stroke-width="1.52" />
  </g>
  <g class="labels">
<text x="680.00" y="121.92" text-anchor="middle">1</text>
<text x="136.00" y="329.92" text-anchor="middle">2</text>
<text x="824.00" y="665.92" text-anchor="middle">3</text>
<text x="408.00" y="729.92" text-anchor="middle">4</text>
<text x="872.00" y="345.92" text-anchor="middle">5</text>
<text x="1368.00" y="969.92" text-anchor="middle">6</text>
<text x="840.00" y="1353.92" text-anchor="middle">7</text>
<text x="1256.00" y="601.92" text-anchor="middle">8</text>
<text x="1128.00" y="345.92" text-anchor="middle">9</text>
<text x="888.00" y="1081.92" text-anchor="middle">10</text>
<text x="472.00" y="1401.92" text-anchor="middle">11</text>
<text x="104.00" y="1241.92" text-anchor="middle">12</text>
<text x="600.00" y="505.92" text-anchor="middle">13</text>
<text x="728.00" y="857.92" text-anchor="middle">14</text>
<text x="1112.00" y="729.92" text-anchor="middle">15</text>
<text x="1288.00" y="1401.92" text-anchor="middle">16</text>
<text x="1256.00" y="441.92" text-anchor="middle">17</text>
<text x="1416.00" y="825.92" text-anchor="middle">18</text>
<text x="568.00" y="1097.92" text-anchor="middle">19</text>
<text x="1320.00" y="1209.92" text-anchor="middle">20</text>
<text x="104.00" y="1065.92" text-anchor="middle">21</text>
<text x="280.00" y="153.92" text-anchor="middle">22</text>
<text x="296.00" y="1305.92" text-anchor="middle">23</text>
<text x="1096.00" y="953.92" text-anchor="middle">24</text>
  </g>
</svg>