<?xml version="1.0" encoding="UTF-8"?>
<svg xmlns="http://www.w3.org/2000/svg" width="1536" height="1536" viewBox="0 0 1536.00 1536.00" role="img" aria-label="MapIR render: Learned Generated Map 6">
  <defs>
    <style>
      .grid { stroke: #cde2ec; stroke-width: 0.64; opacity: 0.72; }
      .walls { stroke: #6aa7c7; stroke-width: 1.92; fill: none; stroke-linecap: square; }
      .thresholds { fill: none; stroke-linecap: round; }
      .features { stroke: #4f89a8; fill: none; stroke-width: 1.60; stroke-linecap: round; stroke-linejoin: round; }
      .labels { fill: #4f89a8; font-size: 7.20px; font-family: "Courier New", monospace; font-weight: 600; }
    </style>
  </defs>
  <rect x="0" y="0" width="1536.00" height="1536.00" fill="#4393be" />
  <g class="floors">
<rect x="1120.00" y="48.00" width="128.00" height="96.00" fill="#fcfdfe" />
<rect x="496.00" y="64.00" width="32.00" height="144.00" fill="#fcfdfe" />
<rect x="1104.00" y="64.00" width="16.00" height="80.00" fill="#fcfdfe" />
<rect x="1248.00" y="64.00" width="16.00" height="80.00" fill="#fcfdfe" />
<rect x="288.00" y="80.00" width="48.00" height="128.00" fill="#fcfdfe" />
<rect x="464.00" y="80.00" width="32.00" height="112.00" fill="#fcfdfe" />
<rect x="528.00" y="80.00" width="32.00" height="112.00" fill="#fcfdfe" />
<rect x="1088.00" y="80.00" width="16.00" height="32.00" fill="#fcfdfe" />
<rect x="1264.00" y="80.00" width="16.00" height="32.00" fill="#fcfdfe" />
<rect x="256.00" y="96.00" width="32.00" height="96.00" fill="#fcfdfe" />
<rect x="336.00" y="96.00" width="32.00" height="96.00" fill="#fcfdfe" />
<rect x="448.00" y="96.00" width="16.00" height="80.00" fill="#fcfdfe" />
<rect x="560.00" y="96.00" width="16.00" height="80.00" fill="#fcfdfe" />
<rect x="1280.00" y="96.00" width="208.00" height="16.00" fill="#fcfdfe" />
<rect x="96.00" y="112.00" width="64.00" height="64.00" fill="#fcfdfe" />
<rect x="1376.00" y="112.00" width="112.00" height="144.00" fill="#fcfdfe" />
<rect x="240.00" y="128.00" width="16.00" height="32.00" fill="#fcfdfe" />
<rect x="368.00" y="128.00" width="80.00" height="16.00" fill="#fcfdfe" />
<rect x="576.00" y="128.00" width="528.00" height="16.00" fill="#fcfdfe" />
<rect x="1264.00" y="128.00" width="112.00" height="16.00" fill="#fcfdfe" />
<rect x="160.00" y="144.00" width="80.00" height="16.00" fill="#fcfdfe" />
<rect x="368.00" y="144.00" width="16.00" height="16.00" fill="#fcfdfe" />
<rect x="1136.00" y="144.00" width="16.00" height="720.00" fill="#fcfdfe" />
<rect x="1168.00" y="144.00" width="16.00" height="432.00" fill="#fcfdfe" />
<rect x="128.00" y="176.00" width="16.00" height="496.00" fill="#fcfdfe" />
<rect x="1104.00" y="192.00" width="32.00" height="80.00" fill="#fcfdfe" />
<rect x="1152.00" y="192.00" width="16.00" height="80.00" fill="#fcfdfe" />
<rect x="1184.00" y="192.00" width="48.00" height="80.00" fill="#fcfdfe" />
<rect x="496.00" y="208.00" width="16.00" height="544.00" fill="#fcfdfe" />
<rect x="800.00" y="272.00" width="64.00" height="176.00" fill="#fcfdfe" />
<rect x="768.00" y="288.00" width="32.00" height="160.00" fill="#fcfdfe" />
<rect x="864.00" y="288.00" width="32.00" height="144.00" fill="#fcfdfe" />
<rect x="752.00" y="304.00" width="16.00" height="112.00" fill="#fcfdfe" />
<rect x="896.00" y="304.00" width="16.00" height="112.00" fill="#fcfdfe" />
<rect x="736.00" y="336.00" width="16.00" height="48.00" fill="#fcfdfe" />
<rect x="912.00" y="336.00" width="16.00" height="48.00" fill="#fcfdfe" />
<rect x="416.00" y="352.00" width="80.00" height="128.00" fill="#fcfdfe" />
<rect x="1344.00" y="416.00" width="144.00" height="128.00" fill="#fcfdfe" />
<rect x="736.00" y="432.00" width="32.00" height="16.00" fill="#fcfdfe" />
<rect x="1184.00" y="432.00" width="16.00" height="432.00" fill="#fcfdfe" />
<rect x="736.00" y="448.00" width="16.00" height="272.00" fill="#fcfdfe" />
<rect x="1152.00" y="448.00" width="16.00" height="112.00" fill="#fcfdfe" />
<rect x="1200.00" y="448.00" width="32.00" height="112.00" fill="#fcfdfe" />
<rect x="1120.00" y="464.00" width="16.00" height="80.00" fill="#fcfdfe" />
<rect x="1232.00" y="464.00" width="16.00" height="80.00" fill="#fcfdfe" />
<rect x="416.00" y="480.00" width="16.00" height="624.00" fill="#fcfdfe" />
<rect x="1104.00" y="496.00" width="16.00" height="16.00" fill="#fcfdfe" />
<rect x="1248.00" y="496.00" width="96.00" height="16.00" fill="#fcfdfe" />
<rect x="96.00" y="544.00" width="32.00" height="128.00" fill="#fcfdfe" />
<rect x="144.00" y="544.00" width="32.00" height="128.00" fill="#fcfdfe" />
<rect x="1392.00" y="544.00" width="16.00" height="224.00" fill="#fcfdfe" />
<rect x="688.00" y="624.00" width="48.00" height="96.00" fill="#fcfdfe" />
<rect x="1344.00" y="688.00" width="48.00" height="80.00" fill="#fcfdfe" />
<rect x="1408.00" y="688.00" width="32.00" height="80.00" fill="#fcfdfe" />
<rect x="608.00" y="704.00" width="80.00" height="16.00" fill="#fcfdfe" />
<rect x="752.00" y="704.00" width="384.00" height="16.00" fill="#fcfdfe" />
<rect x="1152.00" y="704.00" width="32.00" height="16.00" fill="#fcfdfe" />
<rect x="1200.00" y="704.00" width="32.00" height="16.00" fill="#fcfdfe" />
<rect x="608.00" y="720.00" width="16.00" height="96.00" fill="#fcfdfe" />
<rect x="1024.00" y="720.00" width="112.00" height="144.00" fill="#fcfdfe" />
<rect x="1216.00" y="720.00" width="16.00" height="224.00" fill="#fcfdfe" />
<rect x="512.00" y="736.00" width="96.00" height="80.00" fill="#fcfdfe" />
<rect x="1344.00" y="768.00" width="16.00" height="176.00" fill="#fcfdfe" />
<rect x="544.00" y="816.00" width="16.00" height="208.00" fill="#fcfdfe" />
<rect x="384.00" y="848.00" width="32.00" height="16.00" fill="#fcfdfe" />
<rect x="432.00" y="848.00" width="112.00" height="16.00" fill="#fcfdfe" />
<rect x="560.00" y="848.00" width="464.00" height="16.00" fill="#fcfdfe" />
<rect x="1152.00" y="848.00" width="32.00" height="16.00" fill="#fcfdfe" />
<rect x="1200.00" y="848.00" width="16.00" height="16.00" fill="#fcfdfe" />
<rect x="1232.00" y="848.00" width="112.00" height="96.00" fill="#fcfdfe" />
<rect x="1360.00" y="848.00" width="48.00" height="96.00" fill="#fcfdfe" />
<rect x="384.00" y="864.00" width="16.00" height="176.00" fill="#fcfdfe" />
<rect x="496.00" y="864.00" width="48.00" height="144.00" fill="#fcfdfe" />
<rect x="560.00" y="864.00" width="48.00" height="144.00" fill="#fcfdfe" />
<rect x="1024.00" y="864.00" width="16.00" height="80.00" fill="#fcfdfe" />
<rect x="336.00" y="880.00" width="48.00" height="160.00" fill="#fcfdfe" />
<rect x="480.00" y="880.00" width="16.00" height="112.00" fill="#fcfdfe" />
<rect x="608.00" y="880.00" width="16.00" height="112.00" fill="#fcfdfe" />
<rect x="400.00" y="928.00" width="16.00" height="16.00" fill="#fcfdfe" />
<rect x="432.00" y="928.00" width="48.00" height="16.00" fill="#fcfdfe" />
<rect x="928.00" y="928.00" width="96.00" height="16.00" fill="#fcfdfe" />
<rect x="928.00" y="944.00" width="80.00" height="128.00" fill="#fcfdfe" />
<rect x="1360.00" y="944.00" width="16.00" height="176.00" fill="#fcfdfe" />
<rect x="512.00" y="1008.00" width="32.00" height="16.00" fill="#fcfdfe" />
<rect x="560.00" y="1008.00" width="32.00" height="16.00" fill="#fcfdfe" />
<rect x="368.00" y="1040.00" width="16.00" height="144.00" fill="#fcfdfe" />
<rect x="1264.00" y="1056.00" width="96.00" height="64.00" fill="#fcfdfe" />
<rect x="1376.00" y="1056.00" width="80.00" height="64.00" fill="#fcfdfe" />
<rect x="336.00" y="1088.00" width="32.00" height="96.00" fill="#fcfdfe" />
<rect x="384.00" y="1088.00" width="32.00" height="80.00" fill="#fcfdfe" />
<rect x="320.00" y="1104.00" width="16.00" height="64.00" fill="#fcfdfe" />
<rect x="304.00" y="1120.00" width="16.00" height="32.00" fill="#fcfdfe" />
<rect x="416.00" y="1120.00" width="16.00" height="32.00" fill="#fcfdfe" />
<rect x="1392.00" y="1120.00" width="16.00" height="240.00" fill="#fcfdfe" />
<rect x="384.00" y="1168.00" width="16.00" height="160.00" fill="#fcfdfe" />
<rect x="640.00" y="1168.00" width="48.00" height="144.00" fill="#fcfdfe" />
<rect x="624.00" y="1184.00" width="16.00" height="112.00" fill="#fcfdfe" />
<rect x="688.00" y="1184.00" width="16.00" height="112.00" fill="#fcfdfe" />
<rect x="608.00" y="1200.00" width="16.00" height="80.00" fill="#fcfdfe" />
<rect x="704.00" y="1200.00" width="16.00" height="80.00" fill="#fcfdfe" />
<rect x="592.00" y="1216.00" width="16.00" height="48.00" fill="#fcfdfe" />
<rect x="720.00" y="1216.00" width="16.00" height="48.00" fill="#fcfdfe" />
<rect x="832.00" y="1216.00" width="176.00" height="192.00" fill="#fcfdfe" />
<rect x="480.00" y="1248.00" width="112.00" height="16.00" fill="#fcfdfe" />
<rect x="736.00" y="1248.00" width="96.00" height="16.00" fill="#fcfdfe" />
<rect x="480.00" y="1264.00" width="16.00" height="224.00" fill="#fcfdfe" />
<rect x="1344.00" y="1296.00" width="48.00" height="64.00" fill="#fcfdfe" />
<rect x="1408.00" y="1296.00" width="32.00" height="64.00" fill="#fcfdfe" />
<rect x="400.00" y="1312.00" width="80.00" height="176.00" fill="#fcfdfe" />
<rect x="1088.00" y="1312.00" width="192.00" height="96.00" fill="#fcfdfe" />
<rect x="1280.00" y="1328.00" width="64.00" height="16.00" fill="#fcfdfe" />
<rect x="1008.00" y="1360.00" width="80.00" height="16.00" fill="#fcfdfe" />
<rect x="496.00" y="1392.00" width="336.00" height="16.00" fill="#fcfdfe" />
  </g>
  <g class="grid">
<line x1="0.00" y1="0" x2="0.00" y2="1536.00" />
<line x1="16.00" y1="0" x2="16.00" y2="1536.00" />
<line x1="32.00" y1="0" x2="32.00" y2="1536.00" />
<line x1="48.00" y1="0" x2="48.00" y2="1536.00" />
<line x1="64.00" y1="0" x2="64.00" y2="1536.00" />
<line x1="80.00" y1="0" x2="80.00" y2="1536.00" />
<line x1="96.00" y1="0" x2="96.00" y2="1536.00" />
<line x1="112.00" y1="0" x2="112.00" y2="1536.00" />
<line x1="128.00" y1="0" x2="128.00" y2="1536.00" />
<line x1="144.00" y1="0" x2="144.00" y2="1536.00" />
<line x1="160.00" y1="0" x2="160.00" y2="1536.00" />
<line x1="176.00" y1="0" x2="176.00" y2="1536.00" />
<line x1="192.00" y1="0" x2="192.00" y2="1536.00" />
<line x1="208.00" y1="0" x2="208.00" y2="1536.00" />
<line x1="224.00" y1="0" x2="224.00" y2="1536.00" />
<line x1="240.00" y1="0" x2="240.00" y2="1536.00" />
<line x1="256.00" y1="0" x2="256.00" y2="1536.00" />
<line x1="272.00" y1="0" x2="272.00" y2="1536.00" />
<line x1="288.00" y1="0" x2="288.00" y2="1536.00" />
<line x1="304.00" y1="0" x2="304.00" y2="1536.00" />
<line x1="320.00" y1="0" x2="320.00" y2="1536.00" />
<line x1="336.00" y1="0" x2="336.00" y2="1536.00" />
<line x1="352.00" y1="0" x2="352.00" y2="1536.00" />
<line x1="368.00" y1="0" x2="368.00" y2="1536.00" />
<line x1="384.00" y1="0" x2="384.00" y2="1536.00" />
<line x1="400.00" y1="0" x2="400.00" y2="1536.00" />
<line x1="416.00" y1="0" x2="416.00" y2="1536.00" />
<line x1="432.00" y1="0" x2="432.00" y2="1536.00" />
<line x1="448.00" y1="0" x2="448.00" y2="1536.00" />
<line x1="464.00" y1="0" x2="464.00" y2="1536.00" />
<line x1="480.00" y1="0" x2="480.00" y2="1536.00" />
<line x1="496.00" y1="0" x2="496.00" y2="1536.00" />
<line x1="512.00" y1="0" x2="512.00" y2="1536.00" />
<line x1="528.00" y1="0" x2="528.00" y2="1536.00" />
<line x1="544.00" y1="0" x2="544.00" y2="1536.00" />
<line x1="560.00" y1="0" x2="560.00" y2="1536.00" />
<line x1="576.00" y1="0" x2="576.00" y2="1536.00" />
<line x1="592.00" y1="0" x2="592.00" y2="1536.00" />
<line x1="608.00" y1="0" x2="608.00" y2="1536.00" />
<line x1="624.00" y1="0" x2="624.00" y2="1536.00" />
<line x1="640.00" y1="0" x2="640.00" y2="1536.00" />
<line x1="656.00" y1="0" x2="656.00" y2="1536.00" />
<line x1="672.00" y1="0" x2="672.00" y2="1536.00" />
<line x1="688.00" y1="0" x2="688.00" y2="1536.00" />
<line x1="704.00" y1="0" x2="704.00" y2="1536.00" />
<line x1="720.00" y1="0" x2="720.00" y2="1536.00" />
<line x1="736.00" y1="0" x2="736.00" y2="1536.00" />
<line x1="752.00" y1="0" x2="752.00" y2="1536.00" />
<line x1="768.00" y1="0" x2="768.00" y2="1536.00" />
<line x1="784.00" y1="0" x2="784.00" y2="1536.00" />
<line x1="800.00" y1="0" x2="800.00" y2="1536.00" />
<line x1="816.00" y1="0" x2="816.00" y2="1536.00" />
<line x1="832.00" y1="0" x2="832.00" y2="1536.00" />
<line x1="848.00" y1="0" x2="848.00" y2="1536.00" />
<line x1="864.00" y1="0" x2="864.00" y2="1536.00" />
<line x1="880.00" y1="0" x2="880.00" y2="1536.00" />
<line x1="896.00" y1="0" x2="896.00" y2="1536.00" />
<line x1="912.00" y1="0" x2="912.00" y2="1536.00" />
<line x1="928.00" y1="0" x2="928.00" y2="1536.00" />
<line x1="944.00" y1="0" x2="944.00" y2="1536.00" />
<line x1="960.00" y1="0" x2="960.00" y2="1536.00" />
<line x1="976.00" y1="0" x2="976.00" y2="1536.00" />
<line x1="992.00" y1="0" x2="992.00" y2="1536.00" />
<line x1="1008.00" y1="0" x2="1008.00" y2="1536.00" />
<line x1="1024.00" y1="0" x2="1024.00" y2="1536.00" />
<line x1="1040.00" y1="0" x2="1040.00" y2="1536.00" />
<line x1="1056.00" y1="0" x2="1056.00" y2="1536.00" />
<line x1="1072.00" y1="0" x2="1072.00" y2="1536.00" />
<line x1="1088.00" y1="0" x2="1088.00" y2="1536.00" />
<line x1="1104.00" y1="0" x2="1104.00" y2="1536.00" />
<line x1="1120.00" y1="0" x2="1120.00" y2="1536.00" />
<line x1="1136.00" y1="0" x2="1136.00" y2="1536.00" />
<line x1="1152.00" y1="0" x2="1152.00" y2="1536.00" />
<line x1="1168.00" y1="0" x2="1168.00" y2="1536.00" />
<line x1="1184.00" y1="0" x2="1184.00" y2="1536.00" />
<line x1="1200.00" y1="0" x2="1200.00" y2="1536.00" />
<line x1="1216.00" y1="0" x2="1216.00" y2="1536.00" />
<line x1="1232.00" y1="0" x2="1232.00" y2="1536.00" />
<line x1="1248.00" y1="0" x2="1248.00" y2="1536.00" />
<line x1="1264.00" y1="0" x2="1264.00" y2="1536.00" />
<line x1="1280.00" y1="0" x2="1280.00" y2="1536.00" />
<line x1="1296.00" y1="0" x2="1296.00" y2="1536.00" />
<line x1="1312.00" y1="0" x2="1312.00" y2="1536.00" />
<line x1="1328.00" y1="0" x2="1328.00" y2="1536.00" />
<line x1="1344.00" y1="0" x2="1344.00" y2="1536.00" />
<line x1="1360.00" y1="0" x2="1360.00" y2="1536.00" />
<line x1="1376.00" y1="0" x2="1376.00" y2="1536.00" />
<line x1="1392.00" y1="0" x2="1392.00" y2="1536.00" />
<line x1="1408.00" y1="0" x2="1408.00" y2="1536.00" />
<line x1="1424.00" y1="0" x2="1424.00" y2="1536.00" />
<line x1="1440.00" y1="0" x2="1440.00" y2="1536.00" />
<line x1="1456.00" y1="0" x2="1456.00" y2="1536.00" />
<line x1="1472.00" y1="0" x2="1472.00" y2="1536.00" />
<line x1="1488.00" y1="0" x2="1488.00" y2="1536.00" />
<line x1="1504.00" y1="0" x2="1504.00" y2="1536.00" />
<line x1="1520.00" y1="0" x2="1520.00" y2="1536.00" />
<line x1="1536.00" y1="0" x2="1536.00" y2="1536.00" />
<line x1="0" y1="0.00" x2="1536.00" y2="0.00" />
<line x1="0" y1="16.00" x2="1536.00" y2="16.00" />
<line x1="0" y1="32.00" x2="1536.00" y2="32.00" />
<line x1="0" y1="48.00" x2="1536.00" y2="48.00" />
<line x1="0" y1="64.00" x2="1536.00" y2="64.00" />
<line x1="0" y1="80.00" x2="1536.00" y2="80.00" />
<line x1="0" y1="96.00" x2="1536.00" y2="96.00" />
<line x1="0" y1="112.00" x2="1536.00" y2="112.00" />
<line x1="0" y1="128.00" x2="1536.00" y2="128.00" />
<line x1="0" y1="144.00" x2="1536.00" y2="144.00" />
<line x1="0" y1="160.00" x2="1536.00" y2="160.00" />
<line x1="0" y1="176.00" x2="1536.00" y2="176.00" />
<line x1="0" y1="192.00" x2="1536.00" y2="192.00" />
<line x1="0" y1="208.00" x2="1536.00" y2="208.00" />
<line x1="0" y1="224.00" x2="1536.00" y2="224.00" />
<line x1="0" y1="240.00" x2="1536.00" y2="240.00" />
<line x1="0" y1="256.00" x2="1536.00" y2="256.00" />
<line x1="0" y1="272.00" x2="1536.00" y2="272.00" />
<line x1="0" y1="288.00" x2="1536.00" y2="288.00" />
<line x1="0" y1="304.00" x2="1536.00" y2="304.00" />
<line x1="0" y1="320.00" x2="1536.00" y2="320.00" />
<line x1="0" y1="336.00" x2="1536.00" y2="336.00" />
<line x1="0" y1="352.00" x2="1536.00" y2="352.00" />
<line x1="0" y1="368.00" x2="1536.00" y2="368.00" />
<line x1="0" y1="384.00" x2="1536.00" y2="384.00" />
<line x1="0" y1="400.00" x2="1536.00" y2="400.00" />
<line x1="0" y1="416.00" x2="1536.00" y2="416.00" />
<line x1="0" y1="432.00" x2="1536.00" y2="432.00" />
<line x1="0" y1="448.00" x2="1536.00" y2="448.00" />
<line x1="0" y1="464.00" x2="1536.00" y2="464.00" />
<line x1="0" y1="480.00" x2="1536.00" y2="480.00" />
<line x1="0" y1="496.00" x2="1536.00" y2="496.00" />
<line x1="0" y1="512.00" x2="1536.00" y2="512.00" />
<line x1="0" y1="528.00" x2="1536.00" y2="528.00" />
<line x1="0" y1="544.00" x2="1536.00" y2="544.00" />
<line x1="0" y1="560.00" x2="1536.00" y2="560.00" />
<line x1="0" y1="576.00" x2="1536.00" y2="576.00" />
<line x1="0" y1="592.00" x2="1536.00" y2="592.00" />
<line x1="0" y1="608.00" x2="1536.00" y2="608.00" />
<line x1="0" y1="624.00" x2="1536.00" y2="624.00" />
<line x1="0" y1="640.00" x2="1536.00" y2="640.00" />
<line x1="0" y1="656.00" x2="1536.00" y2="656.00" />
<line x1="0" y1="672.00" x2="1536.00" y2="672.00" />
<line x1="0" y1="688.00" x2="1536.00" y2="688.00" />
<line x1="0" y1="704.00" x2="1536.00" y2="704.00" />
<line x1="0" y1="720.00" x2="1536.00" y2="720.00" />
<line x1="0" y1="736.00" x2="1536.00" y2="736.00" />
<line x1="0" y1="752.00" x2="1536.00" y2="752.00" />
<line x1="0" y1="768.00" x2="1536.00" y2="768.00" />
<line x1="0" y1="784.00" x2="1536.00" y2="784.00" />
<line x1="0" y1="800.00" x2="1536.00" y2="800.00" />
<line x1="0" y1="816.00" x2="1536.00" y2="816.00" />
<line x1="0" y1="832.00" x2="1536.00" y2="832.00" />
<line x1="0" y1="848.00" x2="1536.00" y2="848.00" />
<line x1="0" y1="864.00" x2="1536.00" y2="864.00" />
<line x1="0" y1="880.00" x2="1536.00" y2="880.00" />
<line x1="0" y1="896.00" x2="1536.00" y2="896.00" />
<line x1="0" y1="912.00" x2="1536.00" y2="912.00" />
<line x1="0" y1="928.00" x2="1536.00" y2="928.00" />
<line x1="0" y1="944.00" x2="1536.00" y2="944.00" />
<line x1="0" y1="960.00" x2="1536.00" y2="960.00" />
<line x1="0" y1="976.00" x2="1536.00" y2="976.00" />
<line x1="0" y1="992.00" x2="1536.00" y2="992.00" />
<line x1="0" y1="1008.00" x2="1536.00" y2="1008.00" />
<line x1="0" y1="1024.00" x2="1536.00" y2="1024.00" />
<line x1="0" y1="1040.00" x2="1536.00" y2="1040.00" />
<line x1="0" y1="1056.00" x2="1536.00" y2="1056.00" />
<line x1="0" y1="1072.00" x2="1536.00" y2="1072.00" />
<line x1="0" y1="1088.00" x2="1536.00" y2="1088.00" />
<line x1="0" y1="1104.00" x2="1536.00" y2="1104.00" />
<line x1="0" y1="1120.00" x2="1536.00" y2="1120.00" />
<line x1="0" y1="1136.00" x2="1536.00" y2="1136.00" />
<line x1="0" y1="1152.00" x2="1536.00" y2="1152.00" />
<line x1="0" y1="1168.00" x2="1536.00" y2="1168.00" />
<line x1="0" y1="1184.00" x2="1536.00" y2="1184.00" />
<line x1="0" y1="1200.00" x2="1536.00" y2="1200.00" />
<line x1="0" y1="1216.00" x2="1536.00" y2="1216.00" />
<line x1="0" y1="1232.00" x2="1536.00" y2="1232.00" />
<line x1="0" y1="1248.00" x2="1536.00" y2="1248.00" />
<line x1="0" y1="1264.00" x2="1536.00" y2="1264.00" />
<line x1="0" y1="1280.00" x2="1536.00" y2="1280.00" />
<line x1="0" y1="1296.00" x2="1536.00" y2="1296.00" />
<line x1="0" y1="1312.00" x2="1536.00" y2="1312.00" />
<line x1="0" y1="1328.00" x2="1536.00" y2="1328.00" />
<line x1="0" y1="1344.00" x2="1536.00" y2="1344.00" />
<line x1="0" y1="1360.00" x2="1536.00" y2="1360.00" />
<line x1="0" y1="1376.00" x2="1536.00" y2="1376.00" />
<line x1="0" y1="1392.00" x2="1536.00" y2="1392.00" />
<line x1="0" y1="1408.00" x2="1536.00" y2="1408.00" />
<line x1="0" y1="1424.00" x2="1536.00" y2="1424.00" />
<line x1="0" y1="1440.00" x2="1536.00" y2="1440.00" />
<line x1="0" y1="1456.00" x2="1536.00" y2="1456.00" />
<line x1="0" y1="1472.00" x2="1536.00" y2="1472.00" />
<line x1="0" y1="1488.00" x2="1536.00" y2="1488.00" />
<line x1="0" y1="1504.00" x2="1536.00" y2="1504.00" />
<line x1="0" y1="1520.00" x2="1536.00" y2="1520.00" />
<line x1="0" y1="1536.00" x2="1536.00" y2="1536.00" />
  </g>
  <g class="walls">
<line x1="1120.00" y1="48.00" x2="1248.00" y2="48.00" />
<line x1="496.00" y1="64.00" x2="528.00" y2="64.00" />
<line x1="1104.00" y1="64.00" x2="1120.00" y2="64.00" />
<line x1="1248.00" y1="64.00" x2="1264.00" y2="64.00" />
<line x1="288.00" y1="80.00" x2="336.00" y2="80.00" />
<line x1="464.00" y1="80.00" x2="496.00" y2="80.00" />
<line x1="528.00" y1="80.00" x2="560.00" y2="80.00" />
<line x1="1088.00" y1="80.00" x2="1104.00" y2="80.00" />
<line x1="1264.00" y1="80.00" x2="1280.00" y2="80.00" />
<line x1="256.00" y1="96.00" x2="288.00" y2="96.00" />
<line x1="336.00" y1="96.00" x2="368.00" y2="96.00" />
<line x1="448.00" y1="96.00" x2="464.00" y2="96.00" />
<line x1="560.00" y1="96.00" x2="576.00" y2="96.00" />
<line x1="1280.00" y1="96.00" x2="1488.00" y2="96.00" />
<line x1="96.00" y1="112.00" x2="160.00" y2="112.00" />
<line x1="1088.00" y1="112.00" x2="1104.00" y2="112.00" />
<line x1="1264.00" y1="112.00" x2="1376.00" y2="112.00" />
<line x1="240.00" y1="128.00" x2="256.00" y2="128.00" />
<line x1="368.00" y1="128.00" x2="448.00" y2="128.00" />
<line x1="576.00" y1="128.00" x2="1104.00" y2="128.00" />
<line x1="1264.00" y1="128.00" x2="1376.00" y2="128.00" />
<line x1="160.00" y1="144.00" x2="240.00" y2="144.00" />
<line x1="384.00" y1="144.00" x2="448.00" y2="144.00" />
<line x1="576.00" y1="144.00" x2="1136.00" y2="144.00" />
<line x1="1152.00" y1="144.00" x2="1168.00" y2="144.00" />
<line x1="1184.00" y1="144.00" x2="1376.00" y2="144.00" />
<line x1="160.00" y1="160.00" x2="256.00" y2="160.00" />
<line x1="368.00" y1="160.00" x2="384.00" y2="160.00" />
<line x1="96.00" y1="176.00" x2="128.00" y2="176.00" />
<line x1="144.00" y1="176.00" x2="160.00" y2="176.00" />
<line x1="448.00" y1="176.00" x2="464.00" y2="176.00" />
<line x1="560.00" y1="176.00" x2="576.00" y2="176.00" />
<line x1="256.00" y1="192.00" x2="288.00" y2="192.00" />
<line x1="336.00" y1="192.00" x2="368.00" y2="192.00" />
<line x1="464.00" y1="192.00" x2="496.00" y2="192.00" />
<line x1="528.00" y1="192.00" x2="560.00" y2="192.00" />
<line x1="1104.00" y1="192.00" x2="1136.00" y2="192.00" />
<line x1="1152.00" y1="192.00" x2="1168.00" y2="192.00" />
<line x1="1184.00" y1="192.00" x2="1232.00" y2="192.00" />
<line x1="288.00" y1="208.00" x2="336.00" y2="208.00" />
<line x1="512.00" y1="208.00" x2="528.00" y2="208.00" />
<line x1="1376.00" y1="256.00" x2="1488.00" y2="256.00" />
<line x1="800.00" y1="272.00" x2="864.00" y2="272.00" />
<line x1="1104.00" y1="272.00" x2="1136.00" y2="272.00" />
<line x1="1152.00" y1="272.00" x2="1168.00" y2="272.00" />
<line x1="1184.00" y1="272.00" x2="1232.00" y2="272.00" />
<line x1="768.00" y1="288.00" x2="800.00" y2="288.00" />
<line x1="864.00" y1="288.00" x2="896.00" y2="288.00" />
<line x1="752.00" y1="304.00" x2="768.00" y2="304.00" />
<line x1="896.00" y1="304.00" x2="912.00" y2="304.00" />
<line x1="736.00" y1="336.00" x2="752.00" y2="336.00" />
<line x1="912.00" y1="336.00" x2="928.00" y2="336.00" />
<line x1="416.00" y1="352.00" x2="496.00" y2="352.00" />
<line x1="736.00" y1="384.00" x2="752.00" y2="384.00" />
<line x1="912.00" y1="384.00" x2="928.00" y2="384.00" />
<line x1="752.00" y1="416.00" x2="768.00" y2="416.00" />
<line x1="896.00" y1="416.00" x2="912.00" y2="416.00" />
<line x1="1344.00" y1="416.00" x2="1488.00" y2="416.00" />
<line x1="736.00" y1="432.00" x2="768.00" y2="432.00" />
<line x1="864.00" y1="432.00" x2="896.00" y2="432.00" />
<line x1="1184.00" y1="432.00" x2="1200.00" y2="432.00" />
<line x1="752.00" y1="448.00" x2="864.00" y2="448.00" />
<line x1="1152.00" y1="448.00" x2="1168.00" y2="448.00" />
<line x1="1200.00" y1="448.00" x2="1232.00" y2="448.00" />
<line x1="432.00" y1="480.00" x2="496.00" y2="480.00" />
<line x1="1120.00" y1="464.00" x2="1136.00" y2="464.00" />
<line x1="1232.00" y1="464.00" x2="1248.00" y2="464.00" />
<line x1="1104.00" y1="496.00" x2="1120.00" y2="496.00" />
<line x1="1248.00" y1="496.00" x2="1344.00" y2="496.00" />
<line x1="1104.00" y1="512.00" x2="1120.00" y2="512.00" />
<line x1="1248.00" y1="512.00" x2="1344.00" y2="512.00" />
<line x1="96.00" y1="544.00" x2="128.00" y2="544.00" />
<line x1="144.00" y1="544.00" x2="176.00" y2="544.00" />
<line x1="1120.00" y1="544.00" x2="1136.00" y2="544.00" />
<line x1="1232.00" y1="544.00" x2="1248.00" y2="544.00" />
<line x1="1344.00" y1="544.00" x2="1392.00" y2="544.00" />
<line x1="1408.00" y1="544.00" x2="1488.00" y2="544.00" />
<line x1="1152.00" y1="560.00" x2="1168.00" y2="560.00" />
<line x1="1200.00" y1="560.00" x2="1232.00" y2="560.00" />
<line x1="1168.00" y1="576.00" x2="1184.00" y2="576.00" />
<line x1="688.00" y1="624.00" x2="736.00" y2="624.00" />
<line x1="96.00" y1="672.00" x2="176.00" y2="672.00" />
<line x1="1344.00" y1="688.00" x2="1392.00" y2="688.00" />
<line x1="1408.00" y1="688.00" x2="1440.00" y2="688.00" />
<line x1="608.00" y1="704.00" x2="688.00" y2="704.00" />
<line x1="752.00" y1="704.00" x2="1136.00" y2="704.00" />
<line x1="1152.00" y1="704.00" x2="1184.00" y2="704.00" />
<line x1="1200.00" y1="704.00" x2="1232.00" y2="704.00" />
<line x1="624.00" y1="720.00" x2="1024.00" y2="720.00" />
<line x1="1152.00" y1="720.00" x2="1184.00" y2="720.00" />
<line x1="1200.00" y1="720.00" x2="1216.00" y2="720.00" />
<line x1="496.00" y1="752.00" x2="512.00" y2="752.00" />
<line x1="512.00" y1="736.00" x2="608.00" y2="736.00" />
<line x1="1360.00" y1="768.00" x2="1440.00" y2="768.00" />
<line x1="512.00" y1="816.00" x2="544.00" y2="816.00" />
<line x1="560.00" y1="816.00" x2="624.00" y2="816.00" />
<line x1="384.00" y1="848.00" x2="416.00" y2="848.00" />
<line x1="432.00" y1="848.00" x2="544.00" y2="848.00" />
<line x1="560.00" y1="848.00" x2="1024.00" y2="848.00" />
<line x1="1152.00" y1="848.00" x2="1184.00" y2="848.00" />
<line x1="1200.00" y1="848.00" x2="1216.00" y2="848.00" />
<line x1="1232.00" y1="848.00" x2="1344.00" y2="848.00" />
<line x1="1360.00" y1="848.00" x2="1408.00" y2="848.00" />
<line x1="400.00" y1="864.00" x2="416.00" y2="864.00" />
<line x1="432.00" y1="864.00" x2="496.00" y2="864.00" />
<line x1="608.00" y1="864.00" x2="1024.00" y2="864.00" />
<line x1="1040.00" y1="864.00" x2="1216.00" y2="864.00" />
<line x1="336.00" y1="880.00" x2="384.00" y2="880.00" />
<line x1="480.00" y1="880.00" x2="496.00" y2="880.00" />
<line x1="608.00" y1="880.00" x2="624.00" y2="880.00" />
<line x1="400.00" y1="928.00" x2="416.00" y2="928.00" />
<line x1="432.00" y1="928.00" x2="480.00" y2="928.00" />
<line x1="928.00" y1="928.00" x2="1024.00" y2="928.00" />
<line x1="400.00" y1="944.00" x2="416.00" y2="944.00" />
<line x1="432.00" y1="944.00" x2="480.00" y2="944.00" />
<line x1="1008.00" y1="944.00" x2="1040.00" y2="944.00" />
<line x1="1216.00" y1="944.00" x2="1360.00" y2="944.00" />
<line x1="1376.00" y1="944.00" x2="1408.00" y2="944.00" />
<line x1="480.00" y1="992.00" x2="496.00" y2="992.00" />
<line x1="608.00" y1="992.00" x2="624.00" y2="992.00" />
<line x1="496.00" y1="1008.00" x2="512.00" y2="1008.00" />
<line x1="592.00" y1="1008.00" x2="608.00" y2="1008.00" />
<line x1="512.00" y1="1024.00" x2="592.00" y2="1024.00" />
<line x1="336.00" y1="1040.00" x2="368.00" y2="1040.00" />
<line x1="384.00" y1="1040.00" x2="400.00" y2="1040.00" />
<line x1="928.00" y1="1072.00" x2="1008.00" y2="1072.00" />
<line x1="1264.00" y1="1056.00" x2="1360.00" y2="1056.00" />
<line x1="1376.00" y1="1056.00" x2="1456.00" y2="1056.00" />
<line x1="336.00" y1="1088.00" x2="368.00" y2="1088.00" />
<line x1="384.00" y1="1088.00" x2="416.00" y2="1088.00" />
<line x1="320.00" y1="1104.00" x2="336.00" y2="1104.00" />
<line x1="416.00" y1="1104.00" x2="432.00" y2="1104.00" />
<line x1="304.00" y1="1120.00" x2="320.00" y2="1120.00" />
<line x1="416.00" y1="1120.00" x2="432.00" y2="1120.00" />
<line x1="1264.00" y1="1120.00" x2="1392.00" y2="1120.00" />
<line x1="1408.00" y1="1120.00" x2="1456.00" y2="1120.00" />
<line x1="304.00" y1="1152.00" x2="320.00" y2="1152.00" />
<line x1="416.00" y1="1152.00" x2="432.00" y2="1152.00" />
<line x1="320.00" y1="1168.00" x2="336.00" y2="1168.00" />
<line x1="400.00" y1="1168.00" x2="416.00" y2="1168.00" />
<line x1="640.00" y1="1168.00" x2="688.00" y2="1168.00" />
<line x1="336.00" y1="1184.00" x2="384.00" y2="1184.00" />
<line x1="624.00" y1="1184.00" x2="640.00" y2="1184.00" />
<line x1="688.00" y1="1184.00" x2="704.00" y2="1184.00" />
<line x1="608.00" y1="1200.00" x2="624.00" y2="1200.00" />
<line x1="704.00" y1="1200.00" x2="720.00" y2="1200.00" />
<line x1="592.00" y1="1216.00" x2="608.00" y2="1216.00" />
<line x1="720.00" y1="1216.00" x2="736.00" y2="1216.00" />
<line x1="832.00" y1="1216.00" x2="1008.00" y2="1216.00" />
<line x1="480.00" y1="1248.00" x2="592.00" y2="1248.00" />
<line x1="736.00" y1="1248.00" x2="832.00" y2="1248.00" />
<line x1="496.00" y1="1264.00" x2="608.00" y2="1264.00" />
<line x1="720.00" y1="1264.00" x2="832.00" y2="1264.00" />
<line x1="608.00" y1="1280.00" x2="624.00" y2="1280.00" />
<line x1="704.00" y1="1280.00" x2="720.00" y2="1280.00" />
<line x1="624.00" y1="1296.00" x2="640.00" y2="1296.00" />
<line x1="688.00" y1="1296.00" x2="704.00" y2="1296.00" />
<line x1="1344.00" y1="1296.00" x2="1392.00" y2="1296.00" />
<line x1="1408.00" y1="1296.00" x2="1440.00" y2="1296.00" />
<line x1="400.00" y1="1312.00" x2="480.00" y2="1312.00" />
<line x1="640.00" y1="1312.00" x2="688.00" y2="1312.00" />
<line x1="1088.00" y1="1312.00" x2="1280.00" y2="1312.00" />
<line x1="384.00" y1="1328.00" x2="400.00" y2="1328.00" />
<line x1="1280.00" y1="1328.00" x2="1344.00" y2="1328.00" />
<line x1="1280.00" y1="1344.00" x2="1344.00" y2="1344.00" />
<line x1="1008.00" y1="1360.00" x2="1088.00" y2="1360.00" />
<line x1="1344.00" y1="1360.00" x2="1440.00" y2="1360.00" />
<line x1="1008.00" y1="1376.00" x2="1088.00" y2="1376.00" />
<line x1="496.00" y1="1392.00" x2="832.00" y2="1392.00" />
<line x1="496.00" y1="1408.00" x2="1008.00" y2="1408.00" />
<line x1="1088.00" y1="1408.00" x2="1280.00" y2="1408.00" />
<line x1="400.00" y1="1488.00" x2="496.00" y2="1488.00" />
<line x1="1120.00" y1="48.00" x2="1120.00" y2="64.00" />
<line x1="1120.00" y1="464.00" x2="1120.00" y2="496.00" />
<line x1="1120.00" y1="512.00" x2="1120.00" y2="544.00" />
<line x1="1248.00" y1="48.00" x2="1248.00" y2="64.00" />
<line x1="1248.00" y1="464.00" x2="1248.00" y2="496.00" />
<line x1="1248.00" y1="512.00" x2="1248.00" y2="544.00" />
<line x1="496.00" y1="64.00" x2="496.00" y2="80.00" />
<line x1="496.00" y1="192.00" x2="496.00" y2="352.00" />
<line x1="496.00" y1="480.00" x2="496.00" y2="752.00" />
<line x1="496.00" y1="864.00" x2="496.00" y2="880.00" />
<line x1="496.00" y1="992.00" x2="496.00" y2="1008.00" />
<line x1="496.00" y1="1264.00" x2="496.00" y2="1392.00" />
<line x1="496.00" y1="1408.00" x2="496.00" y2="1488.00" />
<line x1="528.00" y1="64.00" x2="528.00" y2="80.00" />
<line x1="528.00" y1="192.00" x2="528.00" y2="208.00" />
<line x1="1104.00" y1="64.00" x2="1104.00" y2="80.00" />
<line x1="1104.00" y1="112.00" x2="1104.00" y2="128.00" />
<line x1="1104.00" y1="192.00" x2="1104.00" y2="272.00" />
<line x1="1104.00" y1="496.00" x2="1104.00" y2="512.00" />
<line x1="1264.00" y1="64.00" x2="1264.00" y2="80.00" />
<line x1="1264.00" y1="112.00" x2="1264.00" y2="128.00" />
<line x1="1264.00" y1="1056.00" x2="1264.00" y2="1120.00" />
<line x1="288.00" y1="80.00" x2="288.00" y2="96.00" />
<line x1="288.00" y1="192.00" x2="288.00" y2="208.00" />
<line x1="336.00" y1="80.00" x2="336.00" y2="96.00" />
<line x1="336.00" y1="192.00" x2="336.00" y2="208.00" />
<line x1="336.00" y1="880.00" x2="336.00" y2="1040.00" />
<line x1="336.00" y1="1088.00" x2="336.00" y2="1104.00" />
<line x1="336.00" y1="1168.00" x2="336.00" y2="1184.00" />
<line x1="464.00" y1="80.00" x2="464.00" y2="96.00" />
<line x1="464.00" y1="176.00" x2="464.00" y2="192.00" />
<line x1="560.00" y1="80.00" x2="560.00" y2="96.00" />
<line x1="560.00" y1="176.00" x2="560.00" y2="192.00" />
<line x1="560.00" y1="816.00" x2="560.00" y2="848.00" />
<line x1="1088.00" y1="80.00" x2="1088.00" y2="112.00" />
<line x1="1088.00" y1="1312.00" x2="1088.00" y2="1360.00" />
<line x1="1088.00" y1="1376.00" x2="1088.00" y2="1408.00" />
<line x1="1280.00" y1="80.00" x2="1280.00" y2="96.00" />
<line x1="1280.00" y1="1312.00" x2="1280.00" y2="1328.00" />
<line x1="1280.00" y1="1344.00" x2="1280.00" y2="1408.00" />
<line x1="256.00" y1="96.00" x2="256.00" y2="128.00" />
<line x1="256.00" y1="160.00" x2="256.00" y2="192.00" />
<line x1="368.00" y1="96.00" x2="368.00" y2="128.00" />
<line x1="368.00" y1="160.00" x2="368.00" y2="192.00" />
<line x1="368.00" y1="1040.00" x2="368.00" y2="1088.00" />
<line x1="448.00" y1="96.00" x2="448.00" y2="128.00" />
<line x1="448.00" y1="144.00" x2="448.00" y2="176.00" />
<line x1="576.00" y1="96.00" x2="576.00" y2="128.00" />
<line x1="576.00" y1="144.00" x2="576.00" y2="176.00" />
<line x1="1488.00" y1="96.00" x2="1488.00" y2="256.00" />
<line x1="1488.00" y1="416.00" x2="1488.00" y2="544.00" />
<line x1="96.00" y1="112.00" x2="96.00" y2="176.00" />
<line x1="96.00" y1="544.00" x2="96.00" y2="672.00" />
<line x1="160.00" y1="112.00" x2="160.00" y2="144.00" />
<line x1="160.00" y1="160.00" x2="160.00" y2="176.00" />
<line x1="1376.00" y1="112.00" x2="1376.00" y2="128.00" />
<line x1="1376.00" y1="144.00" x2="1376.00" y2="256.00" />
<line x1="1376.00" y1="944.00" x2="1376.00" y2="1056.00" />
<line x1="240.00" y1="128.00" x2="240.00" y2="144.00" />
<line x1="384.00" y1="144.00" x2="384.00" y2="160.00" />
<line x1="384.00" y1="848.00" x2="384.00" y2="880.00" />
<line x1="384.00" y1="1040.00" x2="384.00" y2="1088.00" />
<line x1="384.00" y1="1184.00" x2="384.00" y2="1328.00" />
<line x1="1136.00" y1="144.00" x2="1136.00" y2="192.00" />
<line x1="1136.00" y1="272.00" x2="1136.00" y2="464.00" />
<line x1="1136.00" y1="544.00" x2="1136.00" y2="704.00" />
<line x1="1152.00" y1="144.00" x2="1152.00" y2="192.00" />
<line x1="1152.00" y1="272.00" x2="1152.00" y2="448.00" />
<line x1="1152.00" y1="560.00" x2="1152.00" y2="704.00" />
<line x1="1152.00" y1="720.00" x2="1152.00" y2="848.00" />
<line x1="1168.00" y1="144.00" x2="1168.00" y2="192.00" />
<line x1="1168.00" y1="272.00" x2="1168.00" y2="448.00" />
<line x1="1168.00" y1="560.00" x2="1168.00" y2="576.00" />
<line x1="1184.00" y1="144.00" x2="1184.00" y2="192.00" />
<line x1="1184.00" y1="272.00" x2="1184.00" y2="432.00" />
<line x1="1184.00" y1="576.00" x2="1184.00" y2="704.00" />
<line x1="1184.00" y1="720.00" x2="1184.00" y2="848.00" />
<line x1="128.00" y1="176.00" x2="128.00" y2="544.00" />
<line x1="144.00" y1="176.00" x2="144.00" y2="544.00" />
<line x1="1232.00" y1="192.00" x2="1232.00" y2="272.00" />
<line x1="1232.00" y1="448.00" x2="1232.00" y2="464.00" />
<line x1="1232.00" y1="544.00" x2="1232.00" y2="560.00" />
<line x1="1232.00" y1="704.00" x2="1232.00" y2="848.00" />
<line x1="512.00" y1="208.00" x2="512.00" y2="736.00" />
<line x1="512.00" y1="752.00" x2="512.00" y2="816.00" />
<line x1="512.00" y1="1008.00" x2="512.00" y2="1024.00" />
<line x1="800.00" y1="272.00" x2="800.00" y2="288.00" />
<line x1="864.00" y1="272.00" x2="864.00" y2="288.00" />
<line x1="864.00" y1="432.00" x2="864.00" y2="448.00" />
<line x1="768.00" y1="288.00" x2="768.00" y2="304.00" />
<line x1="768.00" y1="416.00" x2="768.00" y2="432.00" />
<line x1="896.00" y1="288.00" x2="896.00" y2="304.00" />
<line x1="896.00" y1="416.00" x2="896.00" y2="432.00" />
<line x1="752.00" y1="304.00" x2="752.00" y2="336.00" />
<line x1="752.00" y1="384.00" x2="752.00" y2="416.00" />
<line x1="752.00" y1="448.00" x2="752.00" y2="704.00" />
<line x1="912.00" y1="304.00" x2="912.00" y2="336.00" />
<line x1="912.00" y1="384.00" x2="912.00" y2="416.00" />
<line x1="736.00" y1="336.00" x2="736.00" y2="384.00" />
<line x1="736.00" y1="432.00" x2="736.00" y2="624.00" />
<line x1="736.00" y1="1216.00" x2="736.00" y2="1248.00" />
<line x1="928.00" y1="336.00" x2="928.00" y2="384.00" />
<line x1="928.00" y1="928.00" x2="928.00" y2="1072.00" />
<line x1="416.00" y1="352.00" x2="416.00" y2="848.00" />
<line x1="416.00" y1="864.00" x2="416.00" y2="928.00" />
<line x1="416.00" y1="944.00" x2="416.00" y2="1088.00" />
<line x1="416.00" y1="1104.00" x2="416.00" y2="1120.00" />
<line x1="416.00" y1="1152.00" x2="416.00" y2="1168.00" />
<line x1="1344.00" y1="416.00" x2="1344.00" y2="496.00" />
<line x1="1344.00" y1="512.00" x2="1344.00" y2="544.00" />
<line x1="1344.00" y1="688.00" x2="1344.00" y2="848.00" />
<line x1="1344.00" y1="1296.00" x2="1344.00" y2="1328.00" />
<line x1="1344.00" y1="1344.00" x2="1344.00" y2="1360.00" />
<line x1="1200.00" y1="432.00" x2="1200.00" y2="448.00" />
<line x1="1200.00" y1="560.00" x2="1200.00" y2="704.00" />
<line x1="1200.00" y1="720.00" x2="1200.00" y2="848.00" />
<line x1="432.00" y1="480.00" x2="432.00" y2="848.00" />
<line x1="432.00" y1="864.00" x2="432.00" y2="928.00" />
<line x1="432.00" y1="944.00" x2="432.00" y2="1104.00" />
<line x1="432.00" y1="1120.00" x2="432.00" y2="1152.00" />
<line x1="176.00" y1="544.00" x2="176.00" y2="672.00" />
<line x1="1392.00" y1="544.00" x2="1392.00" y2="688.00" />
<line x1="1392.00" y1="1120.00" x2="1392.00" y2="1296.00" />
<line x1="1408.00" y1="544.00" x2="1408.00" y2="688.00" />
<line x1="1408.00" y1="848.00" x2="1408.00" y2="944.00" />
<line x1="1408.00" y1="1120.00" x2="1408.00" y2="1296.00" />
<line x1="688.00" y1="624.00" x2="688.00" y2="704.00" />
<line x1="688.00" y1="1168.00" x2="688.00" y2="1184.00" />
<line x1="688.00" y1="1296.00" x2="688.00" y2="1312.00" />
<line x1="1440.00" y1="688.00" x2="1440.00" y2="768.00" />
<line x1="1440.00" y1="1296.00" x2="1440.00" y2="1360.00" />
<line x1="608.00" y1="704.00" x2="608.00" y2="736.00" />
<line x1="608.00" y1="864.00" x2="608.00" y2="880.00" />
<line x1="608.00" y1="992.00" x2="608.00" y2="1008.00" />
<line x1="608.00" y1="1200.00" x2="608.00" y2="1216.00" />
<line x1="608.00" y1="1264.00" x2="608.00" y2="1280.00" />
<line x1="624.00" y1="720.00" x2="624.00" y2="816.00" />
<line x1="624.00" y1="880.00" x2="624.00" y2="992.00" />
<line x1="624.00" y1="1184.00" x2="624.00" y2="1200.00" />
<line x1="624.00" y1="1280.00" x2="624.00" y2="1296.00" />
<line x1="1024.00" y1="720.00" x2="1024.00" y2="848.00" />
<line x1="1024.00" y1="864.00" x2="1024.00" y2="928.00" />
<line x1="1216.00" y1="720.00" x2="1216.00" y2="848.00" />
<line x1="1216.00" y1="864.00" x2="1216.00" y2="944.00" />
<line x1="1360.00" y1="768.00" x2="1360.00" y2="848.00" />
<line x1="1360.00" y1="944.00" x2="1360.00" y2="1056.00" />
<line x1="544.00" y1="816.00" x2="544.00" y2="848.00" />
<line x1="400.00" y1="864.00" x2="400.00" y2="928.00" />
<line x1="400.00" y1="944.00" x2="400.00" y2="1040.00" />
<line x1="400.00" y1="1168.00" x2="400.00" y2="1312.00" />
<line x1="400.00" y1="1328.00" x2="400.00" y2="1488.00" />
<line x1="1040.00" y1="864.00" x2="1040.00" y2="944.00" />
<line x1="480.00" y1="880.00" x2="480.00" y2="928.00" />
<line x1="480.00" y1="944.00" x2="480.00" y2="992.00" />
<line x1="480.00" y1="1248.00" x2="480.00" y2="1312.00" />
<line x1="1008.00" y1="944.00" x2="1008.00" y2="1072.00" />
<line x1="1008.00" y1="1216.00" x2="1008.00" y2="1360.00" />
<line x1="1008.00" y1="1376.00" x2="1008.00" y2="1408.00" />
<line x1="592.00" y1="1008.00" x2="592.00" y2="1024.00" />
<line x1="592.00" y1="1216.00" x2="592.00" y2="1248.00" />
<line x1="1456.00" y1="1056.00" x2="1456.00" y2="1120.00" />
<line x1="320.00" y1="1104.00" x2="320.00" y2="1120.00" />
<line x1="320.00" y1="1152.00" x2="320.00" y2="1168.00" />
<line x1="304.00" y1="1120.00" x2="304.00" y2="1152.00" />
<line x1="640.00" y1="1168.00" x2="640.00" y2="1184.00" />
<line x1="640.00" y1="1296.00" x2="640.00" y2="1312.00" />
<line x1="704.00" y1="1184.00" x2="704.00" y2="1200.00" />
<line x1="704.00" y1="1280.00" x2="704.00" y2="1296.00" />
<line x1="720.00" y1="1200.00" x2="720.00" y2="1216.00" />
<line x1="720.00" y1="1264.00" x2="720.00" y2="1280.00" />
<line x1="832.00" y1="1216.00" x2="832.00" y2="1248.00" />
<line x1="832.00" y1="1264.00" x2="832.00" y2="1392.00" />
  </g>
  <g class="features">
<g data-feature-type="stairsDown"><line data-feature-type="stairsDown" x1="946.24" y1="1315.36" x2="957.76" y2="1315.36" /><line x1="946.65" y1="1317.68" x2="957.35" y2="1317.68" /><line x1="947.07" y1="1320.00" x2="956.93" y2="1320.00" /><line x1="947.48" y1="1322.32" x2="956.52" y2="1322.32" /><line x1="947.90" y1="1324.64" x2="956.10" y2="1324.64" /></g>
<g data-feature-type="stairsUp"><line data-feature-type="stairsUp" x1="819.90" y1="371.36" x2="828.10" y2="371.36" /><line x1="819.48" y1="373.68" x2="828.52" y2="373.68" /><line x1="819.07" y1="376.00" x2="828.93" y2="376.00" /><line x1="818.65" y1="378.32" x2="829.35" y2="378.32" /><line x1="818.24" y1="380.64" x2="829.76" y2="380.64" /></g>
<circle data-feature-type="pillar" cx="1208.00" cy="104.00" r="3.68" fill="#4f89a8" stroke="none" />
<g data-feature-type="statue"><circle cx="1256.00" cy="88.00" r="3.52" fill="none" /><line x1="1253.76" y1="88.00" x2="1258.24" y2="88.00" /><line x1="1256.00" y1="85.76" x2="1256.00" y2="90.24" /><line x1="1254.39" y1="86.39" x2="1257.61" y2="89.61" /><line x1="1254.39" y1="89.61" x2="1257.61" y2="86.39" /></g>
<path data-feature-type="curtain" d="M 1158.40 67.84 Q 1160.00 70.34 1158.40 72.00 Q 1160.00 73.66 1158.40 76.16" fill="none" /><path d="M 1161.60 67.84 Q 1160.00 70.34 1161.60 72.00 Q 1160.00 73.66 1161.60 76.16" fill="none" />
<g data-feature-type="statue"><circle cx="600.00" cy="792.00" r="3.52" fill="none" /><line x1="597.76" y1="792.00" x2="602.24" y2="792.00" /><line x1="600.00" y1="789.76" x2="600.00" y2="794.24" /><line x1="598.39" y1="790.39" x2="601.61" y2="793.61" /><line x1="598.39" y1="793.61" x2="601.61" y2="790.39" /></g>
<circle data-feature-type="pillar" cx="1080.00" cy="792.00" r="3.68" fill="#4f89a8" stroke="none" />
<circle data-feature-type="pillar" cx="1064.00" cy="792.00" r="3.68" fill="#4f89a8" stroke="none" />
<g data-feature-type="altar"><rect x="1125.28" y="790.40" width="5.44" height="3.20" fill="none" /><line x1="1128.00" y1="789.44" x2="1128.00" y2="794.56" /><line x1="1126.40" y1="792.00" x2="1129.60" y2="792.00" /></g>
<g data-feature-type="trap"><rect x="1124.64" y="756.64" width="6.72" height="6.72" fill="none" /><line x1="1124.64" y1="756.64" x2="1131.36" y2="763.36" /><line x1="1124.64" y1="763.36" x2="1131.36" y2="756.64" /></g>
<path data-feature-type="curtain" d="M 1110.40 723.84 Q 1112.00 726.34 1110.40 728.00 Q 1112.00 729.66 1110.40 732.16" fill="none" /><path d="M 1113.60 723.84 Q 1112.00 726.34 1113.60 728.00 Q 1112.00 729.66 1113.60 732.16" fill="none" />
<circle data-feature-type="pillar" cx="392.00" cy="968.00" r="3.68" fill="#4f89a8" stroke="none" />
<g data-feature-type="trap"><rect x="356.64" y="900.64" width="6.72" height="6.72" fill="none" /><line x1="356.64" y1="900.64" x2="363.36" y2="907.36" /><line x1="356.64" y1="907.36" x2="363.36" y2="900.64" /></g>
<circle data-feature-type="pillar" cx="1432.00" cy="488.00" r="3.68" fill="#4f89a8" stroke="none" />
<circle data-feature-type="pillar" cx="1448.00" cy="488.00" r="3.68" fill="#4f89a8" stroke="none" />
<g data-feature-type="altar"><rect x="1397.28" y="454.40" width="5.44" height="3.20" fill="none" /><line x1="1400.00" y1="453.44" x2="1400.00" y2="458.56" /><line x1="1398.40" y1="456.00" x2="1401.60" y2="456.00" /></g>
<circle data-feature-type="pillar" cx="680.00" cy="1224.00" r="3.68" fill="#4f89a8" stroke="none" />
<circle data-feature-type="pillar" cx="680.00" cy="1256.00" r="3.68" fill="#4f89a8" stroke="none" />
<circle data-feature-type="pillar" cx="696.00" cy="1224.00" r="3.68" fill="#4f89a8" stroke="none" />
<circle data-feature-type="pillar" cx="1192.00" cy="1336.00" r="3.68" fill="#4f89a8" stroke="none" />
<circle data-feature-type="pillar" cx="1192.00" cy="1384.00" r="3.68" fill="#4f89a8" stroke="none" />
<g data-feature-type="coffin"><rect x="1109.60" y="1348.32" width="4.80" height="7.36" rx="0.80" ry="0.80" fill="none" /><line x1="1112.00" y1="1349.94" x2="1112.00" y2="1354.06" /></g>
<path data-feature-type="curtain" d="M 1142.40 1379.84 Q 1144.00 1382.34 1142.40 1384.00 Q 1144.00 1385.66 1142.40 1388.16" fill="none" /><path d="M 1145.60 1379.84 Q 1144.00 1382.34 1145.60 1384.00 Q 1144.00 1385.66 1145.60 1388.16" fill="none" />
<circle data-feature-type="pillar" cx="936.00" cy="1320.00" r="3.68" fill="#4f89a8" stroke="none" />
<circle data-feature-type="pillar" cx="1416.00" cy="728.00" r="3.68" fill="#4f89a8" stroke="none" />
<g data-feature-type="coffin"><rect x="117.60" y="612.32" width="4.80" height="7.36" rx="0.80" ry="0.80" fill="none" /><line x1="120.00" y1="613.94" x2="120.00" y2="618.06" /></g>
<path data-feature-type="curtain" d="M 358.40 147.84 Q 360.00 150.34 358.40 152.00 Q 360.00 153.66 358.40 156.16" fill="none" /><path d="M 361.60 147.84 Q 360.00 150.34 361.60 152.00 Q 360.00 153.66 361.60 156.16" fill="none" />
<circle data-feature-type="pillar" cx="472.00" cy="1400.00" r="3.68" fill="#4f89a8" stroke="none" />
<g data-feature-type="trap"><rect x="436.64" y="1364.64" width="6.72" height="6.72" fill="none" /><line x1="436.64" y1="1364.64" x2="443.36" y2="1371.36" /><line x1="436.64" y1="1371.36" x2="443.36" y2="1364.64" /></g>
<path data-feature-type="curtain" d="M 454.40 1331.84 Q 456.00 1334.34 454.40 1336.00 Q 456.00 1337.66 454.40 1340.16" fill="none" /><path d="M 457.60 1331.84 Q 456.00 1334.34 457.60 1336.00 Q 456.00 1337.66 457.60 1340.16" fill="none" />
<circle data-feature-type="pillar" cx="824.00" cy="360.00" r="3.68" fill="#4f89a8" stroke="none" />
<circle data-feature-type="pillar" cx="808.00" cy="360.00" r="3.68" fill="#4f89a8" stroke="none" />
<g data-feature-type="well"><circle cx="888.00" cy="328.00" r="4.00" fill="none" /><circle cx="888.00" cy="328.00" r="2.24" fill="none" /></g>
<g data-feature-type="trap"><rect x="756.64" y="356.64" width="6.72" height="6.72" fill="none" /><line x1="756.64" y1="356.64" x2="763.36" y2="363.36" /><line x1="756.64" y1="363.36" x2="763.36" y2="356.64" /></g>
<g data-feature-type="statue"><circle cx="1224.00" cy="472.00" r="3.52" fill="none" /><line x1="1221.76" y1="472.00" x2="1226.24" y2="472.00" /><line x1="1224.00" y1="469.76" x2="1224.00" y2="474.24" /><line x1="1222.39" y1="470.39" x2="1225.61" y2="473.61" /><line x1="1222.39" y1="473.61" x2="1225.61" y2="470.39" /></g>
<g data-feature-type="trap"><rect x="1124.64" y="500.64" width="6.72" height="6.72" fill="none" /><line x1="1124.64" y1="500.64" x2="1131.36" y2="507.36" /><line x1="1124.64" y1="507.36" x2="1131.36" y2="500.64" /></g>
<path data-feature-type="curtain" d="M 1206.40 547.84 Q 1208.00 550.34 1206.40 552.00 Q 1208.00 553.66 1206.40 556.16" fill="none" /><path d="M 1209.60 547.84 Q 1208.00 550.34 1209.60 552.00 Q 1208.00 553.66 1209.60 556.16" fill="none" />
<g data-feature-type="altar"><rect x="1301.28" y="1078.40" width="5.44" height="3.20" fill="none" /><line x1="1304.00" y1="1077.44" x2="1304.00" y2="1082.56" /><line x1="1302.40" y1="1080.00" x2="1305.60" y2="1080.00" /></g>
<g data-feature-type="chest"><rect x="1397.28" y="1094.24" width="5.44" height="3.52" fill="none" /><line x1="1397.28" y1="1096.00" x2="1402.72" y2="1096.00" /><circle cx="1400.00" cy="1096.18" r="0.70" fill="#4f89a8" stroke="none" /></g>
<circle data-feature-type="pillar" cx="984.00" cy="1000.00" r="3.68" fill="#4f89a8" stroke="none" />
<g data-feature-type="trap"><rect x="980.64" y="948.64" width="6.72" height="6.72" fill="none" /><line x1="980.64" y1="948.64" x2="987.36" y2="955.36" /><line x1="980.64" y1="955.36" x2="987.36" y2="948.64" /></g>
<circle data-feature-type="pillar" cx="1336.00" cy="904.00" r="3.68" fill="#4f89a8" stroke="none" />
<circle data-feature-type="pillar" cx="744.00" cy="680.00" r="3.68" fill="#4f89a8" stroke="none" />
<g data-feature-type="trap"><rect x="708.64" y="692.64" width="6.72" height="6.72" fill="none" /><line x1="708.64" y1="692.64" x2="715.36" y2="699.36" /><line x1="708.64" y1="699.36" x2="715.36" y2="692.64" /></g>
<g data-feature-type="well"><circle cx="360.00" cy="1160.00" r="4.00" fill="none" /><circle cx="360.00" cy="1160.00" r="2.24" fill="none" /></g>
<circle data-feature-type="pillar" cx="1448.00" cy="184.00" r="3.68" fill="#4f89a8" stroke="none" />
<g data-feature-type="statue"><circle cx="1432.00" cy="152.00" r="3.52" fill="none" /><line x1="1429.76" y1="152.00" x2="1434.24" y2="152.00" /><line x1="1432.00" y1="149.76" x2="1432.00" y2="154.24" /><line x1="1430.39" y1="150.39" x2="1433.61" y2="153.61" /><line x1="1430.39" y1="153.61" x2="1433.61" y2="150.39" /></g>
<g data-feature-type="trap"><rect x="1396.64" y="148.64" width="6.72" height="6.72" fill="none" /><line x1="1396.64" y1="148.64" x2="1403.36" y2="155.36" /><line x1="1396.64" y1="155.36" x2="1403.36" y2="148.64" /></g>
<circle data-feature-type="pillar" cx="1192.00" cy="232.00" r="3.68" fill="#4f89a8" stroke="none" />
  </g>
  <g class="thresholds">
<rect data-threshold-type="door" x="1267.52" y="101.76" width="8.96" height="4.48" fill="#ffffff" stroke="#4f89a8" stroke-width="1.52" />
<rect data-threshold-type="door" x="547.52" y="805.76" width="8.96" height="4.48" fill="#ffffff" stroke="#4f89a8" stroke-width="1.52" />
<rect data-threshold-type="door" x="1139.52" y="709.76" width="8.96" height="4.48" fill="#ffffff" stroke="#4f89a8" stroke-width="1.52" />
<rect data-threshold-type="door" x="483.52" y="853.76" width="8.96" height="4.48" fill="#ffffff" stroke="#4f89a8" stroke-width="1.52" />
<rect data-threshold-type="door" x="387.52" y="885.76" width="8.96" height="4.48" fill="#ffffff" stroke="#4f89a8" stroke-width="1.52" />
<g data-threshold-type="locked" stroke="#4f89a8" fill="none" stroke-width="1.52"><rect x="1347.52" y="501.76" width="8.96" height="4.48" fill="#ffffff" /><circle cx="1352.00" cy="500.77" r="1.61" /></g>
<rect data-threshold-type="door" x="595.52" y="1253.76" width="8.96" height="4.48" fill="#ffffff" stroke="#4f89a8" stroke-width="1.52" />
<rect data-threshold-type="door" x="1267.52" y="1333.76" width="8.96" height="4.48" fill="#ffffff" stroke="#4f89a8" stroke-width="1.52" />
<rect data-threshold-type="door" x="835.52" y="1397.76" width="8.96" height="4.48" fill="#ffffff" stroke="#4f89a8" stroke-width="1.52" />
<rect data-threshold-type="door" x="1347.52" y="757.76" width="8.96" height="4.48" fill="#ffffff" stroke="#4f89a8" stroke-width="1.52" />
<g data-threshold-type="secret"><line x1="131.52" y1="552.00" x2="140.48" y2="552.00" stroke="#4f89a8" stroke-width="1.31" stroke-dasharray="1.31 1.31" /><text x="141.56" y="551.10" font-size="5.44" fill="#4f89a8" font-family="Courier New, monospace" font-weight="700">S</text></g>
<g data-threshold-type="secret"><line x1="371.52" y1="136.00" x2="380.48" y2="136.00" stroke="#4f89a8" stroke-width="1.31" stroke-dasharray="1.31 1.31" /><text x="381.56" y="135.10" font-size="5.44" fill="#4f89a8" font-family="Courier New, monospace" font-weight="700">S</text></g>
<rect data-threshold-type="door" x="483.52" y="1317.76" width="8.96" height="4.48" fill="#ffffff" stroke="#4f89a8" stroke-width="1.52" />
<rect data-threshold-type="door" x="755.52" y="421.76" width="8.96" height="4.48" fill="#ffffff" stroke="#4f89a8" stroke-width="1.52" />
<rect data-threshold-type="door" x="499.52" y="357.76" width="8.96" height="4.48" fill="#ffffff" stroke="#4f89a8" stroke-width="1.52" />
<g data-threshold-type="locked" stroke="#4f89a8" fill="none" stroke-width="1.52"><rect x="1139.52" y="549.76" width="8.96" height="4.48" fill="#ffffff" /><circle cx="1144.00" cy="548.77" r="1.61" /></g>
<rect data-threshold-type="door" x="579.52" y="133.76" width="8.96" height="4.48" fill="#ffffff" stroke="#4f89a8" stroke-width="1.52" />
<rect data-threshold-type="door" x="147.52" y="149.76" width="8.96" height="4.48" fill="#ffffff" stroke="#4f89a8" stroke-width="1.52" />
<rect data-threshold-type="door" x="1363.52" y="1061.76" width="8.96" height="4.48" fill="#ffffff" stroke="#4f89a8" stroke-width="1.52" />
<rect data-threshold-type="door" x="995.52" y="933.76" width="8.96" height="4.48" fill="#ffffff" stroke="#4f89a8" stroke-width="1.52" />
<g data-threshold-type="secret"><line x1="1363.52" y1="936.00" x2="1372.48" y2="936.00" stroke="#4f89a8" stroke-width="1.31" stroke-dasharray="1.31 1.31" /><text x="1373.56" y="935.10" font-size="5.44" fill="#4f89a8" font-family="Courier New, monospace" font-weight="700">S</text></g>
<rect data-threshold-type="door" x="739.52" y="709.76" width="8.96" height="4.48" fill="#ffffff" stroke="#4f89a8" stroke-width="1.52" />
<rect data-threshold-type="door" x="419.52" y="1109.76" width="8.96" height="4.48" fill="#ffffff" stroke="#4f89a8" stroke-width="1.52" />
<g data-threshold-type="locked" stroke="#4f89a8" fill="none" stroke-width="1.52"><rect x="1379.52" y="101.76" width="8.96" height="4.48" fill="#ffffff" /><circle cx="1384.00" cy="100.77" r="1.61" /></g>
<rect data-threshold-type="door" x="1139.52" y="261.76" width="8.96" height="4.48" fill="#ffffff" stroke="#4f89a8" stroke-width="1.52" />
<rect data-threshold-type="door" x="1347.52" y="1333.76" width="8.96" height="4.48" fill="#ffffff" stroke="#4f89a8" stroke-width="1.52" />
  </g>
  <g class="labels">
<text x="1192.00" y="105.92" text-anchor="middle">1</text>
<text x="568.00" y="777.92" text-anchor="middle">2</text>
<text x="1096.00" y="793.92" text-anchor="middle">3</text>
<text x="552.00" y="937.92" text-anchor="middle">4</text>
<text x="376.00" y="969.92" text-anchor="middle">5</text>
<text x="1416.00" y="489.92" text-anchor="middle">6</text>
<text x="664.00" y="1241.92" text-anchor="middle">7</text>
<text x="1192.00" y="1369.92" text-anchor="middle">8</text>
<text x="920.00" y="1321.92" text-anchor="middle">9</text>
<text x="1400.00" y="729.92" text-anchor="middle">10</text>
<text x="136.00" y="617.92" text-anchor="middle">11</text>
<text x="312.00" y="153.92" text-anchor="middle">12</text>
<text x="456.00" y="1401.92" text-anchor="middle">13</text>
<text x="840.00" y="361.92" text-anchor="middle">14</text>
<text x="472.00" y="425.92" text-anchor="middle">15</text>
<text x="1192.00" y="505.92" text-anchor="middle">16</text>
<text x="520.00" y="137.92" text-anchor="middle">17</text>
<text x="136.00" y="153.92" text-anchor="middle">18</text>
<text x="1368.00" y="1097.92" text-anchor="middle">19</text>
<text x="968.00" y="1001.92" text-anchor="middle">20</text>
<text x="1320.00" y="905.92" text-anchor="middle">21</text>
<text x="728.00" y="681.92" text-anchor="middle">22</text>
<text x="376.00" y="1145.92" text-anchor="middle">23</text>
<text x="1432.00" y="185.92" text-anchor="middle">24</text>
<text x="1176.00" y="233.92" text-anchor="middle">25</text>
<text x="1400.00" y="1337.92" text-anchor="middle">26</text>
  </g>
</svg>