<?xml version="1.0" encoding="UTF-8"?>
<svg xmlns="http://www.w3.org/2000/svg" width="1504" height="1536" viewBox="0 0 1504.00 1536.00" role="img" aria-label="MapIR render: Learned Generated Map 5">
  <defs>
    <style>
      .grid { stroke: #cde2ec; stroke-width: 0.64; opacity: 0.72; }
      .walls { stroke: #6aa7c7; stroke-width: 1.92; fill: none; stroke-linecap: square; }
      .thresholds { fill: none; stroke-linecap: round; }
      .features { stroke: #4f89a8; fill: none; stroke-width: 1.60; stroke-linecap: round; stroke-linejoin: round; }
      .labels { fill: #4f89a8; font-size: 7.20px; font-family: "Courier New", monospace; font-weight: 600; }
    </style>
  </defs>
  <rect x="0" y="0" width="1504.00" height="1536.00" fill="#4393be" />
  <g class="floors">
<rect x="688.00" y="64.00" width="176.00" height="192.00" fill="#fcfdfe" />
<rect x="32.00" y="96.00" width="176.00" height="80.00" fill="#fcfdfe" />
<rect x="1088.00" y="96.00" width="96.00" height="64.00" fill="#fcfdfe" />
<rect x="1168.00" y="160.00" width="16.00" height="80.00" fill="#fcfdfe" />
<rect x="112.00" y="176.00" width="16.00" height="352.00" fill="#fcfdfe" />
<rect x="1104.00" y="176.00" width="64.00" height="64.00" fill="#fcfdfe" />
<rect x="1184.00" y="176.00" width="48.00" height="64.00" fill="#fcfdfe" />
<rect x="256.00" y="192.00" width="80.00" height="80.00" fill="#fcfdfe" />
<rect x="432.00" y="192.00" width="64.00" height="128.00" fill="#fcfdfe" />
<rect x="496.00" y="240.00" width="192.00" height="16.00" fill="#fcfdfe" />
<rect x="1104.00" y="240.00" width="32.00" height="160.00" fill="#fcfdfe" />
<rect x="336.00" y="256.00" width="96.00" height="16.00" fill="#fcfdfe" />
<rect x="320.00" y="272.00" width="16.00" height="272.00" fill="#fcfdfe" />
<rect x="1328.00" y="272.00" width="48.00" height="176.00" fill="#fcfdfe" />
<rect x="1296.00" y="288.00" width="32.00" height="144.00" fill="#fcfdfe" />
<rect x="1376.00" y="288.00" width="32.00" height="144.00" fill="#fcfdfe" />
<rect x="1280.00" y="304.00" width="16.00" height="112.00" fill="#fcfdfe" />
<rect x="1408.00" y="304.00" width="16.00" height="112.00" fill="#fcfdfe" />
<rect x="80.00" y="320.00" width="32.00" height="208.00" fill="#fcfdfe" />
<rect x="128.00" y="320.00" width="32.00" height="208.00" fill="#fcfdfe" />
<rect x="432.00" y="320.00" width="16.00" height="496.00" fill="#fcfdfe" />
<rect x="1024.00" y="320.00" width="80.00" height="80.00" fill="#fcfdfe" />
<rect x="64.00" y="336.00" width="16.00" height="176.00" fill="#fcfdfe" />
<rect x="160.00" y="336.00" width="16.00" height="176.00" fill="#fcfdfe" />
<rect x="224.00" y="336.00" width="96.00" height="208.00" fill="#fcfdfe" />
<rect x="336.00" y="336.00" width="96.00" height="208.00" fill="#fcfdfe" />
<rect x="1264.00" y="336.00" width="16.00" height="48.00" fill="#fcfdfe" />
<rect x="1424.00" y="336.00" width="16.00" height="48.00" fill="#fcfdfe" />
<rect x="448.00" y="352.00" width="576.00" height="16.00" fill="#fcfdfe" />
<rect x="1136.00" y="352.00" width="128.00" height="16.00" fill="#fcfdfe" />
<rect x="512.00" y="384.00" width="176.00" height="64.00" fill="#fcfdfe" />
<rect x="1072.00" y="400.00" width="48.00" height="368.00" fill="#fcfdfe" />
<rect x="176.00" y="416.00" width="48.00" height="16.00" fill="#fcfdfe" />
<rect x="448.00" y="416.00" width="64.00" height="32.00" fill="#fcfdfe" />
<rect x="672.00" y="448.00" width="16.00" height="192.00" fill="#fcfdfe" />
<rect x="176.00" y="496.00" width="48.00" height="16.00" fill="#fcfdfe" />
<rect x="448.00" y="496.00" width="224.00" height="16.00" fill="#fcfdfe" />
<rect x="448.00" y="528.00" width="224.00" height="16.00" fill="#fcfdfe" />
<rect x="688.00" y="528.00" width="128.00" height="16.00" fill="#fcfdfe" />
<rect x="304.00" y="544.00" width="16.00" height="368.00" fill="#fcfdfe" />
<rect x="800.00" y="544.00" width="16.00" height="352.00" fill="#fcfdfe" />
<rect x="688.00" y="560.00" width="112.00" height="80.00" fill="#fcfdfe" />
<rect x="816.00" y="624.00" width="256.00" height="16.00" fill="#fcfdfe" />
<rect x="1120.00" y="624.00" width="160.00" height="16.00" fill="#fcfdfe" />
<rect x="1264.00" y="640.00" width="16.00" height="192.00" fill="#fcfdfe" />
<rect x="816.00" y="672.00" width="64.00" height="224.00" fill="#fcfdfe" />
<rect x="992.00" y="672.00" width="80.00" height="96.00" fill="#fcfdfe" />
<rect x="1120.00" y="672.00" width="48.00" height="96.00" fill="#fcfdfe" />
<rect x="1280.00" y="688.00" width="192.00" height="144.00" fill="#fcfdfe" />
<rect x="208.00" y="704.00" width="96.00" height="208.00" fill="#fcfdfe" />
<rect x="320.00" y="704.00" width="112.00" height="16.00" fill="#fcfdfe" />
<rect x="416.00" y="720.00" width="16.00" height="96.00" fill="#fcfdfe" />
<rect x="448.00" y="720.00" width="96.00" height="96.00" fill="#fcfdfe" />
<rect x="1168.00" y="720.00" width="96.00" height="16.00" fill="#fcfdfe" />
<rect x="544.00" y="768.00" width="256.00" height="16.00" fill="#fcfdfe" />
<rect x="992.00" y="768.00" width="16.00" height="144.00" fill="#fcfdfe" />
<rect x="1088.00" y="768.00" width="32.00" height="96.00" fill="#fcfdfe" />
<rect x="320.00" y="800.00" width="96.00" height="16.00" fill="#fcfdfe" />
<rect x="528.00" y="816.00" width="16.00" height="48.00" fill="#fcfdfe" />
<rect x="544.00" y="848.00" width="256.00" height="16.00" fill="#fcfdfe" />
<rect x="880.00" y="848.00" width="112.00" height="16.00" fill="#fcfdfe" />
<rect x="1008.00" y="848.00" width="80.00" height="16.00" fill="#fcfdfe" />
<rect x="592.00" y="864.00" width="96.00" height="160.00" fill="#fcfdfe" />
<rect x="912.00" y="864.00" width="80.00" height="48.00" fill="#fcfdfe" />
<rect x="1008.00" y="864.00" width="32.00" height="48.00" fill="#fcfdfe" />
<rect x="1088.00" y="864.00" width="16.00" height="448.00" fill="#fcfdfe" />
<rect x="576.00" y="880.00" width="16.00" height="128.00" fill="#fcfdfe" />
<rect x="688.00" y="880.00" width="112.00" height="16.00" fill="#fcfdfe" />
<rect x="880.00" y="880.00" width="32.00" height="16.00" fill="#fcfdfe" />
<rect x="688.00" y="896.00" width="16.00" height="112.00" fill="#fcfdfe" />
<rect x="1040.00" y="896.00" width="48.00" height="16.00" fill="#fcfdfe" />
<rect x="1024.00" y="912.00" width="16.00" height="208.00" fill="#fcfdfe" />
<rect x="1104.00" y="912.00" width="144.00" height="144.00" fill="#fcfdfe" />
<rect x="608.00" y="1024.00" width="64.00" height="16.00" fill="#fcfdfe" />
<rect x="1152.00" y="1056.00" width="16.00" height="176.00" fill="#fcfdfe" />
<rect x="1040.00" y="1104.00" width="48.00" height="16.00" fill="#fcfdfe" />
<rect x="1104.00" y="1104.00" width="48.00" height="16.00" fill="#fcfdfe" />
<rect x="1168.00" y="1104.00" width="128.00" height="16.00" fill="#fcfdfe" />
<rect x="1232.00" y="1120.00" width="64.00" height="192.00" fill="#fcfdfe" />
<rect x="816.00" y="1136.00" width="128.00" height="208.00" fill="#fcfdfe" />
<rect x="1008.00" y="1136.00" width="80.00" height="96.00" fill="#fcfdfe" />
<rect x="1104.00" y="1136.00" width="48.00" height="96.00" fill="#fcfdfe" />
<rect x="240.00" y="1168.00" width="192.00" height="176.00" fill="#fcfdfe" />
<rect x="1168.00" y="1200.00" width="64.00" height="16.00" fill="#fcfdfe" />
<rect x="944.00" y="1216.00" width="64.00" height="16.00" fill="#fcfdfe" />
<rect x="1024.00" y="1248.00" width="64.00" height="64.00" fill="#fcfdfe" />
<rect x="1104.00" y="1248.00" width="80.00" height="64.00" fill="#fcfdfe" />
<rect x="560.00" y="1264.00" width="256.00" height="16.00" fill="#fcfdfe" />
<rect x="560.00" y="1280.00" width="64.00" height="144.00" fill="#fcfdfe" />
<rect x="352.00" y="1344.00" width="16.00" height="128.00" fill="#fcfdfe" />
<rect x="320.00" y="1360.00" width="32.00" height="112.00" fill="#fcfdfe" />
<rect x="368.00" y="1360.00" width="192.00" height="16.00" fill="#fcfdfe" />
<rect x="368.00" y="1376.00" width="16.00" height="96.00" fill="#fcfdfe" />
  </g>
  <g class="grid">
<line x1="0.00" y1="0" x2="0.00" y2="1536.00" />
<line x1="16.00" y1="0" x2="16.00" y2="1536.00" />
<line x1="32.00" y1="0" x2="32.00" y2="1536.00" />
<line x1="48.00" y1="0" x2="48.00" y2="1536.00" />
<line x1="64.00" y1="0" x2="64.00" y2="1536.00" />
<line x1="80.00" y1="0" x2="80.00" y2="1536.00" />
<line x1="96.00" y1="0" x2="96.00" y2="1536.00" />
<line x1="112.00" y1="0" x2="112.00" y2="1536.00" />
<line x1="128.00" y1="0" x2="128.00" y2="1536.00" />
<line x1="144.00" y1="0" x2="144.00" y2="1536.00" />
<line x1="160.00" y1="0" x2="160.00" y2="1536.00" />
<line x1="176.00" y1="0" x2="176.00" y2="1536.00" />
<line x1="192.00" y1="0" x2="192.00" y2="1536.00" />
<line x1="208.00" y1="0" x2="208.00" y2="1536.00" />
<line x1="224.00" y1="0" x2="224.00" y2="1536.00" />
<line x1="240.00" y1="0" x2="240.00" y2="1536.00" />
<line x1="256.00" y1="0" x2="256.00" y2="1536.00" />
<line x1="272.00" y1="0" x2="272.00" y2="1536.00" />
<line x1="288.00" y1="0" x2="288.00" y2="1536.00" />
<line x1="304.00" y1="0" x2="304.00" y2="1536.00" />
<line x1="320.00" y1="0" x2="320.00" y2="1536.00" />
<line x1="336.00" y1="0" x2="336.00" y2="1536.00" />
<line x1="352.00" y1="0" x2="352.00" y2="1536.00" />
<line x1="368.00" y1="0" x2="368.00" y2="1536.00" />
<line x1="384.00" y1="0" x2="384.00" y2="1536.00" />
<line x1="400.00" y1="0" x2="400.00" y2="1536.00" />
<line x1="416.00" y1="0" x2="416.00" y2="1536.00" />
<line x1="432.00" y1="0" x2="432.00" y2="1536.00" />
<line x1="448.00" y1="0" x2="448.00" y2="1536.00" />
<line x1="464.00" y1="0" x2="464.00" y2="1536.00" />
<line x1="480.00" y1="0" x2="480.00" y2="1536.00" />
<line x1="496.00" y1="0" x2="496.00" y2="1536.00" />
<line x1="512.00" y1="0" x2="512.00" y2="1536.00" />
<line x1="528.00" y1="0" x2="528.00" y2="1536.00" />
<line x1="544.00" y1="0" x2="544.00" y2="1536.00" />
<line x1="560.00" y1="0" x2="560.00" y2="1536.00" />
<line x1="576.00" y1="0" x2="576.00" y2="1536.00" />
<line x1="592.00" y1="0" x2="592.00" y2="1536.00" />
<line x1="608.00" y1="0" x2="608.00" y2="1536.00" />
<line x1="624.00" y1="0" x2="624.00" y2="1536.00" />
<line x1="640.00" y1="0" x2="640.00" y2="1536.00" />
<line x1="656.00" y1="0" x2="656.00" y2="1536.00" />
<line x1="672.00" y1="0" x2="672.00" y2="1536.00" />
<line x1="688.00" y1="0" x2="688.00" y2="1536.00" />
<line x1="704.00" y1="0" x2="704.00" y2="1536.00" />
<line x1="720.00" y1="0" x2="720.00" y2="1536.00" />
<line x1="736.00" y1="0" x2="736.00" y2="1536.00" />
<line x1="752.00" y1="0" x2="752.00" y2="1536.00" />
<line x1="768.00" y1="0" x2="768.00" y2="1536.00" />
<line x1="784.00" y1="0" x2="784.00" y2="1536.00" />
<line x1="800.00" y1="0" x2="800.00" y2="1536.00" />
<line x1="816.00" y1="0" x2="816.00" y2="1536.00" />
<line x1="832.00" y1="0" x2="832.00" y2="1536.00" />
<line x1="848.00" y1="0" x2="848.00" y2="1536.00" />
<line x1="864.00" y1="0" x2="864.00" y2="1536.00" />
<line x1="880.00" y1="0" x2="880.00" y2="1536.00" />
<line x1="896.00" y1="0" x2="896.00" y2="1536.00" />
<line x1="912.00" y1="0" x2="912.00" y2="1536.00" />
<line x1="928.00" y1="0" x2="928.00" y2="1536.00" />
<line x1="944.00" y1="0" x2="944.00" y2="1536.00" />
<line x1="960.00" y1="0" x2="960.00" y2="1536.00" />
<line x1="976.00" y1="0" x2="976.00" y2="1536.00" />
<line x1="992.00" y1="0" x2="992.00" y2="1536.00" />
<line x1="1008.00" y1="0" x2="1008.00" y2="1536.00" />
<line x1="1024.00" y1="0" x2="1024.00" y2="1536.00" />
<line x1="1040.00" y1="0" x2="1040.00" y2="1536.00" />
<line x1="1056.00" y1="0" x2="1056.00" y2="1536.00" />
<line x1="1072.00" y1="0" x2="1072.00" y2="1536.00" />
<line x1="1088.00" y1="0" x2="1088.00" y2="1536.00" />
<line x1="1104.00" y1="0" x2="1104.00" y2="1536.00" />
<line x1="1120.00" y1="0" x2="1120.00" y2="1536.00" />
<line x1="1136.00" y1="0" x2="1136.00" y2="1536.00" />
<line x1="1152.00" y1="0" x2="1152.00" y2="1536.00" />
<line x1="1168.00" y1="0" x2="1168.00" y2="1536.00" />
<line x1="1184.00" y1="0" x2="1184.00" y2="1536.00" />
<line x1="1200.00" y1="0" x2="1200.00" y2="1536.00" />
<line x1="1216.00" y1="0" x2="1216.00" y2="1536.00" />
<line x1="1232.00" y1="0" x2="1232.00" y2="1536.00" />
<line x1="1248.00" y1="0" x2="1248.00" y2="1536.00" />
<line x1="1264.00" y1="0" x2="1264.00" y2="1536.00" />
<line x1="1280.00" y1="0" x2="1280.00" y2="1536.00" />
<line x1="1296.00" y1="0" x2="1296.00" y2="1536.00" />
<line x1="1312.00" y1="0" x2="1312.00" y2="1536.00" />
<line x1="1328.00" y1="0" x2="1328.00" y2="1536.00" />
<line x1="1344.00" y1="0" x2="1344.00" y2="1536.00" />
<line x1="1360.00" y1="0" x2="1360.00" y2="1536.00" />
<line x1="1376.00" y1="0" x2="1376.00" y2="1536.00" />
<line x1="1392.00" y1="0" x2="1392.00" y2="1536.00" />
<line x1="1408.00" y1="0" x2="1408.00" y2="1536.00" />
<line x1="1424.00" y1="0" x2="1424.00" y2="1536.00" />
<line x1="1440.00" y1="0" x2="1440.00" y2="1536.00" />
<line x1="1456.00" y1="0" x2="1456.00" y2="1536.00" />
<line x1="1472.00" y1="0" x2="1472.00" y2="1536.00" />
<line x1="1488.00" y1="0" x2="1488.00" y2="1536.00" />
<line x1="1504.00" y1="0" x2="1504.00" y2="1536.00" />
<line x1="0" y1="0.00" x2="1504.00" y2="0.00" />
<line x1="0" y1="16.00" x2="1504.00" y2="16.00" />
<line x1="0" y1="32.00" x2="1504.00" y2="32.00" />
<line x1="0" y1="48.00" x2="1504.00" y2="48.00" />
<line x1="0" y1="64.00" x2="1504.00" y2="64.00" />
<line x1="0" y1="80.00" x2="1504.00" y2="80.00" />
<line x1="0" y1="96.00" x2="1504.00" y2="96.00" />
<line x1="0" y1="112.00" x2="1504.00" y2="112.00" />
<line x1="0" y1="128.00" x2="1504.00" y2="128.00" />
<line x1="0" y1="144.00" x2="1504.00" y2="144.00" />
<line x1="0" y1="160.00" x2="1504.00" y2="160.00" />
<line x1="0" y1="176.00" x2="1504.00" y2="176.00" />
<line x1="0" y1="192.00" x2="1504.00" y2="192.00" />
<line x1="0" y1="208.00" x2="1504.00" y2="208.00" />
<line x1="0" y1="224.00" x2="1504.00" y2="224.00" />
<line x1="0" y1="240.00" x2="1504.00" y2="240.00" />
<line x1="0" y1="256.00" x2="1504.00" y2="256.00" />
<line x1="0" y1="272.00" x2="1504.00" y2="272.00" />
<line x1="0" y1="288.00" x2="1504.00" y2="288.00" />
<line x1="0" y1="304.00" x2="1504.00" y2="304.00" />
<line x1="0" y1="320.00" x2="1504.00" y2="320.00" />
<line x1="0" y1="336.00" x2="1504.00" y2="336.00" />
<line x1="0" y1="352.00" x2="1504.00" y2="352.00" />
<line x1="0" y1="368.00" x2="1504.00" y2="368.00" />
<line x1="0" y1="384.00" x2="1504.00" y2="384.00" />
<line x1="0" y1="400.00" x2="1504.00" y2="400.00" />
<line x1="0" y1="416.00" x2="1504.00" y2="416.00" />
<line x1="0" y1="432.00" x2="1504.00" y2="432.00" />
<line x1="0" y1="448.00" x2="1504.00" y2="448.00" />
<line x1="0" y1="464.00" x2="1504.00" y2="464.00" />
<line x1="0" y1="480.00" x2="1504.00" y2="480.00" />
<line x1="0" y1="496.00" x2="1504.00" y2="496.00" />
<line x1="0" y1="512.00" x2="1504.00" y2="512.00" />
<line x1="0" y1="528.00" x2="1504.00" y2="528.00" />
<line x1="0" y1="544.00" x2="1504.00" y2="544.00" />
<line x1="0" y1="560.00" x2="1504.00" y2="560.00" />
<line x1="0" y1="576.00" x2="1504.00" y2="576.00" />
<line x1="0" y1="592.00" x2="1504.00" y2="592.00" />
<line x1="0" y1="608.00" x2="1504.00" y2="608.00" />
<line x1="0" y1="624.00" x2="1504.00" y2="624.00" />
<line x1="0" y1="640.00" x2="1504.00" y2="640.00" />
<line x1="0" y1="656.00" x2="1504.00" y2="656.00" />
<line x1="0" y1="672.00" x2="1504.00" y2="672.00" />
<line x1="0" y1="688.00" x2="1504.00" y2="688.00" />
<line x1="0" y1="704.00" x2="1504.00" y2="704.00" />
<line x1="0" y1="720.00" x2="1504.00" y2="720.00" />
<line x1="0" y1="736.00" x2="1504.00" y2="736.00" />
<line x1="0" y1="752.00" x2="1504.00" y2="752.00" />
<line x1="0" y1="768.00" x2="1504.00" y2="768.00" />
<line x1="0" y1="784.00" x2="1504.00" y2="784.00" />
<line x1="0" y1="800.00" x2="1504.00" y2="800.00" />
<line x1="0" y1="816.00" x2="1504.00" y2="816.00" />
<line x1="0" y1="832.00" x2="1504.00" y2="832.00" />
<line x1="0" y1="848.00" x2="1504.00" y2="848.00" />
<line x1="0" y1="864.00" x2="1504.00" y2="864.00" />
<line x1="0" y1="880.00" x2="1504.00" y2="880.00" />
<line x1="0" y1="896.00" x2="1504.00" y2="896.00" />
<line x1="0" y1="912.00" x2="1504.00" y2="912.00" />
<line x1="0" y1="928.00" x2="1504.00" y2="928.00" />
<line x1="0" y1="944.00" x2="1504.00" y2="944.00" />
<line x1="0" y1="960.00" x2="1504.00" y2="960.00" />
<line x1="0" y1="976.00" x2="1504.00" y2="976.00" />
<line x1="0" y1="992.00" x2="1504.00" y2="992.00" />
<line x1="0" y1="1008.00" x2="1504.00" y2="1008.00" />
<line x1="0" y1="1024.00" x2="1504.00" y2="1024.00" />
<line x1="0" y1="1040.00" x2="1504.00" y2="1040.00" />
<line x1="0" y1="1056.00" x2="1504.00" y2="1056.00" />
<line x1="0" y1="1072.00" x2="1504.00" y2="1072.00" />
<line x1="0" y1="1088.00" x2="1504.00" y2="1088.00" />
<line x1="0" y1="1104.00" x2="1504.00" y2="1104.00" />
<line x1="0" y1="1120.00" x2="1504.00" y2="1120.00" />
<line x1="0" y1="1136.00" x2="1504.00" y2="1136.00" />
<line x1="0" y1="1152.00" x2="1504.00" y2="1152.00" />
<line x1="0" y1="1168.00" x2="1504.00" y2="1168.00" />
<line x1="0" y1="1184.00" x2="1504.00" y2="1184.00" />
<line x1="0" y1="1200.00" x2="1504.00" y2="1200.00" />
<line x1="0" y1="1216.00" x2="1504.00" y2="1216.00" />
<line x1="0" y1="1232.00" x2="1504.00" y2="1232.00" />
<line x1="0" y1="1248.00" x2="1504.00" y2="1248.00" />
<line x1="0" y1="1264.00" x2="1504.00" y2="1264.00" />
<line x1="0" y1="1280.00" x2="1504.00" y2="1280.00" />
<line x1="0" y1="1296.00" x2="1504.00" y2="1296.00" />
<line x1="0" y1="1312.00" x2="1504.00" y2="1312.00" />
<line x1="0" y1="1328.00" x2="1504.00" y2="1328.00" />
<line x1="0" y1="1344.00" x2="1504.00" y2="1344.00" />
<line x1="0" y1="1360.00" x2="1504.00" y2="1360.00" />
<line x1="0" y1="1376.00" x2="1504.00" y2="1376.00" />
<line x1="0" y1="1392.00" x2="1504.00" y2="1392.00" />
<line x1="0" y1="1408.00" x2="1504.00" y2="1408.00" />
<line x1="0" y1="1424.00" x2="1504.00" y2="1424.00" />
<line x1="0" y1="1440.00" x2="1504.00" y2="1440.00" />
<line x1="0" y1="1456.00" x2="1504.00" y2="1456.00" />
<line x1="0" y1="1472.00" x2="1504.00" y2="1472.00" />
<line x1="0" y1="1488.00" x2="1504.00" y2="1488.00" />
<line x1="0" y1="1504.00" x2="1504.00" y2="1504.00" />
<line x1="0" y1="1520.00" x2="1504.00" y2="1520.00" />
<line x1="0" y1="1536.00" x2="1504.00" y2="1536.00" />
  </g>
  <g class="walls">
<line x1="688.00" y1="64.00" x2="864.00" y2="64.00" />
<line x1="32.00" y1="96.00" x2="208.00" y2="96.00" />
<line x1="1088.00" y1="96.00" x2="1184.00" y2="96.00" />
<line x1="1088.00" y1="160.00" x2="1168.00" y2="160.00" />
<line x1="32.00" y1="176.00" x2="112.00" y2="176.00" />
<line x1="128.00" y1="176.00" x2="208.00" y2="176.00" />
<line x1="1104.00" y1="176.00" x2="1168.00" y2="176.00" />
<line x1="1184.00" y1="176.00" x2="1232.00" y2="176.00" />
<line x1="256.00" y1="192.00" x2="336.00" y2="192.00" />
<line x1="432.00" y1="192.00" x2="496.00" y2="192.00" />
<line x1="496.00" y1="240.00" x2="688.00" y2="240.00" />
<line x1="1136.00" y1="240.00" x2="1232.00" y2="240.00" />
<line x1="336.00" y1="256.00" x2="432.00" y2="256.00" />
<line x1="496.00" y1="256.00" x2="864.00" y2="256.00" />
<line x1="256.00" y1="272.00" x2="320.00" y2="272.00" />
<line x1="336.00" y1="272.00" x2="432.00" y2="272.00" />
<line x1="1328.00" y1="272.00" x2="1376.00" y2="272.00" />
<line x1="1296.00" y1="288.00" x2="1328.00" y2="288.00" />
<line x1="1376.00" y1="288.00" x2="1408.00" y2="288.00" />
<line x1="80.00" y1="320.00" x2="112.00" y2="320.00" />
<line x1="128.00" y1="320.00" x2="160.00" y2="320.00" />
<line x1="448.00" y1="320.00" x2="496.00" y2="320.00" />
<line x1="1024.00" y1="320.00" x2="1104.00" y2="320.00" />
<line x1="1280.00" y1="304.00" x2="1296.00" y2="304.00" />
<line x1="1408.00" y1="304.00" x2="1424.00" y2="304.00" />
<line x1="64.00" y1="336.00" x2="80.00" y2="336.00" />
<line x1="160.00" y1="336.00" x2="176.00" y2="336.00" />
<line x1="224.00" y1="336.00" x2="320.00" y2="336.00" />
<line x1="336.00" y1="336.00" x2="432.00" y2="336.00" />
<line x1="1264.00" y1="336.00" x2="1280.00" y2="336.00" />
<line x1="1424.00" y1="336.00" x2="1440.00" y2="336.00" />
<line x1="448.00" y1="352.00" x2="1024.00" y2="352.00" />
<line x1="1136.00" y1="352.00" x2="1264.00" y2="352.00" />
<line x1="448.00" y1="368.00" x2="1024.00" y2="368.00" />
<line x1="1136.00" y1="368.00" x2="1264.00" y2="368.00" />
<line x1="512.00" y1="384.00" x2="688.00" y2="384.00" />
<line x1="1264.00" y1="384.00" x2="1280.00" y2="384.00" />
<line x1="1424.00" y1="384.00" x2="1440.00" y2="384.00" />
<line x1="1024.00" y1="400.00" x2="1072.00" y2="400.00" />
<line x1="1120.00" y1="400.00" x2="1136.00" y2="400.00" />
<line x1="176.00" y1="416.00" x2="224.00" y2="416.00" />
<line x1="448.00" y1="416.00" x2="512.00" y2="416.00" />
<line x1="1280.00" y1="416.00" x2="1296.00" y2="416.00" />
<line x1="1408.00" y1="416.00" x2="1424.00" y2="416.00" />
<line x1="176.00" y1="432.00" x2="224.00" y2="432.00" />
<line x1="1296.00" y1="432.00" x2="1328.00" y2="432.00" />
<line x1="1376.00" y1="432.00" x2="1408.00" y2="432.00" />
<line x1="448.00" y1="448.00" x2="672.00" y2="448.00" />
<line x1="1328.00" y1="448.00" x2="1376.00" y2="448.00" />
<line x1="64.00" y1="512.00" x2="80.00" y2="512.00" />
<line x1="160.00" y1="512.00" x2="224.00" y2="512.00" />
<line x1="448.00" y1="512.00" x2="672.00" y2="512.00" />
<line x1="176.00" y1="496.00" x2="224.00" y2="496.00" />
<line x1="448.00" y1="496.00" x2="672.00" y2="496.00" />
<line x1="80.00" y1="528.00" x2="160.00" y2="528.00" />
<line x1="448.00" y1="528.00" x2="672.00" y2="528.00" />
<line x1="688.00" y1="528.00" x2="816.00" y2="528.00" />
<line x1="224.00" y1="544.00" x2="304.00" y2="544.00" />
<line x1="320.00" y1="544.00" x2="432.00" y2="544.00" />
<line x1="448.00" y1="544.00" x2="672.00" y2="544.00" />
<line x1="688.00" y1="544.00" x2="800.00" y2="544.00" />
<line x1="688.00" y1="560.00" x2="800.00" y2="560.00" />
<line x1="672.00" y1="640.00" x2="800.00" y2="640.00" />
<line x1="816.00" y1="640.00" x2="1072.00" y2="640.00" />
<line x1="1120.00" y1="640.00" x2="1264.00" y2="640.00" />
<line x1="816.00" y1="624.00" x2="1072.00" y2="624.00" />
<line x1="1120.00" y1="624.00" x2="1280.00" y2="624.00" />
<line x1="816.00" y1="672.00" x2="880.00" y2="672.00" />
<line x1="992.00" y1="672.00" x2="1072.00" y2="672.00" />
<line x1="1120.00" y1="672.00" x2="1168.00" y2="672.00" />
<line x1="1280.00" y1="688.00" x2="1472.00" y2="688.00" />
<line x1="208.00" y1="704.00" x2="304.00" y2="704.00" />
<line x1="320.00" y1="704.00" x2="432.00" y2="704.00" />
<line x1="320.00" y1="720.00" x2="416.00" y2="720.00" />
<line x1="448.00" y1="720.00" x2="544.00" y2="720.00" />
<line x1="1168.00" y1="720.00" x2="1264.00" y2="720.00" />
<line x1="1168.00" y1="736.00" x2="1264.00" y2="736.00" />
<line x1="544.00" y1="768.00" x2="800.00" y2="768.00" />
<line x1="1008.00" y1="768.00" x2="1088.00" y2="768.00" />
<line x1="1120.00" y1="768.00" x2="1168.00" y2="768.00" />
<line x1="544.00" y1="784.00" x2="800.00" y2="784.00" />
<line x1="320.00" y1="800.00" x2="416.00" y2="800.00" />
<line x1="320.00" y1="816.00" x2="528.00" y2="816.00" />
<line x1="1264.00" y1="832.00" x2="1472.00" y2="832.00" />
<line x1="528.00" y1="864.00" x2="592.00" y2="864.00" />
<line x1="688.00" y1="864.00" x2="800.00" y2="864.00" />
<line x1="880.00" y1="864.00" x2="912.00" y2="864.00" />
<line x1="1040.00" y1="864.00" x2="1088.00" y2="864.00" />
<line x1="1104.00" y1="864.00" x2="1120.00" y2="864.00" />
<line x1="544.00" y1="848.00" x2="800.00" y2="848.00" />
<line x1="880.00" y1="848.00" x2="992.00" y2="848.00" />
<line x1="1008.00" y1="848.00" x2="1088.00" y2="848.00" />
<line x1="576.00" y1="880.00" x2="592.00" y2="880.00" />
<line x1="688.00" y1="880.00" x2="800.00" y2="880.00" />
<line x1="880.00" y1="880.00" x2="912.00" y2="880.00" />
<line x1="704.00" y1="896.00" x2="912.00" y2="896.00" />
<line x1="1040.00" y1="896.00" x2="1088.00" y2="896.00" />
<line x1="208.00" y1="912.00" x2="320.00" y2="912.00" />
<line x1="912.00" y1="912.00" x2="1024.00" y2="912.00" />
<line x1="1040.00" y1="912.00" x2="1088.00" y2="912.00" />
<line x1="1104.00" y1="912.00" x2="1248.00" y2="912.00" />
<line x1="576.00" y1="1008.00" x2="592.00" y2="1008.00" />
<line x1="688.00" y1="1008.00" x2="704.00" y2="1008.00" />
<line x1="592.00" y1="1024.00" x2="608.00" y2="1024.00" />
<line x1="672.00" y1="1024.00" x2="688.00" y2="1024.00" />
<line x1="608.00" y1="1040.00" x2="672.00" y2="1040.00" />
<line x1="1104.00" y1="1056.00" x2="1152.00" y2="1056.00" />
<line x1="1168.00" y1="1056.00" x2="1248.00" y2="1056.00" />
<line x1="1024.00" y1="1120.00" x2="1088.00" y2="1120.00" />
<line x1="1104.00" y1="1120.00" x2="1152.00" y2="1120.00" />
<line x1="1168.00" y1="1120.00" x2="1232.00" y2="1120.00" />
<line x1="1040.00" y1="1104.00" x2="1088.00" y2="1104.00" />
<line x1="1104.00" y1="1104.00" x2="1152.00" y2="1104.00" />
<line x1="1168.00" y1="1104.00" x2="1296.00" y2="1104.00" />
<line x1="816.00" y1="1136.00" x2="944.00" y2="1136.00" />
<line x1="1008.00" y1="1136.00" x2="1088.00" y2="1136.00" />
<line x1="1104.00" y1="1136.00" x2="1152.00" y2="1136.00" />
<line x1="240.00" y1="1168.00" x2="432.00" y2="1168.00" />
<line x1="1168.00" y1="1200.00" x2="1232.00" y2="1200.00" />
<line x1="944.00" y1="1216.00" x2="1008.00" y2="1216.00" />
<line x1="1168.00" y1="1216.00" x2="1232.00" y2="1216.00" />
<line x1="944.00" y1="1232.00" x2="1088.00" y2="1232.00" />
<line x1="1104.00" y1="1232.00" x2="1168.00" y2="1232.00" />
<line x1="1024.00" y1="1248.00" x2="1088.00" y2="1248.00" />
<line x1="1104.00" y1="1248.00" x2="1184.00" y2="1248.00" />
<line x1="560.00" y1="1264.00" x2="816.00" y2="1264.00" />
<line x1="624.00" y1="1280.00" x2="816.00" y2="1280.00" />
<line x1="1024.00" y1="1312.00" x2="1184.00" y2="1312.00" />
<line x1="1232.00" y1="1312.00" x2="1296.00" y2="1312.00" />
<line x1="240.00" y1="1344.00" x2="352.00" y2="1344.00" />
<line x1="368.00" y1="1344.00" x2="432.00" y2="1344.00" />
<line x1="816.00" y1="1344.00" x2="944.00" y2="1344.00" />
<line x1="320.00" y1="1360.00" x2="352.00" y2="1360.00" />
<line x1="368.00" y1="1360.00" x2="560.00" y2="1360.00" />
<line x1="384.00" y1="1376.00" x2="560.00" y2="1376.00" />
<line x1="560.00" y1="1424.00" x2="624.00" y2="1424.00" />
<line x1="320.00" y1="1472.00" x2="384.00" y2="1472.00" />
<line x1="688.00" y1="64.00" x2="688.00" y2="240.00" />
<line x1="688.00" y1="384.00" x2="688.00" y2="528.00" />
<line x1="688.00" y1="544.00" x2="688.00" y2="560.00" />
<line x1="688.00" y1="864.00" x2="688.00" y2="880.00" />
<line x1="688.00" y1="1008.00" x2="688.00" y2="1024.00" />
<line x1="864.00" y1="64.00" x2="864.00" y2="256.00" />
<line x1="32.00" y1="96.00" x2="32.00" y2="176.00" />
<line x1="208.00" y1="96.00" x2="208.00" y2="176.00" />
<line x1="208.00" y1="704.00" x2="208.00" y2="912.00" />
<line x1="1088.00" y1="96.00" x2="1088.00" y2="160.00" />
<line x1="1088.00" y1="768.00" x2="1088.00" y2="848.00" />
<line x1="1088.00" y1="864.00" x2="1088.00" y2="896.00" />
<line x1="1088.00" y1="912.00" x2="1088.00" y2="1104.00" />
<line x1="1088.00" y1="1120.00" x2="1088.00" y2="1136.00" />
<line x1="1088.00" y1="1232.00" x2="1088.00" y2="1248.00" />
<line x1="1184.00" y1="96.00" x2="1184.00" y2="176.00" />
<line x1="1184.00" y1="1248.00" x2="1184.00" y2="1312.00" />
<line x1="1168.00" y1="160.00" x2="1168.00" y2="176.00" />
<line x1="1168.00" y1="672.00" x2="1168.00" y2="720.00" />
<line x1="1168.00" y1="736.00" x2="1168.00" y2="768.00" />
<line x1="1168.00" y1="1056.00" x2="1168.00" y2="1104.00" />
<line x1="1168.00" y1="1120.00" x2="1168.00" y2="1200.00" />
<line x1="1168.00" y1="1216.00" x2="1168.00" y2="1232.00" />
<line x1="112.00" y1="176.00" x2="112.00" y2="320.00" />
<line x1="128.00" y1="176.00" x2="128.00" y2="320.00" />
<line x1="1104.00" y1="176.00" x2="1104.00" y2="320.00" />
<line x1="1104.00" y1="864.00" x2="1104.00" y2="912.00" />
<line x1="1104.00" y1="1056.00" x2="1104.00" y2="1104.00" />
<line x1="1104.00" y1="1120.00" x2="1104.00" y2="1136.00" />
<line x1="1104.00" y1="1232.00" x2="1104.00" y2="1248.00" />
<line x1="1232.00" y1="176.00" x2="1232.00" y2="240.00" />
<line x1="1232.00" y1="1120.00" x2="1232.00" y2="1200.00" />
<line x1="1232.00" y1="1216.00" x2="1232.00" y2="1312.00" />
<line x1="256.00" y1="192.00" x2="256.00" y2="272.00" />
<line x1="336.00" y1="192.00" x2="336.00" y2="256.00" />
<line x1="336.00" y1="272.00" x2="336.00" y2="336.00" />
<line x1="432.00" y1="192.00" x2="432.00" y2="256.00" />
<line x1="432.00" y1="272.00" x2="432.00" y2="336.00" />
<line x1="432.00" y1="544.00" x2="432.00" y2="704.00" />
<line x1="432.00" y1="1168.00" x2="432.00" y2="1344.00" />
<line x1="496.00" y1="192.00" x2="496.00" y2="240.00" />
<line x1="496.00" y1="256.00" x2="496.00" y2="320.00" />
<line x1="1136.00" y1="240.00" x2="1136.00" y2="352.00" />
<line x1="1136.00" y1="368.00" x2="1136.00" y2="400.00" />
<line x1="320.00" y1="272.00" x2="320.00" y2="336.00" />
<line x1="320.00" y1="544.00" x2="320.00" y2="704.00" />
<line x1="320.00" y1="720.00" x2="320.00" y2="800.00" />
<line x1="320.00" y1="816.00" x2="320.00" y2="912.00" />
<line x1="320.00" y1="1360.00" x2="320.00" y2="1472.00" />
<line x1="1328.00" y1="272.00" x2="1328.00" y2="288.00" />
<line x1="1328.00" y1="432.00" x2="1328.00" y2="448.00" />
<line x1="1376.00" y1="272.00" x2="1376.00" y2="288.00" />
<line x1="1376.00" y1="432.00" x2="1376.00" y2="448.00" />
<line x1="1296.00" y1="288.00" x2="1296.00" y2="304.00" />
<line x1="1296.00" y1="416.00" x2="1296.00" y2="432.00" />
<line x1="1296.00" y1="1104.00" x2="1296.00" y2="1312.00" />
<line x1="1408.00" y1="288.00" x2="1408.00" y2="304.00" />
<line x1="1408.00" y1="416.00" x2="1408.00" y2="432.00" />
<line x1="1280.00" y1="304.00" x2="1280.00" y2="336.00" />
<line x1="1280.00" y1="384.00" x2="1280.00" y2="416.00" />
<line x1="1280.00" y1="624.00" x2="1280.00" y2="688.00" />
<line x1="1424.00" y1="304.00" x2="1424.00" y2="336.00" />
<line x1="1424.00" y1="384.00" x2="1424.00" y2="416.00" />
<line x1="80.00" y1="320.00" x2="80.00" y2="336.00" />
<line x1="80.00" y1="512.00" x2="80.00" y2="528.00" />
<line x1="160.00" y1="320.00" x2="160.00" y2="336.00" />
<line x1="160.00" y1="512.00" x2="160.00" y2="528.00" />
<line x1="448.00" y1="320.00" x2="448.00" y2="352.00" />
<line x1="448.00" y1="368.00" x2="448.00" y2="416.00" />
<line x1="448.00" y1="448.00" x2="448.00" y2="496.00" />
<line x1="448.00" y1="512.00" x2="448.00" y2="528.00" />
<line x1="448.00" y1="544.00" x2="448.00" y2="720.00" />
<line x1="1024.00" y1="320.00" x2="1024.00" y2="352.00" />
<line x1="1024.00" y1="368.00" x2="1024.00" y2="400.00" />
<line x1="1024.00" y1="912.00" x2="1024.00" y2="1120.00" />
<line x1="1024.00" y1="1248.00" x2="1024.00" y2="1312.00" />
<line x1="64.00" y1="336.00" x2="64.00" y2="512.00" />
<line x1="176.00" y1="336.00" x2="176.00" y2="416.00" />
<line x1="176.00" y1="432.00" x2="176.00" y2="496.00" />
<line x1="224.00" y1="336.00" x2="224.00" y2="416.00" />
<line x1="224.00" y1="432.00" x2="224.00" y2="496.00" />
<line x1="224.00" y1="512.00" x2="224.00" y2="544.00" />
<line x1="1264.00" y1="336.00" x2="1264.00" y2="352.00" />
<line x1="1264.00" y1="368.00" x2="1264.00" y2="384.00" />
<line x1="1264.00" y1="640.00" x2="1264.00" y2="720.00" />
<line x1="1264.00" y1="736.00" x2="1264.00" y2="832.00" />
<line x1="1440.00" y1="336.00" x2="1440.00" y2="384.00" />
<line x1="512.00" y1="384.00" x2="512.00" y2="416.00" />
<line x1="1072.00" y1="400.00" x2="1072.00" y2="624.00" />
<line x1="1072.00" y1="640.00" x2="1072.00" y2="672.00" />
<line x1="1120.00" y1="400.00" x2="1120.00" y2="624.00" />
<line x1="1120.00" y1="640.00" x2="1120.00" y2="672.00" />
<line x1="1120.00" y1="768.00" x2="1120.00" y2="864.00" />
<line x1="672.00" y1="448.00" x2="672.00" y2="496.00" />
<line x1="672.00" y1="512.00" x2="672.00" y2="528.00" />
<line x1="672.00" y1="544.00" x2="672.00" y2="640.00" />
<line x1="672.00" y1="1024.00" x2="672.00" y2="1040.00" />
<line x1="816.00" y1="528.00" x2="816.00" y2="624.00" />
<line x1="816.00" y1="640.00" x2="816.00" y2="672.00" />
<line x1="816.00" y1="1136.00" x2="816.00" y2="1264.00" />
<line x1="816.00" y1="1280.00" x2="816.00" y2="1344.00" />
<line x1="304.00" y1="544.00" x2="304.00" y2="704.00" />
<line x1="800.00" y1="544.00" x2="800.00" y2="560.00" />
<line x1="800.00" y1="640.00" x2="800.00" y2="768.00" />
<line x1="800.00" y1="784.00" x2="800.00" y2="848.00" />
<line x1="800.00" y1="864.00" x2="800.00" y2="880.00" />
<line x1="880.00" y1="672.00" x2="880.00" y2="848.00" />
<line x1="880.00" y1="864.00" x2="880.00" y2="880.00" />
<line x1="992.00" y1="672.00" x2="992.00" y2="848.00" />
<line x1="1472.00" y1="688.00" x2="1472.00" y2="832.00" />
<line x1="416.00" y1="720.00" x2="416.00" y2="800.00" />
<line x1="544.00" y1="720.00" x2="544.00" y2="768.00" />
<line x1="544.00" y1="784.00" x2="544.00" y2="848.00" />
<line x1="1008.00" y1="768.00" x2="1008.00" y2="848.00" />
<line x1="1008.00" y1="1136.00" x2="1008.00" y2="1216.00" />
<line x1="528.00" y1="816.00" x2="528.00" y2="864.00" />
<line x1="592.00" y1="864.00" x2="592.00" y2="880.00" />
<line x1="592.00" y1="1008.00" x2="592.00" y2="1024.00" />
<line x1="912.00" y1="864.00" x2="912.00" y2="880.00" />
<line x1="912.00" y1="896.00" x2="912.00" y2="912.00" />
<line x1="1040.00" y1="864.00" x2="1040.00" y2="896.00" />
<line x1="1040.00" y1="912.00" x2="1040.00" y2="1104.00" />
<line x1="576.00" y1="880.00" x2="576.00" y2="1008.00" />
<line x1="704.00" y1="896.00" x2="704.00" y2="1008.00" />
<line x1="1248.00" y1="912.00" x2="1248.00" y2="1056.00" />
<line x1="608.00" y1="1024.00" x2="608.00" y2="1040.00" />
<line x1="1152.00" y1="1056.00" x2="1152.00" y2="1104.00" />
<line x1="1152.00" y1="1120.00" x2="1152.00" y2="1136.00" />
<line x1="944.00" y1="1136.00" x2="944.00" y2="1216.00" />
<line x1="944.00" y1="1232.00" x2="944.00" y2="1344.00" />
<line x1="240.00" y1="1168.00" x2="240.00" y2="1344.00" />
<line x1="560.00" y1="1264.00" x2="560.00" y2="1360.00" />
<line x1="560.00" y1="1376.00" x2="560.00" y2="1424.00" />
<line x1="624.00" y1="1280.00" x2="624.00" y2="1424.00" />
<line x1="352.00" y1="1344.00" x2="352.00" y2="1360.00" />
<line x1="368.00" y1="1344.00" x2="368.00" y2="1360.00" />
<line x1="384.00" y1="1376.00" x2="384.00" y2="1472.00" />
  </g>
  <g class="features">
<g data-feature-type="stairsDown"><line data-feature-type="stairsDown" x1="354.24" y1="435.36" x2="365.76" y2="435.36" /><line x1="354.65" y1="437.68" x2="365.35" y2="437.68" /><line x1="355.07" y1="440.00" x2="364.93" y2="440.00" /><line x1="355.48" y1="442.32" x2="364.52" y2="442.32" /><line x1="355.90" y1="444.64" x2="364.10" y2="444.64" /></g>
<g data-feature-type="stairsUp"><line data-feature-type="stairsUp" x1="771.90" y1="147.36" x2="780.10" y2="147.36" /><line x1="771.48" y1="149.68" x2="780.52" y2="149.68" /><line x1="771.07" y1="152.00" x2="780.93" y2="152.00" /><line x1="770.65" y1="154.32" x2="781.35" y2="154.32" /><line x1="770.24" y1="156.64" x2="781.76" y2="156.64" /></g>
<circle data-feature-type="pillar" cx="488.00" cy="264.00" r="3.68" fill="#4f89a8" stroke="none" />
<g data-feature-type="chest"><rect x="1061.28" y="1158.24" width="5.44" height="3.52" fill="none" /><line x1="1061.28" y1="1160.00" x2="1066.72" y2="1160.00" /><circle cx="1064.00" cy="1160.18" r="0.70" fill="#4f89a8" stroke="none" /></g>
<circle data-feature-type="pillar" cx="792.00" cy="168.00" r="3.68" fill="#4f89a8" stroke="none" />
<g data-feature-type="well"><circle cx="808.00" cy="88.00" r="4.00" fill="none" /><circle cx="808.00" cy="88.00" r="2.24" fill="none" /></g>
<circle data-feature-type="pillar" cx="632.00" cy="936.00" r="3.68" fill="#4f89a8" stroke="none" />
<circle data-feature-type="pillar" cx="664.00" cy="936.00" r="3.68" fill="#4f89a8" stroke="none" />
<circle data-feature-type="pillar" cx="680.00" cy="936.00" r="3.68" fill="#4f89a8" stroke="none" />
<g data-feature-type="trap"><rect x="660.64" y="884.64" width="6.72" height="6.72" fill="none" /><line x1="660.64" y1="884.64" x2="667.36" y2="891.36" /><line x1="660.64" y1="891.36" x2="667.36" y2="884.64" /></g>
<circle data-feature-type="pillar" cx="1400.00" cy="776.00" r="3.68" fill="#4f89a8" stroke="none" />
<circle data-feature-type="pillar" cx="1384.00" cy="744.00" r="3.68" fill="#4f89a8" stroke="none" />
<circle data-feature-type="pillar" cx="1400.00" cy="744.00" r="3.68" fill="#4f89a8" stroke="none" />
<circle data-feature-type="pillar" cx="1352.00" cy="776.00" r="3.68" fill="#4f89a8" stroke="none" />
<g data-feature-type="statue"><circle cx="1304.00" cy="792.00" r="3.52" fill="none" /><line x1="1301.76" y1="792.00" x2="1306.24" y2="792.00" /><line x1="1304.00" y1="789.76" x2="1304.00" y2="794.24" /><line x1="1302.39" y1="790.39" x2="1305.61" y2="793.61" /><line x1="1302.39" y1="793.61" x2="1305.61" y2="790.39" /></g>
<g data-feature-type="coffin"><rect x="1445.60" y="708.32" width="4.80" height="7.36" rx="0.80" ry="0.80" fill="none" /><line x1="1448.00" y1="709.94" x2="1448.00" y2="714.06" /></g>
<circle data-feature-type="pillar" cx="152.00" cy="136.00" r="3.68" fill="#4f89a8" stroke="none" />
<circle data-feature-type="pillar" cx="104.00" cy="136.00" r="3.68" fill="#4f89a8" stroke="none" />
<g data-feature-type="statue"><circle cx="136.00" cy="152.00" r="3.52" fill="none" /><line x1="133.76" y1="152.00" x2="138.24" y2="152.00" /><line x1="136.00" y1="149.76" x2="136.00" y2="154.24" /><line x1="134.39" y1="150.39" x2="137.61" y2="153.61" /><line x1="134.39" y1="153.61" x2="137.61" y2="150.39" /></g>
<path data-feature-type="curtain" d="M 86.40 115.84 Q 88.00 118.34 86.40 120.00 Q 88.00 121.66 86.40 124.16" fill="none" /><path d="M 89.60 115.84 Q 88.00 118.34 89.60 120.00 Q 88.00 121.66 89.60 124.16" fill="none" />
<circle data-feature-type="pillar" cx="360.00" cy="424.00" r="3.68" fill="#4f89a8" stroke="none" />
<circle data-feature-type="pillar" cx="296.00" cy="456.00" r="3.68" fill="#4f89a8" stroke="none" />
<circle data-feature-type="pillar" cx="296.00" cy="424.00" r="3.68" fill="#4f89a8" stroke="none" />
<circle data-feature-type="pillar" cx="360.00" cy="456.00" r="3.68" fill="#4f89a8" stroke="none" />
<circle data-feature-type="pillar" cx="488.00" cy="792.00" r="3.68" fill="#4f89a8" stroke="none" />
<circle data-feature-type="pillar" cx="488.00" cy="808.00" r="3.68" fill="#4f89a8" stroke="none" />
<circle data-feature-type="pillar" cx="1288.00" cy="1208.00" r="3.68" fill="#4f89a8" stroke="none" />
<circle data-feature-type="pillar" cx="1160.00" cy="136.00" r="3.68" fill="#4f89a8" stroke="none" />
<circle data-feature-type="pillar" cx="616.00" cy="1352.00" r="3.68" fill="#4f89a8" stroke="none" />
<g data-feature-type="statue"><circle cx="600.00" cy="1336.00" r="3.52" fill="none" /><line x1="597.76" y1="1336.00" x2="602.24" y2="1336.00" /><line x1="600.00" y1="1333.76" x2="600.00" y2="1338.24" /><line x1="598.39" y1="1334.39" x2="601.61" y2="1337.61" /><line x1="598.39" y1="1337.61" x2="601.61" y2="1334.39" /></g>
<circle data-feature-type="pillar" cx="312.00" cy="232.00" r="3.68" fill="#4f89a8" stroke="none" />
<g data-feature-type="trap"><rect x="292.64" y="212.64" width="6.72" height="6.72" fill="none" /><line x1="292.64" y1="212.64" x2="299.36" y2="219.36" /><line x1="292.64" y1="219.36" x2="299.36" y2="212.64" /></g>
<g data-feature-type="coffin"><rect x="293.60" y="244.32" width="4.80" height="7.36" rx="0.80" ry="0.80" fill="none" /><line x1="296.00" y1="245.94" x2="296.00" y2="250.06" /></g>
<circle data-feature-type="pillar" cx="760.00" cy="600.00" r="3.68" fill="#4f89a8" stroke="none" />
<circle data-feature-type="pillar" cx="1096.00" cy="728.00" r="3.68" fill="#4f89a8" stroke="none" />
<g data-feature-type="trap"><rect x="1140.64" y="724.64" width="6.72" height="6.72" fill="none" /><line x1="1140.64" y1="724.64" x2="1147.36" y2="731.36" /><line x1="1140.64" y1="731.36" x2="1147.36" y2="724.64" /></g>
<circle data-feature-type="pillar" cx="1352.00" cy="376.00" r="3.68" fill="#4f89a8" stroke="none" />
<circle data-feature-type="pillar" cx="1352.00" cy="392.00" r="3.68" fill="#4f89a8" stroke="none" />
<g data-feature-type="statue"><circle cx="1384.00" cy="392.00" r="3.52" fill="none" /><line x1="1381.76" y1="392.00" x2="1386.24" y2="392.00" /><line x1="1384.00" y1="389.76" x2="1384.00" y2="394.24" /><line x1="1382.39" y1="390.39" x2="1385.61" y2="393.61" /><line x1="1382.39" y1="393.61" x2="1385.61" y2="390.39" /></g>
<circle data-feature-type="pillar" cx="376.00" cy="1416.00" r="3.68" fill="#4f89a8" stroke="none" />
<path data-feature-type="curtain" d="M 342.40 1395.84 Q 344.00 1398.34 342.40 1400.00 Q 344.00 1401.66 342.40 1404.16" fill="none" /><path d="M 345.60 1395.84 Q 344.00 1398.34 345.60 1400.00 Q 344.00 1401.66 345.60 1404.16" fill="none" />
<circle data-feature-type="pillar" cx="616.00" cy="424.00" r="3.68" fill="#4f89a8" stroke="none" />
<g data-feature-type="trap"><rect x="628.64" y="404.64" width="6.72" height="6.72" fill="none" /><line x1="628.64" y1="404.64" x2="635.36" y2="411.36" /><line x1="628.64" y1="411.36" x2="635.36" y2="404.64" /></g>
<circle data-feature-type="pillar" cx="88.00" cy="408.00" r="3.68" fill="#4f89a8" stroke="none" />
<circle data-feature-type="pillar" cx="136.00" cy="440.00" r="3.68" fill="#4f89a8" stroke="none" />
<circle data-feature-type="pillar" cx="136.00" cy="408.00" r="3.68" fill="#4f89a8" stroke="none" />
<g data-feature-type="altar"><rect x="133.28" y="502.40" width="5.44" height="3.20" fill="none" /><line x1="136.00" y1="501.44" x2="136.00" y2="506.56" /><line x1="134.40" y1="504.00" x2="137.60" y2="504.00" /></g>
<circle data-feature-type="pillar" cx="1144.00" cy="968.00" r="3.68" fill="#4f89a8" stroke="none" />
<circle data-feature-type="pillar" cx="1160.00" cy="1000.00" r="3.68" fill="#4f89a8" stroke="none" />
<circle data-feature-type="pillar" cx="1192.00" cy="968.00" r="3.68" fill="#4f89a8" stroke="none" />
<g data-feature-type="altar"><rect x="1173.28" y="998.40" width="5.44" height="3.20" fill="none" /><line x1="1176.00" y1="997.44" x2="1176.00" y2="1002.56" /><line x1="1174.40" y1="1000.00" x2="1177.60" y2="1000.00" /></g>
<circle data-feature-type="pillar" cx="824.00" cy="776.00" r="3.68" fill="#4f89a8" stroke="none" />
<circle data-feature-type="pillar" cx="808.00" cy="776.00" r="3.68" fill="#4f89a8" stroke="none" />
<g data-feature-type="trap"><rect x="1124.64" y="1268.64" width="6.72" height="6.72" fill="none" /><line x1="1124.64" y1="1268.64" x2="1131.36" y2="1275.36" /><line x1="1124.64" y1="1275.36" x2="1131.36" y2="1268.64" /></g>
<g data-feature-type="chest"><rect x="1157.28" y="1286.24" width="5.44" height="3.52" fill="none" /><line x1="1157.28" y1="1288.00" x2="1162.72" y2="1288.00" /><circle cx="1160.00" cy="1288.18" r="0.70" fill="#4f89a8" stroke="none" /></g>
<path data-feature-type="curtain" d="M 950.40 867.84 Q 952.00 870.34 950.40 872.00 Q 952.00 873.66 950.40 876.16" fill="none" /><path d="M 953.60 867.84 Q 952.00 870.34 953.60 872.00 Q 952.00 873.66 953.60 876.16" fill="none" />
  </g>
  <g class="thresholds">
<rect data-threshold-type="door" x="435.52" y="309.76" width="8.96" height="4.48" fill="#ffffff" stroke="#4f89a8" stroke-width="1.52" />
<rect data-threshold-type="door" x="1155.52" y="1141.76" width="8.96" height="4.48" fill="#ffffff" stroke="#4f89a8" stroke-width="1.52" />
<rect data-threshold-type="door" x="691.52" y="245.76" width="8.96" height="4.48" fill="#ffffff" stroke="#4f89a8" stroke-width="1.52" />
<rect data-threshold-type="door" x="675.52" y="853.76" width="8.96" height="4.48" fill="#ffffff" stroke="#4f89a8" stroke-width="1.52" />
<rect data-threshold-type="door" x="1267.52" y="693.76" width="8.96" height="4.48" fill="#ffffff" stroke="#4f89a8" stroke-width="1.52" />
<rect data-threshold-type="door" x="115.52" y="165.76" width="8.96" height="4.48" fill="#ffffff" stroke="#4f89a8" stroke-width="1.52" />
<g data-threshold-type="locked" stroke="#4f89a8" fill="none" stroke-width="1.52"><rect x="419.52" y="341.76" width="8.96" height="4.48" fill="#ffffff" /><circle cx="424.00" cy="340.77" r="1.61" /></g>
<rect data-threshold-type="door" x="1123.52" y="229.76" width="8.96" height="4.48" fill="#ffffff" stroke="#4f89a8" stroke-width="1.52" />
<rect data-threshold-type="door" x="307.52" y="805.76" width="8.96" height="4.48" fill="#ffffff" stroke="#4f89a8" stroke-width="1.52" />
<rect data-threshold-type="door" x="531.52" y="773.76" width="8.96" height="4.48" fill="#ffffff" stroke="#4f89a8" stroke-width="1.52" />
<rect data-threshold-type="door" x="1235.52" y="1205.76" width="8.96" height="4.48" fill="#ffffff" stroke="#4f89a8" stroke-width="1.52" />
<rect data-threshold-type="door" x="1171.52" y="149.76" width="8.96" height="4.48" fill="#ffffff" stroke="#4f89a8" stroke-width="1.52" />
<rect data-threshold-type="door" x="611.52" y="1269.76" width="8.96" height="4.48" fill="#ffffff" stroke="#4f89a8" stroke-width="1.52" />
<rect data-threshold-type="door" x="355.52" y="1333.76" width="8.96" height="4.48" fill="#ffffff" stroke="#4f89a8" stroke-width="1.52" />
<rect data-threshold-type="door" x="323.52" y="261.76" width="8.96" height="4.48" fill="#ffffff" stroke="#4f89a8" stroke-width="1.52" />
<g data-threshold-type="secret"><line x1="787.52" y1="632.00" x2="796.48" y2="632.00" stroke="#4f89a8" stroke-width="1.31" stroke-dasharray="1.31 1.31" /><text x="797.56" y="631.10" font-size="5.44" fill="#4f89a8" font-family="Courier New, monospace" font-weight="700">S</text></g>
<g data-threshold-type="locked" stroke="#4f89a8" fill="none" stroke-width="1.52"><rect x="819.52" y="1269.76" width="8.96" height="4.48" fill="#ffffff" /><circle cx="824.00" cy="1268.77" r="1.61" /></g>
<g data-threshold-type="secret"><line x1="1107.52" y1="760.00" x2="1116.48" y2="760.00" stroke="#4f89a8" stroke-width="1.31" stroke-dasharray="1.31 1.31" /><text x="1117.56" y="759.10" font-size="5.44" fill="#4f89a8" font-family="Courier New, monospace" font-weight="700">S</text></g>
<g data-threshold-type="locked" stroke="#4f89a8" fill="none" stroke-width="1.52"><rect x="1267.52" y="357.76" width="8.96" height="4.48" fill="#ffffff" /><circle cx="1272.00" cy="356.77" r="1.61" /></g>
<rect data-threshold-type="door" x="371.52" y="1365.76" width="8.96" height="4.48" fill="#ffffff" stroke="#4f89a8" stroke-width="1.52" />
<rect data-threshold-type="door" x="1027.52" y="357.76" width="8.96" height="4.48" fill="#ffffff" stroke="#4f89a8" stroke-width="1.52" />
<rect data-threshold-type="door" x="675.52" y="437.76" width="8.96" height="4.48" fill="#ffffff" stroke="#4f89a8" stroke-width="1.52" />
<g data-threshold-type="locked" stroke="#4f89a8" fill="none" stroke-width="1.52"><rect x="163.52" y="421.76" width="8.96" height="4.48" fill="#ffffff" /><circle cx="168.00" cy="420.77" r="1.61" /></g>
<rect data-threshold-type="door" x="1091.52" y="1045.76" width="8.96" height="4.48" fill="#ffffff" stroke="#4f89a8" stroke-width="1.52" />
<g data-threshold-type="locked" stroke="#4f89a8" fill="none" stroke-width="1.52"><rect x="835.52" y="869.76" width="8.96" height="4.48" fill="#ffffff" /><circle cx="840.00" cy="868.77" r="1.61" /></g>
<rect data-threshold-type="door" x="1091.52" y="1253.76" width="8.96" height="4.48" fill="#ffffff" stroke="#4f89a8" stroke-width="1.52" />
<g data-threshold-type="secret"><line x1="995.52" y1="856.00" x2="1004.48" y2="856.00" stroke="#4f89a8" stroke-width="1.31" stroke-dasharray="1.31 1.31" /><text x="1005.56" y="855.10" font-size="5.44" fill="#4f89a8" font-family="Courier New, monospace" font-weight="700">S</text></g>
  </g>
  <g class="labels">
<text x="472.00" y="265.92" text-anchor="middle">1</text>
<text x="1096.00" y="1193.92" text-anchor="middle">2</text>
<text x="776.00" y="169.92" text-anchor="middle">3</text>
<text x="648.00" y="953.92" text-anchor="middle">4</text>
<text x="1368.00" y="761.92" text-anchor="middle">5</text>
<text x="120.00" y="137.92" text-anchor="middle">6</text>
<text x="328.00" y="441.92" text-anchor="middle">7</text>
<text x="1176.00" y="217.92" text-anchor="middle">8</text>
<text x="264.00" y="809.92" text-anchor="middle">9</text>
<text x="488.00" y="777.92" text-anchor="middle">10</text>
<text x="1272.00" y="1209.92" text-anchor="middle">11</text>
<text x="1144.00" y="137.92" text-anchor="middle">12</text>
<text x="600.00" y="1353.92" text-anchor="middle">13</text>
<text x="344.00" y="1257.92" text-anchor="middle">14</text>
<text x="296.00" y="233.92" text-anchor="middle">15</text>
<text x="744.00" y="601.92" text-anchor="middle">16</text>
<text x="888.00" y="1241.92" text-anchor="middle">17</text>
<text x="1080.00" y="729.92" text-anchor="middle">18</text>
<text x="1352.00" y="361.92" text-anchor="middle">19</text>
<text x="360.00" y="1417.92" text-anchor="middle">20</text>
<text x="1080.00" y="361.92" text-anchor="middle">21</text>
<text x="600.00" y="425.92" text-anchor="middle">22</text>
<text x="120.00" y="425.92" text-anchor="middle">23</text>
<text x="1176.00" y="985.92" text-anchor="middle">24</text>
<text x="840.00" y="777.92" text-anchor="middle">25</text>
<text x="1112.00" y="1289.92" text-anchor="middle">26</text>
<text x="984.00" y="889.92" text-anchor="middle">27</text>
  </g>
</svg>