<?xml version="1.0" encoding="UTF-8"?>
<svg xmlns="http://www.w3.org/2000/svg" width="1488" height="1536" viewBox="0 0 1488.00 1536.00" role="img" aria-label="MapIR render: Learned Generated Map 1">
  <defs>
    <style>
      .grid { stroke: #cde2ec; stroke-width: 0.64; opacity: 0.72; }
      .walls { stroke: #6aa7c7; stroke-width: 1.92; fill: none; stroke-linecap: square; }
      .thresholds { fill: none; stroke-linecap: round; }
      .features { stroke: #4f89a8; fill: none; stroke-width: 1.60; stroke-linecap: round; stroke-linejoin: round; }
      .labels { fill: #4f89a8; font-size: 7.20px; font-family: "Courier New", monospace; font-weight: 600; }
    </style>
  </defs>
  <rect x="0" y="0" width="1488.00" height="1536.00" fill="#4393be" />
  <g class="floors">
<rect x="624.00" y="48.00" width="48.00" height="96.00" fill="#fcfdfe" />
<rect x="1216.00" y="112.00" width="32.00" height="176.00" fill="#fcfdfe" />
<rect x="112.00" y="128.00" width="512.00" height="16.00" fill="#fcfdfe" />
<rect x="672.00" y="128.00" width="400.00" height="16.00" fill="#fcfdfe" />
<rect x="1184.00" y="128.00" width="32.00" height="144.00" fill="#fcfdfe" />
<rect x="1248.00" y="128.00" width="32.00" height="144.00" fill="#fcfdfe" />
<rect x="112.00" y="144.00" width="16.00" height="192.00" fill="#fcfdfe" />
<rect x="512.00" y="144.00" width="16.00" height="192.00" fill="#fcfdfe" />
<rect x="624.00" y="144.00" width="16.00" height="608.00" fill="#fcfdfe" />
<rect x="1008.00" y="144.00" width="64.00" height="176.00" fill="#fcfdfe" />
<rect x="1152.00" y="144.00" width="32.00" height="112.00" fill="#fcfdfe" />
<rect x="1280.00" y="144.00" width="32.00" height="112.00" fill="#fcfdfe" />
<rect x="48.00" y="160.00" width="64.00" height="112.00" fill="#fcfdfe" />
<rect x="1072.00" y="192.00" width="80.00" height="16.00" fill="#fcfdfe" />
<rect x="1312.00" y="192.00" width="16.00" height="16.00" fill="#fcfdfe" />
<rect x="448.00" y="256.00" width="64.00" height="80.00" fill="#fcfdfe" />
<rect x="208.00" y="272.00" width="32.00" height="144.00" fill="#fcfdfe" />
<rect x="176.00" y="288.00" width="32.00" height="112.00" fill="#fcfdfe" />
<rect x="240.00" y="288.00" width="32.00" height="112.00" fill="#fcfdfe" />
<rect x="1216.00" y="288.00" width="16.00" height="896.00" fill="#fcfdfe" />
<rect x="128.00" y="320.00" width="48.00" height="16.00" fill="#fcfdfe" />
<rect x="272.00" y="320.00" width="176.00" height="16.00" fill="#fcfdfe" />
<rect x="528.00" y="320.00" width="96.00" height="16.00" fill="#fcfdfe" />
<rect x="640.00" y="320.00" width="64.00" height="16.00" fill="#fcfdfe" />
<rect x="160.00" y="336.00" width="16.00" height="32.00" fill="#fcfdfe" />
<rect x="272.00" y="336.00" width="16.00" height="32.00" fill="#fcfdfe" />
<rect x="688.00" y="336.00" width="16.00" height="256.00" fill="#fcfdfe" />
<rect x="1072.00" y="368.00" width="144.00" height="64.00" fill="#fcfdfe" />
<rect x="704.00" y="416.00" width="48.00" height="176.00" fill="#fcfdfe" />
<rect x="1232.00" y="416.00" width="16.00" height="160.00" fill="#fcfdfe" />
<rect x="1248.00" y="528.00" width="32.00" height="48.00" fill="#fcfdfe" />
<rect x="976.00" y="560.00" width="240.00" height="16.00" fill="#fcfdfe" />
<rect x="976.00" y="576.00" width="16.00" height="96.00" fill="#fcfdfe" />
<rect x="736.00" y="592.00" width="240.00" height="16.00" fill="#fcfdfe" />
<rect x="928.00" y="608.00" width="48.00" height="64.00" fill="#fcfdfe" />
<rect x="944.00" y="672.00" width="16.00" height="624.00" fill="#fcfdfe" />
<rect x="320.00" y="736.00" width="304.00" height="16.00" fill="#fcfdfe" />
<rect x="320.00" y="752.00" width="192.00" height="176.00" fill="#fcfdfe" />
<rect x="592.00" y="864.00" width="112.00" height="176.00" fill="#fcfdfe" />
<rect x="576.00" y="880.00" width="16.00" height="144.00" fill="#fcfdfe" />
<rect x="704.00" y="880.00" width="16.00" height="144.00" fill="#fcfdfe" />
<rect x="928.00" y="880.00" width="16.00" height="192.00" fill="#fcfdfe" />
<rect x="512.00" y="896.00" width="64.00" height="16.00" fill="#fcfdfe" />
<rect x="720.00" y="896.00" width="16.00" height="176.00" fill="#fcfdfe" />
<rect x="896.00" y="896.00" width="32.00" height="144.00" fill="#fcfdfe" />
<rect x="960.00" y="896.00" width="32.00" height="144.00" fill="#fcfdfe" />
<rect x="560.00" y="912.00" width="16.00" height="96.00" fill="#fcfdfe" />
<rect x="880.00" y="928.00" width="16.00" height="80.00" fill="#fcfdfe" />
<rect x="992.00" y="928.00" width="16.00" height="80.00" fill="#fcfdfe" />
<rect x="736.00" y="960.00" width="144.00" height="16.00" fill="#fcfdfe" />
<rect x="1184.00" y="1040.00" width="32.00" height="144.00" fill="#fcfdfe" />
<rect x="1232.00" y="1040.00" width="64.00" height="144.00" fill="#fcfdfe" />
<rect x="1344.00" y="1040.00" width="80.00" height="112.00" fill="#fcfdfe" />
<rect x="32.00" y="1056.00" width="208.00" height="208.00" fill="#fcfdfe" />
<rect x="736.00" y="1056.00" width="192.00" height="16.00" fill="#fcfdfe" />
<rect x="960.00" y="1056.00" width="224.00" height="16.00" fill="#fcfdfe" />
<rect x="1296.00" y="1056.00" width="48.00" height="16.00" fill="#fcfdfe" />
<rect x="1424.00" y="1056.00" width="16.00" height="80.00" fill="#fcfdfe" />
<rect x="1328.00" y="1072.00" width="16.00" height="64.00" fill="#fcfdfe" />
<rect x="1296.00" y="1104.00" width="32.00" height="16.00" fill="#fcfdfe" />
<rect x="1184.00" y="1184.00" width="16.00" height="64.00" fill="#fcfdfe" />
<rect x="240.00" y="1216.00" width="256.00" height="16.00" fill="#fcfdfe" />
<rect x="416.00" y="1232.00" width="80.00" height="192.00" fill="#fcfdfe" />
<rect x="896.00" y="1232.00" width="48.00" height="64.00" fill="#fcfdfe" />
<rect x="960.00" y="1232.00" width="224.00" height="16.00" fill="#fcfdfe" />
<rect x="960.00" y="1248.00" width="96.00" height="48.00" fill="#fcfdfe" />
<rect x="528.00" y="1264.00" width="368.00" height="16.00" fill="#fcfdfe" />
<rect x="528.00" y="1280.00" width="48.00" height="128.00" fill="#fcfdfe" />
<rect x="496.00" y="1312.00" width="32.00" height="16.00" fill="#fcfdfe" />
  </g>
  <g class="grid">
<line x1="0.00" y1="0" x2="0.00" y2="1536.00" />
<line x1="16.00" y1="0" x2="16.00" y2="1536.00" />
<line x1="32.00" y1="0" x2="32.00" y2="1536.00" />
<line x1="48.00" y1="0" x2="48.00" y2="1536.00" />
<line x1="64.00" y1="0" x2="64.00" y2="1536.00" />
<line x1="80.00" y1="0" x2="80.00" y2="1536.00" />
<line x1="96.00" y1="0" x2="96.00" y2="1536.00" />
<line x1="112.00" y1="0" x2="112.00" y2="1536.00" />
<line x1="128.00" y1="0" x2="128.00" y2="1536.00" />
<line x1="144.00" y1="0" x2="144.00" y2="1536.00" />
<line x1="160.00" y1="0" x2="160.00" y2="1536.00" />
<line x1="176.00" y1="0" x2="176.00" y2="1536.00" />
<line x1="192.00" y1="0" x2="192.00" y2="1536.00" />
<line x1="208.00" y1="0" x2="208.00" y2="1536.00" />
<line x1="224.00" y1="0" x2="224.00" y2="1536.00" />
<line x1="240.00" y1="0" x2="240.00" y2="1536.00" />
<line x1="256.00" y1="0" x2="256.00" y2="1536.00" />
<line x1="272.00" y1="0" x2="272.00" y2="1536.00" />
<line x1="288.00" y1="0" x2="288.00" y2="1536.00" />
<line x1="304.00" y1="0" x2="304.00" y2="1536.00" />
<line x1="320.00" y1="0" x2="320.00" y2="1536.00" />
<line x1="336.00" y1="0" x2="336.00" y2="1536.00" />
<line x1="352.00" y1="0" x2="352.00" y2="1536.00" />
<line x1="368.00" y1="0" x2="368.00" y2="1536.00" />
<line x1="384.00" y1="0" x2="384.00" y2="1536.00" />
<line x1="400.00" y1="0" x2="400.00" y2="1536.00" />
<line x1="416.00" y1="0" x2="416.00" y2="1536.00" />
<line x1="432.00" y1="0" x2="432.00" y2="1536.00" />
<line x1="448.00" y1="0" x2="448.00" y2="1536.00" />
<line x1="464.00" y1="0" x2="464.00" y2="1536.00" />
<line x1="480.00" y1="0" x2="480.00" y2="1536.00" />
<line x1="496.00" y1="0" x2="496.00" y2="1536.00" />
<line x1="512.00" y1="0" x2="512.00" y2="1536.00" />
<line x1="528.00" y1="0" x2="528.00" y2="1536.00" />
<line x1="544.00" y1="0" x2="544.00" y2="1536.00" />
<line x1="560.00" y1="0" x2="560.00" y2="1536.00" />
<line x1="576.00" y1="0" x2="576.00" y2="1536.00" />
<line x1="592.00" y1="0" x2="592.00" y2="1536.00" />
<line x1="608.00" y1="0" x2="608.00" y2="1536.00" />
<line x1="624.00" y1="0" x2="624.00" y2="1536.00" />
<line x1="640.00" y1="0" x2="640.00" y2="1536.00" />
<line x1="656.00" y1="0" x2="656.00" y2="1536.00" />
<line x1="672.00" y1="0" x2="672.00" y2="1536.00" />
<line x1="688.00" y1="0" x2="688.00" y2="1536.00" />
<line x1="704.00" y1="0" x2="704.00" y2="1536.00" />
<line x1="720.00" y1="0" x2="720.00" y2="1536.00" />
<line x1="736.00" y1="0" x2="736.00" y2="1536.00" />
<line x1="752.00" y1="0" x2="752.00" y2="1536.00" />
<line x1="768.00" y1="0" x2="768.00" y2="1536.00" />
<line x1="784.00" y1="0" x2="784.00" y2="1536.00" />
<line x1="800.00" y1="0" x2="800.00" y2="1536.00" />
<line x1="816.00" y1="0" x2="816.00" y2="1536.00" />
<line x1="832.00" y1="0" x2="832.00" y2="1536.00" />
<line x1="848.00" y1="0" x2="848.00" y2="1536.00" />
<line x1="864.00" y1="0" x2="864.00" y2="1536.00" />
<line x1="880.00" y1="0" x2="880.00" y2="1536.00" />
<line x1="896.00" y1="0" x2="896.00" y2="1536.00" />
<line x1="912.00" y1="0" x2="912.00" y2="1536.00" />
<line x1="928.00" y1="0" x2="928.00" y2="1536.00" />
<line x1="944.00" y1="0" x2="944.00" y2="1536.00" />
<line x1="960.00" y1="0" x2="960.00" y2="1536.00" />
<line x1="976.00" y1="0" x2="976.00" y2="1536.00" />
<line x1="992.00" y1="0" x2="992.00" y2="1536.00" />
<line x1="1008.00" y1="0" x2="1008.00" y2="1536.00" />
<line x1="1024.00" y1="0" x2="1024.00" y2="1536.00" />
<line x1="1040.00" y1="0" x2="1040.00" y2="1536.00" />
<line x1="1056.00" y1="0" x2="1056.00" y2="1536.00" />
<line x1="1072.00" y1="0" x2="1072.00" y2="1536.00" />
<line x1="1088.00" y1="0" x2="1088.00" y2="1536.00" />
<line x1="1104.00" y1="0" x2="1104.00" y2="1536.00" />
<line x1="1120.00" y1="0" x2="1120.00" y2="1536.00" />
<line x1="1136.00" y1="0" x2="1136.00" y2="1536.00" />
<line x1="1152.00" y1="0" x2="1152.00" y2="1536.00" />
<line x1="1168.00" y1="0" x2="1168.00" y2="1536.00" />
<line x1="1184.00" y1="0" x2="1184.00" y2="1536.00" />
<line x1="1200.00" y1="0" x2="1200.00" y2="1536.00" />
<line x1="1216.00" y1="0" x2="1216.00" y2="1536.00" />
<line x1="1232.00" y1="0" x2="1232.00" y2="1536.00" />
<line x1="1248.00" y1="0" x2="1248.00" y2="1536.00" />
<line x1="1264.00" y1="0" x2="1264.00" y2="1536.00" />
<line x1="1280.00" y1="0" x2="1280.00" y2="1536.00" />
<line x1="1296.00" y1="0" x2="1296.00" y2="1536.00" />
<line x1="1312.00" y1="0" x2="1312.00" y2="1536.00" />
<line x1="1328.00" y1="0" x2="1328.00" y2="1536.00" />
<line x1="1344.00" y1="0" x2="1344.00" y2="1536.00" />
<line x1="1360.00" y1="0" x2="1360.00" y2="1536.00" />
<line x1="1376.00" y1="0" x2="1376.00" y2="1536.00" />
<line x1="1392.00" y1="0" x2="1392.00" y2="1536.00" />
<line x1="1408.00" y1="0" x2="1408.00" y2="1536.00" />
<line x1="1424.00" y1="0" x2="1424.00" y2="1536.00" />
<line x1="1440.00" y1="0" x2="1440.00" y2="1536.00" />
<line x1="1456.00" y1="0" x2="1456.00" y2="1536.00" />
<line x1="1472.00" y1="0" x2="1472.00" y2="1536.00" />
<line x1="1488.00" y1="0" x2="1488.00" y2="1536.00" />
<line x1="0" y1="0.00" x2="1488.00" y2="0.00" />
<line x1="0" y1="16.00" x2="1488.00" y2="16.00" />
<line x1="0" y1="32.00" x2="1488.00" y2="32.00" />
<line x1="0" y1="48.00" x2="1488.00" y2="48.00" />
<line x1="0" y1="64.00" x2="1488.00" y2="64.00" />
<line x1="0" y1="80.00" x2="1488.00" y2="80.00" />
<line x1="0" y1="96.00" x2="1488.00" y2="96.00" />
<line x1="0" y1="112.00" x2="1488.00" y2="112.00" />
<line x1="0" y1="128.00" x2="1488.00" y2="128.00" />
<line x1="0" y1="144.00" x2="1488.00" y2="144.00" />
<line x1="0" y1="160.00" x2="1488.00" y2="160.00" />
<line x1="0" y1="176.00" x2="1488.00" y2="176.00" />
<line x1="0" y1="192.00" x2="1488.00" y2="192.00" />
<line x1="0" y1="208.00" x2="1488.00" y2="208.00" />
<line x1="0" y1="224.00" x2="1488.00" y2="224.00" />
<line x1="0" y1="240.00" x2="1488.00" y2="240.00" />
<line x1="0" y1="256.00" x2="1488.00" y2="256.00" />
<line x1="0" y1="272.00" x2="1488.00" y2="272.00" />
<line x1="0" y1="288.00" x2="1488.00" y2="288.00" />
<line x1="0" y1="304.00" x2="1488.00" y2="304.00" />
<line x1="0" y1="320.00" x2="1488.00" y2="320.00" />
<line x1="0" y1="336.00" x2="1488.00" y2="336.00" />
<line x1="0" y1="352.00" x2="1488.00" y2="352.00" />
<line x1="0" y1="368.00" x2="1488.00" y2="368.00" />
<line x1="0" y1="384.00" x2="1488.00" y2="384.00" />
<line x1="0" y1="400.00" x2="1488.00" y2="400.00" />
<line x1="0" y1="416.00" x2="1488.00" y2="416.00" />
<line x1="0" y1="432.00" x2="1488.00" y2="432.00" />
<line x1="0" y1="448.00" x2="1488.00" y2="448.00" />
<line x1="0" y1="464.00" x2="1488.00" y2="464.00" />
<line x1="0" y1="480.00" x2="1488.00" y2="480.00" />
<line x1="0" y1="496.00" x2="1488.00" y2="496.00" />
<line x1="0" y1="512.00" x2="1488.00" y2="512.00" />
<line x1="0" y1="528.00" x2="1488.00" y2="528.00" />
<line x1="0" y1="544.00" x2="1488.00" y2="544.00" />
<line x1="0" y1="560.00" x2="1488.00" y2="560.00" />
<line x1="0" y1="576.00" x2="1488.00" y2="576.00" />
<line x1="0" y1="592.00" x2="1488.00" y2="592.00" />
<line x1="0" y1="608.00" x2="1488.00" y2="608.00" />
<line x1="0" y1="624.00" x2="1488.00" y2="624.00" />
<line x1="0" y1="640.00" x2="1488.00" y2="640.00" />
<line x1="0" y1="656.00" x2="1488.00" y2="656.00" />
<line x1="0" y1="672.00" x2="1488.00" y2="672.00" />
<line x1="0" y1="688.00" x2="1488.00" y2="688.00" />
<line x1="0" y1="704.00" x2="1488.00" y2="704.00" />
<line x1="0" y1="720.00" x2="1488.00" y2="720.00" />
<line x1="0" y1="736.00" x2="1488.00" y2="736.00" />
<line x1="0" y1="752.00" x2="1488.00" y2="752.00" />
<line x1="0" y1="768.00" x2="1488.00" y2="768.00" />
<line x1="0" y1="784.00" x2="1488.00" y2="784.00" />
<line x1="0" y1="800.00" x2="1488.00" y2="800.00" />
<line x1="0" y1="816.00" x2="1488.00" y2="816.00" />
<line x1="0" y1="832.00" x2="1488.00" y2="832.00" />
<line x1="0" y1="848.00" x2="1488.00" y2="848.00" />
<line x1="0" y1="864.00" x2="1488.00" y2="864.00" />
<line x1="0" y1="880.00" x2="1488.00" y2="880.00" />
<line x1="0" y1="896.00" x2="1488.00" y2="896.00" />
<line x1="0" y1="912.00" x2="1488.00" y2="912.00" />
<line x1="0" y1="928.00" x2="1488.00" y2="928.00" />
<line x1="0" y1="944.00" x2="1488.00" y2="944.00" />
<line x1="0" y1="960.00" x2="1488.00" y2="960.00" />
<line x1="0" y1="976.00" x2="1488.00" y2="976.00" />
<line x1="0" y1="992.00" x2="1488.00" y2="992.00" />
<line x1="0" y1="1008.00" x2="1488.00" y2="1008.00" />
<line x1="0" y1="1024.00" x2="1488.00" y2="1024.00" />
<line x1="0" y1="1040.00" x2="1488.00" y2="1040.00" />
<line x1="0" y1="1056.00" x2="1488.00" y2="1056.00" />
<line x1="0" y1="1072.00" x2="1488.00" y2="1072.00" />
<line x1="0" y1="1088.00" x2="1488.00" y2="1088.00" />
<line x1="0" y1="1104.00" x2="1488.00" y2="1104.00" />
<line x1="0" y1="1120.00" x2="1488.00" y2="1120.00" />
<line x1="0" y1="1136.00" x2="1488.00" y2="1136.00" />
<line x1="0" y1="1152.00" x2="1488.00" y2="1152.00" />
<line x1="0" y1="1168.00" x2="1488.00" y2="1168.00" />
<line x1="0" y1="1184.00" x2="1488.00" y2="1184.00" />
<line x1="0" y1="1200.00" x2="1488.00" y2="1200.00" />
<line x1="0" y1="1216.00" x2="1488.00" y2="1216.00" />
<line x1="0" y1="1232.00" x2="1488.00" y2="1232.00" />
<line x1="0" y1="1248.00" x2="1488.00" y2="1248.00" />
<line x1="0" y1="1264.00" x2="1488.00" y2="1264.00" />
<line x1="0" y1="1280.00" x2="1488.00" y2="1280.00" />
<line x1="0" y1="1296.00" x2="1488.00" y2="1296.00" />
<line x1="0" y1="1312.00" x2="1488.00" y2="1312.00" />
<line x1="0" y1="1328.00" x2="1488.00" y2="1328.00" />
<line x1="0" y1="1344.00" x2="1488.00" y2="1344.00" />
<line x1="0" y1="1360.00" x2="1488.00" y2="1360.00" />
<line x1="0" y1="1376.00" x2="1488.00" y2="1376.00" />
<line x1="0" y1="1392.00" x2="1488.00" y2="1392.00" />
<line x1="0" y1="1408.00" x2="1488.00" y2="1408.00" />
<line x1="0" y1="1424.00" x2="1488.00" y2="1424.00" />
<line x1="0" y1="1440.00" x2="1488.00" y2="1440.00" />
<line x1="0" y1="1456.00" x2="1488.00" y2="1456.00" />
<line x1="0" y1="1472.00" x2="1488.00" y2="1472.00" />
<line x1="0" y1="1488.00" x2="1488.00" y2="1488.00" />
<line x1="0" y1="1504.00" x2="1488.00" y2="1504.00" />
<line x1="0" y1="1520.00" x2="1488.00" y2="1520.00" />
<line x1="0" y1="1536.00" x2="1488.00" y2="1536.00" />
  </g>
  <g class="walls">
<line x1="624.00" y1="48.00" x2="672.00" y2="48.00" />
<line x1="1216.00" y1="112.00" x2="1248.00" y2="112.00" />
<line x1="112.00" y1="128.00" x2="624.00" y2="128.00" />
<line x1="672.00" y1="128.00" x2="1072.00" y2="128.00" />
<line x1="1184.00" y1="128.00" x2="1216.00" y2="128.00" />
<line x1="1248.00" y1="128.00" x2="1280.00" y2="128.00" />
<line x1="128.00" y1="144.00" x2="512.00" y2="144.00" />
<line x1="528.00" y1="144.00" x2="624.00" y2="144.00" />
<line x1="640.00" y1="144.00" x2="1008.00" y2="144.00" />
<line x1="1152.00" y1="144.00" x2="1184.00" y2="144.00" />
<line x1="1280.00" y1="144.00" x2="1312.00" y2="144.00" />
<line x1="48.00" y1="160.00" x2="112.00" y2="160.00" />
<line x1="1072.00" y1="192.00" x2="1152.00" y2="192.00" />
<line x1="1312.00" y1="192.00" x2="1328.00" y2="192.00" />
<line x1="1072.00" y1="208.00" x2="1152.00" y2="208.00" />
<line x1="1312.00" y1="208.00" x2="1328.00" y2="208.00" />
<line x1="448.00" y1="256.00" x2="512.00" y2="256.00" />
<line x1="1152.00" y1="256.00" x2="1184.00" y2="256.00" />
<line x1="1280.00" y1="256.00" x2="1312.00" y2="256.00" />
<line x1="48.00" y1="272.00" x2="112.00" y2="272.00" />
<line x1="208.00" y1="272.00" x2="240.00" y2="272.00" />
<line x1="1184.00" y1="272.00" x2="1216.00" y2="272.00" />
<line x1="1248.00" y1="272.00" x2="1280.00" y2="272.00" />
<line x1="176.00" y1="288.00" x2="208.00" y2="288.00" />
<line x1="240.00" y1="288.00" x2="272.00" y2="288.00" />
<line x1="1232.00" y1="288.00" x2="1248.00" y2="288.00" />
<line x1="128.00" y1="320.00" x2="176.00" y2="320.00" />
<line x1="272.00" y1="320.00" x2="448.00" y2="320.00" />
<line x1="528.00" y1="320.00" x2="624.00" y2="320.00" />
<line x1="640.00" y1="320.00" x2="704.00" y2="320.00" />
<line x1="1008.00" y1="320.00" x2="1072.00" y2="320.00" />
<line x1="112.00" y1="336.00" x2="160.00" y2="336.00" />
<line x1="288.00" y1="336.00" x2="624.00" y2="336.00" />
<line x1="640.00" y1="336.00" x2="688.00" y2="336.00" />
<line x1="160.00" y1="368.00" x2="176.00" y2="368.00" />
<line x1="272.00" y1="368.00" x2="288.00" y2="368.00" />
<line x1="1072.00" y1="368.00" x2="1216.00" y2="368.00" />
<line x1="176.00" y1="400.00" x2="208.00" y2="400.00" />
<line x1="240.00" y1="400.00" x2="272.00" y2="400.00" />
<line x1="208.00" y1="416.00" x2="240.00" y2="416.00" />
<line x1="704.00" y1="416.00" x2="752.00" y2="416.00" />
<line x1="1232.00" y1="416.00" x2="1248.00" y2="416.00" />
<line x1="1072.00" y1="432.00" x2="1216.00" y2="432.00" />
<line x1="1248.00" y1="528.00" x2="1280.00" y2="528.00" />
<line x1="976.00" y1="560.00" x2="1216.00" y2="560.00" />
<line x1="992.00" y1="576.00" x2="1216.00" y2="576.00" />
<line x1="1232.00" y1="576.00" x2="1280.00" y2="576.00" />
<line x1="688.00" y1="592.00" x2="736.00" y2="592.00" />
<line x1="752.00" y1="592.00" x2="976.00" y2="592.00" />
<line x1="736.00" y1="608.00" x2="928.00" y2="608.00" />
<line x1="928.00" y1="672.00" x2="944.00" y2="672.00" />
<line x1="960.00" y1="672.00" x2="992.00" y2="672.00" />
<line x1="320.00" y1="736.00" x2="624.00" y2="736.00" />
<line x1="512.00" y1="752.00" x2="640.00" y2="752.00" />
<line x1="592.00" y1="864.00" x2="704.00" y2="864.00" />
<line x1="576.00" y1="880.00" x2="592.00" y2="880.00" />
<line x1="704.00" y1="880.00" x2="720.00" y2="880.00" />
<line x1="928.00" y1="880.00" x2="944.00" y2="880.00" />
<line x1="512.00" y1="896.00" x2="576.00" y2="896.00" />
<line x1="720.00" y1="896.00" x2="736.00" y2="896.00" />
<line x1="896.00" y1="896.00" x2="928.00" y2="896.00" />
<line x1="960.00" y1="896.00" x2="992.00" y2="896.00" />
<line x1="512.00" y1="912.00" x2="560.00" y2="912.00" />
<line x1="320.00" y1="928.00" x2="512.00" y2="928.00" />
<line x1="880.00" y1="928.00" x2="896.00" y2="928.00" />
<line x1="992.00" y1="928.00" x2="1008.00" y2="928.00" />
<line x1="736.00" y1="960.00" x2="880.00" y2="960.00" />
<line x1="736.00" y1="976.00" x2="880.00" y2="976.00" />
<line x1="560.00" y1="1008.00" x2="576.00" y2="1008.00" />
<line x1="880.00" y1="1008.00" x2="896.00" y2="1008.00" />
<line x1="992.00" y1="1008.00" x2="1008.00" y2="1008.00" />
<line x1="576.00" y1="1024.00" x2="592.00" y2="1024.00" />
<line x1="704.00" y1="1024.00" x2="720.00" y2="1024.00" />
<line x1="592.00" y1="1040.00" x2="704.00" y2="1040.00" />
<line x1="896.00" y1="1040.00" x2="928.00" y2="1040.00" />
<line x1="960.00" y1="1040.00" x2="992.00" y2="1040.00" />
<line x1="1184.00" y1="1040.00" x2="1216.00" y2="1040.00" />
<line x1="1232.00" y1="1040.00" x2="1296.00" y2="1040.00" />
<line x1="1344.00" y1="1040.00" x2="1424.00" y2="1040.00" />
<line x1="32.00" y1="1056.00" x2="240.00" y2="1056.00" />
<line x1="736.00" y1="1056.00" x2="928.00" y2="1056.00" />
<line x1="960.00" y1="1056.00" x2="1184.00" y2="1056.00" />
<line x1="1296.00" y1="1056.00" x2="1344.00" y2="1056.00" />
<line x1="1424.00" y1="1056.00" x2="1440.00" y2="1056.00" />
<line x1="720.00" y1="1072.00" x2="944.00" y2="1072.00" />
<line x1="960.00" y1="1072.00" x2="1184.00" y2="1072.00" />
<line x1="1296.00" y1="1072.00" x2="1328.00" y2="1072.00" />
<line x1="1296.00" y1="1104.00" x2="1328.00" y2="1104.00" />
<line x1="1296.00" y1="1120.00" x2="1328.00" y2="1120.00" />
<line x1="1328.00" y1="1136.00" x2="1344.00" y2="1136.00" />
<line x1="1424.00" y1="1136.00" x2="1440.00" y2="1136.00" />
<line x1="1344.00" y1="1152.00" x2="1424.00" y2="1152.00" />
<line x1="1200.00" y1="1184.00" x2="1296.00" y2="1184.00" />
<line x1="240.00" y1="1216.00" x2="496.00" y2="1216.00" />
<line x1="240.00" y1="1232.00" x2="416.00" y2="1232.00" />
<line x1="896.00" y1="1232.00" x2="944.00" y2="1232.00" />
<line x1="960.00" y1="1232.00" x2="1184.00" y2="1232.00" />
<line x1="1056.00" y1="1248.00" x2="1200.00" y2="1248.00" />
<line x1="32.00" y1="1264.00" x2="240.00" y2="1264.00" />
<line x1="528.00" y1="1264.00" x2="896.00" y2="1264.00" />
<line x1="576.00" y1="1280.00" x2="896.00" y2="1280.00" />
<line x1="896.00" y1="1296.00" x2="1056.00" y2="1296.00" />
<line x1="496.00" y1="1312.00" x2="528.00" y2="1312.00" />
<line x1="496.00" y1="1328.00" x2="528.00" y2="1328.00" />
<line x1="528.00" y1="1408.00" x2="576.00" y2="1408.00" />
<line x1="416.00" y1="1424.00" x2="496.00" y2="1424.00" />
<line x1="624.00" y1="48.00" x2="624.00" y2="128.00" />
<line x1="624.00" y1="144.00" x2="624.00" y2="320.00" />
<line x1="624.00" y1="336.00" x2="624.00" y2="736.00" />
<line x1="672.00" y1="48.00" x2="672.00" y2="128.00" />
<line x1="1216.00" y1="112.00" x2="1216.00" y2="128.00" />
<line x1="1216.00" y1="272.00" x2="1216.00" y2="368.00" />
<line x1="1216.00" y1="432.00" x2="1216.00" y2="560.00" />
<line x1="1216.00" y1="576.00" x2="1216.00" y2="1040.00" />
<line x1="1248.00" y1="112.00" x2="1248.00" y2="128.00" />
<line x1="1248.00" y1="272.00" x2="1248.00" y2="288.00" />
<line x1="1248.00" y1="416.00" x2="1248.00" y2="528.00" />
<line x1="112.00" y1="128.00" x2="112.00" y2="160.00" />
<line x1="112.00" y1="272.00" x2="112.00" y2="336.00" />
<line x1="1072.00" y1="128.00" x2="1072.00" y2="192.00" />
<line x1="1072.00" y1="208.00" x2="1072.00" y2="320.00" />
<line x1="1072.00" y1="368.00" x2="1072.00" y2="432.00" />
<line x1="1184.00" y1="128.00" x2="1184.00" y2="144.00" />
<line x1="1184.00" y1="256.00" x2="1184.00" y2="272.00" />
<line x1="1184.00" y1="1040.00" x2="1184.00" y2="1056.00" />
<line x1="1184.00" y1="1072.00" x2="1184.00" y2="1232.00" />
<line x1="1280.00" y1="128.00" x2="1280.00" y2="144.00" />
<line x1="1280.00" y1="256.00" x2="1280.00" y2="272.00" />
<line x1="1280.00" y1="528.00" x2="1280.00" y2="576.00" />
<line x1="128.00" y1="144.00" x2="128.00" y2="320.00" />
<line x1="512.00" y1="144.00" x2="512.00" y2="256.00" />
<line x1="512.00" y1="752.00" x2="512.00" y2="896.00" />
<line x1="512.00" y1="912.00" x2="512.00" y2="928.00" />
<line x1="528.00" y1="144.00" x2="528.00" y2="320.00" />
<line x1="528.00" y1="1264.00" x2="528.00" y2="1312.00" />
<line x1="528.00" y1="1328.00" x2="528.00" y2="1408.00" />
<line x1="640.00" y1="144.00" x2="640.00" y2="320.00" />
<line x1="640.00" y1="336.00" x2="640.00" y2="752.00" />
<line x1="1008.00" y1="144.00" x2="1008.00" y2="320.00" />
<line x1="1008.00" y1="928.00" x2="1008.00" y2="1008.00" />
<line x1="1152.00" y1="144.00" x2="1152.00" y2="192.00" />
<line x1="1152.00" y1="208.00" x2="1152.00" y2="256.00" />
<line x1="1312.00" y1="144.00" x2="1312.00" y2="192.00" />
<line x1="1312.00" y1="208.00" x2="1312.00" y2="256.00" />
<line x1="48.00" y1="160.00" x2="48.00" y2="272.00" />
<line x1="1328.00" y1="192.00" x2="1328.00" y2="208.00" />
<line x1="1328.00" y1="1072.00" x2="1328.00" y2="1104.00" />
<line x1="1328.00" y1="1120.00" x2="1328.00" y2="1136.00" />
<line x1="448.00" y1="256.00" x2="448.00" y2="320.00" />
<line x1="208.00" y1="272.00" x2="208.00" y2="288.00" />
<line x1="208.00" y1="400.00" x2="208.00" y2="416.00" />
<line x1="240.00" y1="272.00" x2="240.00" y2="288.00" />
<line x1="240.00" y1="400.00" x2="240.00" y2="416.00" />
<line x1="240.00" y1="1056.00" x2="240.00" y2="1216.00" />
<line x1="240.00" y1="1232.00" x2="240.00" y2="1264.00" />
<line x1="176.00" y1="288.00" x2="176.00" y2="320.00" />
<line x1="176.00" y1="368.00" x2="176.00" y2="400.00" />
<line x1="272.00" y1="288.00" x2="272.00" y2="320.00" />
<line x1="272.00" y1="368.00" x2="272.00" y2="400.00" />
<line x1="1232.00" y1="288.00" x2="1232.00" y2="416.00" />
<line x1="1232.00" y1="576.00" x2="1232.00" y2="1040.00" />
<line x1="704.00" y1="320.00" x2="704.00" y2="416.00" />
<line x1="704.00" y1="864.00" x2="704.00" y2="880.00" />
<line x1="704.00" y1="1024.00" x2="704.00" y2="1040.00" />
<line x1="160.00" y1="336.00" x2="160.00" y2="368.00" />
<line x1="288.00" y1="336.00" x2="288.00" y2="368.00" />
<line x1="688.00" y1="336.00" x2="688.00" y2="592.00" />
<line x1="752.00" y1="416.00" x2="752.00" y2="592.00" />
<line x1="976.00" y1="560.00" x2="976.00" y2="592.00" />
<line x1="992.00" y1="576.00" x2="992.00" y2="672.00" />
<line x1="992.00" y1="896.00" x2="992.00" y2="928.00" />
<line x1="992.00" y1="1008.00" x2="992.00" y2="1040.00" />
<line x1="736.00" y1="592.00" x2="736.00" y2="608.00" />
<line x1="736.00" y1="896.00" x2="736.00" y2="960.00" />
<line x1="736.00" y1="976.00" x2="736.00" y2="1056.00" />
<line x1="928.00" y1="608.00" x2="928.00" y2="672.00" />
<line x1="928.00" y1="880.00" x2="928.00" y2="896.00" />
<line x1="928.00" y1="1040.00" x2="928.00" y2="1056.00" />
<line x1="944.00" y1="672.00" x2="944.00" y2="880.00" />
<line x1="944.00" y1="1072.00" x2="944.00" y2="1232.00" />
<line x1="960.00" y1="672.00" x2="960.00" y2="896.00" />
<line x1="960.00" y1="1040.00" x2="960.00" y2="1056.00" />
<line x1="960.00" y1="1072.00" x2="960.00" y2="1232.00" />
<line x1="320.00" y1="736.00" x2="320.00" y2="928.00" />
<line x1="592.00" y1="864.00" x2="592.00" y2="880.00" />
<line x1="592.00" y1="1024.00" x2="592.00" y2="1040.00" />
<line x1="576.00" y1="880.00" x2="576.00" y2="896.00" />
<line x1="576.00" y1="1008.00" x2="576.00" y2="1024.00" />
<line x1="576.00" y1="1280.00" x2="576.00" y2="1408.00" />
<line x1="720.00" y1="880.00" x2="720.00" y2="896.00" />
<line x1="720.00" y1="1024.00" x2="720.00" y2="1072.00" />
<line x1="896.00" y1="896.00" x2="896.00" y2="928.00" />
<line x1="896.00" y1="1008.00" x2="896.00" y2="1040.00" />
<line x1="896.00" y1="1232.00" x2="896.00" y2="1264.00" />
<line x1="896.00" y1="1280.00" x2="896.00" y2="1296.00" />
<line x1="560.00" y1="912.00" x2="560.00" y2="1008.00" />
<line x1="880.00" y1="928.00" x2="880.00" y2="960.00" />
<line x1="880.00" y1="976.00" x2="880.00" y2="1008.00" />
<line x1="1296.00" y1="1040.00" x2="1296.00" y2="1056.00" />
<line x1="1296.00" y1="1072.00" x2="1296.00" y2="1104.00" />
<line x1="1296.00" y1="1120.00" x2="1296.00" y2="1184.00" />
<line x1="1344.00" y1="1040.00" x2="1344.00" y2="1056.00" />
<line x1="1344.00" y1="1136.00" x2="1344.00" y2="1152.00" />
<line x1="1424.00" y1="1040.00" x2="1424.00" y2="1056.00" />
<line x1="1424.00" y1="1136.00" x2="1424.00" y2="1152.00" />
<line x1="32.00" y1="1056.00" x2="32.00" y2="1264.00" />
<line x1="1440.00" y1="1056.00" x2="1440.00" y2="1136.00" />
<line x1="1200.00" y1="1184.00" x2="1200.00" y2="1248.00" />
<line x1="496.00" y1="1216.00" x2="496.00" y2="1312.00" />
<line x1="496.00" y1="1328.00" x2="496.00" y2="1424.00" />
<line x1="416.00" y1="1232.00" x2="416.00" y2="1424.00" />
<line x1="1056.00" y1="1248.00" x2="1056.00" y2="1296.00" />
  </g>
  <g class="features">
<g data-feature-type="stairsDown"><line data-feature-type="stairsDown" x1="130.24" y1="1171.36" x2="141.76" y2="1171.36" /><line x1="130.65" y1="1173.68" x2="141.35" y2="1173.68" /><line x1="131.07" y1="1176.00" x2="140.93" y2="1176.00" /><line x1="131.48" y1="1178.32" x2="140.52" y2="1178.32" /><line x1="131.90" y1="1180.64" x2="140.10" y2="1180.64" /></g>
<g data-feature-type="stairsUp"><line data-feature-type="stairsUp" x1="403.90" y1="835.36" x2="412.10" y2="835.36" /><line x1="403.48" y1="837.68" x2="412.52" y2="837.68" /><line x1="403.07" y1="840.00" x2="412.93" y2="840.00" /><line x1="402.65" y1="842.32" x2="413.35" y2="842.32" /><line x1="402.24" y1="844.64" x2="413.76" y2="844.64" /></g>
<circle data-feature-type="pillar" cx="568.00" cy="1336.00" r="3.68" fill="#4f89a8" stroke="none" />
<g data-feature-type="trap"><rect x="548.64" y="1348.64" width="6.72" height="6.72" fill="none" /><line x1="548.64" y1="1348.64" x2="555.36" y2="1355.36" /><line x1="548.64" y1="1355.36" x2="555.36" y2="1348.64" /></g>
<g data-feature-type="chest"><rect x="549.28" y="1302.24" width="5.44" height="3.52" fill="none" /><line x1="549.28" y1="1304.00" x2="554.72" y2="1304.00" /><circle cx="552.00" cy="1304.18" r="0.70" fill="#4f89a8" stroke="none" /></g>
<circle data-feature-type="pillar" cx="232.00" cy="360.00" r="3.68" fill="#4f89a8" stroke="none" />
<circle data-feature-type="pillar" cx="232.00" cy="328.00" r="3.68" fill="#4f89a8" stroke="none" />
<circle data-feature-type="pillar" cx="168.00" cy="1144.00" r="3.68" fill="#4f89a8" stroke="none" />
<circle data-feature-type="pillar" cx="104.00" cy="1144.00" r="3.68" fill="#4f89a8" stroke="none" />
<circle data-feature-type="pillar" cx="104.00" cy="1176.00" r="3.68" fill="#4f89a8" stroke="none" />
<circle data-feature-type="pillar" cx="168.00" cy="1176.00" r="3.68" fill="#4f89a8" stroke="none" />
<g data-feature-type="trap"><rect x="132.64" y="1236.64" width="6.72" height="6.72" fill="none" /><line x1="132.64" y1="1236.64" x2="139.36" y2="1243.36" /><line x1="132.64" y1="1243.36" x2="139.36" y2="1236.64" /></g>
<circle data-feature-type="pillar" cx="744.00" cy="504.00" r="3.68" fill="#4f89a8" stroke="none" />
<circle data-feature-type="pillar" cx="1000.00" cy="1272.00" r="3.68" fill="#4f89a8" stroke="none" />
<g data-feature-type="statue"><circle cx="648.00" cy="920.00" r="3.52" fill="none" /><line x1="645.76" y1="920.00" x2="650.24" y2="920.00" /><line x1="648.00" y1="917.76" x2="648.00" y2="922.24" /><line x1="646.39" y1="918.39" x2="649.61" y2="921.61" /><line x1="646.39" y1="921.61" x2="649.61" y2="918.39" /></g>
<g data-feature-type="trap"><rect x="692.64" y="1012.64" width="6.72" height="6.72" fill="none" /><line x1="692.64" y1="1012.64" x2="699.36" y2="1019.36" /><line x1="692.64" y1="1019.36" x2="699.36" y2="1012.64" /></g>
<circle data-feature-type="pillar" cx="104.00" cy="216.00" r="3.68" fill="#4f89a8" stroke="none" />
<g data-feature-type="statue"><circle cx="72.00" cy="216.00" r="3.52" fill="none" /><line x1="69.76" y1="216.00" x2="74.24" y2="216.00" /><line x1="72.00" y1="213.76" x2="72.00" y2="218.24" /><line x1="70.39" y1="214.39" x2="73.61" y2="217.61" /><line x1="70.39" y1="217.61" x2="73.61" y2="214.39" /></g>
<circle data-feature-type="pillar" cx="1272.00" cy="1112.00" r="3.68" fill="#4f89a8" stroke="none" />
<circle data-feature-type="pillar" cx="1208.00" cy="1112.00" r="3.68" fill="#4f89a8" stroke="none" />
<circle data-feature-type="pillar" cx="1176.00" cy="408.00" r="3.68" fill="#4f89a8" stroke="none" />
<circle data-feature-type="pillar" cx="920.00" cy="952.00" r="3.68" fill="#4f89a8" stroke="none" />
<circle data-feature-type="pillar" cx="984.00" cy="984.00" r="3.68" fill="#4f89a8" stroke="none" />
<circle data-feature-type="pillar" cx="936.00" cy="984.00" r="3.68" fill="#4f89a8" stroke="none" />
<g data-feature-type="trap"><rect x="964.64" y="916.64" width="6.72" height="6.72" fill="none" /><line x1="964.64" y1="916.64" x2="971.36" y2="923.36" /><line x1="964.64" y1="923.36" x2="971.36" y2="916.64" /></g>
<circle data-feature-type="pillar" cx="424.00" cy="1320.00" r="3.68" fill="#4f89a8" stroke="none" />
<circle data-feature-type="pillar" cx="472.00" cy="1320.00" r="3.68" fill="#4f89a8" stroke="none" />
<g data-feature-type="well"><circle cx="440.00" cy="1272.00" r="4.00" fill="none" /><circle cx="440.00" cy="1272.00" r="2.24" fill="none" /></g>
<circle data-feature-type="pillar" cx="1048.00" cy="216.00" r="3.68" fill="#4f89a8" stroke="none" />
<circle data-feature-type="pillar" cx="1048.00" cy="264.00" r="3.68" fill="#4f89a8" stroke="none" />
<circle data-feature-type="pillar" cx="440.00" cy="840.00" r="3.68" fill="#4f89a8" stroke="none" />
<g data-feature-type="statue"><circle cx="488.00" cy="888.00" r="3.52" fill="none" /><line x1="485.76" y1="888.00" x2="490.24" y2="888.00" /><line x1="488.00" y1="885.76" x2="488.00" y2="890.24" /><line x1="486.39" y1="886.39" x2="489.61" y2="889.61" /><line x1="486.39" y1="889.61" x2="489.61" y2="886.39" /></g>
<circle data-feature-type="pillar" cx="1224.00" cy="184.00" r="3.68" fill="#4f89a8" stroke="none" />
<circle data-feature-type="pillar" cx="1272.00" cy="216.00" r="3.68" fill="#4f89a8" stroke="none" />
<circle data-feature-type="pillar" cx="1208.00" cy="184.00" r="3.68" fill="#4f89a8" stroke="none" />
<circle data-feature-type="pillar" cx="1208.00" cy="216.00" r="3.68" fill="#4f89a8" stroke="none" />
<path data-feature-type="curtain" d="M 1270.40 259.84 Q 1272.00 262.34 1270.40 264.00 Q 1272.00 265.66 1270.40 268.16" fill="none" /><path d="M 1273.60 259.84 Q 1272.00 262.34 1273.60 264.00 Q 1272.00 265.66 1273.60 268.16" fill="none" />
<circle data-feature-type="pillar" cx="1384.00" cy="1112.00" r="3.68" fill="#4f89a8" stroke="none" />
<circle data-feature-type="pillar" cx="1384.00" cy="1128.00" r="3.68" fill="#4f89a8" stroke="none" />
<circle data-feature-type="pillar" cx="504.00" cy="296.00" r="3.68" fill="#4f89a8" stroke="none" />
<g data-feature-type="chest"><rect x="949.28" y="646.24" width="5.44" height="3.52" fill="none" /><line x1="949.28" y1="648.00" x2="954.72" y2="648.00" /><circle cx="952.00" cy="648.18" r="0.70" fill="#4f89a8" stroke="none" /></g>
  </g>
  <g class="thresholds">
<rect data-threshold-type="door" x="563.52" y="1269.76" width="8.96" height="4.48" fill="#ffffff" stroke="#4f89a8" stroke-width="1.52" />
<g data-threshold-type="secret"><line x1="163.52" y1="328.00" x2="172.48" y2="328.00" stroke="#4f89a8" stroke-width="1.31" stroke-dasharray="1.31 1.31" /><text x="173.56" y="327.10" font-size="5.44" fill="#4f89a8" font-family="Courier New, monospace" font-weight="700">S</text></g>
<g data-threshold-type="locked" stroke="#4f89a8" fill="none" stroke-width="1.52"><rect x="227.52" y="1221.76" width="8.96" height="4.48" fill="#ffffff" /><circle cx="232.00" cy="1220.77" r="1.61" /></g>
<rect data-threshold-type="door" x="691.52" y="421.76" width="8.96" height="4.48" fill="#ffffff" stroke="#4f89a8" stroke-width="1.52" />
<rect data-threshold-type="door" x="947.52" y="1237.76" width="8.96" height="4.48" fill="#ffffff" stroke="#4f89a8" stroke-width="1.52" />
<rect data-threshold-type="door" x="723.52" y="1029.76" width="8.96" height="4.48" fill="#ffffff" stroke="#4f89a8" stroke-width="1.52" />
<rect data-threshold-type="door" x="115.52" y="261.76" width="8.96" height="4.48" fill="#ffffff" stroke="#4f89a8" stroke-width="1.52" />
<g data-threshold-type="locked" stroke="#4f89a8" fill="none" stroke-width="1.52"><rect x="1219.52" y="1045.76" width="8.96" height="4.48" fill="#ffffff" /><circle cx="1224.00" cy="1044.77" r="1.61" /></g>
<rect data-threshold-type="door" x="1219.52" y="421.76" width="8.96" height="4.48" fill="#ffffff" stroke="#4f89a8" stroke-width="1.52" />
<g data-threshold-type="locked" stroke="#4f89a8" fill="none" stroke-width="1.52"><rect x="931.52" y="1045.76" width="8.96" height="4.48" fill="#ffffff" /><circle cx="936.00" cy="1044.77" r="1.61" /></g>
<rect data-threshold-type="door" x="659.52" y="133.76" width="8.96" height="4.48" fill="#ffffff" stroke="#4f89a8" stroke-width="1.52" />
<rect data-threshold-type="door" x="483.52" y="1317.76" width="8.96" height="4.48" fill="#ffffff" stroke="#4f89a8" stroke-width="1.52" />
<rect data-threshold-type="door" x="1011.52" y="133.76" width="8.96" height="4.48" fill="#ffffff" stroke="#4f89a8" stroke-width="1.52" />
<rect data-threshold-type="door" x="499.52" y="901.76" width="8.96" height="4.48" fill="#ffffff" stroke="#4f89a8" stroke-width="1.52" />
<g data-threshold-type="locked" stroke="#4f89a8" fill="none" stroke-width="1.52"><rect x="1219.52" y="277.76" width="8.96" height="4.48" fill="#ffffff" /><circle cx="1224.00" cy="276.77" r="1.61" /></g>
<rect data-threshold-type="door" x="1331.52" y="1109.76" width="8.96" height="4.48" fill="#ffffff" stroke="#4f89a8" stroke-width="1.52" />
<g data-threshold-type="secret"><line x1="515.52" y1="328.00" x2="524.48" y2="328.00" stroke="#4f89a8" stroke-width="1.31" stroke-dasharray="1.31 1.31" /><text x="525.56" y="327.10" font-size="5.44" fill="#4f89a8" font-family="Courier New, monospace" font-weight="700">S</text></g>
<rect data-threshold-type="door" x="931.52" y="597.76" width="8.96" height="4.48" fill="#ffffff" stroke="#4f89a8" stroke-width="1.52" />
<rect data-threshold-type="door" x="1235.52" y="533.76" width="8.96" height="4.48" fill="#ffffff" stroke="#4f89a8" stroke-width="1.52" />
  </g>
  <g class="labels">
<text x="552.00" y="1337.92" text-anchor="middle">1</text>
<text x="232.00" y="345.92" text-anchor="middle">2</text>
<text x="136.00" y="1161.92" text-anchor="middle">3</text>
<text x="728.00" y="505.92" text-anchor="middle">4</text>
<text x="984.00" y="1273.92" text-anchor="middle">5</text>
<text x="648.00" y="953.92" text-anchor="middle">6</text>
<text x="88.00" y="217.92" text-anchor="middle">7</text>
<text x="1240.00" y="1113.92" text-anchor="middle">8</text>
<text x="1160.00" y="409.92" text-anchor="middle">9</text>
<text x="952.00" y="969.92" text-anchor="middle">10</text>
<text x="648.00" y="105.92" text-anchor="middle">11</text>
<text x="456.00" y="1321.92" text-anchor="middle">12</text>
<text x="1048.00" y="233.92" text-anchor="middle">13</text>
<text x="424.00" y="841.92" text-anchor="middle">14</text>
<text x="1240.00" y="201.92" text-anchor="middle">15</text>
<text x="1384.00" y="1097.92" text-anchor="middle">16</text>
<text x="488.00" y="297.92" text-anchor="middle">17</text>
<text x="968.00" y="633.92" text-anchor="middle">18</text>
<text x="1256.00" y="553.92" text-anchor="middle">19</text>
  </g>
</svg>