<?xml version="1.0" encoding="UTF-8"?>
<svg xmlns="http://www.w3.org/2000/svg" width="1488" height="1536" viewBox="0 0 1488.00 1536.00" role="img" aria-label="MapIR render: Learned Generated Map 1">
  <defs>
    <style>
      .grid { stroke: #d7e7ef; stroke-width: 0.64; opacity: 0.72; }
      .walls { stroke: #6fa8c1; stroke-width: 1.92; fill: none; stroke-linecap: square; }
      .thresholds { fill: none; stroke-linecap: round; }
      .features { stroke: #5c92ab; fill: none; stroke-width: 1.60; stroke-linecap: round; stroke-linejoin: round; }
      .labels { fill: #5c92ab; font-size: 7.20px; font-family: "Courier New", monospace; font-weight: 600; }
    </style>
  </defs>
  <rect x="0" y="0" width="1488.00" height="1536.00" fill="#5d9fbc" />
  <g class="floors">
<rect x="624.00" y="64.00" width="160.00" height="208.00" fill="#fbfdfe" />
<rect x="320.00" y="80.00" width="192.00" height="144.00" fill="#fbfdfe" />
<rect x="544.00" y="112.00" width="48.00" height="96.00" fill="#fbfdfe" />
<rect x="800.00" y="112.00" width="144.00" height="176.00" fill="#fbfdfe" />
<rect x="512.00" y="144.00" width="32.00" height="32.00" fill="#fbfdfe" />
<rect x="592.00" y="144.00" width="32.00" height="32.00" fill="#fbfdfe" />
<rect x="784.00" y="144.00" width="16.00" height="32.00" fill="#fbfdfe" />
<rect x="944.00" y="144.00" width="240.00" height="16.00" fill="#fbfdfe" />
<rect x="256.00" y="160.00" width="64.00" height="16.00" fill="#fbfdfe" />
<rect x="944.00" y="160.00" width="16.00" height="1104.00" fill="#fbfdfe" />
<rect x="1168.00" y="160.00" width="32.00" height="16.00" fill="#fbfdfe" />
<rect x="256.00" y="176.00" width="16.00" height="192.00" fill="#fbfdfe" />
<rect x="592.00" y="176.00" width="16.00" height="1232.00" fill="#fbfdfe" />
<rect x="1184.00" y="176.00" width="32.00" height="16.00" fill="#fbfdfe" />
<rect x="1200.00" y="192.00" width="64.00" height="64.00" fill="#fbfdfe" />
<rect x="608.00" y="208.00" width="16.00" height="16.00" fill="#fbfdfe" />
<rect x="384.00" y="224.00" width="16.00" height="704.00" fill="#fbfdfe" />
<rect x="464.00" y="224.00" width="48.00" height="16.00" fill="#fbfdfe" />
<rect x="496.00" y="240.00" width="16.00" height="32.00" fill="#fbfdfe" />
<rect x="512.00" y="256.00" width="16.00" height="32.00" fill="#fbfdfe" />
<rect x="1216.00" y="256.00" width="32.00" height="624.00" fill="#fbfdfe" />
<rect x="528.00" y="272.00" width="16.00" height="32.00" fill="#fbfdfe" />
<rect x="672.00" y="272.00" width="32.00" height="32.00" fill="#fbfdfe" />
<rect x="960.00" y="272.00" width="16.00" height="144.00" fill="#fbfdfe" />
<rect x="544.00" y="288.00" width="32.00" height="16.00" fill="#fbfdfe" />
<rect x="160.00" y="304.00" width="96.00" height="64.00" fill="#fbfdfe" />
<rect x="272.00" y="304.00" width="96.00" height="64.00" fill="#fbfdfe" />
<rect x="560.00" y="304.00" width="16.00" height="32.00" fill="#fbfdfe" />
<rect x="688.00" y="304.00" width="32.00" height="32.00" fill="#fbfdfe" />
<rect x="896.00" y="304.00" width="48.00" height="112.00" fill="#fbfdfe" />
<rect x="976.00" y="304.00" width="16.00" height="112.00" fill="#fbfdfe" />
<rect x="1184.00" y="304.00" width="32.00" height="160.00" fill="#fbfdfe" />
<rect x="1248.00" y="304.00" width="112.00" height="160.00" fill="#fbfdfe" />
<rect x="80.00" y="320.00" width="48.00" height="160.00" fill="#fbfdfe" />
<rect x="576.00" y="320.00" width="16.00" height="32.00" fill="#fbfdfe" />
<rect x="720.00" y="320.00" width="16.00" height="32.00" fill="#fbfdfe" />
<rect x="992.00" y="320.00" width="16.00" height="32.00" fill="#fbfdfe" />
<rect x="688.00" y="336.00" width="16.00" height="800.00" fill="#fbfdfe" />
<rect x="736.00" y="336.00" width="16.00" height="32.00" fill="#fbfdfe" />
<rect x="1008.00" y="336.00" width="16.00" height="32.00" fill="#fbfdfe" />
<rect x="608.00" y="352.00" width="32.00" height="16.00" fill="#fbfdfe" />
<rect x="752.00" y="352.00" width="16.00" height="32.00" fill="#fbfdfe" />
<rect x="1024.00" y="352.00" width="32.00" height="16.00" fill="#fbfdfe" />
<rect x="224.00" y="368.00" width="32.00" height="16.00" fill="#fbfdfe" />
<rect x="624.00" y="368.00" width="32.00" height="16.00" fill="#fbfdfe" />
<rect x="768.00" y="368.00" width="32.00" height="16.00" fill="#fbfdfe" />
<rect x="1040.00" y="368.00" width="16.00" height="48.00" fill="#fbfdfe" />
<rect x="208.00" y="384.00" width="32.00" height="32.00" fill="#fbfdfe" />
<rect x="640.00" y="384.00" width="16.00" height="32.00" fill="#fbfdfe" />
<rect x="784.00" y="384.00" width="32.00" height="32.00" fill="#fbfdfe" />
<rect x="1056.00" y="384.00" width="16.00" height="32.00" fill="#fbfdfe" />
<rect x="128.00" y="400.00" width="80.00" height="16.00" fill="#fbfdfe" />
<rect x="240.00" y="400.00" width="144.00" height="16.00" fill="#fbfdfe" />
<rect x="400.00" y="400.00" width="192.00" height="16.00" fill="#fbfdfe" />
<rect x="608.00" y="400.00" width="32.00" height="16.00" fill="#fbfdfe" />
<rect x="656.00" y="400.00" width="32.00" height="32.00" fill="#fbfdfe" />
<rect x="704.00" y="400.00" width="80.00" height="16.00" fill="#fbfdfe" />
<rect x="816.00" y="400.00" width="80.00" height="16.00" fill="#fbfdfe" />
<rect x="992.00" y="400.00" width="48.00" height="16.00" fill="#fbfdfe" />
<rect x="1072.00" y="400.00" width="112.00" height="16.00" fill="#fbfdfe" />
<rect x="176.00" y="416.00" width="32.00" height="16.00" fill="#fbfdfe" />
<rect x="704.00" y="416.00" width="16.00" height="160.00" fill="#fbfdfe" />
<rect x="800.00" y="416.00" width="48.00" height="16.00" fill="#fbfdfe" />
<rect x="1088.00" y="416.00" width="16.00" height="32.00" fill="#fbfdfe" />
<rect x="144.00" y="432.00" width="48.00" height="16.00" fill="#fbfdfe" />
<rect x="672.00" y="432.00" width="16.00" height="144.00" fill="#fbfdfe" />
<rect x="832.00" y="432.00" width="16.00" height="32.00" fill="#fbfdfe" />
<rect x="1104.00" y="432.00" width="32.00" height="16.00" fill="#fbfdfe" />
<rect x="128.00" y="448.00" width="32.00" height="16.00" fill="#fbfdfe" />
<rect x="720.00" y="448.00" width="16.00" height="64.00" fill="#fbfdfe" />
<rect x="848.00" y="448.00" width="16.00" height="960.00" fill="#fbfdfe" />
<rect x="1120.00" y="448.00" width="16.00" height="32.00" fill="#fbfdfe" />
<rect x="128.00" y="464.00" width="16.00" height="16.00" fill="#fbfdfe" />
<rect x="1136.00" y="464.00" width="16.00" height="96.00" fill="#fbfdfe" />
<rect x="1264.00" y="464.00" width="16.00" height="800.00" fill="#fbfdfe" />
<rect x="96.00" y="480.00" width="32.00" height="32.00" fill="#fbfdfe" />
<rect x="736.00" y="480.00" width="16.00" height="32.00" fill="#fbfdfe" />
<rect x="1152.00" y="480.00" width="16.00" height="32.00" fill="#fbfdfe" />
<rect x="752.00" y="496.00" width="96.00" height="16.00" fill="#fbfdfe" />
<rect x="864.00" y="496.00" width="80.00" height="16.00" fill="#fbfdfe" />
<rect x="960.00" y="496.00" width="176.00" height="16.00" fill="#fbfdfe" />
<rect x="1168.00" y="496.00" width="32.00" height="32.00" fill="#fbfdfe" />
<rect x="80.00" y="512.00" width="32.00" height="224.00" fill="#fbfdfe" />
<rect x="320.00" y="512.00" width="48.00" height="224.00" fill="#fbfdfe" />
<rect x="768.00" y="512.00" width="16.00" height="32.00" fill="#fbfdfe" />
<rect x="1040.00" y="512.00" width="96.00" height="48.00" fill="#fbfdfe" />
<rect x="1200.00" y="512.00" width="16.00" height="48.00" fill="#fbfdfe" />
<rect x="288.00" y="528.00" width="32.00" height="176.00" fill="#fbfdfe" />
<rect x="368.00" y="528.00" width="16.00" height="176.00" fill="#fbfdfe" />
<rect x="784.00" y="528.00" width="16.00" height="32.00" fill="#fbfdfe" />
<rect x="272.00" y="544.00" width="16.00" height="144.00" fill="#fbfdfe" />
<rect x="400.00" y="544.00" width="16.00" height="144.00" fill="#fbfdfe" />
<rect x="800.00" y="544.00" width="16.00" height="32.00" fill="#fbfdfe" />
<rect x="816.00" y="560.00" width="32.00" height="128.00" fill="#fbfdfe" />
<rect x="1088.00" y="560.00" width="16.00" height="640.00" fill="#fbfdfe" />
<rect x="256.00" y="576.00" width="16.00" height="80.00" fill="#fbfdfe" />
<rect x="416.00" y="576.00" width="16.00" height="80.00" fill="#fbfdfe" />
<rect x="864.00" y="576.00" width="80.00" height="112.00" fill="#fbfdfe" />
<rect x="1248.00" y="576.00" width="16.00" height="16.00" fill="#fbfdfe" />
<rect x="1280.00" y="592.00" width="16.00" height="48.00" fill="#fbfdfe" />
<rect x="432.00" y="608.00" width="160.00" height="16.00" fill="#fbfdfe" />
<rect x="608.00" y="608.00" width="80.00" height="16.00" fill="#fbfdfe" />
<rect x="704.00" y="608.00" width="112.00" height="16.00" fill="#fbfdfe" />
<rect x="960.00" y="608.00" width="128.00" height="16.00" fill="#fbfdfe" />
<rect x="1104.00" y="608.00" width="112.00" height="16.00" fill="#fbfdfe" />
<rect x="1296.00" y="624.00" width="16.00" height="32.00" fill="#fbfdfe" />
<rect x="1360.00" y="624.00" width="80.00" height="208.00" fill="#fbfdfe" />
<rect x="1312.00" y="640.00" width="16.00" height="32.00" fill="#fbfdfe" />
<rect x="1328.00" y="656.00" width="32.00" height="16.00" fill="#fbfdfe" />
<rect x="1344.00" y="672.00" width="16.00" height="32.00" fill="#fbfdfe" />
<rect x="112.00" y="720.00" width="208.00" height="16.00" fill="#fbfdfe" />
<rect x="368.00" y="720.00" width="16.00" height="16.00" fill="#fbfdfe" />
<rect x="400.00" y="720.00" width="192.00" height="16.00" fill="#fbfdfe" />
<rect x="608.00" y="720.00" width="80.00" height="16.00" fill="#fbfdfe" />
<rect x="704.00" y="720.00" width="144.00" height="16.00" fill="#fbfdfe" />
<rect x="864.00" y="720.00" width="80.00" height="16.00" fill="#fbfdfe" />
<rect x="960.00" y="720.00" width="128.00" height="16.00" fill="#fbfdfe" />
<rect x="1104.00" y="720.00" width="112.00" height="16.00" fill="#fbfdfe" />
<rect x="1248.00" y="720.00" width="16.00" height="16.00" fill="#fbfdfe" />
<rect x="1280.00" y="720.00" width="80.00" height="16.00" fill="#fbfdfe" />
<rect x="80.00" y="736.00" width="16.00" height="768.00" fill="#fbfdfe" />
<rect x="336.00" y="736.00" width="16.00" height="32.00" fill="#fbfdfe" />
<rect x="656.00" y="736.00" width="32.00" height="16.00" fill="#fbfdfe" />
<rect x="1184.00" y="736.00" width="32.00" height="144.00" fill="#fbfdfe" />
<rect x="1280.00" y="736.00" width="32.00" height="16.00" fill="#fbfdfe" />
<rect x="320.00" y="752.00" width="16.00" height="48.00" fill="#fbfdfe" />
<rect x="640.00" y="752.00" width="32.00" height="16.00" fill="#fbfdfe" />
<rect x="640.00" y="768.00" width="16.00" height="32.00" fill="#fbfdfe" />
<rect x="1248.00" y="768.00" width="16.00" height="32.00" fill="#fbfdfe" />
<rect x="304.00" y="784.00" width="16.00" height="32.00" fill="#fbfdfe" />
<rect x="608.00" y="784.00" width="32.00" height="16.00" fill="#fbfdfe" />
<rect x="704.00" y="784.00" width="32.00" height="16.00" fill="#fbfdfe" />
<rect x="288.00" y="800.00" width="16.00" height="32.00" fill="#fbfdfe" />
<rect x="608.00" y="800.00" width="16.00" height="32.00" fill="#fbfdfe" />
<rect x="720.00" y="800.00" width="32.00" height="16.00" fill="#fbfdfe" />
<rect x="1104.00" y="800.00" width="80.00" height="16.00" fill="#fbfdfe" />
<rect x="272.00" y="816.00" width="16.00" height="32.00" fill="#fbfdfe" />
<rect x="736.00" y="816.00" width="32.00" height="16.00" fill="#fbfdfe" />
<rect x="256.00" y="832.00" width="16.00" height="32.00" fill="#fbfdfe" />
<rect x="336.00" y="832.00" width="48.00" height="96.00" fill="#fbfdfe" />
<rect x="400.00" y="832.00" width="48.00" height="96.00" fill="#fbfdfe" />
<rect x="576.00" y="832.00" width="16.00" height="32.00" fill="#fbfdfe" />
<rect x="752.00" y="832.00" width="32.00" height="16.00" fill="#fbfdfe" />
<rect x="224.00" y="848.00" width="32.00" height="16.00" fill="#fbfdfe" />
<rect x="560.00" y="848.00" width="16.00" height="32.00" fill="#fbfdfe" />
<rect x="768.00" y="848.00" width="16.00" height="32.00" fill="#fbfdfe" />
<rect x="224.00" y="864.00" width="16.00" height="32.00" fill="#fbfdfe" />
<rect x="544.00" y="864.00" width="16.00" height="32.00" fill="#fbfdfe" />
<rect x="784.00" y="864.00" width="64.00" height="16.00" fill="#fbfdfe" />
<rect x="864.00" y="864.00" width="16.00" height="144.00" fill="#fbfdfe" />
<rect x="192.00" y="880.00" width="32.00" height="32.00" fill="#fbfdfe" />
<rect x="240.00" y="880.00" width="96.00" height="16.00" fill="#fbfdfe" />
<rect x="512.00" y="880.00" width="32.00" height="16.00" fill="#fbfdfe" />
<rect x="800.00" y="880.00" width="48.00" height="32.00" fill="#fbfdfe" />
<rect x="1216.00" y="880.00" width="16.00" height="384.00" fill="#fbfdfe" />
<rect x="32.00" y="896.00" width="48.00" height="160.00" fill="#fbfdfe" />
<rect x="96.00" y="896.00" width="96.00" height="160.00" fill="#fbfdfe" />
<rect x="496.00" y="896.00" width="32.00" height="16.00" fill="#fbfdfe" />
<rect x="192.00" y="912.00" width="16.00" height="16.00" fill="#fbfdfe" />
<rect x="480.00" y="912.00" width="32.00" height="16.00" fill="#fbfdfe" />
<rect x="816.00" y="912.00" width="32.00" height="96.00" fill="#fbfdfe" />
<rect x="464.00" y="928.00" width="32.00" height="16.00" fill="#fbfdfe" />
<rect x="464.00" y="944.00" width="16.00" height="48.00" fill="#fbfdfe" />
<rect x="336.00" y="960.00" width="48.00" height="208.00" fill="#fbfdfe" />
<rect x="448.00" y="960.00" width="16.00" height="32.00" fill="#fbfdfe" />
<rect x="192.00" y="976.00" width="144.00" height="16.00" fill="#fbfdfe" />
<rect x="384.00" y="976.00" width="64.00" height="16.00" fill="#fbfdfe" />
<rect x="480.00" y="976.00" width="112.00" height="16.00" fill="#fbfdfe" />
<rect x="608.00" y="976.00" width="16.00" height="32.00" fill="#fbfdfe" />
<rect x="416.00" y="992.00" width="16.00" height="32.00" fill="#fbfdfe" />
<rect x="624.00" y="992.00" width="16.00" height="32.00" fill="#fbfdfe" />
<rect x="384.00" y="1008.00" width="32.00" height="16.00" fill="#fbfdfe" />
<rect x="640.00" y="1008.00" width="16.00" height="32.00" fill="#fbfdfe" />
<rect x="960.00" y="1008.00" width="128.00" height="80.00" fill="#fbfdfe" />
<rect x="1104.00" y="1008.00" width="64.00" height="80.00" fill="#fbfdfe" />
<rect x="384.00" y="1024.00" width="16.00" height="16.00" fill="#fbfdfe" />
<rect x="656.00" y="1024.00" width="16.00" height="144.00" fill="#fbfdfe" />
<rect x="672.00" y="1040.00" width="16.00" height="32.00" fill="#fbfdfe" />
<rect x="864.00" y="1040.00" width="80.00" height="32.00" fill="#fbfdfe" />
<rect x="384.00" y="1056.00" width="208.00" height="16.00" fill="#fbfdfe" />
<rect x="608.00" y="1056.00" width="48.00" height="112.00" fill="#fbfdfe" />
<rect x="704.00" y="1056.00" width="144.00" height="16.00" fill="#fbfdfe" />
<rect x="704.00" y="1072.00" width="32.00" height="16.00" fill="#fbfdfe" />
<rect x="720.00" y="1088.00" width="16.00" height="32.00" fill="#fbfdfe" />
<rect x="736.00" y="1104.00" width="32.00" height="16.00" fill="#fbfdfe" />
<rect x="1120.00" y="1104.00" width="96.00" height="160.00" fill="#fbfdfe" />
<rect x="1232.00" y="1104.00" width="32.00" height="160.00" fill="#fbfdfe" />
<rect x="1280.00" y="1104.00" width="32.00" height="160.00" fill="#fbfdfe" />
<rect x="672.00" y="1120.00" width="16.00" height="16.00" fill="#fbfdfe" />
<rect x="752.00" y="1120.00" width="16.00" height="32.00" fill="#fbfdfe" />
<rect x="768.00" y="1136.00" width="16.00" height="32.00" fill="#fbfdfe" />
<rect x="784.00" y="1152.00" width="16.00" height="48.00" fill="#fbfdfe" />
<rect x="896.00" y="1152.00" width="48.00" height="112.00" fill="#fbfdfe" />
<rect x="960.00" y="1152.00" width="32.00" height="112.00" fill="#fbfdfe" />
<rect x="352.00" y="1168.00" width="16.00" height="272.00" fill="#fbfdfe" />
<rect x="640.00" y="1168.00" width="16.00" height="32.00" fill="#fbfdfe" />
<rect x="800.00" y="1168.00" width="16.00" height="32.00" fill="#fbfdfe" />
<rect x="1072.00" y="1168.00" width="16.00" height="32.00" fill="#fbfdfe" />
<rect x="656.00" y="1184.00" width="128.00" height="16.00" fill="#fbfdfe" />
<rect x="816.00" y="1184.00" width="32.00" height="32.00" fill="#fbfdfe" />
<rect x="864.00" y="1184.00" width="32.00" height="16.00" fill="#fbfdfe" />
<rect x="992.00" y="1184.00" width="80.00" height="16.00" fill="#fbfdfe" />
<rect x="1104.00" y="1184.00" width="16.00" height="16.00" fill="#fbfdfe" />
<rect x="544.00" y="1200.00" width="48.00" height="208.00" fill="#fbfdfe" />
<rect x="608.00" y="1200.00" width="32.00" height="208.00" fill="#fbfdfe" />
<rect x="1040.00" y="1200.00" width="32.00" height="16.00" fill="#fbfdfe" />
<rect x="832.00" y="1216.00" width="16.00" height="16.00" fill="#fbfdfe" />
<rect x="864.00" y="1216.00" width="16.00" height="32.00" fill="#fbfdfe" />
<rect x="1024.00" y="1216.00" width="32.00" height="16.00" fill="#fbfdfe" />
<rect x="880.00" y="1232.00" width="16.00" height="32.00" fill="#fbfdfe" />
<rect x="1024.00" y="1232.00" width="16.00" height="32.00" fill="#fbfdfe" />
<rect x="1008.00" y="1248.00" width="16.00" height="32.00" fill="#fbfdfe" />
<rect x="896.00" y="1264.00" width="16.00" height="32.00" fill="#fbfdfe" />
<rect x="976.00" y="1264.00" width="32.00" height="16.00" fill="#fbfdfe" />
<rect x="912.00" y="1280.00" width="32.00" height="16.00" fill="#fbfdfe" />
<rect x="976.00" y="1280.00" width="16.00" height="32.00" fill="#fbfdfe" />
<rect x="928.00" y="1296.00" width="16.00" height="48.00" fill="#fbfdfe" />
<rect x="960.00" y="1296.00" width="16.00" height="64.00" fill="#fbfdfe" />
<rect x="944.00" y="1312.00" width="16.00" height="32.00" fill="#fbfdfe" />
<rect x="912.00" y="1328.00" width="16.00" height="80.00" fill="#fbfdfe" />
<rect x="864.00" y="1344.00" width="48.00" height="64.00" fill="#fbfdfe" />
<rect x="976.00" y="1344.00" width="32.00" height="16.00" fill="#fbfdfe" />
<rect x="32.00" y="1360.00" width="48.00" height="144.00" fill="#fbfdfe" />
<rect x="96.00" y="1360.00" width="32.00" height="144.00" fill="#fbfdfe" />
<rect x="992.00" y="1360.00" width="16.00" height="32.00" fill="#fbfdfe" />
<rect x="1008.00" y="1376.00" width="32.00" height="16.00" fill="#fbfdfe" />
<rect x="1024.00" y="1392.00" width="16.00" height="64.00" fill="#fbfdfe" />
<rect x="1008.00" y="1408.00" width="16.00" height="48.00" fill="#fbfdfe" />
<rect x="1040.00" y="1408.00" width="64.00" height="48.00" fill="#fbfdfe" />
<rect x="128.00" y="1424.00" width="224.00" height="16.00" fill="#fbfdfe" />
  </g>
  <g class="grid">
<line x1="0.00" y1="0" x2="0.00" y2="1536.00" />
<line x1="16.00" y1="0" x2="16.00" y2="1536.00" />
<line x1="32.00" y1="0" x2="32.00" y2="1536.00" />
<line x1="48.00" y1="0" x2="48.00" y2="1536.00" />
<line x1="64.00" y1="0" x2="64.00" y2="1536.00" />
<line x1="80.00" y1="0" x2="80.00" y2="1536.00" />
<line x1="96.00" y1="0" x2="96.00" y2="1536.00" />
<line x1="112.00" y1="0" x2="112.00" y2="1536.00" />
<line x1="128.00" y1="0" x2="128.00" y2="1536.00" />
<line x1="144.00" y1="0" x2="144.00" y2="1536.00" />
<line x1="160.00" y1="0" x2="160.00" y2="1536.00" />
<line x1="176.00" y1="0" x2="176.00" y2="1536.00" />
<line x1="192.00" y1="0" x2="192.00" y2="1536.00" />
<line x1="208.00" y1="0" x2="208.00" y2="1536.00" />
<line x1="224.00" y1="0" x2="224.00" y2="1536.00" />
<line x1="240.00" y1="0" x2="240.00" y2="1536.00" />
<line x1="256.00" y1="0" x2="256.00" y2="1536.00" />
<line x1="272.00" y1="0" x2="272.00" y2="1536.00" />
<line x1="288.00" y1="0" x2="288.00" y2="1536.00" />
<line x1="304.00" y1="0" x2="304.00" y2="1536.00" />
<line x1="320.00" y1="0" x2="320.00" y2="1536.00" />
<line x1="336.00" y1="0" x2="336.00" y2="1536.00" />
<line x1="352.00" y1="0" x2="352.00" y2="1536.00" />
<line x1="368.00" y1="0" x2="368.00" y2="1536.00" />
<line x1="384.00" y1="0" x2="384.00" y2="1536.00" />
<line x1="400.00" y1="0" x2="400.00" y2="1536.00" />
<line x1="416.00" y1="0" x2="416.00" y2="1536.00" />
<line x1="432.00" y1="0" x2="432.00" y2="1536.00" />
<line x1="448.00" y1="0" x2="448.00" y2="1536.00" />
<line x1="464.00" y1="0" x2="464.00" y2="1536.00" />
<line x1="480.00" y1="0" x2="480.00" y2="1536.00" />
<line x1="496.00" y1="0" x2="496.00" y2="1536.00" />
<line x1="512.00" y1="0" x2="512.00" y2="1536.00" />
<line x1="528.00" y1="0" x2="528.00" y2="1536.00" />
<line x1="544.00" y1="0" x2="544.00" y2="1536.00" />
<line x1="560.00" y1="0" x2="560.00" y2="1536.00" />
<line x1="576.00" y1="0" x2="576.00" y2="1536.00" />
<line x1="592.00" y1="0" x2="592.00" y2="1536.00" />
<line x1="608.00" y1="0" x2="608.00" y2="1536.00" />
<line x1="624.00" y1="0" x2="624.00" y2="1536.00" />
<line x1="640.00" y1="0" x2="640.00" y2="1536.00" />
<line x1="656.00" y1="0" x2="656.00" y2="1536.00" />
<line x1="672.00" y1="0" x2="672.00" y2="1536.00" />
<line x1="688.00" y1="0" x2="688.00" y2="1536.00" />
<line x1="704.00" y1="0" x2="704.00" y2="1536.00" />
<line x1="720.00" y1="0" x2="720.00" y2="1536.00" />
<line x1="736.00" y1="0" x2="736.00" y2="1536.00" />
<line x1="752.00" y1="0" x2="752.00" y2="1536.00" />
<line x1="768.00" y1="0" x2="768.00" y2="1536.00" />
<line x1="784.00" y1="0" x2="784.00" y2="1536.00" />
<line x1="800.00" y1="0" x2="800.00" y2="1536.00" />
<line x1="816.00" y1="0" x2="816.00" y2="1536.00" />
<line x1="832.00" y1="0" x2="832.00" y2="1536.00" />
<line x1="848.00" y1="0" x2="848.00" y2="1536.00" />
<line x1="864.00" y1="0" x2="864.00" y2="1536.00" />
<line x1="880.00" y1="0" x2="880.00" y2="1536.00" />
<line x1="896.00" y1="0" x2="896.00" y2="1536.00" />
<line x1="912.00" y1="0" x2="912.00" y2="1536.00" />
<line x1="928.00" y1="0" x2="928.00" y2="1536.00" />
<line x1="944.00" y1="0" x2="944.00" y2="1536.00" />
<line x1="960.00" y1="0" x2="960.00" y2="1536.00" />
<line x1="976.00" y1="0" x2="976.00" y2="1536.00" />
<line x1="992.00" y1="0" x2="992.00" y2="1536.00" />
<line x1="1008.00" y1="0" x2="1008.00" y2="1536.00" />
<line x1="1024.00" y1="0" x2="1024.00" y2="1536.00" />
<line x1="1040.00" y1="0" x2="1040.00" y2="1536.00" />
<line x1="1056.00" y1="0" x2="1056.00" y2="1536.00" />
<line x1="1072.00" y1="0" x2="1072.00" y2="1536.00" />
<line x1="1088.00" y1="0" x2="1088.00" y2="1536.00" />
<line x1="1104.00" y1="0" x2="1104.00" y2="1536.00" />
<line x1="1120.00" y1="0" x2="1120.00" y2="1536.00" />
<line x1="1136.00" y1="0" x2="1136.00" y2="1536.00" />
<line x1="1152.00" y1="0" x2="1152.00" y2="1536.00" />
<line x1="1168.00" y1="0" x2="1168.00" y2="1536.00" />
<line x1="1184.00" y1="0" x2="1184.00" y2="1536.00" />
<line x1="1200.00" y1="0" x2="1200.00" y2="1536.00" />
<line x1="1216.00" y1="0" x2="1216.00" y2="1536.00" />
<line x1="1232.00" y1="0" x2="1232.00" y2="1536.00" />
<line x1="1248.00" y1="0" x2="1248.00" y2="1536.00" />
<line x1="1264.00" y1="0" x2="1264.00" y2="1536.00" />
<line x1="1280.00" y1="0" x2="1280.00" y2="1536.00" />
<line x1="1296.00" y1="0" x2="1296.00" y2="1536.00" />
<line x1="1312.00" y1="0" x2="1312.00" y2="1536.00" />
<line x1="1328.00" y1="0" x2="1328.00" y2="1536.00" />
<line x1="1344.00" y1="0" x2="1344.00" y2="1536.00" />
<line x1="1360.00" y1="0" x2="1360.00" y2="1536.00" />
<line x1="1376.00" y1="0" x2="1376.00" y2="1536.00" />
<line x1="1392.00" y1="0" x2="1392.00" y2="1536.00" />
<line x1="1408.00" y1="0" x2="1408.00" y2="1536.00" />
<line x1="1424.00" y1="0" x2="1424.00" y2="1536.00" />
<line x1="1440.00" y1="0" x2="1440.00" y2="1536.00" />
<line x1="1456.00" y1="0" x2="1456.00" y2="1536.00" />
<line x1="1472.00" y1="0" x2="1472.00" y2="1536.00" />
<line x1="1488.00" y1="0" x2="1488.00" y2="1536.00" />
<line x1="0" y1="0.00" x2="1488.00" y2="0.00" />
<line x1="0" y1="16.00" x2="1488.00" y2="16.00" />
<line x1="0" y1="32.00" x2="1488.00" y2="32.00" />
<line x1="0" y1="48.00" x2="1488.00" y2="48.00" />
<line x1="0" y1="64.00" x2="1488.00" y2="64.00" />
<line x1="0" y1="80.00" x2="1488.00" y2="80.00" />
<line x1="0" y1="96.00" x2="1488.00" y2="96.00" />
<line x1="0" y1="112.00" x2="1488.00" y2="112.00" />
<line x1="0" y1="128.00" x2="1488.00" y2="128.00" />
<line x1="0" y1="144.00" x2="1488.00" y2="144.00" />
<line x1="0" y1="160.00" x2="1488.00" y2="160.00" />
<line x1="0" y1="176.00" x2="1488.00" y2="176.00" />
<line x1="0" y1="192.00" x2="1488.00" y2="192.00" />
<line x1="0" y1="208.00" x2="1488.00" y2="208.00" />
<line x1="0" y1="224.00" x2="1488.00" y2="224.00" />
<line x1="0" y1="240.00" x2="1488.00" y2="240.00" />
<line x1="0" y1="256.00" x2="1488.00" y2="256.00" />
<line x1="0" y1="272.00" x2="1488.00" y2="272.00" />
<line x1="0" y1="288.00" x2="1488.00" y2="288.00" />
<line x1="0" y1="304.00" x2="1488.00" y2="304.00" />
<line x1="0" y1="320.00" x2="1488.00" y2="320.00" />
<line x1="0" y1="336.00" x2="1488.00" y2="336.00" />
<line x1="0" y1="352.00" x2="1488.00" y2="352.00" />
<line x1="0" y1="368.00" x2="1488.00" y2="368.00" />
<line x1="0" y1="384.00" x2="1488.00" y2="384.00" />
<line x1="0" y1="400.00" x2="1488.00" y2="400.00" />
<line x1="0" y1="416.00" x2="1488.00" y2="416.00" />
<line x1="0" y1="432.00" x2="1488.00" y2="432.00" />
<line x1="0" y1="448.00" x2="1488.00" y2="448.00" />
<line x1="0" y1="464.00" x2="1488.00" y2="464.00" />
<line x1="0" y1="480.00" x2="1488.00" y2="480.00" />
<line x1="0" y1="496.00" x2="1488.00" y2="496.00" />
<line x1="0" y1="512.00" x2="1488.00" y2="512.00" />
<line x1="0" y1="528.00" x2="1488.00" y2="528.00" />
<line x1="0" y1="544.00" x2="1488.00" y2="544.00" />
<line x1="0" y1="560.00" x2="1488.00" y2="560.00" />
<line x1="0" y1="576.00" x2="1488.00" y2="576.00" />
<line x1="0" y1="592.00" x2="1488.00" y2="592.00" />
<line x1="0" y1="608.00" x2="1488.00" y2="608.00" />
<line x1="0" y1="624.00" x2="1488.00" y2="624.00" />
<line x1="0" y1="640.00" x2="1488.00" y2="640.00" />
<line x1="0" y1="656.00" x2="1488.00" y2="656.00" />
<line x1="0" y1="672.00" x2="1488.00" y2="672.00" />
<line x1="0" y1="688.00" x2="1488.00" y2="688.00" />
<line x1="0" y1="704.00" x2="1488.00" y2="704.00" />
<line x1="0" y1="720.00" x2="1488.00" y2="720.00" />
<line x1="0" y1="736.00" x2="1488.00" y2="736.00" />
<line x1="0" y1="752.00" x2="1488.00" y2="752.00" />
<line x1="0" y1="768.00" x2="1488.00" y2="768.00" />
<line x1="0" y1="784.00" x2="1488.00" y2="784.00" />
<line x1="0" y1="800.00" x2="1488.00" y2="800.00" />
<line x1="0" y1="816.00" x2="1488.00" y2="816.00" />
<line x1="0" y1="832.00" x2="1488.00" y2="832.00" />
<line x1="0" y1="848.00" x2="1488.00" y2="848.00" />
<line x1="0" y1="864.00" x2="1488.00" y2="864.00" />
<line x1="0" y1="880.00" x2="1488.00" y2="880.00" />
<line x1="0" y1="896.00" x2="1488.00" y2="896.00" />
<line x1="0" y1="912.00" x2="1488.00" y2="912.00" />
<line x1="0" y1="928.00" x2="1488.00" y2="928.00" />
<line x1="0" y1="944.00" x2="1488.00" y2="944.00" />
<line x1="0" y1="960.00" x2="1488.00" y2="960.00" />
<line x1="0" y1="976.00" x2="1488.00" y2="976.00" />
<line x1="0" y1="992.00" x2="1488.00" y2="992.00" />
<line x1="0" y1="1008.00" x2="1488.00" y2="1008.00" />
<line x1="0" y1="1024.00" x2="1488.00" y2="1024.00" />
<line x1="0" y1="1040.00" x2="1488.00" y2="1040.00" />
<line x1="0" y1="1056.00" x2="1488.00" y2="1056.00" />
<line x1="0" y1="1072.00" x2="1488.00" y2="1072.00" />
<line x1="0" y1="1088.00" x2="1488.00" y2="1088.00" />
<line x1="0" y1="1104.00" x2="1488.00" y2="1104.00" />
<line x1="0" y1="1120.00" x2="1488.00" y2="1120.00" />
<line x1="0" y1="1136.00" x2="1488.00" y2="1136.00" />
<line x1="0" y1="1152.00" x2="1488.00" y2="1152.00" />
<line x1="0" y1="1168.00" x2="1488.00" y2="1168.00" />
<line x1="0" y1="1184.00" x2="1488.00" y2="1184.00" />
<line x1="0" y1="1200.00" x2="1488.00" y2="1200.00" />
<line x1="0" y1="1216.00" x2="1488.00" y2="1216.00" />
<line x1="0" y1="1232.00" x2="1488.00" y2="1232.00" />
<line x1="0" y1="1248.00" x2="1488.00" y2="1248.00" />
<line x1="0" y1="1264.00" x2="1488.00" y2="1264.00" />
<line x1="0" y1="1280.00" x2="1488.00" y2="1280.00" />
<line x1="0" y1="1296.00" x2="1488.00" y2="1296.00" />
<line x1="0" y1="1312.00" x2="1488.00" y2="1312.00" />
<line x1="0" y1="1328.00" x2="1488.00" y2="1328.00" />
<line x1="0" y1="1344.00" x2="1488.00" y2="1344.00" />
<line x1="0" y1="1360.00" x2="1488.00" y2="1360.00" />
<line x1="0" y1="1376.00" x2="1488.00" y2="1376.00" />
<line x1="0" y1="1392.00" x2="1488.00" y2="1392.00" />
<line x1="0" y1="1408.00" x2="1488.00" y2="1408.00" />
<line x1="0" y1="1424.00" x2="1488.00" y2="1424.00" />
<line x1="0" y1="1440.00" x2="1488.00" y2="1440.00" />
<line x1="0" y1="1456.00" x2="1488.00" y2="1456.00" />
<line x1="0" y1="1472.00" x2="1488.00" y2="1472.00" />
<line x1="0" y1="1488.00" x2="1488.00" y2="1488.00" />
<line x1="0" y1="1504.00" x2="1488.00" y2="1504.00" />
<line x1="0" y1="1520.00" x2="1488.00" y2="1520.00" />
<line x1="0" y1="1536.00" x2="1488.00" y2="1536.00" />
  </g>
  <g class="walls">
<line x1="624.00" y1="64.00" x2="784.00" y2="64.00" />
<line x1="320.00" y1="80.00" x2="512.00" y2="80.00" />
<line x1="544.00" y1="112.00" x2="592.00" y2="112.00" />
<line x1="800.00" y1="112.00" x2="944.00" y2="112.00" />
<line x1="512.00" y1="144.00" x2="544.00" y2="144.00" />
<line x1="592.00" y1="144.00" x2="624.00" y2="144.00" />
<line x1="784.00" y1="144.00" x2="800.00" y2="144.00" />
<line x1="944.00" y1="144.00" x2="1184.00" y2="144.00" />
<line x1="256.00" y1="160.00" x2="320.00" y2="160.00" />
<line x1="960.00" y1="160.00" x2="1168.00" y2="160.00" />
<line x1="1184.00" y1="160.00" x2="1200.00" y2="160.00" />
<line x1="272.00" y1="176.00" x2="320.00" y2="176.00" />
<line x1="512.00" y1="176.00" x2="544.00" y2="176.00" />
<line x1="608.00" y1="176.00" x2="624.00" y2="176.00" />
<line x1="784.00" y1="176.00" x2="800.00" y2="176.00" />
<line x1="1168.00" y1="176.00" x2="1184.00" y2="176.00" />
<line x1="1200.00" y1="176.00" x2="1216.00" y2="176.00" />
<line x1="1184.00" y1="192.00" x2="1200.00" y2="192.00" />
<line x1="1216.00" y1="192.00" x2="1264.00" y2="192.00" />
<line x1="544.00" y1="208.00" x2="592.00" y2="208.00" />
<line x1="608.00" y1="208.00" x2="624.00" y2="208.00" />
<line x1="320.00" y1="224.00" x2="384.00" y2="224.00" />
<line x1="400.00" y1="224.00" x2="464.00" y2="224.00" />
<line x1="608.00" y1="224.00" x2="624.00" y2="224.00" />
<line x1="464.00" y1="240.00" x2="496.00" y2="240.00" />
<line x1="512.00" y1="256.00" x2="528.00" y2="256.00" />
<line x1="1200.00" y1="256.00" x2="1216.00" y2="256.00" />
<line x1="1248.00" y1="256.00" x2="1264.00" y2="256.00" />
<line x1="496.00" y1="272.00" x2="512.00" y2="272.00" />
<line x1="528.00" y1="272.00" x2="544.00" y2="272.00" />
<line x1="624.00" y1="272.00" x2="672.00" y2="272.00" />
<line x1="704.00" y1="272.00" x2="784.00" y2="272.00" />
<line x1="960.00" y1="272.00" x2="976.00" y2="272.00" />
<line x1="512.00" y1="288.00" x2="528.00" y2="288.00" />
<line x1="544.00" y1="288.00" x2="576.00" y2="288.00" />
<line x1="800.00" y1="288.00" x2="944.00" y2="288.00" />
<line x1="160.00" y1="304.00" x2="256.00" y2="304.00" />
<line x1="272.00" y1="304.00" x2="368.00" y2="304.00" />
<line x1="528.00" y1="304.00" x2="560.00" y2="304.00" />
<line x1="672.00" y1="304.00" x2="688.00" y2="304.00" />
<line x1="704.00" y1="304.00" x2="720.00" y2="304.00" />
<line x1="896.00" y1="304.00" x2="944.00" y2="304.00" />
<line x1="976.00" y1="304.00" x2="992.00" y2="304.00" />
<line x1="1184.00" y1="304.00" x2="1216.00" y2="304.00" />
<line x1="1248.00" y1="304.00" x2="1360.00" y2="304.00" />
<line x1="80.00" y1="320.00" x2="128.00" y2="320.00" />
<line x1="576.00" y1="320.00" x2="592.00" y2="320.00" />
<line x1="720.00" y1="320.00" x2="736.00" y2="320.00" />
<line x1="992.00" y1="320.00" x2="1008.00" y2="320.00" />
<line x1="560.00" y1="336.00" x2="576.00" y2="336.00" />
<line x1="704.00" y1="336.00" x2="720.00" y2="336.00" />
<line x1="736.00" y1="336.00" x2="752.00" y2="336.00" />
<line x1="1008.00" y1="336.00" x2="1024.00" y2="336.00" />
<line x1="576.00" y1="352.00" x2="592.00" y2="352.00" />
<line x1="608.00" y1="352.00" x2="640.00" y2="352.00" />
<line x1="720.00" y1="352.00" x2="736.00" y2="352.00" />
<line x1="752.00" y1="352.00" x2="768.00" y2="352.00" />
<line x1="992.00" y1="352.00" x2="1008.00" y2="352.00" />
<line x1="1024.00" y1="352.00" x2="1056.00" y2="352.00" />
<line x1="160.00" y1="368.00" x2="224.00" y2="368.00" />
<line x1="256.00" y1="368.00" x2="368.00" y2="368.00" />
<line x1="608.00" y1="368.00" x2="624.00" y2="368.00" />
<line x1="640.00" y1="368.00" x2="656.00" y2="368.00" />
<line x1="736.00" y1="368.00" x2="752.00" y2="368.00" />
<line x1="768.00" y1="368.00" x2="800.00" y2="368.00" />
<line x1="1008.00" y1="368.00" x2="1040.00" y2="368.00" />
<line x1="208.00" y1="384.00" x2="224.00" y2="384.00" />
<line x1="240.00" y1="384.00" x2="256.00" y2="384.00" />
<line x1="624.00" y1="384.00" x2="640.00" y2="384.00" />
<line x1="752.00" y1="384.00" x2="784.00" y2="384.00" />
<line x1="800.00" y1="384.00" x2="816.00" y2="384.00" />
<line x1="1056.00" y1="384.00" x2="1072.00" y2="384.00" />
<line x1="128.00" y1="400.00" x2="208.00" y2="400.00" />
<line x1="240.00" y1="400.00" x2="384.00" y2="400.00" />
<line x1="400.00" y1="400.00" x2="592.00" y2="400.00" />
<line x1="608.00" y1="400.00" x2="640.00" y2="400.00" />
<line x1="656.00" y1="400.00" x2="688.00" y2="400.00" />
<line x1="704.00" y1="400.00" x2="784.00" y2="400.00" />
<line x1="816.00" y1="400.00" x2="896.00" y2="400.00" />
<line x1="992.00" y1="400.00" x2="1040.00" y2="400.00" />
<line x1="1072.00" y1="400.00" x2="1184.00" y2="400.00" />
<line x1="128.00" y1="416.00" x2="176.00" y2="416.00" />
<line x1="208.00" y1="416.00" x2="384.00" y2="416.00" />
<line x1="400.00" y1="416.00" x2="592.00" y2="416.00" />
<line x1="608.00" y1="416.00" x2="656.00" y2="416.00" />
<line x1="720.00" y1="416.00" x2="800.00" y2="416.00" />
<line x1="848.00" y1="416.00" x2="944.00" y2="416.00" />
<line x1="960.00" y1="416.00" x2="1088.00" y2="416.00" />
<line x1="1104.00" y1="416.00" x2="1184.00" y2="416.00" />
<line x1="144.00" y1="432.00" x2="176.00" y2="432.00" />
<line x1="192.00" y1="432.00" x2="208.00" y2="432.00" />
<line x1="656.00" y1="432.00" x2="672.00" y2="432.00" />
<line x1="800.00" y1="432.00" x2="832.00" y2="432.00" />
<line x1="1104.00" y1="432.00" x2="1136.00" y2="432.00" />
<line x1="128.00" y1="448.00" x2="144.00" y2="448.00" />
<line x1="160.00" y1="448.00" x2="192.00" y2="448.00" />
<line x1="720.00" y1="448.00" x2="736.00" y2="448.00" />
<line x1="848.00" y1="448.00" x2="864.00" y2="448.00" />
<line x1="1088.00" y1="448.00" x2="1120.00" y2="448.00" />
<line x1="144.00" y1="464.00" x2="160.00" y2="464.00" />
<line x1="832.00" y1="464.00" x2="848.00" y2="464.00" />
<line x1="1136.00" y1="464.00" x2="1152.00" y2="464.00" />
<line x1="1184.00" y1="464.00" x2="1216.00" y2="464.00" />
<line x1="1248.00" y1="464.00" x2="1264.00" y2="464.00" />
<line x1="1280.00" y1="464.00" x2="1360.00" y2="464.00" />
<line x1="80.00" y1="480.00" x2="96.00" y2="480.00" />
<line x1="128.00" y1="480.00" x2="144.00" y2="480.00" />
<line x1="736.00" y1="480.00" x2="752.00" y2="480.00" />
<line x1="1120.00" y1="480.00" x2="1136.00" y2="480.00" />
<line x1="1152.00" y1="480.00" x2="1168.00" y2="480.00" />
<line x1="80.00" y1="512.00" x2="96.00" y2="512.00" />
<line x1="112.00" y1="512.00" x2="128.00" y2="512.00" />
<line x1="320.00" y1="512.00" x2="368.00" y2="512.00" />
<line x1="720.00" y1="512.00" x2="768.00" y2="512.00" />
<line x1="784.00" y1="512.00" x2="848.00" y2="512.00" />
<line x1="864.00" y1="512.00" x2="944.00" y2="512.00" />
<line x1="960.00" y1="512.00" x2="1040.00" y2="512.00" />
<line x1="1152.00" y1="512.00" x2="1168.00" y2="512.00" />
<line x1="1200.00" y1="512.00" x2="1216.00" y2="512.00" />
<line x1="752.00" y1="496.00" x2="848.00" y2="496.00" />
<line x1="864.00" y1="496.00" x2="944.00" y2="496.00" />
<line x1="960.00" y1="496.00" x2="1136.00" y2="496.00" />
<line x1="1168.00" y1="496.00" x2="1200.00" y2="496.00" />
<line x1="288.00" y1="528.00" x2="320.00" y2="528.00" />
<line x1="368.00" y1="528.00" x2="384.00" y2="528.00" />
<line x1="784.00" y1="528.00" x2="800.00" y2="528.00" />
<line x1="1168.00" y1="528.00" x2="1200.00" y2="528.00" />
<line x1="272.00" y1="544.00" x2="288.00" y2="544.00" />
<line x1="400.00" y1="544.00" x2="416.00" y2="544.00" />
<line x1="768.00" y1="544.00" x2="784.00" y2="544.00" />
<line x1="800.00" y1="544.00" x2="816.00" y2="544.00" />
<line x1="784.00" y1="560.00" x2="800.00" y2="560.00" />
<line x1="816.00" y1="560.00" x2="848.00" y2="560.00" />
<line x1="1040.00" y1="560.00" x2="1088.00" y2="560.00" />
<line x1="1104.00" y1="560.00" x2="1152.00" y2="560.00" />
<line x1="1200.00" y1="560.00" x2="1216.00" y2="560.00" />
<line x1="256.00" y1="576.00" x2="272.00" y2="576.00" />
<line x1="416.00" y1="576.00" x2="432.00" y2="576.00" />
<line x1="672.00" y1="576.00" x2="688.00" y2="576.00" />
<line x1="704.00" y1="576.00" x2="720.00" y2="576.00" />
<line x1="800.00" y1="576.00" x2="816.00" y2="576.00" />
<line x1="864.00" y1="576.00" x2="944.00" y2="576.00" />
<line x1="1248.00" y1="576.00" x2="1264.00" y2="576.00" />
<line x1="1248.00" y1="592.00" x2="1264.00" y2="592.00" />
<line x1="1280.00" y1="592.00" x2="1296.00" y2="592.00" />
<line x1="432.00" y1="608.00" x2="592.00" y2="608.00" />
<line x1="608.00" y1="608.00" x2="688.00" y2="608.00" />
<line x1="704.00" y1="608.00" x2="816.00" y2="608.00" />
<line x1="960.00" y1="608.00" x2="1088.00" y2="608.00" />
<line x1="1104.00" y1="608.00" x2="1216.00" y2="608.00" />
<line x1="432.00" y1="624.00" x2="592.00" y2="624.00" />
<line x1="608.00" y1="624.00" x2="688.00" y2="624.00" />
<line x1="704.00" y1="624.00" x2="816.00" y2="624.00" />
<line x1="960.00" y1="624.00" x2="1088.00" y2="624.00" />
<line x1="1104.00" y1="624.00" x2="1216.00" y2="624.00" />
<line x1="1296.00" y1="624.00" x2="1312.00" y2="624.00" />
<line x1="1360.00" y1="624.00" x2="1440.00" y2="624.00" />
<line x1="1280.00" y1="640.00" x2="1296.00" y2="640.00" />
<line x1="1312.00" y1="640.00" x2="1328.00" y2="640.00" />
<line x1="256.00" y1="656.00" x2="272.00" y2="656.00" />
<line x1="416.00" y1="656.00" x2="432.00" y2="656.00" />
<line x1="1296.00" y1="656.00" x2="1312.00" y2="656.00" />
<line x1="1328.00" y1="656.00" x2="1360.00" y2="656.00" />
<line x1="1312.00" y1="672.00" x2="1344.00" y2="672.00" />
<line x1="272.00" y1="688.00" x2="288.00" y2="688.00" />
<line x1="400.00" y1="688.00" x2="416.00" y2="688.00" />
<line x1="816.00" y1="688.00" x2="848.00" y2="688.00" />
<line x1="864.00" y1="688.00" x2="944.00" y2="688.00" />
<line x1="288.00" y1="704.00" x2="320.00" y2="704.00" />
<line x1="368.00" y1="704.00" x2="384.00" y2="704.00" />
<line x1="1344.00" y1="704.00" x2="1360.00" y2="704.00" />
<line x1="96.00" y1="736.00" x2="336.00" y2="736.00" />
<line x1="352.00" y1="736.00" x2="384.00" y2="736.00" />
<line x1="400.00" y1="736.00" x2="592.00" y2="736.00" />
<line x1="608.00" y1="736.00" x2="656.00" y2="736.00" />
<line x1="704.00" y1="736.00" x2="848.00" y2="736.00" />
<line x1="864.00" y1="736.00" x2="944.00" y2="736.00" />
<line x1="960.00" y1="736.00" x2="1088.00" y2="736.00" />
<line x1="1104.00" y1="736.00" x2="1184.00" y2="736.00" />
<line x1="1248.00" y1="736.00" x2="1264.00" y2="736.00" />
<line x1="1312.00" y1="736.00" x2="1360.00" y2="736.00" />
<line x1="112.00" y1="720.00" x2="320.00" y2="720.00" />
<line x1="368.00" y1="720.00" x2="384.00" y2="720.00" />
<line x1="400.00" y1="720.00" x2="592.00" y2="720.00" />
<line x1="608.00" y1="720.00" x2="688.00" y2="720.00" />
<line x1="704.00" y1="720.00" x2="848.00" y2="720.00" />
<line x1="864.00" y1="720.00" x2="944.00" y2="720.00" />
<line x1="960.00" y1="720.00" x2="1088.00" y2="720.00" />
<line x1="1104.00" y1="720.00" x2="1216.00" y2="720.00" />
<line x1="1248.00" y1="720.00" x2="1264.00" y2="720.00" />
<line x1="1280.00" y1="720.00" x2="1360.00" y2="720.00" />
<line x1="320.00" y1="752.00" x2="336.00" y2="752.00" />
<line x1="640.00" y1="752.00" x2="656.00" y2="752.00" />
<line x1="672.00" y1="752.00" x2="688.00" y2="752.00" />
<line x1="1280.00" y1="752.00" x2="1312.00" y2="752.00" />
<line x1="336.00" y1="768.00" x2="352.00" y2="768.00" />
<line x1="656.00" y1="768.00" x2="672.00" y2="768.00" />
<line x1="1248.00" y1="768.00" x2="1264.00" y2="768.00" />
<line x1="304.00" y1="784.00" x2="320.00" y2="784.00" />
<line x1="608.00" y1="784.00" x2="640.00" y2="784.00" />
<line x1="704.00" y1="784.00" x2="736.00" y2="784.00" />
<line x1="288.00" y1="800.00" x2="304.00" y2="800.00" />
<line x1="320.00" y1="800.00" x2="336.00" y2="800.00" />
<line x1="624.00" y1="800.00" x2="656.00" y2="800.00" />
<line x1="704.00" y1="800.00" x2="720.00" y2="800.00" />
<line x1="736.00" y1="800.00" x2="752.00" y2="800.00" />
<line x1="1104.00" y1="800.00" x2="1184.00" y2="800.00" />
<line x1="1248.00" y1="800.00" x2="1264.00" y2="800.00" />
<line x1="272.00" y1="816.00" x2="288.00" y2="816.00" />
<line x1="304.00" y1="816.00" x2="320.00" y2="816.00" />
<line x1="720.00" y1="816.00" x2="736.00" y2="816.00" />
<line x1="752.00" y1="816.00" x2="768.00" y2="816.00" />
<line x1="1104.00" y1="816.00" x2="1184.00" y2="816.00" />
<line x1="256.00" y1="832.00" x2="272.00" y2="832.00" />
<line x1="288.00" y1="832.00" x2="304.00" y2="832.00" />
<line x1="336.00" y1="832.00" x2="384.00" y2="832.00" />
<line x1="400.00" y1="832.00" x2="448.00" y2="832.00" />
<line x1="576.00" y1="832.00" x2="592.00" y2="832.00" />
<line x1="608.00" y1="832.00" x2="624.00" y2="832.00" />
<line x1="736.00" y1="832.00" x2="752.00" y2="832.00" />
<line x1="768.00" y1="832.00" x2="784.00" y2="832.00" />
<line x1="1360.00" y1="832.00" x2="1440.00" y2="832.00" />
<line x1="224.00" y1="848.00" x2="256.00" y2="848.00" />
<line x1="272.00" y1="848.00" x2="288.00" y2="848.00" />
<line x1="560.00" y1="848.00" x2="576.00" y2="848.00" />
<line x1="752.00" y1="848.00" x2="768.00" y2="848.00" />
<line x1="240.00" y1="864.00" x2="272.00" y2="864.00" />
<line x1="544.00" y1="864.00" x2="560.00" y2="864.00" />
<line x1="576.00" y1="864.00" x2="592.00" y2="864.00" />
<line x1="784.00" y1="864.00" x2="848.00" y2="864.00" />
<line x1="864.00" y1="864.00" x2="880.00" y2="864.00" />
<line x1="192.00" y1="880.00" x2="224.00" y2="880.00" />
<line x1="240.00" y1="880.00" x2="336.00" y2="880.00" />
<line x1="512.00" y1="880.00" x2="544.00" y2="880.00" />
<line x1="560.00" y1="880.00" x2="576.00" y2="880.00" />
<line x1="768.00" y1="880.00" x2="800.00" y2="880.00" />
<line x1="1184.00" y1="880.00" x2="1216.00" y2="880.00" />
<line x1="1232.00" y1="880.00" x2="1248.00" y2="880.00" />
<line x1="32.00" y1="896.00" x2="80.00" y2="896.00" />
<line x1="96.00" y1="896.00" x2="192.00" y2="896.00" />
<line x1="224.00" y1="896.00" x2="336.00" y2="896.00" />
<line x1="496.00" y1="896.00" x2="512.00" y2="896.00" />
<line x1="528.00" y1="896.00" x2="560.00" y2="896.00" />
<line x1="208.00" y1="912.00" x2="224.00" y2="912.00" />
<line x1="480.00" y1="912.00" x2="496.00" y2="912.00" />
<line x1="512.00" y1="912.00" x2="528.00" y2="912.00" />
<line x1="800.00" y1="912.00" x2="816.00" y2="912.00" />
<line x1="192.00" y1="928.00" x2="208.00" y2="928.00" />
<line x1="336.00" y1="928.00" x2="448.00" y2="928.00" />
<line x1="464.00" y1="928.00" x2="480.00" y2="928.00" />
<line x1="496.00" y1="928.00" x2="512.00" y2="928.00" />
<line x1="480.00" y1="944.00" x2="496.00" y2="944.00" />
<line x1="336.00" y1="960.00" x2="384.00" y2="960.00" />
<line x1="448.00" y1="960.00" x2="464.00" y2="960.00" />
<line x1="192.00" y1="976.00" x2="336.00" y2="976.00" />
<line x1="384.00" y1="976.00" x2="448.00" y2="976.00" />
<line x1="480.00" y1="976.00" x2="592.00" y2="976.00" />
<line x1="608.00" y1="976.00" x2="624.00" y2="976.00" />
<line x1="192.00" y1="992.00" x2="336.00" y2="992.00" />
<line x1="384.00" y1="992.00" x2="416.00" y2="992.00" />
<line x1="432.00" y1="992.00" x2="592.00" y2="992.00" />
<line x1="624.00" y1="992.00" x2="640.00" y2="992.00" />
<line x1="384.00" y1="1008.00" x2="416.00" y2="1008.00" />
<line x1="608.00" y1="1008.00" x2="624.00" y2="1008.00" />
<line x1="640.00" y1="1008.00" x2="656.00" y2="1008.00" />
<line x1="816.00" y1="1008.00" x2="848.00" y2="1008.00" />
<line x1="864.00" y1="1008.00" x2="880.00" y2="1008.00" />
<line x1="960.00" y1="1008.00" x2="1088.00" y2="1008.00" />
<line x1="1104.00" y1="1008.00" x2="1168.00" y2="1008.00" />
<line x1="400.00" y1="1024.00" x2="432.00" y2="1024.00" />
<line x1="624.00" y1="1024.00" x2="640.00" y2="1024.00" />
<line x1="656.00" y1="1024.00" x2="672.00" y2="1024.00" />
<line x1="384.00" y1="1040.00" x2="400.00" y2="1040.00" />
<line x1="640.00" y1="1040.00" x2="656.00" y2="1040.00" />
<line x1="672.00" y1="1040.00" x2="688.00" y2="1040.00" />
<line x1="864.00" y1="1040.00" x2="944.00" y2="1040.00" />
<line x1="32.00" y1="1056.00" x2="80.00" y2="1056.00" />
<line x1="96.00" y1="1056.00" x2="192.00" y2="1056.00" />
<line x1="384.00" y1="1056.00" x2="592.00" y2="1056.00" />
<line x1="608.00" y1="1056.00" x2="656.00" y2="1056.00" />
<line x1="704.00" y1="1056.00" x2="848.00" y2="1056.00" />
<line x1="384.00" y1="1072.00" x2="592.00" y2="1072.00" />
<line x1="672.00" y1="1072.00" x2="688.00" y2="1072.00" />
<line x1="736.00" y1="1072.00" x2="848.00" y2="1072.00" />
<line x1="864.00" y1="1072.00" x2="944.00" y2="1072.00" />
<line x1="704.00" y1="1088.00" x2="720.00" y2="1088.00" />
<line x1="960.00" y1="1088.00" x2="1088.00" y2="1088.00" />
<line x1="1104.00" y1="1088.00" x2="1168.00" y2="1088.00" />
<line x1="672.00" y1="1120.00" x2="688.00" y2="1120.00" />
<line x1="720.00" y1="1120.00" x2="752.00" y2="1120.00" />
<line x1="736.00" y1="1104.00" x2="768.00" y2="1104.00" />
<line x1="1120.00" y1="1104.00" x2="1216.00" y2="1104.00" />
<line x1="1232.00" y1="1104.00" x2="1264.00" y2="1104.00" />
<line x1="1280.00" y1="1104.00" x2="1312.00" y2="1104.00" />
<line x1="672.00" y1="1136.00" x2="704.00" y2="1136.00" />
<line x1="768.00" y1="1136.00" x2="784.00" y2="1136.00" />
<line x1="752.00" y1="1152.00" x2="768.00" y2="1152.00" />
<line x1="784.00" y1="1152.00" x2="800.00" y2="1152.00" />
<line x1="896.00" y1="1152.00" x2="944.00" y2="1152.00" />
<line x1="960.00" y1="1152.00" x2="992.00" y2="1152.00" />
<line x1="336.00" y1="1168.00" x2="352.00" y2="1168.00" />
<line x1="368.00" y1="1168.00" x2="384.00" y2="1168.00" />
<line x1="608.00" y1="1168.00" x2="640.00" y2="1168.00" />
<line x1="656.00" y1="1168.00" x2="672.00" y2="1168.00" />
<line x1="768.00" y1="1168.00" x2="784.00" y2="1168.00" />
<line x1="800.00" y1="1168.00" x2="816.00" y2="1168.00" />
<line x1="1072.00" y1="1168.00" x2="1088.00" y2="1168.00" />
<line x1="544.00" y1="1200.00" x2="592.00" y2="1200.00" />
<line x1="608.00" y1="1200.00" x2="816.00" y2="1200.00" />
<line x1="864.00" y1="1200.00" x2="896.00" y2="1200.00" />
<line x1="992.00" y1="1200.00" x2="1040.00" y2="1200.00" />
<line x1="1072.00" y1="1200.00" x2="1120.00" y2="1200.00" />
<line x1="656.00" y1="1184.00" x2="784.00" y2="1184.00" />
<line x1="816.00" y1="1184.00" x2="848.00" y2="1184.00" />
<line x1="864.00" y1="1184.00" x2="896.00" y2="1184.00" />
<line x1="992.00" y1="1184.00" x2="1072.00" y2="1184.00" />
<line x1="1104.00" y1="1184.00" x2="1120.00" y2="1184.00" />
<line x1="816.00" y1="1216.00" x2="832.00" y2="1216.00" />
<line x1="864.00" y1="1216.00" x2="880.00" y2="1216.00" />
<line x1="1024.00" y1="1216.00" x2="1040.00" y2="1216.00" />
<line x1="1056.00" y1="1216.00" x2="1072.00" y2="1216.00" />
<line x1="832.00" y1="1232.00" x2="848.00" y2="1232.00" />
<line x1="880.00" y1="1232.00" x2="896.00" y2="1232.00" />
<line x1="1040.00" y1="1232.00" x2="1056.00" y2="1232.00" />
<line x1="864.00" y1="1248.00" x2="880.00" y2="1248.00" />
<line x1="1008.00" y1="1248.00" x2="1024.00" y2="1248.00" />
<line x1="880.00" y1="1264.00" x2="896.00" y2="1264.00" />
<line x1="912.00" y1="1264.00" x2="976.00" y2="1264.00" />
<line x1="992.00" y1="1264.00" x2="1008.00" y2="1264.00" />
<line x1="1024.00" y1="1264.00" x2="1040.00" y2="1264.00" />
<line x1="1120.00" y1="1264.00" x2="1312.00" y2="1264.00" />
<line x1="912.00" y1="1280.00" x2="944.00" y2="1280.00" />
<line x1="992.00" y1="1280.00" x2="1024.00" y2="1280.00" />
<line x1="896.00" y1="1296.00" x2="928.00" y2="1296.00" />
<line x1="960.00" y1="1296.00" x2="976.00" y2="1296.00" />
<line x1="944.00" y1="1312.00" x2="960.00" y2="1312.00" />
<line x1="976.00" y1="1312.00" x2="992.00" y2="1312.00" />
<line x1="912.00" y1="1328.00" x2="928.00" y2="1328.00" />
<line x1="864.00" y1="1344.00" x2="912.00" y2="1344.00" />
<line x1="928.00" y1="1344.00" x2="960.00" y2="1344.00" />
<line x1="976.00" y1="1344.00" x2="1008.00" y2="1344.00" />
<line x1="32.00" y1="1360.00" x2="80.00" y2="1360.00" />
<line x1="96.00" y1="1360.00" x2="128.00" y2="1360.00" />
<line x1="960.00" y1="1360.00" x2="992.00" y2="1360.00" />
<line x1="992.00" y1="1392.00" x2="1024.00" y2="1392.00" />
<line x1="1008.00" y1="1376.00" x2="1040.00" y2="1376.00" />
<line x1="544.00" y1="1408.00" x2="640.00" y2="1408.00" />
<line x1="848.00" y1="1408.00" x2="928.00" y2="1408.00" />
<line x1="1008.00" y1="1408.00" x2="1024.00" y2="1408.00" />
<line x1="1040.00" y1="1408.00" x2="1104.00" y2="1408.00" />
<line x1="128.00" y1="1424.00" x2="352.00" y2="1424.00" />
<line x1="128.00" y1="1440.00" x2="368.00" y2="1440.00" />
<line x1="1008.00" y1="1456.00" x2="1104.00" y2="1456.00" />
<line x1="32.00" y1="1504.00" x2="128.00" y2="1504.00" />
<line x1="624.00" y1="64.00" x2="624.00" y2="144.00" />
<line x1="624.00" y1="176.00" x2="624.00" y2="208.00" />
<line x1="624.00" y1="224.00" x2="624.00" y2="272.00" />
<line x1="624.00" y1="368.00" x2="624.00" y2="384.00" />
<line x1="624.00" y1="800.00" x2="624.00" y2="832.00" />
<line x1="624.00" y1="976.00" x2="624.00" y2="992.00" />
<line x1="624.00" y1="1008.00" x2="624.00" y2="1024.00" />
<line x1="784.00" y1="64.00" x2="784.00" y2="144.00" />
<line x1="784.00" y1="176.00" x2="784.00" y2="272.00" />
<line x1="784.00" y1="384.00" x2="784.00" y2="400.00" />
<line x1="784.00" y1="512.00" x2="784.00" y2="528.00" />
<line x1="784.00" y1="544.00" x2="784.00" y2="560.00" />
<line x1="784.00" y1="832.00" x2="784.00" y2="864.00" />
<line x1="784.00" y1="1136.00" x2="784.00" y2="1152.00" />
<line x1="784.00" y1="1168.00" x2="784.00" y2="1184.00" />
<line x1="320.00" y1="80.00" x2="320.00" y2="160.00" />
<line x1="320.00" y1="176.00" x2="320.00" y2="224.00" />
<line x1="320.00" y1="512.00" x2="320.00" y2="528.00" />
<line x1="320.00" y1="704.00" x2="320.00" y2="720.00" />
<line x1="320.00" y1="752.00" x2="320.00" y2="784.00" />
<line x1="320.00" y1="800.00" x2="320.00" y2="816.00" />
<line x1="512.00" y1="80.00" x2="512.00" y2="144.00" />
<line x1="512.00" y1="176.00" x2="512.00" y2="256.00" />
<line x1="512.00" y1="272.00" x2="512.00" y2="288.00" />
<line x1="512.00" y1="880.00" x2="512.00" y2="896.00" />
<line x1="512.00" y1="912.00" x2="512.00" y2="928.00" />
<line x1="544.00" y1="112.00" x2="544.00" y2="144.00" />
<line x1="544.00" y1="176.00" x2="544.00" y2="208.00" />
<line x1="544.00" y1="272.00" x2="544.00" y2="288.00" />
<line x1="544.00" y1="864.00" x2="544.00" y2="880.00" />
<line x1="544.00" y1="1200.00" x2="544.00" y2="1408.00" />
<line x1="592.00" y1="112.00" x2="592.00" y2="144.00" />
<line x1="592.00" y1="208.00" x2="592.00" y2="320.00" />
<line x1="592.00" y1="352.00" x2="592.00" y2="400.00" />
<line x1="592.00" y1="416.00" x2="592.00" y2="608.00" />
<line x1="592.00" y1="624.00" x2="592.00" y2="720.00" />
<line x1="592.00" y1="736.00" x2="592.00" y2="832.00" />
<line x1="592.00" y1="864.00" x2="592.00" y2="976.00" />
<line x1="592.00" y1="992.00" x2="592.00" y2="1056.00" />
<line x1="592.00" y1="1072.00" x2="592.00" y2="1200.00" />
<line x1="800.00" y1="112.00" x2="800.00" y2="144.00" />
<line x1="800.00" y1="176.00" x2="800.00" y2="288.00" />
<line x1="800.00" y1="368.00" x2="800.00" y2="384.00" />
<line x1="800.00" y1="416.00" x2="800.00" y2="432.00" />
<line x1="800.00" y1="528.00" x2="800.00" y2="544.00" />
<line x1="800.00" y1="560.00" x2="800.00" y2="576.00" />
<line x1="800.00" y1="880.00" x2="800.00" y2="912.00" />
<line x1="800.00" y1="1152.00" x2="800.00" y2="1168.00" />
<line x1="944.00" y1="112.00" x2="944.00" y2="144.00" />
<line x1="944.00" y1="288.00" x2="944.00" y2="304.00" />
<line x1="944.00" y1="416.00" x2="944.00" y2="496.00" />
<line x1="944.00" y1="512.00" x2="944.00" y2="576.00" />
<line x1="944.00" y1="688.00" x2="944.00" y2="720.00" />
<line x1="944.00" y1="736.00" x2="944.00" y2="1040.00" />
<line x1="944.00" y1="1072.00" x2="944.00" y2="1152.00" />
<line x1="944.00" y1="1280.00" x2="944.00" y2="1312.00" />
<line x1="1184.00" y1="144.00" x2="1184.00" y2="160.00" />
<line x1="1184.00" y1="176.00" x2="1184.00" y2="192.00" />
<line x1="1184.00" y1="304.00" x2="1184.00" y2="400.00" />
<line x1="1184.00" y1="416.00" x2="1184.00" y2="464.00" />
<line x1="1184.00" y1="736.00" x2="1184.00" y2="800.00" />
<line x1="1184.00" y1="816.00" x2="1184.00" y2="880.00" />
<line x1="256.00" y1="160.00" x2="256.00" y2="304.00" />
<line x1="256.00" y1="368.00" x2="256.00" y2="384.00" />
<line x1="256.00" y1="576.00" x2="256.00" y2="656.00" />
<line x1="256.00" y1="832.00" x2="256.00" y2="848.00" />
<line x1="960.00" y1="160.00" x2="960.00" y2="272.00" />
<line x1="960.00" y1="416.00" x2="960.00" y2="496.00" />
<line x1="960.00" y1="512.00" x2="960.00" y2="608.00" />
<line x1="960.00" y1="624.00" x2="960.00" y2="720.00" />
<line x1="960.00" y1="736.00" x2="960.00" y2="1008.00" />
<line x1="960.00" y1="1088.00" x2="960.00" y2="1152.00" />
<line x1="960.00" y1="1296.00" x2="960.00" y2="1312.00" />
<line x1="960.00" y1="1344.00" x2="960.00" y2="1360.00" />
<line x1="1168.00" y1="160.00" x2="1168.00" y2="176.00" />
<line x1="1168.00" y1="480.00" x2="1168.00" y2="496.00" />
<line x1="1168.00" y1="512.00" x2="1168.00" y2="528.00" />
<line x1="1168.00" y1="1008.00" x2="1168.00" y2="1088.00" />
<line x1="1200.00" y1="160.00" x2="1200.00" y2="176.00" />
<line x1="1200.00" y1="192.00" x2="1200.00" y2="256.00" />
<line x1="1200.00" y1="496.00" x2="1200.00" y2="512.00" />
<line x1="1200.00" y1="528.00" x2="1200.00" y2="560.00" />
<line x1="272.00" y1="176.00" x2="272.00" y2="304.00" />
<line x1="272.00" y1="544.00" x2="272.00" y2="576.00" />
<line x1="272.00" y1="656.00" x2="272.00" y2="688.00" />
<line x1="272.00" y1="816.00" x2="272.00" y2="832.00" />
<line x1="272.00" y1="848.00" x2="272.00" y2="864.00" />
<line x1="608.00" y1="176.00" x2="608.00" y2="208.00" />
<line x1="608.00" y1="224.00" x2="608.00" y2="352.00" />
<line x1="608.00" y1="368.00" x2="608.00" y2="400.00" />
<line x1="608.00" y1="416.00" x2="608.00" y2="608.00" />
<line x1="608.00" y1="624.00" x2="608.00" y2="720.00" />
<line x1="608.00" y1="736.00" x2="608.00" y2="784.00" />
<line x1="608.00" y1="832.00" x2="608.00" y2="976.00" />
<line x1="608.00" y1="1008.00" x2="608.00" y2="1056.00" />
<line x1="608.00" y1="1168.00" x2="608.00" y2="1200.00" />
<line x1="1216.00" y1="176.00" x2="1216.00" y2="192.00" />
<line x1="1216.00" y1="256.00" x2="1216.00" y2="304.00" />
<line x1="1216.00" y1="464.00" x2="1216.00" y2="512.00" />
<line x1="1216.00" y1="560.00" x2="1216.00" y2="608.00" />
<line x1="1216.00" y1="624.00" x2="1216.00" y2="720.00" />
<line x1="1216.00" y1="880.00" x2="1216.00" y2="1104.00" />
<line x1="1264.00" y1="192.00" x2="1264.00" y2="256.00" />
<line x1="1264.00" y1="464.00" x2="1264.00" y2="576.00" />
<line x1="1264.00" y1="592.00" x2="1264.00" y2="720.00" />
<line x1="1264.00" y1="736.00" x2="1264.00" y2="768.00" />
<line x1="1264.00" y1="800.00" x2="1264.00" y2="1104.00" />
<line x1="384.00" y1="224.00" x2="384.00" y2="400.00" />
<line x1="384.00" y1="416.00" x2="384.00" y2="528.00" />
<line x1="384.00" y1="704.00" x2="384.00" y2="720.00" />
<line x1="384.00" y1="736.00" x2="384.00" y2="832.00" />
<line x1="384.00" y1="960.00" x2="384.00" y2="976.00" />
<line x1="384.00" y1="992.00" x2="384.00" y2="1008.00" />
<line x1="384.00" y1="1040.00" x2="384.00" y2="1056.00" />
<line x1="384.00" y1="1072.00" x2="384.00" y2="1168.00" />
<line x1="400.00" y1="224.00" x2="400.00" y2="400.00" />
<line x1="400.00" y1="416.00" x2="400.00" y2="544.00" />
<line x1="400.00" y1="688.00" x2="400.00" y2="720.00" />
<line x1="400.00" y1="736.00" x2="400.00" y2="832.00" />
<line x1="400.00" y1="1024.00" x2="400.00" y2="1040.00" />
<line x1="464.00" y1="224.00" x2="464.00" y2="240.00" />
<line x1="464.00" y1="928.00" x2="464.00" y2="960.00" />
<line x1="496.00" y1="240.00" x2="496.00" y2="272.00" />
<line x1="496.00" y1="896.00" x2="496.00" y2="912.00" />
<line x1="496.00" y1="928.00" x2="496.00" y2="944.00" />
<line x1="528.00" y1="256.00" x2="528.00" y2="272.00" />
<line x1="528.00" y1="288.00" x2="528.00" y2="304.00" />
<line x1="528.00" y1="896.00" x2="528.00" y2="912.00" />
<line x1="1248.00" y1="256.00" x2="1248.00" y2="304.00" />
<line x1="1248.00" y1="464.00" x2="1248.00" y2="576.00" />
<line x1="1248.00" y1="592.00" x2="1248.00" y2="720.00" />
<line x1="1248.00" y1="736.00" x2="1248.00" y2="768.00" />
<line x1="1248.00" y1="800.00" x2="1248.00" y2="880.00" />
<line x1="672.00" y1="272.00" x2="672.00" y2="304.00" />
<line x1="672.00" y1="432.00" x2="672.00" y2="576.00" />
<line x1="672.00" y1="752.00" x2="672.00" y2="768.00" />
<line x1="672.00" y1="1024.00" x2="672.00" y2="1040.00" />
<line x1="672.00" y1="1072.00" x2="672.00" y2="1120.00" />
<line x1="672.00" y1="1136.00" x2="672.00" y2="1168.00" />
<line x1="704.00" y1="272.00" x2="704.00" y2="304.00" />
<line x1="704.00" y1="336.00" x2="704.00" y2="400.00" />
<line x1="704.00" y1="576.00" x2="704.00" y2="608.00" />
<line x1="704.00" y1="624.00" x2="704.00" y2="720.00" />
<line x1="704.00" y1="736.00" x2="704.00" y2="784.00" />
<line x1="704.00" y1="800.00" x2="704.00" y2="1056.00" />
<line x1="704.00" y1="1088.00" x2="704.00" y2="1136.00" />
<line x1="976.00" y1="272.00" x2="976.00" y2="304.00" />
<line x1="976.00" y1="1264.00" x2="976.00" y2="1296.00" />
<line x1="976.00" y1="1312.00" x2="976.00" y2="1344.00" />
<line x1="576.00" y1="288.00" x2="576.00" y2="320.00" />
<line x1="576.00" y1="336.00" x2="576.00" y2="352.00" />
<line x1="576.00" y1="832.00" x2="576.00" y2="848.00" />
<line x1="576.00" y1="864.00" x2="576.00" y2="880.00" />
<line x1="160.00" y1="304.00" x2="160.00" y2="368.00" />
<line x1="160.00" y1="448.00" x2="160.00" y2="464.00" />
<line x1="368.00" y1="304.00" x2="368.00" y2="368.00" />
<line x1="368.00" y1="512.00" x2="368.00" y2="528.00" />
<line x1="368.00" y1="704.00" x2="368.00" y2="720.00" />
<line x1="368.00" y1="1168.00" x2="368.00" y2="1440.00" />
<line x1="560.00" y1="304.00" x2="560.00" y2="336.00" />
<line x1="560.00" y1="848.00" x2="560.00" y2="864.00" />
<line x1="560.00" y1="880.00" x2="560.00" y2="896.00" />
<line x1="688.00" y1="304.00" x2="688.00" y2="400.00" />
<line x1="688.00" y1="576.00" x2="688.00" y2="608.00" />
<line x1="688.00" y1="624.00" x2="688.00" y2="720.00" />
<line x1="688.00" y1="752.00" x2="688.00" y2="1040.00" />
<line x1="688.00" y1="1072.00" x2="688.00" y2="1120.00" />
<line x1="720.00" y1="304.00" x2="720.00" y2="320.00" />
<line x1="720.00" y1="336.00" x2="720.00" y2="352.00" />
<line x1="720.00" y1="416.00" x2="720.00" y2="448.00" />
<line x1="720.00" y1="512.00" x2="720.00" y2="576.00" />
<line x1="720.00" y1="800.00" x2="720.00" y2="816.00" />
<line x1="720.00" y1="1088.00" x2="720.00" y2="1120.00" />
<line x1="896.00" y1="304.00" x2="896.00" y2="400.00" />
<line x1="896.00" y1="1152.00" x2="896.00" y2="1184.00" />
<line x1="896.00" y1="1200.00" x2="896.00" y2="1232.00" />
<line x1="896.00" y1="1264.00" x2="896.00" y2="1296.00" />
<line x1="992.00" y1="304.00" x2="992.00" y2="320.00" />
<line x1="992.00" y1="352.00" x2="992.00" y2="400.00" />
<line x1="992.00" y1="1152.00" x2="992.00" y2="1184.00" />
<line x1="992.00" y1="1200.00" x2="992.00" y2="1264.00" />
<line x1="992.00" y1="1280.00" x2="992.00" y2="1312.00" />
<line x1="992.00" y1="1360.00" x2="992.00" y2="1392.00" />
<line x1="1360.00" y1="304.00" x2="1360.00" y2="464.00" />
<line x1="1360.00" y1="624.00" x2="1360.00" y2="656.00" />
<line x1="1360.00" y1="704.00" x2="1360.00" y2="720.00" />
<line x1="1360.00" y1="736.00" x2="1360.00" y2="832.00" />
<line x1="80.00" y1="320.00" x2="80.00" y2="480.00" />
<line x1="80.00" y1="512.00" x2="80.00" y2="896.00" />
<line x1="80.00" y1="1056.00" x2="80.00" y2="1360.00" />
<line x1="128.00" y1="320.00" x2="128.00" y2="400.00" />
<line x1="128.00" y1="416.00" x2="128.00" y2="448.00" />
<line x1="128.00" y1="480.00" x2="128.00" y2="512.00" />
<line x1="128.00" y1="1360.00" x2="128.00" y2="1424.00" />
<line x1="128.00" y1="1440.00" x2="128.00" y2="1504.00" />
<line x1="736.00" y1="320.00" x2="736.00" y2="336.00" />
<line x1="736.00" y1="352.00" x2="736.00" y2="368.00" />
<line x1="736.00" y1="448.00" x2="736.00" y2="480.00" />
<line x1="736.00" y1="784.00" x2="736.00" y2="800.00" />
<line x1="736.00" y1="816.00" x2="736.00" y2="832.00" />
<line x1="736.00" y1="1072.00" x2="736.00" y2="1104.00" />
<line x1="1008.00" y1="320.00" x2="1008.00" y2="336.00" />
<line x1="1008.00" y1="352.00" x2="1008.00" y2="368.00" />
<line x1="1008.00" y1="1248.00" x2="1008.00" y2="1264.00" />
<line x1="1008.00" y1="1344.00" x2="1008.00" y2="1376.00" />
<line x1="1008.00" y1="1408.00" x2="1008.00" y2="1456.00" />
<line x1="752.00" y1="336.00" x2="752.00" y2="352.00" />
<line x1="752.00" y1="368.00" x2="752.00" y2="384.00" />
<line x1="752.00" y1="480.00" x2="752.00" y2="496.00" />
<line x1="752.00" y1="800.00" x2="752.00" y2="816.00" />
<line x1="752.00" y1="832.00" x2="752.00" y2="848.00" />
<line x1="752.00" y1="1120.00" x2="752.00" y2="1152.00" />
<line x1="1024.00" y1="336.00" x2="1024.00" y2="352.00" />
<line x1="1024.00" y1="1216.00" x2="1024.00" y2="1248.00" />
<line x1="1024.00" y1="1264.00" x2="1024.00" y2="1280.00" />
<line x1="1024.00" y1="1392.00" x2="1024.00" y2="1408.00" />
<line x1="640.00" y1="352.00" x2="640.00" y2="368.00" />
<line x1="640.00" y1="384.00" x2="640.00" y2="400.00" />
<line x1="640.00" y1="752.00" x2="640.00" y2="784.00" />
<line x1="640.00" y1="992.00" x2="640.00" y2="1008.00" />
<line x1="640.00" y1="1024.00" x2="640.00" y2="1040.00" />
<line x1="640.00" y1="1168.00" x2="640.00" y2="1408.00" />
<line x1="768.00" y1="352.00" x2="768.00" y2="368.00" />
<line x1="768.00" y1="512.00" x2="768.00" y2="544.00" />
<line x1="768.00" y1="816.00" x2="768.00" y2="832.00" />
<line x1="768.00" y1="848.00" x2="768.00" y2="880.00" />
<line x1="768.00" y1="1104.00" x2="768.00" y2="1136.00" />
<line x1="768.00" y1="1152.00" x2="768.00" y2="1168.00" />
<line x1="1056.00" y1="352.00" x2="1056.00" y2="384.00" />
<line x1="1056.00" y1="1216.00" x2="1056.00" y2="1232.00" />
<line x1="224.00" y1="368.00" x2="224.00" y2="384.00" />
<line x1="224.00" y1="848.00" x2="224.00" y2="880.00" />
<line x1="224.00" y1="896.00" x2="224.00" y2="912.00" />
<line x1="656.00" y1="368.00" x2="656.00" y2="400.00" />
<line x1="656.00" y1="416.00" x2="656.00" y2="432.00" />
<line x1="656.00" y1="736.00" x2="656.00" y2="752.00" />
<line x1="656.00" y1="768.00" x2="656.00" y2="800.00" />
<line x1="656.00" y1="1008.00" x2="656.00" y2="1024.00" />
<line x1="656.00" y1="1040.00" x2="656.00" y2="1056.00" />
<line x1="656.00" y1="1168.00" x2="656.00" y2="1184.00" />
<line x1="1040.00" y1="368.00" x2="1040.00" y2="400.00" />
<line x1="1040.00" y1="512.00" x2="1040.00" y2="560.00" />
<line x1="1040.00" y1="1200.00" x2="1040.00" y2="1216.00" />
<line x1="1040.00" y1="1232.00" x2="1040.00" y2="1264.00" />
<line x1="1040.00" y1="1376.00" x2="1040.00" y2="1408.00" />
<line x1="208.00" y1="384.00" x2="208.00" y2="400.00" />
<line x1="208.00" y1="416.00" x2="208.00" y2="432.00" />
<line x1="208.00" y1="912.00" x2="208.00" y2="928.00" />
<line x1="240.00" y1="384.00" x2="240.00" y2="400.00" />
<line x1="240.00" y1="864.00" x2="240.00" y2="880.00" />
<line x1="816.00" y1="384.00" x2="816.00" y2="400.00" />
<line x1="816.00" y1="544.00" x2="816.00" y2="560.00" />
<line x1="816.00" y1="576.00" x2="816.00" y2="608.00" />
<line x1="816.00" y1="624.00" x2="816.00" y2="688.00" />
<line x1="816.00" y1="912.00" x2="816.00" y2="1008.00" />
<line x1="816.00" y1="1168.00" x2="816.00" y2="1184.00" />
<line x1="816.00" y1="1200.00" x2="816.00" y2="1216.00" />
<line x1="1072.00" y1="384.00" x2="1072.00" y2="400.00" />
<line x1="1072.00" y1="1168.00" x2="1072.00" y2="1184.00" />
<line x1="1072.00" y1="1200.00" x2="1072.00" y2="1216.00" />
<line x1="176.00" y1="416.00" x2="176.00" y2="432.00" />
<line x1="848.00" y1="416.00" x2="848.00" y2="448.00" />
<line x1="848.00" y1="464.00" x2="848.00" y2="496.00" />
<line x1="848.00" y1="512.00" x2="848.00" y2="560.00" />
<line x1="848.00" y1="688.00" x2="848.00" y2="720.00" />
<line x1="848.00" y1="736.00" x2="848.00" y2="864.00" />
<line x1="848.00" y1="1008.00" x2="848.00" y2="1056.00" />
<line x1="848.00" y1="1072.00" x2="848.00" y2="1184.00" />
<line x1="848.00" y1="1232.00" x2="848.00" y2="1408.00" />
<line x1="1088.00" y1="416.00" x2="1088.00" y2="448.00" />
<line x1="1088.00" y1="560.00" x2="1088.00" y2="608.00" />
<line x1="1088.00" y1="624.00" x2="1088.00" y2="720.00" />
<line x1="1088.00" y1="736.00" x2="1088.00" y2="1008.00" />
<line x1="1088.00" y1="1088.00" x2="1088.00" y2="1168.00" />
<line x1="1104.00" y1="416.00" x2="1104.00" y2="432.00" />
<line x1="1104.00" y1="560.00" x2="1104.00" y2="608.00" />
<line x1="1104.00" y1="624.00" x2="1104.00" y2="720.00" />
<line x1="1104.00" y1="736.00" x2="1104.00" y2="800.00" />
<line x1="1104.00" y1="816.00" x2="1104.00" y2="1008.00" />
<line x1="1104.00" y1="1088.00" x2="1104.00" y2="1184.00" />
<line x1="1104.00" y1="1408.00" x2="1104.00" y2="1456.00" />
<line x1="144.00" y1="432.00" x2="144.00" y2="448.00" />
<line x1="144.00" y1="464.00" x2="144.00" y2="480.00" />
<line x1="192.00" y1="432.00" x2="192.00" y2="448.00" />
<line x1="192.00" y1="880.00" x2="192.00" y2="896.00" />
<line x1="192.00" y1="928.00" x2="192.00" y2="976.00" />
<line x1="192.00" y1="992.00" x2="192.00" y2="1056.00" />
<line x1="832.00" y1="432.00" x2="832.00" y2="464.00" />
<line x1="832.00" y1="1216.00" x2="832.00" y2="1232.00" />
<line x1="1136.00" y1="432.00" x2="1136.00" y2="464.00" />
<line x1="1136.00" y1="480.00" x2="1136.00" y2="496.00" />
<line x1="864.00" y1="448.00" x2="864.00" y2="496.00" />
<line x1="864.00" y1="512.00" x2="864.00" y2="576.00" />
<line x1="864.00" y1="688.00" x2="864.00" y2="720.00" />
<line x1="864.00" y1="736.00" x2="864.00" y2="864.00" />
<line x1="864.00" y1="1008.00" x2="864.00" y2="1040.00" />
<line x1="864.00" y1="1072.00" x2="864.00" y2="1184.00" />
<line x1="864.00" y1="1200.00" x2="864.00" y2="1216.00" />
<line x1="864.00" y1="1248.00" x2="864.00" y2="1344.00" />
<line x1="1120.00" y1="448.00" x2="1120.00" y2="480.00" />
<line x1="1120.00" y1="1104.00" x2="1120.00" y2="1184.00" />
<line x1="1120.00" y1="1200.00" x2="1120.00" y2="1264.00" />
<line x1="1152.00" y1="464.00" x2="1152.00" y2="480.00" />
<line x1="1152.00" y1="512.00" x2="1152.00" y2="560.00" />
<line x1="1280.00" y1="464.00" x2="1280.00" y2="592.00" />
<line x1="1280.00" y1="640.00" x2="1280.00" y2="720.00" />
<line x1="1280.00" y1="752.00" x2="1280.00" y2="1104.00" />
<line x1="96.00" y1="480.00" x2="96.00" y2="512.00" />
<line x1="96.00" y1="736.00" x2="96.00" y2="896.00" />
<line x1="96.00" y1="1056.00" x2="96.00" y2="1360.00" />
<line x1="112.00" y1="512.00" x2="112.00" y2="720.00" />
<line x1="288.00" y1="528.00" x2="288.00" y2="544.00" />
<line x1="288.00" y1="688.00" x2="288.00" y2="704.00" />
<line x1="288.00" y1="800.00" x2="288.00" y2="816.00" />
<line x1="288.00" y1="832.00" x2="288.00" y2="848.00" />
<line x1="416.00" y1="544.00" x2="416.00" y2="576.00" />
<line x1="416.00" y1="656.00" x2="416.00" y2="688.00" />
<line x1="416.00" y1="992.00" x2="416.00" y2="1008.00" />
<line x1="432.00" y1="576.00" x2="432.00" y2="608.00" />
<line x1="432.00" y1="624.00" x2="432.00" y2="656.00" />
<line x1="432.00" y1="992.00" x2="432.00" y2="1024.00" />
<line x1="1296.00" y1="592.00" x2="1296.00" y2="624.00" />
<line x1="1296.00" y1="640.00" x2="1296.00" y2="656.00" />
<line x1="1312.00" y1="624.00" x2="1312.00" y2="640.00" />
<line x1="1312.00" y1="656.00" x2="1312.00" y2="672.00" />
<line x1="1312.00" y1="736.00" x2="1312.00" y2="752.00" />
<line x1="1312.00" y1="1104.00" x2="1312.00" y2="1264.00" />
<line x1="1440.00" y1="624.00" x2="1440.00" y2="832.00" />
<line x1="1328.00" y1="640.00" x2="1328.00" y2="656.00" />
<line x1="1344.00" y1="672.00" x2="1344.00" y2="704.00" />
<line x1="336.00" y1="736.00" x2="336.00" y2="752.00" />
<line x1="336.00" y1="768.00" x2="336.00" y2="800.00" />
<line x1="336.00" y1="832.00" x2="336.00" y2="880.00" />
<line x1="336.00" y1="896.00" x2="336.00" y2="928.00" />
<line x1="336.00" y1="960.00" x2="336.00" y2="976.00" />
<line x1="336.00" y1="992.00" x2="336.00" y2="1168.00" />
<line x1="352.00" y1="736.00" x2="352.00" y2="768.00" />
<line x1="352.00" y1="1168.00" x2="352.00" y2="1424.00" />
<line x1="304.00" y1="784.00" x2="304.00" y2="800.00" />
<line x1="304.00" y1="816.00" x2="304.00" y2="832.00" />
<line x1="448.00" y1="832.00" x2="448.00" y2="928.00" />
<line x1="448.00" y1="960.00" x2="448.00" y2="976.00" />
<line x1="880.00" y1="864.00" x2="880.00" y2="1008.00" />
<line x1="880.00" y1="1216.00" x2="880.00" y2="1232.00" />
<line x1="880.00" y1="1248.00" x2="880.00" y2="1264.00" />
<line x1="1232.00" y1="880.00" x2="1232.00" y2="1104.00" />
<line x1="32.00" y1="896.00" x2="32.00" y2="1056.00" />
<line x1="32.00" y1="1360.00" x2="32.00" y2="1504.00" />
<line x1="480.00" y1="912.00" x2="480.00" y2="928.00" />
<line x1="480.00" y1="944.00" x2="480.00" y2="976.00" />
<line x1="912.00" y1="1264.00" x2="912.00" y2="1280.00" />
<line x1="912.00" y1="1328.00" x2="912.00" y2="1344.00" />
<line x1="928.00" y1="1296.00" x2="928.00" y2="1328.00" />
<line x1="928.00" y1="1344.00" x2="928.00" y2="1408.00" />
  </g>
  <g class="features">
<g data-feature-type="stairsDown"><line data-feature-type="stairsDown" x1="354.24" y1="595.36" x2="365.76" y2="595.36" /><line x1="354.65" y1="597.68" x2="365.35" y2="597.68" /><line x1="355.07" y1="600.00" x2="364.93" y2="600.00" /><line x1="355.48" y1="602.32" x2="364.52" y2="602.32" /><line x1="355.90" y1="604.64" x2="364.10" y2="604.64" /></g>
<g data-feature-type="stairsUp"><line data-feature-type="stairsUp" x1="691.90" y1="163.36" x2="700.10" y2="163.36" /><line x1="691.48" y1="165.68" x2="700.52" y2="165.68" /><line x1="691.07" y1="168.00" x2="700.93" y2="168.00" /><line x1="690.65" y1="170.32" x2="701.35" y2="170.32" /><line x1="690.24" y1="172.64" x2="701.76" y2="172.64" /></g>
<circle data-feature-type="pillar" cx="392.00" cy="136.00" r="3.68" fill="#5c92ab" stroke="none" />
<circle data-feature-type="pillar" cx="392.00" cy="168.00" r="3.68" fill="#5c92ab" stroke="none" />
<circle data-feature-type="pillar" cx="456.00" cy="136.00" r="3.68" fill="#5c92ab" stroke="none" />
<circle data-feature-type="pillar" cx="456.00" cy="168.00" r="3.68" fill="#5c92ab" stroke="none" />
<circle data-feature-type="pillar" cx="712.00" cy="504.00" r="3.68" fill="#5c92ab" stroke="none" />
<g data-feature-type="coffin"><rect x="693.60" y="468.32" width="4.80" height="7.36" rx="0.80" ry="0.80" fill="none" /><line x1="696.00" y1="469.94" x2="696.00" y2="474.06" /></g>
<circle data-feature-type="pillar" cx="872.00" cy="936.00" r="3.68" fill="#5c92ab" stroke="none" />
<g data-feature-type="statue"><circle cx="840.00" cy="920.00" r="3.52" fill="none" /><line x1="837.76" y1="920.00" x2="842.24" y2="920.00" /><line x1="840.00" y1="917.76" x2="840.00" y2="922.24" /><line x1="838.39" y1="918.39" x2="841.61" y2="921.61" /><line x1="838.39" y1="921.61" x2="841.61" y2="918.39" /></g>
<circle data-feature-type="pillar" cx="1080.00" cy="1048.00" r="3.68" fill="#5c92ab" stroke="none" />
<g data-feature-type="altar"><rect x="1061.28" y="1030.40" width="5.44" height="3.20" fill="none" /><line x1="1064.00" y1="1029.44" x2="1064.00" y2="1034.56" /><line x1="1062.40" y1="1032.00" x2="1065.60" y2="1032.00" /></g>
<circle data-feature-type="pillar" cx="1400.00" cy="712.00" r="3.68" fill="#5c92ab" stroke="none" />
<circle data-feature-type="pillar" cx="1400.00" cy="744.00" r="3.68" fill="#5c92ab" stroke="none" />
<g data-feature-type="chest"><rect x="1381.28" y="806.24" width="5.44" height="3.52" fill="none" /><line x1="1381.28" y1="808.00" x2="1386.72" y2="808.00" /><circle cx="1384.00" cy="808.18" r="0.70" fill="#5c92ab" stroke="none" /></g>
<circle data-feature-type="pillar" cx="1208.00" cy="1208.00" r="3.68" fill="#5c92ab" stroke="none" />
<circle data-feature-type="pillar" cx="1192.00" cy="1176.00" r="3.68" fill="#5c92ab" stroke="none" />
<circle data-feature-type="pillar" cx="1240.00" cy="1208.00" r="3.68" fill="#5c92ab" stroke="none" />
<circle data-feature-type="pillar" cx="1208.00" cy="1176.00" r="3.68" fill="#5c92ab" stroke="none" />
<circle data-feature-type="pillar" cx="664.00" cy="1128.00" r="3.68" fill="#5c92ab" stroke="none" />
<g data-feature-type="statue"><circle cx="1208.00" cy="840.00" r="3.52" fill="none" /><line x1="1205.76" y1="840.00" x2="1210.24" y2="840.00" /><line x1="1208.00" y1="837.76" x2="1208.00" y2="842.24" /><line x1="1206.39" y1="838.39" x2="1209.61" y2="841.61" /><line x1="1206.39" y1="841.61" x2="1209.61" y2="838.39" /></g>
<g data-feature-type="coffin"><rect x="1221.60" y="852.32" width="4.80" height="7.36" rx="0.80" ry="0.80" fill="none" /><line x1="1224.00" y1="853.94" x2="1224.00" y2="858.06" /></g>
<path data-feature-type="curtain" d="M 1206.40 819.84 Q 1208.00 822.34 1206.40 824.00 Q 1208.00 825.66 1206.40 828.16" fill="none" /><path d="M 1209.60 819.84 Q 1208.00 822.34 1209.60 824.00 Q 1208.00 825.66 1209.60 828.16" fill="none" />
<g data-feature-type="altar"><rect x="613.28" y="1270.40" width="5.44" height="3.20" fill="none" /><line x1="616.00" y1="1269.44" x2="616.00" y2="1274.56" /><line x1="614.40" y1="1272.00" x2="617.60" y2="1272.00" /></g>
<circle data-feature-type="pillar" cx="1112.00" cy="536.00" r="3.68" fill="#5c92ab" stroke="none" />
<g data-feature-type="statue"><circle cx="1128.00" cy="520.00" r="3.52" fill="none" /><line x1="1125.76" y1="520.00" x2="1130.24" y2="520.00" /><line x1="1128.00" y1="517.76" x2="1128.00" y2="522.24" /><line x1="1126.39" y1="518.39" x2="1129.61" y2="521.61" /><line x1="1126.39" y1="521.61" x2="1129.61" y2="518.39" /></g>
<circle data-feature-type="pillar" cx="968.00" cy="1208.00" r="3.68" fill="#5c92ab" stroke="none" />
<circle data-feature-type="pillar" cx="104.00" cy="1432.00" r="3.68" fill="#5c92ab" stroke="none" />
<g data-feature-type="trap"><rect x="100.64" y="1412.64" width="6.72" height="6.72" fill="none" /><line x1="100.64" y1="1412.64" x2="107.36" y2="1419.36" /><line x1="100.64" y1="1419.36" x2="107.36" y2="1412.64" /></g>
<circle data-feature-type="pillar" cx="1288.00" cy="392.00" r="3.68" fill="#5c92ab" stroke="none" />
<path data-feature-type="curtain" d="M 1302.40 323.84 Q 1304.00 326.34 1302.40 328.00 Q 1304.00 329.66 1302.40 332.16" fill="none" /><path d="M 1305.60 323.84 Q 1304.00 326.34 1305.60 328.00 Q 1304.00 329.66 1305.60 332.16" fill="none" />
<circle data-feature-type="pillar" cx="312.00" cy="600.00" r="3.68" fill="#5c92ab" stroke="none" />
<circle data-feature-type="pillar" cx="360.00" cy="632.00" r="3.68" fill="#5c92ab" stroke="none" />
<circle data-feature-type="pillar" cx="328.00" cy="632.00" r="3.68" fill="#5c92ab" stroke="none" />
<circle data-feature-type="pillar" cx="376.00" cy="600.00" r="3.68" fill="#5c92ab" stroke="none" />
<g data-feature-type="well"><circle cx="344.00" cy="536.00" r="4.00" fill="none" /><circle cx="344.00" cy="536.00" r="2.24" fill="none" /></g>
<circle data-feature-type="pillar" cx="408.00" cy="888.00" r="3.68" fill="#5c92ab" stroke="none" />
<path data-feature-type="curtain" d="M 406.40 899.84 Q 408.00 902.34 406.40 904.00 Q 408.00 905.66 406.40 908.16" fill="none" /><path d="M 409.60 899.84 Q 408.00 902.34 409.60 904.00 Q 408.00 905.66 409.60 908.16" fill="none" />
<circle data-feature-type="pillar" cx="968.00" cy="360.00" r="3.68" fill="#5c92ab" stroke="none" />
<g data-feature-type="statue"><circle cx="920.00" cy="360.00" r="3.52" fill="none" /><line x1="917.76" y1="360.00" x2="922.24" y2="360.00" /><line x1="920.00" y1="357.76" x2="920.00" y2="362.24" /><line x1="918.39" y1="358.39" x2="921.61" y2="361.61" /><line x1="918.39" y1="361.61" x2="921.61" y2="358.39" /></g>
<circle data-feature-type="pillar" cx="88.00" cy="1000.00" r="3.68" fill="#5c92ab" stroke="none" />
<circle data-feature-type="pillar" cx="104.00" cy="968.00" r="3.68" fill="#5c92ab" stroke="none" />
<circle data-feature-type="pillar" cx="152.00" cy="968.00" r="3.68" fill="#5c92ab" stroke="none" />
<circle data-feature-type="pillar" cx="904.00" cy="632.00" r="3.68" fill="#5c92ab" stroke="none" />
<g data-feature-type="chest"><rect x="917.28" y="630.24" width="5.44" height="3.52" fill="none" /><line x1="917.28" y1="632.00" x2="922.72" y2="632.00" /><circle cx="920.00" cy="632.18" r="0.70" fill="#5c92ab" stroke="none" /></g>
<circle data-feature-type="pillar" cx="728.00" cy="152.00" r="3.68" fill="#5c92ab" stroke="none" />
<circle data-feature-type="pillar" cx="696.00" cy="152.00" r="3.68" fill="#5c92ab" stroke="none" />
<circle data-feature-type="pillar" cx="680.00" cy="184.00" r="3.68" fill="#5c92ab" stroke="none" />
<circle data-feature-type="pillar" cx="680.00" cy="152.00" r="3.68" fill="#5c92ab" stroke="none" />
<circle data-feature-type="pillar" cx="904.00" cy="184.00" r="3.68" fill="#5c92ab" stroke="none" />
<circle data-feature-type="pillar" cx="856.00" cy="184.00" r="3.68" fill="#5c92ab" stroke="none" />
<circle data-feature-type="pillar" cx="840.00" cy="216.00" r="3.68" fill="#5c92ab" stroke="none" />
  </g>
  <g class="thresholds">
<g data-threshold-type="locked" stroke="#5c92ab" fill="none" stroke-width="1.52"><rect x="323.52" y="165.76" width="8.96" height="4.48" fill="#ffffff" /><circle cx="328.00" cy="164.77" r="1.61" /></g>
<rect data-threshold-type="door" x="707.52" y="453.76" width="8.96" height="4.48" fill="#ffffff" stroke="#5c92ab" stroke-width="1.52" />
<rect data-threshold-type="door" x="819.52" y="869.76" width="8.96" height="4.48" fill="#ffffff" stroke="#5c92ab" stroke-width="1.52" />
<rect data-threshold-type="door" x="963.52" y="1061.76" width="8.96" height="4.48" fill="#ffffff" stroke="#5c92ab" stroke-width="1.52" />
<rect data-threshold-type="door" x="851.52" y="1349.76" width="8.96" height="4.48" fill="#ffffff" stroke="#5c92ab" stroke-width="1.52" />
<rect data-threshold-type="door" x="1363.52" y="693.76" width="8.96" height="4.48" fill="#ffffff" stroke="#5c92ab" stroke-width="1.52" />
<rect data-threshold-type="door" x="1235.52" y="245.76" width="8.96" height="4.48" fill="#ffffff" stroke="#5c92ab" stroke-width="1.52" />
<rect data-threshold-type="door" x="99.52" y="469.76" width="8.96" height="4.48" fill="#ffffff" stroke="#5c92ab" stroke-width="1.52" />
<g data-threshold-type="secret"><line x1="1219.52" y1="1112.00" x2="1228.48" y2="1112.00" stroke="#5c92ab" stroke-width="1.31" stroke-dasharray="1.31 1.31" /><text x="1229.56" y="1111.10" font-size="5.44" fill="#5c92ab" font-family="Courier New, monospace" font-weight="700">S</text></g>
<rect data-threshold-type="door" x="611.52" y="1109.76" width="8.96" height="4.48" fill="#ffffff" stroke="#5c92ab" stroke-width="1.52" />
<rect data-threshold-type="door" x="1219.52" y="725.76" width="8.96" height="4.48" fill="#ffffff" stroke="#5c92ab" stroke-width="1.52" />
<rect data-threshold-type="door" x="547.52" y="149.76" width="8.96" height="4.48" fill="#ffffff" stroke="#5c92ab" stroke-width="1.52" />
<rect data-threshold-type="door" x="595.52" y="1205.76" width="8.96" height="4.48" fill="#ffffff" stroke="#5c92ab" stroke-width="1.52" />
<rect data-threshold-type="door" x="339.52" y="981.76" width="8.96" height="4.48" fill="#ffffff" stroke="#5c92ab" stroke-width="1.52" />
<rect data-threshold-type="door" x="1139.52" y="501.76" width="8.96" height="4.48" fill="#ffffff" stroke="#5c92ab" stroke-width="1.52" />
<rect data-threshold-type="door" x="899.52" y="1237.76" width="8.96" height="4.48" fill="#ffffff" stroke="#5c92ab" stroke-width="1.52" />
<rect data-threshold-type="door" x="83.52" y="1365.76" width="8.96" height="4.48" fill="#ffffff" stroke="#5c92ab" stroke-width="1.52" />
<rect data-threshold-type="door" x="1235.52" y="453.76" width="8.96" height="4.48" fill="#ffffff" stroke="#5c92ab" stroke-width="1.52" />
<rect data-threshold-type="door" x="387.52" y="533.76" width="8.96" height="4.48" fill="#ffffff" stroke="#5c92ab" stroke-width="1.52" />
<rect data-threshold-type="door" x="387.52" y="837.76" width="8.96" height="4.48" fill="#ffffff" stroke="#5c92ab" stroke-width="1.52" />
<rect data-threshold-type="door" x="915.52" y="389.76" width="8.96" height="4.48" fill="#ffffff" stroke="#5c92ab" stroke-width="1.52" />
<g data-threshold-type="locked" stroke="#5c92ab" fill="none" stroke-width="1.52"><rect x="83.52" y="901.76" width="8.96" height="4.48" fill="#ffffff" /><circle cx="88.00" cy="900.77" r="1.61" /></g>
<rect data-threshold-type="door" x="931.52" y="597.76" width="8.96" height="4.48" fill="#ffffff" stroke="#5c92ab" stroke-width="1.52" />
<rect data-threshold-type="door" x="243.52" y="357.76" width="8.96" height="4.48" fill="#ffffff" stroke="#5c92ab" stroke-width="1.52" />
<rect data-threshold-type="door" x="691.52" y="261.76" width="8.96" height="4.48" fill="#ffffff" stroke="#5c92ab" stroke-width="1.52" />
<rect data-threshold-type="door" x="931.52" y="229.76" width="8.96" height="4.48" fill="#ffffff" stroke="#5c92ab" stroke-width="1.52" />
<rect data-threshold-type="door" x="1027.52" y="1413.76" width="8.96" height="4.48" fill="#ffffff" stroke="#5c92ab" stroke-width="1.52" />
  </g>
  <g class="labels">
<text x="424.00" y="153.92" text-anchor="middle">1</text>
<text x="696.00" y="505.92" text-anchor="middle">2</text>
<text x="856.00" y="937.92" text-anchor="middle">3</text>
<text x="1064.00" y="1049.92" text-anchor="middle">4</text>
<text x="888.00" y="1385.92" text-anchor="middle">5</text>
<text x="1400.00" y="729.92" text-anchor="middle">6</text>
<text x="1240.00" y="233.92" text-anchor="middle">7</text>
<text x="104.00" y="409.92" text-anchor="middle">8</text>
<text x="1224.00" y="1193.92" text-anchor="middle">9</text>
<text x="648.00" y="1129.92" text-anchor="middle">10</text>
<text x="1224.00" y="809.92" text-anchor="middle">11</text>
<text x="568.00" y="169.92" text-anchor="middle">12</text>
<text x="600.00" y="1305.92" text-anchor="middle">13</text>
<text x="360.00" y="1065.92" text-anchor="middle">14</text>
<text x="1096.00" y="537.92" text-anchor="middle">15</text>
<text x="952.00" y="1209.92" text-anchor="middle">16</text>
<text x="88.00" y="1433.92" text-anchor="middle">17</text>
<text x="1272.00" y="393.92" text-anchor="middle">18</text>
<text x="344.00" y="617.92" text-anchor="middle">19</text>
<text x="392.00" y="889.92" text-anchor="middle">20</text>
<text x="952.00" y="361.92" text-anchor="middle">21</text>
<text x="120.00" y="985.92" text-anchor="middle">22</text>
<text x="888.00" y="633.92" text-anchor="middle">23</text>
<text x="264.00" y="345.92" text-anchor="middle">24</text>
<text x="712.00" y="169.92" text-anchor="middle">25</text>
<text x="872.00" y="201.92" text-anchor="middle">26</text>
<text x="1064.00" y="1433.92" text-anchor="middle">27</text>
  </g>
</svg>