<?xml version="1.0" encoding="UTF-8"?>
<svg xmlns="http://www.w3.org/2000/svg" width="1440" height="1536" viewBox="0 0 1440.00 1536.00" role="img" aria-label="MapIR render: Learned Generated Map 7">
  <defs>
    <style>
      .grid { stroke: #d7e7ef; stroke-width: 0.64; opacity: 0.72; }
      .walls { stroke: #6fa8c1; stroke-width: 1.92; fill: none; stroke-linecap: square; }
      .thresholds { fill: none; stroke-linecap: round; }
      .features { stroke: #5c92ab; fill: none; stroke-width: 1.60; stroke-linecap: round; stroke-linejoin: round; }
      .labels { fill: #5c92ab; font-size: 7.20px; font-family: "Courier New", monospace; font-weight: 600; }
    </style>
  </defs>
  <rect x="0" y="0" width="1440.00" height="1536.00" fill="#5d9fbc" />
  <g class="floors">
<rect x="480.00" y="48.00" width="112.00" height="160.00" fill="#fbfdfe" />
<rect x="1264.00" y="96.00" width="128.00" height="144.00" fill="#fbfdfe" />
<rect x="272.00" y="128.00" width="80.00" height="80.00" fill="#fbfdfe" />
<rect x="352.00" y="160.00" width="128.00" height="16.00" fill="#fbfdfe" />
<rect x="592.00" y="160.00" width="672.00" height="16.00" fill="#fbfdfe" />
<rect x="1216.00" y="176.00" width="16.00" height="32.00" fill="#fbfdfe" />
<rect x="240.00" y="192.00" width="32.00" height="48.00" fill="#fbfdfe" />
<rect x="1184.00" y="192.00" width="32.00" height="16.00" fill="#fbfdfe" />
<rect x="224.00" y="208.00" width="16.00" height="48.00" fill="#fbfdfe" />
<rect x="304.00" y="208.00" width="16.00" height="1120.00" fill="#fbfdfe" />
<rect x="528.00" y="208.00" width="16.00" height="1072.00" fill="#fbfdfe" />
<rect x="576.00" y="208.00" width="16.00" height="976.00" fill="#fbfdfe" />
<rect x="720.00" y="208.00" width="144.00" height="160.00" fill="#fbfdfe" />
<rect x="1168.00" y="208.00" width="32.00" height="16.00" fill="#fbfdfe" />
<rect x="208.00" y="224.00" width="16.00" height="64.00" fill="#fbfdfe" />
<rect x="1152.00" y="224.00" width="32.00" height="16.00" fill="#fbfdfe" />
<rect x="144.00" y="240.00" width="64.00" height="64.00" fill="#fbfdfe" />
<rect x="1136.00" y="240.00" width="32.00" height="112.00" fill="#fbfdfe" />
<rect x="1328.00" y="240.00" width="16.00" height="880.00" fill="#fbfdfe" />
<rect x="1056.00" y="256.00" width="80.00" height="96.00" fill="#fbfdfe" />
<rect x="1168.00" y="256.00" width="64.00" height="96.00" fill="#fbfdfe" />
<rect x="224.00" y="272.00" width="80.00" height="16.00" fill="#fbfdfe" />
<rect x="320.00" y="272.00" width="208.00" height="16.00" fill="#fbfdfe" />
<rect x="544.00" y="272.00" width="32.00" height="16.00" fill="#fbfdfe" />
<rect x="256.00" y="288.00" width="48.00" height="80.00" fill="#fbfdfe" />
<rect x="320.00" y="288.00" width="48.00" height="80.00" fill="#fbfdfe" />
<rect x="368.00" y="304.00" width="160.00" height="32.00" fill="#fbfdfe" />
<rect x="544.00" y="304.00" width="32.00" height="16.00" fill="#fbfdfe" />
<rect x="592.00" y="304.00" width="128.00" height="16.00" fill="#fbfdfe" />
<rect x="864.00" y="304.00" width="192.00" height="16.00" fill="#fbfdfe" />
<rect x="608.00" y="320.00" width="16.00" height="624.00" fill="#fbfdfe" />
<rect x="416.00" y="336.00" width="80.00" height="32.00" fill="#fbfdfe" />
<rect x="704.00" y="336.00" width="16.00" height="64.00" fill="#fbfdfe" />
<rect x="1040.00" y="336.00" width="16.00" height="32.00" fill="#fbfdfe" />
<rect x="112.00" y="352.00" width="144.00" height="16.00" fill="#fbfdfe" />
<rect x="688.00" y="352.00" width="16.00" height="48.00" fill="#fbfdfe" />
<rect x="1024.00" y="352.00" width="16.00" height="48.00" fill="#fbfdfe" />
<rect x="1136.00" y="352.00" width="16.00" height="224.00" fill="#fbfdfe" />
<rect x="112.00" y="368.00" width="128.00" height="16.00" fill="#fbfdfe" />
<rect x="336.00" y="368.00" width="48.00" height="16.00" fill="#fbfdfe" />
<rect x="432.00" y="368.00" width="64.00" height="112.00" fill="#fbfdfe" />
<rect x="784.00" y="368.00" width="16.00" height="912.00" fill="#fbfdfe" />
<rect x="112.00" y="384.00" width="112.00" height="128.00" fill="#fbfdfe" />
<rect x="368.00" y="384.00" width="16.00" height="32.00" fill="#fbfdfe" />
<rect x="672.00" y="384.00" width="16.00" height="128.00" fill="#fbfdfe" />
<rect x="992.00" y="384.00" width="32.00" height="16.00" fill="#fbfdfe" />
<rect x="384.00" y="400.00" width="16.00" height="48.00" fill="#fbfdfe" />
<rect x="496.00" y="400.00" width="16.00" height="48.00" fill="#fbfdfe" />
<rect x="656.00" y="400.00" width="16.00" height="112.00" fill="#fbfdfe" />
<rect x="976.00" y="400.00" width="32.00" height="16.00" fill="#fbfdfe" />
<rect x="400.00" y="416.00" width="16.00" height="32.00" fill="#fbfdfe" />
<rect x="512.00" y="416.00" width="16.00" height="176.00" fill="#fbfdfe" />
<rect x="544.00" y="416.00" width="32.00" height="112.00" fill="#fbfdfe" />
<rect x="592.00" y="416.00" width="16.00" height="528.00" fill="#fbfdfe" />
<rect x="624.00" y="416.00" width="32.00" height="96.00" fill="#fbfdfe" />
<rect x="976.00" y="416.00" width="16.00" height="32.00" fill="#fbfdfe" />
<rect x="224.00" y="432.00" width="80.00" height="16.00" fill="#fbfdfe" />
<rect x="320.00" y="432.00" width="64.00" height="16.00" fill="#fbfdfe" />
<rect x="416.00" y="432.00" width="16.00" height="16.00" fill="#fbfdfe" />
<rect x="960.00" y="432.00" width="16.00" height="32.00" fill="#fbfdfe" />
<rect x="928.00" y="448.00" width="32.00" height="16.00" fill="#fbfdfe" />
<rect x="928.00" y="464.00" width="16.00" height="32.00" fill="#fbfdfe" />
<rect x="464.00" y="480.00" width="32.00" height="16.00" fill="#fbfdfe" />
<rect x="800.00" y="480.00" width="80.00" height="176.00" fill="#fbfdfe" />
<rect x="896.00" y="480.00" width="32.00" height="16.00" fill="#fbfdfe" />
<rect x="1264.00" y="480.00" width="64.00" height="64.00" fill="#fbfdfe" />
<rect x="1344.00" y="480.00" width="16.00" height="64.00" fill="#fbfdfe" />
<rect x="480.00" y="496.00" width="16.00" height="32.00" fill="#fbfdfe" />
<rect x="880.00" y="496.00" width="32.00" height="16.00" fill="#fbfdfe" />
<rect x="496.00" y="512.00" width="16.00" height="16.00" fill="#fbfdfe" />
<rect x="880.00" y="512.00" width="16.00" height="16.00" fill="#fbfdfe" />
<rect x="1056.00" y="512.00" width="80.00" height="16.00" fill="#fbfdfe" />
<rect x="1152.00" y="512.00" width="112.00" height="16.00" fill="#fbfdfe" />
<rect x="544.00" y="528.00" width="16.00" height="48.00" fill="#fbfdfe" />
<rect x="1040.00" y="528.00" width="32.00" height="16.00" fill="#fbfdfe" />
<rect x="624.00" y="544.00" width="32.00" height="16.00" fill="#fbfdfe" />
<rect x="1040.00" y="544.00" width="16.00" height="32.00" fill="#fbfdfe" />
<rect x="1312.00" y="544.00" width="16.00" height="32.00" fill="#fbfdfe" />
<rect x="560.00" y="560.00" width="16.00" height="32.00" fill="#fbfdfe" />
<rect x="640.00" y="560.00" width="16.00" height="112.00" fill="#fbfdfe" />
<rect x="880.00" y="560.00" width="160.00" height="16.00" fill="#fbfdfe" />
<rect x="1056.00" y="560.00" width="80.00" height="16.00" fill="#fbfdfe" />
<rect x="1152.00" y="560.00" width="160.00" height="16.00" fill="#fbfdfe" />
<rect x="496.00" y="576.00" width="16.00" height="32.00" fill="#fbfdfe" />
<rect x="624.00" y="576.00" width="16.00" height="80.00" fill="#fbfdfe" />
<rect x="656.00" y="576.00" width="112.00" height="80.00" fill="#fbfdfe" />
<rect x="1008.00" y="576.00" width="32.00" height="16.00" fill="#fbfdfe" />
<rect x="464.00" y="592.00" width="32.00" height="16.00" fill="#fbfdfe" />
<rect x="992.00" y="592.00" width="32.00" height="16.00" fill="#fbfdfe" />
<rect x="464.00" y="608.00" width="16.00" height="32.00" fill="#fbfdfe" />
<rect x="960.00" y="608.00" width="48.00" height="16.00" fill="#fbfdfe" />
<rect x="448.00" y="624.00" width="16.00" height="32.00" fill="#fbfdfe" />
<rect x="944.00" y="624.00" width="32.00" height="16.00" fill="#fbfdfe" />
<rect x="432.00" y="640.00" width="16.00" height="32.00" fill="#fbfdfe" />
<rect x="928.00" y="640.00" width="32.00" height="16.00" fill="#fbfdfe" />
<rect x="1360.00" y="640.00" width="48.00" height="176.00" fill="#fbfdfe" />
<rect x="400.00" y="656.00" width="32.00" height="16.00" fill="#fbfdfe" />
<rect x="656.00" y="656.00" width="32.00" height="32.00" fill="#fbfdfe" />
<rect x="704.00" y="656.00" width="48.00" height="16.00" fill="#fbfdfe" />
<rect x="848.00" y="656.00" width="16.00" height="256.00" fill="#fbfdfe" />
<rect x="912.00" y="656.00" width="32.00" height="16.00" fill="#fbfdfe" />
<rect x="400.00" y="672.00" width="16.00" height="32.00" fill="#fbfdfe" />
<rect x="688.00" y="672.00" width="16.00" height="32.00" fill="#fbfdfe" />
<rect x="736.00" y="672.00" width="32.00" height="32.00" fill="#fbfdfe" />
<rect x="896.00" y="672.00" width="32.00" height="16.00" fill="#fbfdfe" />
<rect x="384.00" y="688.00" width="16.00" height="544.00" fill="#fbfdfe" />
<rect x="672.00" y="688.00" width="16.00" height="496.00" fill="#fbfdfe" />
<rect x="704.00" y="688.00" width="16.00" height="48.00" fill="#fbfdfe" />
<rect x="768.00" y="688.00" width="16.00" height="224.00" fill="#fbfdfe" />
<rect x="896.00" y="688.00" width="16.00" height="240.00" fill="#fbfdfe" />
<rect x="1136.00" y="688.00" width="144.00" height="128.00" fill="#fbfdfe" />
<rect x="864.00" y="704.00" width="32.00" height="208.00" fill="#fbfdfe" />
<rect x="544.00" y="720.00" width="32.00" height="16.00" fill="#fbfdfe" />
<rect x="624.00" y="720.00" width="48.00" height="16.00" fill="#fbfdfe" />
<rect x="688.00" y="720.00" width="16.00" height="16.00" fill="#fbfdfe" />
<rect x="720.00" y="720.00" width="48.00" height="16.00" fill="#fbfdfe" />
<rect x="800.00" y="720.00" width="48.00" height="192.00" fill="#fbfdfe" />
<rect x="912.00" y="720.00" width="224.00" height="16.00" fill="#fbfdfe" />
<rect x="1280.00" y="720.00" width="48.00" height="16.00" fill="#fbfdfe" />
<rect x="1344.00" y="720.00" width="16.00" height="16.00" fill="#fbfdfe" />
<rect x="736.00" y="736.00" width="16.00" height="32.00" fill="#fbfdfe" />
<rect x="912.00" y="736.00" width="16.00" height="208.00" fill="#fbfdfe" />
<rect x="320.00" y="752.00" width="64.00" height="16.00" fill="#fbfdfe" />
<rect x="400.00" y="752.00" width="128.00" height="16.00" fill="#fbfdfe" />
<rect x="544.00" y="752.00" width="32.00" height="16.00" fill="#fbfdfe" />
<rect x="624.00" y="752.00" width="48.00" height="16.00" fill="#fbfdfe" />
<rect x="688.00" y="752.00" width="48.00" height="16.00" fill="#fbfdfe" />
<rect x="752.00" y="752.00" width="16.00" height="32.00" fill="#fbfdfe" />
<rect x="928.00" y="752.00" width="208.00" height="16.00" fill="#fbfdfe" />
<rect x="320.00" y="784.00" width="32.00" height="16.00" fill="#fbfdfe" />
<rect x="336.00" y="800.00" width="16.00" height="32.00" fill="#fbfdfe" />
<rect x="352.00" y="816.00" width="16.00" height="32.00" fill="#fbfdfe" />
<rect x="752.00" y="816.00" width="16.00" height="48.00" fill="#fbfdfe" />
<rect x="1216.00" y="816.00" width="16.00" height="176.00" fill="#fbfdfe" />
<rect x="368.00" y="832.00" width="16.00" height="16.00" fill="#fbfdfe" />
<rect x="928.00" y="832.00" width="16.00" height="32.00" fill="#fbfdfe" />
<rect x="736.00" y="848.00" width="16.00" height="32.00" fill="#fbfdfe" />
<rect x="944.00" y="848.00" width="16.00" height="48.00" fill="#fbfdfe" />
<rect x="400.00" y="864.00" width="16.00" height="32.00" fill="#fbfdfe" />
<rect x="560.00" y="864.00" width="16.00" height="80.00" fill="#fbfdfe" />
<rect x="624.00" y="864.00" width="32.00" height="96.00" fill="#fbfdfe" />
<rect x="704.00" y="864.00" width="32.00" height="16.00" fill="#fbfdfe" />
<rect x="416.00" y="880.00" width="32.00" height="16.00" fill="#fbfdfe" />
<rect x="704.00" y="880.00" width="16.00" height="32.00" fill="#fbfdfe" />
<rect x="960.00" y="880.00" width="32.00" height="16.00" fill="#fbfdfe" />
<rect x="1136.00" y="880.00" width="80.00" height="48.00" fill="#fbfdfe" />
<rect x="1232.00" y="880.00" width="80.00" height="48.00" fill="#fbfdfe" />
<rect x="432.00" y="896.00" width="16.00" height="32.00" fill="#fbfdfe" />
<rect x="656.00" y="896.00" width="16.00" height="16.00" fill="#fbfdfe" />
<rect x="688.00" y="896.00" width="16.00" height="16.00" fill="#fbfdfe" />
<rect x="720.00" y="896.00" width="48.00" height="16.00" fill="#fbfdfe" />
<rect x="976.00" y="896.00" width="160.00" height="16.00" fill="#fbfdfe" />
<rect x="448.00" y="912.00" width="16.00" height="32.00" fill="#fbfdfe" />
<rect x="864.00" y="912.00" width="16.00" height="448.00" fill="#fbfdfe" />
<rect x="928.00" y="912.00" width="16.00" height="48.00" fill="#fbfdfe" />
<rect x="464.00" y="928.00" width="16.00" height="32.00" fill="#fbfdfe" />
<rect x="544.00" y="928.00" width="16.00" height="32.00" fill="#fbfdfe" />
<rect x="656.00" y="928.00" width="16.00" height="32.00" fill="#fbfdfe" />
<rect x="480.00" y="944.00" width="32.00" height="16.00" fill="#fbfdfe" />
<rect x="944.00" y="944.00" width="16.00" height="32.00" fill="#fbfdfe" />
<rect x="496.00" y="960.00" width="32.00" height="48.00" fill="#fbfdfe" />
<rect x="608.00" y="960.00" width="32.00" height="16.00" fill="#fbfdfe" />
<rect x="960.00" y="960.00" width="32.00" height="16.00" fill="#fbfdfe" />
<rect x="608.00" y="976.00" width="16.00" height="32.00" fill="#fbfdfe" />
<rect x="976.00" y="976.00" width="32.00" height="32.00" fill="#fbfdfe" />
<rect x="1200.00" y="976.00" width="16.00" height="32.00" fill="#fbfdfe" />
<rect x="592.00" y="992.00" width="16.00" height="32.00" fill="#fbfdfe" />
<rect x="1008.00" y="992.00" width="16.00" height="32.00" fill="#fbfdfe" />
<rect x="1184.00" y="992.00" width="16.00" height="48.00" fill="#fbfdfe" />
<rect x="480.00" y="1008.00" width="32.00" height="16.00" fill="#fbfdfe" />
<rect x="544.00" y="1008.00" width="32.00" height="160.00" fill="#fbfdfe" />
<rect x="992.00" y="1008.00" width="16.00" height="16.00" fill="#fbfdfe" />
<rect x="1024.00" y="1008.00" width="16.00" height="32.00" fill="#fbfdfe" />
<rect x="352.00" y="1024.00" width="32.00" height="176.00" fill="#fbfdfe" />
<rect x="400.00" y="1024.00" width="32.00" height="176.00" fill="#fbfdfe" />
<rect x="464.00" y="1024.00" width="32.00" height="16.00" fill="#fbfdfe" />
<rect x="1040.00" y="1024.00" width="16.00" height="48.00" fill="#fbfdfe" />
<rect x="1152.00" y="1024.00" width="32.00" height="16.00" fill="#fbfdfe" />
<rect x="432.00" y="1040.00" width="48.00" height="16.00" fill="#fbfdfe" />
<rect x="592.00" y="1040.00" width="16.00" height="144.00" fill="#fbfdfe" />
<rect x="1056.00" y="1040.00" width="16.00" height="48.00" fill="#fbfdfe" />
<rect x="1136.00" y="1040.00" width="32.00" height="16.00" fill="#fbfdfe" />
<rect x="432.00" y="1056.00" width="16.00" height="16.00" fill="#fbfdfe" />
<rect x="608.00" y="1056.00" width="16.00" height="128.00" fill="#fbfdfe" />
<rect x="1072.00" y="1056.00" width="16.00" height="96.00" fill="#fbfdfe" />
<rect x="1136.00" y="1056.00" width="16.00" height="32.00" fill="#fbfdfe" />
<rect x="512.00" y="1072.00" width="16.00" height="48.00" fill="#fbfdfe" />
<rect x="624.00" y="1072.00" width="16.00" height="80.00" fill="#fbfdfe" />
<rect x="1088.00" y="1072.00" width="48.00" height="16.00" fill="#fbfdfe" />
<rect x="480.00" y="1088.00" width="32.00" height="32.00" fill="#fbfdfe" />
<rect x="1088.00" y="1088.00" width="32.00" height="48.00" fill="#fbfdfe" />
<rect x="320.00" y="1104.00" width="32.00" height="16.00" fill="#fbfdfe" />
<rect x="432.00" y="1104.00" width="48.00" height="16.00" fill="#fbfdfe" />
<rect x="640.00" y="1104.00" width="32.00" height="16.00" fill="#fbfdfe" />
<rect x="688.00" y="1104.00" width="96.00" height="16.00" fill="#fbfdfe" />
<rect x="800.00" y="1104.00" width="64.00" height="16.00" fill="#fbfdfe" />
<rect x="880.00" y="1104.00" width="192.00" height="16.00" fill="#fbfdfe" />
<rect x="1120.00" y="1104.00" width="208.00" height="16.00" fill="#fbfdfe" />
<rect x="448.00" y="1120.00" width="48.00" height="16.00" fill="#fbfdfe" />
<rect x="656.00" y="1120.00" width="16.00" height="16.00" fill="#fbfdfe" />
<rect x="704.00" y="1120.00" width="80.00" height="112.00" fill="#fbfdfe" />
<rect x="800.00" y="1120.00" width="48.00" height="112.00" fill="#fbfdfe" />
<rect x="1120.00" y="1120.00" width="32.00" height="32.00" fill="#fbfdfe" />
<rect x="432.00" y="1136.00" width="32.00" height="16.00" fill="#fbfdfe" />
<rect x="1040.00" y="1136.00" width="32.00" height="16.00" fill="#fbfdfe" />
<rect x="1152.00" y="1136.00" width="80.00" height="144.00" fill="#fbfdfe" />
<rect x="432.00" y="1152.00" width="16.00" height="16.00" fill="#fbfdfe" />
<rect x="688.00" y="1152.00" width="16.00" height="32.00" fill="#fbfdfe" />
<rect x="1040.00" y="1152.00" width="16.00" height="32.00" fill="#fbfdfe" />
<rect x="1136.00" y="1152.00" width="16.00" height="96.00" fill="#fbfdfe" />
<rect x="1232.00" y="1152.00" width="16.00" height="128.00" fill="#fbfdfe" />
<rect x="624.00" y="1168.00" width="48.00" height="16.00" fill="#fbfdfe" />
<rect x="1008.00" y="1168.00" width="32.00" height="16.00" fill="#fbfdfe" />
<rect x="1248.00" y="1168.00" width="16.00" height="80.00" fill="#fbfdfe" />
<rect x="1008.00" y="1184.00" width="16.00" height="32.00" fill="#fbfdfe" />
<rect x="1328.00" y="1184.00" width="80.00" height="176.00" fill="#fbfdfe" />
<rect x="976.00" y="1200.00" width="32.00" height="16.00" fill="#fbfdfe" />
<rect x="352.00" y="1216.00" width="32.00" height="16.00" fill="#fbfdfe" />
<rect x="960.00" y="1216.00" width="32.00" height="16.00" fill="#fbfdfe" />
<rect x="336.00" y="1232.00" width="32.00" height="32.00" fill="#fbfdfe" />
<rect x="752.00" y="1232.00" width="32.00" height="16.00" fill="#fbfdfe" />
<rect x="960.00" y="1232.00" width="16.00" height="48.00" fill="#fbfdfe" />
<rect x="768.00" y="1248.00" width="16.00" height="48.00" fill="#fbfdfe" />
<rect x="944.00" y="1248.00" width="16.00" height="32.00" fill="#fbfdfe" />
<rect x="320.00" y="1264.00" width="32.00" height="16.00" fill="#fbfdfe" />
<rect x="544.00" y="1264.00" width="224.00" height="16.00" fill="#fbfdfe" />
<rect x="800.00" y="1264.00" width="64.00" height="16.00" fill="#fbfdfe" />
<rect x="880.00" y="1264.00" width="64.00" height="16.00" fill="#fbfdfe" />
<rect x="976.00" y="1264.00" width="176.00" height="16.00" fill="#fbfdfe" />
<rect x="1248.00" y="1264.00" width="80.00" height="16.00" fill="#fbfdfe" />
<rect x="288.00" y="1280.00" width="16.00" height="96.00" fill="#fbfdfe" />
<rect x="320.00" y="1280.00" width="16.00" height="16.00" fill="#fbfdfe" />
<rect x="752.00" y="1280.00" width="16.00" height="32.00" fill="#fbfdfe" />
<rect x="800.00" y="1280.00" width="32.00" height="16.00" fill="#fbfdfe" />
<rect x="912.00" y="1280.00" width="16.00" height="80.00" fill="#fbfdfe" />
<rect x="272.00" y="1296.00" width="16.00" height="80.00" fill="#fbfdfe" />
<rect x="720.00" y="1296.00" width="32.00" height="16.00" fill="#fbfdfe" />
<rect x="816.00" y="1296.00" width="32.00" height="64.00" fill="#fbfdfe" />
<rect x="880.00" y="1296.00" width="32.00" height="64.00" fill="#fbfdfe" />
<rect x="176.00" y="1312.00" width="96.00" height="64.00" fill="#fbfdfe" />
<rect x="704.00" y="1312.00" width="32.00" height="16.00" fill="#fbfdfe" />
<rect x="848.00" y="1312.00" width="16.00" height="48.00" fill="#fbfdfe" />
<rect x="704.00" y="1328.00" width="16.00" height="32.00" fill="#fbfdfe" />
<rect x="672.00" y="1344.00" width="32.00" height="128.00" fill="#fbfdfe" />
<rect x="560.00" y="1360.00" width="112.00" height="112.00" fill="#fbfdfe" />
<rect x="224.00" y="1376.00" width="16.00" height="32.00" fill="#fbfdfe" />
<rect x="112.00" y="1392.00" width="112.00" height="32.00" fill="#fbfdfe" />
<rect x="112.00" y="1424.00" width="96.00" height="80.00" fill="#fbfdfe" />
  </g>
  <g class="grid">
<line x1="0.00" y1="0" x2="0.00" y2="1536.00" />
<line x1="16.00" y1="0" x2="16.00" y2="1536.00" />
<line x1="32.00" y1="0" x2="32.00" y2="1536.00" />
<line x1="48.00" y1="0" x2="48.00" y2="1536.00" />
<line x1="64.00" y1="0" x2="64.00" y2="1536.00" />
<line x1="80.00" y1="0" x2="80.00" y2="1536.00" />
<line x1="96.00" y1="0" x2="96.00" y2="1536.00" />
<line x1="112.00" y1="0" x2="112.00" y2="1536.00" />
<line x1="128.00" y1="0" x2="128.00" y2="1536.00" />
<line x1="144.00" y1="0" x2="144.00" y2="1536.00" />
<line x1="160.00" y1="0" x2="160.00" y2="1536.00" />
<line x1="176.00" y1="0" x2="176.00" y2="1536.00" />
<line x1="192.00" y1="0" x2="192.00" y2="1536.00" />
<line x1="208.00" y1="0" x2="208.00" y2="1536.00" />
<line x1="224.00" y1="0" x2="224.00" y2="1536.00" />
<line x1="240.00" y1="0" x2="240.00" y2="1536.00" />
<line x1="256.00" y1="0" x2="256.00" y2="1536.00" />
<line x1="272.00" y1="0" x2="272.00" y2="1536.00" />
<line x1="288.00" y1="0" x2="288.00" y2="1536.00" />
<line x1="304.00" y1="0" x2="304.00" y2="1536.00" />
<line x1="320.00" y1="0" x2="320.00" y2="1536.00" />
<line x1="336.00" y1="0" x2="336.00" y2="1536.00" />
<line x1="352.00" y1="0" x2="352.00" y2="1536.00" />
<line x1="368.00" y1="0" x2="368.00" y2="1536.00" />
<line x1="384.00" y1="0" x2="384.00" y2="1536.00" />
<line x1="400.00" y1="0" x2="400.00" y2="1536.00" />
<line x1="416.00" y1="0" x2="416.00" y2="1536.00" />
<line x1="432.00" y1="0" x2="432.00" y2="1536.00" />
<line x1="448.00" y1="0" x2="448.00" y2="1536.00" />
<line x1="464.00" y1="0" x2="464.00" y2="1536.00" />
<line x1="480.00" y1="0" x2="480.00" y2="1536.00" />
<line x1="496.00" y1="0" x2="496.00" y2="1536.00" />
<line x1="512.00" y1="0" x2="512.00" y2="1536.00" />
<line x1="528.00" y1="0" x2="528.00" y2="1536.00" />
<line x1="544.00" y1="0" x2="544.00" y2="1536.00" />
<line x1="560.00" y1="0" x2="560.00" y2="1536.00" />
<line x1="576.00" y1="0" x2="576.00" y2="1536.00" />
<line x1="592.00" y1="0" x2="592.00" y2="1536.00" />
<line x1="608.00" y1="0" x2="608.00" y2="1536.00" />
<line x1="624.00" y1="0" x2="624.00" y2="1536.00" />
<line x1="640.00" y1="0" x2="640.00" y2="1536.00" />
<line x1="656.00" y1="0" x2="656.00" y2="1536.00" />
<line x1="672.00" y1="0" x2="672.00" y2="1536.00" />
<line x1="688.00" y1="0" x2="688.00" y2="1536.00" />
<line x1="704.00" y1="0" x2="704.00" y2="1536.00" />
<line x1="720.00" y1="0" x2="720.00" y2="1536.00" />
<line x1="736.00" y1="0" x2="736.00" y2="1536.00" />
<line x1="752.00" y1="0" x2="752.00" y2="1536.00" />
<line x1="768.00" y1="0" x2="768.00" y2="1536.00" />
<line x1="784.00" y1="0" x2="784.00" y2="1536.00" />
<line x1="800.00" y1="0" x2="800.00" y2="1536.00" />
<line x1="816.00" y1="0" x2="816.00" y2="1536.00" />
<line x1="832.00" y1="0" x2="832.00" y2="1536.00" />
<line x1="848.00" y1="0" x2="848.00" y2="1536.00" />
<line x1="864.00" y1="0" x2="864.00" y2="1536.00" />
<line x1="880.00" y1="0" x2="880.00" y2="1536.00" />
<line x1="896.00" y1="0" x2="896.00" y2="1536.00" />
<line x1="912.00" y1="0" x2="912.00" y2="1536.00" />
<line x1="928.00" y1="0" x2="928.00" y2="1536.00" />
<line x1="944.00" y1="0" x2="944.00" y2="1536.00" />
<line x1="960.00" y1="0" x2="960.00" y2="1536.00" />
<line x1="976.00" y1="0" x2="976.00" y2="1536.00" />
<line x1="992.00" y1="0" x2="992.00" y2="1536.00" />
<line x1="1008.00" y1="0" x2="1008.00" y2="1536.00" />
<line x1="1024.00" y1="0" x2="1024.00" y2="1536.00" />
<line x1="1040.00" y1="0" x2="1040.00" y2="1536.00" />
<line x1="1056.00" y1="0" x2="1056.00" y2="1536.00" />
<line x1="1072.00" y1="0" x2="1072.00" y2="1536.00" />
<line x1="1088.00" y1="0" x2="1088.00" y2="1536.00" />
<line x1="1104.00" y1="0" x2="1104.00" y2="1536.00" />
<line x1="1120.00" y1="0" x2="1120.00" y2="1536.00" />
<line x1="1136.00" y1="0" x2="1136.00" y2="1536.00" />
<line x1="1152.00" y1="0" x2="1152.00" y2="1536.00" />
<line x1="1168.00" y1="0" x2="1168.00" y2="1536.00" />
<line x1="1184.00" y1="0" x2="1184.00" y2="1536.00" />
<line x1="1200.00" y1="0" x2="1200.00" y2="1536.00" />
<line x1="1216.00" y1="0" x2="1216.00" y2="1536.00" />
<line x1="1232.00" y1="0" x2="1232.00" y2="1536.00" />
<line x1="1248.00" y1="0" x2="1248.00" y2="1536.00" />
<line x1="1264.00" y1="0" x2="1264.00" y2="1536.00" />
<line x1="1280.00" y1="0" x2="1280.00" y2="1536.00" />
<line x1="1296.00" y1="0" x2="1296.00" y2="1536.00" />
<line x1="1312.00" y1="0" x2="1312.00" y2="1536.00" />
<line x1="1328.00" y1="0" x2="1328.00" y2="1536.00" />
<line x1="1344.00" y1="0" x2="1344.00" y2="1536.00" />
<line x1="1360.00" y1="0" x2="1360.00" y2="1536.00" />
<line x1="1376.00" y1="0" x2="1376.00" y2="1536.00" />
<line x1="1392.00" y1="0" x2="1392.00" y2="1536.00" />
<line x1="1408.00" y1="0" x2="1408.00" y2="1536.00" />
<line x1="1424.00" y1="0" x2="1424.00" y2="1536.00" />
<line x1="1440.00" y1="0" x2="1440.00" y2="1536.00" />
<line x1="0" y1="0.00" x2="1440.00" y2="0.00" />
<line x1="0" y1="16.00" x2="1440.00" y2="16.00" />
<line x1="0" y1="32.00" x2="1440.00" y2="32.00" />
<line x1="0" y1="48.00" x2="1440.00" y2="48.00" />
<line x1="0" y1="64.00" x2="1440.00" y2="64.00" />
<line x1="0" y1="80.00" x2="1440.00" y2="80.00" />
<line x1="0" y1="96.00" x2="1440.00" y2="96.00" />
<line x1="0" y1="112.00" x2="1440.00" y2="112.00" />
<line x1="0" y1="128.00" x2="1440.00" y2="128.00" />
<line x1="0" y1="144.00" x2="1440.00" y2="144.00" />
<line x1="0" y1="160.00" x2="1440.00" y2="160.00" />
<line x1="0" y1="176.00" x2="1440.00" y2="176.00" />
<line x1="0" y1="192.00" x2="1440.00" y2="192.00" />
<line x1="0" y1="208.00" x2="1440.00" y2="208.00" />
<line x1="0" y1="224.00" x2="1440.00" y2="224.00" />
<line x1="0" y1="240.00" x2="1440.00" y2="240.00" />
<line x1="0" y1="256.00" x2="1440.00" y2="256.00" />
<line x1="0" y1="272.00" x2="1440.00" y2="272.00" />
<line x1="0" y1="288.00" x2="1440.00" y2="288.00" />
<line x1="0" y1="304.00" x2="1440.00" y2="304.00" />
<line x1="0" y1="320.00" x2="1440.00" y2="320.00" />
<line x1="0" y1="336.00" x2="1440.00" y2="336.00" />
<line x1="0" y1="352.00" x2="1440.00" y2="352.00" />
<line x1="0" y1="368.00" x2="1440.00" y2="368.00" />
<line x1="0" y1="384.00" x2="1440.00" y2="384.00" />
<line x1="0" y1="400.00" x2="1440.00" y2="400.00" />
<line x1="0" y1="416.00" x2="1440.00" y2="416.00" />
<line x1="0" y1="432.00" x2="1440.00" y2="432.00" />
<line x1="0" y1="448.00" x2="1440.00" y2="448.00" />
<line x1="0" y1="464.00" x2="1440.00" y2="464.00" />
<line x1="0" y1="480.00" x2="1440.00" y2="480.00" />
<line x1="0" y1="496.00" x2="1440.00" y2="496.00" />
<line x1="0" y1="512.00" x2="1440.00" y2="512.00" />
<line x1="0" y1="528.00" x2="1440.00" y2="528.00" />
<line x1="0" y1="544.00" x2="1440.00" y2="544.00" />
<line x1="0" y1="560.00" x2="1440.00" y2="560.00" />
<line x1="0" y1="576.00" x2="1440.00" y2="576.00" />
<line x1="0" y1="592.00" x2="1440.00" y2="592.00" />
<line x1="0" y1="608.00" x2="1440.00" y2="608.00" />
<line x1="0" y1="624.00" x2="1440.00" y2="624.00" />
<line x1="0" y1="640.00" x2="1440.00" y2="640.00" />
<line x1="0" y1="656.00" x2="1440.00" y2="656.00" />
<line x1="0" y1="672.00" x2="1440.00" y2="672.00" />
<line x1="0" y1="688.00" x2="1440.00" y2="688.00" />
<line x1="0" y1="704.00" x2="1440.00" y2="704.00" />
<line x1="0" y1="720.00" x2="1440.00" y2="720.00" />
<line x1="0" y1="736.00" x2="1440.00" y2="736.00" />
<line x1="0" y1="752.00" x2="1440.00" y2="752.00" />
<line x1="0" y1="768.00" x2="1440.00" y2="768.00" />
<line x1="0" y1="784.00" x2="1440.00" y2="784.00" />
<line x1="0" y1="800.00" x2="1440.00" y2="800.00" />
<line x1="0" y1="816.00" x2="1440.00" y2="816.00" />
<line x1="0" y1="832.00" x2="1440.00" y2="832.00" />
<line x1="0" y1="848.00" x2="1440.00" y2="848.00" />
<line x1="0" y1="864.00" x2="1440.00" y2="864.00" />
<line x1="0" y1="880.00" x2="1440.00" y2="880.00" />
<line x1="0" y1="896.00" x2="1440.00" y2="896.00" />
<line x1="0" y1="912.00" x2="1440.00" y2="912.00" />
<line x1="0" y1="928.00" x2="1440.00" y2="928.00" />
<line x1="0" y1="944.00" x2="1440.00" y2="944.00" />
<line x1="0" y1="960.00" x2="1440.00" y2="960.00" />
<line x1="0" y1="976.00" x2="1440.00" y2="976.00" />
<line x1="0" y1="992.00" x2="1440.00" y2="992.00" />
<line x1="0" y1="1008.00" x2="1440.00" y2="1008.00" />
<line x1="0" y1="1024.00" x2="1440.00" y2="1024.00" />
<line x1="0" y1="1040.00" x2="1440.00" y2="1040.00" />
<line x1="0" y1="1056.00" x2="1440.00" y2="1056.00" />
<line x1="0" y1="1072.00" x2="1440.00" y2="1072.00" />
<line x1="0" y1="1088.00" x2="1440.00" y2="1088.00" />
<line x1="0" y1="1104.00" x2="1440.00" y2="1104.00" />
<line x1="0" y1="1120.00" x2="1440.00" y2="1120.00" />
<line x1="0" y1="1136.00" x2="1440.00" y2="1136.00" />
<line x1="0" y1="1152.00" x2="1440.00" y2="1152.00" />
<line x1="0" y1="1168.00" x2="1440.00" y2="1168.00" />
<line x1="0" y1="1184.00" x2="1440.00" y2="1184.00" />
<line x1="0" y1="1200.00" x2="1440.00" y2="1200.00" />
<line x1="0" y1="1216.00" x2="1440.00" y2="1216.00" />
<line x1="0" y1="1232.00" x2="1440.00" y2="1232.00" />
<line x1="0" y1="1248.00" x2="1440.00" y2="1248.00" />
<line x1="0" y1="1264.00" x2="1440.00" y2="1264.00" />
<line x1="0" y1="1280.00" x2="1440.00" y2="1280.00" />
<line x1="0" y1="1296.00" x2="1440.00" y2="1296.00" />
<line x1="0" y1="1312.00" x2="1440.00" y2="1312.00" />
<line x1="0" y1="1328.00" x2="1440.00" y2="1328.00" />
<line x1="0" y1="1344.00" x2="1440.00" y2="1344.00" />
<line x1="0" y1="1360.00" x2="1440.00" y2="1360.00" />
<line x1="0" y1="1376.00" x2="1440.00" y2="1376.00" />
<line x1="0" y1="1392.00" x2="1440.00" y2="1392.00" />
<line x1="0" y1="1408.00" x2="1440.00" y2="1408.00" />
<line x1="0" y1="1424.00" x2="1440.00" y2="1424.00" />
<line x1="0" y1="1440.00" x2="1440.00" y2="1440.00" />
<line x1="0" y1="1456.00" x2="1440.00" y2="1456.00" />
<line x1="0" y1="1472.00" x2="1440.00" y2="1472.00" />
<line x1="0" y1="1488.00" x2="1440.00" y2="1488.00" />
<line x1="0" y1="1504.00" x2="1440.00" y2="1504.00" />
<line x1="0" y1="1520.00" x2="1440.00" y2="1520.00" />
<line x1="0" y1="1536.00" x2="1440.00" y2="1536.00" />
  </g>
  <g class="walls">
<line x1="480.00" y1="48.00" x2="592.00" y2="48.00" />
<line x1="1264.00" y1="96.00" x2="1392.00" y2="96.00" />
<line x1="272.00" y1="128.00" x2="352.00" y2="128.00" />
<line x1="352.00" y1="160.00" x2="480.00" y2="160.00" />
<line x1="592.00" y1="160.00" x2="1264.00" y2="160.00" />
<line x1="352.00" y1="176.00" x2="480.00" y2="176.00" />
<line x1="592.00" y1="176.00" x2="1216.00" y2="176.00" />
<line x1="1232.00" y1="176.00" x2="1264.00" y2="176.00" />
<line x1="240.00" y1="192.00" x2="272.00" y2="192.00" />
<line x1="1184.00" y1="192.00" x2="1216.00" y2="192.00" />
<line x1="224.00" y1="208.00" x2="240.00" y2="208.00" />
<line x1="272.00" y1="208.00" x2="304.00" y2="208.00" />
<line x1="320.00" y1="208.00" x2="352.00" y2="208.00" />
<line x1="480.00" y1="208.00" x2="528.00" y2="208.00" />
<line x1="544.00" y1="208.00" x2="576.00" y2="208.00" />
<line x1="720.00" y1="208.00" x2="864.00" y2="208.00" />
<line x1="1168.00" y1="208.00" x2="1184.00" y2="208.00" />
<line x1="1200.00" y1="208.00" x2="1232.00" y2="208.00" />
<line x1="208.00" y1="224.00" x2="224.00" y2="224.00" />
<line x1="1152.00" y1="224.00" x2="1168.00" y2="224.00" />
<line x1="1184.00" y1="224.00" x2="1200.00" y2="224.00" />
<line x1="144.00" y1="240.00" x2="208.00" y2="240.00" />
<line x1="240.00" y1="240.00" x2="272.00" y2="240.00" />
<line x1="1136.00" y1="240.00" x2="1152.00" y2="240.00" />
<line x1="1168.00" y1="240.00" x2="1184.00" y2="240.00" />
<line x1="1264.00" y1="240.00" x2="1328.00" y2="240.00" />
<line x1="1344.00" y1="240.00" x2="1392.00" y2="240.00" />
<line x1="224.00" y1="256.00" x2="240.00" y2="256.00" />
<line x1="1056.00" y1="256.00" x2="1136.00" y2="256.00" />
<line x1="1168.00" y1="256.00" x2="1232.00" y2="256.00" />
<line x1="208.00" y1="288.00" x2="256.00" y2="288.00" />
<line x1="368.00" y1="288.00" x2="528.00" y2="288.00" />
<line x1="544.00" y1="288.00" x2="576.00" y2="288.00" />
<line x1="224.00" y1="272.00" x2="304.00" y2="272.00" />
<line x1="320.00" y1="272.00" x2="528.00" y2="272.00" />
<line x1="544.00" y1="272.00" x2="576.00" y2="272.00" />
<line x1="144.00" y1="304.00" x2="208.00" y2="304.00" />
<line x1="368.00" y1="304.00" x2="528.00" y2="304.00" />
<line x1="544.00" y1="304.00" x2="576.00" y2="304.00" />
<line x1="592.00" y1="304.00" x2="720.00" y2="304.00" />
<line x1="864.00" y1="304.00" x2="1056.00" y2="304.00" />
<line x1="544.00" y1="320.00" x2="576.00" y2="320.00" />
<line x1="592.00" y1="320.00" x2="608.00" y2="320.00" />
<line x1="624.00" y1="320.00" x2="720.00" y2="320.00" />
<line x1="864.00" y1="320.00" x2="1056.00" y2="320.00" />
<line x1="368.00" y1="336.00" x2="416.00" y2="336.00" />
<line x1="496.00" y1="336.00" x2="528.00" y2="336.00" />
<line x1="704.00" y1="336.00" x2="720.00" y2="336.00" />
<line x1="1040.00" y1="336.00" x2="1056.00" y2="336.00" />
<line x1="112.00" y1="352.00" x2="256.00" y2="352.00" />
<line x1="688.00" y1="352.00" x2="704.00" y2="352.00" />
<line x1="1024.00" y1="352.00" x2="1040.00" y2="352.00" />
<line x1="1056.00" y1="352.00" x2="1136.00" y2="352.00" />
<line x1="1152.00" y1="352.00" x2="1232.00" y2="352.00" />
<line x1="240.00" y1="368.00" x2="304.00" y2="368.00" />
<line x1="320.00" y1="368.00" x2="336.00" y2="368.00" />
<line x1="368.00" y1="368.00" x2="384.00" y2="368.00" />
<line x1="416.00" y1="368.00" x2="432.00" y2="368.00" />
<line x1="720.00" y1="368.00" x2="784.00" y2="368.00" />
<line x1="800.00" y1="368.00" x2="864.00" y2="368.00" />
<line x1="1040.00" y1="368.00" x2="1056.00" y2="368.00" />
<line x1="224.00" y1="384.00" x2="240.00" y2="384.00" />
<line x1="336.00" y1="384.00" x2="368.00" y2="384.00" />
<line x1="672.00" y1="384.00" x2="688.00" y2="384.00" />
<line x1="992.00" y1="384.00" x2="1024.00" y2="384.00" />
<line x1="384.00" y1="400.00" x2="400.00" y2="400.00" />
<line x1="496.00" y1="400.00" x2="512.00" y2="400.00" />
<line x1="656.00" y1="400.00" x2="672.00" y2="400.00" />
<line x1="688.00" y1="400.00" x2="720.00" y2="400.00" />
<line x1="976.00" y1="400.00" x2="992.00" y2="400.00" />
<line x1="1008.00" y1="400.00" x2="1040.00" y2="400.00" />
<line x1="368.00" y1="416.00" x2="384.00" y2="416.00" />
<line x1="400.00" y1="416.00" x2="416.00" y2="416.00" />
<line x1="512.00" y1="416.00" x2="528.00" y2="416.00" />
<line x1="544.00" y1="416.00" x2="576.00" y2="416.00" />
<line x1="592.00" y1="416.00" x2="608.00" y2="416.00" />
<line x1="624.00" y1="416.00" x2="656.00" y2="416.00" />
<line x1="992.00" y1="416.00" x2="1008.00" y2="416.00" />
<line x1="224.00" y1="432.00" x2="304.00" y2="432.00" />
<line x1="320.00" y1="432.00" x2="384.00" y2="432.00" />
<line x1="416.00" y1="432.00" x2="432.00" y2="432.00" />
<line x1="960.00" y1="432.00" x2="976.00" y2="432.00" />
<line x1="224.00" y1="448.00" x2="304.00" y2="448.00" />
<line x1="320.00" y1="448.00" x2="432.00" y2="448.00" />
<line x1="496.00" y1="448.00" x2="512.00" y2="448.00" />
<line x1="928.00" y1="448.00" x2="960.00" y2="448.00" />
<line x1="976.00" y1="448.00" x2="992.00" y2="448.00" />
<line x1="944.00" y1="464.00" x2="976.00" y2="464.00" />
<line x1="432.00" y1="480.00" x2="464.00" y2="480.00" />
<line x1="800.00" y1="480.00" x2="880.00" y2="480.00" />
<line x1="896.00" y1="480.00" x2="928.00" y2="480.00" />
<line x1="1264.00" y1="480.00" x2="1328.00" y2="480.00" />
<line x1="1344.00" y1="480.00" x2="1360.00" y2="480.00" />
<line x1="464.00" y1="496.00" x2="480.00" y2="496.00" />
<line x1="880.00" y1="496.00" x2="896.00" y2="496.00" />
<line x1="912.00" y1="496.00" x2="944.00" y2="496.00" />
<line x1="112.00" y1="512.00" x2="224.00" y2="512.00" />
<line x1="496.00" y1="512.00" x2="512.00" y2="512.00" />
<line x1="624.00" y1="512.00" x2="688.00" y2="512.00" />
<line x1="896.00" y1="512.00" x2="912.00" y2="512.00" />
<line x1="1056.00" y1="512.00" x2="1136.00" y2="512.00" />
<line x1="1152.00" y1="512.00" x2="1264.00" y2="512.00" />
<line x1="480.00" y1="528.00" x2="512.00" y2="528.00" />
<line x1="560.00" y1="528.00" x2="576.00" y2="528.00" />
<line x1="880.00" y1="528.00" x2="896.00" y2="528.00" />
<line x1="1040.00" y1="528.00" x2="1056.00" y2="528.00" />
<line x1="1072.00" y1="528.00" x2="1136.00" y2="528.00" />
<line x1="1152.00" y1="528.00" x2="1264.00" y2="528.00" />
<line x1="624.00" y1="544.00" x2="656.00" y2="544.00" />
<line x1="1056.00" y1="544.00" x2="1072.00" y2="544.00" />
<line x1="1264.00" y1="544.00" x2="1312.00" y2="544.00" />
<line x1="1344.00" y1="544.00" x2="1360.00" y2="544.00" />
<line x1="560.00" y1="560.00" x2="576.00" y2="560.00" />
<line x1="624.00" y1="560.00" x2="640.00" y2="560.00" />
<line x1="880.00" y1="560.00" x2="1040.00" y2="560.00" />
<line x1="1056.00" y1="560.00" x2="1136.00" y2="560.00" />
<line x1="1152.00" y1="560.00" x2="1312.00" y2="560.00" />
<line x1="496.00" y1="576.00" x2="512.00" y2="576.00" />
<line x1="544.00" y1="576.00" x2="560.00" y2="576.00" />
<line x1="624.00" y1="576.00" x2="640.00" y2="576.00" />
<line x1="656.00" y1="576.00" x2="768.00" y2="576.00" />
<line x1="880.00" y1="576.00" x2="1008.00" y2="576.00" />
<line x1="1040.00" y1="576.00" x2="1328.00" y2="576.00" />
<line x1="464.00" y1="592.00" x2="496.00" y2="592.00" />
<line x1="512.00" y1="592.00" x2="528.00" y2="592.00" />
<line x1="560.00" y1="592.00" x2="576.00" y2="592.00" />
<line x1="992.00" y1="592.00" x2="1008.00" y2="592.00" />
<line x1="1024.00" y1="592.00" x2="1040.00" y2="592.00" />
<line x1="480.00" y1="608.00" x2="512.00" y2="608.00" />
<line x1="960.00" y1="608.00" x2="992.00" y2="608.00" />
<line x1="1008.00" y1="608.00" x2="1024.00" y2="608.00" />
<line x1="448.00" y1="624.00" x2="464.00" y2="624.00" />
<line x1="944.00" y1="624.00" x2="960.00" y2="624.00" />
<line x1="976.00" y1="624.00" x2="1008.00" y2="624.00" />
<line x1="432.00" y1="640.00" x2="448.00" y2="640.00" />
<line x1="464.00" y1="640.00" x2="480.00" y2="640.00" />
<line x1="928.00" y1="640.00" x2="944.00" y2="640.00" />
<line x1="960.00" y1="640.00" x2="976.00" y2="640.00" />
<line x1="1360.00" y1="640.00" x2="1408.00" y2="640.00" />
<line x1="400.00" y1="656.00" x2="432.00" y2="656.00" />
<line x1="448.00" y1="656.00" x2="464.00" y2="656.00" />
<line x1="624.00" y1="656.00" x2="640.00" y2="656.00" />
<line x1="688.00" y1="656.00" x2="704.00" y2="656.00" />
<line x1="752.00" y1="656.00" x2="768.00" y2="656.00" />
<line x1="800.00" y1="656.00" x2="848.00" y2="656.00" />
<line x1="864.00" y1="656.00" x2="880.00" y2="656.00" />
<line x1="912.00" y1="656.00" x2="928.00" y2="656.00" />
<line x1="944.00" y1="656.00" x2="960.00" y2="656.00" />
<line x1="416.00" y1="672.00" x2="448.00" y2="672.00" />
<line x1="640.00" y1="672.00" x2="656.00" y2="672.00" />
<line x1="688.00" y1="672.00" x2="736.00" y2="672.00" />
<line x1="752.00" y1="672.00" x2="768.00" y2="672.00" />
<line x1="896.00" y1="672.00" x2="912.00" y2="672.00" />
<line x1="928.00" y1="672.00" x2="944.00" y2="672.00" />
<line x1="384.00" y1="688.00" x2="400.00" y2="688.00" />
<line x1="656.00" y1="688.00" x2="672.00" y2="688.00" />
<line x1="704.00" y1="688.00" x2="720.00" y2="688.00" />
<line x1="768.00" y1="688.00" x2="784.00" y2="688.00" />
<line x1="912.00" y1="688.00" x2="928.00" y2="688.00" />
<line x1="1136.00" y1="688.00" x2="1280.00" y2="688.00" />
<line x1="400.00" y1="704.00" x2="416.00" y2="704.00" />
<line x1="688.00" y1="704.00" x2="704.00" y2="704.00" />
<line x1="736.00" y1="704.00" x2="768.00" y2="704.00" />
<line x1="864.00" y1="704.00" x2="896.00" y2="704.00" />
<line x1="544.00" y1="720.00" x2="576.00" y2="720.00" />
<line x1="624.00" y1="720.00" x2="672.00" y2="720.00" />
<line x1="688.00" y1="720.00" x2="704.00" y2="720.00" />
<line x1="720.00" y1="720.00" x2="768.00" y2="720.00" />
<line x1="800.00" y1="720.00" x2="848.00" y2="720.00" />
<line x1="912.00" y1="720.00" x2="1136.00" y2="720.00" />
<line x1="1280.00" y1="720.00" x2="1328.00" y2="720.00" />
<line x1="1344.00" y1="720.00" x2="1360.00" y2="720.00" />
<line x1="544.00" y1="736.00" x2="576.00" y2="736.00" />
<line x1="624.00" y1="736.00" x2="672.00" y2="736.00" />
<line x1="688.00" y1="736.00" x2="736.00" y2="736.00" />
<line x1="752.00" y1="736.00" x2="768.00" y2="736.00" />
<line x1="928.00" y1="736.00" x2="1136.00" y2="736.00" />
<line x1="1280.00" y1="736.00" x2="1328.00" y2="736.00" />
<line x1="1344.00" y1="736.00" x2="1360.00" y2="736.00" />
<line x1="320.00" y1="752.00" x2="384.00" y2="752.00" />
<line x1="400.00" y1="752.00" x2="528.00" y2="752.00" />
<line x1="544.00" y1="752.00" x2="576.00" y2="752.00" />
<line x1="624.00" y1="752.00" x2="672.00" y2="752.00" />
<line x1="688.00" y1="752.00" x2="736.00" y2="752.00" />
<line x1="752.00" y1="752.00" x2="768.00" y2="752.00" />
<line x1="928.00" y1="752.00" x2="1136.00" y2="752.00" />
<line x1="320.00" y1="768.00" x2="384.00" y2="768.00" />
<line x1="400.00" y1="768.00" x2="528.00" y2="768.00" />
<line x1="544.00" y1="768.00" x2="576.00" y2="768.00" />
<line x1="624.00" y1="768.00" x2="672.00" y2="768.00" />
<line x1="688.00" y1="768.00" x2="752.00" y2="768.00" />
<line x1="928.00" y1="768.00" x2="1136.00" y2="768.00" />
<line x1="320.00" y1="784.00" x2="352.00" y2="784.00" />
<line x1="752.00" y1="784.00" x2="768.00" y2="784.00" />
<line x1="320.00" y1="800.00" x2="336.00" y2="800.00" />
<line x1="352.00" y1="816.00" x2="368.00" y2="816.00" />
<line x1="752.00" y1="816.00" x2="768.00" y2="816.00" />
<line x1="1136.00" y1="816.00" x2="1216.00" y2="816.00" />
<line x1="1232.00" y1="816.00" x2="1280.00" y2="816.00" />
<line x1="1360.00" y1="816.00" x2="1408.00" y2="816.00" />
<line x1="336.00" y1="832.00" x2="352.00" y2="832.00" />
<line x1="368.00" y1="832.00" x2="384.00" y2="832.00" />
<line x1="928.00" y1="832.00" x2="944.00" y2="832.00" />
<line x1="352.00" y1="848.00" x2="384.00" y2="848.00" />
<line x1="736.00" y1="848.00" x2="752.00" y2="848.00" />
<line x1="944.00" y1="848.00" x2="960.00" y2="848.00" />
<line x1="400.00" y1="864.00" x2="416.00" y2="864.00" />
<line x1="560.00" y1="864.00" x2="576.00" y2="864.00" />
<line x1="624.00" y1="864.00" x2="656.00" y2="864.00" />
<line x1="704.00" y1="864.00" x2="736.00" y2="864.00" />
<line x1="752.00" y1="864.00" x2="768.00" y2="864.00" />
<line x1="928.00" y1="864.00" x2="944.00" y2="864.00" />
<line x1="416.00" y1="880.00" x2="448.00" y2="880.00" />
<line x1="720.00" y1="880.00" x2="752.00" y2="880.00" />
<line x1="960.00" y1="880.00" x2="992.00" y2="880.00" />
<line x1="1136.00" y1="880.00" x2="1216.00" y2="880.00" />
<line x1="1232.00" y1="880.00" x2="1312.00" y2="880.00" />
<line x1="400.00" y1="896.00" x2="432.00" y2="896.00" />
<line x1="656.00" y1="896.00" x2="672.00" y2="896.00" />
<line x1="688.00" y1="896.00" x2="704.00" y2="896.00" />
<line x1="720.00" y1="896.00" x2="768.00" y2="896.00" />
<line x1="944.00" y1="896.00" x2="976.00" y2="896.00" />
<line x1="992.00" y1="896.00" x2="1136.00" y2="896.00" />
<line x1="448.00" y1="912.00" x2="464.00" y2="912.00" />
<line x1="656.00" y1="912.00" x2="672.00" y2="912.00" />
<line x1="688.00" y1="912.00" x2="784.00" y2="912.00" />
<line x1="800.00" y1="912.00" x2="864.00" y2="912.00" />
<line x1="880.00" y1="912.00" x2="896.00" y2="912.00" />
<line x1="928.00" y1="912.00" x2="944.00" y2="912.00" />
<line x1="976.00" y1="912.00" x2="1136.00" y2="912.00" />
<line x1="432.00" y1="928.00" x2="448.00" y2="928.00" />
<line x1="464.00" y1="928.00" x2="480.00" y2="928.00" />
<line x1="544.00" y1="928.00" x2="560.00" y2="928.00" />
<line x1="656.00" y1="928.00" x2="672.00" y2="928.00" />
<line x1="896.00" y1="928.00" x2="912.00" y2="928.00" />
<line x1="1136.00" y1="928.00" x2="1216.00" y2="928.00" />
<line x1="1232.00" y1="928.00" x2="1312.00" y2="928.00" />
<line x1="448.00" y1="944.00" x2="464.00" y2="944.00" />
<line x1="480.00" y1="944.00" x2="512.00" y2="944.00" />
<line x1="560.00" y1="944.00" x2="576.00" y2="944.00" />
<line x1="592.00" y1="944.00" x2="624.00" y2="944.00" />
<line x1="912.00" y1="944.00" x2="928.00" y2="944.00" />
<line x1="944.00" y1="944.00" x2="960.00" y2="944.00" />
<line x1="464.00" y1="960.00" x2="496.00" y2="960.00" />
<line x1="512.00" y1="960.00" x2="528.00" y2="960.00" />
<line x1="544.00" y1="960.00" x2="560.00" y2="960.00" />
<line x1="608.00" y1="960.00" x2="624.00" y2="960.00" />
<line x1="640.00" y1="960.00" x2="672.00" y2="960.00" />
<line x1="928.00" y1="960.00" x2="944.00" y2="960.00" />
<line x1="960.00" y1="960.00" x2="992.00" y2="960.00" />
<line x1="624.00" y1="976.00" x2="640.00" y2="976.00" />
<line x1="944.00" y1="976.00" x2="976.00" y2="976.00" />
<line x1="992.00" y1="976.00" x2="1008.00" y2="976.00" />
<line x1="1200.00" y1="976.00" x2="1216.00" y2="976.00" />
<line x1="592.00" y1="992.00" x2="608.00" y2="992.00" />
<line x1="1008.00" y1="992.00" x2="1024.00" y2="992.00" />
<line x1="1184.00" y1="992.00" x2="1200.00" y2="992.00" />
<line x1="1216.00" y1="992.00" x2="1232.00" y2="992.00" />
<line x1="480.00" y1="1008.00" x2="496.00" y2="1008.00" />
<line x1="512.00" y1="1008.00" x2="528.00" y2="1008.00" />
<line x1="544.00" y1="1008.00" x2="576.00" y2="1008.00" />
<line x1="608.00" y1="1008.00" x2="624.00" y2="1008.00" />
<line x1="976.00" y1="1008.00" x2="992.00" y2="1008.00" />
<line x1="1024.00" y1="1008.00" x2="1040.00" y2="1008.00" />
<line x1="1200.00" y1="1008.00" x2="1216.00" y2="1008.00" />
<line x1="352.00" y1="1024.00" x2="384.00" y2="1024.00" />
<line x1="400.00" y1="1024.00" x2="432.00" y2="1024.00" />
<line x1="464.00" y1="1024.00" x2="480.00" y2="1024.00" />
<line x1="496.00" y1="1024.00" x2="512.00" y2="1024.00" />
<line x1="592.00" y1="1024.00" x2="608.00" y2="1024.00" />
<line x1="992.00" y1="1024.00" x2="1024.00" y2="1024.00" />
<line x1="1040.00" y1="1024.00" x2="1056.00" y2="1024.00" />
<line x1="1152.00" y1="1024.00" x2="1184.00" y2="1024.00" />
<line x1="432.00" y1="1040.00" x2="464.00" y2="1040.00" />
<line x1="480.00" y1="1040.00" x2="496.00" y2="1040.00" />
<line x1="592.00" y1="1040.00" x2="608.00" y2="1040.00" />
<line x1="1024.00" y1="1040.00" x2="1040.00" y2="1040.00" />
<line x1="1056.00" y1="1040.00" x2="1072.00" y2="1040.00" />
<line x1="1136.00" y1="1040.00" x2="1152.00" y2="1040.00" />
<line x1="1168.00" y1="1040.00" x2="1200.00" y2="1040.00" />
<line x1="448.00" y1="1056.00" x2="480.00" y2="1056.00" />
<line x1="608.00" y1="1056.00" x2="624.00" y2="1056.00" />
<line x1="1072.00" y1="1056.00" x2="1088.00" y2="1056.00" />
<line x1="1152.00" y1="1056.00" x2="1168.00" y2="1056.00" />
<line x1="432.00" y1="1072.00" x2="448.00" y2="1072.00" />
<line x1="512.00" y1="1072.00" x2="528.00" y2="1072.00" />
<line x1="624.00" y1="1072.00" x2="640.00" y2="1072.00" />
<line x1="1040.00" y1="1072.00" x2="1056.00" y2="1072.00" />
<line x1="1088.00" y1="1072.00" x2="1136.00" y2="1072.00" />
<line x1="480.00" y1="1088.00" x2="512.00" y2="1088.00" />
<line x1="1056.00" y1="1088.00" x2="1072.00" y2="1088.00" />
<line x1="1120.00" y1="1088.00" x2="1152.00" y2="1088.00" />
<line x1="320.00" y1="1104.00" x2="352.00" y2="1104.00" />
<line x1="432.00" y1="1104.00" x2="480.00" y2="1104.00" />
<line x1="640.00" y1="1104.00" x2="672.00" y2="1104.00" />
<line x1="688.00" y1="1104.00" x2="784.00" y2="1104.00" />
<line x1="800.00" y1="1104.00" x2="864.00" y2="1104.00" />
<line x1="880.00" y1="1104.00" x2="1072.00" y2="1104.00" />
<line x1="1120.00" y1="1104.00" x2="1328.00" y2="1104.00" />
<line x1="320.00" y1="1120.00" x2="352.00" y2="1120.00" />
<line x1="432.00" y1="1120.00" x2="448.00" y2="1120.00" />
<line x1="496.00" y1="1120.00" x2="528.00" y2="1120.00" />
<line x1="640.00" y1="1120.00" x2="656.00" y2="1120.00" />
<line x1="688.00" y1="1120.00" x2="704.00" y2="1120.00" />
<line x1="848.00" y1="1120.00" x2="864.00" y2="1120.00" />
<line x1="880.00" y1="1120.00" x2="1072.00" y2="1120.00" />
<line x1="1152.00" y1="1120.00" x2="1344.00" y2="1120.00" />
<line x1="432.00" y1="1136.00" x2="448.00" y2="1136.00" />
<line x1="464.00" y1="1136.00" x2="496.00" y2="1136.00" />
<line x1="656.00" y1="1136.00" x2="672.00" y2="1136.00" />
<line x1="1040.00" y1="1136.00" x2="1072.00" y2="1136.00" />
<line x1="1088.00" y1="1136.00" x2="1120.00" y2="1136.00" />
<line x1="1152.00" y1="1136.00" x2="1232.00" y2="1136.00" />
<line x1="448.00" y1="1152.00" x2="464.00" y2="1152.00" />
<line x1="624.00" y1="1152.00" x2="640.00" y2="1152.00" />
<line x1="688.00" y1="1152.00" x2="704.00" y2="1152.00" />
<line x1="1056.00" y1="1152.00" x2="1088.00" y2="1152.00" />
<line x1="1120.00" y1="1152.00" x2="1136.00" y2="1152.00" />
<line x1="1232.00" y1="1152.00" x2="1248.00" y2="1152.00" />
<line x1="432.00" y1="1168.00" x2="448.00" y2="1168.00" />
<line x1="544.00" y1="1168.00" x2="576.00" y2="1168.00" />
<line x1="624.00" y1="1168.00" x2="672.00" y2="1168.00" />
<line x1="1008.00" y1="1168.00" x2="1040.00" y2="1168.00" />
<line x1="1248.00" y1="1168.00" x2="1264.00" y2="1168.00" />
<line x1="576.00" y1="1184.00" x2="704.00" y2="1184.00" />
<line x1="1024.00" y1="1184.00" x2="1056.00" y2="1184.00" />
<line x1="1328.00" y1="1184.00" x2="1408.00" y2="1184.00" />
<line x1="352.00" y1="1200.00" x2="384.00" y2="1200.00" />
<line x1="400.00" y1="1200.00" x2="432.00" y2="1200.00" />
<line x1="976.00" y1="1200.00" x2="1008.00" y2="1200.00" />
<line x1="352.00" y1="1216.00" x2="384.00" y2="1216.00" />
<line x1="960.00" y1="1216.00" x2="976.00" y2="1216.00" />
<line x1="992.00" y1="1216.00" x2="1024.00" y2="1216.00" />
<line x1="336.00" y1="1232.00" x2="352.00" y2="1232.00" />
<line x1="368.00" y1="1232.00" x2="400.00" y2="1232.00" />
<line x1="704.00" y1="1232.00" x2="752.00" y2="1232.00" />
<line x1="800.00" y1="1232.00" x2="848.00" y2="1232.00" />
<line x1="976.00" y1="1232.00" x2="992.00" y2="1232.00" />
<line x1="752.00" y1="1248.00" x2="768.00" y2="1248.00" />
<line x1="944.00" y1="1248.00" x2="960.00" y2="1248.00" />
<line x1="1136.00" y1="1248.00" x2="1152.00" y2="1248.00" />
<line x1="1248.00" y1="1248.00" x2="1264.00" y2="1248.00" />
<line x1="320.00" y1="1264.00" x2="336.00" y2="1264.00" />
<line x1="352.00" y1="1264.00" x2="368.00" y2="1264.00" />
<line x1="544.00" y1="1264.00" x2="768.00" y2="1264.00" />
<line x1="800.00" y1="1264.00" x2="864.00" y2="1264.00" />
<line x1="880.00" y1="1264.00" x2="944.00" y2="1264.00" />
<line x1="976.00" y1="1264.00" x2="1152.00" y2="1264.00" />
<line x1="1248.00" y1="1264.00" x2="1328.00" y2="1264.00" />
<line x1="288.00" y1="1280.00" x2="304.00" y2="1280.00" />
<line x1="336.00" y1="1280.00" x2="352.00" y2="1280.00" />
<line x1="528.00" y1="1280.00" x2="752.00" y2="1280.00" />
<line x1="784.00" y1="1280.00" x2="800.00" y2="1280.00" />
<line x1="832.00" y1="1280.00" x2="864.00" y2="1280.00" />
<line x1="880.00" y1="1280.00" x2="912.00" y2="1280.00" />
<line x1="928.00" y1="1280.00" x2="1328.00" y2="1280.00" />
<line x1="272.00" y1="1296.00" x2="288.00" y2="1296.00" />
<line x1="320.00" y1="1296.00" x2="336.00" y2="1296.00" />
<line x1="720.00" y1="1296.00" x2="752.00" y2="1296.00" />
<line x1="768.00" y1="1296.00" x2="784.00" y2="1296.00" />
<line x1="800.00" y1="1296.00" x2="816.00" y2="1296.00" />
<line x1="832.00" y1="1296.00" x2="848.00" y2="1296.00" />
<line x1="880.00" y1="1296.00" x2="912.00" y2="1296.00" />
<line x1="176.00" y1="1312.00" x2="272.00" y2="1312.00" />
<line x1="704.00" y1="1312.00" x2="720.00" y2="1312.00" />
<line x1="736.00" y1="1312.00" x2="768.00" y2="1312.00" />
<line x1="848.00" y1="1312.00" x2="864.00" y2="1312.00" />
<line x1="304.00" y1="1328.00" x2="320.00" y2="1328.00" />
<line x1="720.00" y1="1328.00" x2="736.00" y2="1328.00" />
<line x1="672.00" y1="1344.00" x2="704.00" y2="1344.00" />
<line x1="560.00" y1="1360.00" x2="672.00" y2="1360.00" />
<line x1="704.00" y1="1360.00" x2="720.00" y2="1360.00" />
<line x1="816.00" y1="1360.00" x2="928.00" y2="1360.00" />
<line x1="1328.00" y1="1360.00" x2="1408.00" y2="1360.00" />
<line x1="176.00" y1="1376.00" x2="224.00" y2="1376.00" />
<line x1="240.00" y1="1376.00" x2="304.00" y2="1376.00" />
<line x1="112.00" y1="1392.00" x2="224.00" y2="1392.00" />
<line x1="224.00" y1="1408.00" x2="240.00" y2="1408.00" />
<line x1="208.00" y1="1424.00" x2="224.00" y2="1424.00" />
<line x1="560.00" y1="1472.00" x2="704.00" y2="1472.00" />
<line x1="112.00" y1="1504.00" x2="208.00" y2="1504.00" />
<line x1="480.00" y1="48.00" x2="480.00" y2="160.00" />
<line x1="480.00" y1="176.00" x2="480.00" y2="208.00" />
<line x1="480.00" y1="496.00" x2="480.00" y2="528.00" />
<line x1="480.00" y1="608.00" x2="480.00" y2="640.00" />
<line x1="480.00" y1="928.00" x2="480.00" y2="944.00" />
<line x1="480.00" y1="1008.00" x2="480.00" y2="1024.00" />
<line x1="480.00" y1="1040.00" x2="480.00" y2="1056.00" />
<line x1="480.00" y1="1088.00" x2="480.00" y2="1104.00" />
<line x1="592.00" y1="48.00" x2="592.00" y2="160.00" />
<line x1="592.00" y1="176.00" x2="592.00" y2="304.00" />
<line x1="592.00" y1="320.00" x2="592.00" y2="416.00" />
<line x1="592.00" y1="944.00" x2="592.00" y2="992.00" />
<line x1="592.00" y1="1024.00" x2="592.00" y2="1040.00" />
<line x1="1264.00" y1="96.00" x2="1264.00" y2="160.00" />
<line x1="1264.00" y1="176.00" x2="1264.00" y2="240.00" />
<line x1="1264.00" y1="480.00" x2="1264.00" y2="512.00" />
<line x1="1264.00" y1="528.00" x2="1264.00" y2="544.00" />
<line x1="1264.00" y1="1168.00" x2="1264.00" y2="1248.00" />
<line x1="1392.00" y1="96.00" x2="1392.00" y2="240.00" />
<line x1="272.00" y1="128.00" x2="272.00" y2="192.00" />
<line x1="272.00" y1="208.00" x2="272.00" y2="240.00" />
<line x1="272.00" y1="1296.00" x2="272.00" y2="1312.00" />
<line x1="352.00" y1="128.00" x2="352.00" y2="160.00" />
<line x1="352.00" y1="176.00" x2="352.00" y2="208.00" />
<line x1="352.00" y1="784.00" x2="352.00" y2="816.00" />
<line x1="352.00" y1="832.00" x2="352.00" y2="848.00" />
<line x1="352.00" y1="1024.00" x2="352.00" y2="1104.00" />
<line x1="352.00" y1="1120.00" x2="352.00" y2="1200.00" />
<line x1="352.00" y1="1216.00" x2="352.00" y2="1232.00" />
<line x1="352.00" y1="1264.00" x2="352.00" y2="1280.00" />
<line x1="1216.00" y1="176.00" x2="1216.00" y2="192.00" />
<line x1="1216.00" y1="816.00" x2="1216.00" y2="880.00" />
<line x1="1216.00" y1="928.00" x2="1216.00" y2="976.00" />
<line x1="1216.00" y1="992.00" x2="1216.00" y2="1008.00" />
<line x1="1232.00" y1="176.00" x2="1232.00" y2="208.00" />
<line x1="1232.00" y1="256.00" x2="1232.00" y2="352.00" />
<line x1="1232.00" y1="816.00" x2="1232.00" y2="880.00" />
<line x1="1232.00" y1="928.00" x2="1232.00" y2="992.00" />
<line x1="1232.00" y1="1136.00" x2="1232.00" y2="1152.00" />
<line x1="240.00" y1="192.00" x2="240.00" y2="208.00" />
<line x1="240.00" y1="240.00" x2="240.00" y2="256.00" />
<line x1="240.00" y1="368.00" x2="240.00" y2="384.00" />
<line x1="240.00" y1="1376.00" x2="240.00" y2="1408.00" />
<line x1="1184.00" y1="192.00" x2="1184.00" y2="208.00" />
<line x1="1184.00" y1="224.00" x2="1184.00" y2="240.00" />
<line x1="1184.00" y1="992.00" x2="1184.00" y2="1024.00" />
<line x1="224.00" y1="208.00" x2="224.00" y2="224.00" />
<line x1="224.00" y1="256.00" x2="224.00" y2="272.00" />
<line x1="224.00" y1="384.00" x2="224.00" y2="432.00" />
<line x1="224.00" y1="448.00" x2="224.00" y2="512.00" />
<line x1="224.00" y1="1376.00" x2="224.00" y2="1392.00" />
<line x1="224.00" y1="1408.00" x2="224.00" y2="1424.00" />
<line x1="304.00" y1="208.00" x2="304.00" y2="272.00" />
<line x1="304.00" y1="368.00" x2="304.00" y2="432.00" />
<line x1="304.00" y1="448.00" x2="304.00" y2="1280.00" />
<line x1="304.00" y1="1328.00" x2="304.00" y2="1376.00" />
<line x1="320.00" y1="208.00" x2="320.00" y2="272.00" />
<line x1="320.00" y1="368.00" x2="320.00" y2="432.00" />
<line x1="320.00" y1="448.00" x2="320.00" y2="752.00" />
<line x1="320.00" y1="768.00" x2="320.00" y2="784.00" />
<line x1="320.00" y1="800.00" x2="320.00" y2="1104.00" />
<line x1="320.00" y1="1120.00" x2="320.00" y2="1264.00" />
<line x1="320.00" y1="1296.00" x2="320.00" y2="1328.00" />
<line x1="528.00" y1="208.00" x2="528.00" y2="272.00" />
<line x1="528.00" y1="288.00" x2="528.00" y2="304.00" />
<line x1="528.00" y1="336.00" x2="528.00" y2="416.00" />
<line x1="528.00" y1="592.00" x2="528.00" y2="752.00" />
<line x1="528.00" y1="768.00" x2="528.00" y2="960.00" />
<line x1="528.00" y1="1008.00" x2="528.00" y2="1072.00" />
<line x1="528.00" y1="1120.00" x2="528.00" y2="1280.00" />
<line x1="544.00" y1="208.00" x2="544.00" y2="272.00" />
<line x1="544.00" y1="288.00" x2="544.00" y2="304.00" />
<line x1="544.00" y1="320.00" x2="544.00" y2="416.00" />
<line x1="544.00" y1="576.00" x2="544.00" y2="720.00" />
<line x1="544.00" y1="736.00" x2="544.00" y2="752.00" />
<line x1="544.00" y1="768.00" x2="544.00" y2="928.00" />
<line x1="544.00" y1="960.00" x2="544.00" y2="1008.00" />
<line x1="544.00" y1="1168.00" x2="544.00" y2="1264.00" />
<line x1="576.00" y1="208.00" x2="576.00" y2="272.00" />
<line x1="576.00" y1="288.00" x2="576.00" y2="304.00" />
<line x1="576.00" y1="320.00" x2="576.00" y2="416.00" />
<line x1="576.00" y1="528.00" x2="576.00" y2="560.00" />
<line x1="576.00" y1="592.00" x2="576.00" y2="720.00" />
<line x1="576.00" y1="736.00" x2="576.00" y2="752.00" />
<line x1="576.00" y1="768.00" x2="576.00" y2="864.00" />
<line x1="576.00" y1="944.00" x2="576.00" y2="1008.00" />
<line x1="576.00" y1="1168.00" x2="576.00" y2="1184.00" />
<line x1="720.00" y1="208.00" x2="720.00" y2="304.00" />
<line x1="720.00" y1="320.00" x2="720.00" y2="336.00" />
<line x1="720.00" y1="368.00" x2="720.00" y2="400.00" />
<line x1="720.00" y1="688.00" x2="720.00" y2="720.00" />
<line x1="720.00" y1="880.00" x2="720.00" y2="896.00" />
<line x1="720.00" y1="1296.00" x2="720.00" y2="1312.00" />
<line x1="720.00" y1="1328.00" x2="720.00" y2="1360.00" />
<line x1="864.00" y1="208.00" x2="864.00" y2="304.00" />
<line x1="864.00" y1="320.00" x2="864.00" y2="368.00" />
<line x1="864.00" y1="656.00" x2="864.00" y2="704.00" />
<line x1="864.00" y1="912.00" x2="864.00" y2="1104.00" />
<line x1="864.00" y1="1120.00" x2="864.00" y2="1264.00" />
<line x1="864.00" y1="1280.00" x2="864.00" y2="1312.00" />
<line x1="1168.00" y1="208.00" x2="1168.00" y2="224.00" />
<line x1="1168.00" y1="240.00" x2="1168.00" y2="256.00" />
<line x1="1168.00" y1="1040.00" x2="1168.00" y2="1056.00" />
<line x1="1200.00" y1="208.00" x2="1200.00" y2="224.00" />
<line x1="1200.00" y1="976.00" x2="1200.00" y2="992.00" />
<line x1="1200.00" y1="1008.00" x2="1200.00" y2="1040.00" />
<line x1="208.00" y1="224.00" x2="208.00" y2="240.00" />
<line x1="208.00" y1="288.00" x2="208.00" y2="304.00" />
<line x1="208.00" y1="1424.00" x2="208.00" y2="1504.00" />
<line x1="1152.00" y1="224.00" x2="1152.00" y2="240.00" />
<line x1="1152.00" y1="352.00" x2="1152.00" y2="512.00" />
<line x1="1152.00" y1="528.00" x2="1152.00" y2="560.00" />
<line x1="1152.00" y1="1024.00" x2="1152.00" y2="1040.00" />
<line x1="1152.00" y1="1056.00" x2="1152.00" y2="1088.00" />
<line x1="1152.00" y1="1120.00" x2="1152.00" y2="1136.00" />
<line x1="1152.00" y1="1248.00" x2="1152.00" y2="1264.00" />
<line x1="144.00" y1="240.00" x2="144.00" y2="304.00" />
<line x1="1136.00" y1="240.00" x2="1136.00" y2="256.00" />
<line x1="1136.00" y1="352.00" x2="1136.00" y2="512.00" />
<line x1="1136.00" y1="528.00" x2="1136.00" y2="560.00" />
<line x1="1136.00" y1="688.00" x2="1136.00" y2="720.00" />
<line x1="1136.00" y1="736.00" x2="1136.00" y2="752.00" />
<line x1="1136.00" y1="768.00" x2="1136.00" y2="816.00" />
<line x1="1136.00" y1="880.00" x2="1136.00" y2="896.00" />
<line x1="1136.00" y1="912.00" x2="1136.00" y2="928.00" />
<line x1="1136.00" y1="1040.00" x2="1136.00" y2="1072.00" />
<line x1="1136.00" y1="1152.00" x2="1136.00" y2="1248.00" />
<line x1="1328.00" y1="240.00" x2="1328.00" y2="480.00" />
<line x1="1328.00" y1="576.00" x2="1328.00" y2="720.00" />
<line x1="1328.00" y1="736.00" x2="1328.00" y2="1104.00" />
<line x1="1328.00" y1="1184.00" x2="1328.00" y2="1264.00" />
<line x1="1328.00" y1="1280.00" x2="1328.00" y2="1360.00" />
<line x1="1344.00" y1="240.00" x2="1344.00" y2="480.00" />
<line x1="1344.00" y1="544.00" x2="1344.00" y2="720.00" />
<line x1="1344.00" y1="736.00" x2="1344.00" y2="1120.00" />
<line x1="1056.00" y1="256.00" x2="1056.00" y2="304.00" />
<line x1="1056.00" y1="320.00" x2="1056.00" y2="336.00" />
<line x1="1056.00" y1="352.00" x2="1056.00" y2="368.00" />
<line x1="1056.00" y1="512.00" x2="1056.00" y2="528.00" />
<line x1="1056.00" y1="544.00" x2="1056.00" y2="560.00" />
<line x1="1056.00" y1="1024.00" x2="1056.00" y2="1040.00" />
<line x1="1056.00" y1="1072.00" x2="1056.00" y2="1088.00" />
<line x1="1056.00" y1="1152.00" x2="1056.00" y2="1184.00" />
<line x1="256.00" y1="288.00" x2="256.00" y2="352.00" />
<line x1="368.00" y1="288.00" x2="368.00" y2="304.00" />
<line x1="368.00" y1="336.00" x2="368.00" y2="368.00" />
<line x1="368.00" y1="384.00" x2="368.00" y2="416.00" />
<line x1="368.00" y1="816.00" x2="368.00" y2="832.00" />
<line x1="368.00" y1="1232.00" x2="368.00" y2="1264.00" />
<line x1="608.00" y1="320.00" x2="608.00" y2="416.00" />
<line x1="608.00" y1="960.00" x2="608.00" y2="992.00" />
<line x1="608.00" y1="1008.00" x2="608.00" y2="1024.00" />
<line x1="608.00" y1="1040.00" x2="608.00" y2="1056.00" />
<line x1="624.00" y1="320.00" x2="624.00" y2="416.00" />
<line x1="624.00" y1="512.00" x2="624.00" y2="544.00" />
<line x1="624.00" y1="560.00" x2="624.00" y2="576.00" />
<line x1="624.00" y1="656.00" x2="624.00" y2="720.00" />
<line x1="624.00" y1="736.00" x2="624.00" y2="752.00" />
<line x1="624.00" y1="768.00" x2="624.00" y2="864.00" />
<line x1="624.00" y1="944.00" x2="624.00" y2="960.00" />
<line x1="624.00" y1="976.00" x2="624.00" y2="1008.00" />
<line x1="624.00" y1="1056.00" x2="624.00" y2="1072.00" />
<line x1="624.00" y1="1152.00" x2="624.00" y2="1168.00" />
<line x1="416.00" y1="336.00" x2="416.00" y2="368.00" />
<line x1="416.00" y1="416.00" x2="416.00" y2="432.00" />
<line x1="416.00" y1="672.00" x2="416.00" y2="704.00" />
<line x1="416.00" y1="864.00" x2="416.00" y2="880.00" />
<line x1="496.00" y1="336.00" x2="496.00" y2="400.00" />
<line x1="496.00" y1="448.00" x2="496.00" y2="512.00" />
<line x1="496.00" y1="576.00" x2="496.00" y2="592.00" />
<line x1="496.00" y1="960.00" x2="496.00" y2="1008.00" />
<line x1="496.00" y1="1024.00" x2="496.00" y2="1040.00" />
<line x1="496.00" y1="1120.00" x2="496.00" y2="1136.00" />
<line x1="704.00" y1="336.00" x2="704.00" y2="352.00" />
<line x1="704.00" y1="656.00" x2="704.00" y2="688.00" />
<line x1="704.00" y1="704.00" x2="704.00" y2="720.00" />
<line x1="704.00" y1="864.00" x2="704.00" y2="896.00" />
<line x1="704.00" y1="1120.00" x2="704.00" y2="1152.00" />
<line x1="704.00" y1="1184.00" x2="704.00" y2="1232.00" />
<line x1="704.00" y1="1312.00" x2="704.00" y2="1344.00" />
<line x1="704.00" y1="1360.00" x2="704.00" y2="1472.00" />
<line x1="1040.00" y1="336.00" x2="1040.00" y2="352.00" />
<line x1="1040.00" y1="368.00" x2="1040.00" y2="400.00" />
<line x1="1040.00" y1="528.00" x2="1040.00" y2="560.00" />
<line x1="1040.00" y1="576.00" x2="1040.00" y2="592.00" />
<line x1="1040.00" y1="1008.00" x2="1040.00" y2="1024.00" />
<line x1="1040.00" y1="1040.00" x2="1040.00" y2="1072.00" />
<line x1="1040.00" y1="1136.00" x2="1040.00" y2="1168.00" />
<line x1="112.00" y1="352.00" x2="112.00" y2="512.00" />
<line x1="112.00" y1="1392.00" x2="112.00" y2="1504.00" />
<line x1="688.00" y1="352.00" x2="688.00" y2="384.00" />
<line x1="688.00" y1="400.00" x2="688.00" y2="512.00" />
<line x1="688.00" y1="656.00" x2="688.00" y2="672.00" />
<line x1="688.00" y1="704.00" x2="688.00" y2="720.00" />
<line x1="688.00" y1="736.00" x2="688.00" y2="752.00" />
<line x1="688.00" y1="768.00" x2="688.00" y2="896.00" />
<line x1="688.00" y1="912.00" x2="688.00" y2="1104.00" />
<line x1="688.00" y1="1120.00" x2="688.00" y2="1152.00" />
<line x1="1024.00" y1="352.00" x2="1024.00" y2="384.00" />
<line x1="1024.00" y1="592.00" x2="1024.00" y2="608.00" />
<line x1="1024.00" y1="992.00" x2="1024.00" y2="1008.00" />
<line x1="1024.00" y1="1024.00" x2="1024.00" y2="1040.00" />
<line x1="1024.00" y1="1184.00" x2="1024.00" y2="1216.00" />
<line x1="336.00" y1="368.00" x2="336.00" y2="384.00" />
<line x1="336.00" y1="800.00" x2="336.00" y2="832.00" />
<line x1="336.00" y1="1232.00" x2="336.00" y2="1264.00" />
<line x1="336.00" y1="1280.00" x2="336.00" y2="1296.00" />
<line x1="384.00" y1="368.00" x2="384.00" y2="400.00" />
<line x1="384.00" y1="416.00" x2="384.00" y2="432.00" />
<line x1="384.00" y1="688.00" x2="384.00" y2="752.00" />
<line x1="384.00" y1="768.00" x2="384.00" y2="832.00" />
<line x1="384.00" y1="848.00" x2="384.00" y2="1024.00" />
<line x1="384.00" y1="1200.00" x2="384.00" y2="1216.00" />
<line x1="432.00" y1="368.00" x2="432.00" y2="432.00" />
<line x1="432.00" y1="448.00" x2="432.00" y2="480.00" />
<line x1="432.00" y1="640.00" x2="432.00" y2="656.00" />
<line x1="432.00" y1="896.00" x2="432.00" y2="928.00" />
<line x1="432.00" y1="1024.00" x2="432.00" y2="1040.00" />
<line x1="432.00" y1="1072.00" x2="432.00" y2="1104.00" />
<line x1="432.00" y1="1120.00" x2="432.00" y2="1136.00" />
<line x1="432.00" y1="1168.00" x2="432.00" y2="1200.00" />
<line x1="784.00" y1="368.00" x2="784.00" y2="688.00" />
<line x1="784.00" y1="912.00" x2="784.00" y2="1104.00" />
<line x1="784.00" y1="1280.00" x2="784.00" y2="1296.00" />
<line x1="800.00" y1="368.00" x2="800.00" y2="480.00" />
<line x1="800.00" y1="656.00" x2="800.00" y2="720.00" />
<line x1="800.00" y1="912.00" x2="800.00" y2="1104.00" />
<line x1="800.00" y1="1232.00" x2="800.00" y2="1264.00" />
<line x1="800.00" y1="1280.00" x2="800.00" y2="1296.00" />
<line x1="672.00" y1="384.00" x2="672.00" y2="400.00" />
<line x1="672.00" y1="688.00" x2="672.00" y2="720.00" />
<line x1="672.00" y1="736.00" x2="672.00" y2="752.00" />
<line x1="672.00" y1="768.00" x2="672.00" y2="896.00" />
<line x1="672.00" y1="912.00" x2="672.00" y2="928.00" />
<line x1="672.00" y1="960.00" x2="672.00" y2="1104.00" />
<line x1="672.00" y1="1136.00" x2="672.00" y2="1168.00" />
<line x1="672.00" y1="1344.00" x2="672.00" y2="1360.00" />
<line x1="992.00" y1="384.00" x2="992.00" y2="400.00" />
<line x1="992.00" y1="416.00" x2="992.00" y2="448.00" />
<line x1="992.00" y1="592.00" x2="992.00" y2="608.00" />
<line x1="992.00" y1="880.00" x2="992.00" y2="896.00" />
<line x1="992.00" y1="960.00" x2="992.00" y2="976.00" />
<line x1="992.00" y1="1008.00" x2="992.00" y2="1024.00" />
<line x1="992.00" y1="1216.00" x2="992.00" y2="1232.00" />
<line x1="400.00" y1="400.00" x2="400.00" y2="416.00" />
<line x1="400.00" y1="656.00" x2="400.00" y2="688.00" />
<line x1="400.00" y1="704.00" x2="400.00" y2="752.00" />
<line x1="400.00" y1="768.00" x2="400.00" y2="864.00" />
<line x1="400.00" y1="896.00" x2="400.00" y2="1024.00" />
<line x1="400.00" y1="1200.00" x2="400.00" y2="1232.00" />
<line x1="512.00" y1="400.00" x2="512.00" y2="416.00" />
<line x1="512.00" y1="448.00" x2="512.00" y2="512.00" />
<line x1="512.00" y1="528.00" x2="512.00" y2="576.00" />
<line x1="512.00" y1="592.00" x2="512.00" y2="608.00" />
<line x1="512.00" y1="944.00" x2="512.00" y2="960.00" />
<line x1="512.00" y1="1008.00" x2="512.00" y2="1024.00" />
<line x1="512.00" y1="1072.00" x2="512.00" y2="1088.00" />
<line x1="656.00" y1="400.00" x2="656.00" y2="416.00" />
<line x1="656.00" y1="544.00" x2="656.00" y2="576.00" />
<line x1="656.00" y1="672.00" x2="656.00" y2="688.00" />
<line x1="656.00" y1="864.00" x2="656.00" y2="896.00" />
<line x1="656.00" y1="912.00" x2="656.00" y2="928.00" />
<line x1="656.00" y1="1120.00" x2="656.00" y2="1136.00" />
<line x1="976.00" y1="400.00" x2="976.00" y2="432.00" />
<line x1="976.00" y1="448.00" x2="976.00" y2="464.00" />
<line x1="976.00" y1="624.00" x2="976.00" y2="640.00" />
<line x1="976.00" y1="896.00" x2="976.00" y2="912.00" />
<line x1="976.00" y1="976.00" x2="976.00" y2="1008.00" />
<line x1="976.00" y1="1200.00" x2="976.00" y2="1216.00" />
<line x1="976.00" y1="1232.00" x2="976.00" y2="1264.00" />
<line x1="1008.00" y1="400.00" x2="1008.00" y2="416.00" />
<line x1="1008.00" y1="576.00" x2="1008.00" y2="592.00" />
<line x1="1008.00" y1="608.00" x2="1008.00" y2="624.00" />
<line x1="1008.00" y1="976.00" x2="1008.00" y2="992.00" />
<line x1="1008.00" y1="1168.00" x2="1008.00" y2="1200.00" />
<line x1="960.00" y1="432.00" x2="960.00" y2="448.00" />
<line x1="960.00" y1="608.00" x2="960.00" y2="624.00" />
<line x1="960.00" y1="640.00" x2="960.00" y2="656.00" />
<line x1="960.00" y1="848.00" x2="960.00" y2="880.00" />
<line x1="960.00" y1="944.00" x2="960.00" y2="960.00" />
<line x1="960.00" y1="1216.00" x2="960.00" y2="1248.00" />
<line x1="928.00" y1="448.00" x2="928.00" y2="480.00" />
<line x1="928.00" y1="640.00" x2="928.00" y2="656.00" />
<line x1="928.00" y1="672.00" x2="928.00" y2="688.00" />
<line x1="928.00" y1="736.00" x2="928.00" y2="752.00" />
<line x1="928.00" y1="768.00" x2="928.00" y2="832.00" />
<line x1="928.00" y1="864.00" x2="928.00" y2="912.00" />
<line x1="928.00" y1="944.00" x2="928.00" y2="960.00" />
<line x1="928.00" y1="1280.00" x2="928.00" y2="1360.00" />
<line x1="944.00" y1="464.00" x2="944.00" y2="496.00" />
<line x1="944.00" y1="624.00" x2="944.00" y2="640.00" />
<line x1="944.00" y1="656.00" x2="944.00" y2="672.00" />
<line x1="944.00" y1="832.00" x2="944.00" y2="848.00" />
<line x1="944.00" y1="864.00" x2="944.00" y2="896.00" />
<line x1="944.00" y1="912.00" x2="944.00" y2="944.00" />
<line x1="944.00" y1="960.00" x2="944.00" y2="976.00" />
<line x1="944.00" y1="1248.00" x2="944.00" y2="1264.00" />
<line x1="464.00" y1="480.00" x2="464.00" y2="496.00" />
<line x1="464.00" y1="592.00" x2="464.00" y2="624.00" />
<line x1="464.00" y1="640.00" x2="464.00" y2="656.00" />
<line x1="464.00" y1="912.00" x2="464.00" y2="928.00" />
<line x1="464.00" y1="944.00" x2="464.00" y2="960.00" />
<line x1="464.00" y1="1024.00" x2="464.00" y2="1040.00" />
<line x1="464.00" y1="1136.00" x2="464.00" y2="1152.00" />
<line x1="880.00" y1="480.00" x2="880.00" y2="496.00" />
<line x1="880.00" y1="528.00" x2="880.00" y2="560.00" />
<line x1="880.00" y1="576.00" x2="880.00" y2="656.00" />
<line x1="880.00" y1="912.00" x2="880.00" y2="1104.00" />
<line x1="880.00" y1="1120.00" x2="880.00" y2="1264.00" />
<line x1="880.00" y1="1280.00" x2="880.00" y2="1296.00" />
<line x1="896.00" y1="480.00" x2="896.00" y2="496.00" />
<line x1="896.00" y1="512.00" x2="896.00" y2="528.00" />
<line x1="896.00" y1="672.00" x2="896.00" y2="704.00" />
<line x1="896.00" y1="912.00" x2="896.00" y2="928.00" />
<line x1="1360.00" y1="480.00" x2="1360.00" y2="544.00" />
<line x1="1360.00" y1="640.00" x2="1360.00" y2="720.00" />
<line x1="1360.00" y1="736.00" x2="1360.00" y2="816.00" />
<line x1="912.00" y1="496.00" x2="912.00" y2="512.00" />
<line x1="912.00" y1="656.00" x2="912.00" y2="672.00" />
<line x1="912.00" y1="688.00" x2="912.00" y2="720.00" />
<line x1="912.00" y1="928.00" x2="912.00" y2="944.00" />
<line x1="912.00" y1="1280.00" x2="912.00" y2="1296.00" />
<line x1="560.00" y1="528.00" x2="560.00" y2="560.00" />
<line x1="560.00" y1="576.00" x2="560.00" y2="592.00" />
<line x1="560.00" y1="864.00" x2="560.00" y2="928.00" />
<line x1="560.00" y1="944.00" x2="560.00" y2="960.00" />
<line x1="560.00" y1="1360.00" x2="560.00" y2="1472.00" />
<line x1="1072.00" y1="528.00" x2="1072.00" y2="544.00" />
<line x1="1072.00" y1="1040.00" x2="1072.00" y2="1056.00" />
<line x1="1072.00" y1="1088.00" x2="1072.00" y2="1104.00" />
<line x1="1072.00" y1="1120.00" x2="1072.00" y2="1136.00" />
<line x1="1312.00" y1="544.00" x2="1312.00" y2="560.00" />
<line x1="1312.00" y1="880.00" x2="1312.00" y2="928.00" />
<line x1="640.00" y1="560.00" x2="640.00" y2="576.00" />
<line x1="640.00" y1="656.00" x2="640.00" y2="672.00" />
<line x1="640.00" y1="960.00" x2="640.00" y2="976.00" />
<line x1="640.00" y1="1072.00" x2="640.00" y2="1104.00" />
<line x1="640.00" y1="1120.00" x2="640.00" y2="1152.00" />
<line x1="768.00" y1="576.00" x2="768.00" y2="656.00" />
<line x1="768.00" y1="672.00" x2="768.00" y2="688.00" />
<line x1="768.00" y1="704.00" x2="768.00" y2="720.00" />
<line x1="768.00" y1="736.00" x2="768.00" y2="752.00" />
<line x1="768.00" y1="784.00" x2="768.00" y2="816.00" />
<line x1="768.00" y1="864.00" x2="768.00" y2="896.00" />
<line x1="768.00" y1="1248.00" x2="768.00" y2="1264.00" />
<line x1="768.00" y1="1296.00" x2="768.00" y2="1312.00" />
<line x1="448.00" y1="624.00" x2="448.00" y2="640.00" />
<line x1="448.00" y1="656.00" x2="448.00" y2="672.00" />
<line x1="448.00" y1="880.00" x2="448.00" y2="912.00" />
<line x1="448.00" y1="928.00" x2="448.00" y2="944.00" />
<line x1="448.00" y1="1056.00" x2="448.00" y2="1072.00" />
<line x1="448.00" y1="1120.00" x2="448.00" y2="1136.00" />
<line x1="448.00" y1="1152.00" x2="448.00" y2="1168.00" />
<line x1="1408.00" y1="640.00" x2="1408.00" y2="816.00" />
<line x1="1408.00" y1="1184.00" x2="1408.00" y2="1360.00" />
<line x1="752.00" y1="656.00" x2="752.00" y2="672.00" />
<line x1="752.00" y1="736.00" x2="752.00" y2="752.00" />
<line x1="752.00" y1="768.00" x2="752.00" y2="784.00" />
<line x1="752.00" y1="816.00" x2="752.00" y2="848.00" />
<line x1="752.00" y1="864.00" x2="752.00" y2="880.00" />
<line x1="752.00" y1="1232.00" x2="752.00" y2="1248.00" />
<line x1="752.00" y1="1280.00" x2="752.00" y2="1296.00" />
<line x1="848.00" y1="656.00" x2="848.00" y2="720.00" />
<line x1="848.00" y1="1120.00" x2="848.00" y2="1232.00" />
<line x1="848.00" y1="1296.00" x2="848.00" y2="1312.00" />
<line x1="736.00" y1="672.00" x2="736.00" y2="704.00" />
<line x1="736.00" y1="736.00" x2="736.00" y2="752.00" />
<line x1="736.00" y1="848.00" x2="736.00" y2="864.00" />
<line x1="736.00" y1="1312.00" x2="736.00" y2="1328.00" />
<line x1="1280.00" y1="688.00" x2="1280.00" y2="720.00" />
<line x1="1280.00" y1="736.00" x2="1280.00" y2="816.00" />
<line x1="1088.00" y1="1056.00" x2="1088.00" y2="1072.00" />
<line x1="1088.00" y1="1136.00" x2="1088.00" y2="1152.00" />
<line x1="1120.00" y1="1088.00" x2="1120.00" y2="1104.00" />
<line x1="1120.00" y1="1136.00" x2="1120.00" y2="1152.00" />
<line x1="1248.00" y1="1152.00" x2="1248.00" y2="1168.00" />
<line x1="1248.00" y1="1248.00" x2="1248.00" y2="1264.00" />
<line x1="288.00" y1="1280.00" x2="288.00" y2="1296.00" />
<line x1="832.00" y1="1280.00" x2="832.00" y2="1296.00" />
<line x1="816.00" y1="1296.00" x2="816.00" y2="1360.00" />
<line x1="176.00" y1="1312.00" x2="176.00" y2="1376.00" />
  </g>
  <g class="features">
<g data-feature-type="stairsDown"><line data-feature-type="stairsDown" x1="850.24" y1="819.36" x2="861.76" y2="819.36" /><line x1="850.65" y1="821.68" x2="861.35" y2="821.68" /><line x1="851.07" y1="824.00" x2="860.93" y2="824.00" /><line x1="851.48" y1="826.32" x2="860.52" y2="826.32" /><line x1="851.90" y1="828.64" x2="860.10" y2="828.64" /></g>
<g data-feature-type="stairsUp"><line data-feature-type="stairsUp" x1="771.90" y1="307.36" x2="780.10" y2="307.36" /><line x1="771.48" y1="309.68" x2="780.52" y2="309.68" /><line x1="771.07" y1="312.00" x2="780.93" y2="312.00" /><line x1="770.65" y1="314.32" x2="781.35" y2="314.32" /><line x1="770.24" y1="316.64" x2="781.76" y2="316.64" /></g>
<circle data-feature-type="pillar" cx="1352.00" cy="168.00" r="3.68" fill="#5c92ab" stroke="none" />
<circle data-feature-type="pillar" cx="328.00" cy="168.00" r="3.68" fill="#5c92ab" stroke="none" />
<circle data-feature-type="pillar" cx="856.00" cy="568.00" r="3.68" fill="#5c92ab" stroke="none" />
<g data-feature-type="statue"><circle cx="840.00" cy="536.00" r="3.52" fill="none" /><line x1="837.76" y1="536.00" x2="842.24" y2="536.00" /><line x1="840.00" y1="533.76" x2="840.00" y2="538.24" /><line x1="838.39" y1="534.39" x2="841.61" y2="537.61" /><line x1="838.39" y1="537.61" x2="841.61" y2="534.39" /></g>
<path data-feature-type="curtain" d="M 822.40 531.84 Q 824.00 534.34 822.40 536.00 Q 824.00 537.66 822.40 540.16" fill="none" /><path d="M 825.60 531.84 Q 824.00 534.34 825.60 536.00 Q 824.00 537.66 825.60 540.16" fill="none" />
<circle data-feature-type="pillar" cx="1224.00" cy="760.00" r="3.68" fill="#5c92ab" stroke="none" />
<circle data-feature-type="pillar" cx="1144.00" cy="280.00" r="3.68" fill="#5c92ab" stroke="none" />
<circle data-feature-type="pillar" cx="1144.00" cy="328.00" r="3.68" fill="#5c92ab" stroke="none" />
<g data-feature-type="trap"><rect x="1156.64" y="292.64" width="6.72" height="6.72" fill="none" /><line x1="1156.64" y1="292.64" x2="1163.36" y2="299.36" /><line x1="1156.64" y1="299.36" x2="1163.36" y2="292.64" /></g>
<g data-feature-type="coffin"><rect x="821.60" y="868.32" width="4.80" height="7.36" rx="0.80" ry="0.80" fill="none" /><line x1="824.00" y1="869.94" x2="824.00" y2="874.06" /></g>
<circle data-feature-type="pillar" cx="600.00" cy="1112.00" r="3.68" fill="#5c92ab" stroke="none" />
<circle data-feature-type="pillar" cx="760.00" cy="312.00" r="3.68" fill="#5c92ab" stroke="none" />
<circle data-feature-type="pillar" cx="760.00" cy="280.00" r="3.68" fill="#5c92ab" stroke="none" />
<circle data-feature-type="pillar" cx="776.00" cy="280.00" r="3.68" fill="#5c92ab" stroke="none" />
<g data-feature-type="chest"><rect x="805.28" y="342.24" width="5.44" height="3.52" fill="none" /><line x1="805.28" y1="344.00" x2="810.72" y2="344.00" /><circle cx="808.00" cy="344.18" r="0.70" fill="#5c92ab" stroke="none" /></g>
<path data-feature-type="curtain" d="M 742.40 227.84 Q 744.00 230.34 742.40 232.00 Q 744.00 233.66 742.40 236.16" fill="none" /><path d="M 745.60 227.84 Q 744.00 230.34 745.60 232.00 Q 744.00 233.66 745.60 236.16" fill="none" />
<circle data-feature-type="pillar" cx="184.00" cy="440.00" r="3.68" fill="#5c92ab" stroke="none" />
<circle data-feature-type="pillar" cx="616.00" cy="472.00" r="3.68" fill="#5c92ab" stroke="none" />
<g data-feature-type="statue"><circle cx="648.00" cy="472.00" r="3.52" fill="none" /><line x1="645.76" y1="472.00" x2="650.24" y2="472.00" /><line x1="648.00" y1="469.76" x2="648.00" y2="474.24" /><line x1="646.39" y1="470.39" x2="649.61" y2="473.61" /><line x1="646.39" y1="473.61" x2="649.61" y2="470.39" /></g>
<g data-feature-type="trap"><rect x="580.64" y="468.64" width="6.72" height="6.72" fill="none" /><line x1="580.64" y1="468.64" x2="587.36" y2="475.36" /><line x1="580.64" y1="475.36" x2="587.36" y2="468.64" /></g>
<g data-feature-type="trap"><rect x="340.64" y="308.64" width="6.72" height="6.72" fill="none" /><line x1="340.64" y1="308.64" x2="347.36" y2="315.36" /><line x1="340.64" y1="315.36" x2="347.36" y2="308.64" /></g>
<g data-feature-type="coffin"><rect x="341.60" y="324.32" width="4.80" height="7.36" rx="0.80" ry="0.80" fill="none" /><line x1="344.00" y1="325.94" x2="344.00" y2="330.06" /></g>
<circle data-feature-type="pillar" cx="184.00" cy="1448.00" r="3.68" fill="#5c92ab" stroke="none" />
<path data-feature-type="curtain" d="M 806.40 1203.84 Q 808.00 1206.34 806.40 1208.00 Q 808.00 1209.66 806.40 1212.16" fill="none" /><path d="M 809.60 1203.84 Q 808.00 1206.34 809.60 1208.00 Q 808.00 1209.66 809.60 1212.16" fill="none" />
<circle data-feature-type="pillar" cx="552.00" cy="136.00" r="3.68" fill="#5c92ab" stroke="none" />
<circle data-feature-type="pillar" cx="504.00" cy="136.00" r="3.68" fill="#5c92ab" stroke="none" />
<g data-feature-type="statue"><circle cx="504.00" cy="152.00" r="3.52" fill="none" /><line x1="501.76" y1="152.00" x2="506.24" y2="152.00" /><line x1="504.00" y1="149.76" x2="504.00" y2="154.24" /><line x1="502.39" y1="150.39" x2="505.61" y2="153.61" /><line x1="502.39" y1="153.61" x2="505.61" y2="150.39" /></g>
<g data-feature-type="statue"><circle cx="392.00" cy="1160.00" r="3.52" fill="none" /><line x1="389.76" y1="1160.00" x2="394.24" y2="1160.00" /><line x1="392.00" y1="1157.76" x2="392.00" y2="1162.24" /><line x1="390.39" y1="1158.39" x2="393.61" y2="1161.61" /><line x1="390.39" y1="1161.61" x2="393.61" y2="1158.39" /></g>
<circle data-feature-type="pillar" cx="1384.00" cy="1272.00" r="3.68" fill="#5c92ab" stroke="none" />
<g data-feature-type="well"><circle cx="1384.00" cy="1224.00" r="4.00" fill="none" /><circle cx="1384.00" cy="1224.00" r="2.24" fill="none" /></g>
<path data-feature-type="curtain" d="M 1382.40 1235.84 Q 1384.00 1238.34 1382.40 1240.00 Q 1384.00 1241.66 1382.40 1244.16" fill="none" /><path d="M 1385.60 1235.84 Q 1384.00 1238.34 1385.60 1240.00 Q 1384.00 1241.66 1385.60 1244.16" fill="none" />
<g data-feature-type="trap"><rect x="852.64" y="1332.64" width="6.72" height="6.72" fill="none" /><line x1="852.64" y1="1332.64" x2="859.36" y2="1339.36" /><line x1="852.64" y1="1339.36" x2="859.36" y2="1332.64" /></g>
<g data-feature-type="trap"><rect x="468.64" y="372.64" width="6.72" height="6.72" fill="none" /><line x1="468.64" y1="372.64" x2="475.36" y2="379.36" /><line x1="468.64" y1="379.36" x2="475.36" y2="372.64" /></g>
<path data-feature-type="curtain" d="M 454.40 371.84 Q 456.00 374.34 454.40 376.00 Q 456.00 377.66 454.40 380.16" fill="none" /><path d="M 457.60 371.84 Q 456.00 374.34 457.60 376.00 Q 456.00 377.66 457.60 380.16" fill="none" />
<circle data-feature-type="pillar" cx="1240.00" cy="904.00" r="3.68" fill="#5c92ab" stroke="none" />
<circle data-feature-type="pillar" cx="632.00" cy="904.00" r="3.68" fill="#5c92ab" stroke="none" />
<circle data-feature-type="pillar" cx="1224.00" cy="1208.00" r="3.68" fill="#5c92ab" stroke="none" />
<circle data-feature-type="pillar" cx="1336.00" cy="520.00" r="3.68" fill="#5c92ab" stroke="none" />
<g data-feature-type="statue"><circle cx="200.00" cy="1352.00" r="3.52" fill="none" /><line x1="197.76" y1="1352.00" x2="202.24" y2="1352.00" /><line x1="200.00" y1="1349.76" x2="200.00" y2="1354.24" /><line x1="198.39" y1="1350.39" x2="201.61" y2="1353.61" /><line x1="198.39" y1="1353.61" x2="201.61" y2="1350.39" /></g>
<circle data-feature-type="pillar" cx="696.00" cy="616.00" r="3.68" fill="#5c92ab" stroke="none" />
<circle data-feature-type="pillar" cx="648.00" cy="616.00" r="3.68" fill="#5c92ab" stroke="none" />
  </g>
  <g class="thresholds">
<g data-threshold-type="locked" stroke="#5c92ab" fill="none" stroke-width="1.52"><rect x="1331.52" y="229.76" width="8.96" height="4.48" fill="#ffffff" /><circle cx="1336.00" cy="228.77" r="1.61" /></g>
<rect data-threshold-type="door" x="195.52" y="277.76" width="8.96" height="4.48" fill="#ffffff" stroke="#5c92ab" stroke-width="1.52" />
<rect data-threshold-type="door" x="339.52" y="165.76" width="8.96" height="4.48" fill="#ffffff" stroke="#5c92ab" stroke-width="1.52" />
<rect data-threshold-type="door" x="867.52" y="517.76" width="8.96" height="4.48" fill="#ffffff" stroke="#5c92ab" stroke-width="1.52" />
<rect data-threshold-type="door" x="1219.52" y="805.76" width="8.96" height="4.48" fill="#ffffff" stroke="#5c92ab" stroke-width="1.52" />
<rect data-threshold-type="door" x="1139.52" y="261.76" width="8.96" height="4.48" fill="#ffffff" stroke="#5c92ab" stroke-width="1.52" />
<rect data-threshold-type="door" x="771.52" y="837.76" width="8.96" height="4.48" fill="#ffffff" stroke="#5c92ab" stroke-width="1.52" />
<rect data-threshold-type="door" x="531.52" y="1157.76" width="8.96" height="4.48" fill="#ffffff" stroke="#5c92ab" stroke-width="1.52" />
<rect data-threshold-type="door" x="787.52" y="357.76" width="8.96" height="4.48" fill="#ffffff" stroke="#5c92ab" stroke-width="1.52" />
<g data-threshold-type="secret"><line x1="211.52" y1="376.00" x2="220.48" y2="376.00" stroke="#5c92ab" stroke-width="1.31" stroke-dasharray="1.31 1.31" /><text x="221.56" y="375.10" font-size="5.44" fill="#5c92ab" font-family="Courier New, monospace" font-weight="700">S</text></g>
<g data-threshold-type="secret"><line x1="515.52" y1="440.00" x2="524.48" y2="440.00" stroke="#5c92ab" stroke-width="1.31" stroke-dasharray="1.31 1.31" /><text x="525.56" y="439.10" font-size="5.44" fill="#5c92ab" font-family="Courier New, monospace" font-weight="700">S</text></g>
<rect data-threshold-type="door" x="355.52" y="293.76" width="8.96" height="4.48" fill="#ffffff" stroke="#5c92ab" stroke-width="1.52" />
<rect data-threshold-type="door" x="195.52" y="1397.76" width="8.96" height="4.48" fill="#ffffff" stroke="#5c92ab" stroke-width="1.52" />
<g data-threshold-type="locked" stroke="#5c92ab" fill="none" stroke-width="1.52"><rect x="707.52" y="1125.76" width="8.96" height="4.48" fill="#ffffff" /><circle cx="712.00" cy="1124.77" r="1.61" /></g>
<rect data-threshold-type="door" x="483.52" y="165.76" width="8.96" height="4.48" fill="#ffffff" stroke="#5c92ab" stroke-width="1.52" />
<rect data-threshold-type="door" x="355.52" y="1109.76" width="8.96" height="4.48" fill="#ffffff" stroke="#5c92ab" stroke-width="1.52" />
<rect data-threshold-type="door" x="1331.52" y="1269.76" width="8.96" height="4.48" fill="#ffffff" stroke="#5c92ab" stroke-width="1.52" />
<rect data-threshold-type="door" x="835.52" y="1317.76" width="8.96" height="4.48" fill="#ffffff" stroke="#5c92ab" stroke-width="1.52" />
<rect data-threshold-type="door" x="467.52" y="469.76" width="8.96" height="4.48" fill="#ffffff" stroke="#5c92ab" stroke-width="1.52" />
<rect data-threshold-type="door" x="1139.52" y="901.76" width="8.96" height="4.48" fill="#ffffff" stroke="#5c92ab" stroke-width="1.52" />
<rect data-threshold-type="door" x="643.52" y="901.76" width="8.96" height="4.48" fill="#ffffff" stroke="#5c92ab" stroke-width="1.52" />
<rect data-threshold-type="door" x="1171.52" y="1269.76" width="8.96" height="4.48" fill="#ffffff" stroke="#5c92ab" stroke-width="1.52" />
<rect data-threshold-type="door" x="691.52" y="1365.76" width="8.96" height="4.48" fill="#ffffff" stroke="#5c92ab" stroke-width="1.52" />
<g data-threshold-type="secret"><line x1="1331.52" y1="536.00" x2="1340.48" y2="536.00" stroke="#5c92ab" stroke-width="1.31" stroke-dasharray="1.31 1.31" /><text x="1341.56" y="535.10" font-size="5.44" fill="#5c92ab" font-family="Courier New, monospace" font-weight="700">S</text></g>
<rect data-threshold-type="door" x="1363.52" y="725.76" width="8.96" height="4.48" fill="#ffffff" stroke="#5c92ab" stroke-width="1.52" />
<rect data-threshold-type="door" x="227.52" y="1365.76" width="8.96" height="4.48" fill="#ffffff" stroke="#5c92ab" stroke-width="1.52" />
<rect data-threshold-type="door" x="595.52" y="613.76" width="8.96" height="4.48" fill="#ffffff" stroke="#5c92ab" stroke-width="1.52" />
  </g>
  <g class="labels">
<text x="1336.00" y="169.92" text-anchor="middle">1</text>
<text x="184.00" y="281.92" text-anchor="middle">2</text>
<text x="312.00" y="169.92" text-anchor="middle">3</text>
<text x="840.00" y="569.92" text-anchor="middle">4</text>
<text x="1208.00" y="761.92" text-anchor="middle">5</text>
<text x="1144.00" y="313.92" text-anchor="middle">6</text>
<text x="856.00" y="809.92" text-anchor="middle">7</text>
<text x="584.00" y="1113.92" text-anchor="middle">8</text>
<text x="792.00" y="297.92" text-anchor="middle">9</text>
<text x="168.00" y="441.92" text-anchor="middle">10</text>
<text x="600.00" y="473.92" text-anchor="middle">11</text>
<text x="312.00" y="329.92" text-anchor="middle">12</text>
<text x="168.00" y="1449.92" text-anchor="middle">13</text>
<text x="776.00" y="1177.92" text-anchor="middle">14</text>
<text x="536.00" y="137.92" text-anchor="middle">15</text>
<text x="392.00" y="1113.92" text-anchor="middle">16</text>
<text x="1368.00" y="1273.92" text-anchor="middle">17</text>
<text x="872.00" y="1337.92" text-anchor="middle">18</text>
<text x="472.00" y="393.92" text-anchor="middle">19</text>
<text x="1224.00" y="905.92" text-anchor="middle">20</text>
<text x="616.00" y="905.92" text-anchor="middle">21</text>
<text x="1208.00" y="1209.92" text-anchor="middle">22</text>
<text x="632.00" y="1417.92" text-anchor="middle">23</text>
<text x="1320.00" y="521.92" text-anchor="middle">24</text>
<text x="1384.00" y="729.92" text-anchor="middle">25</text>
<text x="248.00" y="1353.92" text-anchor="middle">26</text>
<text x="680.00" y="617.92" text-anchor="middle">27</text>
  </g>
</svg>