<?xml version="1.0" encoding="UTF-8"?>
<svg xmlns="http://www.w3.org/2000/svg" width="1504" height="1536" viewBox="0 0 1504.00 1536.00" role="img" aria-label="MapIR render: Learned Generated Map 4">
  <defs>
    <style>
      .grid { stroke: #d7e7ef; stroke-width: 0.64; opacity: 0.72; }
      .walls { stroke: #6fa8c1; stroke-width: 1.92; fill: none; stroke-linecap: square; }
      .thresholds { fill: none; stroke-linecap: round; }
      .features { stroke: #5c92ab; fill: none; stroke-width: 1.60; stroke-linecap: round; stroke-linejoin: round; }
      .labels { fill: #5c92ab; font-size: 7.20px; font-family: "Courier New", monospace; font-weight: 600; }
    </style>
  </defs>
  <rect x="0" y="0" width="1504.00" height="1536.00" fill="#5d9fbc" />
  <g class="floors">
<rect x="448.00" y="48.00" width="112.00" height="80.00" fill="#fbfdfe" />
<rect x="1056.00" y="48.00" width="128.00" height="64.00" fill="#fbfdfe" />
<rect x="784.00" y="80.00" width="272.00" height="16.00" fill="#fbfdfe" />
<rect x="784.00" y="96.00" width="176.00" height="144.00" fill="#fbfdfe" />
<rect x="448.00" y="128.00" width="32.00" height="16.00" fill="#fbfdfe" />
<rect x="416.00" y="144.00" width="48.00" height="16.00" fill="#fbfdfe" />
<rect x="64.00" y="160.00" width="64.00" height="144.00" fill="#fbfdfe" />
<rect x="416.00" y="160.00" width="16.00" height="32.00" fill="#fbfdfe" />
<rect x="192.00" y="176.00" width="112.00" height="128.00" fill="#fbfdfe" />
<rect x="400.00" y="176.00" width="16.00" height="32.00" fill="#fbfdfe" />
<rect x="384.00" y="192.00" width="16.00" height="48.00" fill="#fbfdfe" />
<rect x="352.00" y="208.00" width="32.00" height="32.00" fill="#fbfdfe" />
<rect x="128.00" y="224.00" width="64.00" height="16.00" fill="#fbfdfe" />
<rect x="304.00" y="224.00" width="48.00" height="16.00" fill="#fbfdfe" />
<rect x="400.00" y="224.00" width="384.00" height="16.00" fill="#fbfdfe" />
<rect x="960.00" y="224.00" width="416.00" height="16.00" fill="#fbfdfe" />
<rect x="336.00" y="240.00" width="32.00" height="16.00" fill="#fbfdfe" />
<rect x="752.00" y="240.00" width="48.00" height="16.00" fill="#fbfdfe" />
<rect x="944.00" y="240.00" width="16.00" height="944.00" fill="#fbfdfe" />
<rect x="1360.00" y="240.00" width="16.00" height="864.00" fill="#fbfdfe" />
<rect x="352.00" y="256.00" width="192.00" height="32.00" fill="#fbfdfe" />
<rect x="752.00" y="256.00" width="32.00" height="32.00" fill="#fbfdfe" />
<rect x="1280.00" y="256.00" width="80.00" height="48.00" fill="#fbfdfe" />
<rect x="1376.00" y="256.00" width="80.00" height="48.00" fill="#fbfdfe" />
<rect x="304.00" y="272.00" width="48.00" height="16.00" fill="#fbfdfe" />
<rect x="544.00" y="272.00" width="208.00" height="16.00" fill="#fbfdfe" />
<rect x="784.00" y="272.00" width="160.00" height="16.00" fill="#fbfdfe" />
<rect x="960.00" y="272.00" width="320.00" height="16.00" fill="#fbfdfe" />
<rect x="400.00" y="288.00" width="144.00" height="80.00" fill="#fbfdfe" />
<rect x="720.00" y="288.00" width="32.00" height="16.00" fill="#fbfdfe" />
<rect x="864.00" y="288.00" width="32.00" height="16.00" fill="#fbfdfe" />
<rect x="96.00" y="304.00" width="16.00" height="960.00" fill="#fbfdfe" />
<rect x="240.00" y="304.00" width="32.00" height="480.00" fill="#fbfdfe" />
<rect x="288.00" y="304.00" width="32.00" height="16.00" fill="#fbfdfe" />
<rect x="704.00" y="304.00" width="32.00" height="16.00" fill="#fbfdfe" />
<rect x="848.00" y="304.00" width="32.00" height="16.00" fill="#fbfdfe" />
<rect x="1328.00" y="304.00" width="16.00" height="32.00" fill="#fbfdfe" />
<rect x="304.00" y="320.00" width="48.00" height="16.00" fill="#fbfdfe" />
<rect x="672.00" y="320.00" width="48.00" height="16.00" fill="#fbfdfe" />
<rect x="816.00" y="320.00" width="48.00" height="16.00" fill="#fbfdfe" />
<rect x="1296.00" y="320.00" width="32.00" height="16.00" fill="#fbfdfe" />
<rect x="336.00" y="336.00" width="32.00" height="16.00" fill="#fbfdfe" />
<rect x="672.00" y="336.00" width="16.00" height="32.00" fill="#fbfdfe" />
<rect x="800.00" y="336.00" width="32.00" height="16.00" fill="#fbfdfe" />
<rect x="1280.00" y="336.00" width="32.00" height="16.00" fill="#fbfdfe" />
<rect x="128.00" y="352.00" width="112.00" height="176.00" fill="#fbfdfe" />
<rect x="352.00" y="352.00" width="16.00" height="32.00" fill="#fbfdfe" />
<rect x="640.00" y="352.00" width="32.00" height="32.00" fill="#fbfdfe" />
<rect x="784.00" y="352.00" width="32.00" height="16.00" fill="#fbfdfe" />
<rect x="1280.00" y="352.00" width="16.00" height="32.00" fill="#fbfdfe" />
<rect x="368.00" y="368.00" width="16.00" height="272.00" fill="#fbfdfe" />
<rect x="400.00" y="368.00" width="16.00" height="48.00" fill="#fbfdfe" />
<rect x="464.00" y="368.00" width="32.00" height="32.00" fill="#fbfdfe" />
<rect x="624.00" y="368.00" width="16.00" height="48.00" fill="#fbfdfe" />
<rect x="768.00" y="368.00" width="32.00" height="16.00" fill="#fbfdfe" />
<rect x="992.00" y="368.00" width="160.00" height="176.00" fill="#fbfdfe" />
<rect x="1248.00" y="368.00" width="32.00" height="16.00" fill="#fbfdfe" />
<rect x="384.00" y="384.00" width="16.00" height="32.00" fill="#fbfdfe" />
<rect x="496.00" y="384.00" width="32.00" height="16.00" fill="#fbfdfe" />
<rect x="608.00" y="384.00" width="16.00" height="32.00" fill="#fbfdfe" />
<rect x="640.00" y="384.00" width="16.00" height="16.00" fill="#fbfdfe" />
<rect x="752.00" y="384.00" width="32.00" height="16.00" fill="#fbfdfe" />
<rect x="1232.00" y="384.00" width="32.00" height="16.00" fill="#fbfdfe" />
<rect x="416.00" y="400.00" width="16.00" height="64.00" fill="#fbfdfe" />
<rect x="464.00" y="400.00" width="16.00" height="624.00" fill="#fbfdfe" />
<rect x="512.00" y="400.00" width="16.00" height="64.00" fill="#fbfdfe" />
<rect x="592.00" y="400.00" width="16.00" height="464.00" fill="#fbfdfe" />
<rect x="752.00" y="400.00" width="16.00" height="64.00" fill="#fbfdfe" />
<rect x="1216.00" y="400.00" width="32.00" height="16.00" fill="#fbfdfe" />
<rect x="528.00" y="416.00" width="32.00" height="64.00" fill="#fbfdfe" />
<rect x="576.00" y="416.00" width="16.00" height="192.00" fill="#fbfdfe" />
<rect x="720.00" y="416.00" width="32.00" height="160.00" fill="#fbfdfe" />
<rect x="1200.00" y="416.00" width="32.00" height="32.00" fill="#fbfdfe" />
<rect x="272.00" y="432.00" width="96.00" height="16.00" fill="#fbfdfe" />
<rect x="384.00" y="432.00" width="32.00" height="32.00" fill="#fbfdfe" />
<rect x="432.00" y="432.00" width="32.00" height="32.00" fill="#fbfdfe" />
<rect x="480.00" y="432.00" width="32.00" height="32.00" fill="#fbfdfe" />
<rect x="560.00" y="432.00" width="16.00" height="48.00" fill="#fbfdfe" />
<rect x="608.00" y="432.00" width="112.00" height="144.00" fill="#fbfdfe" />
<rect x="768.00" y="432.00" width="176.00" height="32.00" fill="#fbfdfe" />
<rect x="960.00" y="432.00" width="32.00" height="32.00" fill="#fbfdfe" />
<rect x="1152.00" y="432.00" width="48.00" height="16.00" fill="#fbfdfe" />
<rect x="1232.00" y="432.00" width="64.00" height="16.00" fill="#fbfdfe" />
<rect x="288.00" y="448.00" width="80.00" height="16.00" fill="#fbfdfe" />
<rect x="1184.00" y="448.00" width="16.00" height="32.00" fill="#fbfdfe" />
<rect x="1280.00" y="448.00" width="16.00" height="896.00" fill="#fbfdfe" />
<rect x="288.00" y="464.00" width="16.00" height="800.00" fill="#fbfdfe" />
<rect x="1168.00" y="464.00" width="16.00" height="32.00" fill="#fbfdfe" />
<rect x="480.00" y="480.00" width="64.00" height="16.00" fill="#fbfdfe" />
<rect x="1152.00" y="480.00" width="16.00" height="16.00" fill="#fbfdfe" />
<rect x="496.00" y="496.00" width="48.00" height="16.00" fill="#fbfdfe" />
<rect x="480.00" y="512.00" width="48.00" height="16.00" fill="#fbfdfe" />
<rect x="752.00" y="512.00" width="192.00" height="16.00" fill="#fbfdfe" />
<rect x="480.00" y="528.00" width="16.00" height="16.00" fill="#fbfdfe" />
<rect x="512.00" y="528.00" width="48.00" height="16.00" fill="#fbfdfe" />
<rect x="544.00" y="544.00" width="16.00" height="32.00" fill="#fbfdfe" />
<rect x="1072.00" y="544.00" width="48.00" height="16.00" fill="#fbfdfe" />
<rect x="336.00" y="560.00" width="32.00" height="64.00" fill="#fbfdfe" />
<rect x="384.00" y="560.00" width="32.00" height="80.00" fill="#fbfdfe" />
<rect x="432.00" y="560.00" width="32.00" height="48.00" fill="#fbfdfe" />
<rect x="560.00" y="560.00" width="16.00" height="16.00" fill="#fbfdfe" />
<rect x="1056.00" y="560.00" width="32.00" height="16.00" fill="#fbfdfe" />
<rect x="416.00" y="576.00" width="16.00" height="32.00" fill="#fbfdfe" />
<rect x="656.00" y="576.00" width="48.00" height="32.00" fill="#fbfdfe" />
<rect x="1040.00" y="576.00" width="32.00" height="96.00" fill="#fbfdfe" />
<rect x="480.00" y="592.00" width="96.00" height="16.00" fill="#fbfdfe" />
<rect x="608.00" y="592.00" width="48.00" height="16.00" fill="#fbfdfe" />
<rect x="704.00" y="592.00" width="240.00" height="16.00" fill="#fbfdfe" />
<rect x="960.00" y="592.00" width="80.00" height="80.00" fill="#fbfdfe" />
<rect x="1072.00" y="592.00" width="16.00" height="96.00" fill="#fbfdfe" />
<rect x="432.00" y="608.00" width="16.00" height="688.00" fill="#fbfdfe" />
<rect x="528.00" y="608.00" width="48.00" height="32.00" fill="#fbfdfe" />
<rect x="608.00" y="608.00" width="32.00" height="32.00" fill="#fbfdfe" />
<rect x="656.00" y="608.00" width="16.00" height="736.00" fill="#fbfdfe" />
<rect x="704.00" y="608.00" width="48.00" height="32.00" fill="#fbfdfe" />
<rect x="416.00" y="624.00" width="16.00" height="16.00" fill="#fbfdfe" />
<rect x="448.00" y="624.00" width="16.00" height="16.00" fill="#fbfdfe" />
<rect x="480.00" y="624.00" width="48.00" height="16.00" fill="#fbfdfe" />
<rect x="576.00" y="624.00" width="16.00" height="16.00" fill="#fbfdfe" />
<rect x="640.00" y="624.00" width="16.00" height="32.00" fill="#fbfdfe" />
<rect x="672.00" y="624.00" width="32.00" height="16.00" fill="#fbfdfe" />
<rect x="752.00" y="624.00" width="192.00" height="16.00" fill="#fbfdfe" />
<rect x="496.00" y="640.00" width="32.00" height="16.00" fill="#fbfdfe" />
<rect x="624.00" y="640.00" width="16.00" height="16.00" fill="#fbfdfe" />
<rect x="752.00" y="640.00" width="32.00" height="16.00" fill="#fbfdfe" />
<rect x="480.00" y="656.00" width="32.00" height="16.00" fill="#fbfdfe" />
<rect x="768.00" y="656.00" width="16.00" height="32.00" fill="#fbfdfe" />
<rect x="480.00" y="672.00" width="16.00" height="16.00" fill="#fbfdfe" />
<rect x="672.00" y="672.00" width="16.00" height="176.00" fill="#fbfdfe" />
<rect x="784.00" y="672.00" width="16.00" height="32.00" fill="#fbfdfe" />
<rect x="1008.00" y="672.00" width="16.00" height="736.00" fill="#fbfdfe" />
<rect x="1088.00" y="672.00" width="32.00" height="16.00" fill="#fbfdfe" />
<rect x="448.00" y="688.00" width="16.00" height="48.00" fill="#fbfdfe" />
<rect x="688.00" y="688.00" width="16.00" height="32.00" fill="#fbfdfe" />
<rect x="800.00" y="688.00" width="32.00" height="16.00" fill="#fbfdfe" />
<rect x="1104.00" y="688.00" width="32.00" height="16.00" fill="#fbfdfe" />
<rect x="64.00" y="704.00" width="32.00" height="96.00" fill="#fbfdfe" />
<rect x="112.00" y="704.00" width="96.00" height="96.00" fill="#fbfdfe" />
<rect x="512.00" y="704.00" width="80.00" height="112.00" fill="#fbfdfe" />
<rect x="608.00" y="704.00" width="48.00" height="112.00" fill="#fbfdfe" />
<rect x="704.00" y="704.00" width="32.00" height="16.00" fill="#fbfdfe" />
<rect x="816.00" y="704.00" width="16.00" height="32.00" fill="#fbfdfe" />
<rect x="1120.00" y="704.00" width="16.00" height="32.00" fill="#fbfdfe" />
<rect x="720.00" y="720.00" width="16.00" height="48.00" fill="#fbfdfe" />
<rect x="832.00" y="720.00" width="32.00" height="16.00" fill="#fbfdfe" />
<rect x="1136.00" y="720.00" width="16.00" height="48.00" fill="#fbfdfe" />
<rect x="400.00" y="736.00" width="32.00" height="32.00" fill="#fbfdfe" />
<rect x="736.00" y="736.00" width="16.00" height="32.00" fill="#fbfdfe" />
<rect x="848.00" y="736.00" width="32.00" height="32.00" fill="#fbfdfe" />
<rect x="1152.00" y="736.00" width="32.00" height="32.00" fill="#fbfdfe" />
<rect x="208.00" y="752.00" width="32.00" height="16.00" fill="#fbfdfe" />
<rect x="272.00" y="752.00" width="16.00" height="16.00" fill="#fbfdfe" />
<rect x="304.00" y="752.00" width="96.00" height="16.00" fill="#fbfdfe" />
<rect x="448.00" y="752.00" width="16.00" height="16.00" fill="#fbfdfe" />
<rect x="480.00" y="752.00" width="32.00" height="16.00" fill="#fbfdfe" />
<rect x="688.00" y="752.00" width="32.00" height="16.00" fill="#fbfdfe" />
<rect x="752.00" y="752.00" width="96.00" height="16.00" fill="#fbfdfe" />
<rect x="880.00" y="752.00" width="64.00" height="16.00" fill="#fbfdfe" />
<rect x="960.00" y="752.00" width="48.00" height="16.00" fill="#fbfdfe" />
<rect x="1024.00" y="752.00" width="112.00" height="16.00" fill="#fbfdfe" />
<rect x="1184.00" y="752.00" width="96.00" height="16.00" fill="#fbfdfe" />
<rect x="1296.00" y="752.00" width="64.00" height="16.00" fill="#fbfdfe" />
<rect x="336.00" y="768.00" width="64.00" height="48.00" fill="#fbfdfe" />
<rect x="752.00" y="768.00" width="48.00" height="16.00" fill="#fbfdfe" />
<rect x="880.00" y="768.00" width="32.00" height="16.00" fill="#fbfdfe" />
<rect x="1184.00" y="768.00" width="32.00" height="16.00" fill="#fbfdfe" />
<rect x="256.00" y="784.00" width="32.00" height="32.00" fill="#fbfdfe" />
<rect x="784.00" y="784.00" width="16.00" height="32.00" fill="#fbfdfe" />
<rect x="896.00" y="784.00" width="32.00" height="80.00" fill="#fbfdfe" />
<rect x="1200.00" y="784.00" width="16.00" height="32.00" fill="#fbfdfe" />
<rect x="176.00" y="800.00" width="16.00" height="32.00" fill="#fbfdfe" />
<rect x="400.00" y="800.00" width="32.00" height="16.00" fill="#fbfdfe" />
<rect x="800.00" y="800.00" width="16.00" height="32.00" fill="#fbfdfe" />
<rect x="864.00" y="800.00" width="32.00" height="80.00" fill="#fbfdfe" />
<rect x="928.00" y="800.00" width="16.00" height="64.00" fill="#fbfdfe" />
<rect x="960.00" y="800.00" width="48.00" height="64.00" fill="#fbfdfe" />
<rect x="1024.00" y="800.00" width="16.00" height="64.00" fill="#fbfdfe" />
<rect x="1216.00" y="800.00" width="32.00" height="16.00" fill="#fbfdfe" />
<rect x="192.00" y="816.00" width="32.00" height="16.00" fill="#fbfdfe" />
<rect x="256.00" y="816.00" width="16.00" height="448.00" fill="#fbfdfe" />
<rect x="304.00" y="816.00" width="16.00" height="32.00" fill="#fbfdfe" />
<rect x="336.00" y="816.00" width="48.00" height="32.00" fill="#fbfdfe" />
<rect x="448.00" y="816.00" width="16.00" height="16.00" fill="#fbfdfe" />
<rect x="816.00" y="816.00" width="32.00" height="16.00" fill="#fbfdfe" />
<rect x="1232.00" y="816.00" width="16.00" height="32.00" fill="#fbfdfe" />
<rect x="208.00" y="832.00" width="32.00" height="16.00" fill="#fbfdfe" />
<rect x="320.00" y="832.00" width="16.00" height="32.00" fill="#fbfdfe" />
<rect x="688.00" y="832.00" width="16.00" height="48.00" fill="#fbfdfe" />
<rect x="832.00" y="832.00" width="32.00" height="16.00" fill="#fbfdfe" />
<rect x="1248.00" y="832.00" width="32.00" height="16.00" fill="#fbfdfe" />
<rect x="224.00" y="848.00" width="16.00" height="32.00" fill="#fbfdfe" />
<rect x="336.00" y="848.00" width="32.00" height="32.00" fill="#fbfdfe" />
<rect x="480.00" y="848.00" width="16.00" height="32.00" fill="#fbfdfe" />
<rect x="560.00" y="848.00" width="32.00" height="16.00" fill="#fbfdfe" />
<rect x="848.00" y="848.00" width="16.00" height="32.00" fill="#fbfdfe" />
<rect x="1264.00" y="848.00" width="16.00" height="112.00" fill="#fbfdfe" />
<rect x="1296.00" y="848.00" width="64.00" height="128.00" fill="#fbfdfe" />
<rect x="1376.00" y="848.00" width="16.00" height="128.00" fill="#fbfdfe" />
<rect x="240.00" y="864.00" width="16.00" height="16.00" fill="#fbfdfe" />
<rect x="496.00" y="864.00" width="16.00" height="32.00" fill="#fbfdfe" />
<rect x="560.00" y="864.00" width="16.00" height="128.00" fill="#fbfdfe" />
<rect x="704.00" y="864.00" width="16.00" height="32.00" fill="#fbfdfe" />
<rect x="1392.00" y="864.00" width="16.00" height="96.00" fill="#fbfdfe" />
<rect x="272.00" y="880.00" width="16.00" height="128.00" fill="#fbfdfe" />
<rect x="352.00" y="880.00" width="32.00" height="112.00" fill="#fbfdfe" />
<rect x="512.00" y="880.00" width="48.00" height="48.00" fill="#fbfdfe" />
<rect x="720.00" y="880.00" width="16.00" height="32.00" fill="#fbfdfe" />
<rect x="880.00" y="880.00" width="32.00" height="16.00" fill="#fbfdfe" />
<rect x="1248.00" y="880.00" width="16.00" height="64.00" fill="#fbfdfe" />
<rect x="1408.00" y="880.00" width="16.00" height="64.00" fill="#fbfdfe" />
<rect x="384.00" y="896.00" width="48.00" height="160.00" fill="#fbfdfe" />
<rect x="448.00" y="896.00" width="16.00" height="128.00" fill="#fbfdfe" />
<rect x="480.00" y="896.00" width="16.00" height="128.00" fill="#fbfdfe" />
<rect x="576.00" y="896.00" width="48.00" height="96.00" fill="#fbfdfe" />
<rect x="736.00" y="896.00" width="32.00" height="16.00" fill="#fbfdfe" />
<rect x="896.00" y="896.00" width="16.00" height="32.00" fill="#fbfdfe" />
<rect x="304.00" y="912.00" width="48.00" height="16.00" fill="#fbfdfe" />
<rect x="496.00" y="912.00" width="16.00" height="96.00" fill="#fbfdfe" />
<rect x="752.00" y="912.00" width="16.00" height="32.00" fill="#fbfdfe" />
<rect x="912.00" y="912.00" width="32.00" height="16.00" fill="#fbfdfe" />
<rect x="960.00" y="912.00" width="48.00" height="16.00" fill="#fbfdfe" />
<rect x="1024.00" y="912.00" width="224.00" height="16.00" fill="#fbfdfe" />
<rect x="304.00" y="928.00" width="32.00" height="32.00" fill="#fbfdfe" />
<rect x="512.00" y="928.00" width="16.00" height="64.00" fill="#fbfdfe" />
<rect x="544.00" y="928.00" width="16.00" height="64.00" fill="#fbfdfe" />
<rect x="768.00" y="928.00" width="32.00" height="16.00" fill="#fbfdfe" />
<rect x="336.00" y="944.00" width="16.00" height="48.00" fill="#fbfdfe" />
<rect x="784.00" y="944.00" width="32.00" height="16.00" fill="#fbfdfe" />
<rect x="928.00" y="944.00" width="16.00" height="176.00" fill="#fbfdfe" />
<rect x="304.00" y="960.00" width="16.00" height="48.00" fill="#fbfdfe" />
<rect x="800.00" y="960.00" width="32.00" height="16.00" fill="#fbfdfe" />
<rect x="896.00" y="960.00" width="32.00" height="144.00" fill="#fbfdfe" />
<rect x="960.00" y="960.00" width="32.00" height="144.00" fill="#fbfdfe" />
<rect x="816.00" y="976.00" width="32.00" height="16.00" fill="#fbfdfe" />
<rect x="368.00" y="992.00" width="16.00" height="32.00" fill="#fbfdfe" />
<rect x="832.00" y="992.00" width="16.00" height="32.00" fill="#fbfdfe" />
<rect x="880.00" y="992.00" width="16.00" height="80.00" fill="#fbfdfe" />
<rect x="992.00" y="992.00" width="16.00" height="80.00" fill="#fbfdfe" />
<rect x="848.00" y="1008.00" width="16.00" height="32.00" fill="#fbfdfe" />
<rect x="864.00" y="1024.00" width="16.00" height="16.00" fill="#fbfdfe" />
<rect x="368.00" y="1056.00" width="32.00" height="16.00" fill="#fbfdfe" />
<rect x="336.00" y="1072.00" width="48.00" height="16.00" fill="#fbfdfe" />
<rect x="448.00" y="1072.00" width="16.00" height="32.00" fill="#fbfdfe" />
<rect x="224.00" y="1088.00" width="32.00" height="176.00" fill="#fbfdfe" />
<rect x="272.00" y="1088.00" width="16.00" height="176.00" fill="#fbfdfe" />
<rect x="336.00" y="1088.00" width="16.00" height="32.00" fill="#fbfdfe" />
<rect x="464.00" y="1088.00" width="16.00" height="32.00" fill="#fbfdfe" />
<rect x="1344.00" y="1088.00" width="16.00" height="32.00" fill="#fbfdfe" />
<rect x="208.00" y="1104.00" width="16.00" height="128.00" fill="#fbfdfe" />
<rect x="304.00" y="1104.00" width="32.00" height="16.00" fill="#fbfdfe" />
<rect x="480.00" y="1104.00" width="16.00" height="32.00" fill="#fbfdfe" />
<rect x="1328.00" y="1104.00" width="16.00" height="48.00" fill="#fbfdfe" />
<rect x="304.00" y="1120.00" width="16.00" height="112.00" fill="#fbfdfe" />
<rect x="496.00" y="1120.00" width="16.00" height="32.00" fill="#fbfdfe" />
<rect x="512.00" y="1136.00" width="16.00" height="48.00" fill="#fbfdfe" />
<rect x="1296.00" y="1136.00" width="32.00" height="16.00" fill="#fbfdfe" />
<rect x="192.00" y="1152.00" width="16.00" height="32.00" fill="#fbfdfe" />
<rect x="320.00" y="1152.00" width="16.00" height="32.00" fill="#fbfdfe" />
<rect x="528.00" y="1152.00" width="16.00" height="32.00" fill="#fbfdfe" />
<rect x="592.00" y="1152.00" width="64.00" height="192.00" fill="#fbfdfe" />
<rect x="672.00" y="1152.00" width="112.00" height="192.00" fill="#fbfdfe" />
<rect x="1296.00" y="1152.00" width="16.00" height="16.00" fill="#fbfdfe" />
<rect x="336.00" y="1168.00" width="96.00" height="16.00" fill="#fbfdfe" />
<rect x="448.00" y="1168.00" width="64.00" height="16.00" fill="#fbfdfe" />
<rect x="544.00" y="1168.00" width="48.00" height="32.00" fill="#fbfdfe" />
<rect x="784.00" y="1168.00" width="160.00" height="16.00" fill="#fbfdfe" />
<rect x="1264.00" y="1168.00" width="16.00" height="32.00" fill="#fbfdfe" />
<rect x="1248.00" y="1184.00" width="16.00" height="32.00" fill="#fbfdfe" />
<rect x="576.00" y="1200.00" width="16.00" height="32.00" fill="#fbfdfe" />
<rect x="1232.00" y="1200.00" width="16.00" height="144.00" fill="#fbfdfe" />
<rect x="1216.00" y="1216.00" width="16.00" height="128.00" fill="#fbfdfe" />
<rect x="1088.00" y="1232.00" width="96.00" height="176.00" fill="#fbfdfe" />
<rect x="1200.00" y="1232.00" width="16.00" height="32.00" fill="#fbfdfe" />
<rect x="1248.00" y="1232.00" width="32.00" height="112.00" fill="#fbfdfe" />
<rect x="1296.00" y="1232.00" width="48.00" height="112.00" fill="#fbfdfe" />
<rect x="112.00" y="1248.00" width="112.00" height="16.00" fill="#fbfdfe" />
<rect x="304.00" y="1248.00" width="128.00" height="16.00" fill="#fbfdfe" />
<rect x="448.00" y="1248.00" width="144.00" height="16.00" fill="#fbfdfe" />
<rect x="1184.00" y="1248.00" width="16.00" height="48.00" fill="#fbfdfe" />
<rect x="448.00" y="1280.00" width="144.00" height="16.00" fill="#fbfdfe" />
<rect x="784.00" y="1280.00" width="224.00" height="16.00" fill="#fbfdfe" />
<rect x="1024.00" y="1280.00" width="64.00" height="16.00" fill="#fbfdfe" />
<rect x="1200.00" y="1280.00" width="16.00" height="16.00" fill="#fbfdfe" />
<rect x="784.00" y="1312.00" width="224.00" height="16.00" fill="#fbfdfe" />
<rect x="1024.00" y="1312.00" width="64.00" height="16.00" fill="#fbfdfe" />
<rect x="1360.00" y="1360.00" width="64.00" height="80.00" fill="#fbfdfe" />
<rect x="1024.00" y="1392.00" width="64.00" height="16.00" fill="#fbfdfe" />
<rect x="1184.00" y="1392.00" width="176.00" height="16.00" fill="#fbfdfe" />
  </g>
  <g class="grid">
<line x1="0.00" y1="0" x2="0.00" y2="1536.00" />
<line x1="16.00" y1="0" x2="16.00" y2="1536.00" />
<line x1="32.00" y1="0" x2="32.00" y2="1536.00" />
<line x1="48.00" y1="0" x2="48.00" y2="1536.00" />
<line x1="64.00" y1="0" x2="64.00" y2="1536.00" />
<line x1="80.00" y1="0" x2="80.00" y2="1536.00" />
<line x1="96.00" y1="0" x2="96.00" y2="1536.00" />
<line x1="112.00" y1="0" x2="112.00" y2="1536.00" />
<line x1="128.00" y1="0" x2="128.00" y2="1536.00" />
<line x1="144.00" y1="0" x2="144.00" y2="1536.00" />
<line x1="160.00" y1="0" x2="160.00" y2="1536.00" />
<line x1="176.00" y1="0" x2="176.00" y2="1536.00" />
<line x1="192.00" y1="0" x2="192.00" y2="1536.00" />
<line x1="208.00" y1="0" x2="208.00" y2="1536.00" />
<line x1="224.00" y1="0" x2="224.00" y2="1536.00" />
<line x1="240.00" y1="0" x2="240.00" y2="1536.00" />
<line x1="256.00" y1="0" x2="256.00" y2="1536.00" />
<line x1="272.00" y1="0" x2="272.00" y2="1536.00" />
<line x1="288.00" y1="0" x2="288.00" y2="1536.00" />
<line x1="304.00" y1="0" x2="304.00" y2="1536.00" />
<line x1="320.00" y1="0" x2="320.00" y2="1536.00" />
<line x1="336.00" y1="0" x2="336.00" y2="1536.00" />
<line x1="352.00" y1="0" x2="352.00" y2="1536.00" />
<line x1="368.00" y1="0" x2="368.00" y2="1536.00" />
<line x1="384.00" y1="0" x2="384.00" y2="1536.00" />
<line x1="400.00" y1="0" x2="400.00" y2="1536.00" />
<line x1="416.00" y1="0" x2="416.00" y2="1536.00" />
<line x1="432.00" y1="0" x2="432.00" y2="1536.00" />
<line x1="448.00" y1="0" x2="448.00" y2="1536.00" />
<line x1="464.00" y1="0" x2="464.00" y2="1536.00" />
<line x1="480.00" y1="0" x2="480.00" y2="1536.00" />
<line x1="496.00" y1="0" x2="496.00" y2="1536.00" />
<line x1="512.00" y1="0" x2="512.00" y2="1536.00" />
<line x1="528.00" y1="0" x2="528.00" y2="1536.00" />
<line x1="544.00" y1="0" x2="544.00" y2="1536.00" />
<line x1="560.00" y1="0" x2="560.00" y2="1536.00" />
<line x1="576.00" y1="0" x2="576.00" y2="1536.00" />
<line x1="592.00" y1="0" x2="592.00" y2="1536.00" />
<line x1="608.00" y1="0" x2="608.00" y2="1536.00" />
<line x1="624.00" y1="0" x2="624.00" y2="1536.00" />
<line x1="640.00" y1="0" x2="640.00" y2="1536.00" />
<line x1="656.00" y1="0" x2="656.00" y2="1536.00" />
<line x1="672.00" y1="0" x2="672.00" y2="1536.00" />
<line x1="688.00" y1="0" x2="688.00" y2="1536.00" />
<line x1="704.00" y1="0" x2="704.00" y2="1536.00" />
<line x1="720.00" y1="0" x2="720.00" y2="1536.00" />
<line x1="736.00" y1="0" x2="736.00" y2="1536.00" />
<line x1="752.00" y1="0" x2="752.00" y2="1536.00" />
<line x1="768.00" y1="0" x2="768.00" y2="1536.00" />
<line x1="784.00" y1="0" x2="784.00" y2="1536.00" />
<line x1="800.00" y1="0" x2="800.00" y2="1536.00" />
<line x1="816.00" y1="0" x2="816.00" y2="1536.00" />
<line x1="832.00" y1="0" x2="832.00" y2="1536.00" />
<line x1="848.00" y1="0" x2="848.00" y2="1536.00" />
<line x1="864.00" y1="0" x2="864.00" y2="1536.00" />
<line x1="880.00" y1="0" x2="880.00" y2="1536.00" />
<line x1="896.00" y1="0" x2="896.00" y2="1536.00" />
<line x1="912.00" y1="0" x2="912.00" y2="1536.00" />
<line x1="928.00" y1="0" x2="928.00" y2="1536.00" />
<line x1="944.00" y1="0" x2="944.00" y2="1536.00" />
<line x1="960.00" y1="0" x2="960.00" y2="1536.00" />
<line x1="976.00" y1="0" x2="976.00" y2="1536.00" />
<line x1="992.00" y1="0" x2="992.00" y2="1536.00" />
<line x1="1008.00" y1="0" x2="1008.00" y2="1536.00" />
<line x1="1024.00" y1="0" x2="1024.00" y2="1536.00" />
<line x1="1040.00" y1="0" x2="1040.00" y2="1536.00" />
<line x1="1056.00" y1="0" x2="1056.00" y2="1536.00" />
<line x1="1072.00" y1="0" x2="1072.00" y2="1536.00" />
<line x1="1088.00" y1="0" x2="1088.00" y2="1536.00" />
<line x1="1104.00" y1="0" x2="1104.00" y2="1536.00" />
<line x1="1120.00" y1="0" x2="1120.00" y2="1536.00" />
<line x1="1136.00" y1="0" x2="1136.00" y2="1536.00" />
<line x1="1152.00" y1="0" x2="1152.00" y2="1536.00" />
<line x1="1168.00" y1="0" x2="1168.00" y2="1536.00" />
<line x1="1184.00" y1="0" x2="1184.00" y2="1536.00" />
<line x1="1200.00" y1="0" x2="1200.00" y2="1536.00" />
<line x1="1216.00" y1="0" x2="1216.00" y2="1536.00" />
<line x1="1232.00" y1="0" x2="1232.00" y2="1536.00" />
<line x1="1248.00" y1="0" x2="1248.00" y2="1536.00" />
<line x1="1264.00" y1="0" x2="1264.00" y2="1536.00" />
<line x1="1280.00" y1="0" x2="1280.00" y2="1536.00" />
<line x1="1296.00" y1="0" x2="1296.00" y2="1536.00" />
<line x1="1312.00" y1="0" x2="1312.00" y2="1536.00" />
<line x1="1328.00" y1="0" x2="1328.00" y2="1536.00" />
<line x1="1344.00" y1="0" x2="1344.00" y2="1536.00" />
<line x1="1360.00" y1="0" x2="1360.00" y2="1536.00" />
<line x1="1376.00" y1="0" x2="1376.00" y2="1536.00" />
<line x1="1392.00" y1="0" x2="1392.00" y2="1536.00" />
<line x1="1408.00" y1="0" x2="1408.00" y2="1536.00" />
<line x1="1424.00" y1="0" x2="1424.00" y2="1536.00" />
<line x1="1440.00" y1="0" x2="1440.00" y2="1536.00" />
<line x1="1456.00" y1="0" x2="1456.00" y2="1536.00" />
<line x1="1472.00" y1="0" x2="1472.00" y2="1536.00" />
<line x1="1488.00" y1="0" x2="1488.00" y2="1536.00" />
<line x1="1504.00" y1="0" x2="1504.00" y2="1536.00" />
<line x1="0" y1="0.00" x2="1504.00" y2="0.00" />
<line x1="0" y1="16.00" x2="1504.00" y2="16.00" />
<line x1="0" y1="32.00" x2="1504.00" y2="32.00" />
<line x1="0" y1="48.00" x2="1504.00" y2="48.00" />
<line x1="0" y1="64.00" x2="1504.00" y2="64.00" />
<line x1="0" y1="80.00" x2="1504.00" y2="80.00" />
<line x1="0" y1="96.00" x2="1504.00" y2="96.00" />
<line x1="0" y1="112.00" x2="1504.00" y2="112.00" />
<line x1="0" y1="128.00" x2="1504.00" y2="128.00" />
<line x1="0" y1="144.00" x2="1504.00" y2="144.00" />
<line x1="0" y1="160.00" x2="1504.00" y2="160.00" />
<line x1="0" y1="176.00" x2="1504.00" y2="176.00" />
<line x1="0" y1="192.00" x2="1504.00" y2="192.00" />
<line x1="0" y1="208.00" x2="1504.00" y2="208.00" />
<line x1="0" y1="224.00" x2="1504.00" y2="224.00" />
<line x1="0" y1="240.00" x2="1504.00" y2="240.00" />
<line x1="0" y1="256.00" x2="1504.00" y2="256.00" />
<line x1="0" y1="272.00" x2="1504.00" y2="272.00" />
<line x1="0" y1="288.00" x2="1504.00" y2="288.00" />
<line x1="0" y1="304.00" x2="1504.00" y2="304.00" />
<line x1="0" y1="320.00" x2="1504.00" y2="320.00" />
<line x1="0" y1="336.00" x2="1504.00" y2="336.00" />
<line x1="0" y1="352.00" x2="1504.00" y2="352.00" />
<line x1="0" y1="368.00" x2="1504.00" y2="368.00" />
<line x1="0" y1="384.00" x2="1504.00" y2="384.00" />
<line x1="0" y1="400.00" x2="1504.00" y2="400.00" />
<line x1="0" y1="416.00" x2="1504.00" y2="416.00" />
<line x1="0" y1="432.00" x2="1504.00" y2="432.00" />
<line x1="0" y1="448.00" x2="1504.00" y2="448.00" />
<line x1="0" y1="464.00" x2="1504.00" y2="464.00" />
<line x1="0" y1="480.00" x2="1504.00" y2="480.00" />
<line x1="0" y1="496.00" x2="1504.00" y2="496.00" />
<line x1="0" y1="512.00" x2="1504.00" y2="512.00" />
<line x1="0" y1="528.00" x2="1504.00" y2="528.00" />
<line x1="0" y1="544.00" x2="1504.00" y2="544.00" />
<line x1="0" y1="560.00" x2="1504.00" y2="560.00" />
<line x1="0" y1="576.00" x2="1504.00" y2="576.00" />
<line x1="0" y1="592.00" x2="1504.00" y2="592.00" />
<line x1="0" y1="608.00" x2="1504.00" y2="608.00" />
<line x1="0" y1="624.00" x2="1504.00" y2="624.00" />
<line x1="0" y1="640.00" x2="1504.00" y2="640.00" />
<line x1="0" y1="656.00" x2="1504.00" y2="656.00" />
<line x1="0" y1="672.00" x2="1504.00" y2="672.00" />
<line x1="0" y1="688.00" x2="1504.00" y2="688.00" />
<line x1="0" y1="704.00" x2="1504.00" y2="704.00" />
<line x1="0" y1="720.00" x2="1504.00" y2="720.00" />
<line x1="0" y1="736.00" x2="1504.00" y2="736.00" />
<line x1="0" y1="752.00" x2="1504.00" y2="752.00" />
<line x1="0" y1="768.00" x2="1504.00" y2="768.00" />
<line x1="0" y1="784.00" x2="1504.00" y2="784.00" />
<line x1="0" y1="800.00" x2="1504.00" y2="800.00" />
<line x1="0" y1="816.00" x2="1504.00" y2="816.00" />
<line x1="0" y1="832.00" x2="1504.00" y2="832.00" />
<line x1="0" y1="848.00" x2="1504.00" y2="848.00" />
<line x1="0" y1="864.00" x2="1504.00" y2="864.00" />
<line x1="0" y1="880.00" x2="1504.00" y2="880.00" />
<line x1="0" y1="896.00" x2="1504.00" y2="896.00" />
<line x1="0" y1="912.00" x2="1504.00" y2="912.00" />
<line x1="0" y1="928.00" x2="1504.00" y2="928.00" />
<line x1="0" y1="944.00" x2="1504.00" y2="944.00" />
<line x1="0" y1="960.00" x2="1504.00" y2="960.00" />
<line x1="0" y1="976.00" x2="1504.00" y2="976.00" />
<line x1="0" y1="992.00" x2="1504.00" y2="992.00" />
<line x1="0" y1="1008.00" x2="1504.00" y2="1008.00" />
<line x1="0" y1="1024.00" x2="1504.00" y2="1024.00" />
<line x1="0" y1="1040.00" x2="1504.00" y2="1040.00" />
<line x1="0" y1="1056.00" x2="1504.00" y2="1056.00" />
<line x1="0" y1="1072.00" x2="1504.00" y2="1072.00" />
<line x1="0" y1="1088.00" x2="1504.00" y2="1088.00" />
<line x1="0" y1="1104.00" x2="1504.00" y2="1104.00" />
<line x1="0" y1="1120.00" x2="1504.00" y2="1120.00" />
<line x1="0" y1="1136.00" x2="1504.00" y2="1136.00" />
<line x1="0" y1="1152.00" x2="1504.00" y2="1152.00" />
<line x1="0" y1="1168.00" x2="1504.00" y2="1168.00" />
<line x1="0" y1="1184.00" x2="1504.00" y2="1184.00" />
<line x1="0" y1="1200.00" x2="1504.00" y2="1200.00" />
<line x1="0" y1="1216.00" x2="1504.00" y2="1216.00" />
<line x1="0" y1="1232.00" x2="1504.00" y2="1232.00" />
<line x1="0" y1="1248.00" x2="1504.00" y2="1248.00" />
<line x1="0" y1="1264.00" x2="1504.00" y2="1264.00" />
<line x1="0" y1="1280.00" x2="1504.00" y2="1280.00" />
<line x1="0" y1="1296.00" x2="1504.00" y2="1296.00" />
<line x1="0" y1="1312.00" x2="1504.00" y2="1312.00" />
<line x1="0" y1="1328.00" x2="1504.00" y2="1328.00" />
<line x1="0" y1="1344.00" x2="1504.00" y2="1344.00" />
<line x1="0" y1="1360.00" x2="1504.00" y2="1360.00" />
<line x1="0" y1="1376.00" x2="1504.00" y2="1376.00" />
<line x1="0" y1="1392.00" x2="1504.00" y2="1392.00" />
<line x1="0" y1="1408.00" x2="1504.00" y2="1408.00" />
<line x1="0" y1="1424.00" x2="1504.00" y2="1424.00" />
<line x1="0" y1="1440.00" x2="1504.00" y2="1440.00" />
<line x1="0" y1="1456.00" x2="1504.00" y2="1456.00" />
<line x1="0" y1="1472.00" x2="1504.00" y2="1472.00" />
<line x1="0" y1="1488.00" x2="1504.00" y2="1488.00" />
<line x1="0" y1="1504.00" x2="1504.00" y2="1504.00" />
<line x1="0" y1="1520.00" x2="1504.00" y2="1520.00" />
<line x1="0" y1="1536.00" x2="1504.00" y2="1536.00" />
  </g>
  <g class="walls">
<line x1="448.00" y1="48.00" x2="560.00" y2="48.00" />
<line x1="1056.00" y1="48.00" x2="1184.00" y2="48.00" />
<line x1="784.00" y1="80.00" x2="1056.00" y2="80.00" />
<line x1="960.00" y1="96.00" x2="1056.00" y2="96.00" />
<line x1="1056.00" y1="112.00" x2="1184.00" y2="112.00" />
<line x1="480.00" y1="128.00" x2="560.00" y2="128.00" />
<line x1="416.00" y1="144.00" x2="448.00" y2="144.00" />
<line x1="464.00" y1="144.00" x2="480.00" y2="144.00" />
<line x1="64.00" y1="160.00" x2="128.00" y2="160.00" />
<line x1="432.00" y1="160.00" x2="464.00" y2="160.00" />
<line x1="192.00" y1="176.00" x2="304.00" y2="176.00" />
<line x1="400.00" y1="176.00" x2="416.00" y2="176.00" />
<line x1="384.00" y1="192.00" x2="400.00" y2="192.00" />
<line x1="416.00" y1="192.00" x2="432.00" y2="192.00" />
<line x1="352.00" y1="208.00" x2="384.00" y2="208.00" />
<line x1="400.00" y1="208.00" x2="416.00" y2="208.00" />
<line x1="128.00" y1="224.00" x2="192.00" y2="224.00" />
<line x1="304.00" y1="224.00" x2="352.00" y2="224.00" />
<line x1="400.00" y1="224.00" x2="784.00" y2="224.00" />
<line x1="960.00" y1="224.00" x2="1376.00" y2="224.00" />
<line x1="128.00" y1="240.00" x2="192.00" y2="240.00" />
<line x1="304.00" y1="240.00" x2="336.00" y2="240.00" />
<line x1="368.00" y1="240.00" x2="752.00" y2="240.00" />
<line x1="800.00" y1="240.00" x2="944.00" y2="240.00" />
<line x1="960.00" y1="240.00" x2="1360.00" y2="240.00" />
<line x1="336.00" y1="256.00" x2="352.00" y2="256.00" />
<line x1="368.00" y1="256.00" x2="544.00" y2="256.00" />
<line x1="784.00" y1="256.00" x2="800.00" y2="256.00" />
<line x1="1280.00" y1="256.00" x2="1360.00" y2="256.00" />
<line x1="1376.00" y1="256.00" x2="1456.00" y2="256.00" />
<line x1="304.00" y1="272.00" x2="352.00" y2="272.00" />
<line x1="544.00" y1="272.00" x2="752.00" y2="272.00" />
<line x1="784.00" y1="272.00" x2="944.00" y2="272.00" />
<line x1="960.00" y1="272.00" x2="1280.00" y2="272.00" />
<line x1="304.00" y1="288.00" x2="400.00" y2="288.00" />
<line x1="544.00" y1="288.00" x2="720.00" y2="288.00" />
<line x1="752.00" y1="288.00" x2="864.00" y2="288.00" />
<line x1="896.00" y1="288.00" x2="944.00" y2="288.00" />
<line x1="960.00" y1="288.00" x2="1280.00" y2="288.00" />
<line x1="64.00" y1="304.00" x2="96.00" y2="304.00" />
<line x1="112.00" y1="304.00" x2="128.00" y2="304.00" />
<line x1="192.00" y1="304.00" x2="240.00" y2="304.00" />
<line x1="272.00" y1="304.00" x2="288.00" y2="304.00" />
<line x1="304.00" y1="304.00" x2="320.00" y2="304.00" />
<line x1="704.00" y1="304.00" x2="720.00" y2="304.00" />
<line x1="736.00" y1="304.00" x2="752.00" y2="304.00" />
<line x1="848.00" y1="304.00" x2="864.00" y2="304.00" />
<line x1="880.00" y1="304.00" x2="896.00" y2="304.00" />
<line x1="1280.00" y1="304.00" x2="1328.00" y2="304.00" />
<line x1="1344.00" y1="304.00" x2="1360.00" y2="304.00" />
<line x1="1376.00" y1="304.00" x2="1456.00" y2="304.00" />
<line x1="288.00" y1="320.00" x2="304.00" y2="320.00" />
<line x1="320.00" y1="320.00" x2="352.00" y2="320.00" />
<line x1="672.00" y1="320.00" x2="704.00" y2="320.00" />
<line x1="720.00" y1="320.00" x2="736.00" y2="320.00" />
<line x1="816.00" y1="320.00" x2="848.00" y2="320.00" />
<line x1="864.00" y1="320.00" x2="880.00" y2="320.00" />
<line x1="1296.00" y1="320.00" x2="1328.00" y2="320.00" />
<line x1="304.00" y1="336.00" x2="336.00" y2="336.00" />
<line x1="352.00" y1="336.00" x2="368.00" y2="336.00" />
<line x1="688.00" y1="336.00" x2="720.00" y2="336.00" />
<line x1="800.00" y1="336.00" x2="816.00" y2="336.00" />
<line x1="832.00" y1="336.00" x2="864.00" y2="336.00" />
<line x1="1280.00" y1="336.00" x2="1296.00" y2="336.00" />
<line x1="1312.00" y1="336.00" x2="1344.00" y2="336.00" />
<line x1="128.00" y1="352.00" x2="240.00" y2="352.00" />
<line x1="336.00" y1="352.00" x2="352.00" y2="352.00" />
<line x1="640.00" y1="352.00" x2="672.00" y2="352.00" />
<line x1="784.00" y1="352.00" x2="800.00" y2="352.00" />
<line x1="816.00" y1="352.00" x2="832.00" y2="352.00" />
<line x1="1296.00" y1="352.00" x2="1312.00" y2="352.00" />
<line x1="368.00" y1="368.00" x2="384.00" y2="368.00" />
<line x1="416.00" y1="368.00" x2="464.00" y2="368.00" />
<line x1="496.00" y1="368.00" x2="544.00" y2="368.00" />
<line x1="624.00" y1="368.00" x2="640.00" y2="368.00" />
<line x1="672.00" y1="368.00" x2="688.00" y2="368.00" />
<line x1="768.00" y1="368.00" x2="784.00" y2="368.00" />
<line x1="800.00" y1="368.00" x2="816.00" y2="368.00" />
<line x1="992.00" y1="368.00" x2="1152.00" y2="368.00" />
<line x1="1248.00" y1="368.00" x2="1280.00" y2="368.00" />
<line x1="352.00" y1="384.00" x2="368.00" y2="384.00" />
<line x1="384.00" y1="384.00" x2="400.00" y2="384.00" />
<line x1="496.00" y1="384.00" x2="528.00" y2="384.00" />
<line x1="608.00" y1="384.00" x2="624.00" y2="384.00" />
<line x1="656.00" y1="384.00" x2="672.00" y2="384.00" />
<line x1="752.00" y1="384.00" x2="768.00" y2="384.00" />
<line x1="784.00" y1="384.00" x2="800.00" y2="384.00" />
<line x1="1232.00" y1="384.00" x2="1248.00" y2="384.00" />
<line x1="1264.00" y1="384.00" x2="1296.00" y2="384.00" />
<line x1="416.00" y1="400.00" x2="432.00" y2="400.00" />
<line x1="480.00" y1="400.00" x2="512.00" y2="400.00" />
<line x1="592.00" y1="400.00" x2="608.00" y2="400.00" />
<line x1="640.00" y1="400.00" x2="656.00" y2="400.00" />
<line x1="768.00" y1="400.00" x2="784.00" y2="400.00" />
<line x1="1216.00" y1="400.00" x2="1232.00" y2="400.00" />
<line x1="1248.00" y1="400.00" x2="1264.00" y2="400.00" />
<line x1="384.00" y1="416.00" x2="416.00" y2="416.00" />
<line x1="528.00" y1="416.00" x2="560.00" y2="416.00" />
<line x1="576.00" y1="416.00" x2="592.00" y2="416.00" />
<line x1="608.00" y1="416.00" x2="640.00" y2="416.00" />
<line x1="720.00" y1="416.00" x2="752.00" y2="416.00" />
<line x1="1200.00" y1="416.00" x2="1216.00" y2="416.00" />
<line x1="1232.00" y1="416.00" x2="1248.00" y2="416.00" />
<line x1="272.00" y1="432.00" x2="368.00" y2="432.00" />
<line x1="384.00" y1="432.00" x2="416.00" y2="432.00" />
<line x1="432.00" y1="432.00" x2="464.00" y2="432.00" />
<line x1="480.00" y1="432.00" x2="512.00" y2="432.00" />
<line x1="560.00" y1="432.00" x2="576.00" y2="432.00" />
<line x1="608.00" y1="432.00" x2="720.00" y2="432.00" />
<line x1="768.00" y1="432.00" x2="944.00" y2="432.00" />
<line x1="960.00" y1="432.00" x2="992.00" y2="432.00" />
<line x1="1152.00" y1="432.00" x2="1200.00" y2="432.00" />
<line x1="1232.00" y1="432.00" x2="1296.00" y2="432.00" />
<line x1="272.00" y1="448.00" x2="288.00" y2="448.00" />
<line x1="1152.00" y1="448.00" x2="1184.00" y2="448.00" />
<line x1="1200.00" y1="448.00" x2="1280.00" y2="448.00" />
<line x1="304.00" y1="464.00" x2="368.00" y2="464.00" />
<line x1="384.00" y1="464.00" x2="464.00" y2="464.00" />
<line x1="480.00" y1="464.00" x2="528.00" y2="464.00" />
<line x1="752.00" y1="464.00" x2="944.00" y2="464.00" />
<line x1="960.00" y1="464.00" x2="992.00" y2="464.00" />
<line x1="1168.00" y1="464.00" x2="1184.00" y2="464.00" />
<line x1="480.00" y1="480.00" x2="528.00" y2="480.00" />
<line x1="544.00" y1="480.00" x2="576.00" y2="480.00" />
<line x1="1152.00" y1="480.00" x2="1168.00" y2="480.00" />
<line x1="1184.00" y1="480.00" x2="1200.00" y2="480.00" />
<line x1="480.00" y1="496.00" x2="496.00" y2="496.00" />
<line x1="1152.00" y1="496.00" x2="1184.00" y2="496.00" />
<line x1="480.00" y1="512.00" x2="496.00" y2="512.00" />
<line x1="528.00" y1="512.00" x2="544.00" y2="512.00" />
<line x1="752.00" y1="512.00" x2="944.00" y2="512.00" />
<line x1="128.00" y1="528.00" x2="240.00" y2="528.00" />
<line x1="496.00" y1="528.00" x2="512.00" y2="528.00" />
<line x1="528.00" y1="528.00" x2="560.00" y2="528.00" />
<line x1="752.00" y1="528.00" x2="944.00" y2="528.00" />
<line x1="480.00" y1="544.00" x2="496.00" y2="544.00" />
<line x1="512.00" y1="544.00" x2="544.00" y2="544.00" />
<line x1="992.00" y1="544.00" x2="1072.00" y2="544.00" />
<line x1="1120.00" y1="544.00" x2="1152.00" y2="544.00" />
<line x1="336.00" y1="560.00" x2="368.00" y2="560.00" />
<line x1="384.00" y1="560.00" x2="416.00" y2="560.00" />
<line x1="432.00" y1="560.00" x2="464.00" y2="560.00" />
<line x1="560.00" y1="560.00" x2="576.00" y2="560.00" />
<line x1="1056.00" y1="560.00" x2="1072.00" y2="560.00" />
<line x1="1088.00" y1="560.00" x2="1120.00" y2="560.00" />
<line x1="416.00" y1="576.00" x2="432.00" y2="576.00" />
<line x1="544.00" y1="576.00" x2="576.00" y2="576.00" />
<line x1="608.00" y1="576.00" x2="656.00" y2="576.00" />
<line x1="704.00" y1="576.00" x2="752.00" y2="576.00" />
<line x1="1040.00" y1="576.00" x2="1056.00" y2="576.00" />
<line x1="1072.00" y1="576.00" x2="1088.00" y2="576.00" />
<line x1="416.00" y1="608.00" x2="432.00" y2="608.00" />
<line x1="448.00" y1="608.00" x2="464.00" y2="608.00" />
<line x1="480.00" y1="608.00" x2="528.00" y2="608.00" />
<line x1="576.00" y1="608.00" x2="592.00" y2="608.00" />
<line x1="640.00" y1="608.00" x2="656.00" y2="608.00" />
<line x1="672.00" y1="608.00" x2="704.00" y2="608.00" />
<line x1="752.00" y1="608.00" x2="944.00" y2="608.00" />
<line x1="480.00" y1="592.00" x2="576.00" y2="592.00" />
<line x1="608.00" y1="592.00" x2="656.00" y2="592.00" />
<line x1="704.00" y1="592.00" x2="944.00" y2="592.00" />
<line x1="960.00" y1="592.00" x2="1040.00" y2="592.00" />
<line x1="1072.00" y1="592.00" x2="1088.00" y2="592.00" />
<line x1="336.00" y1="624.00" x2="368.00" y2="624.00" />
<line x1="416.00" y1="624.00" x2="432.00" y2="624.00" />
<line x1="448.00" y1="624.00" x2="464.00" y2="624.00" />
<line x1="480.00" y1="624.00" x2="528.00" y2="624.00" />
<line x1="576.00" y1="624.00" x2="592.00" y2="624.00" />
<line x1="640.00" y1="624.00" x2="656.00" y2="624.00" />
<line x1="672.00" y1="624.00" x2="704.00" y2="624.00" />
<line x1="752.00" y1="624.00" x2="944.00" y2="624.00" />
<line x1="368.00" y1="640.00" x2="432.00" y2="640.00" />
<line x1="448.00" y1="640.00" x2="464.00" y2="640.00" />
<line x1="480.00" y1="640.00" x2="496.00" y2="640.00" />
<line x1="528.00" y1="640.00" x2="592.00" y2="640.00" />
<line x1="608.00" y1="640.00" x2="624.00" y2="640.00" />
<line x1="672.00" y1="640.00" x2="752.00" y2="640.00" />
<line x1="784.00" y1="640.00" x2="944.00" y2="640.00" />
<line x1="480.00" y1="656.00" x2="496.00" y2="656.00" />
<line x1="512.00" y1="656.00" x2="528.00" y2="656.00" />
<line x1="624.00" y1="656.00" x2="656.00" y2="656.00" />
<line x1="752.00" y1="656.00" x2="768.00" y2="656.00" />
<line x1="496.00" y1="672.00" x2="512.00" y2="672.00" />
<line x1="672.00" y1="672.00" x2="688.00" y2="672.00" />
<line x1="784.00" y1="672.00" x2="800.00" y2="672.00" />
<line x1="960.00" y1="672.00" x2="1008.00" y2="672.00" />
<line x1="1024.00" y1="672.00" x2="1072.00" y2="672.00" />
<line x1="1088.00" y1="672.00" x2="1120.00" y2="672.00" />
<line x1="448.00" y1="688.00" x2="464.00" y2="688.00" />
<line x1="480.00" y1="688.00" x2="496.00" y2="688.00" />
<line x1="688.00" y1="688.00" x2="704.00" y2="688.00" />
<line x1="768.00" y1="688.00" x2="784.00" y2="688.00" />
<line x1="800.00" y1="688.00" x2="832.00" y2="688.00" />
<line x1="1072.00" y1="688.00" x2="1104.00" y2="688.00" />
<line x1="1120.00" y1="688.00" x2="1136.00" y2="688.00" />
<line x1="64.00" y1="704.00" x2="96.00" y2="704.00" />
<line x1="112.00" y1="704.00" x2="208.00" y2="704.00" />
<line x1="512.00" y1="704.00" x2="592.00" y2="704.00" />
<line x1="608.00" y1="704.00" x2="656.00" y2="704.00" />
<line x1="704.00" y1="704.00" x2="736.00" y2="704.00" />
<line x1="784.00" y1="704.00" x2="816.00" y2="704.00" />
<line x1="1104.00" y1="704.00" x2="1120.00" y2="704.00" />
<line x1="688.00" y1="720.00" x2="720.00" y2="720.00" />
<line x1="832.00" y1="720.00" x2="864.00" y2="720.00" />
<line x1="1136.00" y1="720.00" x2="1152.00" y2="720.00" />
<line x1="400.00" y1="736.00" x2="432.00" y2="736.00" />
<line x1="448.00" y1="736.00" x2="464.00" y2="736.00" />
<line x1="736.00" y1="736.00" x2="752.00" y2="736.00" />
<line x1="816.00" y1="736.00" x2="848.00" y2="736.00" />
<line x1="864.00" y1="736.00" x2="880.00" y2="736.00" />
<line x1="1120.00" y1="736.00" x2="1136.00" y2="736.00" />
<line x1="1152.00" y1="736.00" x2="1184.00" y2="736.00" />
<line x1="208.00" y1="752.00" x2="240.00" y2="752.00" />
<line x1="272.00" y1="752.00" x2="288.00" y2="752.00" />
<line x1="304.00" y1="752.00" x2="400.00" y2="752.00" />
<line x1="448.00" y1="752.00" x2="464.00" y2="752.00" />
<line x1="480.00" y1="752.00" x2="512.00" y2="752.00" />
<line x1="688.00" y1="752.00" x2="720.00" y2="752.00" />
<line x1="752.00" y1="752.00" x2="848.00" y2="752.00" />
<line x1="880.00" y1="752.00" x2="944.00" y2="752.00" />
<line x1="960.00" y1="752.00" x2="1008.00" y2="752.00" />
<line x1="1024.00" y1="752.00" x2="1136.00" y2="752.00" />
<line x1="1184.00" y1="752.00" x2="1280.00" y2="752.00" />
<line x1="1296.00" y1="752.00" x2="1360.00" y2="752.00" />
<line x1="208.00" y1="768.00" x2="240.00" y2="768.00" />
<line x1="272.00" y1="768.00" x2="288.00" y2="768.00" />
<line x1="304.00" y1="768.00" x2="336.00" y2="768.00" />
<line x1="400.00" y1="768.00" x2="432.00" y2="768.00" />
<line x1="448.00" y1="768.00" x2="464.00" y2="768.00" />
<line x1="480.00" y1="768.00" x2="512.00" y2="768.00" />
<line x1="688.00" y1="768.00" x2="752.00" y2="768.00" />
<line x1="800.00" y1="768.00" x2="880.00" y2="768.00" />
<line x1="912.00" y1="768.00" x2="944.00" y2="768.00" />
<line x1="960.00" y1="768.00" x2="1008.00" y2="768.00" />
<line x1="1024.00" y1="768.00" x2="1184.00" y2="768.00" />
<line x1="1216.00" y1="768.00" x2="1280.00" y2="768.00" />
<line x1="1296.00" y1="768.00" x2="1360.00" y2="768.00" />
<line x1="240.00" y1="784.00" x2="256.00" y2="784.00" />
<line x1="272.00" y1="784.00" x2="288.00" y2="784.00" />
<line x1="752.00" y1="784.00" x2="784.00" y2="784.00" />
<line x1="880.00" y1="784.00" x2="896.00" y2="784.00" />
<line x1="912.00" y1="784.00" x2="928.00" y2="784.00" />
<line x1="1184.00" y1="784.00" x2="1200.00" y2="784.00" />
<line x1="64.00" y1="800.00" x2="96.00" y2="800.00" />
<line x1="112.00" y1="800.00" x2="176.00" y2="800.00" />
<line x1="192.00" y1="800.00" x2="208.00" y2="800.00" />
<line x1="400.00" y1="800.00" x2="432.00" y2="800.00" />
<line x1="800.00" y1="800.00" x2="816.00" y2="800.00" />
<line x1="864.00" y1="800.00" x2="896.00" y2="800.00" />
<line x1="928.00" y1="800.00" x2="944.00" y2="800.00" />
<line x1="960.00" y1="800.00" x2="1008.00" y2="800.00" />
<line x1="1024.00" y1="800.00" x2="1040.00" y2="800.00" />
<line x1="1216.00" y1="800.00" x2="1248.00" y2="800.00" />
<line x1="192.00" y1="816.00" x2="224.00" y2="816.00" />
<line x1="272.00" y1="816.00" x2="288.00" y2="816.00" />
<line x1="304.00" y1="816.00" x2="320.00" y2="816.00" />
<line x1="384.00" y1="816.00" x2="432.00" y2="816.00" />
<line x1="448.00" y1="816.00" x2="464.00" y2="816.00" />
<line x1="512.00" y1="816.00" x2="592.00" y2="816.00" />
<line x1="608.00" y1="816.00" x2="656.00" y2="816.00" />
<line x1="784.00" y1="816.00" x2="800.00" y2="816.00" />
<line x1="816.00" y1="816.00" x2="848.00" y2="816.00" />
<line x1="1200.00" y1="816.00" x2="1232.00" y2="816.00" />
<line x1="176.00" y1="832.00" x2="208.00" y2="832.00" />
<line x1="224.00" y1="832.00" x2="240.00" y2="832.00" />
<line x1="320.00" y1="832.00" x2="336.00" y2="832.00" />
<line x1="448.00" y1="832.00" x2="464.00" y2="832.00" />
<line x1="688.00" y1="832.00" x2="704.00" y2="832.00" />
<line x1="800.00" y1="832.00" x2="832.00" y2="832.00" />
<line x1="848.00" y1="832.00" x2="864.00" y2="832.00" />
<line x1="1248.00" y1="832.00" x2="1280.00" y2="832.00" />
<line x1="208.00" y1="848.00" x2="224.00" y2="848.00" />
<line x1="304.00" y1="848.00" x2="320.00" y2="848.00" />
<line x1="368.00" y1="848.00" x2="384.00" y2="848.00" />
<line x1="480.00" y1="848.00" x2="496.00" y2="848.00" />
<line x1="560.00" y1="848.00" x2="592.00" y2="848.00" />
<line x1="672.00" y1="848.00" x2="688.00" y2="848.00" />
<line x1="832.00" y1="848.00" x2="848.00" y2="848.00" />
<line x1="1232.00" y1="848.00" x2="1264.00" y2="848.00" />
<line x1="1296.00" y1="848.00" x2="1360.00" y2="848.00" />
<line x1="1376.00" y1="848.00" x2="1392.00" y2="848.00" />
<line x1="240.00" y1="864.00" x2="256.00" y2="864.00" />
<line x1="320.00" y1="864.00" x2="336.00" y2="864.00" />
<line x1="496.00" y1="864.00" x2="512.00" y2="864.00" />
<line x1="576.00" y1="864.00" x2="608.00" y2="864.00" />
<line x1="704.00" y1="864.00" x2="720.00" y2="864.00" />
<line x1="896.00" y1="864.00" x2="944.00" y2="864.00" />
<line x1="960.00" y1="864.00" x2="1008.00" y2="864.00" />
<line x1="1024.00" y1="864.00" x2="1040.00" y2="864.00" />
<line x1="1392.00" y1="864.00" x2="1408.00" y2="864.00" />
<line x1="224.00" y1="880.00" x2="256.00" y2="880.00" />
<line x1="272.00" y1="880.00" x2="288.00" y2="880.00" />
<line x1="336.00" y1="880.00" x2="352.00" y2="880.00" />
<line x1="368.00" y1="880.00" x2="384.00" y2="880.00" />
<line x1="480.00" y1="880.00" x2="496.00" y2="880.00" />
<line x1="512.00" y1="880.00" x2="560.00" y2="880.00" />
<line x1="688.00" y1="880.00" x2="704.00" y2="880.00" />
<line x1="720.00" y1="880.00" x2="736.00" y2="880.00" />
<line x1="848.00" y1="880.00" x2="880.00" y2="880.00" />
<line x1="896.00" y1="880.00" x2="912.00" y2="880.00" />
<line x1="1248.00" y1="880.00" x2="1264.00" y2="880.00" />
<line x1="1408.00" y1="880.00" x2="1424.00" y2="880.00" />
<line x1="384.00" y1="896.00" x2="432.00" y2="896.00" />
<line x1="448.00" y1="896.00" x2="464.00" y2="896.00" />
<line x1="480.00" y1="896.00" x2="512.00" y2="896.00" />
<line x1="576.00" y1="896.00" x2="624.00" y2="896.00" />
<line x1="704.00" y1="896.00" x2="720.00" y2="896.00" />
<line x1="736.00" y1="896.00" x2="768.00" y2="896.00" />
<line x1="880.00" y1="896.00" x2="896.00" y2="896.00" />
<line x1="304.00" y1="912.00" x2="352.00" y2="912.00" />
<line x1="496.00" y1="912.00" x2="512.00" y2="912.00" />
<line x1="720.00" y1="912.00" x2="752.00" y2="912.00" />
<line x1="912.00" y1="912.00" x2="944.00" y2="912.00" />
<line x1="960.00" y1="912.00" x2="1008.00" y2="912.00" />
<line x1="1024.00" y1="912.00" x2="1248.00" y2="912.00" />
<line x1="336.00" y1="928.00" x2="352.00" y2="928.00" />
<line x1="528.00" y1="928.00" x2="544.00" y2="928.00" />
<line x1="768.00" y1="928.00" x2="800.00" y2="928.00" />
<line x1="896.00" y1="928.00" x2="944.00" y2="928.00" />
<line x1="960.00" y1="928.00" x2="1008.00" y2="928.00" />
<line x1="1024.00" y1="928.00" x2="1248.00" y2="928.00" />
<line x1="336.00" y1="944.00" x2="352.00" y2="944.00" />
<line x1="752.00" y1="944.00" x2="784.00" y2="944.00" />
<line x1="800.00" y1="944.00" x2="816.00" y2="944.00" />
<line x1="928.00" y1="944.00" x2="944.00" y2="944.00" />
<line x1="1248.00" y1="944.00" x2="1264.00" y2="944.00" />
<line x1="1408.00" y1="944.00" x2="1424.00" y2="944.00" />
<line x1="320.00" y1="960.00" x2="336.00" y2="960.00" />
<line x1="784.00" y1="960.00" x2="800.00" y2="960.00" />
<line x1="816.00" y1="960.00" x2="832.00" y2="960.00" />
<line x1="896.00" y1="960.00" x2="928.00" y2="960.00" />
<line x1="960.00" y1="960.00" x2="992.00" y2="960.00" />
<line x1="1264.00" y1="960.00" x2="1280.00" y2="960.00" />
<line x1="1392.00" y1="960.00" x2="1408.00" y2="960.00" />
<line x1="800.00" y1="976.00" x2="816.00" y2="976.00" />
<line x1="832.00" y1="976.00" x2="848.00" y2="976.00" />
<line x1="1296.00" y1="976.00" x2="1360.00" y2="976.00" />
<line x1="1376.00" y1="976.00" x2="1392.00" y2="976.00" />
<line x1="336.00" y1="992.00" x2="368.00" y2="992.00" />
<line x1="512.00" y1="992.00" x2="528.00" y2="992.00" />
<line x1="544.00" y1="992.00" x2="624.00" y2="992.00" />
<line x1="816.00" y1="992.00" x2="832.00" y2="992.00" />
<line x1="880.00" y1="992.00" x2="896.00" y2="992.00" />
<line x1="992.00" y1="992.00" x2="1008.00" y2="992.00" />
<line x1="272.00" y1="1008.00" x2="288.00" y2="1008.00" />
<line x1="304.00" y1="1008.00" x2="320.00" y2="1008.00" />
<line x1="496.00" y1="1008.00" x2="512.00" y2="1008.00" />
<line x1="848.00" y1="1008.00" x2="864.00" y2="1008.00" />
<line x1="368.00" y1="1024.00" x2="384.00" y2="1024.00" />
<line x1="448.00" y1="1024.00" x2="496.00" y2="1024.00" />
<line x1="832.00" y1="1024.00" x2="848.00" y2="1024.00" />
<line x1="864.00" y1="1024.00" x2="880.00" y2="1024.00" />
<line x1="848.00" y1="1040.00" x2="880.00" y2="1040.00" />
<line x1="368.00" y1="1056.00" x2="384.00" y2="1056.00" />
<line x1="400.00" y1="1056.00" x2="432.00" y2="1056.00" />
<line x1="336.00" y1="1072.00" x2="368.00" y2="1072.00" />
<line x1="384.00" y1="1072.00" x2="400.00" y2="1072.00" />
<line x1="448.00" y1="1072.00" x2="464.00" y2="1072.00" />
<line x1="880.00" y1="1072.00" x2="896.00" y2="1072.00" />
<line x1="992.00" y1="1072.00" x2="1008.00" y2="1072.00" />
<line x1="224.00" y1="1088.00" x2="256.00" y2="1088.00" />
<line x1="272.00" y1="1088.00" x2="288.00" y2="1088.00" />
<line x1="352.00" y1="1088.00" x2="384.00" y2="1088.00" />
<line x1="464.00" y1="1088.00" x2="480.00" y2="1088.00" />
<line x1="1344.00" y1="1088.00" x2="1360.00" y2="1088.00" />
<line x1="208.00" y1="1104.00" x2="224.00" y2="1104.00" />
<line x1="304.00" y1="1104.00" x2="336.00" y2="1104.00" />
<line x1="448.00" y1="1104.00" x2="464.00" y2="1104.00" />
<line x1="480.00" y1="1104.00" x2="496.00" y2="1104.00" />
<line x1="896.00" y1="1104.00" x2="928.00" y2="1104.00" />
<line x1="960.00" y1="1104.00" x2="992.00" y2="1104.00" />
<line x1="1328.00" y1="1104.00" x2="1344.00" y2="1104.00" />
<line x1="1360.00" y1="1104.00" x2="1376.00" y2="1104.00" />
<line x1="320.00" y1="1120.00" x2="352.00" y2="1120.00" />
<line x1="464.00" y1="1120.00" x2="480.00" y2="1120.00" />
<line x1="496.00" y1="1120.00" x2="512.00" y2="1120.00" />
<line x1="928.00" y1="1120.00" x2="944.00" y2="1120.00" />
<line x1="1344.00" y1="1120.00" x2="1360.00" y2="1120.00" />
<line x1="480.00" y1="1136.00" x2="496.00" y2="1136.00" />
<line x1="512.00" y1="1136.00" x2="528.00" y2="1136.00" />
<line x1="1296.00" y1="1136.00" x2="1328.00" y2="1136.00" />
<line x1="192.00" y1="1152.00" x2="208.00" y2="1152.00" />
<line x1="320.00" y1="1152.00" x2="336.00" y2="1152.00" />
<line x1="496.00" y1="1152.00" x2="512.00" y2="1152.00" />
<line x1="528.00" y1="1152.00" x2="544.00" y2="1152.00" />
<line x1="592.00" y1="1152.00" x2="656.00" y2="1152.00" />
<line x1="672.00" y1="1152.00" x2="784.00" y2="1152.00" />
<line x1="1312.00" y1="1152.00" x2="1344.00" y2="1152.00" />
<line x1="336.00" y1="1168.00" x2="432.00" y2="1168.00" />
<line x1="448.00" y1="1168.00" x2="512.00" y2="1168.00" />
<line x1="544.00" y1="1168.00" x2="592.00" y2="1168.00" />
<line x1="784.00" y1="1168.00" x2="944.00" y2="1168.00" />
<line x1="1264.00" y1="1168.00" x2="1280.00" y2="1168.00" />
<line x1="1296.00" y1="1168.00" x2="1312.00" y2="1168.00" />
<line x1="192.00" y1="1184.00" x2="208.00" y2="1184.00" />
<line x1="320.00" y1="1184.00" x2="432.00" y2="1184.00" />
<line x1="448.00" y1="1184.00" x2="544.00" y2="1184.00" />
<line x1="784.00" y1="1184.00" x2="960.00" y2="1184.00" />
<line x1="1248.00" y1="1184.00" x2="1264.00" y2="1184.00" />
<line x1="544.00" y1="1200.00" x2="576.00" y2="1200.00" />
<line x1="1232.00" y1="1200.00" x2="1248.00" y2="1200.00" />
<line x1="1264.00" y1="1200.00" x2="1280.00" y2="1200.00" />
<line x1="1216.00" y1="1216.00" x2="1232.00" y2="1216.00" />
<line x1="1248.00" y1="1216.00" x2="1264.00" y2="1216.00" />
<line x1="208.00" y1="1232.00" x2="224.00" y2="1232.00" />
<line x1="304.00" y1="1232.00" x2="320.00" y2="1232.00" />
<line x1="576.00" y1="1232.00" x2="592.00" y2="1232.00" />
<line x1="1088.00" y1="1232.00" x2="1184.00" y2="1232.00" />
<line x1="1200.00" y1="1232.00" x2="1216.00" y2="1232.00" />
<line x1="1248.00" y1="1232.00" x2="1280.00" y2="1232.00" />
<line x1="1296.00" y1="1232.00" x2="1344.00" y2="1232.00" />
<line x1="96.00" y1="1264.00" x2="432.00" y2="1264.00" />
<line x1="448.00" y1="1264.00" x2="592.00" y2="1264.00" />
<line x1="1200.00" y1="1264.00" x2="1216.00" y2="1264.00" />
<line x1="112.00" y1="1248.00" x2="224.00" y2="1248.00" />
<line x1="304.00" y1="1248.00" x2="432.00" y2="1248.00" />
<line x1="448.00" y1="1248.00" x2="592.00" y2="1248.00" />
<line x1="1184.00" y1="1248.00" x2="1200.00" y2="1248.00" />
<line x1="432.00" y1="1296.00" x2="592.00" y2="1296.00" />
<line x1="784.00" y1="1296.00" x2="1008.00" y2="1296.00" />
<line x1="1024.00" y1="1296.00" x2="1088.00" y2="1296.00" />
<line x1="1184.00" y1="1296.00" x2="1216.00" y2="1296.00" />
<line x1="448.00" y1="1280.00" x2="592.00" y2="1280.00" />
<line x1="784.00" y1="1280.00" x2="1008.00" y2="1280.00" />
<line x1="1024.00" y1="1280.00" x2="1088.00" y2="1280.00" />
<line x1="1200.00" y1="1280.00" x2="1216.00" y2="1280.00" />
<line x1="784.00" y1="1312.00" x2="1008.00" y2="1312.00" />
<line x1="1024.00" y1="1312.00" x2="1088.00" y2="1312.00" />
<line x1="784.00" y1="1328.00" x2="1008.00" y2="1328.00" />
<line x1="1024.00" y1="1328.00" x2="1088.00" y2="1328.00" />
<line x1="592.00" y1="1344.00" x2="784.00" y2="1344.00" />
<line x1="1216.00" y1="1344.00" x2="1344.00" y2="1344.00" />
<line x1="1360.00" y1="1360.00" x2="1424.00" y2="1360.00" />
<line x1="1008.00" y1="1408.00" x2="1360.00" y2="1408.00" />
<line x1="1024.00" y1="1392.00" x2="1088.00" y2="1392.00" />
<line x1="1184.00" y1="1392.00" x2="1360.00" y2="1392.00" />
<line x1="1360.00" y1="1440.00" x2="1424.00" y2="1440.00" />
<line x1="448.00" y1="48.00" x2="448.00" y2="144.00" />
<line x1="448.00" y1="608.00" x2="448.00" y2="624.00" />
<line x1="448.00" y1="640.00" x2="448.00" y2="688.00" />
<line x1="448.00" y1="736.00" x2="448.00" y2="752.00" />
<line x1="448.00" y1="768.00" x2="448.00" y2="816.00" />
<line x1="448.00" y1="832.00" x2="448.00" y2="896.00" />
<line x1="448.00" y1="1024.00" x2="448.00" y2="1072.00" />
<line x1="448.00" y1="1104.00" x2="448.00" y2="1168.00" />
<line x1="448.00" y1="1184.00" x2="448.00" y2="1248.00" />
<line x1="448.00" y1="1264.00" x2="448.00" y2="1280.00" />
<line x1="560.00" y1="48.00" x2="560.00" y2="128.00" />
<line x1="560.00" y1="416.00" x2="560.00" y2="432.00" />
<line x1="560.00" y1="528.00" x2="560.00" y2="560.00" />
<line x1="560.00" y1="848.00" x2="560.00" y2="880.00" />
<line x1="1056.00" y1="48.00" x2="1056.00" y2="80.00" />
<line x1="1056.00" y1="96.00" x2="1056.00" y2="112.00" />
<line x1="1056.00" y1="560.00" x2="1056.00" y2="576.00" />
<line x1="1184.00" y1="48.00" x2="1184.00" y2="112.00" />
<line x1="1184.00" y1="448.00" x2="1184.00" y2="464.00" />
<line x1="1184.00" y1="480.00" x2="1184.00" y2="496.00" />
<line x1="1184.00" y1="736.00" x2="1184.00" y2="752.00" />
<line x1="1184.00" y1="768.00" x2="1184.00" y2="784.00" />
<line x1="1184.00" y1="1232.00" x2="1184.00" y2="1248.00" />
<line x1="1184.00" y1="1296.00" x2="1184.00" y2="1392.00" />
<line x1="784.00" y1="80.00" x2="784.00" y2="224.00" />
<line x1="784.00" y1="256.00" x2="784.00" y2="272.00" />
<line x1="784.00" y1="352.00" x2="784.00" y2="368.00" />
<line x1="784.00" y1="384.00" x2="784.00" y2="400.00" />
<line x1="784.00" y1="640.00" x2="784.00" y2="672.00" />
<line x1="784.00" y1="688.00" x2="784.00" y2="704.00" />
<line x1="784.00" y1="784.00" x2="784.00" y2="816.00" />
<line x1="784.00" y1="944.00" x2="784.00" y2="960.00" />
<line x1="784.00" y1="1152.00" x2="784.00" y2="1168.00" />
<line x1="784.00" y1="1184.00" x2="784.00" y2="1280.00" />
<line x1="784.00" y1="1296.00" x2="784.00" y2="1312.00" />
<line x1="784.00" y1="1328.00" x2="784.00" y2="1344.00" />
<line x1="960.00" y1="96.00" x2="960.00" y2="224.00" />
<line x1="960.00" y1="240.00" x2="960.00" y2="272.00" />
<line x1="960.00" y1="288.00" x2="960.00" y2="432.00" />
<line x1="960.00" y1="464.00" x2="960.00" y2="592.00" />
<line x1="960.00" y1="672.00" x2="960.00" y2="752.00" />
<line x1="960.00" y1="768.00" x2="960.00" y2="800.00" />
<line x1="960.00" y1="864.00" x2="960.00" y2="912.00" />
<line x1="960.00" y1="928.00" x2="960.00" y2="960.00" />
<line x1="960.00" y1="1104.00" x2="960.00" y2="1184.00" />
<line x1="480.00" y1="128.00" x2="480.00" y2="144.00" />
<line x1="480.00" y1="400.00" x2="480.00" y2="432.00" />
<line x1="480.00" y1="464.00" x2="480.00" y2="480.00" />
<line x1="480.00" y1="496.00" x2="480.00" y2="512.00" />
<line x1="480.00" y1="544.00" x2="480.00" y2="592.00" />
<line x1="480.00" y1="608.00" x2="480.00" y2="624.00" />
<line x1="480.00" y1="640.00" x2="480.00" y2="656.00" />
<line x1="480.00" y1="688.00" x2="480.00" y2="752.00" />
<line x1="480.00" y1="768.00" x2="480.00" y2="848.00" />
<line x1="480.00" y1="880.00" x2="480.00" y2="896.00" />
<line x1="480.00" y1="1088.00" x2="480.00" y2="1104.00" />
<line x1="480.00" y1="1120.00" x2="480.00" y2="1136.00" />
<line x1="416.00" y1="144.00" x2="416.00" y2="176.00" />
<line x1="416.00" y1="192.00" x2="416.00" y2="208.00" />
<line x1="416.00" y1="368.00" x2="416.00" y2="400.00" />
<line x1="416.00" y1="416.00" x2="416.00" y2="432.00" />
<line x1="416.00" y1="560.00" x2="416.00" y2="576.00" />
<line x1="416.00" y1="608.00" x2="416.00" y2="624.00" />
<line x1="464.00" y1="144.00" x2="464.00" y2="160.00" />
<line x1="464.00" y1="368.00" x2="464.00" y2="432.00" />
<line x1="464.00" y1="464.00" x2="464.00" y2="560.00" />
<line x1="464.00" y1="608.00" x2="464.00" y2="624.00" />
<line x1="464.00" y1="640.00" x2="464.00" y2="688.00" />
<line x1="464.00" y1="736.00" x2="464.00" y2="752.00" />
<line x1="464.00" y1="768.00" x2="464.00" y2="816.00" />
<line x1="464.00" y1="832.00" x2="464.00" y2="896.00" />
<line x1="464.00" y1="1072.00" x2="464.00" y2="1088.00" />
<line x1="464.00" y1="1104.00" x2="464.00" y2="1120.00" />
<line x1="64.00" y1="160.00" x2="64.00" y2="304.00" />
<line x1="64.00" y1="704.00" x2="64.00" y2="800.00" />
<line x1="128.00" y1="160.00" x2="128.00" y2="224.00" />
<line x1="128.00" y1="240.00" x2="128.00" y2="304.00" />
<line x1="128.00" y1="352.00" x2="128.00" y2="528.00" />
<line x1="432.00" y1="160.00" x2="432.00" y2="192.00" />
<line x1="432.00" y1="400.00" x2="432.00" y2="432.00" />
<line x1="432.00" y1="560.00" x2="432.00" y2="576.00" />
<line x1="432.00" y1="608.00" x2="432.00" y2="624.00" />
<line x1="432.00" y1="640.00" x2="432.00" y2="736.00" />
<line x1="432.00" y1="768.00" x2="432.00" y2="800.00" />
<line x1="432.00" y1="816.00" x2="432.00" y2="896.00" />
<line x1="432.00" y1="1056.00" x2="432.00" y2="1168.00" />
<line x1="432.00" y1="1184.00" x2="432.00" y2="1248.00" />
<line x1="432.00" y1="1264.00" x2="432.00" y2="1296.00" />
<line x1="192.00" y1="176.00" x2="192.00" y2="224.00" />
<line x1="192.00" y1="240.00" x2="192.00" y2="304.00" />
<line x1="192.00" y1="800.00" x2="192.00" y2="816.00" />
<line x1="192.00" y1="1152.00" x2="192.00" y2="1184.00" />
<line x1="304.00" y1="176.00" x2="304.00" y2="224.00" />
<line x1="304.00" y1="240.00" x2="304.00" y2="272.00" />
<line x1="304.00" y1="288.00" x2="304.00" y2="304.00" />
<line x1="304.00" y1="320.00" x2="304.00" y2="336.00" />
<line x1="304.00" y1="464.00" x2="304.00" y2="752.00" />
<line x1="304.00" y1="768.00" x2="304.00" y2="816.00" />
<line x1="304.00" y1="848.00" x2="304.00" y2="912.00" />
<line x1="304.00" y1="1008.00" x2="304.00" y2="1104.00" />
<line x1="304.00" y1="1232.00" x2="304.00" y2="1248.00" />
<line x1="400.00" y1="176.00" x2="400.00" y2="192.00" />
<line x1="400.00" y1="208.00" x2="400.00" y2="224.00" />
<line x1="400.00" y1="288.00" x2="400.00" y2="384.00" />
<line x1="400.00" y1="736.00" x2="400.00" y2="752.00" />
<line x1="400.00" y1="768.00" x2="400.00" y2="800.00" />
<line x1="400.00" y1="1056.00" x2="400.00" y2="1072.00" />
<line x1="384.00" y1="192.00" x2="384.00" y2="208.00" />
<line x1="384.00" y1="368.00" x2="384.00" y2="384.00" />
<line x1="384.00" y1="416.00" x2="384.00" y2="432.00" />
<line x1="384.00" y1="464.00" x2="384.00" y2="560.00" />
<line x1="384.00" y1="816.00" x2="384.00" y2="848.00" />
<line x1="384.00" y1="880.00" x2="384.00" y2="896.00" />
<line x1="384.00" y1="1024.00" x2="384.00" y2="1056.00" />
<line x1="384.00" y1="1072.00" x2="384.00" y2="1088.00" />
<line x1="352.00" y1="208.00" x2="352.00" y2="224.00" />
<line x1="352.00" y1="256.00" x2="352.00" y2="272.00" />
<line x1="352.00" y1="320.00" x2="352.00" y2="336.00" />
<line x1="352.00" y1="352.00" x2="352.00" y2="384.00" />
<line x1="352.00" y1="880.00" x2="352.00" y2="912.00" />
<line x1="352.00" y1="928.00" x2="352.00" y2="944.00" />
<line x1="352.00" y1="1088.00" x2="352.00" y2="1120.00" />
<line x1="1376.00" y1="224.00" x2="1376.00" y2="256.00" />
<line x1="1376.00" y1="304.00" x2="1376.00" y2="848.00" />
<line x1="1376.00" y1="976.00" x2="1376.00" y2="1104.00" />
<line x1="336.00" y1="240.00" x2="336.00" y2="256.00" />
<line x1="336.00" y1="336.00" x2="336.00" y2="352.00" />
<line x1="336.00" y1="560.00" x2="336.00" y2="624.00" />
<line x1="336.00" y1="768.00" x2="336.00" y2="832.00" />
<line x1="336.00" y1="864.00" x2="336.00" y2="880.00" />
<line x1="336.00" y1="928.00" x2="336.00" y2="944.00" />
<line x1="336.00" y1="960.00" x2="336.00" y2="992.00" />
<line x1="336.00" y1="1072.00" x2="336.00" y2="1104.00" />
<line x1="336.00" y1="1152.00" x2="336.00" y2="1168.00" />
<line x1="368.00" y1="240.00" x2="368.00" y2="256.00" />
<line x1="368.00" y1="336.00" x2="368.00" y2="368.00" />
<line x1="368.00" y1="384.00" x2="368.00" y2="432.00" />
<line x1="368.00" y1="464.00" x2="368.00" y2="560.00" />
<line x1="368.00" y1="624.00" x2="368.00" y2="640.00" />
<line x1="368.00" y1="848.00" x2="368.00" y2="880.00" />
<line x1="368.00" y1="992.00" x2="368.00" y2="1024.00" />
<line x1="368.00" y1="1056.00" x2="368.00" y2="1072.00" />
<line x1="752.00" y1="240.00" x2="752.00" y2="272.00" />
<line x1="752.00" y1="288.00" x2="752.00" y2="304.00" />
<line x1="752.00" y1="384.00" x2="752.00" y2="416.00" />
<line x1="752.00" y1="464.00" x2="752.00" y2="512.00" />
<line x1="752.00" y1="528.00" x2="752.00" y2="576.00" />
<line x1="752.00" y1="608.00" x2="752.00" y2="624.00" />
<line x1="752.00" y1="640.00" x2="752.00" y2="656.00" />
<line x1="752.00" y1="736.00" x2="752.00" y2="752.00" />
<line x1="752.00" y1="768.00" x2="752.00" y2="784.00" />
<line x1="752.00" y1="912.00" x2="752.00" y2="944.00" />
<line x1="800.00" y1="240.00" x2="800.00" y2="256.00" />
<line x1="800.00" y1="336.00" x2="800.00" y2="352.00" />
<line x1="800.00" y1="368.00" x2="800.00" y2="384.00" />
<line x1="800.00" y1="672.00" x2="800.00" y2="688.00" />
<line x1="800.00" y1="768.00" x2="800.00" y2="800.00" />
<line x1="800.00" y1="816.00" x2="800.00" y2="832.00" />
<line x1="800.00" y1="928.00" x2="800.00" y2="944.00" />
<line x1="800.00" y1="960.00" x2="800.00" y2="976.00" />
<line x1="944.00" y1="240.00" x2="944.00" y2="272.00" />
<line x1="944.00" y1="288.00" x2="944.00" y2="432.00" />
<line x1="944.00" y1="464.00" x2="944.00" y2="512.00" />
<line x1="944.00" y1="528.00" x2="944.00" y2="592.00" />
<line x1="944.00" y1="608.00" x2="944.00" y2="624.00" />
<line x1="944.00" y1="640.00" x2="944.00" y2="752.00" />
<line x1="944.00" y1="768.00" x2="944.00" y2="800.00" />
<line x1="944.00" y1="864.00" x2="944.00" y2="912.00" />
<line x1="944.00" y1="928.00" x2="944.00" y2="944.00" />
<line x1="944.00" y1="1120.00" x2="944.00" y2="1168.00" />
<line x1="1360.00" y1="240.00" x2="1360.00" y2="256.00" />
<line x1="1360.00" y1="304.00" x2="1360.00" y2="752.00" />
<line x1="1360.00" y1="768.00" x2="1360.00" y2="848.00" />
<line x1="1360.00" y1="976.00" x2="1360.00" y2="1088.00" />
<line x1="1360.00" y1="1104.00" x2="1360.00" y2="1120.00" />
<line x1="1360.00" y1="1360.00" x2="1360.00" y2="1392.00" />
<line x1="1360.00" y1="1408.00" x2="1360.00" y2="1440.00" />
<line x1="544.00" y1="256.00" x2="544.00" y2="272.00" />
<line x1="544.00" y1="288.00" x2="544.00" y2="368.00" />
<line x1="544.00" y1="480.00" x2="544.00" y2="512.00" />
<line x1="544.00" y1="544.00" x2="544.00" y2="576.00" />
<line x1="544.00" y1="928.00" x2="544.00" y2="992.00" />
<line x1="544.00" y1="1152.00" x2="544.00" y2="1168.00" />
<line x1="544.00" y1="1184.00" x2="544.00" y2="1200.00" />
<line x1="1280.00" y1="256.00" x2="1280.00" y2="272.00" />
<line x1="1280.00" y1="288.00" x2="1280.00" y2="304.00" />
<line x1="1280.00" y1="336.00" x2="1280.00" y2="368.00" />
<line x1="1280.00" y1="448.00" x2="1280.00" y2="752.00" />
<line x1="1280.00" y1="768.00" x2="1280.00" y2="832.00" />
<line x1="1280.00" y1="960.00" x2="1280.00" y2="1168.00" />
<line x1="1280.00" y1="1200.00" x2="1280.00" y2="1232.00" />
<line x1="1456.00" y1="256.00" x2="1456.00" y2="304.00" />
<line x1="720.00" y1="288.00" x2="720.00" y2="304.00" />
<line x1="720.00" y1="320.00" x2="720.00" y2="336.00" />
<line x1="720.00" y1="416.00" x2="720.00" y2="432.00" />
<line x1="720.00" y1="720.00" x2="720.00" y2="752.00" />
<line x1="720.00" y1="864.00" x2="720.00" y2="880.00" />
<line x1="720.00" y1="896.00" x2="720.00" y2="912.00" />
<line x1="864.00" y1="288.00" x2="864.00" y2="304.00" />
<line x1="864.00" y1="320.00" x2="864.00" y2="336.00" />
<line x1="864.00" y1="720.00" x2="864.00" y2="736.00" />
<line x1="864.00" y1="800.00" x2="864.00" y2="832.00" />
<line x1="864.00" y1="1008.00" x2="864.00" y2="1024.00" />
<line x1="896.00" y1="288.00" x2="896.00" y2="304.00" />
<line x1="896.00" y1="784.00" x2="896.00" y2="800.00" />
<line x1="896.00" y1="864.00" x2="896.00" y2="880.00" />
<line x1="896.00" y1="896.00" x2="896.00" y2="928.00" />
<line x1="896.00" y1="960.00" x2="896.00" y2="992.00" />
<line x1="896.00" y1="1072.00" x2="896.00" y2="1104.00" />
<line x1="96.00" y1="304.00" x2="96.00" y2="704.00" />
<line x1="96.00" y1="800.00" x2="96.00" y2="1264.00" />
<line x1="112.00" y1="304.00" x2="112.00" y2="704.00" />
<line x1="112.00" y1="800.00" x2="112.00" y2="1248.00" />
<line x1="240.00" y1="304.00" x2="240.00" y2="352.00" />
<line x1="240.00" y1="528.00" x2="240.00" y2="752.00" />
<line x1="240.00" y1="768.00" x2="240.00" y2="784.00" />
<line x1="240.00" y1="832.00" x2="240.00" y2="864.00" />
<line x1="272.00" y1="304.00" x2="272.00" y2="432.00" />
<line x1="272.00" y1="448.00" x2="272.00" y2="752.00" />
<line x1="272.00" y1="768.00" x2="272.00" y2="784.00" />
<line x1="272.00" y1="816.00" x2="272.00" y2="880.00" />
<line x1="272.00" y1="1008.00" x2="272.00" y2="1088.00" />
<line x1="288.00" y1="304.00" x2="288.00" y2="320.00" />
<line x1="288.00" y1="448.00" x2="288.00" y2="752.00" />
<line x1="288.00" y1="768.00" x2="288.00" y2="784.00" />
<line x1="288.00" y1="816.00" x2="288.00" y2="880.00" />
<line x1="288.00" y1="1008.00" x2="288.00" y2="1088.00" />
<line x1="320.00" y1="304.00" x2="320.00" y2="320.00" />
<line x1="320.00" y1="816.00" x2="320.00" y2="832.00" />
<line x1="320.00" y1="848.00" x2="320.00" y2="864.00" />
<line x1="320.00" y1="960.00" x2="320.00" y2="1008.00" />
<line x1="320.00" y1="1120.00" x2="320.00" y2="1152.00" />
<line x1="320.00" y1="1184.00" x2="320.00" y2="1232.00" />
<line x1="704.00" y1="304.00" x2="704.00" y2="320.00" />
<line x1="704.00" y1="576.00" x2="704.00" y2="592.00" />
<line x1="704.00" y1="608.00" x2="704.00" y2="624.00" />
<line x1="704.00" y1="688.00" x2="704.00" y2="704.00" />
<line x1="704.00" y1="832.00" x2="704.00" y2="864.00" />
<line x1="704.00" y1="880.00" x2="704.00" y2="896.00" />
<line x1="736.00" y1="304.00" x2="736.00" y2="320.00" />
<line x1="736.00" y1="704.00" x2="736.00" y2="736.00" />
<line x1="736.00" y1="880.00" x2="736.00" y2="896.00" />
<line x1="848.00" y1="304.00" x2="848.00" y2="320.00" />
<line x1="848.00" y1="736.00" x2="848.00" y2="752.00" />
<line x1="848.00" y1="816.00" x2="848.00" y2="832.00" />
<line x1="848.00" y1="848.00" x2="848.00" y2="880.00" />
<line x1="848.00" y1="976.00" x2="848.00" y2="1008.00" />
<line x1="848.00" y1="1024.00" x2="848.00" y2="1040.00" />
<line x1="880.00" y1="304.00" x2="880.00" y2="320.00" />
<line x1="880.00" y1="736.00" x2="880.00" y2="752.00" />
<line x1="880.00" y1="768.00" x2="880.00" y2="784.00" />
<line x1="880.00" y1="880.00" x2="880.00" y2="896.00" />
<line x1="880.00" y1="992.00" x2="880.00" y2="1024.00" />
<line x1="880.00" y1="1040.00" x2="880.00" y2="1072.00" />
<line x1="1328.00" y1="304.00" x2="1328.00" y2="320.00" />
<line x1="1328.00" y1="1104.00" x2="1328.00" y2="1136.00" />
<line x1="1344.00" y1="304.00" x2="1344.00" y2="336.00" />
<line x1="1344.00" y1="1088.00" x2="1344.00" y2="1104.00" />
<line x1="1344.00" y1="1120.00" x2="1344.00" y2="1152.00" />
<line x1="1344.00" y1="1232.00" x2="1344.00" y2="1344.00" />
<line x1="672.00" y1="320.00" x2="672.00" y2="352.00" />
<line x1="672.00" y1="368.00" x2="672.00" y2="384.00" />
<line x1="672.00" y1="608.00" x2="672.00" y2="624.00" />
<line x1="672.00" y1="640.00" x2="672.00" y2="672.00" />
<line x1="672.00" y1="848.00" x2="672.00" y2="1152.00" />
<line x1="816.00" y1="320.00" x2="816.00" y2="336.00" />
<line x1="816.00" y1="352.00" x2="816.00" y2="368.00" />
<line x1="816.00" y1="704.00" x2="816.00" y2="736.00" />
<line x1="816.00" y1="800.00" x2="816.00" y2="816.00" />
<line x1="816.00" y1="944.00" x2="816.00" y2="960.00" />
<line x1="816.00" y1="976.00" x2="816.00" y2="992.00" />
<line x1="1296.00" y1="320.00" x2="1296.00" y2="336.00" />
<line x1="1296.00" y1="352.00" x2="1296.00" y2="384.00" />
<line x1="1296.00" y1="432.00" x2="1296.00" y2="752.00" />
<line x1="1296.00" y1="768.00" x2="1296.00" y2="848.00" />
<line x1="1296.00" y1="976.00" x2="1296.00" y2="1136.00" />
<line x1="1296.00" y1="1168.00" x2="1296.00" y2="1232.00" />
<line x1="688.00" y1="336.00" x2="688.00" y2="368.00" />
<line x1="688.00" y1="672.00" x2="688.00" y2="688.00" />
<line x1="688.00" y1="720.00" x2="688.00" y2="752.00" />
<line x1="688.00" y1="768.00" x2="688.00" y2="832.00" />
<line x1="688.00" y1="848.00" x2="688.00" y2="880.00" />
<line x1="832.00" y1="336.00" x2="832.00" y2="352.00" />
<line x1="832.00" y1="688.00" x2="832.00" y2="720.00" />
<line x1="832.00" y1="832.00" x2="832.00" y2="848.00" />
<line x1="832.00" y1="960.00" x2="832.00" y2="976.00" />
<line x1="832.00" y1="992.00" x2="832.00" y2="1024.00" />
<line x1="1312.00" y1="336.00" x2="1312.00" y2="352.00" />
<line x1="1312.00" y1="1152.00" x2="1312.00" y2="1168.00" />
<line x1="640.00" y1="352.00" x2="640.00" y2="368.00" />
<line x1="640.00" y1="400.00" x2="640.00" y2="416.00" />
<line x1="640.00" y1="608.00" x2="640.00" y2="624.00" />
<line x1="496.00" y1="368.00" x2="496.00" y2="384.00" />
<line x1="496.00" y1="496.00" x2="496.00" y2="512.00" />
<line x1="496.00" y1="528.00" x2="496.00" y2="544.00" />
<line x1="496.00" y1="640.00" x2="496.00" y2="656.00" />
<line x1="496.00" y1="672.00" x2="496.00" y2="688.00" />
<line x1="496.00" y1="848.00" x2="496.00" y2="864.00" />
<line x1="496.00" y1="880.00" x2="496.00" y2="912.00" />
<line x1="496.00" y1="1008.00" x2="496.00" y2="1024.00" />
<line x1="496.00" y1="1104.00" x2="496.00" y2="1120.00" />
<line x1="496.00" y1="1136.00" x2="496.00" y2="1152.00" />
<line x1="624.00" y1="368.00" x2="624.00" y2="384.00" />
<line x1="624.00" y1="640.00" x2="624.00" y2="656.00" />
<line x1="624.00" y1="896.00" x2="624.00" y2="992.00" />
<line x1="768.00" y1="368.00" x2="768.00" y2="384.00" />
<line x1="768.00" y1="400.00" x2="768.00" y2="432.00" />
<line x1="768.00" y1="656.00" x2="768.00" y2="688.00" />
<line x1="768.00" y1="896.00" x2="768.00" y2="928.00" />
<line x1="992.00" y1="368.00" x2="992.00" y2="432.00" />
<line x1="992.00" y1="464.00" x2="992.00" y2="544.00" />
<line x1="992.00" y1="960.00" x2="992.00" y2="992.00" />
<line x1="992.00" y1="1072.00" x2="992.00" y2="1104.00" />
<line x1="1152.00" y1="368.00" x2="1152.00" y2="432.00" />
<line x1="1152.00" y1="448.00" x2="1152.00" y2="480.00" />
<line x1="1152.00" y1="496.00" x2="1152.00" y2="544.00" />
<line x1="1152.00" y1="720.00" x2="1152.00" y2="736.00" />
<line x1="1248.00" y1="368.00" x2="1248.00" y2="384.00" />
<line x1="1248.00" y1="400.00" x2="1248.00" y2="416.00" />
<line x1="1248.00" y1="800.00" x2="1248.00" y2="832.00" />
<line x1="1248.00" y1="880.00" x2="1248.00" y2="912.00" />
<line x1="1248.00" y1="928.00" x2="1248.00" y2="944.00" />
<line x1="1248.00" y1="1184.00" x2="1248.00" y2="1200.00" />
<line x1="1248.00" y1="1216.00" x2="1248.00" y2="1232.00" />
<line x1="528.00" y1="384.00" x2="528.00" y2="416.00" />
<line x1="528.00" y1="464.00" x2="528.00" y2="480.00" />
<line x1="528.00" y1="512.00" x2="528.00" y2="528.00" />
<line x1="528.00" y1="608.00" x2="528.00" y2="624.00" />
<line x1="528.00" y1="640.00" x2="528.00" y2="656.00" />
<line x1="528.00" y1="928.00" x2="528.00" y2="992.00" />
<line x1="528.00" y1="1136.00" x2="528.00" y2="1152.00" />
<line x1="608.00" y1="384.00" x2="608.00" y2="400.00" />
<line x1="608.00" y1="416.00" x2="608.00" y2="432.00" />
<line x1="608.00" y1="576.00" x2="608.00" y2="592.00" />
<line x1="608.00" y1="640.00" x2="608.00" y2="704.00" />
<line x1="608.00" y1="816.00" x2="608.00" y2="864.00" />
<line x1="656.00" y1="384.00" x2="656.00" y2="400.00" />
<line x1="656.00" y1="576.00" x2="656.00" y2="592.00" />
<line x1="656.00" y1="608.00" x2="656.00" y2="624.00" />
<line x1="656.00" y1="656.00" x2="656.00" y2="704.00" />
<line x1="656.00" y1="816.00" x2="656.00" y2="1152.00" />
<line x1="1232.00" y1="384.00" x2="1232.00" y2="400.00" />
<line x1="1232.00" y1="416.00" x2="1232.00" y2="432.00" />
<line x1="1232.00" y1="816.00" x2="1232.00" y2="848.00" />
<line x1="1232.00" y1="1200.00" x2="1232.00" y2="1216.00" />
<line x1="1264.00" y1="384.00" x2="1264.00" y2="400.00" />
<line x1="1264.00" y1="848.00" x2="1264.00" y2="880.00" />
<line x1="1264.00" y1="944.00" x2="1264.00" y2="960.00" />
<line x1="1264.00" y1="1168.00" x2="1264.00" y2="1184.00" />
<line x1="1264.00" y1="1200.00" x2="1264.00" y2="1216.00" />
<line x1="512.00" y1="400.00" x2="512.00" y2="432.00" />
<line x1="512.00" y1="528.00" x2="512.00" y2="544.00" />
<line x1="512.00" y1="656.00" x2="512.00" y2="672.00" />
<line x1="512.00" y1="704.00" x2="512.00" y2="752.00" />
<line x1="512.00" y1="768.00" x2="512.00" y2="816.00" />
<line x1="512.00" y1="864.00" x2="512.00" y2="880.00" />
<line x1="512.00" y1="896.00" x2="512.00" y2="912.00" />
<line x1="512.00" y1="992.00" x2="512.00" y2="1008.00" />
<line x1="512.00" y1="1120.00" x2="512.00" y2="1136.00" />
<line x1="512.00" y1="1152.00" x2="512.00" y2="1168.00" />
<line x1="592.00" y1="400.00" x2="592.00" y2="416.00" />
<line x1="592.00" y1="608.00" x2="592.00" y2="624.00" />
<line x1="592.00" y1="640.00" x2="592.00" y2="704.00" />
<line x1="592.00" y1="816.00" x2="592.00" y2="848.00" />
<line x1="592.00" y1="1152.00" x2="592.00" y2="1168.00" />
<line x1="592.00" y1="1232.00" x2="592.00" y2="1248.00" />
<line x1="592.00" y1="1264.00" x2="592.00" y2="1280.00" />
<line x1="592.00" y1="1296.00" x2="592.00" y2="1344.00" />
<line x1="1216.00" y1="400.00" x2="1216.00" y2="416.00" />
<line x1="1216.00" y1="768.00" x2="1216.00" y2="800.00" />
<line x1="1216.00" y1="1216.00" x2="1216.00" y2="1232.00" />
<line x1="1216.00" y1="1264.00" x2="1216.00" y2="1280.00" />
<line x1="1216.00" y1="1296.00" x2="1216.00" y2="1344.00" />
<line x1="576.00" y1="416.00" x2="576.00" y2="432.00" />
<line x1="576.00" y1="480.00" x2="576.00" y2="560.00" />
<line x1="576.00" y1="576.00" x2="576.00" y2="592.00" />
<line x1="576.00" y1="608.00" x2="576.00" y2="624.00" />
<line x1="576.00" y1="864.00" x2="576.00" y2="896.00" />
<line x1="576.00" y1="1200.00" x2="576.00" y2="1232.00" />
<line x1="1200.00" y1="416.00" x2="1200.00" y2="432.00" />
<line x1="1200.00" y1="448.00" x2="1200.00" y2="480.00" />
<line x1="1200.00" y1="784.00" x2="1200.00" y2="816.00" />
<line x1="1200.00" y1="1232.00" x2="1200.00" y2="1248.00" />
<line x1="1200.00" y1="1264.00" x2="1200.00" y2="1280.00" />
<line x1="1168.00" y1="464.00" x2="1168.00" y2="480.00" />
<line x1="1072.00" y1="544.00" x2="1072.00" y2="560.00" />
<line x1="1072.00" y1="576.00" x2="1072.00" y2="592.00" />
<line x1="1072.00" y1="672.00" x2="1072.00" y2="688.00" />
<line x1="1120.00" y1="544.00" x2="1120.00" y2="560.00" />
<line x1="1120.00" y1="672.00" x2="1120.00" y2="688.00" />
<line x1="1120.00" y1="704.00" x2="1120.00" y2="736.00" />
<line x1="1088.00" y1="560.00" x2="1088.00" y2="576.00" />
<line x1="1088.00" y1="592.00" x2="1088.00" y2="672.00" />
<line x1="1088.00" y1="1232.00" x2="1088.00" y2="1280.00" />
<line x1="1088.00" y1="1296.00" x2="1088.00" y2="1312.00" />
<line x1="1088.00" y1="1328.00" x2="1088.00" y2="1392.00" />
<line x1="1040.00" y1="576.00" x2="1040.00" y2="592.00" />
<line x1="1040.00" y1="800.00" x2="1040.00" y2="864.00" />
<line x1="1008.00" y1="672.00" x2="1008.00" y2="752.00" />
<line x1="1008.00" y1="768.00" x2="1008.00" y2="800.00" />
<line x1="1008.00" y1="864.00" x2="1008.00" y2="912.00" />
<line x1="1008.00" y1="928.00" x2="1008.00" y2="992.00" />
<line x1="1008.00" y1="1072.00" x2="1008.00" y2="1280.00" />
<line x1="1008.00" y1="1296.00" x2="1008.00" y2="1312.00" />
<line x1="1008.00" y1="1328.00" x2="1008.00" y2="1408.00" />
<line x1="1024.00" y1="672.00" x2="1024.00" y2="752.00" />
<line x1="1024.00" y1="768.00" x2="1024.00" y2="800.00" />
<line x1="1024.00" y1="864.00" x2="1024.00" y2="912.00" />
<line x1="1024.00" y1="928.00" x2="1024.00" y2="1280.00" />
<line x1="1024.00" y1="1296.00" x2="1024.00" y2="1312.00" />
<line x1="1024.00" y1="1328.00" x2="1024.00" y2="1392.00" />
<line x1="1104.00" y1="688.00" x2="1104.00" y2="704.00" />
<line x1="1136.00" y1="688.00" x2="1136.00" y2="720.00" />
<line x1="1136.00" y1="736.00" x2="1136.00" y2="752.00" />
<line x1="208.00" y1="704.00" x2="208.00" y2="752.00" />
<line x1="208.00" y1="768.00" x2="208.00" y2="800.00" />
<line x1="208.00" y1="832.00" x2="208.00" y2="848.00" />
<line x1="208.00" y1="1104.00" x2="208.00" y2="1152.00" />
<line x1="208.00" y1="1184.00" x2="208.00" y2="1232.00" />
<line x1="912.00" y1="768.00" x2="912.00" y2="784.00" />
<line x1="912.00" y1="880.00" x2="912.00" y2="912.00" />
<line x1="256.00" y1="784.00" x2="256.00" y2="864.00" />
<line x1="256.00" y1="880.00" x2="256.00" y2="1088.00" />
<line x1="928.00" y1="784.00" x2="928.00" y2="800.00" />
<line x1="928.00" y1="944.00" x2="928.00" y2="960.00" />
<line x1="928.00" y1="1104.00" x2="928.00" y2="1120.00" />
<line x1="176.00" y1="800.00" x2="176.00" y2="832.00" />
<line x1="224.00" y1="816.00" x2="224.00" y2="832.00" />
<line x1="224.00" y1="848.00" x2="224.00" y2="880.00" />
<line x1="224.00" y1="1088.00" x2="224.00" y2="1104.00" />
<line x1="224.00" y1="1232.00" x2="224.00" y2="1248.00" />
<line x1="1392.00" y1="848.00" x2="1392.00" y2="864.00" />
<line x1="1392.00" y1="960.00" x2="1392.00" y2="976.00" />
<line x1="1408.00" y1="864.00" x2="1408.00" y2="880.00" />
<line x1="1408.00" y1="944.00" x2="1408.00" y2="960.00" />
<line x1="1424.00" y1="880.00" x2="1424.00" y2="944.00" />
<line x1="1424.00" y1="1360.00" x2="1424.00" y2="1440.00" />
  </g>
  <g class="features">
<g data-feature-type="stairsDown"><line data-feature-type="stairsDown" x1="690.24" y1="1267.36" x2="701.76" y2="1267.36" /><line x1="690.65" y1="1269.68" x2="701.35" y2="1269.68" /><line x1="691.07" y1="1272.00" x2="700.93" y2="1272.00" /><line x1="691.48" y1="1274.32" x2="700.52" y2="1274.32" /><line x1="691.90" y1="1276.64" x2="700.10" y2="1276.64" /></g>
<g data-feature-type="stairsUp"><line data-feature-type="stairsUp" x1="1043.90" y1="451.36" x2="1052.10" y2="451.36" /><line x1="1043.48" y1="453.68" x2="1052.52" y2="453.68" /><line x1="1043.07" y1="456.00" x2="1052.93" y2="456.00" /><line x1="1042.65" y1="458.32" x2="1053.35" y2="458.32" /><line x1="1042.24" y1="460.64" x2="1053.76" y2="460.64" /></g>
<g data-feature-type="statue"><circle cx="1320.00" cy="280.00" r="3.52" fill="none" /><line x1="1317.76" y1="280.00" x2="1322.24" y2="280.00" /><line x1="1320.00" y1="277.76" x2="1320.00" y2="282.24" /><line x1="1318.39" y1="278.39" x2="1321.61" y2="281.61" /><line x1="1318.39" y1="281.61" x2="1321.61" y2="278.39" /></g>
<circle data-feature-type="pillar" cx="712.00" cy="1240.00" r="3.68" fill="#5c92ab" stroke="none" />
<circle data-feature-type="pillar" cx="728.00" cy="1272.00" r="3.68" fill="#5c92ab" stroke="none" />
<circle data-feature-type="pillar" cx="728.00" cy="1240.00" r="3.68" fill="#5c92ab" stroke="none" />
<circle data-feature-type="pillar" cx="680.00" cy="1240.00" r="3.68" fill="#5c92ab" stroke="none" />
<g data-feature-type="altar"><rect x="629.28" y="1318.40" width="5.44" height="3.20" fill="none" /><line x1="632.00" y1="1317.44" x2="632.00" y2="1322.56" /><line x1="630.40" y1="1320.00" x2="633.60" y2="1320.00" /></g>
<g data-feature-type="statue"><circle cx="1128.00" cy="1336.00" r="3.52" fill="none" /><line x1="1125.76" y1="1336.00" x2="1130.24" y2="1336.00" /><line x1="1128.00" y1="1333.76" x2="1128.00" y2="1338.24" /><line x1="1126.39" y1="1334.39" x2="1129.61" y2="1337.61" /><line x1="1126.39" y1="1337.61" x2="1129.61" y2="1334.39" /></g>
<circle data-feature-type="pillar" cx="696.00" cy="536.00" r="3.68" fill="#5c92ab" stroke="none" />
<circle data-feature-type="pillar" cx="680.00" cy="504.00" r="3.68" fill="#5c92ab" stroke="none" />
<circle data-feature-type="pillar" cx="632.00" cy="504.00" r="3.68" fill="#5c92ab" stroke="none" />
<g data-feature-type="altar"><rect x="677.28" y="486.40" width="5.44" height="3.20" fill="none" /><line x1="680.00" y1="485.44" x2="680.00" y2="490.56" /><line x1="678.40" y1="488.00" x2="681.60" y2="488.00" /></g>
<circle data-feature-type="pillar" cx="1032.00" cy="632.00" r="3.68" fill="#5c92ab" stroke="none" />
<circle data-feature-type="pillar" cx="152.00" cy="760.00" r="3.68" fill="#5c92ab" stroke="none" />
<g data-feature-type="altar"><rect x="133.28" y="742.40" width="5.44" height="3.20" fill="none" /><line x1="136.00" y1="741.44" x2="136.00" y2="746.56" /><line x1="134.40" y1="744.00" x2="137.60" y2="744.00" /></g>
<g data-feature-type="trap"><rect x="372.64" y="580.64" width="6.72" height="6.72" fill="none" /><line x1="372.64" y1="580.64" x2="379.36" y2="587.36" /><line x1="372.64" y1="587.36" x2="379.36" y2="580.64" /></g>
<circle data-feature-type="pillar" cx="1304.00" cy="1288.00" r="3.68" fill="#5c92ab" stroke="none" />
<g data-feature-type="well"><circle cx="1272.00" cy="1256.00" r="4.00" fill="none" /><circle cx="1272.00" cy="1256.00" r="2.24" fill="none" /></g>
<circle data-feature-type="pillar" cx="968.00" cy="840.00" r="3.68" fill="#5c92ab" stroke="none" />
<g data-feature-type="statue"><circle cx="920.00" cy="824.00" r="3.52" fill="none" /><line x1="917.76" y1="824.00" x2="922.24" y2="824.00" /><line x1="920.00" y1="821.76" x2="920.00" y2="826.24" /><line x1="918.39" y1="822.39" x2="921.61" y2="825.61" /><line x1="918.39" y1="825.61" x2="921.61" y2="822.39" /></g>
<circle data-feature-type="pillar" cx="968.00" cy="1048.00" r="3.68" fill="#5c92ab" stroke="none" />
<circle data-feature-type="pillar" cx="936.00" cy="1048.00" r="3.68" fill="#5c92ab" stroke="none" />
<circle data-feature-type="pillar" cx="936.00" cy="1016.00" r="3.68" fill="#5c92ab" stroke="none" />
<g data-feature-type="chest"><rect x="981.28" y="998.24" width="5.44" height="3.52" fill="none" /><line x1="981.28" y1="1000.00" x2="986.72" y2="1000.00" /><circle cx="984.00" cy="1000.18" r="0.70" fill="#5c92ab" stroke="none" /></g>
<path data-feature-type="curtain" d="M 1078.40 67.84 Q 1080.00 70.34 1078.40 72.00 Q 1080.00 73.66 1078.40 76.16" fill="none" /><path d="M 1081.60 67.84 Q 1080.00 70.34 1081.60 72.00 Q 1080.00 73.66 1081.60 76.16" fill="none" />
<circle data-feature-type="pillar" cx="840.00" cy="168.00" r="3.68" fill="#5c92ab" stroke="none" />
<circle data-feature-type="pillar" cx="856.00" cy="168.00" r="3.68" fill="#5c92ab" stroke="none" />
<circle data-feature-type="pillar" cx="856.00" cy="136.00" r="3.68" fill="#5c92ab" stroke="none" />
<circle data-feature-type="pillar" cx="232.00" cy="456.00" r="3.68" fill="#5c92ab" stroke="none" />
<circle data-feature-type="pillar" cx="216.00" cy="424.00" r="3.68" fill="#5c92ab" stroke="none" />
<circle data-feature-type="pillar" cx="168.00" cy="456.00" r="3.68" fill="#5c92ab" stroke="none" />
<g data-feature-type="trap"><rect x="180.64" y="404.64" width="6.72" height="6.72" fill="none" /><line x1="180.64" y1="404.64" x2="187.36" y2="411.36" /><line x1="180.64" y1="411.36" x2="187.36" y2="404.64" /></g>
<circle data-feature-type="pillar" cx="248.00" cy="264.00" r="3.68" fill="#5c92ab" stroke="none" />
<circle data-feature-type="pillar" cx="248.00" cy="232.00" r="3.68" fill="#5c92ab" stroke="none" />
<g data-feature-type="statue"><circle cx="248.00" cy="216.00" r="3.52" fill="none" /><line x1="245.76" y1="216.00" x2="250.24" y2="216.00" /><line x1="248.00" y1="213.76" x2="248.00" y2="218.24" /><line x1="246.39" y1="214.39" x2="249.61" y2="217.61" /><line x1="246.39" y1="217.61" x2="249.61" y2="214.39" /></g>
<circle data-feature-type="pillar" cx="264.00" cy="1208.00" r="3.68" fill="#5c92ab" stroke="none" />
<circle data-feature-type="pillar" cx="264.00" cy="1144.00" r="3.68" fill="#5c92ab" stroke="none" />
<g data-feature-type="statue"><circle cx="296.00" cy="1096.00" r="3.52" fill="none" /><line x1="293.76" y1="1096.00" x2="298.24" y2="1096.00" /><line x1="296.00" y1="1093.76" x2="296.00" y2="1098.24" /><line x1="294.39" y1="1094.39" x2="297.61" y2="1097.61" /><line x1="294.39" y1="1097.61" x2="297.61" y2="1094.39" /></g>
<circle data-feature-type="pillar" cx="1336.00" cy="888.00" r="3.68" fill="#5c92ab" stroke="none" />
<circle data-feature-type="pillar" cx="1336.00" cy="936.00" r="3.68" fill="#5c92ab" stroke="none" />
<g data-feature-type="statue"><circle cx="1288.00" cy="920.00" r="3.52" fill="none" /><line x1="1285.76" y1="920.00" x2="1290.24" y2="920.00" /><line x1="1288.00" y1="917.76" x2="1288.00" y2="922.24" /><line x1="1286.39" y1="918.39" x2="1289.61" y2="921.61" /><line x1="1286.39" y1="921.61" x2="1289.61" y2="918.39" /></g>
<g data-feature-type="coffin"><rect x="1365.60" y="948.32" width="4.80" height="7.36" rx="0.80" ry="0.80" fill="none" /><line x1="1368.00" y1="949.94" x2="1368.00" y2="954.06" /></g>
<circle data-feature-type="pillar" cx="1048.00" cy="472.00" r="3.68" fill="#5c92ab" stroke="none" />
<circle data-feature-type="pillar" cx="1096.00" cy="440.00" r="3.68" fill="#5c92ab" stroke="none" />
<circle data-feature-type="pillar" cx="1112.00" cy="472.00" r="3.68" fill="#5c92ab" stroke="none" />
<circle data-feature-type="pillar" cx="1112.00" cy="440.00" r="3.68" fill="#5c92ab" stroke="none" />
<circle data-feature-type="pillar" cx="472.00" cy="344.00" r="3.68" fill="#5c92ab" stroke="none" />
<circle data-feature-type="pillar" cx="472.00" cy="296.00" r="3.68" fill="#5c92ab" stroke="none" />
<g data-feature-type="altar"><rect x="485.28" y="326.40" width="5.44" height="3.20" fill="none" /><line x1="488.00" y1="325.44" x2="488.00" y2="330.56" /><line x1="486.40" y1="328.00" x2="489.60" y2="328.00" /></g>
<g data-feature-type="trap"><rect x="420.64" y="276.64" width="6.72" height="6.72" fill="none" /><line x1="420.64" y1="276.64" x2="427.36" y2="283.36" /><line x1="420.64" y1="283.36" x2="427.36" y2="276.64" /></g>
<circle data-feature-type="pillar" cx="600.00" cy="952.00" r="3.68" fill="#5c92ab" stroke="none" />
<g data-feature-type="statue"><circle cx="584.00" cy="920.00" r="3.52" fill="none" /><line x1="581.76" y1="920.00" x2="586.24" y2="920.00" /><line x1="584.00" y1="917.76" x2="584.00" y2="922.24" /><line x1="582.39" y1="918.39" x2="585.61" y2="921.61" /><line x1="582.39" y1="921.61" x2="585.61" y2="918.39" /></g>
<circle data-feature-type="pillar" cx="424.00" cy="984.00" r="3.68" fill="#5c92ab" stroke="none" />
<circle data-feature-type="pillar" cx="408.00" cy="952.00" r="3.68" fill="#5c92ab" stroke="none" />
<circle data-feature-type="pillar" cx="408.00" cy="984.00" r="3.68" fill="#5c92ab" stroke="none" />
<path data-feature-type="curtain" d="M 502.40 963.84 Q 504.00 966.34 502.40 968.00 Q 504.00 969.66 502.40 972.16" fill="none" /><path d="M 505.60 963.84 Q 504.00 966.34 505.60 968.00 Q 504.00 969.66 505.60 972.16" fill="none" />
  </g>
  <g class="thresholds">
<rect data-threshold-type="door" x="1283.52" y="277.76" width="8.96" height="4.48" fill="#ffffff" stroke="#5c92ab" stroke-width="1.52" />
<rect data-threshold-type="door" x="99.52" y="293.76" width="8.96" height="4.48" fill="#ffffff" stroke="#5c92ab" stroke-width="1.52" />
<rect data-threshold-type="door" x="771.52" y="1285.76" width="8.96" height="4.48" fill="#ffffff" stroke="#5c92ab" stroke-width="1.52" />
<g data-threshold-type="locked" stroke="#5c92ab" fill="none" stroke-width="1.52"><rect x="1171.52" y="1285.76" width="8.96" height="4.48" fill="#ffffff" /><circle cx="1176.00" cy="1284.77" r="1.61" /></g>
<rect data-threshold-type="door" x="339.52" y="757.76" width="8.96" height="4.48" fill="#ffffff" stroke="#5c92ab" stroke-width="1.52" />
<rect data-threshold-type="door" x="451.52" y="117.76" width="8.96" height="4.48" fill="#ffffff" stroke="#5c92ab" stroke-width="1.52" />
<rect data-threshold-type="door" x="659.52" y="565.76" width="8.96" height="4.48" fill="#ffffff" stroke="#5c92ab" stroke-width="1.52" />
<rect data-threshold-type="door" x="947.52" y="597.76" width="8.96" height="4.48" fill="#ffffff" stroke="#5c92ab" stroke-width="1.52" />
<rect data-threshold-type="door" x="275.52" y="917.76" width="8.96" height="4.48" fill="#ffffff" stroke="#5c92ab" stroke-width="1.52" />
<rect data-threshold-type="door" x="195.52" y="757.76" width="8.96" height="4.48" fill="#ffffff" stroke="#5c92ab" stroke-width="1.52" />
<rect data-threshold-type="door" x="403.52" y="597.76" width="8.96" height="4.48" fill="#ffffff" stroke="#5c92ab" stroke-width="1.52" />
<g data-threshold-type="locked" stroke="#5c92ab" fill="none" stroke-width="1.52"><rect x="1219.52" y="1237.76" width="8.96" height="4.48" fill="#ffffff" /><circle cx="1224.00" cy="1236.77" r="1.61" /></g>
<rect data-threshold-type="door" x="1011.52" y="805.76" width="8.96" height="4.48" fill="#ffffff" stroke="#5c92ab" stroke-width="1.52" />
<rect data-threshold-type="door" x="1363.52" y="1397.76" width="8.96" height="4.48" fill="#ffffff" stroke="#5c92ab" stroke-width="1.52" />
<g data-threshold-type="locked" stroke="#5c92ab" fill="none" stroke-width="1.52"><rect x="995.52" y="1093.76" width="8.96" height="4.48" fill="#ffffff" /><circle cx="1000.00" cy="1092.77" r="1.61" /></g>
<rect data-threshold-type="door" x="1059.52" y="85.76" width="8.96" height="4.48" fill="#ffffff" stroke="#5c92ab" stroke-width="1.52" />
<rect data-threshold-type="door" x="851.52" y="213.76" width="8.96" height="4.48" fill="#ffffff" stroke="#5c92ab" stroke-width="1.52" />
<rect data-threshold-type="door" x="243.52" y="469.76" width="8.96" height="4.48" fill="#ffffff" stroke="#5c92ab" stroke-width="1.52" />
<g data-threshold-type="locked" stroke="#5c92ab" fill="none" stroke-width="1.52"><rect x="291.52" y="229.76" width="8.96" height="4.48" fill="#ffffff" /><circle cx="296.00" cy="228.77" r="1.61" /></g>
<g data-threshold-type="locked" stroke="#5c92ab" fill="none" stroke-width="1.52"><rect x="243.52" y="1237.76" width="8.96" height="4.48" fill="#ffffff" /><circle cx="248.00" cy="1236.77" r="1.61" /></g>
<rect data-threshold-type="door" x="675.52" y="709.76" width="8.96" height="4.48" fill="#ffffff" stroke="#5c92ab" stroke-width="1.52" />
<rect data-threshold-type="door" x="1251.52" y="917.76" width="8.96" height="4.48" fill="#ffffff" stroke="#5c92ab" stroke-width="1.52" />
<rect data-threshold-type="door" x="1075.52" y="533.76" width="8.96" height="4.48" fill="#ffffff" stroke="#5c92ab" stroke-width="1.52" />
<g data-threshold-type="secret"><line x1="467.52" y1="360.00" x2="476.48" y2="360.00" stroke="#5c92ab" stroke-width="1.31" stroke-dasharray="1.31 1.31" /><text x="477.56" y="359.10" font-size="5.44" fill="#5c92ab" font-family="Courier New, monospace" font-weight="700">S</text></g>
<g data-threshold-type="secret"><line x1="547.52" y1="904.00" x2="556.48" y2="904.00" stroke="#5c92ab" stroke-width="1.31" stroke-dasharray="1.31 1.31" /><text x="557.56" y="903.10" font-size="5.44" fill="#5c92ab" font-family="Courier New, monospace" font-weight="700">S</text></g>
<g data-threshold-type="locked" stroke="#5c92ab" fill="none" stroke-width="1.52"><rect x="419.52" y="1013.76" width="8.96" height="4.48" fill="#ffffff" /><circle cx="424.00" cy="1012.77" r="1.61" /></g>
  </g>
  <g class="labels">
<text x="1368.00" y="281.92" text-anchor="middle">1</text>
<text x="104.00" y="233.92" text-anchor="middle">2</text>
<text x="696.00" y="1257.92" text-anchor="middle">3</text>
<text x="1144.00" y="1321.92" text-anchor="middle">4</text>
<text x="360.00" y="809.92" text-anchor="middle">5</text>
<text x="504.00" y="89.92" text-anchor="middle">6</text>
<text x="664.00" y="521.92" text-anchor="middle">7</text>
<text x="1016.00" y="633.92" text-anchor="middle">8</text>
<text x="296.00" y="969.92" text-anchor="middle">9</text>
<text x="136.00" y="761.92" text-anchor="middle">10</text>
<text x="376.00" y="601.92" text-anchor="middle">11</text>
<text x="1288.00" y="1289.92" text-anchor="middle">12</text>
<text x="952.00" y="841.92" text-anchor="middle">13</text>
<text x="1400.00" y="1401.92" text-anchor="middle">14</text>
<text x="952.00" y="1033.92" text-anchor="middle">15</text>
<text x="1128.00" y="89.92" text-anchor="middle">16</text>
<text x="872.00" y="153.92" text-anchor="middle">17</text>
<text x="200.00" y="441.92" text-anchor="middle">18</text>
<text x="248.00" y="249.92" text-anchor="middle">19</text>
<text x="264.00" y="1177.92" text-anchor="middle">20</text>
<text x="600.00" y="761.92" text-anchor="middle">21</text>
<text x="1336.00" y="921.92" text-anchor="middle">22</text>
<text x="1080.00" y="457.92" text-anchor="middle">23</text>
<text x="472.00" y="313.92" text-anchor="middle">24</text>
<text x="584.00" y="953.92" text-anchor="middle">25</text>
<text x="440.00" y="969.92" text-anchor="middle">26</text>
  </g>
</svg>