<?xml version="1.0" encoding="UTF-8"?>
<svg xmlns="http://www.w3.org/2000/svg" width="1440" height="1536" viewBox="0 0 1440.00 1536.00" role="img" aria-label="MapIR render: Learned Generated Map 8">
  <defs>
    <style>
      .grid { stroke: #d7e7ef; stroke-width: 0.64; opacity: 0.72; }
      .walls { stroke: #6fa8c1; stroke-width: 1.92; fill: none; stroke-linecap: square; }
      .thresholds { fill: none; stroke-linecap: round; }
      .features { stroke: #5c92ab; fill: none; stroke-width: 1.60; stroke-linecap: round; stroke-linejoin: round; }
      .labels { fill: #5c92ab; font-size: 7.20px; font-family: "Courier New", monospace; font-weight: 600; }
    </style>
  </defs>
  <rect x="0" y="0" width="1440.00" height="1536.00" fill="#5d9fbc" />
  <g class="floors">
<rect x="96.00" y="48.00" width="64.00" height="176.00" fill="#fbfdfe" />
<rect x="656.00" y="112.00" width="192.00" height="160.00" fill="#fbfdfe" />
<rect x="160.00" y="128.00" width="496.00" height="16.00" fill="#fbfdfe" />
<rect x="288.00" y="144.00" width="16.00" height="448.00" fill="#fbfdfe" />
<rect x="560.00" y="144.00" width="16.00" height="1168.00" fill="#fbfdfe" />
<rect x="912.00" y="160.00" width="48.00" height="48.00" fill="#fbfdfe" />
<rect x="272.00" y="176.00" width="16.00" height="48.00" fill="#fbfdfe" />
<rect x="304.00" y="176.00" width="256.00" height="16.00" fill="#fbfdfe" />
<rect x="576.00" y="176.00" width="80.00" height="16.00" fill="#fbfdfe" />
<rect x="848.00" y="176.00" width="64.00" height="16.00" fill="#fbfdfe" />
<rect x="1296.00" y="176.00" width="32.00" height="208.00" fill="#fbfdfe" />
<rect x="1264.00" y="192.00" width="32.00" height="160.00" fill="#fbfdfe" />
<rect x="1328.00" y="192.00" width="32.00" height="160.00" fill="#fbfdfe" />
<rect x="256.00" y="208.00" width="16.00" height="32.00" fill="#fbfdfe" />
<rect x="928.00" y="208.00" width="16.00" height="1136.00" fill="#fbfdfe" />
<rect x="1056.00" y="208.00" width="64.00" height="208.00" fill="#fbfdfe" />
<rect x="240.00" y="224.00" width="16.00" height="32.00" fill="#fbfdfe" />
<rect x="1248.00" y="224.00" width="16.00" height="208.00" fill="#fbfdfe" />
<rect x="1360.00" y="224.00" width="16.00" height="96.00" fill="#fbfdfe" />
<rect x="208.00" y="240.00" width="32.00" height="16.00" fill="#fbfdfe" />
<rect x="192.00" y="256.00" width="32.00" height="16.00" fill="#fbfdfe" />
<rect x="176.00" y="272.00" width="32.00" height="16.00" fill="#fbfdfe" />
<rect x="656.00" y="272.00" width="32.00" height="176.00" fill="#fbfdfe" />
<rect x="160.00" y="288.00" width="32.00" height="16.00" fill="#fbfdfe" />
<rect x="608.00" y="288.00" width="48.00" height="160.00" fill="#fbfdfe" />
<rect x="688.00" y="288.00" width="80.00" height="160.00" fill="#fbfdfe" />
<rect x="864.00" y="288.00" width="64.00" height="144.00" fill="#fbfdfe" />
<rect x="944.00" y="288.00" width="48.00" height="144.00" fill="#fbfdfe" />
<rect x="144.00" y="304.00" width="32.00" height="16.00" fill="#fbfdfe" />
<rect x="1120.00" y="304.00" width="128.00" height="16.00" fill="#fbfdfe" />
<rect x="128.00" y="320.00" width="32.00" height="16.00" fill="#fbfdfe" />
<rect x="128.00" y="336.00" width="16.00" height="32.00" fill="#fbfdfe" />
<rect x="48.00" y="352.00" width="80.00" height="16.00" fill="#fbfdfe" />
<rect x="208.00" y="352.00" width="80.00" height="16.00" fill="#fbfdfe" />
<rect x="304.00" y="352.00" width="256.00" height="16.00" fill="#fbfdfe" />
<rect x="576.00" y="352.00" width="32.00" height="16.00" fill="#fbfdfe" />
<rect x="768.00" y="352.00" width="96.00" height="32.00" fill="#fbfdfe" />
<rect x="1216.00" y="352.00" width="32.00" height="80.00" fill="#fbfdfe" />
<rect x="48.00" y="368.00" width="64.00" height="32.00" fill="#fbfdfe" />
<rect x="208.00" y="368.00" width="16.00" height="336.00" fill="#fbfdfe" />
<rect x="576.00" y="368.00" width="16.00" height="16.00" fill="#fbfdfe" />
<rect x="992.00" y="368.00" width="64.00" height="16.00" fill="#fbfdfe" />
<rect x="1120.00" y="368.00" width="96.00" height="16.00" fill="#fbfdfe" />
<rect x="1264.00" y="368.00" width="32.00" height="64.00" fill="#fbfdfe" />
<rect x="1152.00" y="384.00" width="64.00" height="48.00" fill="#fbfdfe" />
<rect x="1312.00" y="384.00" width="16.00" height="672.00" fill="#fbfdfe" />
<rect x="48.00" y="400.00" width="48.00" height="64.00" fill="#fbfdfe" />
<rect x="256.00" y="400.00" width="32.00" height="192.00" fill="#fbfdfe" />
<rect x="304.00" y="400.00" width="32.00" height="192.00" fill="#fbfdfe" />
<rect x="448.00" y="400.00" width="112.00" height="16.00" fill="#fbfdfe" />
<rect x="576.00" y="400.00" width="32.00" height="16.00" fill="#fbfdfe" />
<rect x="768.00" y="400.00" width="96.00" height="16.00" fill="#fbfdfe" />
<rect x="992.00" y="400.00" width="64.00" height="16.00" fill="#fbfdfe" />
<rect x="1120.00" y="400.00" width="32.00" height="32.00" fill="#fbfdfe" />
<rect x="416.00" y="416.00" width="48.00" height="16.00" fill="#fbfdfe" />
<rect x="512.00" y="416.00" width="32.00" height="16.00" fill="#fbfdfe" />
<rect x="1088.00" y="416.00" width="16.00" height="32.00" fill="#fbfdfe" />
<rect x="400.00" y="432.00" width="32.00" height="16.00" fill="#fbfdfe" />
<rect x="496.00" y="432.00" width="32.00" height="16.00" fill="#fbfdfe" />
<rect x="1056.00" y="432.00" width="32.00" height="16.00" fill="#fbfdfe" />
<rect x="1136.00" y="432.00" width="48.00" height="16.00" fill="#fbfdfe" />
<rect x="1216.00" y="432.00" width="16.00" height="144.00" fill="#fbfdfe" />
<rect x="384.00" y="448.00" width="32.00" height="16.00" fill="#fbfdfe" />
<rect x="496.00" y="448.00" width="16.00" height="32.00" fill="#fbfdfe" />
<rect x="1040.00" y="448.00" width="32.00" height="16.00" fill="#fbfdfe" />
<rect x="1120.00" y="448.00" width="48.00" height="16.00" fill="#fbfdfe" />
<rect x="64.00" y="464.00" width="16.00" height="976.00" fill="#fbfdfe" />
<rect x="368.00" y="464.00" width="32.00" height="16.00" fill="#fbfdfe" />
<rect x="480.00" y="464.00" width="16.00" height="64.00" fill="#fbfdfe" />
<rect x="1024.00" y="464.00" width="32.00" height="16.00" fill="#fbfdfe" />
<rect x="1104.00" y="464.00" width="32.00" height="16.00" fill="#fbfdfe" />
<rect x="1152.00" y="464.00" width="48.00" height="16.00" fill="#fbfdfe" />
<rect x="368.00" y="480.00" width="16.00" height="32.00" fill="#fbfdfe" />
<rect x="448.00" y="480.00" width="32.00" height="32.00" fill="#fbfdfe" />
<rect x="1024.00" y="480.00" width="16.00" height="32.00" fill="#fbfdfe" />
<rect x="1104.00" y="480.00" width="16.00" height="32.00" fill="#fbfdfe" />
<rect x="1184.00" y="480.00" width="32.00" height="16.00" fill="#fbfdfe" />
<rect x="336.00" y="496.00" width="32.00" height="32.00" fill="#fbfdfe" />
<rect x="384.00" y="496.00" width="64.00" height="16.00" fill="#fbfdfe" />
<rect x="992.00" y="496.00" width="32.00" height="16.00" fill="#fbfdfe" />
<rect x="1072.00" y="496.00" width="32.00" height="16.00" fill="#fbfdfe" />
<rect x="1200.00" y="496.00" width="16.00" height="16.00" fill="#fbfdfe" />
<rect x="432.00" y="512.00" width="16.00" height="32.00" fill="#fbfdfe" />
<rect x="496.00" y="512.00" width="16.00" height="32.00" fill="#fbfdfe" />
<rect x="992.00" y="512.00" width="16.00" height="32.00" fill="#fbfdfe" />
<rect x="1072.00" y="512.00" width="16.00" height="32.00" fill="#fbfdfe" />
<rect x="336.00" y="528.00" width="16.00" height="32.00" fill="#fbfdfe" />
<rect x="416.00" y="528.00" width="16.00" height="576.00" fill="#fbfdfe" />
<rect x="512.00" y="528.00" width="32.00" height="16.00" fill="#fbfdfe" />
<rect x="960.00" y="528.00" width="32.00" height="16.00" fill="#fbfdfe" />
<rect x="1056.00" y="528.00" width="16.00" height="48.00" fill="#fbfdfe" />
<rect x="1152.00" y="528.00" width="48.00" height="64.00" fill="#fbfdfe" />
<rect x="1232.00" y="528.00" width="16.00" height="32.00" fill="#fbfdfe" />
<rect x="352.00" y="544.00" width="16.00" height="48.00" fill="#fbfdfe" />
<rect x="528.00" y="544.00" width="16.00" height="32.00" fill="#fbfdfe" />
<rect x="960.00" y="544.00" width="16.00" height="32.00" fill="#fbfdfe" />
<rect x="1040.00" y="544.00" width="16.00" height="832.00" fill="#fbfdfe" />
<rect x="1248.00" y="544.00" width="16.00" height="32.00" fill="#fbfdfe" />
<rect x="544.00" y="560.00" width="16.00" height="32.00" fill="#fbfdfe" />
<rect x="576.00" y="560.00" width="352.00" height="16.00" fill="#fbfdfe" />
<rect x="944.00" y="560.00" width="16.00" height="32.00" fill="#fbfdfe" />
<rect x="976.00" y="560.00" width="64.00" height="16.00" fill="#fbfdfe" />
<rect x="1072.00" y="560.00" width="80.00" height="16.00" fill="#fbfdfe" />
<rect x="1200.00" y="560.00" width="16.00" height="16.00" fill="#fbfdfe" />
<rect x="1264.00" y="560.00" width="32.00" height="16.00" fill="#fbfdfe" />
<rect x="368.00" y="576.00" width="32.00" height="16.00" fill="#fbfdfe" />
<rect x="576.00" y="576.00" width="16.00" height="32.00" fill="#fbfdfe" />
<rect x="912.00" y="576.00" width="16.00" height="32.00" fill="#fbfdfe" />
<rect x="1280.00" y="576.00" width="16.00" height="96.00" fill="#fbfdfe" />
<rect x="240.00" y="592.00" width="32.00" height="112.00" fill="#fbfdfe" />
<rect x="384.00" y="592.00" width="32.00" height="16.00" fill="#fbfdfe" />
<rect x="592.00" y="592.00" width="16.00" height="48.00" fill="#fbfdfe" />
<rect x="896.00" y="592.00" width="16.00" height="48.00" fill="#fbfdfe" />
<rect x="1264.00" y="592.00" width="16.00" height="80.00" fill="#fbfdfe" />
<rect x="1296.00" y="592.00" width="16.00" height="80.00" fill="#fbfdfe" />
<rect x="1328.00" y="592.00" width="80.00" height="80.00" fill="#fbfdfe" />
<rect x="144.00" y="608.00" width="64.00" height="96.00" fill="#fbfdfe" />
<rect x="224.00" y="608.00" width="16.00" height="96.00" fill="#fbfdfe" />
<rect x="400.00" y="608.00" width="16.00" height="32.00" fill="#fbfdfe" />
<rect x="432.00" y="608.00" width="128.00" height="160.00" fill="#fbfdfe" />
<rect x="608.00" y="608.00" width="16.00" height="32.00" fill="#fbfdfe" />
<rect x="880.00" y="608.00" width="16.00" height="48.00" fill="#fbfdfe" />
<rect x="576.00" y="624.00" width="16.00" height="16.00" fill="#fbfdfe" />
<rect x="624.00" y="624.00" width="256.00" height="16.00" fill="#fbfdfe" />
<rect x="912.00" y="624.00" width="16.00" height="16.00" fill="#fbfdfe" />
<rect x="944.00" y="624.00" width="96.00" height="16.00" fill="#fbfdfe" />
<rect x="1056.00" y="624.00" width="208.00" height="16.00" fill="#fbfdfe" />
<rect x="624.00" y="640.00" width="16.00" height="32.00" fill="#fbfdfe" />
<rect x="864.00" y="640.00" width="16.00" height="96.00" fill="#fbfdfe" />
<rect x="640.00" y="656.00" width="32.00" height="16.00" fill="#fbfdfe" />
<rect x="832.00" y="656.00" width="32.00" height="80.00" fill="#fbfdfe" />
<rect x="656.00" y="672.00" width="16.00" height="48.00" fill="#fbfdfe" />
<rect x="704.00" y="672.00" width="128.00" height="64.00" fill="#fbfdfe" />
<rect x="880.00" y="672.00" width="32.00" height="64.00" fill="#fbfdfe" />
<rect x="80.00" y="688.00" width="64.00" height="16.00" fill="#fbfdfe" />
<rect x="272.00" y="688.00" width="144.00" height="16.00" fill="#fbfdfe" />
<rect x="672.00" y="688.00" width="32.00" height="32.00" fill="#fbfdfe" />
<rect x="576.00" y="704.00" width="80.00" height="16.00" fill="#fbfdfe" />
<rect x="704.00" y="736.00" width="32.00" height="16.00" fill="#fbfdfe" />
<rect x="752.00" y="736.00" width="64.00" height="16.00" fill="#fbfdfe" />
<rect x="720.00" y="752.00" width="48.00" height="16.00" fill="#fbfdfe" />
<rect x="800.00" y="752.00" width="16.00" height="672.00" fill="#fbfdfe" />
<rect x="1232.00" y="752.00" width="80.00" height="176.00" fill="#fbfdfe" />
<rect x="1328.00" y="752.00" width="80.00" height="176.00" fill="#fbfdfe" />
<rect x="496.00" y="768.00" width="16.00" height="336.00" fill="#fbfdfe" />
<rect x="736.00" y="768.00" width="32.00" height="32.00" fill="#fbfdfe" />
<rect x="576.00" y="784.00" width="160.00" height="128.00" fill="#fbfdfe" />
<rect x="768.00" y="784.00" width="16.00" height="32.00" fill="#fbfdfe" />
<rect x="736.00" y="800.00" width="16.00" height="112.00" fill="#fbfdfe" />
<rect x="784.00" y="800.00" width="16.00" height="48.00" fill="#fbfdfe" />
<rect x="816.00" y="816.00" width="16.00" height="32.00" fill="#fbfdfe" />
<rect x="432.00" y="832.00" width="64.00" height="32.00" fill="#fbfdfe" />
<rect x="512.00" y="832.00" width="48.00" height="32.00" fill="#fbfdfe" />
<rect x="752.00" y="832.00" width="32.00" height="16.00" fill="#fbfdfe" />
<rect x="832.00" y="832.00" width="96.00" height="16.00" fill="#fbfdfe" />
<rect x="944.00" y="832.00" width="96.00" height="16.00" fill="#fbfdfe" />
<rect x="1056.00" y="832.00" width="176.00" height="16.00" fill="#fbfdfe" />
<rect x="832.00" y="848.00" width="16.00" height="32.00" fill="#fbfdfe" />
<rect x="848.00" y="864.00" width="32.00" height="16.00" fill="#fbfdfe" />
<rect x="384.00" y="880.00" width="32.00" height="128.00" fill="#fbfdfe" />
<rect x="432.00" y="880.00" width="16.00" height="128.00" fill="#fbfdfe" />
<rect x="864.00" y="880.00" width="32.00" height="16.00" fill="#fbfdfe" />
<rect x="368.00" y="896.00" width="16.00" height="96.00" fill="#fbfdfe" />
<rect x="448.00" y="896.00" width="16.00" height="96.00" fill="#fbfdfe" />
<rect x="880.00" y="896.00" width="48.00" height="16.00" fill="#fbfdfe" />
<rect x="352.00" y="912.00" width="16.00" height="64.00" fill="#fbfdfe" />
<rect x="464.00" y="912.00" width="16.00" height="64.00" fill="#fbfdfe" />
<rect x="896.00" y="912.00" width="32.00" height="48.00" fill="#fbfdfe" />
<rect x="880.00" y="928.00" width="16.00" height="32.00" fill="#fbfdfe" />
<rect x="480.00" y="944.00" width="16.00" height="16.00" fill="#fbfdfe" />
<rect x="512.00" y="944.00" width="48.00" height="16.00" fill="#fbfdfe" />
<rect x="576.00" y="944.00" width="224.00" height="16.00" fill="#fbfdfe" />
<rect x="816.00" y="944.00" width="64.00" height="160.00" fill="#fbfdfe" />
<rect x="944.00" y="944.00" width="96.00" height="16.00" fill="#fbfdfe" />
<rect x="736.00" y="960.00" width="64.00" height="160.00" fill="#fbfdfe" />
<rect x="944.00" y="960.00" width="16.00" height="32.00" fill="#fbfdfe" />
<rect x="720.00" y="976.00" width="16.00" height="128.00" fill="#fbfdfe" />
<rect x="960.00" y="976.00" width="32.00" height="16.00" fill="#fbfdfe" />
<rect x="704.00" y="992.00" width="16.00" height="144.00" fill="#fbfdfe" />
<rect x="880.00" y="992.00" width="16.00" height="96.00" fill="#fbfdfe" />
<rect x="976.00" y="992.00" width="16.00" height="32.00" fill="#fbfdfe" />
<rect x="992.00" y="1008.00" width="32.00" height="16.00" fill="#fbfdfe" />
<rect x="320.00" y="1024.00" width="96.00" height="80.00" fill="#fbfdfe" />
<rect x="432.00" y="1024.00" width="64.00" height="80.00" fill="#fbfdfe" />
<rect x="1008.00" y="1024.00" width="32.00" height="48.00" fill="#fbfdfe" />
<rect x="1328.00" y="1024.00" width="80.00" height="192.00" fill="#fbfdfe" />
<rect x="896.00" y="1040.00" width="32.00" height="32.00" fill="#fbfdfe" />
<rect x="944.00" y="1040.00" width="64.00" height="32.00" fill="#fbfdfe" />
<rect x="1056.00" y="1040.00" width="256.00" height="16.00" fill="#fbfdfe" />
<rect x="512.00" y="1056.00" width="48.00" height="16.00" fill="#fbfdfe" />
<rect x="576.00" y="1056.00" width="128.00" height="16.00" fill="#fbfdfe" />
<rect x="1056.00" y="1056.00" width="16.00" height="48.00" fill="#fbfdfe" />
<rect x="512.00" y="1088.00" width="16.00" height="32.00" fill="#fbfdfe" />
<rect x="1072.00" y="1088.00" width="32.00" height="224.00" fill="#fbfdfe" />
<rect x="528.00" y="1104.00" width="16.00" height="48.00" fill="#fbfdfe" />
<rect x="816.00" y="1104.00" width="48.00" height="16.00" fill="#fbfdfe" />
<rect x="1104.00" y="1104.00" width="64.00" height="208.00" fill="#fbfdfe" />
<rect x="672.00" y="1120.00" width="32.00" height="16.00" fill="#fbfdfe" />
<rect x="752.00" y="1120.00" width="48.00" height="16.00" fill="#fbfdfe" />
<rect x="816.00" y="1120.00" width="32.00" height="32.00" fill="#fbfdfe" />
<rect x="1056.00" y="1120.00" width="16.00" height="176.00" fill="#fbfdfe" />
<rect x="1168.00" y="1120.00" width="16.00" height="176.00" fill="#fbfdfe" />
<rect x="544.00" y="1136.00" width="16.00" height="32.00" fill="#fbfdfe" />
<rect x="656.00" y="1136.00" width="32.00" height="16.00" fill="#fbfdfe" />
<rect x="848.00" y="1136.00" width="16.00" height="32.00" fill="#fbfdfe" />
<rect x="1184.00" y="1136.00" width="16.00" height="144.00" fill="#fbfdfe" />
<rect x="576.00" y="1152.00" width="16.00" height="160.00" fill="#fbfdfe" />
<rect x="656.00" y="1152.00" width="16.00" height="32.00" fill="#fbfdfe" />
<rect x="864.00" y="1152.00" width="16.00" height="64.00" fill="#fbfdfe" />
<rect x="592.00" y="1168.00" width="16.00" height="144.00" fill="#fbfdfe" />
<rect x="640.00" y="1168.00" width="16.00" height="48.00" fill="#fbfdfe" />
<rect x="496.00" y="1184.00" width="64.00" height="128.00" fill="#fbfdfe" />
<rect x="608.00" y="1184.00" width="32.00" height="64.00" fill="#fbfdfe" />
<rect x="880.00" y="1184.00" width="32.00" height="32.00" fill="#fbfdfe" />
<rect x="80.00" y="1200.00" width="416.00" height="16.00" fill="#fbfdfe" />
<rect x="656.00" y="1200.00" width="144.00" height="16.00" fill="#fbfdfe" />
<rect x="816.00" y="1200.00" width="48.00" height="16.00" fill="#fbfdfe" />
<rect x="912.00" y="1200.00" width="16.00" height="48.00" fill="#fbfdfe" />
<rect x="944.00" y="1200.00" width="96.00" height="16.00" fill="#fbfdfe" />
<rect x="1200.00" y="1200.00" width="128.00" height="16.00" fill="#fbfdfe" />
<rect x="896.00" y="1216.00" width="16.00" height="16.00" fill="#fbfdfe" />
<rect x="1200.00" y="1216.00" width="16.00" height="32.00" fill="#fbfdfe" />
<rect x="48.00" y="1232.00" width="16.00" height="208.00" fill="#fbfdfe" />
<rect x="80.00" y="1232.00" width="80.00" height="208.00" fill="#fbfdfe" />
<rect x="640.00" y="1232.00" width="32.00" height="16.00" fill="#fbfdfe" />
<rect x="944.00" y="1232.00" width="16.00" height="32.00" fill="#fbfdfe" />
<rect x="1216.00" y="1232.00" width="16.00" height="32.00" fill="#fbfdfe" />
<rect x="608.00" y="1248.00" width="16.00" height="64.00" fill="#fbfdfe" />
<rect x="656.00" y="1248.00" width="32.00" height="16.00" fill="#fbfdfe" />
<rect x="960.00" y="1248.00" width="16.00" height="48.00" fill="#fbfdfe" />
<rect x="1232.00" y="1248.00" width="32.00" height="16.00" fill="#fbfdfe" />
<rect x="672.00" y="1264.00" width="16.00" height="32.00" fill="#fbfdfe" />
<rect x="720.00" y="1264.00" width="80.00" height="176.00" fill="#fbfdfe" />
<rect x="1248.00" y="1264.00" width="16.00" height="32.00" fill="#fbfdfe" />
<rect x="688.00" y="1280.00" width="32.00" height="128.00" fill="#fbfdfe" />
<rect x="976.00" y="1280.00" width="16.00" height="32.00" fill="#fbfdfe" />
<rect x="1264.00" y="1280.00" width="112.00" height="128.00" fill="#fbfdfe" />
<rect x="816.00" y="1296.00" width="16.00" height="112.00" fill="#fbfdfe" />
<rect x="992.00" y="1296.00" width="16.00" height="80.00" fill="#fbfdfe" />
<rect x="1376.00" y="1296.00" width="16.00" height="112.00" fill="#fbfdfe" />
<rect x="1008.00" y="1312.00" width="16.00" height="64.00" fill="#fbfdfe" />
<rect x="1248.00" y="1312.00" width="16.00" height="80.00" fill="#fbfdfe" />
<rect x="1392.00" y="1312.00" width="16.00" height="80.00" fill="#fbfdfe" />
<rect x="160.00" y="1328.00" width="528.00" height="16.00" fill="#fbfdfe" />
<rect x="832.00" y="1328.00" width="96.00" height="16.00" fill="#fbfdfe" />
<rect x="944.00" y="1328.00" width="48.00" height="48.00" fill="#fbfdfe" />
<rect x="1024.00" y="1328.00" width="16.00" height="48.00" fill="#fbfdfe" />
<rect x="1056.00" y="1328.00" width="80.00" height="48.00" fill="#fbfdfe" />
<rect x="704.00" y="1408.00" width="16.00" height="16.00" fill="#fbfdfe" />
<rect x="1280.00" y="1408.00" width="96.00" height="16.00" fill="#fbfdfe" />
  </g>
  <g class="grid">
<line x1="0.00" y1="0" x2="0.00" y2="1536.00" />
<line x1="16.00" y1="0" x2="16.00" y2="1536.00" />
<line x1="32.00" y1="0" x2="32.00" y2="1536.00" />
<line x1="48.00" y1="0" x2="48.00" y2="1536.00" />
<line x1="64.00" y1="0" x2="64.00" y2="1536.00" />
<line x1="80.00" y1="0" x2="80.00" y2="1536.00" />
<line x1="96.00" y1="0" x2="96.00" y2="1536.00" />
<line x1="112.00" y1="0" x2="112.00" y2="1536.00" />
<line x1="128.00" y1="0" x2="128.00" y2="1536.00" />
<line x1="144.00" y1="0" x2="144.00" y2="1536.00" />
<line x1="160.00" y1="0" x2="160.00" y2="1536.00" />
<line x1="176.00" y1="0" x2="176.00" y2="1536.00" />
<line x1="192.00" y1="0" x2="192.00" y2="1536.00" />
<line x1="208.00" y1="0" x2="208.00" y2="1536.00" />
<line x1="224.00" y1="0" x2="224.00" y2="1536.00" />
<line x1="240.00" y1="0" x2="240.00" y2="1536.00" />
<line x1="256.00" y1="0" x2="256.00" y2="1536.00" />
<line x1="272.00" y1="0" x2="272.00" y2="1536.00" />
<line x1="288.00" y1="0" x2="288.00" y2="1536.00" />
<line x1="304.00" y1="0" x2="304.00" y2="1536.00" />
<line x1="320.00" y1="0" x2="320.00" y2="1536.00" />
<line x1="336.00" y1="0" x2="336.00" y2="1536.00" />
<line x1="352.00" y1="0" x2="352.00" y2="1536.00" />
<line x1="368.00" y1="0" x2="368.00" y2="1536.00" />
<line x1="384.00" y1="0" x2="384.00" y2="1536.00" />
<line x1="400.00" y1="0" x2="400.00" y2="1536.00" />
<line x1="416.00" y1="0" x2="416.00" y2="1536.00" />
<line x1="432.00" y1="0" x2="432.00" y2="1536.00" />
<line x1="448.00" y1="0" x2="448.00" y2="1536.00" />
<line x1="464.00" y1="0" x2="464.00" y2="1536.00" />
<line x1="480.00" y1="0" x2="480.00" y2="1536.00" />
<line x1="496.00" y1="0" x2="496.00" y2="1536.00" />
<line x1="512.00" y1="0" x2="512.00" y2="1536.00" />
<line x1="528.00" y1="0" x2="528.00" y2="1536.00" />
<line x1="544.00" y1="0" x2="544.00" y2="1536.00" />
<line x1="560.00" y1="0" x2="560.00" y2="1536.00" />
<line x1="576.00" y1="0" x2="576.00" y2="1536.00" />
<line x1="592.00" y1="0" x2="592.00" y2="1536.00" />
<line x1="608.00" y1="0" x2="608.00" y2="1536.00" />
<line x1="624.00" y1="0" x2="624.00" y2="1536.00" />
<line x1="640.00" y1="0" x2="640.00" y2="1536.00" />
<line x1="656.00" y1="0" x2="656.00" y2="1536.00" />
<line x1="672.00" y1="0" x2="672.00" y2="1536.00" />
<line x1="688.00" y1="0" x2="688.00" y2="1536.00" />
<line x1="704.00" y1="0" x2="704.00" y2="1536.00" />
<line x1="720.00" y1="0" x2="720.00" y2="1536.00" />
<line x1="736.00" y1="0" x2="736.00" y2="1536.00" />
<line x1="752.00" y1="0" x2="752.00" y2="1536.00" />
<line x1="768.00" y1="0" x2="768.00" y2="1536.00" />
<line x1="784.00" y1="0" x2="784.00" y2="1536.00" />
<line x1="800.00" y1="0" x2="800.00" y2="1536.00" />
<line x1="816.00" y1="0" x2="816.00" y2="1536.00" />
<line x1="832.00" y1="0" x2="832.00" y2="1536.00" />
<line x1="848.00" y1="0" x2="848.00" y2="1536.00" />
<line x1="864.00" y1="0" x2="864.00" y2="1536.00" />
<line x1="880.00" y1="0" x2="880.00" y2="1536.00" />
<line x1="896.00" y1="0" x2="896.00" y2="1536.00" />
<line x1="912.00" y1="0" x2="912.00" y2="1536.00" />
<line x1="928.00" y1="0" x2="928.00" y2="1536.00" />
<line x1="944.00" y1="0" x2="944.00" y2="1536.00" />
<line x1="960.00" y1="0" x2="960.00" y2="1536.00" />
<line x1="976.00" y1="0" x2="976.00" y2="1536.00" />
<line x1="992.00" y1="0" x2="992.00" y2="1536.00" />
<line x1="1008.00" y1="0" x2="1008.00" y2="1536.00" />
<line x1="1024.00" y1="0" x2="1024.00" y2="1536.00" />
<line x1="1040.00" y1="0" x2="1040.00" y2="1536.00" />
<line x1="1056.00" y1="0" x2="1056.00" y2="1536.00" />
<line x1="1072.00" y1="0" x2="1072.00" y2="1536.00" />
<line x1="1088.00" y1="0" x2="1088.00" y2="1536.00" />
<line x1="1104.00" y1="0" x2="1104.00" y2="1536.00" />
<line x1="1120.00" y1="0" x2="1120.00" y2="1536.00" />
<line x1="1136.00" y1="0" x2="1136.00" y2="1536.00" />
<line x1="1152.00" y1="0" x2="1152.00" y2="1536.00" />
<line x1="1168.00" y1="0" x2="1168.00" y2="1536.00" />
<line x1="1184.00" y1="0" x2="1184.00" y2="1536.00" />
<line x1="1200.00" y1="0" x2="1200.00" y2="1536.00" />
<line x1="1216.00" y1="0" x2="1216.00" y2="1536.00" />
<line x1="1232.00" y1="0" x2="1232.00" y2="1536.00" />
<line x1="1248.00" y1="0" x2="1248.00" y2="1536.00" />
<line x1="1264.00" y1="0" x2="1264.00" y2="1536.00" />
<line x1="1280.00" y1="0" x2="1280.00" y2="1536.00" />
<line x1="1296.00" y1="0" x2="1296.00" y2="1536.00" />
<line x1="1312.00" y1="0" x2="1312.00" y2="1536.00" />
<line x1="1328.00" y1="0" x2="1328.00" y2="1536.00" />
<line x1="1344.00" y1="0" x2="1344.00" y2="1536.00" />
<line x1="1360.00" y1="0" x2="1360.00" y2="1536.00" />
<line x1="1376.00" y1="0" x2="1376.00" y2="1536.00" />
<line x1="1392.00" y1="0" x2="1392.00" y2="1536.00" />
<line x1="1408.00" y1="0" x2="1408.00" y2="1536.00" />
<line x1="1424.00" y1="0" x2="1424.00" y2="1536.00" />
<line x1="1440.00" y1="0" x2="1440.00" y2="1536.00" />
<line x1="0" y1="0.00" x2="1440.00" y2="0.00" />
<line x1="0" y1="16.00" x2="1440.00" y2="16.00" />
<line x1="0" y1="32.00" x2="1440.00" y2="32.00" />
<line x1="0" y1="48.00" x2="1440.00" y2="48.00" />
<line x1="0" y1="64.00" x2="1440.00" y2="64.00" />
<line x1="0" y1="80.00" x2="1440.00" y2="80.00" />
<line x1="0" y1="96.00" x2="1440.00" y2="96.00" />
<line x1="0" y1="112.00" x2="1440.00" y2="112.00" />
<line x1="0" y1="128.00" x2="1440.00" y2="128.00" />
<line x1="0" y1="144.00" x2="1440.00" y2="144.00" />
<line x1="0" y1="160.00" x2="1440.00" y2="160.00" />
<line x1="0" y1="176.00" x2="1440.00" y2="176.00" />
<line x1="0" y1="192.00" x2="1440.00" y2="192.00" />
<line x1="0" y1="208.00" x2="1440.00" y2="208.00" />
<line x1="0" y1="224.00" x2="1440.00" y2="224.00" />
<line x1="0" y1="240.00" x2="1440.00" y2="240.00" />
<line x1="0" y1="256.00" x2="1440.00" y2="256.00" />
<line x1="0" y1="272.00" x2="1440.00" y2="272.00" />
<line x1="0" y1="288.00" x2="1440.00" y2="288.00" />
<line x1="0" y1="304.00" x2="1440.00" y2="304.00" />
<line x1="0" y1="320.00" x2="1440.00" y2="320.00" />
<line x1="0" y1="336.00" x2="1440.00" y2="336.00" />
<line x1="0" y1="352.00" x2="1440.00" y2="352.00" />
<line x1="0" y1="368.00" x2="1440.00" y2="368.00" />
<line x1="0" y1="384.00" x2="1440.00" y2="384.00" />
<line x1="0" y1="400.00" x2="1440.00" y2="400.00" />
<line x1="0" y1="416.00" x2="1440.00" y2="416.00" />
<line x1="0" y1="432.00" x2="1440.00" y2="432.00" />
<line x1="0" y1="448.00" x2="1440.00" y2="448.00" />
<line x1="0" y1="464.00" x2="1440.00" y2="464.00" />
<line x1="0" y1="480.00" x2="1440.00" y2="480.00" />
<line x1="0" y1="496.00" x2="1440.00" y2="496.00" />
<line x1="0" y1="512.00" x2="1440.00" y2="512.00" />
<line x1="0" y1="528.00" x2="1440.00" y2="528.00" />
<line x1="0" y1="544.00" x2="1440.00" y2="544.00" />
<line x1="0" y1="560.00" x2="1440.00" y2="560.00" />
<line x1="0" y1="576.00" x2="1440.00" y2="576.00" />
<line x1="0" y1="592.00" x2="1440.00" y2="592.00" />
<line x1="0" y1="608.00" x2="1440.00" y2="608.00" />
<line x1="0" y1="624.00" x2="1440.00" y2="624.00" />
<line x1="0" y1="640.00" x2="1440.00" y2="640.00" />
<line x1="0" y1="656.00" x2="1440.00" y2="656.00" />
<line x1="0" y1="672.00" x2="1440.00" y2="672.00" />
<line x1="0" y1="688.00" x2="1440.00" y2="688.00" />
<line x1="0" y1="704.00" x2="1440.00" y2="704.00" />
<line x1="0" y1="720.00" x2="1440.00" y2="720.00" />
<line x1="0" y1="736.00" x2="1440.00" y2="736.00" />
<line x1="0" y1="752.00" x2="1440.00" y2="752.00" />
<line x1="0" y1="768.00" x2="1440.00" y2="768.00" />
<line x1="0" y1="784.00" x2="1440.00" y2="784.00" />
<line x1="0" y1="800.00" x2="1440.00" y2="800.00" />
<line x1="0" y1="816.00" x2="1440.00" y2="816.00" />
<line x1="0" y1="832.00" x2="1440.00" y2="832.00" />
<line x1="0" y1="848.00" x2="1440.00" y2="848.00" />
<line x1="0" y1="864.00" x2="1440.00" y2="864.00" />
<line x1="0" y1="880.00" x2="1440.00" y2="880.00" />
<line x1="0" y1="896.00" x2="1440.00" y2="896.00" />
<line x1="0" y1="912.00" x2="1440.00" y2="912.00" />
<line x1="0" y1="928.00" x2="1440.00" y2="928.00" />
<line x1="0" y1="944.00" x2="1440.00" y2="944.00" />
<line x1="0" y1="960.00" x2="1440.00" y2="960.00" />
<line x1="0" y1="976.00" x2="1440.00" y2="976.00" />
<line x1="0" y1="992.00" x2="1440.00" y2="992.00" />
<line x1="0" y1="1008.00" x2="1440.00" y2="1008.00" />
<line x1="0" y1="1024.00" x2="1440.00" y2="1024.00" />
<line x1="0" y1="1040.00" x2="1440.00" y2="1040.00" />
<line x1="0" y1="1056.00" x2="1440.00" y2="1056.00" />
<line x1="0" y1="1072.00" x2="1440.00" y2="1072.00" />
<line x1="0" y1="1088.00" x2="1440.00" y2="1088.00" />
<line x1="0" y1="1104.00" x2="1440.00" y2="1104.00" />
<line x1="0" y1="1120.00" x2="1440.00" y2="1120.00" />
<line x1="0" y1="1136.00" x2="1440.00" y2="1136.00" />
<line x1="0" y1="1152.00" x2="1440.00" y2="1152.00" />
<line x1="0" y1="1168.00" x2="1440.00" y2="1168.00" />
<line x1="0" y1="1184.00" x2="1440.00" y2="1184.00" />
<line x1="0" y1="1200.00" x2="1440.00" y2="1200.00" />
<line x1="0" y1="1216.00" x2="1440.00" y2="1216.00" />
<line x1="0" y1="1232.00" x2="1440.00" y2="1232.00" />
<line x1="0" y1="1248.00" x2="1440.00" y2="1248.00" />
<line x1="0" y1="1264.00" x2="1440.00" y2="1264.00" />
<line x1="0" y1="1280.00" x2="1440.00" y2="1280.00" />
<line x1="0" y1="1296.00" x2="1440.00" y2="1296.00" />
<line x1="0" y1="1312.00" x2="1440.00" y2="1312.00" />
<line x1="0" y1="1328.00" x2="1440.00" y2="1328.00" />
<line x1="0" y1="1344.00" x2="1440.00" y2="1344.00" />
<line x1="0" y1="1360.00" x2="1440.00" y2="1360.00" />
<line x1="0" y1="1376.00" x2="1440.00" y2="1376.00" />
<line x1="0" y1="1392.00" x2="1440.00" y2="1392.00" />
<line x1="0" y1="1408.00" x2="1440.00" y2="1408.00" />
<line x1="0" y1="1424.00" x2="1440.00" y2="1424.00" />
<line x1="0" y1="1440.00" x2="1440.00" y2="1440.00" />
<line x1="0" y1="1456.00" x2="1440.00" y2="1456.00" />
<line x1="0" y1="1472.00" x2="1440.00" y2="1472.00" />
<line x1="0" y1="1488.00" x2="1440.00" y2="1488.00" />
<line x1="0" y1="1504.00" x2="1440.00" y2="1504.00" />
<line x1="0" y1="1520.00" x2="1440.00" y2="1520.00" />
<line x1="0" y1="1536.00" x2="1440.00" y2="1536.00" />
  </g>
  <g class="walls">
<line x1="96.00" y1="48.00" x2="160.00" y2="48.00" />
<line x1="656.00" y1="112.00" x2="848.00" y2="112.00" />
<line x1="160.00" y1="128.00" x2="656.00" y2="128.00" />
<line x1="160.00" y1="144.00" x2="288.00" y2="144.00" />
<line x1="304.00" y1="144.00" x2="560.00" y2="144.00" />
<line x1="576.00" y1="144.00" x2="656.00" y2="144.00" />
<line x1="912.00" y1="160.00" x2="960.00" y2="160.00" />
<line x1="272.00" y1="176.00" x2="288.00" y2="176.00" />
<line x1="304.00" y1="176.00" x2="560.00" y2="176.00" />
<line x1="576.00" y1="176.00" x2="656.00" y2="176.00" />
<line x1="848.00" y1="176.00" x2="912.00" y2="176.00" />
<line x1="1296.00" y1="176.00" x2="1328.00" y2="176.00" />
<line x1="304.00" y1="192.00" x2="560.00" y2="192.00" />
<line x1="576.00" y1="192.00" x2="656.00" y2="192.00" />
<line x1="848.00" y1="192.00" x2="912.00" y2="192.00" />
<line x1="1264.00" y1="192.00" x2="1296.00" y2="192.00" />
<line x1="1328.00" y1="192.00" x2="1360.00" y2="192.00" />
<line x1="256.00" y1="208.00" x2="272.00" y2="208.00" />
<line x1="912.00" y1="208.00" x2="928.00" y2="208.00" />
<line x1="944.00" y1="208.00" x2="960.00" y2="208.00" />
<line x1="1056.00" y1="208.00" x2="1120.00" y2="208.00" />
<line x1="96.00" y1="224.00" x2="160.00" y2="224.00" />
<line x1="240.00" y1="224.00" x2="256.00" y2="224.00" />
<line x1="272.00" y1="224.00" x2="288.00" y2="224.00" />
<line x1="1248.00" y1="224.00" x2="1264.00" y2="224.00" />
<line x1="1360.00" y1="224.00" x2="1376.00" y2="224.00" />
<line x1="208.00" y1="240.00" x2="240.00" y2="240.00" />
<line x1="256.00" y1="240.00" x2="272.00" y2="240.00" />
<line x1="192.00" y1="256.00" x2="208.00" y2="256.00" />
<line x1="224.00" y1="256.00" x2="256.00" y2="256.00" />
<line x1="176.00" y1="272.00" x2="192.00" y2="272.00" />
<line x1="208.00" y1="272.00" x2="224.00" y2="272.00" />
<line x1="688.00" y1="272.00" x2="848.00" y2="272.00" />
<line x1="160.00" y1="288.00" x2="176.00" y2="288.00" />
<line x1="192.00" y1="288.00" x2="208.00" y2="288.00" />
<line x1="608.00" y1="288.00" x2="656.00" y2="288.00" />
<line x1="688.00" y1="288.00" x2="768.00" y2="288.00" />
<line x1="864.00" y1="288.00" x2="928.00" y2="288.00" />
<line x1="944.00" y1="288.00" x2="992.00" y2="288.00" />
<line x1="144.00" y1="304.00" x2="160.00" y2="304.00" />
<line x1="176.00" y1="304.00" x2="192.00" y2="304.00" />
<line x1="1120.00" y1="304.00" x2="1248.00" y2="304.00" />
<line x1="128.00" y1="320.00" x2="144.00" y2="320.00" />
<line x1="160.00" y1="320.00" x2="176.00" y2="320.00" />
<line x1="1120.00" y1="320.00" x2="1248.00" y2="320.00" />
<line x1="1360.00" y1="320.00" x2="1376.00" y2="320.00" />
<line x1="144.00" y1="336.00" x2="160.00" y2="336.00" />
<line x1="48.00" y1="352.00" x2="128.00" y2="352.00" />
<line x1="208.00" y1="352.00" x2="288.00" y2="352.00" />
<line x1="304.00" y1="352.00" x2="560.00" y2="352.00" />
<line x1="576.00" y1="352.00" x2="608.00" y2="352.00" />
<line x1="768.00" y1="352.00" x2="864.00" y2="352.00" />
<line x1="1216.00" y1="352.00" x2="1248.00" y2="352.00" />
<line x1="1264.00" y1="352.00" x2="1296.00" y2="352.00" />
<line x1="1328.00" y1="352.00" x2="1360.00" y2="352.00" />
<line x1="112.00" y1="368.00" x2="144.00" y2="368.00" />
<line x1="224.00" y1="368.00" x2="288.00" y2="368.00" />
<line x1="304.00" y1="368.00" x2="560.00" y2="368.00" />
<line x1="592.00" y1="368.00" x2="608.00" y2="368.00" />
<line x1="992.00" y1="368.00" x2="1056.00" y2="368.00" />
<line x1="1120.00" y1="368.00" x2="1216.00" y2="368.00" />
<line x1="1264.00" y1="368.00" x2="1296.00" y2="368.00" />
<line x1="576.00" y1="384.00" x2="592.00" y2="384.00" />
<line x1="768.00" y1="384.00" x2="864.00" y2="384.00" />
<line x1="992.00" y1="384.00" x2="1056.00" y2="384.00" />
<line x1="1120.00" y1="384.00" x2="1152.00" y2="384.00" />
<line x1="1296.00" y1="384.00" x2="1312.00" y2="384.00" />
<line x1="96.00" y1="400.00" x2="112.00" y2="400.00" />
<line x1="256.00" y1="400.00" x2="288.00" y2="400.00" />
<line x1="304.00" y1="400.00" x2="336.00" y2="400.00" />
<line x1="448.00" y1="400.00" x2="560.00" y2="400.00" />
<line x1="576.00" y1="400.00" x2="608.00" y2="400.00" />
<line x1="768.00" y1="400.00" x2="864.00" y2="400.00" />
<line x1="992.00" y1="400.00" x2="1056.00" y2="400.00" />
<line x1="1120.00" y1="400.00" x2="1152.00" y2="400.00" />
<line x1="416.00" y1="416.00" x2="448.00" y2="416.00" />
<line x1="464.00" y1="416.00" x2="512.00" y2="416.00" />
<line x1="544.00" y1="416.00" x2="560.00" y2="416.00" />
<line x1="576.00" y1="416.00" x2="608.00" y2="416.00" />
<line x1="768.00" y1="416.00" x2="864.00" y2="416.00" />
<line x1="992.00" y1="416.00" x2="1088.00" y2="416.00" />
<line x1="1104.00" y1="416.00" x2="1120.00" y2="416.00" />
<line x1="400.00" y1="432.00" x2="416.00" y2="432.00" />
<line x1="432.00" y1="432.00" x2="464.00" y2="432.00" />
<line x1="496.00" y1="432.00" x2="512.00" y2="432.00" />
<line x1="528.00" y1="432.00" x2="544.00" y2="432.00" />
<line x1="864.00" y1="432.00" x2="928.00" y2="432.00" />
<line x1="944.00" y1="432.00" x2="992.00" y2="432.00" />
<line x1="1056.00" y1="432.00" x2="1088.00" y2="432.00" />
<line x1="1120.00" y1="432.00" x2="1136.00" y2="432.00" />
<line x1="1184.00" y1="432.00" x2="1216.00" y2="432.00" />
<line x1="1232.00" y1="432.00" x2="1296.00" y2="432.00" />
<line x1="384.00" y1="448.00" x2="400.00" y2="448.00" />
<line x1="416.00" y1="448.00" x2="432.00" y2="448.00" />
<line x1="512.00" y1="448.00" x2="528.00" y2="448.00" />
<line x1="608.00" y1="448.00" x2="768.00" y2="448.00" />
<line x1="1040.00" y1="448.00" x2="1056.00" y2="448.00" />
<line x1="1072.00" y1="448.00" x2="1104.00" y2="448.00" />
<line x1="1120.00" y1="448.00" x2="1136.00" y2="448.00" />
<line x1="1168.00" y1="448.00" x2="1184.00" y2="448.00" />
<line x1="48.00" y1="464.00" x2="64.00" y2="464.00" />
<line x1="80.00" y1="464.00" x2="96.00" y2="464.00" />
<line x1="368.00" y1="464.00" x2="384.00" y2="464.00" />
<line x1="400.00" y1="464.00" x2="416.00" y2="464.00" />
<line x1="480.00" y1="464.00" x2="496.00" y2="464.00" />
<line x1="1024.00" y1="464.00" x2="1040.00" y2="464.00" />
<line x1="1056.00" y1="464.00" x2="1072.00" y2="464.00" />
<line x1="1104.00" y1="464.00" x2="1120.00" y2="464.00" />
<line x1="1136.00" y1="464.00" x2="1152.00" y2="464.00" />
<line x1="1168.00" y1="464.00" x2="1200.00" y2="464.00" />
<line x1="384.00" y1="480.00" x2="400.00" y2="480.00" />
<line x1="448.00" y1="480.00" x2="480.00" y2="480.00" />
<line x1="496.00" y1="480.00" x2="512.00" y2="480.00" />
<line x1="1040.00" y1="480.00" x2="1056.00" y2="480.00" />
<line x1="1120.00" y1="480.00" x2="1136.00" y2="480.00" />
<line x1="1152.00" y1="480.00" x2="1184.00" y2="480.00" />
<line x1="1200.00" y1="480.00" x2="1216.00" y2="480.00" />
<line x1="336.00" y1="496.00" x2="368.00" y2="496.00" />
<line x1="384.00" y1="496.00" x2="448.00" y2="496.00" />
<line x1="992.00" y1="496.00" x2="1024.00" y2="496.00" />
<line x1="1072.00" y1="496.00" x2="1104.00" y2="496.00" />
<line x1="1184.00" y1="496.00" x2="1200.00" y2="496.00" />
<line x1="368.00" y1="512.00" x2="432.00" y2="512.00" />
<line x1="448.00" y1="512.00" x2="480.00" y2="512.00" />
<line x1="496.00" y1="512.00" x2="512.00" y2="512.00" />
<line x1="1008.00" y1="512.00" x2="1040.00" y2="512.00" />
<line x1="1088.00" y1="512.00" x2="1120.00" y2="512.00" />
<line x1="1200.00" y1="512.00" x2="1216.00" y2="512.00" />
<line x1="352.00" y1="528.00" x2="368.00" y2="528.00" />
<line x1="416.00" y1="528.00" x2="432.00" y2="528.00" />
<line x1="480.00" y1="528.00" x2="496.00" y2="528.00" />
<line x1="512.00" y1="528.00" x2="544.00" y2="528.00" />
<line x1="960.00" y1="528.00" x2="992.00" y2="528.00" />
<line x1="1056.00" y1="528.00" x2="1072.00" y2="528.00" />
<line x1="1152.00" y1="528.00" x2="1200.00" y2="528.00" />
<line x1="1232.00" y1="528.00" x2="1248.00" y2="528.00" />
<line x1="352.00" y1="544.00" x2="368.00" y2="544.00" />
<line x1="432.00" y1="544.00" x2="448.00" y2="544.00" />
<line x1="496.00" y1="544.00" x2="528.00" y2="544.00" />
<line x1="976.00" y1="544.00" x2="1008.00" y2="544.00" />
<line x1="1040.00" y1="544.00" x2="1056.00" y2="544.00" />
<line x1="1072.00" y1="544.00" x2="1088.00" y2="544.00" />
<line x1="1248.00" y1="544.00" x2="1264.00" y2="544.00" />
<line x1="336.00" y1="560.00" x2="352.00" y2="560.00" />
<line x1="544.00" y1="560.00" x2="560.00" y2="560.00" />
<line x1="576.00" y1="560.00" x2="928.00" y2="560.00" />
<line x1="944.00" y1="560.00" x2="960.00" y2="560.00" />
<line x1="976.00" y1="560.00" x2="1040.00" y2="560.00" />
<line x1="1072.00" y1="560.00" x2="1152.00" y2="560.00" />
<line x1="1200.00" y1="560.00" x2="1216.00" y2="560.00" />
<line x1="1232.00" y1="560.00" x2="1248.00" y2="560.00" />
<line x1="1264.00" y1="560.00" x2="1296.00" y2="560.00" />
<line x1="368.00" y1="576.00" x2="400.00" y2="576.00" />
<line x1="528.00" y1="576.00" x2="544.00" y2="576.00" />
<line x1="592.00" y1="576.00" x2="912.00" y2="576.00" />
<line x1="960.00" y1="576.00" x2="1040.00" y2="576.00" />
<line x1="1056.00" y1="576.00" x2="1152.00" y2="576.00" />
<line x1="1200.00" y1="576.00" x2="1232.00" y2="576.00" />
<line x1="1248.00" y1="576.00" x2="1280.00" y2="576.00" />
<line x1="240.00" y1="592.00" x2="256.00" y2="592.00" />
<line x1="272.00" y1="592.00" x2="336.00" y2="592.00" />
<line x1="352.00" y1="592.00" x2="384.00" y2="592.00" />
<line x1="400.00" y1="592.00" x2="416.00" y2="592.00" />
<line x1="544.00" y1="592.00" x2="560.00" y2="592.00" />
<line x1="592.00" y1="592.00" x2="608.00" y2="592.00" />
<line x1="896.00" y1="592.00" x2="912.00" y2="592.00" />
<line x1="944.00" y1="592.00" x2="960.00" y2="592.00" />
<line x1="1152.00" y1="592.00" x2="1200.00" y2="592.00" />
<line x1="1264.00" y1="592.00" x2="1280.00" y2="592.00" />
<line x1="1296.00" y1="592.00" x2="1312.00" y2="592.00" />
<line x1="1328.00" y1="592.00" x2="1408.00" y2="592.00" />
<line x1="144.00" y1="608.00" x2="208.00" y2="608.00" />
<line x1="224.00" y1="608.00" x2="240.00" y2="608.00" />
<line x1="384.00" y1="608.00" x2="400.00" y2="608.00" />
<line x1="432.00" y1="608.00" x2="560.00" y2="608.00" />
<line x1="576.00" y1="608.00" x2="592.00" y2="608.00" />
<line x1="608.00" y1="608.00" x2="624.00" y2="608.00" />
<line x1="880.00" y1="608.00" x2="896.00" y2="608.00" />
<line x1="912.00" y1="608.00" x2="928.00" y2="608.00" />
<line x1="400.00" y1="640.00" x2="416.00" y2="640.00" />
<line x1="576.00" y1="640.00" x2="624.00" y2="640.00" />
<line x1="640.00" y1="640.00" x2="864.00" y2="640.00" />
<line x1="896.00" y1="640.00" x2="928.00" y2="640.00" />
<line x1="944.00" y1="640.00" x2="1040.00" y2="640.00" />
<line x1="1056.00" y1="640.00" x2="1264.00" y2="640.00" />
<line x1="576.00" y1="624.00" x2="592.00" y2="624.00" />
<line x1="624.00" y1="624.00" x2="880.00" y2="624.00" />
<line x1="912.00" y1="624.00" x2="928.00" y2="624.00" />
<line x1="944.00" y1="624.00" x2="1040.00" y2="624.00" />
<line x1="1056.00" y1="624.00" x2="1264.00" y2="624.00" />
<line x1="640.00" y1="656.00" x2="672.00" y2="656.00" />
<line x1="832.00" y1="656.00" x2="864.00" y2="656.00" />
<line x1="880.00" y1="656.00" x2="896.00" y2="656.00" />
<line x1="624.00" y1="672.00" x2="656.00" y2="672.00" />
<line x1="704.00" y1="672.00" x2="832.00" y2="672.00" />
<line x1="880.00" y1="672.00" x2="912.00" y2="672.00" />
<line x1="1264.00" y1="672.00" x2="1312.00" y2="672.00" />
<line x1="1328.00" y1="672.00" x2="1408.00" y2="672.00" />
<line x1="80.00" y1="688.00" x2="144.00" y2="688.00" />
<line x1="272.00" y1="688.00" x2="416.00" y2="688.00" />
<line x1="672.00" y1="688.00" x2="704.00" y2="688.00" />
<line x1="80.00" y1="704.00" x2="416.00" y2="704.00" />
<line x1="576.00" y1="704.00" x2="656.00" y2="704.00" />
<line x1="576.00" y1="720.00" x2="704.00" y2="720.00" />
<line x1="736.00" y1="736.00" x2="752.00" y2="736.00" />
<line x1="816.00" y1="736.00" x2="912.00" y2="736.00" />
<line x1="704.00" y1="752.00" x2="720.00" y2="752.00" />
<line x1="736.00" y1="752.00" x2="752.00" y2="752.00" />
<line x1="768.00" y1="752.00" x2="800.00" y2="752.00" />
<line x1="1232.00" y1="752.00" x2="1312.00" y2="752.00" />
<line x1="1328.00" y1="752.00" x2="1408.00" y2="752.00" />
<line x1="432.00" y1="768.00" x2="496.00" y2="768.00" />
<line x1="512.00" y1="768.00" x2="560.00" y2="768.00" />
<line x1="720.00" y1="768.00" x2="736.00" y2="768.00" />
<line x1="576.00" y1="784.00" x2="736.00" y2="784.00" />
<line x1="768.00" y1="784.00" x2="784.00" y2="784.00" />
<line x1="752.00" y1="800.00" x2="768.00" y2="800.00" />
<line x1="784.00" y1="800.00" x2="800.00" y2="800.00" />
<line x1="768.00" y1="816.00" x2="784.00" y2="816.00" />
<line x1="816.00" y1="816.00" x2="832.00" y2="816.00" />
<line x1="432.00" y1="832.00" x2="496.00" y2="832.00" />
<line x1="512.00" y1="832.00" x2="560.00" y2="832.00" />
<line x1="752.00" y1="832.00" x2="784.00" y2="832.00" />
<line x1="832.00" y1="832.00" x2="928.00" y2="832.00" />
<line x1="944.00" y1="832.00" x2="1040.00" y2="832.00" />
<line x1="1056.00" y1="832.00" x2="1232.00" y2="832.00" />
<line x1="752.00" y1="848.00" x2="800.00" y2="848.00" />
<line x1="816.00" y1="848.00" x2="832.00" y2="848.00" />
<line x1="848.00" y1="848.00" x2="928.00" y2="848.00" />
<line x1="944.00" y1="848.00" x2="1040.00" y2="848.00" />
<line x1="1056.00" y1="848.00" x2="1232.00" y2="848.00" />
<line x1="432.00" y1="864.00" x2="496.00" y2="864.00" />
<line x1="512.00" y1="864.00" x2="560.00" y2="864.00" />
<line x1="848.00" y1="864.00" x2="880.00" y2="864.00" />
<line x1="384.00" y1="880.00" x2="416.00" y2="880.00" />
<line x1="432.00" y1="880.00" x2="448.00" y2="880.00" />
<line x1="832.00" y1="880.00" x2="864.00" y2="880.00" />
<line x1="880.00" y1="880.00" x2="896.00" y2="880.00" />
<line x1="368.00" y1="896.00" x2="384.00" y2="896.00" />
<line x1="448.00" y1="896.00" x2="464.00" y2="896.00" />
<line x1="864.00" y1="896.00" x2="880.00" y2="896.00" />
<line x1="896.00" y1="896.00" x2="928.00" y2="896.00" />
<line x1="352.00" y1="912.00" x2="368.00" y2="912.00" />
<line x1="464.00" y1="912.00" x2="480.00" y2="912.00" />
<line x1="576.00" y1="912.00" x2="752.00" y2="912.00" />
<line x1="880.00" y1="912.00" x2="896.00" y2="912.00" />
<line x1="880.00" y1="928.00" x2="896.00" y2="928.00" />
<line x1="1232.00" y1="928.00" x2="1312.00" y2="928.00" />
<line x1="1328.00" y1="928.00" x2="1408.00" y2="928.00" />
<line x1="480.00" y1="944.00" x2="496.00" y2="944.00" />
<line x1="512.00" y1="944.00" x2="560.00" y2="944.00" />
<line x1="576.00" y1="944.00" x2="800.00" y2="944.00" />
<line x1="816.00" y1="944.00" x2="880.00" y2="944.00" />
<line x1="944.00" y1="944.00" x2="1040.00" y2="944.00" />
<line x1="480.00" y1="960.00" x2="496.00" y2="960.00" />
<line x1="512.00" y1="960.00" x2="560.00" y2="960.00" />
<line x1="576.00" y1="960.00" x2="736.00" y2="960.00" />
<line x1="880.00" y1="960.00" x2="928.00" y2="960.00" />
<line x1="960.00" y1="960.00" x2="1040.00" y2="960.00" />
<line x1="352.00" y1="976.00" x2="368.00" y2="976.00" />
<line x1="464.00" y1="976.00" x2="480.00" y2="976.00" />
<line x1="720.00" y1="976.00" x2="736.00" y2="976.00" />
<line x1="960.00" y1="976.00" x2="992.00" y2="976.00" />
<line x1="368.00" y1="992.00" x2="384.00" y2="992.00" />
<line x1="448.00" y1="992.00" x2="464.00" y2="992.00" />
<line x1="704.00" y1="992.00" x2="720.00" y2="992.00" />
<line x1="880.00" y1="992.00" x2="896.00" y2="992.00" />
<line x1="944.00" y1="992.00" x2="976.00" y2="992.00" />
<line x1="384.00" y1="1008.00" x2="416.00" y2="1008.00" />
<line x1="432.00" y1="1008.00" x2="448.00" y2="1008.00" />
<line x1="992.00" y1="1008.00" x2="1024.00" y2="1008.00" />
<line x1="320.00" y1="1024.00" x2="416.00" y2="1024.00" />
<line x1="432.00" y1="1024.00" x2="496.00" y2="1024.00" />
<line x1="976.00" y1="1024.00" x2="1008.00" y2="1024.00" />
<line x1="1024.00" y1="1024.00" x2="1040.00" y2="1024.00" />
<line x1="1328.00" y1="1024.00" x2="1408.00" y2="1024.00" />
<line x1="896.00" y1="1040.00" x2="928.00" y2="1040.00" />
<line x1="944.00" y1="1040.00" x2="1008.00" y2="1040.00" />
<line x1="1056.00" y1="1040.00" x2="1312.00" y2="1040.00" />
<line x1="512.00" y1="1056.00" x2="560.00" y2="1056.00" />
<line x1="576.00" y1="1056.00" x2="704.00" y2="1056.00" />
<line x1="1072.00" y1="1056.00" x2="1328.00" y2="1056.00" />
<line x1="512.00" y1="1072.00" x2="560.00" y2="1072.00" />
<line x1="576.00" y1="1072.00" x2="704.00" y2="1072.00" />
<line x1="896.00" y1="1072.00" x2="928.00" y2="1072.00" />
<line x1="944.00" y1="1072.00" x2="1040.00" y2="1072.00" />
<line x1="512.00" y1="1088.00" x2="528.00" y2="1088.00" />
<line x1="880.00" y1="1088.00" x2="896.00" y2="1088.00" />
<line x1="1072.00" y1="1088.00" x2="1104.00" y2="1088.00" />
<line x1="320.00" y1="1104.00" x2="512.00" y2="1104.00" />
<line x1="528.00" y1="1104.00" x2="544.00" y2="1104.00" />
<line x1="720.00" y1="1104.00" x2="736.00" y2="1104.00" />
<line x1="864.00" y1="1104.00" x2="880.00" y2="1104.00" />
<line x1="1056.00" y1="1104.00" x2="1072.00" y2="1104.00" />
<line x1="1104.00" y1="1104.00" x2="1168.00" y2="1104.00" />
<line x1="512.00" y1="1120.00" x2="528.00" y2="1120.00" />
<line x1="672.00" y1="1120.00" x2="704.00" y2="1120.00" />
<line x1="736.00" y1="1120.00" x2="752.00" y2="1120.00" />
<line x1="848.00" y1="1120.00" x2="864.00" y2="1120.00" />
<line x1="1056.00" y1="1120.00" x2="1072.00" y2="1120.00" />
<line x1="1168.00" y1="1120.00" x2="1184.00" y2="1120.00" />
<line x1="544.00" y1="1136.00" x2="560.00" y2="1136.00" />
<line x1="656.00" y1="1136.00" x2="672.00" y2="1136.00" />
<line x1="688.00" y1="1136.00" x2="720.00" y2="1136.00" />
<line x1="752.00" y1="1136.00" x2="800.00" y2="1136.00" />
<line x1="848.00" y1="1136.00" x2="864.00" y2="1136.00" />
<line x1="1184.00" y1="1136.00" x2="1200.00" y2="1136.00" />
<line x1="528.00" y1="1152.00" x2="544.00" y2="1152.00" />
<line x1="576.00" y1="1152.00" x2="592.00" y2="1152.00" />
<line x1="672.00" y1="1152.00" x2="688.00" y2="1152.00" />
<line x1="816.00" y1="1152.00" x2="848.00" y2="1152.00" />
<line x1="864.00" y1="1152.00" x2="880.00" y2="1152.00" />
<line x1="544.00" y1="1168.00" x2="560.00" y2="1168.00" />
<line x1="592.00" y1="1168.00" x2="608.00" y2="1168.00" />
<line x1="640.00" y1="1168.00" x2="656.00" y2="1168.00" />
<line x1="848.00" y1="1168.00" x2="864.00" y2="1168.00" />
<line x1="496.00" y1="1184.00" x2="560.00" y2="1184.00" />
<line x1="608.00" y1="1184.00" x2="640.00" y2="1184.00" />
<line x1="656.00" y1="1184.00" x2="672.00" y2="1184.00" />
<line x1="880.00" y1="1184.00" x2="912.00" y2="1184.00" />
<line x1="80.00" y1="1200.00" x2="496.00" y2="1200.00" />
<line x1="656.00" y1="1200.00" x2="800.00" y2="1200.00" />
<line x1="816.00" y1="1200.00" x2="864.00" y2="1200.00" />
<line x1="912.00" y1="1200.00" x2="928.00" y2="1200.00" />
<line x1="944.00" y1="1200.00" x2="1040.00" y2="1200.00" />
<line x1="1200.00" y1="1200.00" x2="1328.00" y2="1200.00" />
<line x1="80.00" y1="1216.00" x2="496.00" y2="1216.00" />
<line x1="640.00" y1="1216.00" x2="800.00" y2="1216.00" />
<line x1="816.00" y1="1216.00" x2="896.00" y2="1216.00" />
<line x1="944.00" y1="1216.00" x2="1040.00" y2="1216.00" />
<line x1="1216.00" y1="1216.00" x2="1408.00" y2="1216.00" />
<line x1="48.00" y1="1232.00" x2="64.00" y2="1232.00" />
<line x1="80.00" y1="1232.00" x2="160.00" y2="1232.00" />
<line x1="640.00" y1="1232.00" x2="672.00" y2="1232.00" />
<line x1="896.00" y1="1232.00" x2="912.00" y2="1232.00" />
<line x1="944.00" y1="1232.00" x2="960.00" y2="1232.00" />
<line x1="1216.00" y1="1232.00" x2="1232.00" y2="1232.00" />
<line x1="624.00" y1="1248.00" x2="656.00" y2="1248.00" />
<line x1="672.00" y1="1248.00" x2="688.00" y2="1248.00" />
<line x1="912.00" y1="1248.00" x2="928.00" y2="1248.00" />
<line x1="960.00" y1="1248.00" x2="976.00" y2="1248.00" />
<line x1="1200.00" y1="1248.00" x2="1216.00" y2="1248.00" />
<line x1="1232.00" y1="1248.00" x2="1264.00" y2="1248.00" />
<line x1="656.00" y1="1264.00" x2="672.00" y2="1264.00" />
<line x1="720.00" y1="1264.00" x2="800.00" y2="1264.00" />
<line x1="944.00" y1="1264.00" x2="960.00" y2="1264.00" />
<line x1="1216.00" y1="1264.00" x2="1248.00" y2="1264.00" />
<line x1="688.00" y1="1280.00" x2="720.00" y2="1280.00" />
<line x1="976.00" y1="1280.00" x2="992.00" y2="1280.00" />
<line x1="1184.00" y1="1280.00" x2="1200.00" y2="1280.00" />
<line x1="1264.00" y1="1280.00" x2="1376.00" y2="1280.00" />
<line x1="672.00" y1="1296.00" x2="688.00" y2="1296.00" />
<line x1="816.00" y1="1296.00" x2="832.00" y2="1296.00" />
<line x1="960.00" y1="1296.00" x2="976.00" y2="1296.00" />
<line x1="992.00" y1="1296.00" x2="1008.00" y2="1296.00" />
<line x1="1056.00" y1="1296.00" x2="1072.00" y2="1296.00" />
<line x1="1168.00" y1="1296.00" x2="1184.00" y2="1296.00" />
<line x1="1248.00" y1="1296.00" x2="1264.00" y2="1296.00" />
<line x1="1376.00" y1="1296.00" x2="1392.00" y2="1296.00" />
<line x1="496.00" y1="1312.00" x2="624.00" y2="1312.00" />
<line x1="976.00" y1="1312.00" x2="992.00" y2="1312.00" />
<line x1="1008.00" y1="1312.00" x2="1024.00" y2="1312.00" />
<line x1="1072.00" y1="1312.00" x2="1168.00" y2="1312.00" />
<line x1="1248.00" y1="1312.00" x2="1264.00" y2="1312.00" />
<line x1="1392.00" y1="1312.00" x2="1408.00" y2="1312.00" />
<line x1="160.00" y1="1328.00" x2="688.00" y2="1328.00" />
<line x1="832.00" y1="1328.00" x2="928.00" y2="1328.00" />
<line x1="944.00" y1="1328.00" x2="992.00" y2="1328.00" />
<line x1="1024.00" y1="1328.00" x2="1040.00" y2="1328.00" />
<line x1="1056.00" y1="1328.00" x2="1136.00" y2="1328.00" />
<line x1="160.00" y1="1344.00" x2="688.00" y2="1344.00" />
<line x1="832.00" y1="1344.00" x2="944.00" y2="1344.00" />
<line x1="944.00" y1="1376.00" x2="1136.00" y2="1376.00" />
<line x1="1248.00" y1="1392.00" x2="1264.00" y2="1392.00" />
<line x1="1392.00" y1="1392.00" x2="1408.00" y2="1392.00" />
<line x1="688.00" y1="1408.00" x2="704.00" y2="1408.00" />
<line x1="816.00" y1="1408.00" x2="832.00" y2="1408.00" />
<line x1="1264.00" y1="1408.00" x2="1280.00" y2="1408.00" />
<line x1="1376.00" y1="1408.00" x2="1392.00" y2="1408.00" />
<line x1="704.00" y1="1424.00" x2="720.00" y2="1424.00" />
<line x1="800.00" y1="1424.00" x2="816.00" y2="1424.00" />
<line x1="1280.00" y1="1424.00" x2="1376.00" y2="1424.00" />
<line x1="48.00" y1="1440.00" x2="160.00" y2="1440.00" />
<line x1="720.00" y1="1440.00" x2="800.00" y2="1440.00" />
<line x1="96.00" y1="48.00" x2="96.00" y2="224.00" />
<line x1="96.00" y1="400.00" x2="96.00" y2="464.00" />
<line x1="160.00" y1="48.00" x2="160.00" y2="128.00" />
<line x1="160.00" y1="144.00" x2="160.00" y2="224.00" />
<line x1="160.00" y1="288.00" x2="160.00" y2="304.00" />
<line x1="160.00" y1="320.00" x2="160.00" y2="336.00" />
<line x1="160.00" y1="1232.00" x2="160.00" y2="1328.00" />
<line x1="160.00" y1="1344.00" x2="160.00" y2="1440.00" />
<line x1="656.00" y1="112.00" x2="656.00" y2="128.00" />
<line x1="656.00" y1="144.00" x2="656.00" y2="176.00" />
<line x1="656.00" y1="192.00" x2="656.00" y2="288.00" />
<line x1="656.00" y1="672.00" x2="656.00" y2="704.00" />
<line x1="656.00" y1="1136.00" x2="656.00" y2="1168.00" />
<line x1="656.00" y1="1184.00" x2="656.00" y2="1200.00" />
<line x1="656.00" y1="1248.00" x2="656.00" y2="1264.00" />
<line x1="848.00" y1="112.00" x2="848.00" y2="176.00" />
<line x1="848.00" y1="192.00" x2="848.00" y2="272.00" />
<line x1="848.00" y1="848.00" x2="848.00" y2="864.00" />
<line x1="848.00" y1="1120.00" x2="848.00" y2="1136.00" />
<line x1="848.00" y1="1152.00" x2="848.00" y2="1168.00" />
<line x1="288.00" y1="144.00" x2="288.00" y2="176.00" />
<line x1="288.00" y1="224.00" x2="288.00" y2="352.00" />
<line x1="288.00" y1="368.00" x2="288.00" y2="400.00" />
<line x1="304.00" y1="144.00" x2="304.00" y2="176.00" />
<line x1="304.00" y1="192.00" x2="304.00" y2="352.00" />
<line x1="304.00" y1="368.00" x2="304.00" y2="400.00" />
<line x1="560.00" y1="144.00" x2="560.00" y2="176.00" />
<line x1="560.00" y1="192.00" x2="560.00" y2="352.00" />
<line x1="560.00" y1="368.00" x2="560.00" y2="400.00" />
<line x1="560.00" y1="416.00" x2="560.00" y2="560.00" />
<line x1="560.00" y1="592.00" x2="560.00" y2="608.00" />
<line x1="560.00" y1="768.00" x2="560.00" y2="832.00" />
<line x1="560.00" y1="864.00" x2="560.00" y2="944.00" />
<line x1="560.00" y1="960.00" x2="560.00" y2="1056.00" />
<line x1="560.00" y1="1072.00" x2="560.00" y2="1136.00" />
<line x1="560.00" y1="1168.00" x2="560.00" y2="1184.00" />
<line x1="576.00" y1="144.00" x2="576.00" y2="176.00" />
<line x1="576.00" y1="192.00" x2="576.00" y2="352.00" />
<line x1="576.00" y1="384.00" x2="576.00" y2="400.00" />
<line x1="576.00" y1="416.00" x2="576.00" y2="560.00" />
<line x1="576.00" y1="608.00" x2="576.00" y2="624.00" />
<line x1="576.00" y1="640.00" x2="576.00" y2="704.00" />
<line x1="576.00" y1="720.00" x2="576.00" y2="784.00" />
<line x1="576.00" y1="912.00" x2="576.00" y2="944.00" />
<line x1="576.00" y1="960.00" x2="576.00" y2="1056.00" />
<line x1="576.00" y1="1072.00" x2="576.00" y2="1152.00" />
<line x1="912.00" y1="160.00" x2="912.00" y2="176.00" />
<line x1="912.00" y1="192.00" x2="912.00" y2="208.00" />
<line x1="912.00" y1="576.00" x2="912.00" y2="592.00" />
<line x1="912.00" y1="608.00" x2="912.00" y2="624.00" />
<line x1="912.00" y1="672.00" x2="912.00" y2="736.00" />
<line x1="912.00" y1="1184.00" x2="912.00" y2="1200.00" />
<line x1="912.00" y1="1232.00" x2="912.00" y2="1248.00" />
<line x1="960.00" y1="160.00" x2="960.00" y2="208.00" />
<line x1="960.00" y1="528.00" x2="960.00" y2="560.00" />
<line x1="960.00" y1="576.00" x2="960.00" y2="592.00" />
<line x1="960.00" y1="960.00" x2="960.00" y2="976.00" />
<line x1="960.00" y1="1232.00" x2="960.00" y2="1248.00" />
<line x1="960.00" y1="1264.00" x2="960.00" y2="1296.00" />
<line x1="272.00" y1="176.00" x2="272.00" y2="208.00" />
<line x1="272.00" y1="224.00" x2="272.00" y2="240.00" />
<line x1="272.00" y1="592.00" x2="272.00" y2="688.00" />
<line x1="1296.00" y1="176.00" x2="1296.00" y2="192.00" />
<line x1="1296.00" y1="352.00" x2="1296.00" y2="368.00" />
<line x1="1296.00" y1="384.00" x2="1296.00" y2="432.00" />
<line x1="1296.00" y1="560.00" x2="1296.00" y2="592.00" />
<line x1="1328.00" y1="176.00" x2="1328.00" y2="192.00" />
<line x1="1328.00" y1="352.00" x2="1328.00" y2="592.00" />
<line x1="1328.00" y1="672.00" x2="1328.00" y2="752.00" />
<line x1="1328.00" y1="928.00" x2="1328.00" y2="1024.00" />
<line x1="1328.00" y1="1056.00" x2="1328.00" y2="1200.00" />
<line x1="1264.00" y1="192.00" x2="1264.00" y2="224.00" />
<line x1="1264.00" y1="352.00" x2="1264.00" y2="368.00" />
<line x1="1264.00" y1="544.00" x2="1264.00" y2="560.00" />
<line x1="1264.00" y1="592.00" x2="1264.00" y2="624.00" />
<line x1="1264.00" y1="640.00" x2="1264.00" y2="672.00" />
<line x1="1264.00" y1="1248.00" x2="1264.00" y2="1280.00" />
<line x1="1264.00" y1="1296.00" x2="1264.00" y2="1312.00" />
<line x1="1264.00" y1="1392.00" x2="1264.00" y2="1408.00" />
<line x1="1360.00" y1="192.00" x2="1360.00" y2="224.00" />
<line x1="1360.00" y1="320.00" x2="1360.00" y2="352.00" />
<line x1="256.00" y1="208.00" x2="256.00" y2="224.00" />
<line x1="256.00" y1="240.00" x2="256.00" y2="256.00" />
<line x1="256.00" y1="400.00" x2="256.00" y2="592.00" />
<line x1="928.00" y1="208.00" x2="928.00" y2="288.00" />
<line x1="928.00" y1="432.00" x2="928.00" y2="560.00" />
<line x1="928.00" y1="608.00" x2="928.00" y2="624.00" />
<line x1="928.00" y1="640.00" x2="928.00" y2="832.00" />
<line x1="928.00" y1="848.00" x2="928.00" y2="896.00" />
<line x1="928.00" y1="960.00" x2="928.00" y2="1040.00" />
<line x1="928.00" y1="1072.00" x2="928.00" y2="1200.00" />
<line x1="928.00" y1="1248.00" x2="928.00" y2="1328.00" />
<line x1="944.00" y1="208.00" x2="944.00" y2="288.00" />
<line x1="944.00" y1="432.00" x2="944.00" y2="560.00" />
<line x1="944.00" y1="592.00" x2="944.00" y2="624.00" />
<line x1="944.00" y1="640.00" x2="944.00" y2="832.00" />
<line x1="944.00" y1="848.00" x2="944.00" y2="944.00" />
<line x1="944.00" y1="992.00" x2="944.00" y2="1040.00" />
<line x1="944.00" y1="1072.00" x2="944.00" y2="1200.00" />
<line x1="944.00" y1="1216.00" x2="944.00" y2="1232.00" />
<line x1="944.00" y1="1264.00" x2="944.00" y2="1328.00" />
<line x1="944.00" y1="1344.00" x2="944.00" y2="1376.00" />
<line x1="1056.00" y1="208.00" x2="1056.00" y2="368.00" />
<line x1="1056.00" y1="384.00" x2="1056.00" y2="400.00" />
<line x1="1056.00" y1="432.00" x2="1056.00" y2="448.00" />
<line x1="1056.00" y1="464.00" x2="1056.00" y2="480.00" />
<line x1="1056.00" y1="528.00" x2="1056.00" y2="544.00" />
<line x1="1056.00" y1="576.00" x2="1056.00" y2="624.00" />
<line x1="1056.00" y1="640.00" x2="1056.00" y2="832.00" />
<line x1="1056.00" y1="848.00" x2="1056.00" y2="1040.00" />
<line x1="1056.00" y1="1104.00" x2="1056.00" y2="1120.00" />
<line x1="1056.00" y1="1296.00" x2="1056.00" y2="1328.00" />
<line x1="1120.00" y1="208.00" x2="1120.00" y2="304.00" />
<line x1="1120.00" y1="320.00" x2="1120.00" y2="368.00" />
<line x1="1120.00" y1="384.00" x2="1120.00" y2="400.00" />
<line x1="1120.00" y1="416.00" x2="1120.00" y2="432.00" />
<line x1="1120.00" y1="448.00" x2="1120.00" y2="464.00" />
<line x1="1120.00" y1="480.00" x2="1120.00" y2="512.00" />
<line x1="240.00" y1="224.00" x2="240.00" y2="240.00" />
<line x1="240.00" y1="592.00" x2="240.00" y2="608.00" />
<line x1="1248.00" y1="224.00" x2="1248.00" y2="304.00" />
<line x1="1248.00" y1="320.00" x2="1248.00" y2="352.00" />
<line x1="1248.00" y1="528.00" x2="1248.00" y2="544.00" />
<line x1="1248.00" y1="560.00" x2="1248.00" y2="576.00" />
<line x1="1248.00" y1="1264.00" x2="1248.00" y2="1296.00" />
<line x1="1248.00" y1="1312.00" x2="1248.00" y2="1392.00" />
<line x1="1376.00" y1="224.00" x2="1376.00" y2="320.00" />
<line x1="1376.00" y1="1280.00" x2="1376.00" y2="1296.00" />
<line x1="1376.00" y1="1408.00" x2="1376.00" y2="1424.00" />
<line x1="208.00" y1="240.00" x2="208.00" y2="256.00" />
<line x1="208.00" y1="272.00" x2="208.00" y2="288.00" />
<line x1="208.00" y1="352.00" x2="208.00" y2="608.00" />
<line x1="192.00" y1="256.00" x2="192.00" y2="272.00" />
<line x1="192.00" y1="288.00" x2="192.00" y2="304.00" />
<line x1="224.00" y1="256.00" x2="224.00" y2="272.00" />
<line x1="224.00" y1="368.00" x2="224.00" y2="608.00" />
<line x1="176.00" y1="272.00" x2="176.00" y2="288.00" />
<line x1="176.00" y1="304.00" x2="176.00" y2="320.00" />
<line x1="688.00" y1="272.00" x2="688.00" y2="288.00" />
<line x1="688.00" y1="1136.00" x2="688.00" y2="1152.00" />
<line x1="688.00" y1="1248.00" x2="688.00" y2="1280.00" />
<line x1="688.00" y1="1296.00" x2="688.00" y2="1328.00" />
<line x1="688.00" y1="1344.00" x2="688.00" y2="1408.00" />
<line x1="608.00" y1="288.00" x2="608.00" y2="352.00" />
<line x1="608.00" y1="368.00" x2="608.00" y2="400.00" />
<line x1="608.00" y1="416.00" x2="608.00" y2="448.00" />
<line x1="608.00" y1="592.00" x2="608.00" y2="608.00" />
<line x1="608.00" y1="1168.00" x2="608.00" y2="1184.00" />
<line x1="768.00" y1="288.00" x2="768.00" y2="352.00" />
<line x1="768.00" y1="384.00" x2="768.00" y2="400.00" />
<line x1="768.00" y1="416.00" x2="768.00" y2="448.00" />
<line x1="768.00" y1="752.00" x2="768.00" y2="784.00" />
<line x1="768.00" y1="800.00" x2="768.00" y2="816.00" />
<line x1="864.00" y1="288.00" x2="864.00" y2="352.00" />
<line x1="864.00" y1="384.00" x2="864.00" y2="400.00" />
<line x1="864.00" y1="416.00" x2="864.00" y2="432.00" />
<line x1="864.00" y1="640.00" x2="864.00" y2="656.00" />
<line x1="864.00" y1="880.00" x2="864.00" y2="896.00" />
<line x1="864.00" y1="1104.00" x2="864.00" y2="1120.00" />
<line x1="864.00" y1="1136.00" x2="864.00" y2="1152.00" />
<line x1="864.00" y1="1168.00" x2="864.00" y2="1200.00" />
<line x1="992.00" y1="288.00" x2="992.00" y2="368.00" />
<line x1="992.00" y1="384.00" x2="992.00" y2="400.00" />
<line x1="992.00" y1="416.00" x2="992.00" y2="432.00" />
<line x1="992.00" y1="496.00" x2="992.00" y2="528.00" />
<line x1="992.00" y1="976.00" x2="992.00" y2="1008.00" />
<line x1="992.00" y1="1280.00" x2="992.00" y2="1296.00" />
<line x1="992.00" y1="1312.00" x2="992.00" y2="1328.00" />
<line x1="144.00" y1="304.00" x2="144.00" y2="320.00" />
<line x1="144.00" y1="336.00" x2="144.00" y2="368.00" />
<line x1="144.00" y1="608.00" x2="144.00" y2="688.00" />
<line x1="128.00" y1="320.00" x2="128.00" y2="352.00" />
<line x1="48.00" y1="352.00" x2="48.00" y2="464.00" />
<line x1="48.00" y1="1232.00" x2="48.00" y2="1440.00" />
<line x1="1216.00" y1="352.00" x2="1216.00" y2="368.00" />
<line x1="1216.00" y1="432.00" x2="1216.00" y2="480.00" />
<line x1="1216.00" y1="512.00" x2="1216.00" y2="560.00" />
<line x1="1216.00" y1="1216.00" x2="1216.00" y2="1232.00" />
<line x1="1216.00" y1="1248.00" x2="1216.00" y2="1264.00" />
<line x1="112.00" y1="368.00" x2="112.00" y2="400.00" />
<line x1="592.00" y1="368.00" x2="592.00" y2="384.00" />
<line x1="592.00" y1="576.00" x2="592.00" y2="592.00" />
<line x1="592.00" y1="608.00" x2="592.00" y2="624.00" />
<line x1="592.00" y1="1152.00" x2="592.00" y2="1168.00" />
<line x1="1152.00" y1="384.00" x2="1152.00" y2="400.00" />
<line x1="1152.00" y1="464.00" x2="1152.00" y2="480.00" />
<line x1="1152.00" y1="528.00" x2="1152.00" y2="560.00" />
<line x1="1152.00" y1="576.00" x2="1152.00" y2="592.00" />
<line x1="1312.00" y1="384.00" x2="1312.00" y2="592.00" />
<line x1="1312.00" y1="672.00" x2="1312.00" y2="752.00" />
<line x1="1312.00" y1="928.00" x2="1312.00" y2="1040.00" />
<line x1="336.00" y1="400.00" x2="336.00" y2="496.00" />
<line x1="336.00" y1="560.00" x2="336.00" y2="592.00" />
<line x1="448.00" y1="400.00" x2="448.00" y2="416.00" />
<line x1="448.00" y1="480.00" x2="448.00" y2="496.00" />
<line x1="448.00" y1="512.00" x2="448.00" y2="544.00" />
<line x1="448.00" y1="880.00" x2="448.00" y2="896.00" />
<line x1="448.00" y1="992.00" x2="448.00" y2="1008.00" />
<line x1="416.00" y1="416.00" x2="416.00" y2="432.00" />
<line x1="416.00" y1="448.00" x2="416.00" y2="464.00" />
<line x1="416.00" y1="528.00" x2="416.00" y2="592.00" />
<line x1="416.00" y1="640.00" x2="416.00" y2="688.00" />
<line x1="416.00" y1="704.00" x2="416.00" y2="880.00" />
<line x1="416.00" y1="1008.00" x2="416.00" y2="1024.00" />
<line x1="464.00" y1="416.00" x2="464.00" y2="432.00" />
<line x1="464.00" y1="896.00" x2="464.00" y2="912.00" />
<line x1="464.00" y1="976.00" x2="464.00" y2="992.00" />
<line x1="512.00" y1="416.00" x2="512.00" y2="432.00" />
<line x1="512.00" y1="448.00" x2="512.00" y2="480.00" />
<line x1="512.00" y1="512.00" x2="512.00" y2="528.00" />
<line x1="512.00" y1="768.00" x2="512.00" y2="832.00" />
<line x1="512.00" y1="864.00" x2="512.00" y2="944.00" />
<line x1="512.00" y1="960.00" x2="512.00" y2="1056.00" />
<line x1="512.00" y1="1072.00" x2="512.00" y2="1088.00" />
<line x1="512.00" y1="1104.00" x2="512.00" y2="1120.00" />
<line x1="544.00" y1="416.00" x2="544.00" y2="432.00" />
<line x1="544.00" y1="528.00" x2="544.00" y2="560.00" />
<line x1="544.00" y1="576.00" x2="544.00" y2="592.00" />
<line x1="544.00" y1="1104.00" x2="544.00" y2="1136.00" />
<line x1="544.00" y1="1152.00" x2="544.00" y2="1168.00" />
<line x1="1088.00" y1="416.00" x2="1088.00" y2="432.00" />
<line x1="1088.00" y1="512.00" x2="1088.00" y2="544.00" />
<line x1="1104.00" y1="416.00" x2="1104.00" y2="448.00" />
<line x1="1104.00" y1="464.00" x2="1104.00" y2="496.00" />
<line x1="1104.00" y1="1088.00" x2="1104.00" y2="1104.00" />
<line x1="400.00" y1="432.00" x2="400.00" y2="448.00" />
<line x1="400.00" y1="464.00" x2="400.00" y2="480.00" />
<line x1="400.00" y1="576.00" x2="400.00" y2="592.00" />
<line x1="400.00" y1="608.00" x2="400.00" y2="640.00" />
<line x1="432.00" y1="432.00" x2="432.00" y2="448.00" />
<line x1="432.00" y1="512.00" x2="432.00" y2="528.00" />
<line x1="432.00" y1="544.00" x2="432.00" y2="608.00" />
<line x1="432.00" y1="768.00" x2="432.00" y2="832.00" />
<line x1="432.00" y1="864.00" x2="432.00" y2="880.00" />
<line x1="432.00" y1="1008.00" x2="432.00" y2="1024.00" />
<line x1="496.00" y1="432.00" x2="496.00" y2="464.00" />
<line x1="496.00" y1="480.00" x2="496.00" y2="512.00" />
<line x1="496.00" y1="528.00" x2="496.00" y2="544.00" />
<line x1="496.00" y1="768.00" x2="496.00" y2="832.00" />
<line x1="496.00" y1="864.00" x2="496.00" y2="944.00" />
<line x1="496.00" y1="960.00" x2="496.00" y2="1024.00" />
<line x1="496.00" y1="1184.00" x2="496.00" y2="1200.00" />
<line x1="496.00" y1="1216.00" x2="496.00" y2="1312.00" />
<line x1="528.00" y1="432.00" x2="528.00" y2="448.00" />
<line x1="528.00" y1="544.00" x2="528.00" y2="576.00" />
<line x1="528.00" y1="1088.00" x2="528.00" y2="1104.00" />
<line x1="528.00" y1="1120.00" x2="528.00" y2="1152.00" />
<line x1="1136.00" y1="432.00" x2="1136.00" y2="448.00" />
<line x1="1136.00" y1="464.00" x2="1136.00" y2="480.00" />
<line x1="1136.00" y1="1328.00" x2="1136.00" y2="1376.00" />
<line x1="1184.00" y1="432.00" x2="1184.00" y2="448.00" />
<line x1="1184.00" y1="480.00" x2="1184.00" y2="496.00" />
<line x1="1184.00" y1="1120.00" x2="1184.00" y2="1136.00" />
<line x1="1184.00" y1="1280.00" x2="1184.00" y2="1296.00" />
<line x1="1232.00" y1="432.00" x2="1232.00" y2="528.00" />
<line x1="1232.00" y1="560.00" x2="1232.00" y2="576.00" />
<line x1="1232.00" y1="752.00" x2="1232.00" y2="832.00" />
<line x1="1232.00" y1="848.00" x2="1232.00" y2="928.00" />
<line x1="1232.00" y1="1232.00" x2="1232.00" y2="1248.00" />
<line x1="384.00" y1="448.00" x2="384.00" y2="464.00" />
<line x1="384.00" y1="480.00" x2="384.00" y2="496.00" />
<line x1="384.00" y1="592.00" x2="384.00" y2="608.00" />
<line x1="384.00" y1="880.00" x2="384.00" y2="896.00" />
<line x1="384.00" y1="992.00" x2="384.00" y2="1008.00" />
<line x1="1040.00" y1="448.00" x2="1040.00" y2="464.00" />
<line x1="1040.00" y1="480.00" x2="1040.00" y2="512.00" />
<line x1="1040.00" y1="544.00" x2="1040.00" y2="560.00" />
<line x1="1040.00" y1="576.00" x2="1040.00" y2="624.00" />
<line x1="1040.00" y1="640.00" x2="1040.00" y2="832.00" />
<line x1="1040.00" y1="848.00" x2="1040.00" y2="944.00" />
<line x1="1040.00" y1="960.00" x2="1040.00" y2="1024.00" />
<line x1="1040.00" y1="1072.00" x2="1040.00" y2="1200.00" />
<line x1="1040.00" y1="1216.00" x2="1040.00" y2="1328.00" />
<line x1="1072.00" y1="448.00" x2="1072.00" y2="464.00" />
<line x1="1072.00" y1="496.00" x2="1072.00" y2="528.00" />
<line x1="1072.00" y1="544.00" x2="1072.00" y2="560.00" />
<line x1="1072.00" y1="1056.00" x2="1072.00" y2="1088.00" />
<line x1="1072.00" y1="1104.00" x2="1072.00" y2="1120.00" />
<line x1="1072.00" y1="1296.00" x2="1072.00" y2="1312.00" />
<line x1="1168.00" y1="448.00" x2="1168.00" y2="464.00" />
<line x1="1168.00" y1="1104.00" x2="1168.00" y2="1120.00" />
<line x1="1168.00" y1="1296.00" x2="1168.00" y2="1312.00" />
<line x1="64.00" y1="464.00" x2="64.00" y2="1232.00" />
<line x1="80.00" y1="464.00" x2="80.00" y2="688.00" />
<line x1="80.00" y1="704.00" x2="80.00" y2="1200.00" />
<line x1="80.00" y1="1216.00" x2="80.00" y2="1232.00" />
<line x1="368.00" y1="464.00" x2="368.00" y2="496.00" />
<line x1="368.00" y1="512.00" x2="368.00" y2="528.00" />
<line x1="368.00" y1="544.00" x2="368.00" y2="576.00" />
<line x1="368.00" y1="896.00" x2="368.00" y2="912.00" />
<line x1="368.00" y1="976.00" x2="368.00" y2="992.00" />
<line x1="480.00" y1="464.00" x2="480.00" y2="480.00" />
<line x1="480.00" y1="512.00" x2="480.00" y2="528.00" />
<line x1="480.00" y1="912.00" x2="480.00" y2="944.00" />
<line x1="480.00" y1="960.00" x2="480.00" y2="976.00" />
<line x1="1024.00" y1="464.00" x2="1024.00" y2="496.00" />
<line x1="1024.00" y1="1008.00" x2="1024.00" y2="1024.00" />
<line x1="1024.00" y1="1312.00" x2="1024.00" y2="1328.00" />
<line x1="1200.00" y1="464.00" x2="1200.00" y2="480.00" />
<line x1="1200.00" y1="496.00" x2="1200.00" y2="512.00" />
<line x1="1200.00" y1="528.00" x2="1200.00" y2="560.00" />
<line x1="1200.00" y1="576.00" x2="1200.00" y2="592.00" />
<line x1="1200.00" y1="1136.00" x2="1200.00" y2="1200.00" />
<line x1="1200.00" y1="1248.00" x2="1200.00" y2="1280.00" />
<line x1="1008.00" y1="512.00" x2="1008.00" y2="544.00" />
<line x1="1008.00" y1="1024.00" x2="1008.00" y2="1040.00" />
<line x1="1008.00" y1="1296.00" x2="1008.00" y2="1312.00" />
<line x1="352.00" y1="528.00" x2="352.00" y2="544.00" />
<line x1="352.00" y1="560.00" x2="352.00" y2="592.00" />
<line x1="352.00" y1="912.00" x2="352.00" y2="976.00" />
<line x1="976.00" y1="544.00" x2="976.00" y2="560.00" />
<line x1="976.00" y1="992.00" x2="976.00" y2="1024.00" />
<line x1="976.00" y1="1248.00" x2="976.00" y2="1280.00" />
<line x1="976.00" y1="1296.00" x2="976.00" y2="1312.00" />
<line x1="1280.00" y1="576.00" x2="1280.00" y2="592.00" />
<line x1="1280.00" y1="1408.00" x2="1280.00" y2="1424.00" />
<line x1="896.00" y1="592.00" x2="896.00" y2="608.00" />
<line x1="896.00" y1="640.00" x2="896.00" y2="656.00" />
<line x1="896.00" y1="880.00" x2="896.00" y2="896.00" />
<line x1="896.00" y1="912.00" x2="896.00" y2="928.00" />
<line x1="896.00" y1="992.00" x2="896.00" y2="1040.00" />
<line x1="896.00" y1="1072.00" x2="896.00" y2="1088.00" />
<line x1="896.00" y1="1216.00" x2="896.00" y2="1232.00" />
<line x1="1408.00" y1="592.00" x2="1408.00" y2="672.00" />
<line x1="1408.00" y1="752.00" x2="1408.00" y2="928.00" />
<line x1="1408.00" y1="1024.00" x2="1408.00" y2="1216.00" />
<line x1="1408.00" y1="1312.00" x2="1408.00" y2="1392.00" />
<line x1="624.00" y1="608.00" x2="624.00" y2="624.00" />
<line x1="624.00" y1="640.00" x2="624.00" y2="672.00" />
<line x1="624.00" y1="1248.00" x2="624.00" y2="1312.00" />
<line x1="880.00" y1="608.00" x2="880.00" y2="624.00" />
<line x1="880.00" y1="656.00" x2="880.00" y2="672.00" />
<line x1="880.00" y1="864.00" x2="880.00" y2="880.00" />
<line x1="880.00" y1="896.00" x2="880.00" y2="912.00" />
<line x1="880.00" y1="928.00" x2="880.00" y2="944.00" />
<line x1="880.00" y1="960.00" x2="880.00" y2="992.00" />
<line x1="880.00" y1="1088.00" x2="880.00" y2="1104.00" />
<line x1="880.00" y1="1152.00" x2="880.00" y2="1184.00" />
<line x1="640.00" y1="640.00" x2="640.00" y2="656.00" />
<line x1="640.00" y1="1168.00" x2="640.00" y2="1184.00" />
<line x1="640.00" y1="1216.00" x2="640.00" y2="1232.00" />
<line x1="672.00" y1="656.00" x2="672.00" y2="688.00" />
<line x1="672.00" y1="1120.00" x2="672.00" y2="1136.00" />
<line x1="672.00" y1="1152.00" x2="672.00" y2="1184.00" />
<line x1="672.00" y1="1232.00" x2="672.00" y2="1248.00" />
<line x1="672.00" y1="1264.00" x2="672.00" y2="1296.00" />
<line x1="832.00" y1="656.00" x2="832.00" y2="672.00" />
<line x1="832.00" y1="816.00" x2="832.00" y2="832.00" />
<line x1="832.00" y1="848.00" x2="832.00" y2="880.00" />
<line x1="832.00" y1="1296.00" x2="832.00" y2="1328.00" />
<line x1="832.00" y1="1344.00" x2="832.00" y2="1408.00" />
<line x1="704.00" y1="672.00" x2="704.00" y2="688.00" />
<line x1="704.00" y1="720.00" x2="704.00" y2="752.00" />
<line x1="704.00" y1="992.00" x2="704.00" y2="1056.00" />
<line x1="704.00" y1="1072.00" x2="704.00" y2="1120.00" />
<line x1="704.00" y1="1408.00" x2="704.00" y2="1424.00" />
<line x1="736.00" y1="736.00" x2="736.00" y2="752.00" />
<line x1="736.00" y1="768.00" x2="736.00" y2="784.00" />
<line x1="736.00" y1="960.00" x2="736.00" y2="976.00" />
<line x1="736.00" y1="1104.00" x2="736.00" y2="1120.00" />
<line x1="752.00" y1="736.00" x2="752.00" y2="752.00" />
<line x1="752.00" y1="800.00" x2="752.00" y2="832.00" />
<line x1="752.00" y1="848.00" x2="752.00" y2="912.00" />
<line x1="752.00" y1="1120.00" x2="752.00" y2="1136.00" />
<line x1="816.00" y1="736.00" x2="816.00" y2="816.00" />
<line x1="816.00" y1="848.00" x2="816.00" y2="944.00" />
<line x1="816.00" y1="1152.00" x2="816.00" y2="1200.00" />
<line x1="816.00" y1="1216.00" x2="816.00" y2="1296.00" />
<line x1="816.00" y1="1408.00" x2="816.00" y2="1424.00" />
<line x1="720.00" y1="752.00" x2="720.00" y2="768.00" />
<line x1="720.00" y1="976.00" x2="720.00" y2="992.00" />
<line x1="720.00" y1="1104.00" x2="720.00" y2="1136.00" />
<line x1="720.00" y1="1264.00" x2="720.00" y2="1280.00" />
<line x1="720.00" y1="1424.00" x2="720.00" y2="1440.00" />
<line x1="800.00" y1="752.00" x2="800.00" y2="800.00" />
<line x1="800.00" y1="848.00" x2="800.00" y2="944.00" />
<line x1="800.00" y1="1136.00" x2="800.00" y2="1200.00" />
<line x1="800.00" y1="1216.00" x2="800.00" y2="1264.00" />
<line x1="800.00" y1="1424.00" x2="800.00" y2="1440.00" />
<line x1="784.00" y1="784.00" x2="784.00" y2="800.00" />
<line x1="784.00" y1="816.00" x2="784.00" y2="832.00" />
<line x1="320.00" y1="1024.00" x2="320.00" y2="1104.00" />
<line x1="1392.00" y1="1296.00" x2="1392.00" y2="1312.00" />
<line x1="1392.00" y1="1392.00" x2="1392.00" y2="1408.00" />
  </g>
  <g class="features">
<g data-feature-type="stairsDown"><line data-feature-type="stairsDown" x1="786.24" y1="1027.36" x2="797.76" y2="1027.36" /><line x1="786.65" y1="1029.68" x2="797.35" y2="1029.68" /><line x1="787.07" y1="1032.00" x2="796.93" y2="1032.00" /><line x1="787.48" y1="1034.32" x2="796.52" y2="1034.32" /><line x1="787.90" y1="1036.64" x2="796.10" y2="1036.64" /></g>
<g data-feature-type="stairsUp"><line data-feature-type="stairsUp" x1="1123.90" y1="1235.36" x2="1132.10" y2="1235.36" /><line x1="1123.48" y1="1237.68" x2="1132.52" y2="1237.68" /><line x1="1123.07" y1="1240.00" x2="1132.93" y2="1240.00" /><line x1="1122.65" y1="1242.32" x2="1133.35" y2="1242.32" /><line x1="1122.24" y1="1244.64" x2="1133.76" y2="1244.64" /></g>
<circle data-feature-type="pillar" cx="1336.00" cy="856.00" r="3.68" fill="#5c92ab" stroke="none" />
<circle data-feature-type="pillar" cx="1304.00" cy="824.00" r="3.68" fill="#5c92ab" stroke="none" />
<circle data-feature-type="pillar" cx="1288.00" cy="856.00" r="3.68" fill="#5c92ab" stroke="none" />
<circle data-feature-type="pillar" cx="1304.00" cy="856.00" r="3.68" fill="#5c92ab" stroke="none" />
<g data-feature-type="well"><circle cx="1272.00" cy="904.00" r="4.00" fill="none" /><circle cx="1272.00" cy="904.00" r="2.24" fill="none" /></g>
<path data-feature-type="curtain" d="M 1254.40 787.84 Q 1256.00 790.34 1254.40 792.00 Q 1256.00 793.66 1254.40 796.16" fill="none" /><path d="M 1257.60 787.84 Q 1256.00 790.34 1257.60 792.00 Q 1256.00 793.66 1257.60 796.16" fill="none" />
<circle data-feature-type="pillar" cx="1112.00" cy="312.00" r="3.68" fill="#5c92ab" stroke="none" />
<g data-feature-type="trap"><rect x="1092.64" y="372.64" width="6.72" height="6.72" fill="none" /><line x1="1092.64" y1="372.64" x2="1099.36" y2="379.36" /><line x1="1092.64" y1="379.36" x2="1099.36" y2="372.64" /></g>
<circle data-feature-type="pillar" cx="1352.00" cy="632.00" r="3.68" fill="#5c92ab" stroke="none" />
<g data-feature-type="well"><circle cx="1352.00" cy="648.00" r="4.00" fill="none" /><circle cx="1352.00" cy="648.00" r="2.24" fill="none" /></g>
<g data-feature-type="coffin"><rect x="1317.60" y="612.32" width="4.80" height="7.36" rx="0.80" ry="0.80" fill="none" /><line x1="1320.00" y1="613.94" x2="1320.00" y2="618.06" /></g>
<g data-feature-type="coffin"><rect x="629.60" y="356.32" width="4.80" height="7.36" rx="0.80" ry="0.80" fill="none" /><line x1="632.00" y1="357.94" x2="632.00" y2="362.06" /></g>
<path data-feature-type="curtain" d="M 662.40 419.84 Q 664.00 422.34 662.40 424.00 Q 664.00 425.66 662.40 428.16" fill="none" /><path d="M 665.60 419.84 Q 664.00 422.34 665.60 424.00 Q 664.00 425.66 665.60 428.16" fill="none" />
<circle data-feature-type="pillar" cx="824.00" cy="712.00" r="3.68" fill="#5c92ab" stroke="none" />
<circle data-feature-type="pillar" cx="584.00" cy="1256.00" r="3.68" fill="#5c92ab" stroke="none" />
<circle data-feature-type="pillar" cx="536.00" cy="1256.00" r="3.68" fill="#5c92ab" stroke="none" />
<g data-feature-type="statue"><circle cx="552.00" cy="1272.00" r="3.52" fill="none" /><line x1="549.76" y1="1272.00" x2="554.24" y2="1272.00" /><line x1="552.00" y1="1269.76" x2="552.00" y2="1274.24" /><line x1="550.39" y1="1270.39" x2="553.61" y2="1273.61" /><line x1="550.39" y1="1273.61" x2="553.61" y2="1270.39" /></g>
<circle data-feature-type="pillar" cx="1064.00" cy="1352.00" r="3.68" fill="#5c92ab" stroke="none" />
<circle data-feature-type="pillar" cx="392.00" cy="1064.00" r="3.68" fill="#5c92ab" stroke="none" />
<circle data-feature-type="pillar" cx="440.00" cy="1064.00" r="3.68" fill="#5c92ab" stroke="none" />
<circle data-feature-type="pillar" cx="840.00" cy="1064.00" r="3.68" fill="#5c92ab" stroke="none" />
<circle data-feature-type="pillar" cx="840.00" cy="1032.00" r="3.68" fill="#5c92ab" stroke="none" />
<circle data-feature-type="pillar" cx="776.00" cy="1032.00" r="3.68" fill="#5c92ab" stroke="none" />
<circle data-feature-type="pillar" cx="824.00" cy="1064.00" r="3.68" fill="#5c92ab" stroke="none" />
<g data-feature-type="trap"><rect x="788.64" y="980.64" width="6.72" height="6.72" fill="none" /><line x1="788.64" y1="980.64" x2="795.36" y2="987.36" /><line x1="788.64" y1="987.36" x2="795.36" y2="980.64" /></g>
<circle data-feature-type="pillar" cx="792.00" cy="216.00" r="3.68" fill="#5c92ab" stroke="none" />
<circle data-feature-type="pillar" cx="776.00" cy="216.00" r="3.68" fill="#5c92ab" stroke="none" />
<circle data-feature-type="pillar" cx="728.00" cy="216.00" r="3.68" fill="#5c92ab" stroke="none" />
<circle data-feature-type="pillar" cx="744.00" cy="184.00" r="3.68" fill="#5c92ab" stroke="none" />
<path data-feature-type="curtain" d="M 822.40 131.84 Q 824.00 134.34 822.40 136.00 Q 824.00 137.66 822.40 140.16" fill="none" /><path d="M 825.60 131.84 Q 824.00 134.34 825.60 136.00 Q 824.00 137.66 825.60 140.16" fill="none" />
<circle data-feature-type="pillar" cx="472.00" cy="712.00" r="3.68" fill="#5c92ab" stroke="none" />
<circle data-feature-type="pillar" cx="520.00" cy="712.00" r="3.68" fill="#5c92ab" stroke="none" />
<circle data-feature-type="pillar" cx="536.00" cy="712.00" r="3.68" fill="#5c92ab" stroke="none" />
<path data-feature-type="curtain" d="M 534.40 627.84 Q 536.00 630.34 534.40 632.00 Q 536.00 633.66 534.40 636.16" fill="none" /><path d="M 537.60 627.84 Q 536.00 630.34 537.60 632.00 Q 536.00 633.66 537.60 636.16" fill="none" />
<circle data-feature-type="pillar" cx="120.00" cy="1336.00" r="3.68" fill="#5c92ab" stroke="none" />
<g data-feature-type="statue"><circle cx="136.00" cy="1288.00" r="3.52" fill="none" /><line x1="133.76" y1="1288.00" x2="138.24" y2="1288.00" /><line x1="136.00" y1="1285.76" x2="136.00" y2="1290.24" /><line x1="134.39" y1="1286.39" x2="137.61" y2="1289.61" /><line x1="134.39" y1="1289.61" x2="137.61" y2="1286.39" /></g>
<circle data-feature-type="pillar" cx="696.00" cy="872.00" r="3.68" fill="#5c92ab" stroke="none" />
<circle data-feature-type="pillar" cx="632.00" cy="872.00" r="3.68" fill="#5c92ab" stroke="none" />
<circle data-feature-type="pillar" cx="680.00" cy="872.00" r="3.68" fill="#5c92ab" stroke="none" />
<g data-feature-type="statue"><circle cx="728.00" cy="872.00" r="3.52" fill="none" /><line x1="725.76" y1="872.00" x2="730.24" y2="872.00" /><line x1="728.00" y1="869.76" x2="728.00" y2="874.24" /><line x1="726.39" y1="870.39" x2="729.61" y2="873.61" /><line x1="726.39" y1="873.61" x2="729.61" y2="870.39" /></g>
<g data-feature-type="trap"><rect x="644.64" y="852.64" width="6.72" height="6.72" fill="none" /><line x1="644.64" y1="852.64" x2="651.36" y2="859.36" /><line x1="644.64" y1="859.36" x2="651.36" y2="852.64" /></g>
<g data-feature-type="coffin"><rect x="597.60" y="868.32" width="4.80" height="7.36" rx="0.80" ry="0.80" fill="none" /><line x1="600.00" y1="869.94" x2="600.00" y2="874.06" /></g>
<circle data-feature-type="pillar" cx="1112.00" cy="1224.00" r="3.68" fill="#5c92ab" stroke="none" />
<circle data-feature-type="pillar" cx="1096.00" cy="1224.00" r="3.68" fill="#5c92ab" stroke="none" />
<circle data-feature-type="pillar" cx="1096.00" cy="1192.00" r="3.68" fill="#5c92ab" stroke="none" />
<circle data-feature-type="pillar" cx="1144.00" cy="1224.00" r="3.68" fill="#5c92ab" stroke="none" />
<g data-feature-type="trap"><rect x="1076.64" y="1124.64" width="6.72" height="6.72" fill="none" /><line x1="1076.64" y1="1124.64" x2="1083.36" y2="1131.36" /><line x1="1076.64" y1="1131.36" x2="1083.36" y2="1124.64" /></g>
<circle data-feature-type="pillar" cx="120.00" cy="136.00" r="3.68" fill="#5c92ab" stroke="none" />
<circle data-feature-type="pillar" cx="264.00" cy="504.00" r="3.68" fill="#5c92ab" stroke="none" />
<circle data-feature-type="pillar" cx="328.00" cy="504.00" r="3.68" fill="#5c92ab" stroke="none" />
<g data-feature-type="trap"><rect x="276.64" y="452.64" width="6.72" height="6.72" fill="none" /><line x1="276.64" y1="452.64" x2="283.36" y2="459.36" /><line x1="276.64" y1="459.36" x2="283.36" y2="452.64" /></g>
<g data-feature-type="chest"><rect x="309.28" y="550.24" width="5.44" height="3.52" fill="none" /><line x1="309.28" y1="552.00" x2="314.72" y2="552.00" /><circle cx="312.00" cy="552.18" r="0.70" fill="#5c92ab" stroke="none" /></g>
<path data-feature-type="curtain" d="M 310.40 531.84 Q 312.00 534.34 310.40 536.00 Q 312.00 537.66 310.40 540.16" fill="none" /><path d="M 313.60 531.84 Q 312.00 534.34 313.60 536.00 Q 312.00 537.66 313.60 540.16" fill="none" />
<circle data-feature-type="pillar" cx="1368.00" cy="1336.00" r="3.68" fill="#5c92ab" stroke="none" />
<circle data-feature-type="pillar" cx="1320.00" cy="1336.00" r="3.68" fill="#5c92ab" stroke="none" />
<circle data-feature-type="pillar" cx="1320.00" cy="1368.00" r="3.68" fill="#5c92ab" stroke="none" />
<circle data-feature-type="pillar" cx="1352.00" cy="1128.00" r="3.68" fill="#5c92ab" stroke="none" />
<circle data-feature-type="pillar" cx="1336.00" cy="1128.00" r="3.68" fill="#5c92ab" stroke="none" />
<circle data-feature-type="pillar" cx="760.00" cy="1336.00" r="3.68" fill="#5c92ab" stroke="none" />
<circle data-feature-type="pillar" cx="760.00" cy="1368.00" r="3.68" fill="#5c92ab" stroke="none" />
<circle data-feature-type="pillar" cx="440.00" cy="952.00" r="3.68" fill="#5c92ab" stroke="none" />
<g data-feature-type="trap"><rect x="372.64" y="916.64" width="6.72" height="6.72" fill="none" /><line x1="372.64" y1="916.64" x2="379.36" y2="923.36" /><line x1="372.64" y1="923.36" x2="379.36" y2="916.64" /></g>
<circle data-feature-type="pillar" cx="936.00" cy="344.00" r="3.68" fill="#5c92ab" stroke="none" />
<circle data-feature-type="pillar" cx="936.00" cy="392.00" r="3.68" fill="#5c92ab" stroke="none" />
<g data-feature-type="trap"><rect x="900.64" y="372.64" width="6.72" height="6.72" fill="none" /><line x1="900.64" y1="372.64" x2="907.36" y2="379.36" /><line x1="900.64" y1="379.36" x2="907.36" y2="372.64" /></g>
<path data-feature-type="curtain" d="M 950.40 307.84 Q 952.00 310.34 950.40 312.00 Q 952.00 313.66 950.40 316.16" fill="none" /><path d="M 953.60 307.84 Q 952.00 310.34 953.60 312.00 Q 952.00 313.66 953.60 316.16" fill="none" />
<circle data-feature-type="pillar" cx="232.00" cy="648.00" r="3.68" fill="#5c92ab" stroke="none" />
  </g>
  <g class="thresholds">
<rect data-threshold-type="door" x="1235.52" y="837.76" width="8.96" height="4.48" fill="#ffffff" stroke="#5c92ab" stroke-width="1.52" />
<rect data-threshold-type="door" x="1107.52" y="405.76" width="8.96" height="4.48" fill="#ffffff" stroke="#5c92ab" stroke-width="1.52" />
<rect data-threshold-type="door" x="1267.52" y="629.76" width="8.96" height="4.48" fill="#ffffff" stroke="#5c92ab" stroke-width="1.52" />
<rect data-threshold-type="door" x="611.52" y="405.76" width="8.96" height="4.48" fill="#ffffff" stroke="#5c92ab" stroke-width="1.52" />
<g data-threshold-type="secret"><line x1="931.52" y1="200.00" x2="940.48" y2="200.00" stroke="#5c92ab" stroke-width="1.31" stroke-dasharray="1.31 1.31" /><text x="941.56" y="199.10" font-size="5.44" fill="#5c92ab" font-family="Courier New, monospace" font-weight="700">S</text></g>
<rect data-threshold-type="door" x="835.52" y="677.76" width="8.96" height="4.48" fill="#ffffff" stroke="#5c92ab" stroke-width="1.52" />
<g data-threshold-type="locked" stroke="#5c92ab" fill="none" stroke-width="1.52"><rect x="611.52" y="1221.76" width="8.96" height="4.48" fill="#ffffff" /><circle cx="616.00" cy="1220.77" r="1.61" /></g>
<g data-threshold-type="secret"><line x1="947.52" y1="1336.00" x2="956.48" y2="1336.00" stroke="#5c92ab" stroke-width="1.31" stroke-dasharray="1.31 1.31" /><text x="957.56" y="1335.10" font-size="5.44" fill="#5c92ab" font-family="Courier New, monospace" font-weight="700">S</text></g>
<rect data-threshold-type="door" x="499.52" y="1093.76" width="8.96" height="4.48" fill="#ffffff" stroke="#5c92ab" stroke-width="1.52" />
<g data-threshold-type="secret"><line x1="1155.52" y1="568.00" x2="1164.48" y2="568.00" stroke="#5c92ab" stroke-width="1.31" stroke-dasharray="1.31 1.31" /><text x="1165.56" y="567.10" font-size="5.44" fill="#5c92ab" font-family="Courier New, monospace" font-weight="700">S</text></g>
<rect data-threshold-type="door" x="835.52" y="1125.76" width="8.96" height="4.48" fill="#ffffff" stroke="#5c92ab" stroke-width="1.52" />
<rect data-threshold-type="door" x="659.52" y="261.76" width="8.96" height="4.48" fill="#ffffff" stroke="#5c92ab" stroke-width="1.52" />
<rect data-threshold-type="door" x="547.52" y="725.76" width="8.96" height="4.48" fill="#ffffff" stroke="#5c92ab" stroke-width="1.52" />
<rect data-threshold-type="door" x="83.52" y="389.76" width="8.96" height="4.48" fill="#ffffff" stroke="#5c92ab" stroke-width="1.52" />
<rect data-threshold-type="door" x="1267.52" y="325.76" width="8.96" height="4.48" fill="#ffffff" stroke="#5c92ab" stroke-width="1.52" />
<rect data-threshold-type="door" x="67.52" y="1237.76" width="8.96" height="4.48" fill="#ffffff" stroke="#5c92ab" stroke-width="1.52" />
<rect data-threshold-type="door" x="739.52" y="789.76" width="8.96" height="4.48" fill="#ffffff" stroke="#5c92ab" stroke-width="1.52" />
<rect data-threshold-type="door" x="1043.52" y="1285.76" width="8.96" height="4.48" fill="#ffffff" stroke="#5c92ab" stroke-width="1.52" />
<rect data-threshold-type="door" x="147.52" y="133.76" width="8.96" height="4.48" fill="#ffffff" stroke="#5c92ab" stroke-width="1.52" />
<rect data-threshold-type="door" x="291.52" y="405.76" width="8.96" height="4.48" fill="#ffffff" stroke="#5c92ab" stroke-width="1.52" />
<rect data-threshold-type="door" x="1251.52" y="1301.76" width="8.96" height="4.48" fill="#ffffff" stroke="#5c92ab" stroke-width="1.52" />
<rect data-threshold-type="door" x="1267.52" y="389.76" width="8.96" height="4.48" fill="#ffffff" stroke="#5c92ab" stroke-width="1.52" />
<g data-threshold-type="locked" stroke="#5c92ab" fill="none" stroke-width="1.52"><rect x="1331.52" y="1205.76" width="8.96" height="4.48" fill="#ffffff" /><circle cx="1336.00" cy="1204.77" r="1.61" /></g>
<rect data-threshold-type="door" x="691.52" y="1301.76" width="8.96" height="4.48" fill="#ffffff" stroke="#5c92ab" stroke-width="1.52" />
<g data-threshold-type="secret"><line x1="467.52" y1="952.00" x2="476.48" y2="952.00" stroke="#5c92ab" stroke-width="1.31" stroke-dasharray="1.31 1.31" /><text x="477.56" y="951.10" font-size="5.44" fill="#5c92ab" font-family="Courier New, monospace" font-weight="700">S</text></g>
<rect data-threshold-type="door" x="979.52" y="405.76" width="8.96" height="4.48" fill="#ffffff" stroke="#5c92ab" stroke-width="1.52" />
<rect data-threshold-type="door" x="243.52" y="613.76" width="8.96" height="4.48" fill="#ffffff" stroke="#5c92ab" stroke-width="1.52" />
  </g>
  <g class="labels">
<text x="1320.00" y="841.92" text-anchor="middle">1</text>
<text x="1096.00" y="313.92" text-anchor="middle">2</text>
<text x="1336.00" y="633.92" text-anchor="middle">3</text>
<text x="696.00" y="377.92" text-anchor="middle">4</text>
<text x="936.00" y="185.92" text-anchor="middle">5</text>
<text x="808.00" y="713.92" text-anchor="middle">6</text>
<text x="568.00" y="1257.92" text-anchor="middle">7</text>
<text x="1048.00" y="1353.92" text-anchor="middle">8</text>
<text x="424.00" y="1065.92" text-anchor="middle">9</text>
<text x="1176.00" y="569.92" text-anchor="middle">10</text>
<text x="808.00" y="1049.92" text-anchor="middle">11</text>
<text x="760.00" y="201.92" text-anchor="middle">12</text>
<text x="504.00" y="697.92" text-anchor="middle">13</text>
<text x="72.00" y="409.92" text-anchor="middle">14</text>
<text x="1320.00" y="281.92" text-anchor="middle">15</text>
<text x="104.00" y="1337.92" text-anchor="middle">16</text>
<text x="664.00" y="857.92" text-anchor="middle">17</text>
<text x="1128.00" y="1209.92" text-anchor="middle">18</text>
<text x="136.00" y="137.92" text-anchor="middle">19</text>
<text x="296.00" y="505.92" text-anchor="middle">20</text>
<text x="1336.00" y="1353.92" text-anchor="middle">21</text>
<text x="1224.00" y="409.92" text-anchor="middle">22</text>
<text x="1368.00" y="1129.92" text-anchor="middle">23</text>
<text x="760.00" y="1353.92" text-anchor="middle">24</text>
<text x="424.00" y="953.92" text-anchor="middle">25</text>
<text x="936.00" y="361.92" text-anchor="middle">26</text>
<text x="216.00" y="649.92" text-anchor="middle">27</text>
  </g>
</svg>