<?xml version="1.0" encoding="UTF-8"?>
<svg xmlns="http://www.w3.org/2000/svg" width="1488" height="1536" viewBox="0 0 1488.00 1536.00" role="img" aria-label="MapIR render: Learned Generated Map 1">
  <defs>
    <style>
      .grid { stroke: #cde2ec; stroke-width: 0.64; opacity: 0.72; }
      .walls { stroke: #6aa7c7; stroke-width: 1.92; fill: none; stroke-linecap: square; }
      .thresholds { fill: none; stroke-linecap: round; }
      .features { stroke: #4f89a8; fill: none; stroke-width: 1.60; stroke-linecap: round; stroke-linejoin: round; }
      .labels { fill: #4f89a8; font-size: 7.20px; font-family: "Courier New", monospace; font-weight: 600; }
    </style>
  </defs>
  <rect x="0" y="0" width="1488.00" height="1536.00" fill="#4393be" />
  <g class="floors">
<rect x="320.00" y="80.00" width="192.00" height="144.00" fill="#fcfdfe" />
<rect x="544.00" y="112.00" width="192.00" height="160.00" fill="#fcfdfe" />
<rect x="512.00" y="144.00" width="32.00" height="16.00" fill="#fcfdfe" />
<rect x="736.00" y="144.00" width="704.00" height="16.00" fill="#fcfdfe" />
<rect x="208.00" y="160.00" width="64.00" height="208.00" fill="#fcfdfe" />
<rect x="1424.00" y="160.00" width="16.00" height="1088.00" fill="#fcfdfe" />
<rect x="288.00" y="192.00" width="32.00" height="16.00" fill="#fcfdfe" />
<rect x="512.00" y="192.00" width="32.00" height="16.00" fill="#fcfdfe" />
<rect x="736.00" y="192.00" width="288.00" height="16.00" fill="#fcfdfe" />
<rect x="288.00" y="208.00" width="16.00" height="464.00" fill="#fcfdfe" />
<rect x="1008.00" y="208.00" width="16.00" height="768.00" fill="#fcfdfe" />
<rect x="416.00" y="224.00" width="16.00" height="1104.00" fill="#fcfdfe" />
<rect x="800.00" y="240.00" width="80.00" height="176.00" fill="#fcfdfe" />
<rect x="272.00" y="256.00" width="16.00" height="16.00" fill="#fcfdfe" />
<rect x="304.00" y="256.00" width="112.00" height="16.00" fill="#fcfdfe" />
<rect x="432.00" y="256.00" width="112.00" height="16.00" fill="#fcfdfe" />
<rect x="736.00" y="256.00" width="64.00" height="16.00" fill="#fcfdfe" />
<rect x="880.00" y="256.00" width="64.00" height="16.00" fill="#fcfdfe" />
<rect x="640.00" y="272.00" width="16.00" height="336.00" fill="#fcfdfe" />
<rect x="928.00" y="272.00" width="16.00" height="928.00" fill="#fcfdfe" />
<rect x="528.00" y="320.00" width="112.00" height="16.00" fill="#fcfdfe" />
<rect x="656.00" y="320.00" width="144.00" height="16.00" fill="#fcfdfe" />
<rect x="528.00" y="336.00" width="16.00" height="1120.00" fill="#fcfdfe" />
<rect x="1296.00" y="368.00" width="64.00" height="144.00" fill="#fcfdfe" />
<rect x="976.00" y="384.00" width="32.00" height="176.00" fill="#fcfdfe" />
<rect x="1024.00" y="384.00" width="32.00" height="176.00" fill="#fcfdfe" />
<rect x="832.00" y="416.00" width="16.00" height="64.00" fill="#fcfdfe" />
<rect x="240.00" y="432.00" width="48.00" height="80.00" fill="#fcfdfe" />
<rect x="304.00" y="432.00" width="112.00" height="16.00" fill="#fcfdfe" />
<rect x="432.00" y="432.00" width="96.00" height="16.00" fill="#fcfdfe" />
<rect x="544.00" y="432.00" width="96.00" height="16.00" fill="#fcfdfe" />
<rect x="656.00" y="432.00" width="176.00" height="16.00" fill="#fcfdfe" />
<rect x="848.00" y="432.00" width="80.00" height="16.00" fill="#fcfdfe" />
<rect x="944.00" y="432.00" width="32.00" height="16.00" fill="#fcfdfe" />
<rect x="1056.00" y="432.00" width="240.00" height="16.00" fill="#fcfdfe" />
<rect x="304.00" y="448.00" width="48.00" height="64.00" fill="#fcfdfe" />
<rect x="384.00" y="448.00" width="16.00" height="880.00" fill="#fcfdfe" />
<rect x="576.00" y="448.00" width="64.00" height="160.00" fill="#fcfdfe" />
<rect x="656.00" y="448.00" width="112.00" height="160.00" fill="#fcfdfe" />
<rect x="352.00" y="464.00" width="32.00" height="16.00" fill="#fcfdfe" />
<rect x="400.00" y="464.00" width="16.00" height="16.00" fill="#fcfdfe" />
<rect x="432.00" y="464.00" width="96.00" height="16.00" fill="#fcfdfe" />
<rect x="544.00" y="464.00" width="32.00" height="16.00" fill="#fcfdfe" />
<rect x="768.00" y="464.00" width="64.00" height="16.00" fill="#fcfdfe" />
<rect x="848.00" y="464.00" width="80.00" height="16.00" fill="#fcfdfe" />
<rect x="944.00" y="464.00" width="32.00" height="16.00" fill="#fcfdfe" />
<rect x="272.00" y="512.00" width="16.00" height="784.00" fill="#fcfdfe" />
<rect x="1328.00" y="512.00" width="16.00" height="656.00" fill="#fcfdfe" />
<rect x="672.00" y="608.00" width="16.00" height="128.00" fill="#fcfdfe" />
<rect x="1408.00" y="608.00" width="16.00" height="160.00" fill="#fcfdfe" />
<rect x="1440.00" y="608.00" width="16.00" height="160.00" fill="#fcfdfe" />
<rect x="480.00" y="640.00" width="48.00" height="48.00" fill="#fcfdfe" />
<rect x="544.00" y="640.00" width="16.00" height="48.00" fill="#fcfdfe" />
<rect x="1200.00" y="640.00" width="128.00" height="160.00" fill="#fcfdfe" />
<rect x="1344.00" y="640.00" width="16.00" height="160.00" fill="#fcfdfe" />
<rect x="304.00" y="656.00" width="80.00" height="16.00" fill="#fcfdfe" />
<rect x="400.00" y="656.00" width="16.00" height="16.00" fill="#fcfdfe" />
<rect x="432.00" y="656.00" width="48.00" height="16.00" fill="#fcfdfe" />
<rect x="1040.00" y="656.00" width="112.00" height="224.00" fill="#fcfdfe" />
<rect x="432.00" y="720.00" width="96.00" height="224.00" fill="#fcfdfe" />
<rect x="544.00" y="720.00" width="128.00" height="16.00" fill="#fcfdfe" />
<rect x="688.00" y="720.00" width="240.00" height="16.00" fill="#fcfdfe" />
<rect x="944.00" y="720.00" width="64.00" height="16.00" fill="#fcfdfe" />
<rect x="1024.00" y="720.00" width="16.00" height="16.00" fill="#fcfdfe" />
<rect x="1152.00" y="720.00" width="48.00" height="16.00" fill="#fcfdfe" />
<rect x="544.00" y="736.00" width="80.00" height="208.00" fill="#fcfdfe" />
<rect x="1152.00" y="752.00" width="48.00" height="16.00" fill="#fcfdfe" />
<rect x="1360.00" y="752.00" width="48.00" height="16.00" fill="#fcfdfe" />
<rect x="1376.00" y="768.00" width="32.00" height="368.00" fill="#fcfdfe" />
<rect x="672.00" y="784.00" width="128.00" height="176.00" fill="#fcfdfe" />
<rect x="1280.00" y="800.00" width="16.00" height="304.00" fill="#fcfdfe" />
<rect x="112.00" y="864.00" width="160.00" height="16.00" fill="#fcfdfe" />
<rect x="288.00" y="864.00" width="96.00" height="16.00" fill="#fcfdfe" />
<rect x="400.00" y="864.00" width="16.00" height="16.00" fill="#fcfdfe" />
<rect x="624.00" y="864.00" width="48.00" height="16.00" fill="#fcfdfe" />
<rect x="800.00" y="864.00" width="128.00" height="16.00" fill="#fcfdfe" />
<rect x="944.00" y="864.00" width="64.00" height="16.00" fill="#fcfdfe" />
<rect x="1024.00" y="864.00" width="16.00" height="16.00" fill="#fcfdfe" />
<rect x="1152.00" y="864.00" width="128.00" height="16.00" fill="#fcfdfe" />
<rect x="1296.00" y="864.00" width="32.00" height="16.00" fill="#fcfdfe" />
<rect x="1344.00" y="864.00" width="32.00" height="16.00" fill="#fcfdfe" />
<rect x="112.00" y="880.00" width="16.00" height="528.00" fill="#fcfdfe" />
<rect x="224.00" y="880.00" width="16.00" height="448.00" fill="#fcfdfe" />
<rect x="1088.00" y="880.00" width="16.00" height="560.00" fill="#fcfdfe" />
<rect x="32.00" y="896.00" width="80.00" height="160.00" fill="#fcfdfe" />
<rect x="128.00" y="896.00" width="64.00" height="160.00" fill="#fcfdfe" />
<rect x="1024.00" y="896.00" width="64.00" height="80.00" fill="#fcfdfe" />
<rect x="1104.00" y="896.00" width="96.00" height="80.00" fill="#fcfdfe" />
<rect x="240.00" y="928.00" width="32.00" height="176.00" fill="#fcfdfe" />
<rect x="288.00" y="928.00" width="48.00" height="176.00" fill="#fcfdfe" />
<rect x="1040.00" y="1024.00" width="48.00" height="96.00" fill="#fcfdfe" />
<rect x="544.00" y="1056.00" width="160.00" height="192.00" fill="#fcfdfe" />
<rect x="1408.00" y="1056.00" width="16.00" height="80.00" fill="#fcfdfe" />
<rect x="432.00" y="1072.00" width="96.00" height="16.00" fill="#fcfdfe" />
<rect x="704.00" y="1072.00" width="224.00" height="16.00" fill="#fcfdfe" />
<rect x="944.00" y="1072.00" width="96.00" height="16.00" fill="#fcfdfe" />
<rect x="1296.00" y="1088.00" width="32.00" height="16.00" fill="#fcfdfe" />
<rect x="1344.00" y="1088.00" width="32.00" height="16.00" fill="#fcfdfe" />
<rect x="192.00" y="1136.00" width="32.00" height="192.00" fill="#fcfdfe" />
<rect x="240.00" y="1136.00" width="16.00" height="192.00" fill="#fcfdfe" />
<rect x="896.00" y="1136.00" width="32.00" height="64.00" fill="#fcfdfe" />
<rect x="944.00" y="1136.00" width="32.00" height="64.00" fill="#fcfdfe" />
<rect x="1376.00" y="1136.00" width="16.00" height="192.00" fill="#fcfdfe" />
<rect x="704.00" y="1152.00" width="192.00" height="16.00" fill="#fcfdfe" />
<rect x="976.00" y="1152.00" width="112.00" height="16.00" fill="#fcfdfe" />
<rect x="1104.00" y="1152.00" width="224.00" height="16.00" fill="#fcfdfe" />
<rect x="1360.00" y="1152.00" width="16.00" height="176.00" fill="#fcfdfe" />
<rect x="1392.00" y="1152.00" width="16.00" height="176.00" fill="#fcfdfe" />
<rect x="256.00" y="1232.00" width="16.00" height="16.00" fill="#fcfdfe" />
<rect x="288.00" y="1232.00" width="96.00" height="16.00" fill="#fcfdfe" />
<rect x="400.00" y="1232.00" width="16.00" height="16.00" fill="#fcfdfe" />
<rect x="432.00" y="1232.00" width="96.00" height="16.00" fill="#fcfdfe" />
<rect x="704.00" y="1232.00" width="384.00" height="16.00" fill="#fcfdfe" />
<rect x="1104.00" y="1232.00" width="256.00" height="16.00" fill="#fcfdfe" />
<rect x="1408.00" y="1232.00" width="16.00" height="16.00" fill="#fcfdfe" />
<rect x="832.00" y="1248.00" width="144.00" height="160.00" fill="#fcfdfe" />
<rect x="1184.00" y="1248.00" width="16.00" height="240.00" fill="#fcfdfe" />
<rect x="304.00" y="1264.00" width="80.00" height="64.00" fill="#fcfdfe" />
<rect x="400.00" y="1264.00" width="16.00" height="64.00" fill="#fcfdfe" />
<rect x="432.00" y="1264.00" width="32.00" height="64.00" fill="#fcfdfe" />
<rect x="128.00" y="1280.00" width="64.00" height="16.00" fill="#fcfdfe" />
<rect x="256.00" y="1280.00" width="16.00" height="16.00" fill="#fcfdfe" />
<rect x="288.00" y="1280.00" width="16.00" height="16.00" fill="#fcfdfe" />
<rect x="1168.00" y="1296.00" width="16.00" height="192.00" fill="#fcfdfe" />
<rect x="1200.00" y="1296.00" width="16.00" height="192.00" fill="#fcfdfe" />
<rect x="256.00" y="1312.00" width="48.00" height="16.00" fill="#fcfdfe" />
<rect x="464.00" y="1312.00" width="64.00" height="16.00" fill="#fcfdfe" />
<rect x="544.00" y="1312.00" width="288.00" height="16.00" fill="#fcfdfe" />
<rect x="976.00" y="1312.00" width="112.00" height="16.00" fill="#fcfdfe" />
<rect x="128.00" y="1392.00" width="400.00" height="16.00" fill="#fcfdfe" />
<rect x="544.00" y="1392.00" width="288.00" height="16.00" fill="#fcfdfe" />
<rect x="976.00" y="1392.00" width="112.00" height="16.00" fill="#fcfdfe" />
<rect x="1104.00" y="1392.00" width="64.00" height="16.00" fill="#fcfdfe" />
<rect x="480.00" y="1408.00" width="48.00" height="48.00" fill="#fcfdfe" />
<rect x="544.00" y="1408.00" width="48.00" height="48.00" fill="#fcfdfe" />
<rect x="592.00" y="1424.00" width="496.00" height="16.00" fill="#fcfdfe" />
  </g>
  <g class="grid">
<line x1="0.00" y1="0" x2="0.00" y2="1536.00" />
<line x1="16.00" y1="0" x2="16.00" y2="1536.00" />
<line x1="32.00" y1="0" x2="32.00" y2="1536.00" />
<line x1="48.00" y1="0" x2="48.00" y2="1536.00" />
<line x1="64.00" y1="0" x2="64.00" y2="1536.00" />
<line x1="80.00" y1="0" x2="80.00" y2="1536.00" />
<line x1="96.00" y1="0" x2="96.00" y2="1536.00" />
<line x1="112.00" y1="0" x2="112.00" y2="1536.00" />
<line x1="128.00" y1="0" x2="128.00" y2="1536.00" />
<line x1="144.00" y1="0" x2="144.00" y2="1536.00" />
<line x1="160.00" y1="0" x2="160.00" y2="1536.00" />
<line x1="176.00" y1="0" x2="176.00" y2="1536.00" />
<line x1="192.00" y1="0" x2="192.00" y2="1536.00" />
<line x1="208.00" y1="0" x2="208.00" y2="1536.00" />
<line x1="224.00" y1="0" x2="224.00" y2="1536.00" />
<line x1="240.00" y1="0" x2="240.00" y2="1536.00" />
<line x1="256.00" y1="0" x2="256.00" y2="1536.00" />
<line x1="272.00" y1="0" x2="272.00" y2="1536.00" />
<line x1="288.00" y1="0" x2="288.00" y2="1536.00" />
<line x1="304.00" y1="0" x2="304.00" y2="1536.00" />
<line x1="320.00" y1="0" x2="320.00" y2="1536.00" />
<line x1="336.00" y1="0" x2="336.00" y2="1536.00" />
<line x1="352.00" y1="0" x2="352.00" y2="1536.00" />
<line x1="368.00" y1="0" x2="368.00" y2="1536.00" />
<line x1="384.00" y1="0" x2="384.00" y2="1536.00" />
<line x1="400.00" y1="0" x2="400.00" y2="1536.00" />
<line x1="416.00" y1="0" x2="416.00" y2="1536.00" />
<line x1="432.00" y1="0" x2="432.00" y2="1536.00" />
<line x1="448.00" y1="0" x2="448.00" y2="1536.00" />
<line x1="464.00" y1="0" x2="464.00" y2="1536.00" />
<line x1="480.00" y1="0" x2="480.00" y2="1536.00" />
<line x1="496.00" y1="0" x2="496.00" y2="1536.00" />
<line x1="512.00" y1="0" x2="512.00" y2="1536.00" />
<line x1="528.00" y1="0" x2="528.00" y2="1536.00" />
<line x1="544.00" y1="0" x2="544.00" y2="1536.00" />
<line x1="560.00" y1="0" x2="560.00" y2="1536.00" />
<line x1="576.00" y1="0" x2="576.00" y2="1536.00" />
<line x1="592.00" y1="0" x2="592.00" y2="1536.00" />
<line x1="608.00" y1="0" x2="608.00" y2="1536.00" />
<line x1="624.00" y1="0" x2="624.00" y2="1536.00" />
<line x1="640.00" y1="0" x2="640.00" y2="1536.00" />
<line x1="656.00" y1="0" x2="656.00" y2="1536.00" />
<line x1="672.00" y1="0" x2="672.00" y2="1536.00" />
<line x1="688.00" y1="0" x2="688.00" y2="1536.00" />
<line x1="704.00" y1="0" x2="704.00" y2="1536.00" />
<line x1="720.00" y1="0" x2="720.00" y2="1536.00" />
<line x1="736.00" y1="0" x2="736.00" y2="1536.00" />
<line x1="752.00" y1="0" x2="752.00" y2="1536.00" />
<line x1="768.00" y1="0" x2="768.00" y2="1536.00" />
<line x1="784.00" y1="0" x2="784.00" y2="1536.00" />
<line x1="800.00" y1="0" x2="800.00" y2="1536.00" />
<line x1="816.00" y1="0" x2="816.00" y2="1536.00" />
<line x1="832.00" y1="0" x2="832.00" y2="1536.00" />
<line x1="848.00" y1="0" x2="848.00" y2="1536.00" />
<line x1="864.00" y1="0" x2="864.00" y2="1536.00" />
<line x1="880.00" y1="0" x2="880.00" y2="1536.00" />
<line x1="896.00" y1="0" x2="896.00" y2="1536.00" />
<line x1="912.00" y1="0" x2="912.00" y2="1536.00" />
<line x1="928.00" y1="0" x2="928.00" y2="1536.00" />
<line x1="944.00" y1="0" x2="944.00" y2="1536.00" />
<line x1="960.00" y1="0" x2="960.00" y2="1536.00" />
<line x1="976.00" y1="0" x2="976.00" y2="1536.00" />
<line x1="992.00" y1="0" x2="992.00" y2="1536.00" />
<line x1="1008.00" y1="0" x2="1008.00" y2="1536.00" />
<line x1="1024.00" y1="0" x2="1024.00" y2="1536.00" />
<line x1="1040.00" y1="0" x2="1040.00" y2="1536.00" />
<line x1="1056.00" y1="0" x2="1056.00" y2="1536.00" />
<line x1="1072.00" y1="0" x2="1072.00" y2="1536.00" />
<line x1="1088.00" y1="0" x2="1088.00" y2="1536.00" />
<line x1="1104.00" y1="0" x2="1104.00" y2="1536.00" />
<line x1="1120.00" y1="0" x2="1120.00" y2="1536.00" />
<line x1="1136.00" y1="0" x2="1136.00" y2="1536.00" />
<line x1="1152.00" y1="0" x2="1152.00" y2="1536.00" />
<line x1="1168.00" y1="0" x2="1168.00" y2="1536.00" />
<line x1="1184.00" y1="0" x2="1184.00" y2="1536.00" />
<line x1="1200.00" y1="0" x2="1200.00" y2="1536.00" />
<line x1="1216.00" y1="0" x2="1216.00" y2="1536.00" />
<line x1="1232.00" y1="0" x2="1232.00" y2="1536.00" />
<line x1="1248.00" y1="0" x2="1248.00" y2="1536.00" />
<line x1="1264.00" y1="0" x2="1264.00" y2="1536.00" />
<line x1="1280.00" y1="0" x2="1280.00" y2="1536.00" />
<line x1="1296.00" y1="0" x2="1296.00" y2="1536.00" />
<line x1="1312.00" y1="0" x2="1312.00" y2="1536.00" />
<line x1="1328.00" y1="0" x2="1328.00" y2="1536.00" />
<line x1="1344.00" y1="0" x2="1344.00" y2="1536.00" />
<line x1="1360.00" y1="0" x2="1360.00" y2="1536.00" />
<line x1="1376.00" y1="0" x2="1376.00" y2="1536.00" />
<line x1="1392.00" y1="0" x2="1392.00" y2="1536.00" />
<line x1="1408.00" y1="0" x2="1408.00" y2="1536.00" />
<line x1="1424.00" y1="0" x2="1424.00" y2="1536.00" />
<line x1="1440.00" y1="0" x2="1440.00" y2="1536.00" />
<line x1="1456.00" y1="0" x2="1456.00" y2="1536.00" />
<line x1="1472.00" y1="0" x2="1472.00" y2="1536.00" />
<line x1="1488.00" y1="0" x2="1488.00" y2="1536.00" />
<line x1="0" y1="0.00" x2="1488.00" y2="0.00" />
<line x1="0" y1="16.00" x2="1488.00" y2="16.00" />
<line x1="0" y1="32.00" x2="1488.00" y2="32.00" />
<line x1="0" y1="48.00" x2="1488.00" y2="48.00" />
<line x1="0" y1="64.00" x2="1488.00" y2="64.00" />
<line x1="0" y1="80.00" x2="1488.00" y2="80.00" />
<line x1="0" y1="96.00" x2="1488.00" y2="96.00" />
<line x1="0" y1="112.00" x2="1488.00" y2="112.00" />
<line x1="0" y1="128.00" x2="1488.00" y2="128.00" />
<line x1="0" y1="144.00" x2="1488.00" y2="144.00" />
<line x1="0" y1="160.00" x2="1488.00" y2="160.00" />
<line x1="0" y1="176.00" x2="1488.00" y2="176.00" />
<line x1="0" y1="192.00" x2="1488.00" y2="192.00" />
<line x1="0" y1="208.00" x2="1488.00" y2="208.00" />
<line x1="0" y1="224.00" x2="1488.00" y2="224.00" />
<line x1="0" y1="240.00" x2="1488.00" y2="240.00" />
<line x1="0" y1="256.00" x2="1488.00" y2="256.00" />
<line x1="0" y1="272.00" x2="1488.00" y2="272.00" />
<line x1="0" y1="288.00" x2="1488.00" y2="288.00" />
<line x1="0" y1="304.00" x2="1488.00" y2="304.00" />
<line x1="0" y1="320.00" x2="1488.00" y2="320.00" />
<line x1="0" y1="336.00" x2="1488.00" y2="336.00" />
<line x1="0" y1="352.00" x2="1488.00" y2="352.00" />
<line x1="0" y1="368.00" x2="1488.00" y2="368.00" />
<line x1="0" y1="384.00" x2="1488.00" y2="384.00" />
<line x1="0" y1="400.00" x2="1488.00" y2="400.00" />
<line x1="0" y1="416.00" x2="1488.00" y2="416.00" />
<line x1="0" y1="432.00" x2="1488.00" y2="432.00" />
<line x1="0" y1="448.00" x2="1488.00" y2="448.00" />
<line x1="0" y1="464.00" x2="1488.00" y2="464.00" />
<line x1="0" y1="480.00" x2="1488.00" y2="480.00" />
<line x1="0" y1="496.00" x2="1488.00" y2="496.00" />
<line x1="0" y1="512.00" x2="1488.00" y2="512.00" />
<line x1="0" y1="528.00" x2="1488.00" y2="528.00" />
<line x1="0" y1="544.00" x2="1488.00" y2="544.00" />
<line x1="0" y1="560.00" x2="1488.00" y2="560.00" />
<line x1="0" y1="576.00" x2="1488.00" y2="576.00" />
<line x1="0" y1="592.00" x2="1488.00" y2="592.00" />
<line x1="0" y1="608.00" x2="1488.00" y2="608.00" />
<line x1="0" y1="624.00" x2="1488.00" y2="624.00" />
<line x1="0" y1="640.00" x2="1488.00" y2="640.00" />
<line x1="0" y1="656.00" x2="1488.00" y2="656.00" />
<line x1="0" y1="672.00" x2="1488.00" y2="672.00" />
<line x1="0" y1="688.00" x2="1488.00" y2="688.00" />
<line x1="0" y1="704.00" x2="1488.00" y2="704.00" />
<line x1="0" y1="720.00" x2="1488.00" y2="720.00" />
<line x1="0" y1="736.00" x2="1488.00" y2="736.00" />
<line x1="0" y1="752.00" x2="1488.00" y2="752.00" />
<line x1="0" y1="768.00" x2="1488.00" y2="768.00" />
<line x1="0" y1="784.00" x2="1488.00" y2="784.00" />
<line x1="0" y1="800.00" x2="1488.00" y2="800.00" />
<line x1="0" y1="816.00" x2="1488.00" y2="816.00" />
<line x1="0" y1="832.00" x2="1488.00" y2="832.00" />
<line x1="0" y1="848.00" x2="1488.00" y2="848.00" />
<line x1="0" y1="864.00" x2="1488.00" y2="864.00" />
<line x1="0" y1="880.00" x2="1488.00" y2="880.00" />
<line x1="0" y1="896.00" x2="1488.00" y2="896.00" />
<line x1="0" y1="912.00" x2="1488.00" y2="912.00" />
<line x1="0" y1="928.00" x2="1488.00" y2="928.00" />
<line x1="0" y1="944.00" x2="1488.00" y2="944.00" />
<line x1="0" y1="960.00" x2="1488.00" y2="960.00" />
<line x1="0" y1="976.00" x2="1488.00" y2="976.00" />
<line x1="0" y1="992.00" x2="1488.00" y2="992.00" />
<line x1="0" y1="1008.00" x2="1488.00" y2="1008.00" />
<line x1="0" y1="1024.00" x2="1488.00" y2="1024.00" />
<line x1="0" y1="1040.00" x2="1488.00" y2="1040.00" />
<line x1="0" y1="1056.00" x2="1488.00" y2="1056.00" />
<line x1="0" y1="1072.00" x2="1488.00" y2="1072.00" />
<line x1="0" y1="1088.00" x2="1488.00" y2="1088.00" />
<line x1="0" y1="1104.00" x2="1488.00" y2="1104.00" />
<line x1="0" y1="1120.00" x2="1488.00" y2="1120.00" />
<line x1="0" y1="1136.00" x2="1488.00" y2="1136.00" />
<line x1="0" y1="1152.00" x2="1488.00" y2="1152.00" />
<line x1="0" y1="1168.00" x2="1488.00" y2="1168.00" />
<line x1="0" y1="1184.00" x2="1488.00" y2="1184.00" />
<line x1="0" y1="1200.00" x2="1488.00" y2="1200.00" />
<line x1="0" y1="1216.00" x2="1488.00" y2="1216.00" />
<line x1="0" y1="1232.00" x2="1488.00" y2="1232.00" />
<line x1="0" y1="1248.00" x2="1488.00" y2="1248.00" />
<line x1="0" y1="1264.00" x2="1488.00" y2="1264.00" />
<line x1="0" y1="1280.00" x2="1488.00" y2="1280.00" />
<line x1="0" y1="1296.00" x2="1488.00" y2="1296.00" />
<line x1="0" y1="1312.00" x2="1488.00" y2="1312.00" />
<line x1="0" y1="1328.00" x2="1488.00" y2="1328.00" />
<line x1="0" y1="1344.00" x2="1488.00" y2="1344.00" />
<line x1="0" y1="1360.00" x2="1488.00" y2="1360.00" />
<line x1="0" y1="1376.00" x2="1488.00" y2="1376.00" />
<line x1="0" y1="1392.00" x2="1488.00" y2="1392.00" />
<line x1="0" y1="1408.00" x2="1488.00" y2="1408.00" />
<line x1="0" y1="1424.00" x2="1488.00" y2="1424.00" />
<line x1="0" y1="1440.00" x2="1488.00" y2="1440.00" />
<line x1="0" y1="1456.00" x2="1488.00" y2="1456.00" />
<line x1="0" y1="1472.00" x2="1488.00" y2="1472.00" />
<line x1="0" y1="1488.00" x2="1488.00" y2="1488.00" />
<line x1="0" y1="1504.00" x2="1488.00" y2="1504.00" />
<line x1="0" y1="1520.00" x2="1488.00" y2="1520.00" />
<line x1="0" y1="1536.00" x2="1488.00" y2="1536.00" />
  </g>
  <g class="walls">
<line x1="320.00" y1="80.00" x2="512.00" y2="80.00" />
<line x1="544.00" y1="112.00" x2="736.00" y2="112.00" />
<line x1="512.00" y1="144.00" x2="544.00" y2="144.00" />
<line x1="736.00" y1="144.00" x2="1440.00" y2="144.00" />
<line x1="208.00" y1="160.00" x2="272.00" y2="160.00" />
<line x1="512.00" y1="160.00" x2="544.00" y2="160.00" />
<line x1="736.00" y1="160.00" x2="1424.00" y2="160.00" />
<line x1="288.00" y1="192.00" x2="320.00" y2="192.00" />
<line x1="512.00" y1="192.00" x2="544.00" y2="192.00" />
<line x1="736.00" y1="192.00" x2="1024.00" y2="192.00" />
<line x1="304.00" y1="208.00" x2="320.00" y2="208.00" />
<line x1="512.00" y1="208.00" x2="544.00" y2="208.00" />
<line x1="736.00" y1="208.00" x2="1008.00" y2="208.00" />
<line x1="320.00" y1="224.00" x2="416.00" y2="224.00" />
<line x1="432.00" y1="224.00" x2="512.00" y2="224.00" />
<line x1="800.00" y1="240.00" x2="880.00" y2="240.00" />
<line x1="272.00" y1="256.00" x2="288.00" y2="256.00" />
<line x1="304.00" y1="256.00" x2="416.00" y2="256.00" />
<line x1="432.00" y1="256.00" x2="544.00" y2="256.00" />
<line x1="736.00" y1="256.00" x2="800.00" y2="256.00" />
<line x1="880.00" y1="256.00" x2="944.00" y2="256.00" />
<line x1="272.00" y1="272.00" x2="288.00" y2="272.00" />
<line x1="304.00" y1="272.00" x2="416.00" y2="272.00" />
<line x1="432.00" y1="272.00" x2="640.00" y2="272.00" />
<line x1="656.00" y1="272.00" x2="800.00" y2="272.00" />
<line x1="880.00" y1="272.00" x2="928.00" y2="272.00" />
<line x1="528.00" y1="320.00" x2="640.00" y2="320.00" />
<line x1="656.00" y1="320.00" x2="800.00" y2="320.00" />
<line x1="544.00" y1="336.00" x2="640.00" y2="336.00" />
<line x1="656.00" y1="336.00" x2="800.00" y2="336.00" />
<line x1="208.00" y1="368.00" x2="272.00" y2="368.00" />
<line x1="1296.00" y1="368.00" x2="1360.00" y2="368.00" />
<line x1="976.00" y1="384.00" x2="1008.00" y2="384.00" />
<line x1="1024.00" y1="384.00" x2="1056.00" y2="384.00" />
<line x1="800.00" y1="416.00" x2="832.00" y2="416.00" />
<line x1="848.00" y1="416.00" x2="880.00" y2="416.00" />
<line x1="240.00" y1="432.00" x2="288.00" y2="432.00" />
<line x1="304.00" y1="432.00" x2="416.00" y2="432.00" />
<line x1="432.00" y1="432.00" x2="528.00" y2="432.00" />
<line x1="544.00" y1="432.00" x2="640.00" y2="432.00" />
<line x1="656.00" y1="432.00" x2="832.00" y2="432.00" />
<line x1="848.00" y1="432.00" x2="928.00" y2="432.00" />
<line x1="944.00" y1="432.00" x2="976.00" y2="432.00" />
<line x1="1056.00" y1="432.00" x2="1296.00" y2="432.00" />
<line x1="352.00" y1="448.00" x2="384.00" y2="448.00" />
<line x1="400.00" y1="448.00" x2="416.00" y2="448.00" />
<line x1="432.00" y1="448.00" x2="528.00" y2="448.00" />
<line x1="544.00" y1="448.00" x2="576.00" y2="448.00" />
<line x1="768.00" y1="448.00" x2="832.00" y2="448.00" />
<line x1="848.00" y1="448.00" x2="928.00" y2="448.00" />
<line x1="944.00" y1="448.00" x2="976.00" y2="448.00" />
<line x1="1056.00" y1="448.00" x2="1296.00" y2="448.00" />
<line x1="352.00" y1="464.00" x2="384.00" y2="464.00" />
<line x1="400.00" y1="464.00" x2="416.00" y2="464.00" />
<line x1="432.00" y1="464.00" x2="528.00" y2="464.00" />
<line x1="544.00" y1="464.00" x2="576.00" y2="464.00" />
<line x1="768.00" y1="464.00" x2="832.00" y2="464.00" />
<line x1="848.00" y1="464.00" x2="928.00" y2="464.00" />
<line x1="944.00" y1="464.00" x2="976.00" y2="464.00" />
<line x1="352.00" y1="480.00" x2="384.00" y2="480.00" />
<line x1="400.00" y1="480.00" x2="416.00" y2="480.00" />
<line x1="432.00" y1="480.00" x2="528.00" y2="480.00" />
<line x1="544.00" y1="480.00" x2="576.00" y2="480.00" />
<line x1="768.00" y1="480.00" x2="928.00" y2="480.00" />
<line x1="944.00" y1="480.00" x2="976.00" y2="480.00" />
<line x1="240.00" y1="512.00" x2="272.00" y2="512.00" />
<line x1="304.00" y1="512.00" x2="352.00" y2="512.00" />
<line x1="1296.00" y1="512.00" x2="1328.00" y2="512.00" />
<line x1="1344.00" y1="512.00" x2="1360.00" y2="512.00" />
<line x1="976.00" y1="560.00" x2="1008.00" y2="560.00" />
<line x1="1024.00" y1="560.00" x2="1056.00" y2="560.00" />
<line x1="576.00" y1="608.00" x2="672.00" y2="608.00" />
<line x1="688.00" y1="608.00" x2="768.00" y2="608.00" />
<line x1="1408.00" y1="608.00" x2="1424.00" y2="608.00" />
<line x1="1440.00" y1="608.00" x2="1456.00" y2="608.00" />
<line x1="480.00" y1="640.00" x2="528.00" y2="640.00" />
<line x1="544.00" y1="640.00" x2="560.00" y2="640.00" />
<line x1="1200.00" y1="640.00" x2="1328.00" y2="640.00" />
<line x1="1344.00" y1="640.00" x2="1360.00" y2="640.00" />
<line x1="288.00" y1="672.00" x2="384.00" y2="672.00" />
<line x1="400.00" y1="672.00" x2="416.00" y2="672.00" />
<line x1="432.00" y1="672.00" x2="480.00" y2="672.00" />
<line x1="304.00" y1="656.00" x2="384.00" y2="656.00" />
<line x1="400.00" y1="656.00" x2="416.00" y2="656.00" />
<line x1="432.00" y1="656.00" x2="480.00" y2="656.00" />
<line x1="1040.00" y1="656.00" x2="1152.00" y2="656.00" />
<line x1="480.00" y1="688.00" x2="528.00" y2="688.00" />
<line x1="544.00" y1="688.00" x2="560.00" y2="688.00" />
<line x1="432.00" y1="720.00" x2="528.00" y2="720.00" />
<line x1="544.00" y1="720.00" x2="672.00" y2="720.00" />
<line x1="688.00" y1="720.00" x2="928.00" y2="720.00" />
<line x1="944.00" y1="720.00" x2="1008.00" y2="720.00" />
<line x1="1024.00" y1="720.00" x2="1040.00" y2="720.00" />
<line x1="1152.00" y1="720.00" x2="1200.00" y2="720.00" />
<line x1="624.00" y1="736.00" x2="928.00" y2="736.00" />
<line x1="944.00" y1="736.00" x2="1008.00" y2="736.00" />
<line x1="1024.00" y1="736.00" x2="1040.00" y2="736.00" />
<line x1="1152.00" y1="736.00" x2="1200.00" y2="736.00" />
<line x1="1152.00" y1="752.00" x2="1200.00" y2="752.00" />
<line x1="1360.00" y1="752.00" x2="1408.00" y2="752.00" />
<line x1="1152.00" y1="768.00" x2="1200.00" y2="768.00" />
<line x1="1360.00" y1="768.00" x2="1376.00" y2="768.00" />
<line x1="1408.00" y1="768.00" x2="1424.00" y2="768.00" />
<line x1="1440.00" y1="768.00" x2="1456.00" y2="768.00" />
<line x1="672.00" y1="784.00" x2="800.00" y2="784.00" />
<line x1="1200.00" y1="800.00" x2="1280.00" y2="800.00" />
<line x1="1296.00" y1="800.00" x2="1328.00" y2="800.00" />
<line x1="1344.00" y1="800.00" x2="1360.00" y2="800.00" />
<line x1="112.00" y1="864.00" x2="272.00" y2="864.00" />
<line x1="288.00" y1="864.00" x2="384.00" y2="864.00" />
<line x1="400.00" y1="864.00" x2="416.00" y2="864.00" />
<line x1="624.00" y1="864.00" x2="672.00" y2="864.00" />
<line x1="800.00" y1="864.00" x2="928.00" y2="864.00" />
<line x1="944.00" y1="864.00" x2="1008.00" y2="864.00" />
<line x1="1024.00" y1="864.00" x2="1040.00" y2="864.00" />
<line x1="1152.00" y1="864.00" x2="1280.00" y2="864.00" />
<line x1="1296.00" y1="864.00" x2="1328.00" y2="864.00" />
<line x1="1344.00" y1="864.00" x2="1376.00" y2="864.00" />
<line x1="128.00" y1="880.00" x2="224.00" y2="880.00" />
<line x1="240.00" y1="880.00" x2="272.00" y2="880.00" />
<line x1="288.00" y1="880.00" x2="384.00" y2="880.00" />
<line x1="400.00" y1="880.00" x2="416.00" y2="880.00" />
<line x1="624.00" y1="880.00" x2="672.00" y2="880.00" />
<line x1="800.00" y1="880.00" x2="928.00" y2="880.00" />
<line x1="944.00" y1="880.00" x2="1008.00" y2="880.00" />
<line x1="1024.00" y1="880.00" x2="1088.00" y2="880.00" />
<line x1="1104.00" y1="880.00" x2="1280.00" y2="880.00" />
<line x1="1296.00" y1="880.00" x2="1328.00" y2="880.00" />
<line x1="1344.00" y1="880.00" x2="1376.00" y2="880.00" />
<line x1="32.00" y1="896.00" x2="112.00" y2="896.00" />
<line x1="128.00" y1="896.00" x2="192.00" y2="896.00" />
<line x1="1024.00" y1="896.00" x2="1088.00" y2="896.00" />
<line x1="1104.00" y1="896.00" x2="1200.00" y2="896.00" />
<line x1="240.00" y1="928.00" x2="272.00" y2="928.00" />
<line x1="288.00" y1="928.00" x2="336.00" y2="928.00" />
<line x1="432.00" y1="944.00" x2="528.00" y2="944.00" />
<line x1="544.00" y1="944.00" x2="624.00" y2="944.00" />
<line x1="672.00" y1="960.00" x2="800.00" y2="960.00" />
<line x1="1008.00" y1="976.00" x2="1088.00" y2="976.00" />
<line x1="1104.00" y1="976.00" x2="1200.00" y2="976.00" />
<line x1="1040.00" y1="1024.00" x2="1088.00" y2="1024.00" />
<line x1="32.00" y1="1056.00" x2="112.00" y2="1056.00" />
<line x1="128.00" y1="1056.00" x2="192.00" y2="1056.00" />
<line x1="544.00" y1="1056.00" x2="704.00" y2="1056.00" />
<line x1="1408.00" y1="1056.00" x2="1424.00" y2="1056.00" />
<line x1="432.00" y1="1072.00" x2="528.00" y2="1072.00" />
<line x1="704.00" y1="1072.00" x2="928.00" y2="1072.00" />
<line x1="944.00" y1="1072.00" x2="1040.00" y2="1072.00" />
<line x1="432.00" y1="1088.00" x2="528.00" y2="1088.00" />
<line x1="704.00" y1="1088.00" x2="928.00" y2="1088.00" />
<line x1="944.00" y1="1088.00" x2="1040.00" y2="1088.00" />
<line x1="1296.00" y1="1088.00" x2="1328.00" y2="1088.00" />
<line x1="1344.00" y1="1088.00" x2="1376.00" y2="1088.00" />
<line x1="240.00" y1="1104.00" x2="272.00" y2="1104.00" />
<line x1="288.00" y1="1104.00" x2="336.00" y2="1104.00" />
<line x1="1280.00" y1="1104.00" x2="1328.00" y2="1104.00" />
<line x1="1344.00" y1="1104.00" x2="1376.00" y2="1104.00" />
<line x1="1040.00" y1="1120.00" x2="1088.00" y2="1120.00" />
<line x1="192.00" y1="1136.00" x2="224.00" y2="1136.00" />
<line x1="240.00" y1="1136.00" x2="256.00" y2="1136.00" />
<line x1="896.00" y1="1136.00" x2="928.00" y2="1136.00" />
<line x1="944.00" y1="1136.00" x2="976.00" y2="1136.00" />
<line x1="1392.00" y1="1136.00" x2="1424.00" y2="1136.00" />
<line x1="704.00" y1="1152.00" x2="896.00" y2="1152.00" />
<line x1="976.00" y1="1152.00" x2="1088.00" y2="1152.00" />
<line x1="1104.00" y1="1152.00" x2="1328.00" y2="1152.00" />
<line x1="1360.00" y1="1152.00" x2="1376.00" y2="1152.00" />
<line x1="1392.00" y1="1152.00" x2="1408.00" y2="1152.00" />
<line x1="704.00" y1="1168.00" x2="896.00" y2="1168.00" />
<line x1="976.00" y1="1168.00" x2="1088.00" y2="1168.00" />
<line x1="1104.00" y1="1168.00" x2="1344.00" y2="1168.00" />
<line x1="896.00" y1="1200.00" x2="976.00" y2="1200.00" />
<line x1="256.00" y1="1232.00" x2="272.00" y2="1232.00" />
<line x1="288.00" y1="1232.00" x2="384.00" y2="1232.00" />
<line x1="400.00" y1="1232.00" x2="416.00" y2="1232.00" />
<line x1="432.00" y1="1232.00" x2="528.00" y2="1232.00" />
<line x1="704.00" y1="1232.00" x2="1088.00" y2="1232.00" />
<line x1="1104.00" y1="1232.00" x2="1360.00" y2="1232.00" />
<line x1="1408.00" y1="1232.00" x2="1424.00" y2="1232.00" />
<line x1="256.00" y1="1248.00" x2="272.00" y2="1248.00" />
<line x1="288.00" y1="1248.00" x2="384.00" y2="1248.00" />
<line x1="400.00" y1="1248.00" x2="416.00" y2="1248.00" />
<line x1="432.00" y1="1248.00" x2="528.00" y2="1248.00" />
<line x1="544.00" y1="1248.00" x2="832.00" y2="1248.00" />
<line x1="976.00" y1="1248.00" x2="1088.00" y2="1248.00" />
<line x1="1104.00" y1="1248.00" x2="1184.00" y2="1248.00" />
<line x1="1200.00" y1="1248.00" x2="1360.00" y2="1248.00" />
<line x1="1408.00" y1="1248.00" x2="1440.00" y2="1248.00" />
<line x1="304.00" y1="1264.00" x2="384.00" y2="1264.00" />
<line x1="400.00" y1="1264.00" x2="416.00" y2="1264.00" />
<line x1="432.00" y1="1264.00" x2="464.00" y2="1264.00" />
<line x1="128.00" y1="1280.00" x2="192.00" y2="1280.00" />
<line x1="256.00" y1="1280.00" x2="272.00" y2="1280.00" />
<line x1="288.00" y1="1280.00" x2="304.00" y2="1280.00" />
<line x1="128.00" y1="1296.00" x2="192.00" y2="1296.00" />
<line x1="256.00" y1="1296.00" x2="304.00" y2="1296.00" />
<line x1="1168.00" y1="1296.00" x2="1184.00" y2="1296.00" />
<line x1="1200.00" y1="1296.00" x2="1216.00" y2="1296.00" />
<line x1="192.00" y1="1328.00" x2="528.00" y2="1328.00" />
<line x1="544.00" y1="1328.00" x2="832.00" y2="1328.00" />
<line x1="976.00" y1="1328.00" x2="1088.00" y2="1328.00" />
<line x1="1360.00" y1="1328.00" x2="1408.00" y2="1328.00" />
<line x1="256.00" y1="1312.00" x2="304.00" y2="1312.00" />
<line x1="464.00" y1="1312.00" x2="528.00" y2="1312.00" />
<line x1="544.00" y1="1312.00" x2="832.00" y2="1312.00" />
<line x1="976.00" y1="1312.00" x2="1088.00" y2="1312.00" />
<line x1="112.00" y1="1408.00" x2="480.00" y2="1408.00" />
<line x1="592.00" y1="1408.00" x2="1088.00" y2="1408.00" />
<line x1="1104.00" y1="1408.00" x2="1168.00" y2="1408.00" />
<line x1="128.00" y1="1392.00" x2="528.00" y2="1392.00" />
<line x1="544.00" y1="1392.00" x2="832.00" y2="1392.00" />
<line x1="976.00" y1="1392.00" x2="1088.00" y2="1392.00" />
<line x1="1104.00" y1="1392.00" x2="1168.00" y2="1392.00" />
<line x1="592.00" y1="1424.00" x2="1088.00" y2="1424.00" />
<line x1="592.00" y1="1440.00" x2="1104.00" y2="1440.00" />
<line x1="480.00" y1="1456.00" x2="592.00" y2="1456.00" />
<line x1="1168.00" y1="1488.00" x2="1216.00" y2="1488.00" />
<line x1="320.00" y1="80.00" x2="320.00" y2="192.00" />
<line x1="320.00" y1="208.00" x2="320.00" y2="224.00" />
<line x1="512.00" y1="80.00" x2="512.00" y2="144.00" />
<line x1="512.00" y1="160.00" x2="512.00" y2="192.00" />
<line x1="512.00" y1="208.00" x2="512.00" y2="224.00" />
<line x1="544.00" y1="112.00" x2="544.00" y2="144.00" />
<line x1="544.00" y1="160.00" x2="544.00" y2="192.00" />
<line x1="544.00" y1="208.00" x2="544.00" y2="256.00" />
<line x1="544.00" y1="336.00" x2="544.00" y2="432.00" />
<line x1="544.00" y1="448.00" x2="544.00" y2="464.00" />
<line x1="544.00" y1="480.00" x2="544.00" y2="640.00" />
<line x1="544.00" y1="688.00" x2="544.00" y2="720.00" />
<line x1="544.00" y1="944.00" x2="544.00" y2="1056.00" />
<line x1="544.00" y1="1248.00" x2="544.00" y2="1312.00" />
<line x1="544.00" y1="1328.00" x2="544.00" y2="1392.00" />
<line x1="736.00" y1="112.00" x2="736.00" y2="144.00" />
<line x1="736.00" y1="160.00" x2="736.00" y2="192.00" />
<line x1="736.00" y1="208.00" x2="736.00" y2="256.00" />
<line x1="1440.00" y1="144.00" x2="1440.00" y2="608.00" />
<line x1="1440.00" y1="768.00" x2="1440.00" y2="1248.00" />
<line x1="208.00" y1="160.00" x2="208.00" y2="368.00" />
<line x1="272.00" y1="160.00" x2="272.00" y2="256.00" />
<line x1="272.00" y1="272.00" x2="272.00" y2="368.00" />
<line x1="272.00" y1="512.00" x2="272.00" y2="864.00" />
<line x1="272.00" y1="880.00" x2="272.00" y2="928.00" />
<line x1="272.00" y1="1104.00" x2="272.00" y2="1232.00" />
<line x1="272.00" y1="1248.00" x2="272.00" y2="1280.00" />
<line x1="1424.00" y1="160.00" x2="1424.00" y2="608.00" />
<line x1="1424.00" y1="768.00" x2="1424.00" y2="1056.00" />
<line x1="1424.00" y1="1136.00" x2="1424.00" y2="1232.00" />
<line x1="288.00" y1="192.00" x2="288.00" y2="256.00" />
<line x1="288.00" y1="272.00" x2="288.00" y2="432.00" />
<line x1="288.00" y1="672.00" x2="288.00" y2="864.00" />
<line x1="288.00" y1="880.00" x2="288.00" y2="928.00" />
<line x1="288.00" y1="1104.00" x2="288.00" y2="1232.00" />
<line x1="288.00" y1="1248.00" x2="288.00" y2="1280.00" />
<line x1="1024.00" y1="192.00" x2="1024.00" y2="384.00" />
<line x1="1024.00" y1="560.00" x2="1024.00" y2="720.00" />
<line x1="1024.00" y1="736.00" x2="1024.00" y2="864.00" />
<line x1="1024.00" y1="880.00" x2="1024.00" y2="896.00" />
<line x1="304.00" y1="208.00" x2="304.00" y2="256.00" />
<line x1="304.00" y1="272.00" x2="304.00" y2="432.00" />
<line x1="304.00" y1="512.00" x2="304.00" y2="656.00" />
<line x1="304.00" y1="1264.00" x2="304.00" y2="1280.00" />
<line x1="304.00" y1="1296.00" x2="304.00" y2="1312.00" />
<line x1="1008.00" y1="208.00" x2="1008.00" y2="384.00" />
<line x1="1008.00" y1="560.00" x2="1008.00" y2="720.00" />
<line x1="1008.00" y1="736.00" x2="1008.00" y2="864.00" />
<line x1="1008.00" y1="880.00" x2="1008.00" y2="976.00" />
<line x1="416.00" y1="224.00" x2="416.00" y2="256.00" />
<line x1="416.00" y1="272.00" x2="416.00" y2="432.00" />
<line x1="416.00" y1="448.00" x2="416.00" y2="464.00" />
<line x1="416.00" y1="480.00" x2="416.00" y2="656.00" />
<line x1="416.00" y1="672.00" x2="416.00" y2="864.00" />
<line x1="416.00" y1="880.00" x2="416.00" y2="1232.00" />
<line x1="416.00" y1="1248.00" x2="416.00" y2="1264.00" />
<line x1="432.00" y1="224.00" x2="432.00" y2="256.00" />
<line x1="432.00" y1="272.00" x2="432.00" y2="432.00" />
<line x1="432.00" y1="448.00" x2="432.00" y2="464.00" />
<line x1="432.00" y1="480.00" x2="432.00" y2="656.00" />
<line x1="432.00" y1="672.00" x2="432.00" y2="720.00" />
<line x1="432.00" y1="944.00" x2="432.00" y2="1072.00" />
<line x1="432.00" y1="1088.00" x2="432.00" y2="1232.00" />
<line x1="432.00" y1="1248.00" x2="432.00" y2="1264.00" />
<line x1="800.00" y1="240.00" x2="800.00" y2="256.00" />
<line x1="800.00" y1="272.00" x2="800.00" y2="320.00" />
<line x1="800.00" y1="336.00" x2="800.00" y2="416.00" />
<line x1="800.00" y1="784.00" x2="800.00" y2="864.00" />
<line x1="800.00" y1="880.00" x2="800.00" y2="960.00" />
<line x1="880.00" y1="240.00" x2="880.00" y2="256.00" />
<line x1="880.00" y1="272.00" x2="880.00" y2="416.00" />
<line x1="944.00" y1="256.00" x2="944.00" y2="432.00" />
<line x1="944.00" y1="448.00" x2="944.00" y2="464.00" />
<line x1="944.00" y1="480.00" x2="944.00" y2="720.00" />
<line x1="944.00" y1="736.00" x2="944.00" y2="864.00" />
<line x1="944.00" y1="880.00" x2="944.00" y2="1072.00" />
<line x1="944.00" y1="1088.00" x2="944.00" y2="1136.00" />
<line x1="640.00" y1="272.00" x2="640.00" y2="320.00" />
<line x1="640.00" y1="336.00" x2="640.00" y2="432.00" />
<line x1="656.00" y1="272.00" x2="656.00" y2="320.00" />
<line x1="656.00" y1="336.00" x2="656.00" y2="432.00" />
<line x1="928.00" y1="272.00" x2="928.00" y2="432.00" />
<line x1="928.00" y1="448.00" x2="928.00" y2="464.00" />
<line x1="928.00" y1="480.00" x2="928.00" y2="720.00" />
<line x1="928.00" y1="736.00" x2="928.00" y2="864.00" />
<line x1="928.00" y1="880.00" x2="928.00" y2="1072.00" />
<line x1="928.00" y1="1088.00" x2="928.00" y2="1136.00" />
<line x1="528.00" y1="320.00" x2="528.00" y2="432.00" />
<line x1="528.00" y1="448.00" x2="528.00" y2="464.00" />
<line x1="528.00" y1="480.00" x2="528.00" y2="640.00" />
<line x1="528.00" y1="688.00" x2="528.00" y2="720.00" />
<line x1="528.00" y1="944.00" x2="528.00" y2="1072.00" />
<line x1="528.00" y1="1088.00" x2="528.00" y2="1232.00" />
<line x1="528.00" y1="1248.00" x2="528.00" y2="1312.00" />
<line x1="528.00" y1="1328.00" x2="528.00" y2="1392.00" />
<line x1="1296.00" y1="368.00" x2="1296.00" y2="432.00" />
<line x1="1296.00" y1="448.00" x2="1296.00" y2="512.00" />
<line x1="1296.00" y1="800.00" x2="1296.00" y2="864.00" />
<line x1="1296.00" y1="880.00" x2="1296.00" y2="1088.00" />
<line x1="1360.00" y1="368.00" x2="1360.00" y2="512.00" />
<line x1="1360.00" y1="640.00" x2="1360.00" y2="752.00" />
<line x1="1360.00" y1="768.00" x2="1360.00" y2="800.00" />
<line x1="1360.00" y1="1152.00" x2="1360.00" y2="1232.00" />
<line x1="1360.00" y1="1248.00" x2="1360.00" y2="1328.00" />
<line x1="976.00" y1="384.00" x2="976.00" y2="432.00" />
<line x1="976.00" y1="448.00" x2="976.00" y2="464.00" />
<line x1="976.00" y1="480.00" x2="976.00" y2="560.00" />
<line x1="976.00" y1="1136.00" x2="976.00" y2="1152.00" />
<line x1="976.00" y1="1168.00" x2="976.00" y2="1200.00" />
<line x1="976.00" y1="1248.00" x2="976.00" y2="1312.00" />
<line x1="976.00" y1="1328.00" x2="976.00" y2="1392.00" />
<line x1="1056.00" y1="384.00" x2="1056.00" y2="432.00" />
<line x1="1056.00" y1="448.00" x2="1056.00" y2="560.00" />
<line x1="832.00" y1="416.00" x2="832.00" y2="432.00" />
<line x1="832.00" y1="448.00" x2="832.00" y2="464.00" />
<line x1="832.00" y1="1248.00" x2="832.00" y2="1312.00" />
<line x1="832.00" y1="1328.00" x2="832.00" y2="1392.00" />
<line x1="848.00" y1="416.00" x2="848.00" y2="432.00" />
<line x1="848.00" y1="448.00" x2="848.00" y2="464.00" />
<line x1="240.00" y1="432.00" x2="240.00" y2="512.00" />
<line x1="240.00" y1="880.00" x2="240.00" y2="928.00" />
<line x1="240.00" y1="1104.00" x2="240.00" y2="1136.00" />
<line x1="352.00" y1="448.00" x2="352.00" y2="464.00" />
<line x1="352.00" y1="480.00" x2="352.00" y2="512.00" />
<line x1="384.00" y1="448.00" x2="384.00" y2="464.00" />
<line x1="384.00" y1="480.00" x2="384.00" y2="656.00" />
<line x1="384.00" y1="672.00" x2="384.00" y2="864.00" />
<line x1="384.00" y1="880.00" x2="384.00" y2="1232.00" />
<line x1="384.00" y1="1248.00" x2="384.00" y2="1264.00" />
<line x1="400.00" y1="448.00" x2="400.00" y2="464.00" />
<line x1="400.00" y1="480.00" x2="400.00" y2="656.00" />
<line x1="400.00" y1="672.00" x2="400.00" y2="864.00" />
<line x1="400.00" y1="880.00" x2="400.00" y2="1232.00" />
<line x1="400.00" y1="1248.00" x2="400.00" y2="1264.00" />
<line x1="576.00" y1="448.00" x2="576.00" y2="464.00" />
<line x1="576.00" y1="480.00" x2="576.00" y2="608.00" />
<line x1="768.00" y1="448.00" x2="768.00" y2="464.00" />
<line x1="768.00" y1="480.00" x2="768.00" y2="608.00" />
<line x1="1328.00" y1="512.00" x2="1328.00" y2="640.00" />
<line x1="1328.00" y1="800.00" x2="1328.00" y2="864.00" />
<line x1="1328.00" y1="880.00" x2="1328.00" y2="1088.00" />
<line x1="1328.00" y1="1104.00" x2="1328.00" y2="1152.00" />
<line x1="1344.00" y1="512.00" x2="1344.00" y2="640.00" />
<line x1="1344.00" y1="800.00" x2="1344.00" y2="864.00" />
<line x1="1344.00" y1="880.00" x2="1344.00" y2="1088.00" />
<line x1="1344.00" y1="1104.00" x2="1344.00" y2="1168.00" />
<line x1="672.00" y1="608.00" x2="672.00" y2="720.00" />
<line x1="672.00" y1="784.00" x2="672.00" y2="864.00" />
<line x1="672.00" y1="880.00" x2="672.00" y2="960.00" />
<line x1="688.00" y1="608.00" x2="688.00" y2="720.00" />
<line x1="1408.00" y1="608.00" x2="1408.00" y2="752.00" />
<line x1="1408.00" y1="768.00" x2="1408.00" y2="1056.00" />
<line x1="1408.00" y1="1152.00" x2="1408.00" y2="1232.00" />
<line x1="1408.00" y1="1248.00" x2="1408.00" y2="1328.00" />
<line x1="1456.00" y1="608.00" x2="1456.00" y2="768.00" />
<line x1="480.00" y1="640.00" x2="480.00" y2="656.00" />
<line x1="480.00" y1="672.00" x2="480.00" y2="688.00" />
<line x1="480.00" y1="1408.00" x2="480.00" y2="1456.00" />
<line x1="560.00" y1="640.00" x2="560.00" y2="688.00" />
<line x1="1200.00" y1="640.00" x2="1200.00" y2="720.00" />
<line x1="1200.00" y1="736.00" x2="1200.00" y2="752.00" />
<line x1="1200.00" y1="768.00" x2="1200.00" y2="800.00" />
<line x1="1200.00" y1="896.00" x2="1200.00" y2="976.00" />
<line x1="1200.00" y1="1248.00" x2="1200.00" y2="1296.00" />
<line x1="1040.00" y1="656.00" x2="1040.00" y2="720.00" />
<line x1="1040.00" y1="736.00" x2="1040.00" y2="864.00" />
<line x1="1040.00" y1="1024.00" x2="1040.00" y2="1072.00" />
<line x1="1040.00" y1="1088.00" x2="1040.00" y2="1120.00" />
<line x1="1152.00" y1="656.00" x2="1152.00" y2="720.00" />
<line x1="1152.00" y1="736.00" x2="1152.00" y2="752.00" />
<line x1="1152.00" y1="768.00" x2="1152.00" y2="864.00" />
<line x1="624.00" y1="736.00" x2="624.00" y2="864.00" />
<line x1="624.00" y1="880.00" x2="624.00" y2="944.00" />
<line x1="1376.00" y1="768.00" x2="1376.00" y2="864.00" />
<line x1="1376.00" y1="880.00" x2="1376.00" y2="1088.00" />
<line x1="1376.00" y1="1104.00" x2="1376.00" y2="1152.00" />
<line x1="1280.00" y1="800.00" x2="1280.00" y2="864.00" />
<line x1="1280.00" y1="880.00" x2="1280.00" y2="1104.00" />
<line x1="112.00" y1="864.00" x2="112.00" y2="896.00" />
<line x1="112.00" y1="1056.00" x2="112.00" y2="1408.00" />
<line x1="128.00" y1="880.00" x2="128.00" y2="896.00" />
<line x1="128.00" y1="1056.00" x2="128.00" y2="1280.00" />
<line x1="128.00" y1="1296.00" x2="128.00" y2="1392.00" />
<line x1="224.00" y1="880.00" x2="224.00" y2="1136.00" />
<line x1="1088.00" y1="880.00" x2="1088.00" y2="896.00" />
<line x1="1088.00" y1="976.00" x2="1088.00" y2="1024.00" />
<line x1="1088.00" y1="1120.00" x2="1088.00" y2="1152.00" />
<line x1="1088.00" y1="1168.00" x2="1088.00" y2="1232.00" />
<line x1="1088.00" y1="1248.00" x2="1088.00" y2="1312.00" />
<line x1="1088.00" y1="1328.00" x2="1088.00" y2="1392.00" />
<line x1="1088.00" y1="1408.00" x2="1088.00" y2="1424.00" />
<line x1="1104.00" y1="880.00" x2="1104.00" y2="896.00" />
<line x1="1104.00" y1="976.00" x2="1104.00" y2="1152.00" />
<line x1="1104.00" y1="1168.00" x2="1104.00" y2="1232.00" />
<line x1="1104.00" y1="1248.00" x2="1104.00" y2="1392.00" />
<line x1="1104.00" y1="1408.00" x2="1104.00" y2="1440.00" />
<line x1="32.00" y1="896.00" x2="32.00" y2="1056.00" />
<line x1="192.00" y1="896.00" x2="192.00" y2="1056.00" />
<line x1="192.00" y1="1136.00" x2="192.00" y2="1280.00" />
<line x1="192.00" y1="1296.00" x2="192.00" y2="1328.00" />
<line x1="336.00" y1="928.00" x2="336.00" y2="1104.00" />
<line x1="704.00" y1="1056.00" x2="704.00" y2="1072.00" />
<line x1="704.00" y1="1088.00" x2="704.00" y2="1152.00" />
<line x1="704.00" y1="1168.00" x2="704.00" y2="1232.00" />
<line x1="256.00" y1="1136.00" x2="256.00" y2="1232.00" />
<line x1="256.00" y1="1248.00" x2="256.00" y2="1280.00" />
<line x1="256.00" y1="1296.00" x2="256.00" y2="1312.00" />
<line x1="896.00" y1="1136.00" x2="896.00" y2="1152.00" />
<line x1="896.00" y1="1168.00" x2="896.00" y2="1200.00" />
<line x1="1392.00" y1="1136.00" x2="1392.00" y2="1152.00" />
<line x1="1184.00" y1="1248.00" x2="1184.00" y2="1296.00" />
<line x1="464.00" y1="1264.00" x2="464.00" y2="1312.00" />
<line x1="1168.00" y1="1296.00" x2="1168.00" y2="1392.00" />
<line x1="1168.00" y1="1408.00" x2="1168.00" y2="1488.00" />
<line x1="1216.00" y1="1296.00" x2="1216.00" y2="1488.00" />
<line x1="592.00" y1="1408.00" x2="592.00" y2="1424.00" />
<line x1="592.00" y1="1440.00" x2="592.00" y2="1456.00" />
  </g>
  <g class="features">
<g data-feature-type="stairsDown"><line data-feature-type="stairsDown" x1="562.24" y1="835.36" x2="573.76" y2="835.36" /><line x1="562.65" y1="837.68" x2="573.35" y2="837.68" /><line x1="563.07" y1="840.00" x2="572.93" y2="840.00" /><line x1="563.48" y1="842.32" x2="572.52" y2="842.32" /><line x1="563.90" y1="844.64" x2="572.10" y2="844.64" /></g>
<g data-feature-type="stairsUp"><line data-feature-type="stairsUp" x1="675.90" y1="195.36" x2="684.10" y2="195.36" /><line x1="675.48" y1="197.68" x2="684.52" y2="197.68" /><line x1="675.07" y1="200.00" x2="684.93" y2="200.00" /><line x1="674.65" y1="202.32" x2="685.35" y2="202.32" /><line x1="674.24" y1="204.64" x2="685.76" y2="204.64" /></g>
<circle data-feature-type="pillar" cx="408.00" cy="168.00" r="3.68" fill="#4f89a8" stroke="none" />
<circle data-feature-type="pillar" cx="440.00" cy="136.00" r="3.68" fill="#4f89a8" stroke="none" />
<circle data-feature-type="pillar" cx="440.00" cy="168.00" r="3.68" fill="#4f89a8" stroke="none" />
<circle data-feature-type="pillar" cx="392.00" cy="168.00" r="3.68" fill="#4f89a8" stroke="none" />
<g data-feature-type="well"><circle cx="680.00" cy="168.00" r="4.00" fill="none" /><circle cx="680.00" cy="168.00" r="2.24" fill="none" /></g>
<circle data-feature-type="pillar" cx="920.00" cy="1304.00" r="3.68" fill="#4f89a8" stroke="none" />
<circle data-feature-type="pillar" cx="936.00" cy="1304.00" r="3.68" fill="#4f89a8" stroke="none" />
<circle data-feature-type="pillar" cx="888.00" cy="1304.00" r="3.68" fill="#4f89a8" stroke="none" />
<g data-feature-type="coffin"><rect x="853.60" y="1348.32" width="4.80" height="7.36" rx="0.80" ry="0.80" fill="none" /><line x1="856.00" y1="1349.94" x2="856.00" y2="1354.06" /></g>
<circle data-feature-type="pillar" cx="1352.00" cy="440.00" r="3.68" fill="#4f89a8" stroke="none" />
<path data-feature-type="curtain" d="M 1334.40 403.84 Q 1336.00 406.34 1334.40 408.00 Q 1336.00 409.66 1334.40 412.16" fill="none" /><path d="M 1337.60 403.84 Q 1336.00 406.34 1337.60 408.00 Q 1336.00 409.66 1337.60 412.16" fill="none" />
<circle data-feature-type="pillar" cx="248.00" cy="1240.00" r="3.68" fill="#4f89a8" stroke="none" />
<g data-feature-type="altar"><rect x="229.28" y="1158.40" width="5.44" height="3.20" fill="none" /><line x1="232.00" y1="1157.44" x2="232.00" y2="1162.56" /><line x1="230.40" y1="1160.00" x2="233.60" y2="1160.00" /></g>
<path data-feature-type="curtain" d="M 230.40 1251.84 Q 232.00 1254.34 230.40 1256.00 Q 232.00 1257.66 230.40 1260.16" fill="none" /><path d="M 233.60 1251.84 Q 232.00 1254.34 233.60 1256.00 Q 232.00 1257.66 233.60 1260.16" fill="none" />
<circle data-feature-type="pillar" cx="408.00" cy="1288.00" r="3.68" fill="#4f89a8" stroke="none" />
<circle data-feature-type="pillar" cx="712.00" cy="888.00" r="3.68" fill="#4f89a8" stroke="none" />
<circle data-feature-type="pillar" cx="728.00" cy="888.00" r="3.68" fill="#4f89a8" stroke="none" />
<circle data-feature-type="pillar" cx="760.00" cy="888.00" r="3.68" fill="#4f89a8" stroke="none" />
<g data-feature-type="well"><circle cx="728.00" cy="920.00" r="4.00" fill="none" /><circle cx="728.00" cy="920.00" r="2.24" fill="none" /></g>
<path data-feature-type="curtain" d="M 742.40 931.84 Q 744.00 934.34 742.40 936.00 Q 744.00 937.66 742.40 940.16" fill="none" /><path d="M 745.60 931.84 Q 744.00 934.34 745.60 936.00 Q 744.00 937.66 745.60 940.16" fill="none" />
<g data-feature-type="statue"><circle cx="280.00" cy="456.00" r="3.52" fill="none" /><line x1="277.76" y1="456.00" x2="282.24" y2="456.00" /><line x1="280.00" y1="453.76" x2="280.00" y2="458.24" /><line x1="278.39" y1="454.39" x2="281.61" y2="457.61" /><line x1="278.39" y1="457.61" x2="281.61" y2="454.39" /></g>
<circle data-feature-type="pillar" cx="280.00" cy="984.00" r="3.68" fill="#4f89a8" stroke="none" />
<circle data-feature-type="pillar" cx="280.00" cy="1000.00" r="3.68" fill="#4f89a8" stroke="none" />
<g data-feature-type="chest"><rect x="565.28" y="1430.24" width="5.44" height="3.52" fill="none" /><line x1="565.28" y1="1432.00" x2="570.72" y2="1432.00" /><circle cx="568.00" cy="1432.18" r="0.70" fill="#4f89a8" stroke="none" /></g>
<circle data-feature-type="pillar" cx="1064.00" cy="776.00" r="3.68" fill="#4f89a8" stroke="none" />
<circle data-feature-type="pillar" cx="1080.00" cy="776.00" r="3.68" fill="#4f89a8" stroke="none" />
<circle data-feature-type="pillar" cx="1128.00" cy="744.00" r="3.68" fill="#4f89a8" stroke="none" />
<circle data-feature-type="pillar" cx="856.00" cy="328.00" r="3.68" fill="#4f89a8" stroke="none" />
<g data-feature-type="trap"><rect x="932.64" y="1156.64" width="6.72" height="6.72" fill="none" /><line x1="932.64" y1="1156.64" x2="939.36" y2="1163.36" /><line x1="932.64" y1="1163.36" x2="939.36" y2="1156.64" /></g>
<circle data-feature-type="pillar" cx="648.00" cy="1160.00" r="3.68" fill="#4f89a8" stroke="none" />
<g data-feature-type="statue"><circle cx="584.00" cy="1160.00" r="3.52" fill="none" /><line x1="581.76" y1="1160.00" x2="586.24" y2="1160.00" /><line x1="584.00" y1="1157.76" x2="584.00" y2="1162.24" /><line x1="582.39" y1="1158.39" x2="585.61" y2="1161.61" /><line x1="582.39" y1="1161.61" x2="585.61" y2="1158.39" /></g>
<path data-feature-type="curtain" d="M 566.40 1171.84 Q 568.00 1174.34 566.40 1176.00 Q 568.00 1177.66 566.40 1180.16" fill="none" /><path d="M 569.60 1171.84 Q 568.00 1174.34 569.60 1176.00 Q 568.00 1177.66 569.60 1180.16" fill="none" />
<circle data-feature-type="pillar" cx="504.00" cy="856.00" r="3.68" fill="#4f89a8" stroke="none" />
<circle data-feature-type="pillar" cx="552.00" cy="856.00" r="3.68" fill="#4f89a8" stroke="none" />
<circle data-feature-type="pillar" cx="552.00" cy="824.00" r="3.68" fill="#4f89a8" stroke="none" />
<circle data-feature-type="pillar" cx="520.00" cy="856.00" r="3.68" fill="#4f89a8" stroke="none" />
<g data-feature-type="trap"><rect x="484.64" y="868.64" width="6.72" height="6.72" fill="none" /><line x1="484.64" y1="868.64" x2="491.36" y2="875.36" /><line x1="484.64" y1="875.36" x2="491.36" y2="868.64" /></g>
<circle data-feature-type="pillar" cx="104.00" cy="968.00" r="3.68" fill="#4f89a8" stroke="none" />
<circle data-feature-type="pillar" cx="104.00" cy="1000.00" r="3.68" fill="#4f89a8" stroke="none" />
<circle data-feature-type="pillar" cx="88.00" cy="968.00" r="3.68" fill="#4f89a8" stroke="none" />
<g data-feature-type="trap"><rect x="100.64" y="916.64" width="6.72" height="6.72" fill="none" /><line x1="100.64" y1="916.64" x2="107.36" y2="923.36" /><line x1="100.64" y1="923.36" x2="107.36" y2="916.64" /></g>
<circle data-feature-type="pillar" cx="1128.00" cy="936.00" r="3.68" fill="#4f89a8" stroke="none" />
<circle data-feature-type="pillar" cx="1304.00" cy="712.00" r="3.68" fill="#4f89a8" stroke="none" />
<circle data-feature-type="pillar" cx="1272.00" cy="712.00" r="3.68" fill="#4f89a8" stroke="none" />
<circle data-feature-type="pillar" cx="1256.00" cy="744.00" r="3.68" fill="#4f89a8" stroke="none" />
<circle data-feature-type="pillar" cx="696.00" cy="520.00" r="3.68" fill="#4f89a8" stroke="none" />
<circle data-feature-type="pillar" cx="712.00" cy="552.00" r="3.68" fill="#4f89a8" stroke="none" />
<circle data-feature-type="pillar" cx="712.00" cy="520.00" r="3.68" fill="#4f89a8" stroke="none" />
<circle data-feature-type="pillar" cx="648.00" cy="552.00" r="3.68" fill="#4f89a8" stroke="none" />
<circle data-feature-type="pillar" cx="1400.00" cy="1240.00" r="3.68" fill="#4f89a8" stroke="none" />
<circle data-feature-type="pillar" cx="1208.00" cy="1400.00" r="3.68" fill="#4f89a8" stroke="none" />
<g data-feature-type="trap"><rect x="1428.64" y="708.64" width="6.72" height="6.72" fill="none" /><line x1="1428.64" y1="708.64" x2="1435.36" y2="715.36" /><line x1="1428.64" y1="715.36" x2="1435.36" y2="708.64" /></g>
  </g>
  <g class="thresholds">
<rect data-threshold-type="door" x="499.52" y="197.76" width="8.96" height="4.48" fill="#ffffff" stroke="#4f89a8" stroke-width="1.52" />
<g data-threshold-type="secret"><line x1="723.52" y1="264.00" x2="732.48" y2="264.00" stroke="#4f89a8" stroke-width="1.31" stroke-dasharray="1.31 1.31" /><text x="733.56" y="263.10" font-size="5.44" fill="#4f89a8" font-family="Courier New, monospace" font-weight="700">S</text></g>
<g data-threshold-type="locked" stroke="#4f89a8" fill="none" stroke-width="1.52"><rect x="851.52" y="1381.76" width="8.96" height="4.48" fill="#ffffff" /><circle cx="856.00" cy="1380.77" r="1.61" /></g>
<rect data-threshold-type="door" x="979.52" y="437.76" width="8.96" height="4.48" fill="#ffffff" stroke="#4f89a8" stroke-width="1.52" />
<rect data-threshold-type="door" x="1331.52" y="501.76" width="8.96" height="4.48" fill="#ffffff" stroke="#4f89a8" stroke-width="1.52" />
<rect data-threshold-type="door" x="227.52" y="1141.76" width="8.96" height="4.48" fill="#ffffff" stroke="#4f89a8" stroke-width="1.52" />
<rect data-threshold-type="door" x="419.52" y="1269.76" width="8.96" height="4.48" fill="#ffffff" stroke="#4f89a8" stroke-width="1.52" />
<g data-threshold-type="secret"><line x1="675.52" y1="872.00" x2="684.48" y2="872.00" stroke="#4f89a8" stroke-width="1.31" stroke-dasharray="1.31 1.31" /><text x="685.56" y="871.10" font-size="5.44" fill="#4f89a8" font-family="Courier New, monospace" font-weight="700">S</text></g>
<rect data-threshold-type="door" x="291.52" y="501.76" width="8.96" height="4.48" fill="#ffffff" stroke="#4f89a8" stroke-width="1.52" />
<rect data-threshold-type="door" x="227.52" y="933.76" width="8.96" height="4.48" fill="#ffffff" stroke="#4f89a8" stroke-width="1.52" />
<rect data-threshold-type="door" x="531.52" y="1413.76" width="8.96" height="4.48" fill="#ffffff" stroke="#4f89a8" stroke-width="1.52" />
<rect data-threshold-type="door" x="1043.52" y="853.76" width="8.96" height="4.48" fill="#ffffff" stroke="#4f89a8" stroke-width="1.52" />
<g data-threshold-type="locked" stroke="#4f89a8" fill="none" stroke-width="1.52"><rect x="803.52" y="261.76" width="8.96" height="4.48" fill="#ffffff" /><circle cx="808.00" cy="260.77" r="1.61" /></g>
<rect data-threshold-type="door" x="963.52" y="1157.76" width="8.96" height="4.48" fill="#ffffff" stroke="#4f89a8" stroke-width="1.52" />
<rect data-threshold-type="door" x="531.52" y="645.76" width="8.96" height="4.48" fill="#ffffff" stroke="#4f89a8" stroke-width="1.52" />
<g data-threshold-type="secret"><line x1="547.52" y1="1224.00" x2="556.48" y2="1224.00" stroke="#4f89a8" stroke-width="1.31" stroke-dasharray="1.31 1.31" /><text x="557.56" y="1223.10" font-size="5.44" fill="#4f89a8" font-family="Courier New, monospace" font-weight="700">S</text></g>
<g data-threshold-type="locked" stroke="#4f89a8" fill="none" stroke-width="1.52"><rect x="435.52" y="805.76" width="8.96" height="4.48" fill="#ffffff" /><circle cx="440.00" cy="804.77" r="1.61" /></g>
<rect data-threshold-type="door" x="1411.52" y="1125.76" width="8.96" height="4.48" fill="#ffffff" stroke="#4f89a8" stroke-width="1.52" />
<rect data-threshold-type="door" x="115.52" y="901.76" width="8.96" height="4.48" fill="#ffffff" stroke="#4f89a8" stroke-width="1.52" />
<rect data-threshold-type="door" x="1011.52" y="901.76" width="8.96" height="4.48" fill="#ffffff" stroke="#4f89a8" stroke-width="1.52" />
<rect data-threshold-type="door" x="259.52" y="261.76" width="8.96" height="4.48" fill="#ffffff" stroke="#4f89a8" stroke-width="1.52" />
<rect data-threshold-type="door" x="1203.52" y="757.76" width="8.96" height="4.48" fill="#ffffff" stroke="#4f89a8" stroke-width="1.52" />
<rect data-threshold-type="door" x="1075.52" y="1077.76" width="8.96" height="4.48" fill="#ffffff" stroke="#4f89a8" stroke-width="1.52" />
<rect data-threshold-type="door" x="611.52" y="453.76" width="8.96" height="4.48" fill="#ffffff" stroke="#4f89a8" stroke-width="1.52" />
<rect data-threshold-type="door" x="1379.52" y="1157.76" width="8.96" height="4.48" fill="#ffffff" stroke="#4f89a8" stroke-width="1.52" />
<rect data-threshold-type="door" x="1187.52" y="1301.76" width="8.96" height="4.48" fill="#ffffff" stroke="#4f89a8" stroke-width="1.52" />
<rect data-threshold-type="door" x="1427.52" y="613.76" width="8.96" height="4.48" fill="#ffffff" stroke="#4f89a8" stroke-width="1.52" />
  </g>
  <g class="labels">
<text x="424.00" y="153.92" text-anchor="middle">1</text>
<text x="648.00" y="201.92" text-anchor="middle">2</text>
<text x="904.00" y="1321.92" text-anchor="middle">3</text>
<text x="1016.00" y="473.92" text-anchor="middle">4</text>
<text x="1336.00" y="441.92" text-anchor="middle">5</text>
<text x="232.00" y="1241.92" text-anchor="middle">6</text>
<text x="392.00" y="1289.92" text-anchor="middle">7</text>
<text x="744.00" y="873.92" text-anchor="middle">8</text>
<text x="296.00" y="473.92" text-anchor="middle">9</text>
<text x="280.00" y="1017.92" text-anchor="middle">10</text>
<text x="536.00" y="1433.92" text-anchor="middle">11</text>
<text x="1096.00" y="761.92" text-anchor="middle">12</text>
<text x="840.00" y="329.92" text-anchor="middle">13</text>
<text x="936.00" y="1177.92" text-anchor="middle">14</text>
<text x="520.00" y="665.92" text-anchor="middle">15</text>
<text x="632.00" y="1161.92" text-anchor="middle">16</text>
<text x="536.00" y="841.92" text-anchor="middle">17</text>
<text x="1400.00" y="1097.92" text-anchor="middle">18</text>
<text x="120.00" y="985.92" text-anchor="middle">19</text>
<text x="1112.00" y="937.92" text-anchor="middle">20</text>
<text x="248.00" y="265.92" text-anchor="middle">21</text>
<text x="1288.00" y="729.92" text-anchor="middle">22</text>
<text x="1064.00" y="1081.92" text-anchor="middle">23</text>
<text x="680.00" y="537.92" text-anchor="middle">24</text>
<text x="1384.00" y="1241.92" text-anchor="middle">25</text>
<text x="1192.00" y="1401.92" text-anchor="middle">26</text>
<text x="1432.00" y="697.92" text-anchor="middle">27</text>
  </g>
</svg>