<?xml version="1.0" encoding="UTF-8"?>
<svg xmlns="http://www.w3.org/2000/svg" width="1280" height="1536" viewBox="0 0 1280.00 1536.00" role="img" aria-label="MapIR render: Learned Generated Map 7">
  <defs>
    <style>
      .grid { stroke: #cde2ec; stroke-width: 0.64; opacity: 0.72; }
      .walls { stroke: #6aa7c7; stroke-width: 1.92; fill: none; stroke-linecap: square; }
      .thresholds { fill: none; stroke-linecap: round; }
      .features { stroke: #4f89a8; fill: none; stroke-width: 1.60; stroke-linecap: round; stroke-linejoin: round; }
      .labels { fill: #4f89a8; font-size: 7.20px; font-family: "Courier New", monospace; font-weight: 600; }
    </style>
  </defs>
  <rect x="0" y="0" width="1280.00" height="1536.00" fill="#4393be" />
  <g class="floors">
<rect x="800.00" y="64.00" width="128.00" height="80.00" fill="#fcfdfe" />
<rect x="432.00" y="96.00" width="368.00" height="16.00" fill="#fcfdfe" />
<rect x="928.00" y="96.00" width="272.00" height="16.00" fill="#fcfdfe" />
<rect x="432.00" y="112.00" width="16.00" height="1280.00" fill="#fcfdfe" />
<rect x="496.00" y="112.00" width="16.00" height="704.00" fill="#fcfdfe" />
<rect x="1184.00" y="112.00" width="16.00" height="1280.00" fill="#fcfdfe" />
<rect x="864.00" y="144.00" width="16.00" height="1072.00" fill="#fcfdfe" />
<rect x="272.00" y="176.00" width="96.00" height="80.00" fill="#fcfdfe" />
<rect x="912.00" y="176.00" width="144.00" height="112.00" fill="#fcfdfe" />
<rect x="128.00" y="192.00" width="80.00" height="144.00" fill="#fcfdfe" />
<rect x="1120.00" y="192.00" width="64.00" height="80.00" fill="#fcfdfe" />
<rect x="1200.00" y="192.00" width="32.00" height="80.00" fill="#fcfdfe" />
<rect x="368.00" y="208.00" width="64.00" height="16.00" fill="#fcfdfe" />
<rect x="448.00" y="208.00" width="48.00" height="32.00" fill="#fcfdfe" />
<rect x="400.00" y="224.00" width="32.00" height="16.00" fill="#fcfdfe" />
<rect x="512.00" y="224.00" width="352.00" height="16.00" fill="#fcfdfe" />
<rect x="880.00" y="224.00" width="32.00" height="16.00" fill="#fcfdfe" />
<rect x="1056.00" y="224.00" width="64.00" height="16.00" fill="#fcfdfe" />
<rect x="400.00" y="240.00" width="16.00" height="816.00" fill="#fcfdfe" />
<rect x="1088.00" y="240.00" width="16.00" height="1152.00" fill="#fcfdfe" />
<rect x="208.00" y="256.00" width="128.00" height="16.00" fill="#fcfdfe" />
<rect x="320.00" y="272.00" width="16.00" height="80.00" fill="#fcfdfe" />
<rect x="1168.00" y="272.00" width="16.00" height="880.00" fill="#fcfdfe" />
<rect x="976.00" y="288.00" width="32.00" height="448.00" fill="#fcfdfe" />
<rect x="448.00" y="304.00" width="48.00" height="80.00" fill="#fcfdfe" />
<rect x="512.00" y="304.00" width="48.00" height="80.00" fill="#fcfdfe" />
<rect x="688.00" y="304.00" width="128.00" height="112.00" fill="#fcfdfe" />
<rect x="944.00" y="320.00" width="32.00" height="128.00" fill="#fcfdfe" />
<rect x="1008.00" y="320.00" width="16.00" height="528.00" fill="#fcfdfe" />
<rect x="160.00" y="336.00" width="16.00" height="1008.00" fill="#fcfdfe" />
<rect x="336.00" y="336.00" width="64.00" height="16.00" fill="#fcfdfe" />
<rect x="416.00" y="336.00" width="16.00" height="16.00" fill="#fcfdfe" />
<rect x="816.00" y="352.00" width="48.00" height="16.00" fill="#fcfdfe" />
<rect x="880.00" y="352.00" width="64.00" height="16.00" fill="#fcfdfe" />
<rect x="304.00" y="368.00" width="96.00" height="176.00" fill="#fcfdfe" />
<rect x="1152.00" y="368.00" width="16.00" height="128.00" fill="#fcfdfe" />
<rect x="1200.00" y="368.00" width="16.00" height="128.00" fill="#fcfdfe" />
<rect x="448.00" y="400.00" width="48.00" height="176.00" fill="#fcfdfe" />
<rect x="512.00" y="400.00" width="48.00" height="176.00" fill="#fcfdfe" />
<rect x="256.00" y="432.00" width="48.00" height="16.00" fill="#fcfdfe" />
<rect x="416.00" y="432.00" width="16.00" height="16.00" fill="#fcfdfe" />
<rect x="560.00" y="432.00" width="304.00" height="16.00" fill="#fcfdfe" />
<rect x="880.00" y="432.00" width="64.00" height="16.00" fill="#fcfdfe" />
<rect x="1024.00" y="432.00" width="64.00" height="16.00" fill="#fcfdfe" />
<rect x="1104.00" y="432.00" width="48.00" height="16.00" fill="#fcfdfe" />
<rect x="256.00" y="448.00" width="16.00" height="816.00" fill="#fcfdfe" />
<rect x="1056.00" y="480.00" width="32.00" height="80.00" fill="#fcfdfe" />
<rect x="1104.00" y="480.00" width="32.00" height="80.00" fill="#fcfdfe" />
<rect x="176.00" y="512.00" width="80.00" height="16.00" fill="#fcfdfe" />
<rect x="272.00" y="512.00" width="32.00" height="16.00" fill="#fcfdfe" />
<rect x="416.00" y="512.00" width="16.00" height="16.00" fill="#fcfdfe" />
<rect x="560.00" y="512.00" width="304.00" height="16.00" fill="#fcfdfe" />
<rect x="880.00" y="512.00" width="96.00" height="16.00" fill="#fcfdfe" />
<rect x="1024.00" y="512.00" width="32.00" height="16.00" fill="#fcfdfe" />
<rect x="352.00" y="544.00" width="16.00" height="896.00" fill="#fcfdfe" />
<rect x="928.00" y="592.00" width="48.00" height="144.00" fill="#fcfdfe" />
<rect x="1024.00" y="592.00" width="32.00" height="144.00" fill="#fcfdfe" />
<rect x="736.00" y="608.00" width="80.00" height="128.00" fill="#fcfdfe" />
<rect x="240.00" y="624.00" width="16.00" height="80.00" fill="#fcfdfe" />
<rect x="272.00" y="624.00" width="80.00" height="80.00" fill="#fcfdfe" />
<rect x="368.00" y="624.00" width="16.00" height="80.00" fill="#fcfdfe" />
<rect x="80.00" y="656.00" width="80.00" height="144.00" fill="#fcfdfe" />
<rect x="384.00" y="656.00" width="16.00" height="16.00" fill="#fcfdfe" />
<rect x="416.00" y="656.00" width="16.00" height="16.00" fill="#fcfdfe" />
<rect x="448.00" y="656.00" width="48.00" height="160.00" fill="#fcfdfe" />
<rect x="512.00" y="656.00" width="224.00" height="16.00" fill="#fcfdfe" />
<rect x="816.00" y="656.00" width="48.00" height="16.00" fill="#fcfdfe" />
<rect x="880.00" y="656.00" width="48.00" height="16.00" fill="#fcfdfe" />
<rect x="1056.00" y="656.00" width="32.00" height="16.00" fill="#fcfdfe" />
<rect x="512.00" y="672.00" width="32.00" height="144.00" fill="#fcfdfe" />
<rect x="304.00" y="704.00" width="32.00" height="288.00" fill="#fcfdfe" />
<rect x="176.00" y="720.00" width="80.00" height="16.00" fill="#fcfdfe" />
<rect x="272.00" y="720.00" width="32.00" height="16.00" fill="#fcfdfe" />
<rect x="336.00" y="720.00" width="16.00" height="16.00" fill="#fcfdfe" />
<rect x="368.00" y="720.00" width="32.00" height="16.00" fill="#fcfdfe" />
<rect x="416.00" y="720.00" width="16.00" height="16.00" fill="#fcfdfe" />
<rect x="544.00" y="720.00" width="192.00" height="16.00" fill="#fcfdfe" />
<rect x="816.00" y="720.00" width="48.00" height="16.00" fill="#fcfdfe" />
<rect x="880.00" y="720.00" width="48.00" height="16.00" fill="#fcfdfe" />
<rect x="1056.00" y="720.00" width="32.00" height="16.00" fill="#fcfdfe" />
<rect x="1104.00" y="720.00" width="64.00" height="16.00" fill="#fcfdfe" />
<rect x="240.00" y="736.00" width="16.00" height="208.00" fill="#fcfdfe" />
<rect x="976.00" y="736.00" width="16.00" height="656.00" fill="#fcfdfe" />
<rect x="928.00" y="752.00" width="48.00" height="96.00" fill="#fcfdfe" />
<rect x="992.00" y="752.00" width="16.00" height="96.00" fill="#fcfdfe" />
<rect x="1024.00" y="752.00" width="64.00" height="96.00" fill="#fcfdfe" />
<rect x="128.00" y="800.00" width="16.00" height="624.00" fill="#fcfdfe" />
<rect x="176.00" y="800.00" width="64.00" height="16.00" fill="#fcfdfe" />
<rect x="272.00" y="800.00" width="32.00" height="16.00" fill="#fcfdfe" />
<rect x="336.00" y="800.00" width="16.00" height="16.00" fill="#fcfdfe" />
<rect x="368.00" y="800.00" width="32.00" height="16.00" fill="#fcfdfe" />
<rect x="416.00" y="800.00" width="16.00" height="16.00" fill="#fcfdfe" />
<rect x="544.00" y="800.00" width="320.00" height="16.00" fill="#fcfdfe" />
<rect x="880.00" y="800.00" width="48.00" height="16.00" fill="#fcfdfe" />
<rect x="192.00" y="864.00" width="48.00" height="80.00" fill="#fcfdfe" />
<rect x="272.00" y="864.00" width="32.00" height="80.00" fill="#fcfdfe" />
<rect x="336.00" y="896.00" width="16.00" height="160.00" fill="#fcfdfe" />
<rect x="368.00" y="896.00" width="32.00" height="160.00" fill="#fcfdfe" />
<rect x="416.00" y="896.00" width="16.00" height="160.00" fill="#fcfdfe" />
<rect x="448.00" y="896.00" width="16.00" height="160.00" fill="#fcfdfe" />
<rect x="800.00" y="928.00" width="64.00" height="160.00" fill="#fcfdfe" />
<rect x="880.00" y="928.00" width="32.00" height="160.00" fill="#fcfdfe" />
<rect x="1152.00" y="928.00" width="16.00" height="64.00" fill="#fcfdfe" />
<rect x="1200.00" y="928.00" width="16.00" height="64.00" fill="#fcfdfe" />
<rect x="320.00" y="992.00" width="16.00" height="448.00" fill="#fcfdfe" />
<rect x="1040.00" y="1056.00" width="48.00" height="176.00" fill="#fcfdfe" />
<rect x="1104.00" y="1056.00" width="48.00" height="176.00" fill="#fcfdfe" />
<rect x="384.00" y="1088.00" width="48.00" height="96.00" fill="#fcfdfe" />
<rect x="448.00" y="1088.00" width="80.00" height="96.00" fill="#fcfdfe" />
<rect x="848.00" y="1088.00" width="16.00" height="64.00" fill="#fcfdfe" />
<rect x="208.00" y="1136.00" width="48.00" height="128.00" fill="#fcfdfe" />
<rect x="272.00" y="1136.00" width="48.00" height="128.00" fill="#fcfdfe" />
<rect x="528.00" y="1136.00" width="320.00" height="16.00" fill="#fcfdfe" />
<rect x="880.00" y="1136.00" width="96.00" height="16.00" fill="#fcfdfe" />
<rect x="992.00" y="1136.00" width="48.00" height="16.00" fill="#fcfdfe" />
<rect x="1152.00" y="1136.00" width="16.00" height="16.00" fill="#fcfdfe" />
<rect x="336.00" y="1200.00" width="16.00" height="16.00" fill="#fcfdfe" />
<rect x="368.00" y="1200.00" width="64.00" height="16.00" fill="#fcfdfe" />
<rect x="448.00" y="1200.00" width="416.00" height="16.00" fill="#fcfdfe" />
<rect x="592.00" y="1216.00" width="16.00" height="256.00" fill="#fcfdfe" />
<rect x="384.00" y="1232.00" width="48.00" height="128.00" fill="#fcfdfe" />
<rect x="448.00" y="1232.00" width="32.00" height="128.00" fill="#fcfdfe" />
<rect x="288.00" y="1280.00" width="32.00" height="160.00" fill="#fcfdfe" />
<rect x="336.00" y="1280.00" width="16.00" height="160.00" fill="#fcfdfe" />
<rect x="480.00" y="1296.00" width="112.00" height="16.00" fill="#fcfdfe" />
<rect x="608.00" y="1296.00" width="176.00" height="16.00" fill="#fcfdfe" />
<rect x="1152.00" y="1296.00" width="32.00" height="96.00" fill="#fcfdfe" />
<rect x="1200.00" y="1296.00" width="16.00" height="80.00" fill="#fcfdfe" />
<rect x="560.00" y="1312.00" width="32.00" height="160.00" fill="#fcfdfe" />
<rect x="608.00" y="1312.00" width="16.00" height="160.00" fill="#fcfdfe" />
<rect x="768.00" y="1312.00" width="16.00" height="192.00" fill="#fcfdfe" />
<rect x="176.00" y="1328.00" width="112.00" height="16.00" fill="#fcfdfe" />
<rect x="368.00" y="1328.00" width="16.00" height="16.00" fill="#fcfdfe" />
<rect x="480.00" y="1328.00" width="80.00" height="16.00" fill="#fcfdfe" />
<rect x="624.00" y="1328.00" width="144.00" height="16.00" fill="#fcfdfe" />
<rect x="784.00" y="1328.00" width="192.00" height="16.00" fill="#fcfdfe" />
<rect x="992.00" y="1328.00" width="96.00" height="16.00" fill="#fcfdfe" />
<rect x="1104.00" y="1328.00" width="48.00" height="16.00" fill="#fcfdfe" />
<rect x="704.00" y="1344.00" width="64.00" height="160.00" fill="#fcfdfe" />
<rect x="784.00" y="1344.00" width="64.00" height="160.00" fill="#fcfdfe" />
<rect x="368.00" y="1376.00" width="64.00" height="16.00" fill="#fcfdfe" />
<rect x="448.00" y="1376.00" width="112.00" height="16.00" fill="#fcfdfe" />
<rect x="624.00" y="1376.00" width="80.00" height="16.00" fill="#fcfdfe" />
<rect x="848.00" y="1376.00" width="128.00" height="16.00" fill="#fcfdfe" />
<rect x="992.00" y="1376.00" width="96.00" height="16.00" fill="#fcfdfe" />
<rect x="1104.00" y="1376.00" width="48.00" height="16.00" fill="#fcfdfe" />
<rect x="144.00" y="1408.00" width="144.00" height="16.00" fill="#fcfdfe" />
<rect x="368.00" y="1408.00" width="192.00" height="16.00" fill="#fcfdfe" />
<rect x="624.00" y="1408.00" width="80.00" height="16.00" fill="#fcfdfe" />
  </g>
  <g class="grid">
<line x1="0.00" y1="0" x2="0.00" y2="1536.00" />
<line x1="16.00" y1="0" x2="16.00" y2="1536.00" />
<line x1="32.00" y1="0" x2="32.00" y2="1536.00" />
<line x1="48.00" y1="0" x2="48.00" y2="1536.00" />
<line x1="64.00" y1="0" x2="64.00" y2="1536.00" />
<line x1="80.00" y1="0" x2="80.00" y2="1536.00" />
<line x1="96.00" y1="0" x2="96.00" y2="1536.00" />
<line x1="112.00" y1="0" x2="112.00" y2="1536.00" />
<line x1="128.00" y1="0" x2="128.00" y2="1536.00" />
<line x1="144.00" y1="0" x2="144.00" y2="1536.00" />
<line x1="160.00" y1="0" x2="160.00" y2="1536.00" />
<line x1="176.00" y1="0" x2="176.00" y2="1536.00" />
<line x1="192.00" y1="0" x2="192.00" y2="1536.00" />
<line x1="208.00" y1="0" x2="208.00" y2="1536.00" />
<line x1="224.00" y1="0" x2="224.00" y2="1536.00" />
<line x1="240.00" y1="0" x2="240.00" y2="1536.00" />
<line x1="256.00" y1="0" x2="256.00" y2="1536.00" />
<line x1="272.00" y1="0" x2="272.00" y2="1536.00" />
<line x1="288.00" y1="0" x2="288.00" y2="1536.00" />
<line x1="304.00" y1="0" x2="304.00" y2="1536.00" />
<line x1="320.00" y1="0" x2="320.00" y2="1536.00" />
<line x1="336.00" y1="0" x2="336.00" y2="1536.00" />
<line x1="352.00" y1="0" x2="352.00" y2="1536.00" />
<line x1="368.00" y1="0" x2="368.00" y2="1536.00" />
<line x1="384.00" y1="0" x2="384.00" y2="1536.00" />
<line x1="400.00" y1="0" x2="400.00" y2="1536.00" />
<line x1="416.00" y1="0" x2="416.00" y2="1536.00" />
<line x1="432.00" y1="0" x2="432.00" y2="1536.00" />
<line x1="448.00" y1="0" x2="448.00" y2="1536.00" />
<line x1="464.00" y1="0" x2="464.00" y2="1536.00" />
<line x1="480.00" y1="0" x2="480.00" y2="1536.00" />
<line x1="496.00" y1="0" x2="496.00" y2="1536.00" />
<line x1="512.00" y1="0" x2="512.00" y2="1536.00" />
<line x1="528.00" y1="0" x2="528.00" y2="1536.00" />
<line x1="544.00" y1="0" x2="544.00" y2="1536.00" />
<line x1="560.00" y1="0" x2="560.00" y2="1536.00" />
<line x1="576.00" y1="0" x2="576.00" y2="1536.00" />
<line x1="592.00" y1="0" x2="592.00" y2="1536.00" />
<line x1="608.00" y1="0" x2="608.00" y2="1536.00" />
<line x1="624.00" y1="0" x2="624.00" y2="1536.00" />
<line x1="640.00" y1="0" x2="640.00" y2="1536.00" />
<line x1="656.00" y1="0" x2="656.00" y2="1536.00" />
<line x1="672.00" y1="0" x2="672.00" y2="1536.00" />
<line x1="688.00" y1="0" x2="688.00" y2="1536.00" />
<line x1="704.00" y1="0" x2="704.00" y2="1536.00" />
<line x1="720.00" y1="0" x2="720.00" y2="1536.00" />
<line x1="736.00" y1="0" x2="736.00" y2="1536.00" />
<line x1="752.00" y1="0" x2="752.00" y2="1536.00" />
<line x1="768.00" y1="0" x2="768.00" y2="1536.00" />
<line x1="784.00" y1="0" x2="784.00" y2="1536.00" />
<line x1="800.00" y1="0" x2="800.00" y2="1536.00" />
<line x1="816.00" y1="0" x2="816.00" y2="1536.00" />
<line x1="832.00" y1="0" x2="832.00" y2="1536.00" />
<line x1="848.00" y1="0" x2="848.00" y2="1536.00" />
<line x1="864.00" y1="0" x2="864.00" y2="1536.00" />
<line x1="880.00" y1="0" x2="880.00" y2="1536.00" />
<line x1="896.00" y1="0" x2="896.00" y2="1536.00" />
<line x1="912.00" y1="0" x2="912.00" y2="1536.00" />
<line x1="928.00" y1="0" x2="928.00" y2="1536.00" />
<line x1="944.00" y1="0" x2="944.00" y2="1536.00" />
<line x1="960.00" y1="0" x2="960.00" y2="1536.00" />
<line x1="976.00" y1="0" x2="976.00" y2="1536.00" />
<line x1="992.00" y1="0" x2="992.00" y2="1536.00" />
<line x1="1008.00" y1="0" x2="1008.00" y2="1536.00" />
<line x1="1024.00" y1="0" x2="1024.00" y2="1536.00" />
<line x1="1040.00" y1="0" x2="1040.00" y2="1536.00" />
<line x1="1056.00" y1="0" x2="1056.00" y2="1536.00" />
<line x1="1072.00" y1="0" x2="1072.00" y2="1536.00" />
<line x1="1088.00" y1="0" x2="1088.00" y2="1536.00" />
<line x1="1104.00" y1="0" x2="1104.00" y2="1536.00" />
<line x1="1120.00" y1="0" x2="1120.00" y2="1536.00" />
<line x1="1136.00" y1="0" x2="1136.00" y2="1536.00" />
<line x1="1152.00" y1="0" x2="1152.00" y2="1536.00" />
<line x1="1168.00" y1="0" x2="1168.00" y2="1536.00" />
<line x1="1184.00" y1="0" x2="1184.00" y2="1536.00" />
<line x1="1200.00" y1="0" x2="1200.00" y2="1536.00" />
<line x1="1216.00" y1="0" x2="1216.00" y2="1536.00" />
<line x1="1232.00" y1="0" x2="1232.00" y2="1536.00" />
<line x1="1248.00" y1="0" x2="1248.00" y2="1536.00" />
<line x1="1264.00" y1="0" x2="1264.00" y2="1536.00" />
<line x1="1280.00" y1="0" x2="1280.00" y2="1536.00" />
<line x1="0" y1="0.00" x2="1280.00" y2="0.00" />
<line x1="0" y1="16.00" x2="1280.00" y2="16.00" />
<line x1="0" y1="32.00" x2="1280.00" y2="32.00" />
<line x1="0" y1="48.00" x2="1280.00" y2="48.00" />
<line x1="0" y1="64.00" x2="1280.00" y2="64.00" />
<line x1="0" y1="80.00" x2="1280.00" y2="80.00" />
<line x1="0" y1="96.00" x2="1280.00" y2="96.00" />
<line x1="0" y1="112.00" x2="1280.00" y2="112.00" />
<line x1="0" y1="128.00" x2="1280.00" y2="128.00" />
<line x1="0" y1="144.00" x2="1280.00" y2="144.00" />
<line x1="0" y1="160.00" x2="1280.00" y2="160.00" />
<line x1="0" y1="176.00" x2="1280.00" y2="176.00" />
<line x1="0" y1="192.00" x2="1280.00" y2="192.00" />
<line x1="0" y1="208.00" x2="1280.00" y2="208.00" />
<line x1="0" y1="224.00" x2="1280.00" y2="224.00" />
<line x1="0" y1="240.00" x2="1280.00" y2="240.00" />
<line x1="0" y1="256.00" x2="1280.00" y2="256.00" />
<line x1="0" y1="272.00" x2="1280.00" y2="272.00" />
<line x1="0" y1="288.00" x2="1280.00" y2="288.00" />
<line x1="0" y1="304.00" x2="1280.00" y2="304.00" />
<line x1="0" y1="320.00" x2="1280.00" y2="320.00" />
<line x1="0" y1="336.00" x2="1280.00" y2="336.00" />
<line x1="0" y1="352.00" x2="1280.00" y2="352.00" />
<line x1="0" y1="368.00" x2="1280.00" y2="368.00" />
<line x1="0" y1="384.00" x2="1280.00" y2="384.00" />
<line x1="0" y1="400.00" x2="1280.00" y2="400.00" />
<line x1="0" y1="416.00" x2="1280.00" y2="416.00" />
<line x1="0" y1="432.00" x2="1280.00" y2="432.00" />
<line x1="0" y1="448.00" x2="1280.00" y2="448.00" />
<line x1="0" y1="464.00" x2="1280.00" y2="464.00" />
<line x1="0" y1="480.00" x2="1280.00" y2="480.00" />
<line x1="0" y1="496.00" x2="1280.00" y2="496.00" />
<line x1="0" y1="512.00" x2="1280.00" y2="512.00" />
<line x1="0" y1="528.00" x2="1280.00" y2="528.00" />
<line x1="0" y1="544.00" x2="1280.00" y2="544.00" />
<line x1="0" y1="560.00" x2="1280.00" y2="560.00" />
<line x1="0" y1="576.00" x2="1280.00" y2="576.00" />
<line x1="0" y1="592.00" x2="1280.00" y2="592.00" />
<line x1="0" y1="608.00" x2="1280.00" y2="608.00" />
<line x1="0" y1="624.00" x2="1280.00" y2="624.00" />
<line x1="0" y1="640.00" x2="1280.00" y2="640.00" />
<line x1="0" y1="656.00" x2="1280.00" y2="656.00" />
<line x1="0" y1="672.00" x2="1280.00" y2="672.00" />
<line x1="0" y1="688.00" x2="1280.00" y2="688.00" />
<line x1="0" y1="704.00" x2="1280.00" y2="704.00" />
<line x1="0" y1="720.00" x2="1280.00" y2="720.00" />
<line x1="0" y1="736.00" x2="1280.00" y2="736.00" />
<line x1="0" y1="752.00" x2="1280.00" y2="752.00" />
<line x1="0" y1="768.00" x2="1280.00" y2="768.00" />
<line x1="0" y1="784.00" x2="1280.00" y2="784.00" />
<line x1="0" y1="800.00" x2="1280.00" y2="800.00" />
<line x1="0" y1="816.00" x2="1280.00" y2="816.00" />
<line x1="0" y1="832.00" x2="1280.00" y2="832.00" />
<line x1="0" y1="848.00" x2="1280.00" y2="848.00" />
<line x1="0" y1="864.00" x2="1280.00" y2="864.00" />
<line x1="0" y1="880.00" x2="1280.00" y2="880.00" />
<line x1="0" y1="896.00" x2="1280.00" y2="896.00" />
<line x1="0" y1="912.00" x2="1280.00" y2="912.00" />
<line x1="0" y1="928.00" x2="1280.00" y2="928.00" />
<line x1="0" y1="944.00" x2="1280.00" y2="944.00" />
<line x1="0" y1="960.00" x2="1280.00" y2="960.00" />
<line x1="0" y1="976.00" x2="1280.00" y2="976.00" />
<line x1="0" y1="992.00" x2="1280.00" y2="992.00" />
<line x1="0" y1="1008.00" x2="1280.00" y2="1008.00" />
<line x1="0" y1="1024.00" x2="1280.00" y2="1024.00" />
<line x1="0" y1="1040.00" x2="1280.00" y2="1040.00" />
<line x1="0" y1="1056.00" x2="1280.00" y2="1056.00" />
<line x1="0" y1="1072.00" x2="1280.00" y2="1072.00" />
<line x1="0" y1="1088.00" x2="1280.00" y2="1088.00" />
<line x1="0" y1="1104.00" x2="1280.00" y2="1104.00" />
<line x1="0" y1="1120.00" x2="1280.00" y2="1120.00" />
<line x1="0" y1="1136.00" x2="1280.00" y2="1136.00" />
<line x1="0" y1="1152.00" x2="1280.00" y2="1152.00" />
<line x1="0" y1="1168.00" x2="1280.00" y2="1168.00" />
<line x1="0" y1="1184.00" x2="1280.00" y2="1184.00" />
<line x1="0" y1="1200.00" x2="1280.00" y2="1200.00" />
<line x1="0" y1="1216.00" x2="1280.00" y2="1216.00" />
<line x1="0" y1="1232.00" x2="1280.00" y2="1232.00" />
<line x1="0" y1="1248.00" x2="1280.00" y2="1248.00" />
<line x1="0" y1="1264.00" x2="1280.00" y2="1264.00" />
<line x1="0" y1="1280.00" x2="1280.00" y2="1280.00" />
<line x1="0" y1="1296.00" x2="1280.00" y2="1296.00" />
<line x1="0" y1="1312.00" x2="1280.00" y2="1312.00" />
<line x1="0" y1="1328.00" x2="1280.00" y2="1328.00" />
<line x1="0" y1="1344.00" x2="1280.00" y2="1344.00" />
<line x1="0" y1="1360.00" x2="1280.00" y2="1360.00" />
<line x1="0" y1="1376.00" x2="1280.00" y2="1376.00" />
<line x1="0" y1="1392.00" x2="1280.00" y2="1392.00" />
<line x1="0" y1="1408.00" x2="1280.00" y2="1408.00" />
<line x1="0" y1="1424.00" x2="1280.00" y2="1424.00" />
<line x1="0" y1="1440.00" x2="1280.00" y2="1440.00" />
<line x1="0" y1="1456.00" x2="1280.00" y2="1456.00" />
<line x1="0" y1="1472.00" x2="1280.00" y2="1472.00" />
<line x1="0" y1="1488.00" x2="1280.00" y2="1488.00" />
<line x1="0" y1="1504.00" x2="1280.00" y2="1504.00" />
<line x1="0" y1="1520.00" x2="1280.00" y2="1520.00" />
<line x1="0" y1="1536.00" x2="1280.00" y2="1536.00" />
  </g>
  <g class="walls">
<line x1="800.00" y1="64.00" x2="928.00" y2="64.00" />
<line x1="432.00" y1="96.00" x2="800.00" y2="96.00" />
<line x1="928.00" y1="96.00" x2="1200.00" y2="96.00" />
<line x1="448.00" y1="112.00" x2="496.00" y2="112.00" />
<line x1="512.00" y1="112.00" x2="800.00" y2="112.00" />
<line x1="928.00" y1="112.00" x2="1184.00" y2="112.00" />
<line x1="800.00" y1="144.00" x2="864.00" y2="144.00" />
<line x1="880.00" y1="144.00" x2="928.00" y2="144.00" />
<line x1="272.00" y1="176.00" x2="368.00" y2="176.00" />
<line x1="912.00" y1="176.00" x2="1056.00" y2="176.00" />
<line x1="128.00" y1="192.00" x2="208.00" y2="192.00" />
<line x1="1120.00" y1="192.00" x2="1184.00" y2="192.00" />
<line x1="1200.00" y1="192.00" x2="1232.00" y2="192.00" />
<line x1="368.00" y1="208.00" x2="432.00" y2="208.00" />
<line x1="448.00" y1="208.00" x2="496.00" y2="208.00" />
<line x1="368.00" y1="224.00" x2="400.00" y2="224.00" />
<line x1="512.00" y1="224.00" x2="864.00" y2="224.00" />
<line x1="880.00" y1="224.00" x2="912.00" y2="224.00" />
<line x1="1056.00" y1="224.00" x2="1120.00" y2="224.00" />
<line x1="416.00" y1="240.00" x2="432.00" y2="240.00" />
<line x1="448.00" y1="240.00" x2="496.00" y2="240.00" />
<line x1="512.00" y1="240.00" x2="864.00" y2="240.00" />
<line x1="880.00" y1="240.00" x2="912.00" y2="240.00" />
<line x1="1056.00" y1="240.00" x2="1088.00" y2="240.00" />
<line x1="1104.00" y1="240.00" x2="1120.00" y2="240.00" />
<line x1="208.00" y1="256.00" x2="272.00" y2="256.00" />
<line x1="336.00" y1="256.00" x2="368.00" y2="256.00" />
<line x1="208.00" y1="272.00" x2="320.00" y2="272.00" />
<line x1="1120.00" y1="272.00" x2="1168.00" y2="272.00" />
<line x1="1200.00" y1="272.00" x2="1232.00" y2="272.00" />
<line x1="912.00" y1="288.00" x2="976.00" y2="288.00" />
<line x1="1008.00" y1="288.00" x2="1056.00" y2="288.00" />
<line x1="448.00" y1="304.00" x2="496.00" y2="304.00" />
<line x1="512.00" y1="304.00" x2="560.00" y2="304.00" />
<line x1="688.00" y1="304.00" x2="816.00" y2="304.00" />
<line x1="128.00" y1="336.00" x2="160.00" y2="336.00" />
<line x1="176.00" y1="336.00" x2="208.00" y2="336.00" />
<line x1="336.00" y1="336.00" x2="400.00" y2="336.00" />
<line x1="416.00" y1="336.00" x2="432.00" y2="336.00" />
<line x1="944.00" y1="320.00" x2="976.00" y2="320.00" />
<line x1="1008.00" y1="320.00" x2="1024.00" y2="320.00" />
<line x1="320.00" y1="352.00" x2="400.00" y2="352.00" />
<line x1="416.00" y1="352.00" x2="432.00" y2="352.00" />
<line x1="816.00" y1="352.00" x2="864.00" y2="352.00" />
<line x1="880.00" y1="352.00" x2="944.00" y2="352.00" />
<line x1="304.00" y1="368.00" x2="400.00" y2="368.00" />
<line x1="816.00" y1="368.00" x2="864.00" y2="368.00" />
<line x1="880.00" y1="368.00" x2="944.00" y2="368.00" />
<line x1="1152.00" y1="368.00" x2="1168.00" y2="368.00" />
<line x1="1200.00" y1="368.00" x2="1216.00" y2="368.00" />
<line x1="448.00" y1="384.00" x2="496.00" y2="384.00" />
<line x1="512.00" y1="384.00" x2="560.00" y2="384.00" />
<line x1="448.00" y1="400.00" x2="496.00" y2="400.00" />
<line x1="512.00" y1="400.00" x2="560.00" y2="400.00" />
<line x1="688.00" y1="416.00" x2="816.00" y2="416.00" />
<line x1="256.00" y1="432.00" x2="304.00" y2="432.00" />
<line x1="416.00" y1="432.00" x2="432.00" y2="432.00" />
<line x1="560.00" y1="432.00" x2="864.00" y2="432.00" />
<line x1="880.00" y1="432.00" x2="944.00" y2="432.00" />
<line x1="1024.00" y1="432.00" x2="1088.00" y2="432.00" />
<line x1="1104.00" y1="432.00" x2="1152.00" y2="432.00" />
<line x1="272.00" y1="448.00" x2="304.00" y2="448.00" />
<line x1="416.00" y1="448.00" x2="432.00" y2="448.00" />
<line x1="560.00" y1="448.00" x2="864.00" y2="448.00" />
<line x1="880.00" y1="448.00" x2="976.00" y2="448.00" />
<line x1="1024.00" y1="448.00" x2="1088.00" y2="448.00" />
<line x1="1104.00" y1="448.00" x2="1152.00" y2="448.00" />
<line x1="1056.00" y1="480.00" x2="1088.00" y2="480.00" />
<line x1="1104.00" y1="480.00" x2="1136.00" y2="480.00" />
<line x1="1152.00" y1="496.00" x2="1168.00" y2="496.00" />
<line x1="1200.00" y1="496.00" x2="1216.00" y2="496.00" />
<line x1="176.00" y1="512.00" x2="256.00" y2="512.00" />
<line x1="272.00" y1="512.00" x2="304.00" y2="512.00" />
<line x1="416.00" y1="512.00" x2="432.00" y2="512.00" />
<line x1="560.00" y1="512.00" x2="864.00" y2="512.00" />
<line x1="880.00" y1="512.00" x2="976.00" y2="512.00" />
<line x1="1024.00" y1="512.00" x2="1056.00" y2="512.00" />
<line x1="176.00" y1="528.00" x2="256.00" y2="528.00" />
<line x1="272.00" y1="528.00" x2="304.00" y2="528.00" />
<line x1="416.00" y1="528.00" x2="432.00" y2="528.00" />
<line x1="560.00" y1="528.00" x2="864.00" y2="528.00" />
<line x1="880.00" y1="528.00" x2="976.00" y2="528.00" />
<line x1="1024.00" y1="528.00" x2="1056.00" y2="528.00" />
<line x1="304.00" y1="544.00" x2="352.00" y2="544.00" />
<line x1="368.00" y1="544.00" x2="400.00" y2="544.00" />
<line x1="1056.00" y1="560.00" x2="1088.00" y2="560.00" />
<line x1="1104.00" y1="560.00" x2="1136.00" y2="560.00" />
<line x1="448.00" y1="576.00" x2="496.00" y2="576.00" />
<line x1="512.00" y1="576.00" x2="560.00" y2="576.00" />
<line x1="928.00" y1="592.00" x2="976.00" y2="592.00" />
<line x1="1024.00" y1="592.00" x2="1056.00" y2="592.00" />
<line x1="736.00" y1="608.00" x2="816.00" y2="608.00" />
<line x1="240.00" y1="624.00" x2="256.00" y2="624.00" />
<line x1="272.00" y1="624.00" x2="352.00" y2="624.00" />
<line x1="368.00" y1="624.00" x2="384.00" y2="624.00" />
<line x1="80.00" y1="656.00" x2="160.00" y2="656.00" />
<line x1="384.00" y1="656.00" x2="400.00" y2="656.00" />
<line x1="416.00" y1="656.00" x2="432.00" y2="656.00" />
<line x1="448.00" y1="656.00" x2="496.00" y2="656.00" />
<line x1="512.00" y1="656.00" x2="736.00" y2="656.00" />
<line x1="816.00" y1="656.00" x2="864.00" y2="656.00" />
<line x1="880.00" y1="656.00" x2="928.00" y2="656.00" />
<line x1="1056.00" y1="656.00" x2="1088.00" y2="656.00" />
<line x1="384.00" y1="672.00" x2="400.00" y2="672.00" />
<line x1="416.00" y1="672.00" x2="432.00" y2="672.00" />
<line x1="544.00" y1="672.00" x2="736.00" y2="672.00" />
<line x1="816.00" y1="672.00" x2="864.00" y2="672.00" />
<line x1="880.00" y1="672.00" x2="928.00" y2="672.00" />
<line x1="1056.00" y1="672.00" x2="1088.00" y2="672.00" />
<line x1="240.00" y1="704.00" x2="256.00" y2="704.00" />
<line x1="272.00" y1="704.00" x2="304.00" y2="704.00" />
<line x1="336.00" y1="704.00" x2="352.00" y2="704.00" />
<line x1="368.00" y1="704.00" x2="384.00" y2="704.00" />
<line x1="176.00" y1="720.00" x2="256.00" y2="720.00" />
<line x1="272.00" y1="720.00" x2="304.00" y2="720.00" />
<line x1="336.00" y1="720.00" x2="352.00" y2="720.00" />
<line x1="368.00" y1="720.00" x2="400.00" y2="720.00" />
<line x1="416.00" y1="720.00" x2="432.00" y2="720.00" />
<line x1="544.00" y1="720.00" x2="736.00" y2="720.00" />
<line x1="816.00" y1="720.00" x2="864.00" y2="720.00" />
<line x1="880.00" y1="720.00" x2="928.00" y2="720.00" />
<line x1="1056.00" y1="720.00" x2="1088.00" y2="720.00" />
<line x1="1104.00" y1="720.00" x2="1168.00" y2="720.00" />
<line x1="176.00" y1="736.00" x2="240.00" y2="736.00" />
<line x1="272.00" y1="736.00" x2="304.00" y2="736.00" />
<line x1="336.00" y1="736.00" x2="352.00" y2="736.00" />
<line x1="368.00" y1="736.00" x2="400.00" y2="736.00" />
<line x1="416.00" y1="736.00" x2="432.00" y2="736.00" />
<line x1="544.00" y1="736.00" x2="864.00" y2="736.00" />
<line x1="880.00" y1="736.00" x2="976.00" y2="736.00" />
<line x1="992.00" y1="736.00" x2="1008.00" y2="736.00" />
<line x1="1024.00" y1="736.00" x2="1088.00" y2="736.00" />
<line x1="1104.00" y1="736.00" x2="1168.00" y2="736.00" />
<line x1="928.00" y1="752.00" x2="976.00" y2="752.00" />
<line x1="992.00" y1="752.00" x2="1008.00" y2="752.00" />
<line x1="1024.00" y1="752.00" x2="1088.00" y2="752.00" />
<line x1="80.00" y1="800.00" x2="128.00" y2="800.00" />
<line x1="144.00" y1="800.00" x2="160.00" y2="800.00" />
<line x1="176.00" y1="800.00" x2="240.00" y2="800.00" />
<line x1="272.00" y1="800.00" x2="304.00" y2="800.00" />
<line x1="336.00" y1="800.00" x2="352.00" y2="800.00" />
<line x1="368.00" y1="800.00" x2="400.00" y2="800.00" />
<line x1="416.00" y1="800.00" x2="432.00" y2="800.00" />
<line x1="544.00" y1="800.00" x2="864.00" y2="800.00" />
<line x1="880.00" y1="800.00" x2="928.00" y2="800.00" />
<line x1="176.00" y1="816.00" x2="240.00" y2="816.00" />
<line x1="272.00" y1="816.00" x2="304.00" y2="816.00" />
<line x1="336.00" y1="816.00" x2="352.00" y2="816.00" />
<line x1="368.00" y1="816.00" x2="400.00" y2="816.00" />
<line x1="416.00" y1="816.00" x2="432.00" y2="816.00" />
<line x1="448.00" y1="816.00" x2="864.00" y2="816.00" />
<line x1="880.00" y1="816.00" x2="928.00" y2="816.00" />
<line x1="928.00" y1="848.00" x2="976.00" y2="848.00" />
<line x1="992.00" y1="848.00" x2="1088.00" y2="848.00" />
<line x1="192.00" y1="864.00" x2="240.00" y2="864.00" />
<line x1="272.00" y1="864.00" x2="304.00" y2="864.00" />
<line x1="336.00" y1="896.00" x2="352.00" y2="896.00" />
<line x1="368.00" y1="896.00" x2="400.00" y2="896.00" />
<line x1="416.00" y1="896.00" x2="432.00" y2="896.00" />
<line x1="448.00" y1="896.00" x2="464.00" y2="896.00" />
<line x1="192.00" y1="944.00" x2="256.00" y2="944.00" />
<line x1="272.00" y1="944.00" x2="304.00" y2="944.00" />
<line x1="800.00" y1="928.00" x2="864.00" y2="928.00" />
<line x1="880.00" y1="928.00" x2="912.00" y2="928.00" />
<line x1="1152.00" y1="928.00" x2="1168.00" y2="928.00" />
<line x1="1200.00" y1="928.00" x2="1216.00" y2="928.00" />
<line x1="304.00" y1="992.00" x2="320.00" y2="992.00" />
<line x1="1152.00" y1="992.00" x2="1168.00" y2="992.00" />
<line x1="1200.00" y1="992.00" x2="1216.00" y2="992.00" />
<line x1="336.00" y1="1056.00" x2="352.00" y2="1056.00" />
<line x1="368.00" y1="1056.00" x2="432.00" y2="1056.00" />
<line x1="448.00" y1="1056.00" x2="464.00" y2="1056.00" />
<line x1="1040.00" y1="1056.00" x2="1088.00" y2="1056.00" />
<line x1="1104.00" y1="1056.00" x2="1152.00" y2="1056.00" />
<line x1="384.00" y1="1088.00" x2="432.00" y2="1088.00" />
<line x1="448.00" y1="1088.00" x2="528.00" y2="1088.00" />
<line x1="800.00" y1="1088.00" x2="848.00" y2="1088.00" />
<line x1="880.00" y1="1088.00" x2="912.00" y2="1088.00" />
<line x1="208.00" y1="1136.00" x2="256.00" y2="1136.00" />
<line x1="272.00" y1="1136.00" x2="320.00" y2="1136.00" />
<line x1="528.00" y1="1136.00" x2="848.00" y2="1136.00" />
<line x1="880.00" y1="1136.00" x2="976.00" y2="1136.00" />
<line x1="992.00" y1="1136.00" x2="1040.00" y2="1136.00" />
<line x1="1152.00" y1="1136.00" x2="1168.00" y2="1136.00" />
<line x1="528.00" y1="1152.00" x2="864.00" y2="1152.00" />
<line x1="880.00" y1="1152.00" x2="976.00" y2="1152.00" />
<line x1="992.00" y1="1152.00" x2="1040.00" y2="1152.00" />
<line x1="1152.00" y1="1152.00" x2="1184.00" y2="1152.00" />
<line x1="384.00" y1="1184.00" x2="432.00" y2="1184.00" />
<line x1="448.00" y1="1184.00" x2="528.00" y2="1184.00" />
<line x1="336.00" y1="1200.00" x2="352.00" y2="1200.00" />
<line x1="368.00" y1="1200.00" x2="432.00" y2="1200.00" />
<line x1="448.00" y1="1200.00" x2="864.00" y2="1200.00" />
<line x1="336.00" y1="1216.00" x2="352.00" y2="1216.00" />
<line x1="368.00" y1="1216.00" x2="432.00" y2="1216.00" />
<line x1="448.00" y1="1216.00" x2="592.00" y2="1216.00" />
<line x1="608.00" y1="1216.00" x2="880.00" y2="1216.00" />
<line x1="384.00" y1="1232.00" x2="432.00" y2="1232.00" />
<line x1="448.00" y1="1232.00" x2="480.00" y2="1232.00" />
<line x1="1040.00" y1="1232.00" x2="1088.00" y2="1232.00" />
<line x1="1104.00" y1="1232.00" x2="1152.00" y2="1232.00" />
<line x1="208.00" y1="1264.00" x2="320.00" y2="1264.00" />
<line x1="288.00" y1="1280.00" x2="320.00" y2="1280.00" />
<line x1="336.00" y1="1280.00" x2="352.00" y2="1280.00" />
<line x1="480.00" y1="1296.00" x2="592.00" y2="1296.00" />
<line x1="608.00" y1="1296.00" x2="784.00" y2="1296.00" />
<line x1="1152.00" y1="1296.00" x2="1184.00" y2="1296.00" />
<line x1="1200.00" y1="1296.00" x2="1216.00" y2="1296.00" />
<line x1="480.00" y1="1312.00" x2="560.00" y2="1312.00" />
<line x1="624.00" y1="1312.00" x2="768.00" y2="1312.00" />
<line x1="160.00" y1="1344.00" x2="288.00" y2="1344.00" />
<line x1="368.00" y1="1344.00" x2="384.00" y2="1344.00" />
<line x1="480.00" y1="1344.00" x2="560.00" y2="1344.00" />
<line x1="624.00" y1="1344.00" x2="704.00" y2="1344.00" />
<line x1="848.00" y1="1344.00" x2="976.00" y2="1344.00" />
<line x1="992.00" y1="1344.00" x2="1088.00" y2="1344.00" />
<line x1="1104.00" y1="1344.00" x2="1152.00" y2="1344.00" />
<line x1="176.00" y1="1328.00" x2="288.00" y2="1328.00" />
<line x1="368.00" y1="1328.00" x2="384.00" y2="1328.00" />
<line x1="480.00" y1="1328.00" x2="560.00" y2="1328.00" />
<line x1="624.00" y1="1328.00" x2="768.00" y2="1328.00" />
<line x1="784.00" y1="1328.00" x2="976.00" y2="1328.00" />
<line x1="992.00" y1="1328.00" x2="1088.00" y2="1328.00" />
<line x1="1104.00" y1="1328.00" x2="1152.00" y2="1328.00" />
<line x1="384.00" y1="1360.00" x2="432.00" y2="1360.00" />
<line x1="448.00" y1="1360.00" x2="480.00" y2="1360.00" />
<line x1="368.00" y1="1376.00" x2="432.00" y2="1376.00" />
<line x1="448.00" y1="1376.00" x2="560.00" y2="1376.00" />
<line x1="624.00" y1="1376.00" x2="704.00" y2="1376.00" />
<line x1="848.00" y1="1376.00" x2="976.00" y2="1376.00" />
<line x1="992.00" y1="1376.00" x2="1088.00" y2="1376.00" />
<line x1="1104.00" y1="1376.00" x2="1152.00" y2="1376.00" />
<line x1="1200.00" y1="1376.00" x2="1216.00" y2="1376.00" />
<line x1="368.00" y1="1392.00" x2="560.00" y2="1392.00" />
<line x1="624.00" y1="1392.00" x2="704.00" y2="1392.00" />
<line x1="848.00" y1="1392.00" x2="1200.00" y2="1392.00" />
<line x1="128.00" y1="1424.00" x2="288.00" y2="1424.00" />
<line x1="368.00" y1="1424.00" x2="560.00" y2="1424.00" />
<line x1="624.00" y1="1424.00" x2="704.00" y2="1424.00" />
<line x1="144.00" y1="1408.00" x2="288.00" y2="1408.00" />
<line x1="368.00" y1="1408.00" x2="560.00" y2="1408.00" />
<line x1="624.00" y1="1408.00" x2="704.00" y2="1408.00" />
<line x1="288.00" y1="1440.00" x2="368.00" y2="1440.00" />
<line x1="560.00" y1="1472.00" x2="624.00" y2="1472.00" />
<line x1="704.00" y1="1504.00" x2="848.00" y2="1504.00" />
<line x1="800.00" y1="64.00" x2="800.00" y2="96.00" />
<line x1="800.00" y1="112.00" x2="800.00" y2="144.00" />
<line x1="800.00" y1="928.00" x2="800.00" y2="1088.00" />
<line x1="928.00" y1="64.00" x2="928.00" y2="96.00" />
<line x1="928.00" y1="112.00" x2="928.00" y2="144.00" />
<line x1="928.00" y1="592.00" x2="928.00" y2="656.00" />
<line x1="928.00" y1="672.00" x2="928.00" y2="720.00" />
<line x1="928.00" y1="752.00" x2="928.00" y2="800.00" />
<line x1="928.00" y1="816.00" x2="928.00" y2="848.00" />
<line x1="432.00" y1="96.00" x2="432.00" y2="208.00" />
<line x1="432.00" y1="240.00" x2="432.00" y2="336.00" />
<line x1="432.00" y1="352.00" x2="432.00" y2="432.00" />
<line x1="432.00" y1="448.00" x2="432.00" y2="512.00" />
<line x1="432.00" y1="528.00" x2="432.00" y2="656.00" />
<line x1="432.00" y1="672.00" x2="432.00" y2="720.00" />
<line x1="432.00" y1="736.00" x2="432.00" y2="800.00" />
<line x1="432.00" y1="816.00" x2="432.00" y2="896.00" />
<line x1="432.00" y1="1056.00" x2="432.00" y2="1088.00" />
<line x1="432.00" y1="1184.00" x2="432.00" y2="1200.00" />
<line x1="432.00" y1="1216.00" x2="432.00" y2="1232.00" />
<line x1="432.00" y1="1360.00" x2="432.00" y2="1376.00" />
<line x1="1200.00" y1="96.00" x2="1200.00" y2="192.00" />
<line x1="1200.00" y1="272.00" x2="1200.00" y2="368.00" />
<line x1="1200.00" y1="496.00" x2="1200.00" y2="928.00" />
<line x1="1200.00" y1="992.00" x2="1200.00" y2="1296.00" />
<line x1="1200.00" y1="1376.00" x2="1200.00" y2="1392.00" />
<line x1="448.00" y1="112.00" x2="448.00" y2="208.00" />
<line x1="448.00" y1="240.00" x2="448.00" y2="304.00" />
<line x1="448.00" y1="384.00" x2="448.00" y2="400.00" />
<line x1="448.00" y1="576.00" x2="448.00" y2="656.00" />
<line x1="448.00" y1="816.00" x2="448.00" y2="896.00" />
<line x1="448.00" y1="1056.00" x2="448.00" y2="1088.00" />
<line x1="448.00" y1="1184.00" x2="448.00" y2="1200.00" />
<line x1="448.00" y1="1216.00" x2="448.00" y2="1232.00" />
<line x1="448.00" y1="1360.00" x2="448.00" y2="1376.00" />
<line x1="496.00" y1="112.00" x2="496.00" y2="208.00" />
<line x1="496.00" y1="240.00" x2="496.00" y2="304.00" />
<line x1="496.00" y1="384.00" x2="496.00" y2="400.00" />
<line x1="496.00" y1="576.00" x2="496.00" y2="656.00" />
<line x1="512.00" y1="112.00" x2="512.00" y2="224.00" />
<line x1="512.00" y1="240.00" x2="512.00" y2="304.00" />
<line x1="512.00" y1="384.00" x2="512.00" y2="400.00" />
<line x1="512.00" y1="576.00" x2="512.00" y2="656.00" />
<line x1="1184.00" y1="112.00" x2="1184.00" y2="192.00" />
<line x1="1184.00" y1="1152.00" x2="1184.00" y2="1296.00" />
<line x1="864.00" y1="144.00" x2="864.00" y2="224.00" />
<line x1="864.00" y1="240.00" x2="864.00" y2="352.00" />
<line x1="864.00" y1="368.00" x2="864.00" y2="432.00" />
<line x1="864.00" y1="448.00" x2="864.00" y2="512.00" />
<line x1="864.00" y1="528.00" x2="864.00" y2="656.00" />
<line x1="864.00" y1="672.00" x2="864.00" y2="720.00" />
<line x1="864.00" y1="736.00" x2="864.00" y2="800.00" />
<line x1="864.00" y1="816.00" x2="864.00" y2="928.00" />
<line x1="864.00" y1="1152.00" x2="864.00" y2="1200.00" />
<line x1="880.00" y1="144.00" x2="880.00" y2="224.00" />
<line x1="880.00" y1="240.00" x2="880.00" y2="352.00" />
<line x1="880.00" y1="368.00" x2="880.00" y2="432.00" />
<line x1="880.00" y1="448.00" x2="880.00" y2="512.00" />
<line x1="880.00" y1="528.00" x2="880.00" y2="656.00" />
<line x1="880.00" y1="672.00" x2="880.00" y2="720.00" />
<line x1="880.00" y1="736.00" x2="880.00" y2="800.00" />
<line x1="880.00" y1="816.00" x2="880.00" y2="928.00" />
<line x1="880.00" y1="1088.00" x2="880.00" y2="1136.00" />
<line x1="880.00" y1="1152.00" x2="880.00" y2="1216.00" />
<line x1="272.00" y1="176.00" x2="272.00" y2="256.00" />
<line x1="272.00" y1="448.00" x2="272.00" y2="512.00" />
<line x1="272.00" y1="528.00" x2="272.00" y2="624.00" />
<line x1="272.00" y1="704.00" x2="272.00" y2="720.00" />
<line x1="272.00" y1="736.00" x2="272.00" y2="800.00" />
<line x1="272.00" y1="816.00" x2="272.00" y2="864.00" />
<line x1="272.00" y1="944.00" x2="272.00" y2="1136.00" />
<line x1="368.00" y1="176.00" x2="368.00" y2="208.00" />
<line x1="368.00" y1="224.00" x2="368.00" y2="256.00" />
<line x1="368.00" y1="544.00" x2="368.00" y2="624.00" />
<line x1="368.00" y1="704.00" x2="368.00" y2="720.00" />
<line x1="368.00" y1="736.00" x2="368.00" y2="800.00" />
<line x1="368.00" y1="816.00" x2="368.00" y2="896.00" />
<line x1="368.00" y1="1056.00" x2="368.00" y2="1200.00" />
<line x1="368.00" y1="1216.00" x2="368.00" y2="1328.00" />
<line x1="368.00" y1="1344.00" x2="368.00" y2="1376.00" />
<line x1="368.00" y1="1392.00" x2="368.00" y2="1408.00" />
<line x1="368.00" y1="1424.00" x2="368.00" y2="1440.00" />
<line x1="912.00" y1="176.00" x2="912.00" y2="224.00" />
<line x1="912.00" y1="240.00" x2="912.00" y2="288.00" />
<line x1="912.00" y1="928.00" x2="912.00" y2="1088.00" />
<line x1="1056.00" y1="176.00" x2="1056.00" y2="224.00" />
<line x1="1056.00" y1="240.00" x2="1056.00" y2="288.00" />
<line x1="1056.00" y1="480.00" x2="1056.00" y2="512.00" />
<line x1="1056.00" y1="528.00" x2="1056.00" y2="560.00" />
<line x1="1056.00" y1="592.00" x2="1056.00" y2="656.00" />
<line x1="1056.00" y1="672.00" x2="1056.00" y2="720.00" />
<line x1="128.00" y1="192.00" x2="128.00" y2="336.00" />
<line x1="128.00" y1="800.00" x2="128.00" y2="1424.00" />
<line x1="208.00" y1="192.00" x2="208.00" y2="256.00" />
<line x1="208.00" y1="272.00" x2="208.00" y2="336.00" />
<line x1="208.00" y1="1136.00" x2="208.00" y2="1264.00" />
<line x1="1120.00" y1="192.00" x2="1120.00" y2="224.00" />
<line x1="1120.00" y1="240.00" x2="1120.00" y2="272.00" />
<line x1="1232.00" y1="192.00" x2="1232.00" y2="272.00" />
<line x1="400.00" y1="224.00" x2="400.00" y2="336.00" />
<line x1="400.00" y1="352.00" x2="400.00" y2="368.00" />
<line x1="400.00" y1="544.00" x2="400.00" y2="656.00" />
<line x1="400.00" y1="672.00" x2="400.00" y2="720.00" />
<line x1="400.00" y1="736.00" x2="400.00" y2="800.00" />
<line x1="400.00" y1="816.00" x2="400.00" y2="896.00" />
<line x1="416.00" y1="240.00" x2="416.00" y2="336.00" />
<line x1="416.00" y1="352.00" x2="416.00" y2="432.00" />
<line x1="416.00" y1="448.00" x2="416.00" y2="512.00" />
<line x1="416.00" y1="528.00" x2="416.00" y2="656.00" />
<line x1="416.00" y1="672.00" x2="416.00" y2="720.00" />
<line x1="416.00" y1="736.00" x2="416.00" y2="800.00" />
<line x1="416.00" y1="816.00" x2="416.00" y2="896.00" />
<line x1="1088.00" y1="240.00" x2="1088.00" y2="432.00" />
<line x1="1088.00" y1="448.00" x2="1088.00" y2="480.00" />
<line x1="1088.00" y1="560.00" x2="1088.00" y2="656.00" />
<line x1="1088.00" y1="672.00" x2="1088.00" y2="720.00" />
<line x1="1088.00" y1="736.00" x2="1088.00" y2="752.00" />
<line x1="1088.00" y1="848.00" x2="1088.00" y2="1056.00" />
<line x1="1088.00" y1="1232.00" x2="1088.00" y2="1328.00" />
<line x1="1088.00" y1="1344.00" x2="1088.00" y2="1376.00" />
<line x1="1104.00" y1="240.00" x2="1104.00" y2="432.00" />
<line x1="1104.00" y1="448.00" x2="1104.00" y2="480.00" />
<line x1="1104.00" y1="560.00" x2="1104.00" y2="720.00" />
<line x1="1104.00" y1="736.00" x2="1104.00" y2="1056.00" />
<line x1="1104.00" y1="1232.00" x2="1104.00" y2="1328.00" />
<line x1="1104.00" y1="1344.00" x2="1104.00" y2="1376.00" />
<line x1="336.00" y1="256.00" x2="336.00" y2="336.00" />
<line x1="336.00" y1="704.00" x2="336.00" y2="720.00" />
<line x1="336.00" y1="736.00" x2="336.00" y2="800.00" />
<line x1="336.00" y1="816.00" x2="336.00" y2="896.00" />
<line x1="336.00" y1="1056.00" x2="336.00" y2="1200.00" />
<line x1="336.00" y1="1216.00" x2="336.00" y2="1280.00" />
<line x1="320.00" y1="272.00" x2="320.00" y2="352.00" />
<line x1="320.00" y1="992.00" x2="320.00" y2="1136.00" />
<line x1="320.00" y1="1264.00" x2="320.00" y2="1280.00" />
<line x1="1168.00" y1="272.00" x2="1168.00" y2="368.00" />
<line x1="1168.00" y1="496.00" x2="1168.00" y2="720.00" />
<line x1="1168.00" y1="736.00" x2="1168.00" y2="928.00" />
<line x1="1168.00" y1="992.00" x2="1168.00" y2="1136.00" />
<line x1="976.00" y1="288.00" x2="976.00" y2="320.00" />
<line x1="976.00" y1="448.00" x2="976.00" y2="512.00" />
<line x1="976.00" y1="528.00" x2="976.00" y2="592.00" />
<line x1="976.00" y1="736.00" x2="976.00" y2="752.00" />
<line x1="976.00" y1="848.00" x2="976.00" y2="1136.00" />
<line x1="976.00" y1="1152.00" x2="976.00" y2="1328.00" />
<line x1="976.00" y1="1344.00" x2="976.00" y2="1376.00" />
<line x1="1008.00" y1="288.00" x2="1008.00" y2="320.00" />
<line x1="1008.00" y1="736.00" x2="1008.00" y2="752.00" />
<line x1="560.00" y1="304.00" x2="560.00" y2="384.00" />
<line x1="560.00" y1="400.00" x2="560.00" y2="432.00" />
<line x1="560.00" y1="448.00" x2="560.00" y2="512.00" />
<line x1="560.00" y1="528.00" x2="560.00" y2="576.00" />
<line x1="560.00" y1="1312.00" x2="560.00" y2="1328.00" />
<line x1="560.00" y1="1344.00" x2="560.00" y2="1376.00" />
<line x1="560.00" y1="1392.00" x2="560.00" y2="1408.00" />
<line x1="560.00" y1="1424.00" x2="560.00" y2="1472.00" />
<line x1="688.00" y1="304.00" x2="688.00" y2="416.00" />
<line x1="816.00" y1="304.00" x2="816.00" y2="352.00" />
<line x1="816.00" y1="368.00" x2="816.00" y2="416.00" />
<line x1="816.00" y1="608.00" x2="816.00" y2="656.00" />
<line x1="816.00" y1="672.00" x2="816.00" y2="720.00" />
<line x1="944.00" y1="320.00" x2="944.00" y2="352.00" />
<line x1="944.00" y1="368.00" x2="944.00" y2="432.00" />
<line x1="1024.00" y1="320.00" x2="1024.00" y2="432.00" />
<line x1="1024.00" y1="448.00" x2="1024.00" y2="512.00" />
<line x1="1024.00" y1="528.00" x2="1024.00" y2="592.00" />
<line x1="1024.00" y1="736.00" x2="1024.00" y2="752.00" />
<line x1="160.00" y1="336.00" x2="160.00" y2="656.00" />
<line x1="160.00" y1="800.00" x2="160.00" y2="1344.00" />
<line x1="176.00" y1="336.00" x2="176.00" y2="512.00" />
<line x1="176.00" y1="528.00" x2="176.00" y2="720.00" />
<line x1="176.00" y1="736.00" x2="176.00" y2="800.00" />
<line x1="176.00" y1="816.00" x2="176.00" y2="1328.00" />
<line x1="304.00" y1="368.00" x2="304.00" y2="432.00" />
<line x1="304.00" y1="448.00" x2="304.00" y2="512.00" />
<line x1="304.00" y1="528.00" x2="304.00" y2="544.00" />
<line x1="304.00" y1="704.00" x2="304.00" y2="720.00" />
<line x1="304.00" y1="736.00" x2="304.00" y2="800.00" />
<line x1="304.00" y1="816.00" x2="304.00" y2="864.00" />
<line x1="304.00" y1="944.00" x2="304.00" y2="992.00" />
<line x1="1152.00" y1="368.00" x2="1152.00" y2="432.00" />
<line x1="1152.00" y1="448.00" x2="1152.00" y2="496.00" />
<line x1="1152.00" y1="928.00" x2="1152.00" y2="992.00" />
<line x1="1152.00" y1="1056.00" x2="1152.00" y2="1136.00" />
<line x1="1152.00" y1="1152.00" x2="1152.00" y2="1232.00" />
<line x1="1152.00" y1="1296.00" x2="1152.00" y2="1328.00" />
<line x1="1152.00" y1="1344.00" x2="1152.00" y2="1376.00" />
<line x1="1216.00" y1="368.00" x2="1216.00" y2="496.00" />
<line x1="1216.00" y1="928.00" x2="1216.00" y2="992.00" />
<line x1="1216.00" y1="1296.00" x2="1216.00" y2="1376.00" />
<line x1="256.00" y1="432.00" x2="256.00" y2="512.00" />
<line x1="256.00" y1="528.00" x2="256.00" y2="624.00" />
<line x1="256.00" y1="704.00" x2="256.00" y2="720.00" />
<line x1="256.00" y1="944.00" x2="256.00" y2="1136.00" />
<line x1="1136.00" y1="480.00" x2="1136.00" y2="560.00" />
<line x1="352.00" y1="544.00" x2="352.00" y2="624.00" />
<line x1="352.00" y1="704.00" x2="352.00" y2="720.00" />
<line x1="352.00" y1="736.00" x2="352.00" y2="800.00" />
<line x1="352.00" y1="816.00" x2="352.00" y2="896.00" />
<line x1="352.00" y1="1056.00" x2="352.00" y2="1200.00" />
<line x1="352.00" y1="1216.00" x2="352.00" y2="1280.00" />
<line x1="736.00" y1="608.00" x2="736.00" y2="656.00" />
<line x1="736.00" y1="672.00" x2="736.00" y2="720.00" />
<line x1="240.00" y1="624.00" x2="240.00" y2="704.00" />
<line x1="240.00" y1="736.00" x2="240.00" y2="800.00" />
<line x1="240.00" y1="816.00" x2="240.00" y2="864.00" />
<line x1="384.00" y1="624.00" x2="384.00" y2="656.00" />
<line x1="384.00" y1="672.00" x2="384.00" y2="704.00" />
<line x1="384.00" y1="1088.00" x2="384.00" y2="1184.00" />
<line x1="384.00" y1="1232.00" x2="384.00" y2="1328.00" />
<line x1="384.00" y1="1344.00" x2="384.00" y2="1360.00" />
<line x1="80.00" y1="656.00" x2="80.00" y2="800.00" />
<line x1="544.00" y1="672.00" x2="544.00" y2="720.00" />
<line x1="544.00" y1="736.00" x2="544.00" y2="800.00" />
<line x1="992.00" y1="736.00" x2="992.00" y2="752.00" />
<line x1="992.00" y1="848.00" x2="992.00" y2="1136.00" />
<line x1="992.00" y1="1152.00" x2="992.00" y2="1328.00" />
<line x1="992.00" y1="1344.00" x2="992.00" y2="1376.00" />
<line x1="144.00" y1="800.00" x2="144.00" y2="1408.00" />
<line x1="192.00" y1="864.00" x2="192.00" y2="944.00" />
<line x1="464.00" y1="896.00" x2="464.00" y2="1056.00" />
<line x1="1040.00" y1="1056.00" x2="1040.00" y2="1136.00" />
<line x1="1040.00" y1="1152.00" x2="1040.00" y2="1232.00" />
<line x1="528.00" y1="1088.00" x2="528.00" y2="1136.00" />
<line x1="528.00" y1="1152.00" x2="528.00" y2="1184.00" />
<line x1="848.00" y1="1088.00" x2="848.00" y2="1136.00" />
<line x1="848.00" y1="1344.00" x2="848.00" y2="1376.00" />
<line x1="848.00" y1="1392.00" x2="848.00" y2="1504.00" />
<line x1="592.00" y1="1216.00" x2="592.00" y2="1296.00" />
<line x1="608.00" y1="1216.00" x2="608.00" y2="1296.00" />
<line x1="480.00" y1="1232.00" x2="480.00" y2="1296.00" />
<line x1="480.00" y1="1312.00" x2="480.00" y2="1328.00" />
<line x1="480.00" y1="1344.00" x2="480.00" y2="1360.00" />
<line x1="288.00" y1="1280.00" x2="288.00" y2="1328.00" />
<line x1="288.00" y1="1344.00" x2="288.00" y2="1408.00" />
<line x1="288.00" y1="1424.00" x2="288.00" y2="1440.00" />
<line x1="784.00" y1="1296.00" x2="784.00" y2="1328.00" />
<line x1="624.00" y1="1312.00" x2="624.00" y2="1328.00" />
<line x1="624.00" y1="1344.00" x2="624.00" y2="1376.00" />
<line x1="624.00" y1="1392.00" x2="624.00" y2="1408.00" />
<line x1="624.00" y1="1424.00" x2="624.00" y2="1472.00" />
<line x1="768.00" y1="1312.00" x2="768.00" y2="1328.00" />
<line x1="704.00" y1="1344.00" x2="704.00" y2="1376.00" />
<line x1="704.00" y1="1392.00" x2="704.00" y2="1408.00" />
<line x1="704.00" y1="1424.00" x2="704.00" y2="1504.00" />
  </g>
  <g class="features">
<g data-feature-type="stairsDown"><line data-feature-type="stairsDown" x1="754.24" y1="1395.36" x2="765.76" y2="1395.36" /><line x1="754.65" y1="1397.68" x2="765.35" y2="1397.68" /><line x1="755.07" y1="1400.00" x2="764.93" y2="1400.00" /><line x1="755.48" y1="1402.32" x2="764.52" y2="1402.32" /><line x1="755.90" y1="1404.64" x2="764.10" y2="1404.64" /></g>
<g data-feature-type="stairsUp"><line data-feature-type="stairsUp" x1="483.90" y1="483.36" x2="492.10" y2="483.36" /><line x1="483.48" y1="485.68" x2="492.52" y2="485.68" /><line x1="483.07" y1="488.00" x2="492.93" y2="488.00" /><line x1="482.65" y1="490.32" x2="493.35" y2="490.32" /><line x1="482.24" y1="492.64" x2="493.76" y2="492.64" /></g>
<circle data-feature-type="pillar" cx="584.00" cy="1384.00" r="3.68" fill="#4f89a8" stroke="none" />
<circle data-feature-type="pillar" cx="440.00" cy="1336.00" r="3.68" fill="#4f89a8" stroke="none" />
<circle data-feature-type="pillar" cx="440.00" cy="1272.00" r="3.68" fill="#4f89a8" stroke="none" />
<circle data-feature-type="pillar" cx="760.00" cy="1432.00" r="3.68" fill="#4f89a8" stroke="none" />
<circle data-feature-type="pillar" cx="792.00" cy="1432.00" r="3.68" fill="#4f89a8" stroke="none" />
<circle data-feature-type="pillar" cx="808.00" cy="1432.00" r="3.68" fill="#4f89a8" stroke="none" />
<g data-feature-type="statue"><circle cx="792.00" cy="1368.00" r="3.52" fill="none" /><line x1="789.76" y1="1368.00" x2="794.24" y2="1368.00" /><line x1="792.00" y1="1365.76" x2="792.00" y2="1370.24" /><line x1="790.39" y1="1366.39" x2="793.61" y2="1369.61" /><line x1="790.39" y1="1369.61" x2="793.61" y2="1366.39" /></g>
<g data-feature-type="trap"><rect x="1204.64" y="244.64" width="6.72" height="6.72" fill="none" /><line x1="1204.64" y1="244.64" x2="1211.36" y2="251.36" /><line x1="1204.64" y1="251.36" x2="1211.36" y2="244.64" /></g>
<path data-feature-type="curtain" d="M 1142.40 227.84 Q 1144.00 230.34 1142.40 232.00 Q 1144.00 233.66 1142.40 236.16" fill="none" /><path d="M 1145.60 227.84 Q 1144.00 230.34 1145.60 232.00 Q 1144.00 233.66 1145.60 236.16" fill="none" />
<circle data-feature-type="pillar" cx="472.00" cy="1144.00" r="3.68" fill="#4f89a8" stroke="none" />
<g data-feature-type="altar"><rect x="421.28" y="1142.40" width="5.44" height="3.20" fill="none" /><line x1="424.00" y1="1141.44" x2="424.00" y2="1146.56" /><line x1="422.40" y1="1144.00" x2="425.60" y2="1144.00" /></g>
<circle data-feature-type="pillar" cx="792.00" cy="664.00" r="3.68" fill="#4f89a8" stroke="none" />
<circle data-feature-type="pillar" cx="1096.00" cy="1176.00" r="3.68" fill="#4f89a8" stroke="none" />
<circle data-feature-type="pillar" cx="1096.00" cy="1112.00" r="3.68" fill="#4f89a8" stroke="none" />
<g data-feature-type="statue"><circle cx="1064.00" cy="1144.00" r="3.52" fill="none" /><line x1="1061.76" y1="1144.00" x2="1066.24" y2="1144.00" /><line x1="1064.00" y1="1141.76" x2="1064.00" y2="1146.24" /><line x1="1062.39" y1="1142.39" x2="1065.61" y2="1145.61" /><line x1="1062.39" y1="1145.61" x2="1065.61" y2="1142.39" /></g>
<g data-feature-type="coffin"><rect x="1077.60" y="1076.32" width="4.80" height="7.36" rx="0.80" ry="0.80" fill="none" /><line x1="1080.00" y1="1077.94" x2="1080.00" y2="1082.06" /></g>
<circle data-feature-type="pillar" cx="856.00" cy="1000.00" r="3.68" fill="#4f89a8" stroke="none" />
<circle data-feature-type="pillar" cx="856.00" cy="1048.00" r="3.68" fill="#4f89a8" stroke="none" />
<g data-feature-type="statue"><circle cx="872.00" cy="1016.00" r="3.52" fill="none" /><line x1="869.76" y1="1016.00" x2="874.24" y2="1016.00" /><line x1="872.00" y1="1013.76" x2="872.00" y2="1018.24" /><line x1="870.39" y1="1014.39" x2="873.61" y2="1017.61" /><line x1="870.39" y1="1017.61" x2="873.61" y2="1014.39" /></g>
<g data-feature-type="trap"><rect x="884.64" y="1060.64" width="6.72" height="6.72" fill="none" /><line x1="884.64" y1="1060.64" x2="891.36" y2="1067.36" /><line x1="884.64" y1="1067.36" x2="891.36" y2="1060.64" /></g>
<circle data-feature-type="pillar" cx="888.00" cy="104.00" r="3.68" fill="#4f89a8" stroke="none" />
<g data-feature-type="statue"><circle cx="856.00" cy="104.00" r="3.52" fill="none" /><line x1="853.76" y1="104.00" x2="858.24" y2="104.00" /><line x1="856.00" y1="101.76" x2="856.00" y2="106.24" /><line x1="854.39" y1="102.39" x2="857.61" y2="105.61" /><line x1="854.39" y1="105.61" x2="857.61" y2="102.39" /></g>
<circle data-feature-type="pillar" cx="1000.00" cy="232.00" r="3.68" fill="#4f89a8" stroke="none" />
<path data-feature-type="curtain" d="M 934.40 211.84 Q 936.00 214.34 934.40 216.00 Q 936.00 217.66 934.40 220.16" fill="none" /><path d="M 937.60 211.84 Q 936.00 214.34 937.60 216.00 Q 936.00 217.66 937.60 220.16" fill="none" />
<circle data-feature-type="pillar" cx="184.00" cy="264.00" r="3.68" fill="#4f89a8" stroke="none" />
<g data-feature-type="well"><circle cx="184.00" cy="296.00" r="4.00" fill="none" /><circle cx="184.00" cy="296.00" r="2.24" fill="none" /></g>
<g data-feature-type="coffin"><rect x="149.60" y="292.32" width="4.80" height="7.36" rx="0.80" ry="0.80" fill="none" /><line x1="152.00" y1="293.94" x2="152.00" y2="298.06" /></g>
<circle data-feature-type="pillar" cx="360.00" cy="472.00" r="3.68" fill="#4f89a8" stroke="none" />
<circle data-feature-type="pillar" cx="360.00" cy="424.00" r="3.68" fill="#4f89a8" stroke="none" />
<circle data-feature-type="pillar" cx="280.00" cy="1208.00" r="3.68" fill="#4f89a8" stroke="none" />
<path data-feature-type="curtain" d="M 294.40 1203.84 Q 296.00 1206.34 294.40 1208.00 Q 296.00 1209.66 294.40 1212.16" fill="none" /><path d="M 297.60 1203.84 Q 296.00 1206.34 297.60 1208.00 Q 296.00 1209.66 297.60 1212.16" fill="none" />
<circle data-feature-type="pillar" cx="472.00" cy="488.00" r="3.68" fill="#4f89a8" stroke="none" />
<circle data-feature-type="pillar" cx="520.00" cy="488.00" r="3.68" fill="#4f89a8" stroke="none" />
<circle data-feature-type="pillar" cx="1048.00" cy="808.00" r="3.68" fill="#4f89a8" stroke="none" />
<circle data-feature-type="pillar" cx="1000.00" cy="808.00" r="3.68" fill="#4f89a8" stroke="none" />
<g data-feature-type="altar"><rect x="965.28" y="790.40" width="5.44" height="3.20" fill="none" /><line x1="968.00" y1="789.44" x2="968.00" y2="794.56" /><line x1="966.40" y1="792.00" x2="969.60" y2="792.00" /></g>
<g data-feature-type="coffin"><rect x="981.60" y="772.32" width="4.80" height="7.36" rx="0.80" ry="0.80" fill="none" /><line x1="984.00" y1="773.94" x2="984.00" y2="778.06" /></g>
<circle data-feature-type="pillar" cx="1208.00" cy="440.00" r="3.68" fill="#4f89a8" stroke="none" />
<g data-feature-type="statue"><circle cx="1176.00" cy="440.00" r="3.52" fill="none" /><line x1="1173.76" y1="440.00" x2="1178.24" y2="440.00" /><line x1="1176.00" y1="437.76" x2="1176.00" y2="442.24" /><line x1="1174.39" y1="438.39" x2="1177.61" y2="441.61" /><line x1="1174.39" y1="441.61" x2="1177.61" y2="438.39" /></g>
<circle data-feature-type="pillar" cx="392.00" cy="984.00" r="3.68" fill="#4f89a8" stroke="none" />
<circle data-feature-type="pillar" cx="424.00" cy="984.00" r="3.68" fill="#4f89a8" stroke="none" />
<g data-feature-type="statue"><circle cx="408.00" cy="968.00" r="3.52" fill="none" /><line x1="405.76" y1="968.00" x2="410.24" y2="968.00" /><line x1="408.00" y1="965.76" x2="408.00" y2="970.24" /><line x1="406.39" y1="966.39" x2="409.61" y2="969.61" /><line x1="406.39" y1="969.61" x2="409.61" y2="966.39" /></g>
<g data-feature-type="trap"><rect x="356.64" y="996.64" width="6.72" height="6.72" fill="none" /><line x1="356.64" y1="996.64" x2="363.36" y2="1003.36" /><line x1="356.64" y1="1003.36" x2="363.36" y2="996.64" /></g>
<g data-feature-type="chest"><rect x="437.28" y="998.24" width="5.44" height="3.52" fill="none" /><line x1="437.28" y1="1000.00" x2="442.72" y2="1000.00" /><circle cx="440.00" cy="1000.18" r="0.70" fill="#4f89a8" stroke="none" /></g>
<circle data-feature-type="pillar" cx="776.00" cy="360.00" r="3.68" fill="#4f89a8" stroke="none" />
<circle data-feature-type="pillar" cx="728.00" cy="360.00" r="3.68" fill="#4f89a8" stroke="none" />
<g data-feature-type="chest"><rect x="773.28" y="326.24" width="5.44" height="3.52" fill="none" /><line x1="773.28" y1="328.00" x2="778.72" y2="328.00" /><circle cx="776.00" cy="328.18" r="0.70" fill="#4f89a8" stroke="none" /></g>
<circle data-feature-type="pillar" cx="344.00" cy="216.00" r="3.68" fill="#4f89a8" stroke="none" />
<g data-feature-type="chest"><rect x="293.28" y="230.24" width="5.44" height="3.52" fill="none" /><line x1="293.28" y1="232.00" x2="298.72" y2="232.00" /><circle cx="296.00" cy="232.18" r="0.70" fill="#4f89a8" stroke="none" /></g>
<circle data-feature-type="pillar" cx="520.00" cy="344.00" r="3.68" fill="#4f89a8" stroke="none" />
<circle data-feature-type="pillar" cx="1000.00" cy="632.00" r="3.68" fill="#4f89a8" stroke="none" />
<circle data-feature-type="pillar" cx="1000.00" cy="680.00" r="3.68" fill="#4f89a8" stroke="none" />
<g data-feature-type="altar"><rect x="949.28" y="646.40" width="5.44" height="3.20" fill="none" /><line x1="952.00" y1="645.44" x2="952.00" y2="650.56" /><line x1="950.40" y1="648.00" x2="953.60" y2="648.00" /></g>
<circle data-feature-type="pillar" cx="152.00" cy="728.00" r="3.68" fill="#4f89a8" stroke="none" />
<circle data-feature-type="pillar" cx="104.00" cy="728.00" r="3.68" fill="#4f89a8" stroke="none" />
<circle data-feature-type="pillar" cx="328.00" cy="664.00" r="3.68" fill="#4f89a8" stroke="none" />
<g data-feature-type="statue"><circle cx="296.00" cy="680.00" r="3.52" fill="none" /><line x1="293.76" y1="680.00" x2="298.24" y2="680.00" /><line x1="296.00" y1="677.76" x2="296.00" y2="682.24" /><line x1="294.39" y1="678.39" x2="297.61" y2="681.61" /><line x1="294.39" y1="681.61" x2="297.61" y2="678.39" /></g>
<circle data-feature-type="pillar" cx="312.00" cy="1368.00" r="3.68" fill="#4f89a8" stroke="none" />
<circle data-feature-type="pillar" cx="344.00" cy="1368.00" r="3.68" fill="#4f89a8" stroke="none" />
  </g>
  <g class="thresholds">
<rect data-threshold-type="door" x="611.52" y="1381.76" width="8.96" height="4.48" fill="#ffffff" stroke="#4f89a8" stroke-width="1.52" />
<rect data-threshold-type="door" x="435.52" y="1237.76" width="8.96" height="4.48" fill="#ffffff" stroke="#4f89a8" stroke-width="1.52" />
<rect data-threshold-type="door" x="835.52" y="1381.76" width="8.96" height="4.48" fill="#ffffff" stroke="#4f89a8" stroke-width="1.52" />
<rect data-threshold-type="door" x="1171.52" y="261.76" width="8.96" height="4.48" fill="#ffffff" stroke="#4f89a8" stroke-width="1.52" />
<g data-threshold-type="secret"><line x1="515.52" y1="1144.00" x2="524.48" y2="1144.00" stroke="#4f89a8" stroke-width="1.31" stroke-dasharray="1.31 1.31" /><text x="525.56" y="1143.10" font-size="5.44" fill="#4f89a8" font-family="Courier New, monospace" font-weight="700">S</text></g>
<rect data-threshold-type="door" x="1187.52" y="933.76" width="8.96" height="4.48" fill="#ffffff" stroke="#4f89a8" stroke-width="1.52" />
<g data-threshold-type="secret"><line x1="739.52" y1="712.00" x2="748.48" y2="712.00" stroke="#4f89a8" stroke-width="1.31" stroke-dasharray="1.31 1.31" /><text x="749.56" y="711.10" font-size="5.44" fill="#4f89a8" font-family="Courier New, monospace" font-weight="700">S</text></g>
<rect data-threshold-type="door" x="1091.52" y="1221.76" width="8.96" height="4.48" fill="#ffffff" stroke="#4f89a8" stroke-width="1.52" />
<rect data-threshold-type="door" x="867.52" y="1077.76" width="8.96" height="4.48" fill="#ffffff" stroke="#4f89a8" stroke-width="1.52" />
<g data-threshold-type="secret"><line x1="1091.52" y1="488.00" x2="1100.48" y2="488.00" stroke="#4f89a8" stroke-width="1.31" stroke-dasharray="1.31 1.31" /><text x="1101.56" y="487.10" font-size="5.44" fill="#4f89a8" font-family="Courier New, monospace" font-weight="700">S</text></g>
<rect data-threshold-type="door" x="867.52" y="133.76" width="8.96" height="4.48" fill="#ffffff" stroke="#4f89a8" stroke-width="1.52" />
<rect data-threshold-type="door" x="995.52" y="325.76" width="8.96" height="4.48" fill="#ffffff" stroke="#4f89a8" stroke-width="1.52" />
<rect data-threshold-type="door" x="995.52" y="277.76" width="8.96" height="4.48" fill="#ffffff" stroke="#4f89a8" stroke-width="1.52" />
<rect data-threshold-type="door" x="163.52" y="325.76" width="8.96" height="4.48" fill="#ffffff" stroke="#4f89a8" stroke-width="1.52" />
<rect data-threshold-type="door" x="1187.52" y="1365.76" width="8.96" height="4.48" fill="#ffffff" stroke="#4f89a8" stroke-width="1.52" />
<g data-threshold-type="locked" stroke="#4f89a8" fill="none" stroke-width="1.52"><rect x="387.52" y="533.76" width="8.96" height="4.48" fill="#ffffff" /><circle cx="392.00" cy="532.77" r="1.61" /></g>
<g data-threshold-type="secret"><line x1="307.52" y1="1192.00" x2="316.48" y2="1192.00" stroke="#4f89a8" stroke-width="1.31" stroke-dasharray="1.31 1.31" /><text x="317.56" y="1191.10" font-size="5.44" fill="#4f89a8" font-family="Courier New, monospace" font-weight="700">S</text></g>
<rect data-threshold-type="door" x="547.52" y="437.76" width="8.96" height="4.48" fill="#ffffff" stroke="#4f89a8" stroke-width="1.52" />
<g data-threshold-type="locked" stroke="#4f89a8" fill="none" stroke-width="1.52"><rect x="1075.52" y="837.76" width="8.96" height="4.48" fill="#ffffff" /><circle cx="1080.00" cy="836.77" r="1.61" /></g>
<rect data-threshold-type="door" x="1187.52" y="373.76" width="8.96" height="4.48" fill="#ffffff" stroke="#4f89a8" stroke-width="1.52" />
<g data-threshold-type="secret"><line x1="339.52" y1="920.00" x2="348.48" y2="920.00" stroke="#4f89a8" stroke-width="1.31" stroke-dasharray="1.31 1.31" /><text x="349.56" y="919.10" font-size="5.44" fill="#4f89a8" font-family="Courier New, monospace" font-weight="700">S</text></g>
<g data-threshold-type="locked" stroke="#4f89a8" fill="none" stroke-width="1.52"><rect x="803.52" y="357.76" width="8.96" height="4.48" fill="#ffffff" /><circle cx="808.00" cy="356.77" r="1.61" /></g>
<rect data-threshold-type="door" x="307.52" y="245.76" width="8.96" height="4.48" fill="#ffffff" stroke="#4f89a8" stroke-width="1.52" />
<rect data-threshold-type="door" x="483.52" y="789.76" width="8.96" height="4.48" fill="#ffffff" stroke="#4f89a8" stroke-width="1.52" />
<rect data-threshold-type="door" x="499.52" y="309.76" width="8.96" height="4.48" fill="#ffffff" stroke="#4f89a8" stroke-width="1.52" />
<rect data-threshold-type="door" x="931.52" y="709.76" width="8.96" height="4.48" fill="#ffffff" stroke="#4f89a8" stroke-width="1.52" />
<rect data-threshold-type="door" x="163.52" y="661.76" width="8.96" height="4.48" fill="#ffffff" stroke="#4f89a8" stroke-width="1.52" />
<rect data-threshold-type="door" x="355.52" y="693.76" width="8.96" height="4.48" fill="#ffffff" stroke="#4f89a8" stroke-width="1.52" />
<rect data-threshold-type="door" x="355.52" y="1333.76" width="8.96" height="4.48" fill="#ffffff" stroke="#4f89a8" stroke-width="1.52" />
<rect data-threshold-type="door" x="259.52" y="869.76" width="8.96" height="4.48" fill="#ffffff" stroke="#4f89a8" stroke-width="1.52" />
  </g>
  <g class="labels">
<text x="600.00" y="1385.92" text-anchor="middle">1</text>
<text x="440.00" y="1305.92" text-anchor="middle">2</text>
<text x="776.00" y="1417.92" text-anchor="middle">3</text>
<text x="1176.00" y="233.92" text-anchor="middle">4</text>
<text x="456.00" y="1145.92" text-anchor="middle">5</text>
<text x="1192.00" y="969.92" text-anchor="middle">6</text>
<text x="776.00" y="665.92" text-anchor="middle">7</text>
<text x="1096.00" y="1145.92" text-anchor="middle">8</text>
<text x="856.00" y="1017.92" text-anchor="middle">9</text>
<text x="1096.00" y="521.92" text-anchor="middle">10</text>
<text x="872.00" y="105.92" text-anchor="middle">11</text>
<text x="984.00" y="377.92" text-anchor="middle">12</text>
<text x="984.00" y="233.92" text-anchor="middle">13</text>
<text x="168.00" y="265.92" text-anchor="middle">14</text>
<text x="1192.00" y="1337.92" text-anchor="middle">15</text>
<text x="360.00" y="457.92" text-anchor="middle">16</text>
<text x="264.00" y="1209.92" text-anchor="middle">17</text>
<text x="504.00" y="489.92" text-anchor="middle">18</text>
<text x="1016.00" y="809.92" text-anchor="middle">19</text>
<text x="1192.00" y="441.92" text-anchor="middle">20</text>
<text x="408.00" y="985.92" text-anchor="middle">21</text>
<text x="760.00" y="361.92" text-anchor="middle">22</text>
<text x="328.00" y="217.92" text-anchor="middle">23</text>
<text x="504.00" y="729.92" text-anchor="middle">24</text>
<text x="504.00" y="345.92" text-anchor="middle">25</text>
<text x="1000.00" y="665.92" text-anchor="middle">26</text>
<text x="136.00" y="729.92" text-anchor="middle">27</text>
<text x="312.00" y="665.92" text-anchor="middle">28</text>
<text x="328.00" y="1369.92" text-anchor="middle">29</text>
<text x="248.00" y="905.92" text-anchor="middle">30</text>
  </g>
</svg>