<?xml version="1.0" encoding="UTF-8"?>
<svg xmlns="http://www.w3.org/2000/svg" width="1280" height="1536" viewBox="0 0 1280.00 1536.00" role="img" aria-label="MapIR render: Learned Generated Map 8">
  <defs>
    <style>
      .grid { stroke: #cde2ec; stroke-width: 0.64; opacity: 0.72; }
      .walls { stroke: #6aa7c7; stroke-width: 1.92; fill: none; stroke-linecap: square; }
      .thresholds { fill: none; stroke-linecap: round; }
      .features { stroke: #4f89a8; fill: none; stroke-width: 1.60; stroke-linecap: round; stroke-linejoin: round; }
      .labels { fill: #4f89a8; font-size: 7.20px; font-family: "Courier New", monospace; font-weight: 600; }
    </style>
  </defs>
  <rect x="0" y="0" width="1280.00" height="1536.00" fill="#4393be" />
  <g class="floors">
<rect x="560.00" y="32.00" width="112.00" height="80.00" fill="#fcfdfe" />
<rect x="672.00" y="64.00" width="304.00" height="16.00" fill="#fcfdfe" />
<rect x="240.00" y="80.00" width="128.00" height="192.00" fill="#fcfdfe" />
<rect x="960.00" y="80.00" width="16.00" height="1360.00" fill="#fcfdfe" />
<rect x="896.00" y="96.00" width="64.00" height="192.00" fill="#fcfdfe" />
<rect x="976.00" y="96.00" width="80.00" height="192.00" fill="#fcfdfe" />
<rect x="608.00" y="112.00" width="16.00" height="688.00" fill="#fcfdfe" />
<rect x="368.00" y="176.00" width="240.00" height="16.00" fill="#fcfdfe" />
<rect x="416.00" y="192.00" width="96.00" height="112.00" fill="#fcfdfe" />
<rect x="592.00" y="192.00" width="16.00" height="128.00" fill="#fcfdfe" />
<rect x="624.00" y="192.00" width="144.00" height="128.00" fill="#fcfdfe" />
<rect x="1056.00" y="192.00" width="160.00" height="16.00" fill="#fcfdfe" />
<rect x="1072.00" y="208.00" width="144.00" height="144.00" fill="#fcfdfe" />
<rect x="368.00" y="240.00" width="48.00" height="32.00" fill="#fcfdfe" />
<rect x="144.00" y="256.00" width="96.00" height="16.00" fill="#fcfdfe" />
<rect x="512.00" y="256.00" width="80.00" height="32.00" fill="#fcfdfe" />
<rect x="768.00" y="256.00" width="128.00" height="32.00" fill="#fcfdfe" />
<rect x="1056.00" y="256.00" width="16.00" height="32.00" fill="#fcfdfe" />
<rect x="144.00" y="272.00" width="16.00" height="1232.00" fill="#fcfdfe" />
<rect x="304.00" y="272.00" width="16.00" height="272.00" fill="#fcfdfe" />
<rect x="976.00" y="288.00" width="16.00" height="368.00" fill="#fcfdfe" />
<rect x="464.00" y="304.00" width="16.00" height="704.00" fill="#fcfdfe" />
<rect x="496.00" y="304.00" width="16.00" height="704.00" fill="#fcfdfe" />
<rect x="688.00" y="320.00" width="16.00" height="992.00" fill="#fcfdfe" />
<rect x="1136.00" y="352.00" width="16.00" height="832.00" fill="#fcfdfe" />
<rect x="64.00" y="368.00" width="80.00" height="112.00" fill="#fcfdfe" />
<rect x="1104.00" y="368.00" width="32.00" height="144.00" fill="#fcfdfe" />
<rect x="1152.00" y="368.00" width="48.00" height="144.00" fill="#fcfdfe" />
<rect x="624.00" y="384.00" width="64.00" height="160.00" fill="#fcfdfe" />
<rect x="704.00" y="384.00" width="80.00" height="160.00" fill="#fcfdfe" />
<rect x="240.00" y="400.00" width="64.00" height="144.00" fill="#fcfdfe" />
<rect x="320.00" y="400.00" width="96.00" height="144.00" fill="#fcfdfe" />
<rect x="160.00" y="464.00" width="80.00" height="16.00" fill="#fcfdfe" />
<rect x="416.00" y="464.00" width="48.00" height="16.00" fill="#fcfdfe" />
<rect x="480.00" y="464.00" width="16.00" height="16.00" fill="#fcfdfe" />
<rect x="512.00" y="464.00" width="96.00" height="16.00" fill="#fcfdfe" />
<rect x="784.00" y="464.00" width="176.00" height="16.00" fill="#fcfdfe" />
<rect x="992.00" y="464.00" width="64.00" height="192.00" fill="#fcfdfe" />
<rect x="96.00" y="480.00" width="16.00" height="368.00" fill="#fcfdfe" />
<rect x="880.00" y="480.00" width="80.00" height="176.00" fill="#fcfdfe" />
<rect x="1152.00" y="512.00" width="16.00" height="176.00" fill="#fcfdfe" />
<rect x="320.00" y="544.00" width="16.00" height="736.00" fill="#fcfdfe" />
<rect x="352.00" y="544.00" width="16.00" height="960.00" fill="#fcfdfe" />
<rect x="704.00" y="544.00" width="16.00" height="640.00" fill="#fcfdfe" />
<rect x="304.00" y="560.00" width="16.00" height="384.00" fill="#fcfdfe" />
<rect x="336.00" y="560.00" width="16.00" height="208.00" fill="#fcfdfe" />
<rect x="368.00" y="560.00" width="96.00" height="16.00" fill="#fcfdfe" />
<rect x="480.00" y="560.00" width="16.00" height="16.00" fill="#fcfdfe" />
<rect x="512.00" y="560.00" width="96.00" height="16.00" fill="#fcfdfe" />
<rect x="624.00" y="560.00" width="64.00" height="16.00" fill="#fcfdfe" />
<rect x="720.00" y="560.00" width="160.00" height="16.00" fill="#fcfdfe" />
<rect x="272.00" y="576.00" width="32.00" height="192.00" fill="#fcfdfe" />
<rect x="368.00" y="576.00" width="64.00" height="192.00" fill="#fcfdfe" />
<rect x="672.00" y="656.00" width="16.00" height="144.00" fill="#fcfdfe" />
<rect x="720.00" y="656.00" width="64.00" height="144.00" fill="#fcfdfe" />
<rect x="432.00" y="672.00" width="32.00" height="16.00" fill="#fcfdfe" />
<rect x="480.00" y="672.00" width="16.00" height="16.00" fill="#fcfdfe" />
<rect x="512.00" y="672.00" width="96.00" height="16.00" fill="#fcfdfe" />
<rect x="624.00" y="672.00" width="48.00" height="16.00" fill="#fcfdfe" />
<rect x="784.00" y="672.00" width="176.00" height="16.00" fill="#fcfdfe" />
<rect x="976.00" y="672.00" width="160.00" height="16.00" fill="#fcfdfe" />
<rect x="1040.00" y="688.00" width="16.00" height="752.00" fill="#fcfdfe" />
<rect x="112.00" y="720.00" width="32.00" height="128.00" fill="#fcfdfe" />
<rect x="160.00" y="720.00" width="112.00" height="16.00" fill="#fcfdfe" />
<rect x="432.00" y="720.00" width="32.00" height="16.00" fill="#fcfdfe" />
<rect x="480.00" y="720.00" width="16.00" height="16.00" fill="#fcfdfe" />
<rect x="512.00" y="720.00" width="96.00" height="16.00" fill="#fcfdfe" />
<rect x="624.00" y="720.00" width="48.00" height="16.00" fill="#fcfdfe" />
<rect x="784.00" y="720.00" width="176.00" height="16.00" fill="#fcfdfe" />
<rect x="160.00" y="736.00" width="16.00" height="112.00" fill="#fcfdfe" />
<rect x="448.00" y="736.00" width="16.00" height="704.00" fill="#fcfdfe" />
<rect x="176.00" y="784.00" width="128.00" height="16.00" fill="#fcfdfe" />
<rect x="336.00" y="784.00" width="16.00" height="16.00" fill="#fcfdfe" />
<rect x="368.00" y="784.00" width="80.00" height="16.00" fill="#fcfdfe" />
<rect x="480.00" y="784.00" width="16.00" height="16.00" fill="#fcfdfe" />
<rect x="512.00" y="784.00" width="96.00" height="16.00" fill="#fcfdfe" />
<rect x="720.00" y="800.00" width="16.00" height="640.00" fill="#fcfdfe" />
<rect x="256.00" y="832.00" width="48.00" height="112.00" fill="#fcfdfe" />
<rect x="336.00" y="832.00" width="16.00" height="112.00" fill="#fcfdfe" />
<rect x="128.00" y="848.00" width="16.00" height="656.00" fill="#fcfdfe" />
<rect x="640.00" y="864.00" width="48.00" height="144.00" fill="#fcfdfe" />
<rect x="736.00" y="864.00" width="48.00" height="112.00" fill="#fcfdfe" />
<rect x="1056.00" y="864.00" width="80.00" height="160.00" fill="#fcfdfe" />
<rect x="1152.00" y="864.00" width="64.00" height="160.00" fill="#fcfdfe" />
<rect x="80.00" y="896.00" width="48.00" height="176.00" fill="#fcfdfe" />
<rect x="160.00" y="896.00" width="64.00" height="176.00" fill="#fcfdfe" />
<rect x="480.00" y="896.00" width="16.00" height="112.00" fill="#fcfdfe" />
<rect x="512.00" y="896.00" width="128.00" height="16.00" fill="#fcfdfe" />
<rect x="416.00" y="912.00" width="32.00" height="96.00" fill="#fcfdfe" />
<rect x="512.00" y="912.00" width="80.00" height="96.00" fill="#fcfdfe" />
<rect x="912.00" y="912.00" width="48.00" height="160.00" fill="#fcfdfe" />
<rect x="976.00" y="912.00" width="32.00" height="160.00" fill="#fcfdfe" />
<rect x="368.00" y="944.00" width="48.00" height="16.00" fill="#fcfdfe" />
<rect x="592.00" y="944.00" width="48.00" height="64.00" fill="#fcfdfe" />
<rect x="784.00" y="944.00" width="128.00" height="16.00" fill="#fcfdfe" />
<rect x="1008.00" y="944.00" width="32.00" height="16.00" fill="#fcfdfe" />
<rect x="784.00" y="960.00" width="80.00" height="16.00" fill="#fcfdfe" />
<rect x="224.00" y="976.00" width="96.00" height="16.00" fill="#fcfdfe" />
<rect x="336.00" y="976.00" width="16.00" height="32.00" fill="#fcfdfe" />
<rect x="368.00" y="976.00" width="48.00" height="32.00" fill="#fcfdfe" />
<rect x="736.00" y="976.00" width="16.00" height="208.00" fill="#fcfdfe" />
<rect x="848.00" y="976.00" width="16.00" height="256.00" fill="#fcfdfe" />
<rect x="288.00" y="992.00" width="32.00" height="16.00" fill="#fcfdfe" />
<rect x="752.00" y="992.00" width="96.00" height="16.00" fill="#fcfdfe" />
<rect x="864.00" y="992.00" width="48.00" height="16.00" fill="#fcfdfe" />
<rect x="288.00" y="1008.00" width="16.00" height="240.00" fill="#fcfdfe" />
<rect x="672.00" y="1008.00" width="16.00" height="176.00" fill="#fcfdfe" />
<rect x="384.00" y="1024.00" width="64.00" height="192.00" fill="#fcfdfe" />
<rect x="464.00" y="1024.00" width="48.00" height="192.00" fill="#fcfdfe" />
<rect x="336.00" y="1072.00" width="16.00" height="16.00" fill="#fcfdfe" />
<rect x="368.00" y="1072.00" width="16.00" height="16.00" fill="#fcfdfe" />
<rect x="512.00" y="1072.00" width="160.00" height="16.00" fill="#fcfdfe" />
<rect x="224.00" y="1104.00" width="64.00" height="144.00" fill="#fcfdfe" />
<rect x="304.00" y="1104.00" width="16.00" height="144.00" fill="#fcfdfe" />
<rect x="336.00" y="1104.00" width="16.00" height="144.00" fill="#fcfdfe" />
<rect x="784.00" y="1104.00" width="64.00" height="128.00" fill="#fcfdfe" />
<rect x="864.00" y="1104.00" width="48.00" height="128.00" fill="#fcfdfe" />
<rect x="368.00" y="1120.00" width="16.00" height="16.00" fill="#fcfdfe" />
<rect x="512.00" y="1120.00" width="160.00" height="16.00" fill="#fcfdfe" />
<rect x="528.00" y="1136.00" width="16.00" height="272.00" fill="#fcfdfe" />
<rect x="160.00" y="1168.00" width="64.00" height="16.00" fill="#fcfdfe" />
<rect x="368.00" y="1168.00" width="16.00" height="16.00" fill="#fcfdfe" />
<rect x="512.00" y="1168.00" width="16.00" height="16.00" fill="#fcfdfe" />
<rect x="544.00" y="1168.00" width="128.00" height="16.00" fill="#fcfdfe" />
<rect x="752.00" y="1168.00" width="32.00" height="16.00" fill="#fcfdfe" />
<rect x="912.00" y="1168.00" width="48.00" height="16.00" fill="#fcfdfe" />
<rect x="976.00" y="1168.00" width="64.00" height="16.00" fill="#fcfdfe" />
<rect x="1056.00" y="1168.00" width="80.00" height="16.00" fill="#fcfdfe" />
<rect x="640.00" y="1232.00" width="48.00" height="80.00" fill="#fcfdfe" />
<rect x="704.00" y="1232.00" width="16.00" height="80.00" fill="#fcfdfe" />
<rect x="336.00" y="1264.00" width="16.00" height="16.00" fill="#fcfdfe" />
<rect x="368.00" y="1264.00" width="80.00" height="16.00" fill="#fcfdfe" />
<rect x="464.00" y="1264.00" width="64.00" height="16.00" fill="#fcfdfe" />
<rect x="544.00" y="1264.00" width="96.00" height="16.00" fill="#fcfdfe" />
<rect x="736.00" y="1264.00" width="224.00" height="16.00" fill="#fcfdfe" />
<rect x="944.00" y="1280.00" width="16.00" height="160.00" fill="#fcfdfe" />
<rect x="976.00" y="1280.00" width="64.00" height="160.00" fill="#fcfdfe" />
<rect x="1056.00" y="1280.00" width="80.00" height="160.00" fill="#fcfdfe" />
<rect x="480.00" y="1296.00" width="48.00" height="112.00" fill="#fcfdfe" />
<rect x="544.00" y="1296.00" width="48.00" height="112.00" fill="#fcfdfe" />
<rect x="64.00" y="1344.00" width="64.00" height="160.00" fill="#fcfdfe" />
<rect x="160.00" y="1344.00" width="192.00" height="16.00" fill="#fcfdfe" />
<rect x="368.00" y="1344.00" width="80.00" height="16.00" fill="#fcfdfe" />
<rect x="464.00" y="1344.00" width="16.00" height="16.00" fill="#fcfdfe" />
<rect x="592.00" y="1344.00" width="128.00" height="16.00" fill="#fcfdfe" />
<rect x="736.00" y="1344.00" width="208.00" height="16.00" fill="#fcfdfe" />
<rect x="160.00" y="1360.00" width="64.00" height="144.00" fill="#fcfdfe" />
<rect x="288.00" y="1360.00" width="64.00" height="144.00" fill="#fcfdfe" />
<rect x="368.00" y="1360.00" width="64.00" height="144.00" fill="#fcfdfe" />
<rect x="432.00" y="1424.00" width="16.00" height="16.00" fill="#fcfdfe" />
<rect x="464.00" y="1424.00" width="256.00" height="16.00" fill="#fcfdfe" />
  </g>
  <g class="grid">
<line x1="0.00" y1="0" x2="0.00" y2="1536.00" />
<line x1="16.00" y1="0" x2="16.00" y2="1536.00" />
<line x1="32.00" y1="0" x2="32.00" y2="1536.00" />
<line x1="48.00" y1="0" x2="48.00" y2="1536.00" />
<line x1="64.00" y1="0" x2="64.00" y2="1536.00" />
<line x1="80.00" y1="0" x2="80.00" y2="1536.00" />
<line x1="96.00" y1="0" x2="96.00" y2="1536.00" />
<line x1="112.00" y1="0" x2="112.00" y2="1536.00" />
<line x1="128.00" y1="0" x2="128.00" y2="1536.00" />
<line x1="144.00" y1="0" x2="144.00" y2="1536.00" />
<line x1="160.00" y1="0" x2="160.00" y2="1536.00" />
<line x1="176.00" y1="0" x2="176.00" y2="1536.00" />
<line x1="192.00" y1="0" x2="192.00" y2="1536.00" />
<line x1="208.00" y1="0" x2="208.00" y2="1536.00" />
<line x1="224.00" y1="0" x2="224.00" y2="1536.00" />
<line x1="240.00" y1="0" x2="240.00" y2="1536.00" />
<line x1="256.00" y1="0" x2="256.00" y2="1536.00" />
<line x1="272.00" y1="0" x2="272.00" y2="1536.00" />
<line x1="288.00" y1="0" x2="288.00" y2="1536.00" />
<line x1="304.00" y1="0" x2="304.00" y2="1536.00" />
<line x1="320.00" y1="0" x2="320.00" y2="1536.00" />
<line x1="336.00" y1="0" x2="336.00" y2="1536.00" />
<line x1="352.00" y1="0" x2="352.00" y2="1536.00" />
<line x1="368.00" y1="0" x2="368.00" y2="1536.00" />
<line x1="384.00" y1="0" x2="384.00" y2="1536.00" />
<line x1="400.00" y1="0" x2="400.00" y2="1536.00" />
<line x1="416.00" y1="0" x2="416.00" y2="1536.00" />
<line x1="432.00" y1="0" x2="432.00" y2="1536.00" />
<line x1="448.00" y1="0" x2="448.00" y2="1536.00" />
<line x1="464.00" y1="0" x2="464.00" y2="1536.00" />
<line x1="480.00" y1="0" x2="480.00" y2="1536.00" />
<line x1="496.00" y1="0" x2="496.00" y2="1536.00" />
<line x1="512.00" y1="0" x2="512.00" y2="1536.00" />
<line x1="528.00" y1="0" x2="528.00" y2="1536.00" />
<line x1="544.00" y1="0" x2="544.00" y2="1536.00" />
<line x1="560.00" y1="0" x2="560.00" y2="1536.00" />
<line x1="576.00" y1="0" x2="576.00" y2="1536.00" />
<line x1="592.00" y1="0" x2="592.00" y2="1536.00" />
<line x1="608.00" y1="0" x2="608.00" y2="1536.00" />
<line x1="624.00" y1="0" x2="624.00" y2="1536.00" />
<line x1="640.00" y1="0" x2="640.00" y2="1536.00" />
<line x1="656.00" y1="0" x2="656.00" y2="1536.00" />
<line x1="672.00" y1="0" x2="672.00" y2="1536.00" />
<line x1="688.00" y1="0" x2="688.00" y2="1536.00" />
<line x1="704.00" y1="0" x2="704.00" y2="1536.00" />
<line x1="720.00" y1="0" x2="720.00" y2="1536.00" />
<line x1="736.00" y1="0" x2="736.00" y2="1536.00" />
<line x1="752.00" y1="0" x2="752.00" y2="1536.00" />
<line x1="768.00" y1="0" x2="768.00" y2="1536.00" />
<line x1="784.00" y1="0" x2="784.00" y2="1536.00" />
<line x1="800.00" y1="0" x2="800.00" y2="1536.00" />
<line x1="816.00" y1="0" x2="816.00" y2="1536.00" />
<line x1="832.00" y1="0" x2="832.00" y2="1536.00" />
<line x1="848.00" y1="0" x2="848.00" y2="1536.00" />
<line x1="864.00" y1="0" x2="864.00" y2="1536.00" />
<line x1="880.00" y1="0" x2="880.00" y2="1536.00" />
<line x1="896.00" y1="0" x2="896.00" y2="1536.00" />
<line x1="912.00" y1="0" x2="912.00" y2="1536.00" />
<line x1="928.00" y1="0" x2="928.00" y2="1536.00" />
<line x1="944.00" y1="0" x2="944.00" y2="1536.00" />
<line x1="960.00" y1="0" x2="960.00" y2="1536.00" />
<line x1="976.00" y1="0" x2="976.00" y2="1536.00" />
<line x1="992.00" y1="0" x2="992.00" y2="1536.00" />
<line x1="1008.00" y1="0" x2="1008.00" y2="1536.00" />
<line x1="1024.00" y1="0" x2="1024.00" y2="1536.00" />
<line x1="1040.00" y1="0" x2="1040.00" y2="1536.00" />
<line x1="1056.00" y1="0" x2="1056.00" y2="1536.00" />
<line x1="1072.00" y1="0" x2="1072.00" y2="1536.00" />
<line x1="1088.00" y1="0" x2="1088.00" y2="1536.00" />
<line x1="1104.00" y1="0" x2="1104.00" y2="1536.00" />
<line x1="1120.00" y1="0" x2="1120.00" y2="1536.00" />
<line x1="1136.00" y1="0" x2="1136.00" y2="1536.00" />
<line x1="1152.00" y1="0" x2="1152.00" y2="1536.00" />
<line x1="1168.00" y1="0" x2="1168.00" y2="1536.00" />
<line x1="1184.00" y1="0" x2="1184.00" y2="1536.00" />
<line x1="1200.00" y1="0" x2="1200.00" y2="1536.00" />
<line x1="1216.00" y1="0" x2="1216.00" y2="1536.00" />
<line x1="1232.00" y1="0" x2="1232.00" y2="1536.00" />
<line x1="1248.00" y1="0" x2="1248.00" y2="1536.00" />
<line x1="1264.00" y1="0" x2="1264.00" y2="1536.00" />
<line x1="1280.00" y1="0" x2="1280.00" y2="1536.00" />
<line x1="0" y1="0.00" x2="1280.00" y2="0.00" />
<line x1="0" y1="16.00" x2="1280.00" y2="16.00" />
<line x1="0" y1="32.00" x2="1280.00" y2="32.00" />
<line x1="0" y1="48.00" x2="1280.00" y2="48.00" />
<line x1="0" y1="64.00" x2="1280.00" y2="64.00" />
<line x1="0" y1="80.00" x2="1280.00" y2="80.00" />
<line x1="0" y1="96.00" x2="1280.00" y2="96.00" />
<line x1="0" y1="112.00" x2="1280.00" y2="112.00" />
<line x1="0" y1="128.00" x2="1280.00" y2="128.00" />
<line x1="0" y1="144.00" x2="1280.00" y2="144.00" />
<line x1="0" y1="160.00" x2="1280.00" y2="160.00" />
<line x1="0" y1="176.00" x2="1280.00" y2="176.00" />
<line x1="0" y1="192.00" x2="1280.00" y2="192.00" />
<line x1="0" y1="208.00" x2="1280.00" y2="208.00" />
<line x1="0" y1="224.00" x2="1280.00" y2="224.00" />
<line x1="0" y1="240.00" x2="1280.00" y2="240.00" />
<line x1="0" y1="256.00" x2="1280.00" y2="256.00" />
<line x1="0" y1="272.00" x2="1280.00" y2="272.00" />
<line x1="0" y1="288.00" x2="1280.00" y2="288.00" />
<line x1="0" y1="304.00" x2="1280.00" y2="304.00" />
<line x1="0" y1="320.00" x2="1280.00" y2="320.00" />
<line x1="0" y1="336.00" x2="1280.00" y2="336.00" />
<line x1="0" y1="352.00" x2="1280.00" y2="352.00" />
<line x1="0" y1="368.00" x2="1280.00" y2="368.00" />
<line x1="0" y1="384.00" x2="1280.00" y2="384.00" />
<line x1="0" y1="400.00" x2="1280.00" y2="400.00" />
<line x1="0" y1="416.00" x2="1280.00" y2="416.00" />
<line x1="0" y1="432.00" x2="1280.00" y2="432.00" />
<line x1="0" y1="448.00" x2="1280.00" y2="448.00" />
<line x1="0" y1="464.00" x2="1280.00" y2="464.00" />
<line x1="0" y1="480.00" x2="1280.00" y2="480.00" />
<line x1="0" y1="496.00" x2="1280.00" y2="496.00" />
<line x1="0" y1="512.00" x2="1280.00" y2="512.00" />
<line x1="0" y1="528.00" x2="1280.00" y2="528.00" />
<line x1="0" y1="544.00" x2="1280.00" y2="544.00" />
<line x1="0" y1="560.00" x2="1280.00" y2="560.00" />
<line x1="0" y1="576.00" x2="1280.00" y2="576.00" />
<line x1="0" y1="592.00" x2="1280.00" y2="592.00" />
<line x1="0" y1="608.00" x2="1280.00" y2="608.00" />
<line x1="0" y1="624.00" x2="1280.00" y2="624.00" />
<line x1="0" y1="640.00" x2="1280.00" y2="640.00" />
<line x1="0" y1="656.00" x2="1280.00" y2="656.00" />
<line x1="0" y1="672.00" x2="1280.00" y2="672.00" />
<line x1="0" y1="688.00" x2="1280.00" y2="688.00" />
<line x1="0" y1="704.00" x2="1280.00" y2="704.00" />
<line x1="0" y1="720.00" x2="1280.00" y2="720.00" />
<line x1="0" y1="736.00" x2="1280.00" y2="736.00" />
<line x1="0" y1="752.00" x2="1280.00" y2="752.00" />
<line x1="0" y1="768.00" x2="1280.00" y2="768.00" />
<line x1="0" y1="784.00" x2="1280.00" y2="784.00" />
<line x1="0" y1="800.00" x2="1280.00" y2="800.00" />
<line x1="0" y1="816.00" x2="1280.00" y2="816.00" />
<line x1="0" y1="832.00" x2="1280.00" y2="832.00" />
<line x1="0" y1="848.00" x2="1280.00" y2="848.00" />
<line x1="0" y1="864.00" x2="1280.00" y2="864.00" />
<line x1="0" y1="880.00" x2="1280.00" y2="880.00" />
<line x1="0" y1="896.00" x2="1280.00" y2="896.00" />
<line x1="0" y1="912.00" x2="1280.00" y2="912.00" />
<line x1="0" y1="928.00" x2="1280.00" y2="928.00" />
<line x1="0" y1="944.00" x2="1280.00" y2="944.00" />
<line x1="0" y1="960.00" x2="1280.00" y2="960.00" />
<line x1="0" y1="976.00" x2="1280.00" y2="976.00" />
<line x1="0" y1="992.00" x2="1280.00" y2="992.00" />
<line x1="0" y1="1008.00" x2="1280.00" y2="1008.00" />
<line x1="0" y1="1024.00" x2="1280.00" y2="1024.00" />
<line x1="0" y1="1040.00" x2="1280.00" y2="1040.00" />
<line x1="0" y1="1056.00" x2="1280.00" y2="1056.00" />
<line x1="0" y1="1072.00" x2="1280.00" y2="1072.00" />
<line x1="0" y1="1088.00" x2="1280.00" y2="1088.00" />
<line x1="0" y1="1104.00" x2="1280.00" y2="1104.00" />
<line x1="0" y1="1120.00" x2="1280.00" y2="1120.00" />
<line x1="0" y1="1136.00" x2="1280.00" y2="1136.00" />
<line x1="0" y1="1152.00" x2="1280.00" y2="1152.00" />
<line x1="0" y1="1168.00" x2="1280.00" y2="1168.00" />
<line x1="0" y1="1184.00" x2="1280.00" y2="1184.00" />
<line x1="0" y1="1200.00" x2="1280.00" y2="1200.00" />
<line x1="0" y1="1216.00" x2="1280.00" y2="1216.00" />
<line x1="0" y1="1232.00" x2="1280.00" y2="1232.00" />
<line x1="0" y1="1248.00" x2="1280.00" y2="1248.00" />
<line x1="0" y1="1264.00" x2="1280.00" y2="1264.00" />
<line x1="0" y1="1280.00" x2="1280.00" y2="1280.00" />
<line x1="0" y1="1296.00" x2="1280.00" y2="1296.00" />
<line x1="0" y1="1312.00" x2="1280.00" y2="1312.00" />
<line x1="0" y1="1328.00" x2="1280.00" y2="1328.00" />
<line x1="0" y1="1344.00" x2="1280.00" y2="1344.00" />
<line x1="0" y1="1360.00" x2="1280.00" y2="1360.00" />
<line x1="0" y1="1376.00" x2="1280.00" y2="1376.00" />
<line x1="0" y1="1392.00" x2="1280.00" y2="1392.00" />
<line x1="0" y1="1408.00" x2="1280.00" y2="1408.00" />
<line x1="0" y1="1424.00" x2="1280.00" y2="1424.00" />
<line x1="0" y1="1440.00" x2="1280.00" y2="1440.00" />
<line x1="0" y1="1456.00" x2="1280.00" y2="1456.00" />
<line x1="0" y1="1472.00" x2="1280.00" y2="1472.00" />
<line x1="0" y1="1488.00" x2="1280.00" y2="1488.00" />
<line x1="0" y1="1504.00" x2="1280.00" y2="1504.00" />
<line x1="0" y1="1520.00" x2="1280.00" y2="1520.00" />
<line x1="0" y1="1536.00" x2="1280.00" y2="1536.00" />
  </g>
  <g class="walls">
<line x1="560.00" y1="32.00" x2="672.00" y2="32.00" />
<line x1="672.00" y1="64.00" x2="976.00" y2="64.00" />
<line x1="240.00" y1="80.00" x2="368.00" y2="80.00" />
<line x1="672.00" y1="80.00" x2="960.00" y2="80.00" />
<line x1="560.00" y1="112.00" x2="608.00" y2="112.00" />
<line x1="624.00" y1="112.00" x2="672.00" y2="112.00" />
<line x1="896.00" y1="96.00" x2="960.00" y2="96.00" />
<line x1="976.00" y1="96.00" x2="1056.00" y2="96.00" />
<line x1="368.00" y1="176.00" x2="608.00" y2="176.00" />
<line x1="368.00" y1="192.00" x2="416.00" y2="192.00" />
<line x1="512.00" y1="192.00" x2="592.00" y2="192.00" />
<line x1="624.00" y1="192.00" x2="768.00" y2="192.00" />
<line x1="1056.00" y1="192.00" x2="1216.00" y2="192.00" />
<line x1="1056.00" y1="208.00" x2="1072.00" y2="208.00" />
<line x1="368.00" y1="240.00" x2="416.00" y2="240.00" />
<line x1="144.00" y1="256.00" x2="240.00" y2="256.00" />
<line x1="512.00" y1="256.00" x2="592.00" y2="256.00" />
<line x1="768.00" y1="256.00" x2="896.00" y2="256.00" />
<line x1="1056.00" y1="256.00" x2="1072.00" y2="256.00" />
<line x1="160.00" y1="272.00" x2="304.00" y2="272.00" />
<line x1="320.00" y1="272.00" x2="416.00" y2="272.00" />
<line x1="512.00" y1="288.00" x2="592.00" y2="288.00" />
<line x1="768.00" y1="288.00" x2="960.00" y2="288.00" />
<line x1="992.00" y1="288.00" x2="1072.00" y2="288.00" />
<line x1="416.00" y1="304.00" x2="464.00" y2="304.00" />
<line x1="480.00" y1="304.00" x2="496.00" y2="304.00" />
<line x1="592.00" y1="320.00" x2="608.00" y2="320.00" />
<line x1="624.00" y1="320.00" x2="688.00" y2="320.00" />
<line x1="704.00" y1="320.00" x2="768.00" y2="320.00" />
<line x1="1072.00" y1="352.00" x2="1136.00" y2="352.00" />
<line x1="1152.00" y1="352.00" x2="1216.00" y2="352.00" />
<line x1="64.00" y1="368.00" x2="144.00" y2="368.00" />
<line x1="1104.00" y1="368.00" x2="1136.00" y2="368.00" />
<line x1="1152.00" y1="368.00" x2="1200.00" y2="368.00" />
<line x1="624.00" y1="384.00" x2="688.00" y2="384.00" />
<line x1="704.00" y1="384.00" x2="784.00" y2="384.00" />
<line x1="240.00" y1="400.00" x2="304.00" y2="400.00" />
<line x1="320.00" y1="400.00" x2="416.00" y2="400.00" />
<line x1="64.00" y1="480.00" x2="96.00" y2="480.00" />
<line x1="112.00" y1="480.00" x2="144.00" y2="480.00" />
<line x1="160.00" y1="480.00" x2="240.00" y2="480.00" />
<line x1="416.00" y1="480.00" x2="464.00" y2="480.00" />
<line x1="480.00" y1="480.00" x2="496.00" y2="480.00" />
<line x1="512.00" y1="480.00" x2="608.00" y2="480.00" />
<line x1="784.00" y1="480.00" x2="880.00" y2="480.00" />
<line x1="160.00" y1="464.00" x2="240.00" y2="464.00" />
<line x1="416.00" y1="464.00" x2="464.00" y2="464.00" />
<line x1="480.00" y1="464.00" x2="496.00" y2="464.00" />
<line x1="512.00" y1="464.00" x2="608.00" y2="464.00" />
<line x1="784.00" y1="464.00" x2="960.00" y2="464.00" />
<line x1="992.00" y1="464.00" x2="1056.00" y2="464.00" />
<line x1="1104.00" y1="512.00" x2="1136.00" y2="512.00" />
<line x1="1168.00" y1="512.00" x2="1200.00" y2="512.00" />
<line x1="240.00" y1="544.00" x2="320.00" y2="544.00" />
<line x1="336.00" y1="544.00" x2="352.00" y2="544.00" />
<line x1="368.00" y1="544.00" x2="416.00" y2="544.00" />
<line x1="624.00" y1="544.00" x2="688.00" y2="544.00" />
<line x1="720.00" y1="544.00" x2="784.00" y2="544.00" />
<line x1="304.00" y1="560.00" x2="320.00" y2="560.00" />
<line x1="336.00" y1="560.00" x2="352.00" y2="560.00" />
<line x1="368.00" y1="560.00" x2="464.00" y2="560.00" />
<line x1="480.00" y1="560.00" x2="496.00" y2="560.00" />
<line x1="512.00" y1="560.00" x2="608.00" y2="560.00" />
<line x1="624.00" y1="560.00" x2="688.00" y2="560.00" />
<line x1="720.00" y1="560.00" x2="880.00" y2="560.00" />
<line x1="272.00" y1="576.00" x2="304.00" y2="576.00" />
<line x1="432.00" y1="576.00" x2="464.00" y2="576.00" />
<line x1="480.00" y1="576.00" x2="496.00" y2="576.00" />
<line x1="512.00" y1="576.00" x2="608.00" y2="576.00" />
<line x1="624.00" y1="576.00" x2="688.00" y2="576.00" />
<line x1="720.00" y1="576.00" x2="880.00" y2="576.00" />
<line x1="672.00" y1="656.00" x2="688.00" y2="656.00" />
<line x1="720.00" y1="656.00" x2="784.00" y2="656.00" />
<line x1="880.00" y1="656.00" x2="960.00" y2="656.00" />
<line x1="976.00" y1="656.00" x2="1056.00" y2="656.00" />
<line x1="432.00" y1="672.00" x2="464.00" y2="672.00" />
<line x1="480.00" y1="672.00" x2="496.00" y2="672.00" />
<line x1="512.00" y1="672.00" x2="608.00" y2="672.00" />
<line x1="624.00" y1="672.00" x2="672.00" y2="672.00" />
<line x1="784.00" y1="672.00" x2="960.00" y2="672.00" />
<line x1="976.00" y1="672.00" x2="1136.00" y2="672.00" />
<line x1="432.00" y1="688.00" x2="464.00" y2="688.00" />
<line x1="480.00" y1="688.00" x2="496.00" y2="688.00" />
<line x1="512.00" y1="688.00" x2="608.00" y2="688.00" />
<line x1="624.00" y1="688.00" x2="672.00" y2="688.00" />
<line x1="784.00" y1="688.00" x2="960.00" y2="688.00" />
<line x1="976.00" y1="688.00" x2="1040.00" y2="688.00" />
<line x1="1056.00" y1="688.00" x2="1136.00" y2="688.00" />
<line x1="1152.00" y1="688.00" x2="1168.00" y2="688.00" />
<line x1="112.00" y1="720.00" x2="144.00" y2="720.00" />
<line x1="160.00" y1="720.00" x2="272.00" y2="720.00" />
<line x1="432.00" y1="720.00" x2="464.00" y2="720.00" />
<line x1="480.00" y1="720.00" x2="496.00" y2="720.00" />
<line x1="512.00" y1="720.00" x2="608.00" y2="720.00" />
<line x1="624.00" y1="720.00" x2="672.00" y2="720.00" />
<line x1="784.00" y1="720.00" x2="960.00" y2="720.00" />
<line x1="176.00" y1="736.00" x2="272.00" y2="736.00" />
<line x1="432.00" y1="736.00" x2="448.00" y2="736.00" />
<line x1="480.00" y1="736.00" x2="496.00" y2="736.00" />
<line x1="512.00" y1="736.00" x2="608.00" y2="736.00" />
<line x1="624.00" y1="736.00" x2="672.00" y2="736.00" />
<line x1="784.00" y1="736.00" x2="960.00" y2="736.00" />
<line x1="272.00" y1="768.00" x2="304.00" y2="768.00" />
<line x1="336.00" y1="768.00" x2="352.00" y2="768.00" />
<line x1="368.00" y1="768.00" x2="432.00" y2="768.00" />
<line x1="176.00" y1="784.00" x2="304.00" y2="784.00" />
<line x1="336.00" y1="784.00" x2="352.00" y2="784.00" />
<line x1="368.00" y1="784.00" x2="448.00" y2="784.00" />
<line x1="480.00" y1="784.00" x2="496.00" y2="784.00" />
<line x1="512.00" y1="784.00" x2="608.00" y2="784.00" />
<line x1="176.00" y1="800.00" x2="304.00" y2="800.00" />
<line x1="336.00" y1="800.00" x2="352.00" y2="800.00" />
<line x1="368.00" y1="800.00" x2="448.00" y2="800.00" />
<line x1="480.00" y1="800.00" x2="496.00" y2="800.00" />
<line x1="512.00" y1="800.00" x2="624.00" y2="800.00" />
<line x1="672.00" y1="800.00" x2="688.00" y2="800.00" />
<line x1="736.00" y1="800.00" x2="784.00" y2="800.00" />
<line x1="96.00" y1="848.00" x2="128.00" y2="848.00" />
<line x1="160.00" y1="848.00" x2="176.00" y2="848.00" />
<line x1="256.00" y1="832.00" x2="304.00" y2="832.00" />
<line x1="336.00" y1="832.00" x2="352.00" y2="832.00" />
<line x1="640.00" y1="864.00" x2="688.00" y2="864.00" />
<line x1="736.00" y1="864.00" x2="784.00" y2="864.00" />
<line x1="1056.00" y1="864.00" x2="1136.00" y2="864.00" />
<line x1="1152.00" y1="864.00" x2="1216.00" y2="864.00" />
<line x1="80.00" y1="896.00" x2="128.00" y2="896.00" />
<line x1="160.00" y1="896.00" x2="224.00" y2="896.00" />
<line x1="480.00" y1="896.00" x2="496.00" y2="896.00" />
<line x1="512.00" y1="896.00" x2="640.00" y2="896.00" />
<line x1="416.00" y1="912.00" x2="448.00" y2="912.00" />
<line x1="592.00" y1="912.00" x2="640.00" y2="912.00" />
<line x1="912.00" y1="912.00" x2="960.00" y2="912.00" />
<line x1="976.00" y1="912.00" x2="1008.00" y2="912.00" />
<line x1="256.00" y1="944.00" x2="320.00" y2="944.00" />
<line x1="336.00" y1="944.00" x2="352.00" y2="944.00" />
<line x1="368.00" y1="944.00" x2="416.00" y2="944.00" />
<line x1="592.00" y1="944.00" x2="640.00" y2="944.00" />
<line x1="784.00" y1="944.00" x2="912.00" y2="944.00" />
<line x1="1008.00" y1="944.00" x2="1040.00" y2="944.00" />
<line x1="368.00" y1="960.00" x2="416.00" y2="960.00" />
<line x1="864.00" y1="960.00" x2="912.00" y2="960.00" />
<line x1="1008.00" y1="960.00" x2="1040.00" y2="960.00" />
<line x1="224.00" y1="976.00" x2="320.00" y2="976.00" />
<line x1="336.00" y1="976.00" x2="352.00" y2="976.00" />
<line x1="368.00" y1="976.00" x2="416.00" y2="976.00" />
<line x1="752.00" y1="976.00" x2="848.00" y2="976.00" />
<line x1="224.00" y1="992.00" x2="288.00" y2="992.00" />
<line x1="752.00" y1="992.00" x2="848.00" y2="992.00" />
<line x1="864.00" y1="992.00" x2="912.00" y2="992.00" />
<line x1="304.00" y1="1008.00" x2="320.00" y2="1008.00" />
<line x1="336.00" y1="1008.00" x2="352.00" y2="1008.00" />
<line x1="368.00" y1="1008.00" x2="448.00" y2="1008.00" />
<line x1="464.00" y1="1008.00" x2="672.00" y2="1008.00" />
<line x1="752.00" y1="1008.00" x2="848.00" y2="1008.00" />
<line x1="864.00" y1="1008.00" x2="912.00" y2="1008.00" />
<line x1="384.00" y1="1024.00" x2="448.00" y2="1024.00" />
<line x1="464.00" y1="1024.00" x2="512.00" y2="1024.00" />
<line x1="1056.00" y1="1024.00" x2="1136.00" y2="1024.00" />
<line x1="1152.00" y1="1024.00" x2="1216.00" y2="1024.00" />
<line x1="80.00" y1="1072.00" x2="128.00" y2="1072.00" />
<line x1="160.00" y1="1072.00" x2="224.00" y2="1072.00" />
<line x1="336.00" y1="1072.00" x2="352.00" y2="1072.00" />
<line x1="368.00" y1="1072.00" x2="384.00" y2="1072.00" />
<line x1="512.00" y1="1072.00" x2="672.00" y2="1072.00" />
<line x1="912.00" y1="1072.00" x2="960.00" y2="1072.00" />
<line x1="976.00" y1="1072.00" x2="1008.00" y2="1072.00" />
<line x1="336.00" y1="1088.00" x2="352.00" y2="1088.00" />
<line x1="368.00" y1="1088.00" x2="384.00" y2="1088.00" />
<line x1="512.00" y1="1088.00" x2="672.00" y2="1088.00" />
<line x1="224.00" y1="1104.00" x2="288.00" y2="1104.00" />
<line x1="304.00" y1="1104.00" x2="320.00" y2="1104.00" />
<line x1="336.00" y1="1104.00" x2="352.00" y2="1104.00" />
<line x1="784.00" y1="1104.00" x2="848.00" y2="1104.00" />
<line x1="864.00" y1="1104.00" x2="912.00" y2="1104.00" />
<line x1="368.00" y1="1120.00" x2="384.00" y2="1120.00" />
<line x1="512.00" y1="1120.00" x2="672.00" y2="1120.00" />
<line x1="368.00" y1="1136.00" x2="384.00" y2="1136.00" />
<line x1="512.00" y1="1136.00" x2="528.00" y2="1136.00" />
<line x1="544.00" y1="1136.00" x2="672.00" y2="1136.00" />
<line x1="160.00" y1="1168.00" x2="224.00" y2="1168.00" />
<line x1="368.00" y1="1168.00" x2="384.00" y2="1168.00" />
<line x1="512.00" y1="1168.00" x2="528.00" y2="1168.00" />
<line x1="544.00" y1="1168.00" x2="672.00" y2="1168.00" />
<line x1="752.00" y1="1168.00" x2="784.00" y2="1168.00" />
<line x1="912.00" y1="1168.00" x2="960.00" y2="1168.00" />
<line x1="976.00" y1="1168.00" x2="1040.00" y2="1168.00" />
<line x1="1056.00" y1="1168.00" x2="1136.00" y2="1168.00" />
<line x1="160.00" y1="1184.00" x2="224.00" y2="1184.00" />
<line x1="368.00" y1="1184.00" x2="384.00" y2="1184.00" />
<line x1="512.00" y1="1184.00" x2="528.00" y2="1184.00" />
<line x1="544.00" y1="1184.00" x2="688.00" y2="1184.00" />
<line x1="704.00" y1="1184.00" x2="720.00" y2="1184.00" />
<line x1="736.00" y1="1184.00" x2="784.00" y2="1184.00" />
<line x1="912.00" y1="1184.00" x2="960.00" y2="1184.00" />
<line x1="976.00" y1="1184.00" x2="1040.00" y2="1184.00" />
<line x1="1056.00" y1="1184.00" x2="1152.00" y2="1184.00" />
<line x1="384.00" y1="1216.00" x2="448.00" y2="1216.00" />
<line x1="464.00" y1="1216.00" x2="512.00" y2="1216.00" />
<line x1="640.00" y1="1232.00" x2="688.00" y2="1232.00" />
<line x1="704.00" y1="1232.00" x2="720.00" y2="1232.00" />
<line x1="784.00" y1="1232.00" x2="912.00" y2="1232.00" />
<line x1="224.00" y1="1248.00" x2="320.00" y2="1248.00" />
<line x1="336.00" y1="1248.00" x2="352.00" y2="1248.00" />
<line x1="320.00" y1="1280.00" x2="352.00" y2="1280.00" />
<line x1="368.00" y1="1280.00" x2="448.00" y2="1280.00" />
<line x1="464.00" y1="1280.00" x2="528.00" y2="1280.00" />
<line x1="544.00" y1="1280.00" x2="640.00" y2="1280.00" />
<line x1="736.00" y1="1280.00" x2="944.00" y2="1280.00" />
<line x1="976.00" y1="1280.00" x2="1040.00" y2="1280.00" />
<line x1="1056.00" y1="1280.00" x2="1136.00" y2="1280.00" />
<line x1="336.00" y1="1264.00" x2="352.00" y2="1264.00" />
<line x1="368.00" y1="1264.00" x2="448.00" y2="1264.00" />
<line x1="464.00" y1="1264.00" x2="528.00" y2="1264.00" />
<line x1="544.00" y1="1264.00" x2="640.00" y2="1264.00" />
<line x1="736.00" y1="1264.00" x2="960.00" y2="1264.00" />
<line x1="480.00" y1="1296.00" x2="528.00" y2="1296.00" />
<line x1="544.00" y1="1296.00" x2="592.00" y2="1296.00" />
<line x1="640.00" y1="1312.00" x2="720.00" y2="1312.00" />
<line x1="64.00" y1="1344.00" x2="128.00" y2="1344.00" />
<line x1="160.00" y1="1344.00" x2="352.00" y2="1344.00" />
<line x1="368.00" y1="1344.00" x2="448.00" y2="1344.00" />
<line x1="464.00" y1="1344.00" x2="480.00" y2="1344.00" />
<line x1="592.00" y1="1344.00" x2="720.00" y2="1344.00" />
<line x1="736.00" y1="1344.00" x2="944.00" y2="1344.00" />
<line x1="224.00" y1="1360.00" x2="288.00" y2="1360.00" />
<line x1="432.00" y1="1360.00" x2="448.00" y2="1360.00" />
<line x1="464.00" y1="1360.00" x2="480.00" y2="1360.00" />
<line x1="592.00" y1="1360.00" x2="720.00" y2="1360.00" />
<line x1="736.00" y1="1360.00" x2="944.00" y2="1360.00" />
<line x1="480.00" y1="1408.00" x2="592.00" y2="1408.00" />
<line x1="432.00" y1="1424.00" x2="448.00" y2="1424.00" />
<line x1="464.00" y1="1424.00" x2="720.00" y2="1424.00" />
<line x1="432.00" y1="1440.00" x2="736.00" y2="1440.00" />
<line x1="944.00" y1="1440.00" x2="1136.00" y2="1440.00" />
<line x1="64.00" y1="1504.00" x2="224.00" y2="1504.00" />
<line x1="288.00" y1="1504.00" x2="432.00" y2="1504.00" />
<line x1="560.00" y1="32.00" x2="560.00" y2="112.00" />
<line x1="672.00" y1="32.00" x2="672.00" y2="64.00" />
<line x1="672.00" y1="80.00" x2="672.00" y2="112.00" />
<line x1="672.00" y1="656.00" x2="672.00" y2="672.00" />
<line x1="672.00" y1="688.00" x2="672.00" y2="720.00" />
<line x1="672.00" y1="736.00" x2="672.00" y2="800.00" />
<line x1="672.00" y1="1008.00" x2="672.00" y2="1072.00" />
<line x1="672.00" y1="1088.00" x2="672.00" y2="1120.00" />
<line x1="672.00" y1="1136.00" x2="672.00" y2="1168.00" />
<line x1="976.00" y1="64.00" x2="976.00" y2="96.00" />
<line x1="976.00" y1="656.00" x2="976.00" y2="672.00" />
<line x1="976.00" y1="688.00" x2="976.00" y2="912.00" />
<line x1="976.00" y1="1072.00" x2="976.00" y2="1168.00" />
<line x1="976.00" y1="1184.00" x2="976.00" y2="1280.00" />
<line x1="240.00" y1="80.00" x2="240.00" y2="256.00" />
<line x1="240.00" y1="400.00" x2="240.00" y2="464.00" />
<line x1="240.00" y1="480.00" x2="240.00" y2="544.00" />
<line x1="368.00" y1="80.00" x2="368.00" y2="176.00" />
<line x1="368.00" y1="192.00" x2="368.00" y2="240.00" />
<line x1="368.00" y1="544.00" x2="368.00" y2="560.00" />
<line x1="368.00" y1="768.00" x2="368.00" y2="784.00" />
<line x1="368.00" y1="800.00" x2="368.00" y2="944.00" />
<line x1="368.00" y1="960.00" x2="368.00" y2="976.00" />
<line x1="368.00" y1="1008.00" x2="368.00" y2="1072.00" />
<line x1="368.00" y1="1088.00" x2="368.00" y2="1120.00" />
<line x1="368.00" y1="1136.00" x2="368.00" y2="1168.00" />
<line x1="368.00" y1="1184.00" x2="368.00" y2="1264.00" />
<line x1="368.00" y1="1280.00" x2="368.00" y2="1344.00" />
<line x1="960.00" y1="80.00" x2="960.00" y2="96.00" />
<line x1="960.00" y1="288.00" x2="960.00" y2="464.00" />
<line x1="960.00" y1="656.00" x2="960.00" y2="672.00" />
<line x1="960.00" y1="688.00" x2="960.00" y2="720.00" />
<line x1="960.00" y1="736.00" x2="960.00" y2="912.00" />
<line x1="960.00" y1="1072.00" x2="960.00" y2="1168.00" />
<line x1="960.00" y1="1184.00" x2="960.00" y2="1264.00" />
<line x1="896.00" y1="96.00" x2="896.00" y2="256.00" />
<line x1="1056.00" y1="96.00" x2="1056.00" y2="192.00" />
<line x1="1056.00" y1="208.00" x2="1056.00" y2="256.00" />
<line x1="1056.00" y1="464.00" x2="1056.00" y2="656.00" />
<line x1="1056.00" y1="688.00" x2="1056.00" y2="864.00" />
<line x1="1056.00" y1="1024.00" x2="1056.00" y2="1168.00" />
<line x1="1056.00" y1="1184.00" x2="1056.00" y2="1280.00" />
<line x1="608.00" y1="112.00" x2="608.00" y2="176.00" />
<line x1="608.00" y1="320.00" x2="608.00" y2="464.00" />
<line x1="608.00" y1="480.00" x2="608.00" y2="560.00" />
<line x1="608.00" y1="576.00" x2="608.00" y2="672.00" />
<line x1="608.00" y1="688.00" x2="608.00" y2="720.00" />
<line x1="608.00" y1="736.00" x2="608.00" y2="784.00" />
<line x1="624.00" y1="112.00" x2="624.00" y2="192.00" />
<line x1="624.00" y1="320.00" x2="624.00" y2="384.00" />
<line x1="624.00" y1="544.00" x2="624.00" y2="560.00" />
<line x1="624.00" y1="576.00" x2="624.00" y2="672.00" />
<line x1="624.00" y1="688.00" x2="624.00" y2="720.00" />
<line x1="624.00" y1="736.00" x2="624.00" y2="800.00" />
<line x1="416.00" y1="192.00" x2="416.00" y2="240.00" />
<line x1="416.00" y1="272.00" x2="416.00" y2="304.00" />
<line x1="416.00" y1="400.00" x2="416.00" y2="464.00" />
<line x1="416.00" y1="480.00" x2="416.00" y2="544.00" />
<line x1="416.00" y1="912.00" x2="416.00" y2="944.00" />
<line x1="416.00" y1="960.00" x2="416.00" y2="976.00" />
<line x1="512.00" y1="192.00" x2="512.00" y2="256.00" />
<line x1="512.00" y1="288.00" x2="512.00" y2="464.00" />
<line x1="512.00" y1="480.00" x2="512.00" y2="560.00" />
<line x1="512.00" y1="576.00" x2="512.00" y2="672.00" />
<line x1="512.00" y1="688.00" x2="512.00" y2="720.00" />
<line x1="512.00" y1="736.00" x2="512.00" y2="784.00" />
<line x1="512.00" y1="800.00" x2="512.00" y2="896.00" />
<line x1="512.00" y1="1024.00" x2="512.00" y2="1072.00" />
<line x1="512.00" y1="1088.00" x2="512.00" y2="1120.00" />
<line x1="512.00" y1="1136.00" x2="512.00" y2="1168.00" />
<line x1="512.00" y1="1184.00" x2="512.00" y2="1216.00" />
<line x1="592.00" y1="192.00" x2="592.00" y2="256.00" />
<line x1="592.00" y1="288.00" x2="592.00" y2="320.00" />
<line x1="592.00" y1="912.00" x2="592.00" y2="944.00" />
<line x1="592.00" y1="1296.00" x2="592.00" y2="1344.00" />
<line x1="592.00" y1="1360.00" x2="592.00" y2="1408.00" />
<line x1="768.00" y1="192.00" x2="768.00" y2="256.00" />
<line x1="768.00" y1="288.00" x2="768.00" y2="320.00" />
<line x1="1216.00" y1="192.00" x2="1216.00" y2="352.00" />
<line x1="1216.00" y1="864.00" x2="1216.00" y2="1024.00" />
<line x1="1072.00" y1="208.00" x2="1072.00" y2="256.00" />
<line x1="1072.00" y1="288.00" x2="1072.00" y2="352.00" />
<line x1="144.00" y1="256.00" x2="144.00" y2="368.00" />
<line x1="144.00" y1="480.00" x2="144.00" y2="720.00" />
<line x1="160.00" y1="272.00" x2="160.00" y2="464.00" />
<line x1="160.00" y1="480.00" x2="160.00" y2="720.00" />
<line x1="160.00" y1="848.00" x2="160.00" y2="896.00" />
<line x1="160.00" y1="1072.00" x2="160.00" y2="1168.00" />
<line x1="160.00" y1="1184.00" x2="160.00" y2="1344.00" />
<line x1="304.00" y1="272.00" x2="304.00" y2="400.00" />
<line x1="304.00" y1="560.00" x2="304.00" y2="576.00" />
<line x1="304.00" y1="768.00" x2="304.00" y2="784.00" />
<line x1="304.00" y1="800.00" x2="304.00" y2="832.00" />
<line x1="304.00" y1="1008.00" x2="304.00" y2="1104.00" />
<line x1="320.00" y1="272.00" x2="320.00" y2="400.00" />
<line x1="320.00" y1="544.00" x2="320.00" y2="560.00" />
<line x1="320.00" y1="944.00" x2="320.00" y2="976.00" />
<line x1="320.00" y1="1008.00" x2="320.00" y2="1104.00" />
<line x1="320.00" y1="1248.00" x2="320.00" y2="1280.00" />
<line x1="992.00" y1="288.00" x2="992.00" y2="464.00" />
<line x1="464.00" y1="304.00" x2="464.00" y2="464.00" />
<line x1="464.00" y1="480.00" x2="464.00" y2="560.00" />
<line x1="464.00" y1="576.00" x2="464.00" y2="672.00" />
<line x1="464.00" y1="688.00" x2="464.00" y2="720.00" />
<line x1="464.00" y1="1008.00" x2="464.00" y2="1024.00" />
<line x1="464.00" y1="1216.00" x2="464.00" y2="1264.00" />
<line x1="464.00" y1="1280.00" x2="464.00" y2="1344.00" />
<line x1="464.00" y1="1360.00" x2="464.00" y2="1424.00" />
<line x1="480.00" y1="304.00" x2="480.00" y2="464.00" />
<line x1="480.00" y1="480.00" x2="480.00" y2="560.00" />
<line x1="480.00" y1="576.00" x2="480.00" y2="672.00" />
<line x1="480.00" y1="688.00" x2="480.00" y2="720.00" />
<line x1="480.00" y1="736.00" x2="480.00" y2="784.00" />
<line x1="480.00" y1="800.00" x2="480.00" y2="896.00" />
<line x1="480.00" y1="1296.00" x2="480.00" y2="1344.00" />
<line x1="480.00" y1="1360.00" x2="480.00" y2="1408.00" />
<line x1="496.00" y1="304.00" x2="496.00" y2="464.00" />
<line x1="496.00" y1="480.00" x2="496.00" y2="560.00" />
<line x1="496.00" y1="576.00" x2="496.00" y2="672.00" />
<line x1="496.00" y1="688.00" x2="496.00" y2="720.00" />
<line x1="496.00" y1="736.00" x2="496.00" y2="784.00" />
<line x1="496.00" y1="800.00" x2="496.00" y2="896.00" />
<line x1="688.00" y1="320.00" x2="688.00" y2="384.00" />
<line x1="688.00" y1="544.00" x2="688.00" y2="560.00" />
<line x1="688.00" y1="576.00" x2="688.00" y2="656.00" />
<line x1="688.00" y1="800.00" x2="688.00" y2="864.00" />
<line x1="688.00" y1="1184.00" x2="688.00" y2="1232.00" />
<line x1="704.00" y1="320.00" x2="704.00" y2="384.00" />
<line x1="704.00" y1="1184.00" x2="704.00" y2="1232.00" />
<line x1="1136.00" y1="352.00" x2="1136.00" y2="368.00" />
<line x1="1136.00" y1="512.00" x2="1136.00" y2="672.00" />
<line x1="1136.00" y1="688.00" x2="1136.00" y2="864.00" />
<line x1="1136.00" y1="1024.00" x2="1136.00" y2="1168.00" />
<line x1="1136.00" y1="1280.00" x2="1136.00" y2="1440.00" />
<line x1="1152.00" y1="352.00" x2="1152.00" y2="368.00" />
<line x1="1152.00" y1="688.00" x2="1152.00" y2="864.00" />
<line x1="1152.00" y1="1024.00" x2="1152.00" y2="1184.00" />
<line x1="64.00" y1="368.00" x2="64.00" y2="480.00" />
<line x1="64.00" y1="1344.00" x2="64.00" y2="1504.00" />
<line x1="1104.00" y1="368.00" x2="1104.00" y2="512.00" />
<line x1="1200.00" y1="368.00" x2="1200.00" y2="512.00" />
<line x1="784.00" y1="384.00" x2="784.00" y2="464.00" />
<line x1="784.00" y1="480.00" x2="784.00" y2="544.00" />
<line x1="784.00" y1="656.00" x2="784.00" y2="672.00" />
<line x1="784.00" y1="688.00" x2="784.00" y2="720.00" />
<line x1="784.00" y1="736.00" x2="784.00" y2="800.00" />
<line x1="784.00" y1="864.00" x2="784.00" y2="944.00" />
<line x1="784.00" y1="1104.00" x2="784.00" y2="1168.00" />
<line x1="784.00" y1="1184.00" x2="784.00" y2="1232.00" />
<line x1="96.00" y1="480.00" x2="96.00" y2="848.00" />
<line x1="112.00" y1="480.00" x2="112.00" y2="720.00" />
<line x1="880.00" y1="480.00" x2="880.00" y2="560.00" />
<line x1="880.00" y1="576.00" x2="880.00" y2="656.00" />
<line x1="1168.00" y1="512.00" x2="1168.00" y2="688.00" />
<line x1="336.00" y1="544.00" x2="336.00" y2="560.00" />
<line x1="336.00" y1="768.00" x2="336.00" y2="784.00" />
<line x1="336.00" y1="800.00" x2="336.00" y2="832.00" />
<line x1="336.00" y1="944.00" x2="336.00" y2="976.00" />
<line x1="336.00" y1="1008.00" x2="336.00" y2="1072.00" />
<line x1="336.00" y1="1088.00" x2="336.00" y2="1104.00" />
<line x1="336.00" y1="1248.00" x2="336.00" y2="1264.00" />
<line x1="352.00" y1="544.00" x2="352.00" y2="560.00" />
<line x1="352.00" y1="768.00" x2="352.00" y2="784.00" />
<line x1="352.00" y1="800.00" x2="352.00" y2="832.00" />
<line x1="352.00" y1="944.00" x2="352.00" y2="976.00" />
<line x1="352.00" y1="1008.00" x2="352.00" y2="1072.00" />
<line x1="352.00" y1="1088.00" x2="352.00" y2="1104.00" />
<line x1="352.00" y1="1248.00" x2="352.00" y2="1264.00" />
<line x1="352.00" y1="1280.00" x2="352.00" y2="1344.00" />
<line x1="720.00" y1="544.00" x2="720.00" y2="560.00" />
<line x1="720.00" y1="576.00" x2="720.00" y2="656.00" />
<line x1="720.00" y1="1184.00" x2="720.00" y2="1232.00" />
<line x1="720.00" y1="1312.00" x2="720.00" y2="1344.00" />
<line x1="720.00" y1="1360.00" x2="720.00" y2="1424.00" />
<line x1="272.00" y1="576.00" x2="272.00" y2="720.00" />
<line x1="272.00" y1="736.00" x2="272.00" y2="768.00" />
<line x1="432.00" y1="576.00" x2="432.00" y2="672.00" />
<line x1="432.00" y1="688.00" x2="432.00" y2="720.00" />
<line x1="432.00" y1="736.00" x2="432.00" y2="768.00" />
<line x1="432.00" y1="1360.00" x2="432.00" y2="1424.00" />
<line x1="432.00" y1="1440.00" x2="432.00" y2="1504.00" />
<line x1="1040.00" y1="688.00" x2="1040.00" y2="944.00" />
<line x1="1040.00" y1="960.00" x2="1040.00" y2="1168.00" />
<line x1="1040.00" y1="1184.00" x2="1040.00" y2="1280.00" />
<line x1="176.00" y1="736.00" x2="176.00" y2="784.00" />
<line x1="176.00" y1="800.00" x2="176.00" y2="848.00" />
<line x1="448.00" y1="736.00" x2="448.00" y2="784.00" />
<line x1="448.00" y1="800.00" x2="448.00" y2="912.00" />
<line x1="448.00" y1="1008.00" x2="448.00" y2="1024.00" />
<line x1="448.00" y1="1216.00" x2="448.00" y2="1264.00" />
<line x1="448.00" y1="1280.00" x2="448.00" y2="1344.00" />
<line x1="448.00" y1="1360.00" x2="448.00" y2="1424.00" />
<line x1="736.00" y1="800.00" x2="736.00" y2="864.00" />
<line x1="736.00" y1="1184.00" x2="736.00" y2="1264.00" />
<line x1="736.00" y1="1280.00" x2="736.00" y2="1344.00" />
<line x1="736.00" y1="1360.00" x2="736.00" y2="1440.00" />
<line x1="256.00" y1="832.00" x2="256.00" y2="944.00" />
<line x1="128.00" y1="848.00" x2="128.00" y2="896.00" />
<line x1="128.00" y1="1072.00" x2="128.00" y2="1344.00" />
<line x1="640.00" y1="864.00" x2="640.00" y2="896.00" />
<line x1="640.00" y1="912.00" x2="640.00" y2="944.00" />
<line x1="640.00" y1="1232.00" x2="640.00" y2="1264.00" />
<line x1="640.00" y1="1280.00" x2="640.00" y2="1312.00" />
<line x1="80.00" y1="896.00" x2="80.00" y2="1072.00" />
<line x1="224.00" y1="896.00" x2="224.00" y2="976.00" />
<line x1="224.00" y1="992.00" x2="224.00" y2="1072.00" />
<line x1="224.00" y1="1104.00" x2="224.00" y2="1168.00" />
<line x1="224.00" y1="1184.00" x2="224.00" y2="1248.00" />
<line x1="224.00" y1="1360.00" x2="224.00" y2="1504.00" />
<line x1="912.00" y1="912.00" x2="912.00" y2="944.00" />
<line x1="912.00" y1="960.00" x2="912.00" y2="992.00" />
<line x1="912.00" y1="1008.00" x2="912.00" y2="1072.00" />
<line x1="912.00" y1="1104.00" x2="912.00" y2="1168.00" />
<line x1="912.00" y1="1184.00" x2="912.00" y2="1232.00" />
<line x1="1008.00" y1="912.00" x2="1008.00" y2="944.00" />
<line x1="1008.00" y1="960.00" x2="1008.00" y2="1072.00" />
<line x1="864.00" y1="960.00" x2="864.00" y2="992.00" />
<line x1="864.00" y1="1008.00" x2="864.00" y2="1104.00" />
<line x1="752.00" y1="976.00" x2="752.00" y2="992.00" />
<line x1="752.00" y1="1008.00" x2="752.00" y2="1168.00" />
<line x1="848.00" y1="976.00" x2="848.00" y2="992.00" />
<line x1="848.00" y1="1008.00" x2="848.00" y2="1104.00" />
<line x1="288.00" y1="992.00" x2="288.00" y2="1104.00" />
<line x1="288.00" y1="1360.00" x2="288.00" y2="1504.00" />
<line x1="384.00" y1="1024.00" x2="384.00" y2="1072.00" />
<line x1="384.00" y1="1088.00" x2="384.00" y2="1120.00" />
<line x1="384.00" y1="1136.00" x2="384.00" y2="1168.00" />
<line x1="384.00" y1="1184.00" x2="384.00" y2="1216.00" />
<line x1="528.00" y1="1136.00" x2="528.00" y2="1168.00" />
<line x1="528.00" y1="1184.00" x2="528.00" y2="1264.00" />
<line x1="528.00" y1="1280.00" x2="528.00" y2="1296.00" />
<line x1="544.00" y1="1136.00" x2="544.00" y2="1168.00" />
<line x1="544.00" y1="1184.00" x2="544.00" y2="1264.00" />
<line x1="544.00" y1="1280.00" x2="544.00" y2="1296.00" />
<line x1="944.00" y1="1280.00" x2="944.00" y2="1344.00" />
<line x1="944.00" y1="1360.00" x2="944.00" y2="1440.00" />
  </g>
  <g class="features">
<g data-feature-type="stairsDown"><line data-feature-type="stairsDown" x1="962.24" y1="579.36" x2="973.76" y2="579.36" /><line x1="962.65" y1="581.68" x2="973.35" y2="581.68" /><line x1="963.07" y1="584.00" x2="972.93" y2="584.00" /><line x1="963.48" y1="586.32" x2="972.52" y2="586.32" /><line x1="963.90" y1="588.64" x2="972.10" y2="588.64" /></g>
<g data-feature-type="stairsUp"><line data-feature-type="stairsUp" x1="355.90" y1="707.36" x2="364.10" y2="707.36" /><line x1="355.48" y1="709.68" x2="364.52" y2="709.68" /><line x1="355.07" y1="712.00" x2="364.93" y2="712.00" /><line x1="354.65" y1="714.32" x2="365.35" y2="714.32" /><line x1="354.24" y1="716.64" x2="365.76" y2="716.64" /></g>
<circle data-feature-type="pillar" cx="712.00" cy="1272.00" r="3.68" fill="#4f89a8" stroke="none" />
<circle data-feature-type="pillar" cx="312.00" cy="1176.00" r="3.68" fill="#4f89a8" stroke="none" />
<circle data-feature-type="pillar" cx="328.00" cy="1176.00" r="3.68" fill="#4f89a8" stroke="none" />
<g data-feature-type="trap"><rect x="340.64" y="1204.64" width="6.72" height="6.72" fill="none" /><line x1="340.64" y1="1204.64" x2="347.36" y2="1211.36" /><line x1="340.64" y1="1211.36" x2="347.36" y2="1204.64" /></g>
<circle data-feature-type="pillar" cx="120.00" cy="968.00" r="3.68" fill="#4f89a8" stroke="none" />
<circle data-feature-type="pillar" cx="168.00" cy="968.00" r="3.68" fill="#4f89a8" stroke="none" />
<circle data-feature-type="pillar" cx="136.00" cy="968.00" r="3.68" fill="#4f89a8" stroke="none" />
<circle data-feature-type="pillar" cx="936.00" cy="1000.00" r="3.68" fill="#4f89a8" stroke="none" />
<circle data-feature-type="pillar" cx="984.00" cy="1000.00" r="3.68" fill="#4f89a8" stroke="none" />
<circle data-feature-type="pillar" cx="1176.00" cy="936.00" r="3.68" fill="#4f89a8" stroke="none" />
<circle data-feature-type="pillar" cx="1128.00" cy="968.00" r="3.68" fill="#4f89a8" stroke="none" />
<circle data-feature-type="pillar" cx="1160.00" cy="968.00" r="3.68" fill="#4f89a8" stroke="none" />
<g data-feature-type="statue"><circle cx="1080.00" cy="968.00" r="3.52" fill="none" /><line x1="1077.76" y1="968.00" x2="1082.24" y2="968.00" /><line x1="1080.00" y1="965.76" x2="1080.00" y2="970.24" /><line x1="1078.39" y1="966.39" x2="1081.61" y2="969.61" /><line x1="1078.39" y1="969.61" x2="1081.61" y2="966.39" /></g>
<g data-feature-type="chest"><rect x="1109.28" y="886.24" width="5.44" height="3.52" fill="none" /><line x1="1109.28" y1="888.00" x2="1114.72" y2="888.00" /><circle cx="1112.00" cy="888.18" r="0.70" fill="#4f89a8" stroke="none" /></g>
<path data-feature-type="curtain" d="M 1078.40 899.84 Q 1080.00 902.34 1078.40 904.00 Q 1080.00 905.66 1078.40 908.16" fill="none" /><path d="M 1081.60 899.84 Q 1080.00 902.34 1081.60 904.00 Q 1080.00 905.66 1081.60 908.16" fill="none" />
<circle data-feature-type="pillar" cx="856.00" cy="1192.00" r="3.68" fill="#4f89a8" stroke="none" />
<circle data-feature-type="pillar" cx="856.00" cy="1160.00" r="3.68" fill="#4f89a8" stroke="none" />
<path data-feature-type="curtain" d="M 902.40 563.84 Q 904.00 566.34 902.40 568.00 Q 904.00 569.66 902.40 572.16" fill="none" /><path d="M 905.60 563.84 Q 904.00 566.34 905.60 568.00 Q 904.00 569.66 905.60 572.16" fill="none" />
<circle data-feature-type="pillar" cx="280.00" cy="200.00" r="3.68" fill="#4f89a8" stroke="none" />
<circle data-feature-type="pillar" cx="344.00" cy="200.00" r="3.68" fill="#4f89a8" stroke="none" />
<circle data-feature-type="pillar" cx="296.00" cy="200.00" r="3.68" fill="#4f89a8" stroke="none" />
<g data-feature-type="trap"><rect x="276.64" y="164.64" width="6.72" height="6.72" fill="none" /><line x1="276.64" y1="164.64" x2="283.36" y2="171.36" /><line x1="276.64" y1="171.36" x2="283.36" y2="164.64" /></g>
<circle data-feature-type="pillar" cx="376.00" cy="680.00" r="3.68" fill="#4f89a8" stroke="none" />
<path data-feature-type="curtain" d="M 406.40 707.84 Q 408.00 710.34 406.40 712.00 Q 408.00 713.66 406.40 716.16" fill="none" /><path d="M 409.60 707.84 Q 408.00 710.34 409.60 712.00 Q 408.00 713.66 409.60 716.16" fill="none" />
<circle data-feature-type="pillar" cx="520.00" cy="968.00" r="3.68" fill="#4f89a8" stroke="none" />
<circle data-feature-type="pillar" cx="472.00" cy="968.00" r="3.68" fill="#4f89a8" stroke="none" />
<g data-feature-type="altar"><rect x="629.28" y="486.40" width="5.44" height="3.20" fill="none" /><line x1="632.00" y1="485.44" x2="632.00" y2="490.56" /><line x1="630.40" y1="488.00" x2="633.60" y2="488.00" /></g>
<circle data-feature-type="pillar" cx="632.00" cy="72.00" r="3.68" fill="#4f89a8" stroke="none" />
<circle data-feature-type="pillar" cx="488.00" cy="248.00" r="3.68" fill="#4f89a8" stroke="none" />
<g data-feature-type="statue"><circle cx="1032.00" cy="168.00" r="3.52" fill="none" /><line x1="1029.76" y1="168.00" x2="1034.24" y2="168.00" /><line x1="1032.00" y1="165.76" x2="1032.00" y2="170.24" /><line x1="1030.39" y1="166.39" x2="1033.61" y2="169.61" /><line x1="1030.39" y1="169.61" x2="1033.61" y2="166.39" /></g>
<g data-feature-type="chest"><rect x="1029.28" y="134.24" width="5.44" height="3.52" fill="none" /><line x1="1029.28" y1="136.00" x2="1034.72" y2="136.00" /><circle cx="1032.00" cy="136.18" r="0.70" fill="#4f89a8" stroke="none" /></g>
<circle data-feature-type="pillar" cx="360.00" cy="1416.00" r="3.68" fill="#4f89a8" stroke="none" />
<circle data-feature-type="pillar" cx="360.00" cy="1464.00" r="3.68" fill="#4f89a8" stroke="none" />
<g data-feature-type="altar"><rect x="373.28" y="1478.40" width="5.44" height="3.20" fill="none" /><line x1="376.00" y1="1477.44" x2="376.00" y2="1482.56" /><line x1="374.40" y1="1480.00" x2="377.60" y2="1480.00" /></g>
<circle data-feature-type="pillar" cx="728.00" cy="904.00" r="3.68" fill="#4f89a8" stroke="none" />
<g data-feature-type="statue"><circle cx="680.00" cy="920.00" r="3.52" fill="none" /><line x1="677.76" y1="920.00" x2="682.24" y2="920.00" /><line x1="680.00" y1="917.76" x2="680.00" y2="922.24" /><line x1="678.39" y1="918.39" x2="681.61" y2="921.61" /><line x1="678.39" y1="921.61" x2="681.61" y2="918.39" /></g>
<g data-feature-type="trap"><rect x="724.64" y="916.64" width="6.72" height="6.72" fill="none" /><line x1="724.64" y1="916.64" x2="731.36" y2="923.36" /><line x1="724.64" y1="923.36" x2="731.36" y2="916.64" /></g>
<g data-feature-type="coffin"><rect x="757.60" y="884.32" width="4.80" height="7.36" rx="0.80" ry="0.80" fill="none" /><line x1="760.00" y1="885.94" x2="760.00" y2="890.06" /></g>
<circle data-feature-type="pillar" cx="712.00" cy="1048.00" r="3.68" fill="#4f89a8" stroke="none" />
<circle data-feature-type="pillar" cx="712.00" cy="1112.00" r="3.68" fill="#4f89a8" stroke="none" />
<g data-feature-type="statue"><circle cx="696.00" cy="1048.00" r="3.52" fill="none" /><line x1="693.76" y1="1048.00" x2="698.24" y2="1048.00" /><line x1="696.00" y1="1045.76" x2="696.00" y2="1050.24" /><line x1="694.39" y1="1046.39" x2="697.61" y2="1049.61" /><line x1="694.39" y1="1049.61" x2="697.61" y2="1046.39" /></g>
<circle data-feature-type="pillar" cx="168.00" cy="1416.00" r="3.68" fill="#4f89a8" stroke="none" />
<circle data-feature-type="pillar" cx="168.00" cy="1448.00" r="3.68" fill="#4f89a8" stroke="none" />
<circle data-feature-type="pillar" cx="136.00" cy="1448.00" r="3.68" fill="#4f89a8" stroke="none" />
<g data-feature-type="chest"><rect x="197.28" y="1462.24" width="5.44" height="3.52" fill="none" /><line x1="197.28" y1="1464.00" x2="202.72" y2="1464.00" /><circle cx="200.00" cy="1464.18" r="0.70" fill="#4f89a8" stroke="none" /></g>
<circle data-feature-type="pillar" cx="1160.00" cy="456.00" r="3.68" fill="#4f89a8" stroke="none" />
<circle data-feature-type="pillar" cx="1160.00" cy="424.00" r="3.68" fill="#4f89a8" stroke="none" />
<g data-feature-type="statue"><circle cx="1176.00" cy="424.00" r="3.52" fill="none" /><line x1="1173.76" y1="424.00" x2="1178.24" y2="424.00" /><line x1="1176.00" y1="421.76" x2="1176.00" y2="426.24" /><line x1="1174.39" y1="422.39" x2="1177.61" y2="425.61" /><line x1="1174.39" y1="425.61" x2="1177.61" y2="422.39" /></g>
<path data-feature-type="curtain" d="M 1126.40 483.84 Q 1128.00 486.34 1126.40 488.00 Q 1128.00 489.66 1126.40 492.16" fill="none" /><path d="M 1129.60 483.84 Q 1128.00 486.34 1129.60 488.00 Q 1128.00 489.66 1129.60 492.16" fill="none" />
<circle data-feature-type="pillar" cx="152.00" cy="792.00" r="3.68" fill="#4f89a8" stroke="none" />
<circle data-feature-type="pillar" cx="536.00" cy="1320.00" r="3.68" fill="#4f89a8" stroke="none" />
<circle data-feature-type="pillar" cx="536.00" cy="1384.00" r="3.68" fill="#4f89a8" stroke="none" />
<circle data-feature-type="pillar" cx="1112.00" cy="280.00" r="3.68" fill="#4f89a8" stroke="none" />
<circle data-feature-type="pillar" cx="1128.00" cy="280.00" r="3.68" fill="#4f89a8" stroke="none" />
<circle data-feature-type="pillar" cx="312.00" cy="856.00" r="3.68" fill="#4f89a8" stroke="none" />
<circle data-feature-type="pillar" cx="312.00" cy="904.00" r="3.68" fill="#4f89a8" stroke="none" />
<circle data-feature-type="pillar" cx="120.00" cy="424.00" r="3.68" fill="#4f89a8" stroke="none" />
<g data-feature-type="chest"><rect x="117.28" y="438.24" width="5.44" height="3.52" fill="none" /><line x1="117.28" y1="440.00" x2="122.72" y2="440.00" /><circle cx="120.00" cy="440.18" r="0.70" fill="#4f89a8" stroke="none" /></g>
  </g>
  <g class="thresholds">
<rect data-threshold-type="door" x="723.52" y="1269.76" width="8.96" height="4.48" fill="#ffffff" stroke="#4f89a8" stroke-width="1.52" />
<rect data-threshold-type="door" x="403.52" y="469.76" width="8.96" height="4.48" fill="#ffffff" stroke="#4f89a8" stroke-width="1.52" />
<rect data-threshold-type="door" x="227.52" y="1173.76" width="8.96" height="4.48" fill="#ffffff" stroke="#4f89a8" stroke-width="1.52" />
<rect data-threshold-type="door" x="211.52" y="981.76" width="8.96" height="4.48" fill="#ffffff" stroke="#4f89a8" stroke-width="1.52" />
<g data-threshold-type="secret"><line x1="611.52" y1="200.00" x2="620.48" y2="200.00" stroke="#4f89a8" stroke-width="1.31" stroke-dasharray="1.31 1.31" /><text x="621.56" y="199.10" font-size="5.44" fill="#4f89a8" font-family="Courier New, monospace" font-weight="700">S</text></g>
<rect data-threshold-type="door" x="915.52" y="997.76" width="8.96" height="4.48" fill="#ffffff" stroke="#4f89a8" stroke-width="1.52" />
<rect data-threshold-type="door" x="1059.52" y="965.76" width="8.96" height="4.48" fill="#ffffff" stroke="#4f89a8" stroke-width="1.52" />
<rect data-threshold-type="door" x="787.52" y="1173.76" width="8.96" height="4.48" fill="#ffffff" stroke="#4f89a8" stroke-width="1.52" />
<rect data-threshold-type="door" x="883.52" y="565.76" width="8.96" height="4.48" fill="#ffffff" stroke="#4f89a8" stroke-width="1.52" />
<rect data-threshold-type="door" x="355.52" y="261.76" width="8.96" height="4.48" fill="#ffffff" stroke="#4f89a8" stroke-width="1.52" />
<g data-threshold-type="locked" stroke="#4f89a8" fill="none" stroke-width="1.52"><rect x="387.52" y="1125.76" width="8.96" height="4.48" fill="#ffffff" /><circle cx="392.00" cy="1124.77" r="1.61" /></g>
<rect data-threshold-type="door" x="355.52" y="581.76" width="8.96" height="4.48" fill="#ffffff" stroke="#4f89a8" stroke-width="1.52" />
<rect data-threshold-type="door" x="467.52" y="917.76" width="8.96" height="4.48" fill="#ffffff" stroke="#4f89a8" stroke-width="1.52" />
<g data-threshold-type="locked" stroke="#4f89a8" fill="none" stroke-width="1.52"><rect x="947.52" y="1349.76" width="8.96" height="4.48" fill="#ffffff" /><circle cx="952.00" cy="1348.77" r="1.61" /></g>
<rect data-threshold-type="door" x="691.52" y="389.76" width="8.96" height="4.48" fill="#ffffff" stroke="#4f89a8" stroke-width="1.52" />
<rect data-threshold-type="door" x="611.52" y="101.76" width="8.96" height="4.48" fill="#ffffff" stroke="#4f89a8" stroke-width="1.52" />
<rect data-threshold-type="door" x="467.52" y="197.76" width="8.96" height="4.48" fill="#ffffff" stroke="#4f89a8" stroke-width="1.52" />
<rect data-threshold-type="door" x="1043.52" y="261.76" width="8.96" height="4.48" fill="#ffffff" stroke="#4f89a8" stroke-width="1.52" />
<rect data-threshold-type="door" x="691.52" y="789.76" width="8.96" height="4.48" fill="#ffffff" stroke="#4f89a8" stroke-width="1.52" />
<rect data-threshold-type="door" x="387.52" y="1365.76" width="8.96" height="4.48" fill="#ffffff" stroke="#4f89a8" stroke-width="1.52" />
<rect data-threshold-type="door" x="723.52" y="869.76" width="8.96" height="4.48" fill="#ffffff" stroke="#4f89a8" stroke-width="1.52" />
<rect data-threshold-type="door" x="675.52" y="997.76" width="8.96" height="4.48" fill="#ffffff" stroke="#4f89a8" stroke-width="1.52" />
<rect data-threshold-type="door" x="211.52" y="1349.76" width="8.96" height="4.48" fill="#ffffff" stroke="#4f89a8" stroke-width="1.52" />
<g data-threshold-type="secret"><line x1="1139.52" y1="504.00" x2="1148.48" y2="504.00" stroke="#4f89a8" stroke-width="1.31" stroke-dasharray="1.31 1.31" /><text x="1149.56" y="503.10" font-size="5.44" fill="#4f89a8" font-family="Courier New, monospace" font-weight="700">S</text></g>
<rect data-threshold-type="door" x="147.52" y="741.76" width="8.96" height="4.48" fill="#ffffff" stroke="#4f89a8" stroke-width="1.52" />
<rect data-threshold-type="door" x="531.52" y="1301.76" width="8.96" height="4.48" fill="#ffffff" stroke="#4f89a8" stroke-width="1.52" />
<rect data-threshold-type="door" x="1139.52" y="341.76" width="8.96" height="4.48" fill="#ffffff" stroke="#4f89a8" stroke-width="1.52" />
<rect data-threshold-type="door" x="323.52" y="837.76" width="8.96" height="4.48" fill="#ffffff" stroke="#4f89a8" stroke-width="1.52" />
<rect data-threshold-type="door" x="131.52" y="421.76" width="8.96" height="4.48" fill="#ffffff" stroke="#4f89a8" stroke-width="1.52" />
  </g>
  <g class="labels">
<text x="696.00" y="1273.92" text-anchor="middle">1</text>
<text x="328.00" y="473.92" text-anchor="middle">2</text>
<text x="296.00" y="1177.92" text-anchor="middle">3</text>
<text x="152.00" y="985.92" text-anchor="middle">4</text>
<text x="680.00" y="265.92" text-anchor="middle">5</text>
<text x="968.00" y="1001.92" text-anchor="middle">6</text>
<text x="1144.00" y="953.92" text-anchor="middle">7</text>
<text x="856.00" y="1177.92" text-anchor="middle">8</text>
<text x="968.00" y="569.92" text-anchor="middle">9</text>
<text x="312.00" y="185.92" text-anchor="middle">10</text>
<text x="456.00" y="1129.92" text-anchor="middle">11</text>
<text x="360.00" y="681.92" text-anchor="middle">12</text>
<text x="504.00" y="969.92" text-anchor="middle">13</text>
<text x="1048.00" y="1369.92" text-anchor="middle">14</text>
<text x="696.00" y="473.92" text-anchor="middle">15</text>
<text x="616.00" y="73.92" text-anchor="middle">16</text>
<text x="472.00" y="249.92" text-anchor="middle">17</text>
<text x="984.00" y="201.92" text-anchor="middle">18</text>
<text x="728.00" y="729.92" text-anchor="middle">19</text>
<text x="360.00" y="1433.92" text-anchor="middle">20</text>
<text x="712.00" y="905.92" text-anchor="middle">21</text>
<text x="712.00" y="1081.92" text-anchor="middle">22</text>
<text x="152.00" y="1433.92" text-anchor="middle">23</text>
<text x="1160.00" y="441.92" text-anchor="middle">24</text>
<text x="136.00" y="793.92" text-anchor="middle">25</text>
<text x="536.00" y="1353.92" text-anchor="middle">26</text>
<text x="1144.00" y="281.92" text-anchor="middle">27</text>
<text x="312.00" y="889.92" text-anchor="middle">28</text>
<text x="104.00" y="425.92" text-anchor="middle">29</text>
  </g>
</svg>