<?xml version="1.0" encoding="UTF-8"?>
<svg xmlns="http://www.w3.org/2000/svg" width="1440" height="1536" viewBox="0 0 1440.00 1536.00" role="img" aria-label="MapIR render: Learned Generated Map 1">
  <defs>
    <style>
      .grid { stroke: #cde2ec; stroke-width: 0.64; opacity: 0.72; }
      .walls { stroke: #6aa7c7; stroke-width: 1.92; fill: none; stroke-linecap: square; }
      .thresholds { fill: none; stroke-linecap: round; }
      .features { stroke: #4f89a8; fill: none; stroke-width: 1.60; stroke-linecap: round; stroke-linejoin: round; }
      .labels { fill: #4f89a8; font-size: 7.20px; font-family: "Courier New", monospace; font-weight: 600; }
    </style>
  </defs>
  <rect x="0" y="0" width="1440.00" height="1536.00" fill="#4393be" />
  <g class="floors">
<rect x="672.00" y="32.00" width="144.00" height="96.00" fill="#fcfdfe" />
<rect x="528.00" y="48.00" width="80.00" height="112.00" fill="#fcfdfe" />
<rect x="112.00" y="80.00" width="416.00" height="32.00" fill="#fcfdfe" />
<rect x="608.00" y="80.00" width="64.00" height="32.00" fill="#fcfdfe" />
<rect x="816.00" y="96.00" width="560.00" height="16.00" fill="#fcfdfe" />
<rect x="112.00" y="112.00" width="16.00" height="1104.00" fill="#fcfdfe" />
<rect x="176.00" y="112.00" width="112.00" height="128.00" fill="#fcfdfe" />
<rect x="336.00" y="112.00" width="16.00" height="656.00" fill="#fcfdfe" />
<rect x="912.00" y="112.00" width="16.00" height="208.00" fill="#fcfdfe" />
<rect x="1296.00" y="112.00" width="80.00" height="96.00" fill="#fcfdfe" />
<rect x="736.00" y="128.00" width="16.00" height="336.00" fill="#fcfdfe" />
<rect x="720.00" y="144.00" width="16.00" height="240.00" fill="#fcfdfe" />
<rect x="752.00" y="144.00" width="160.00" height="16.00" fill="#fcfdfe" />
<rect x="928.00" y="144.00" width="368.00" height="16.00" fill="#fcfdfe" />
<rect x="528.00" y="160.00" width="16.00" height="224.00" fill="#fcfdfe" />
<rect x="560.00" y="160.00" width="16.00" height="272.00" fill="#fcfdfe" />
<rect x="944.00" y="160.00" width="64.00" height="64.00" fill="#fcfdfe" />
<rect x="1120.00" y="160.00" width="16.00" height="1232.00" fill="#fcfdfe" />
<rect x="96.00" y="176.00" width="16.00" height="448.00" fill="#fcfdfe" />
<rect x="128.00" y="176.00" width="48.00" height="16.00" fill="#fcfdfe" />
<rect x="288.00" y="176.00" width="48.00" height="16.00" fill="#fcfdfe" />
<rect x="352.00" y="176.00" width="176.00" height="16.00" fill="#fcfdfe" />
<rect x="544.00" y="176.00" width="16.00" height="16.00" fill="#fcfdfe" />
<rect x="576.00" y="176.00" width="144.00" height="16.00" fill="#fcfdfe" />
<rect x="752.00" y="176.00" width="160.00" height="16.00" fill="#fcfdfe" />
<rect x="928.00" y="176.00" width="16.00" height="16.00" fill="#fcfdfe" />
<rect x="432.00" y="192.00" width="16.00" height="976.00" fill="#fcfdfe" />
<rect x="464.00" y="192.00" width="16.00" height="1248.00" fill="#fcfdfe" />
<rect x="1168.00" y="208.00" width="64.00" height="144.00" fill="#fcfdfe" />
<rect x="1312.00" y="208.00" width="32.00" height="224.00" fill="#fcfdfe" />
<rect x="448.00" y="224.00" width="16.00" height="160.00" fill="#fcfdfe" />
<rect x="480.00" y="224.00" width="48.00" height="160.00" fill="#fcfdfe" />
<rect x="544.00" y="224.00" width="16.00" height="160.00" fill="#fcfdfe" />
<rect x="576.00" y="224.00" width="32.00" height="160.00" fill="#fcfdfe" />
<rect x="976.00" y="224.00" width="32.00" height="1216.00" fill="#fcfdfe" />
<rect x="192.00" y="240.00" width="96.00" height="16.00" fill="#fcfdfe" />
<rect x="672.00" y="240.00" width="48.00" height="144.00" fill="#fcfdfe" />
<rect x="752.00" y="240.00" width="32.00" height="144.00" fill="#fcfdfe" />
<rect x="272.00" y="256.00" width="16.00" height="224.00" fill="#fcfdfe" />
<rect x="864.00" y="256.00" width="48.00" height="64.00" fill="#fcfdfe" />
<rect x="928.00" y="256.00" width="32.00" height="64.00" fill="#fcfdfe" />
<rect x="1008.00" y="272.00" width="112.00" height="16.00" fill="#fcfdfe" />
<rect x="1136.00" y="272.00" width="32.00" height="16.00" fill="#fcfdfe" />
<rect x="624.00" y="288.00" width="48.00" height="16.00" fill="#fcfdfe" />
<rect x="784.00" y="288.00" width="80.00" height="16.00" fill="#fcfdfe" />
<rect x="128.00" y="304.00" width="144.00" height="16.00" fill="#fcfdfe" />
<rect x="288.00" y="304.00" width="48.00" height="16.00" fill="#fcfdfe" />
<rect x="352.00" y="304.00" width="80.00" height="16.00" fill="#fcfdfe" />
<rect x="624.00" y="304.00" width="16.00" height="368.00" fill="#fcfdfe" />
<rect x="912.00" y="352.00" width="64.00" height="128.00" fill="#fcfdfe" />
<rect x="1008.00" y="352.00" width="64.00" height="128.00" fill="#fcfdfe" />
<rect x="1200.00" y="352.00" width="32.00" height="464.00" fill="#fcfdfe" />
<rect x="208.00" y="416.00" width="64.00" height="64.00" fill="#fcfdfe" />
<rect x="288.00" y="416.00" width="48.00" height="64.00" fill="#fcfdfe" />
<rect x="576.00" y="416.00" width="48.00" height="16.00" fill="#fcfdfe" />
<rect x="640.00" y="416.00" width="96.00" height="16.00" fill="#fcfdfe" />
<rect x="752.00" y="416.00" width="160.00" height="16.00" fill="#fcfdfe" />
<rect x="1072.00" y="416.00" width="48.00" height="16.00" fill="#fcfdfe" />
<rect x="1136.00" y="416.00" width="64.00" height="16.00" fill="#fcfdfe" />
<rect x="1232.00" y="416.00" width="80.00" height="16.00" fill="#fcfdfe" />
<rect x="1312.00" y="432.00" width="16.00" height="496.00" fill="#fcfdfe" />
<rect x="352.00" y="448.00" width="80.00" height="16.00" fill="#fcfdfe" />
<rect x="448.00" y="448.00" width="16.00" height="16.00" fill="#fcfdfe" />
<rect x="480.00" y="448.00" width="144.00" height="16.00" fill="#fcfdfe" />
<rect x="640.00" y="448.00" width="96.00" height="16.00" fill="#fcfdfe" />
<rect x="64.00" y="480.00" width="32.00" height="144.00" fill="#fcfdfe" />
<rect x="48.00" y="496.00" width="16.00" height="112.00" fill="#fcfdfe" />
<rect x="128.00" y="496.00" width="16.00" height="112.00" fill="#fcfdfe" />
<rect x="32.00" y="512.00" width="16.00" height="80.00" fill="#fcfdfe" />
<rect x="144.00" y="512.00" width="16.00" height="976.00" fill="#fcfdfe" />
<rect x="848.00" y="512.00" width="64.00" height="96.00" fill="#fcfdfe" />
<rect x="560.00" y="528.00" width="64.00" height="144.00" fill="#fcfdfe" />
<rect x="640.00" y="528.00" width="64.00" height="144.00" fill="#fcfdfe" />
<rect x="160.00" y="560.00" width="176.00" height="16.00" fill="#fcfdfe" />
<rect x="352.00" y="560.00" width="80.00" height="16.00" fill="#fcfdfe" />
<rect x="448.00" y="560.00" width="16.00" height="16.00" fill="#fcfdfe" />
<rect x="480.00" y="560.00" width="80.00" height="16.00" fill="#fcfdfe" />
<rect x="704.00" y="560.00" width="144.00" height="16.00" fill="#fcfdfe" />
<rect x="1168.00" y="608.00" width="32.00" height="112.00" fill="#fcfdfe" />
<rect x="1232.00" y="608.00" width="32.00" height="112.00" fill="#fcfdfe" />
<rect x="288.00" y="624.00" width="48.00" height="144.00" fill="#fcfdfe" />
<rect x="352.00" y="624.00" width="48.00" height="144.00" fill="#fcfdfe" />
<rect x="448.00" y="656.00" width="16.00" height="16.00" fill="#fcfdfe" />
<rect x="480.00" y="656.00" width="80.00" height="16.00" fill="#fcfdfe" />
<rect x="704.00" y="656.00" width="272.00" height="16.00" fill="#fcfdfe" />
<rect x="1008.00" y="656.00" width="112.00" height="16.00" fill="#fcfdfe" />
<rect x="1136.00" y="656.00" width="32.00" height="16.00" fill="#fcfdfe" />
<rect x="864.00" y="720.00" width="80.00" height="160.00" fill="#fcfdfe" />
<rect x="560.00" y="736.00" width="128.00" height="112.00" fill="#fcfdfe" />
<rect x="848.00" y="736.00" width="16.00" height="144.00" fill="#fcfdfe" />
<rect x="944.00" y="736.00" width="16.00" height="640.00" fill="#fcfdfe" />
<rect x="832.00" y="752.00" width="16.00" height="96.00" fill="#fcfdfe" />
<rect x="960.00" y="752.00" width="16.00" height="96.00" fill="#fcfdfe" />
<rect x="96.00" y="768.00" width="16.00" height="64.00" fill="#fcfdfe" />
<rect x="128.00" y="768.00" width="16.00" height="64.00" fill="#fcfdfe" />
<rect x="160.00" y="768.00" width="96.00" height="64.00" fill="#fcfdfe" />
<rect x="256.00" y="800.00" width="176.00" height="16.00" fill="#fcfdfe" />
<rect x="448.00" y="800.00" width="16.00" height="16.00" fill="#fcfdfe" />
<rect x="480.00" y="800.00" width="80.00" height="16.00" fill="#fcfdfe" />
<rect x="688.00" y="800.00" width="144.00" height="16.00" fill="#fcfdfe" />
<rect x="1008.00" y="800.00" width="112.00" height="16.00" fill="#fcfdfe" />
<rect x="1136.00" y="800.00" width="64.00" height="16.00" fill="#fcfdfe" />
<rect x="1248.00" y="800.00" width="64.00" height="128.00" fill="#fcfdfe" />
<rect x="1328.00" y="800.00" width="64.00" height="128.00" fill="#fcfdfe" />
<rect x="720.00" y="816.00" width="16.00" height="624.00" fill="#fcfdfe" />
<rect x="1200.00" y="816.00" width="16.00" height="672.00" fill="#fcfdfe" />
<rect x="624.00" y="848.00" width="16.00" height="592.00" fill="#fcfdfe" />
<rect x="128.00" y="864.00" width="16.00" height="16.00" fill="#fcfdfe" />
<rect x="160.00" y="864.00" width="272.00" height="16.00" fill="#fcfdfe" />
<rect x="448.00" y="864.00" width="16.00" height="16.00" fill="#fcfdfe" />
<rect x="480.00" y="864.00" width="144.00" height="16.00" fill="#fcfdfe" />
<rect x="640.00" y="864.00" width="80.00" height="16.00" fill="#fcfdfe" />
<rect x="736.00" y="864.00" width="112.00" height="16.00" fill="#fcfdfe" />
<rect x="960.00" y="864.00" width="16.00" height="16.00" fill="#fcfdfe" />
<rect x="1008.00" y="864.00" width="112.00" height="16.00" fill="#fcfdfe" />
<rect x="1136.00" y="864.00" width="64.00" height="16.00" fill="#fcfdfe" />
<rect x="1216.00" y="864.00" width="32.00" height="16.00" fill="#fcfdfe" />
<rect x="528.00" y="880.00" width="96.00" height="112.00" fill="#fcfdfe" />
<rect x="896.00" y="880.00" width="16.00" height="64.00" fill="#fcfdfe" />
<rect x="512.00" y="896.00" width="16.00" height="96.00" fill="#fcfdfe" />
<rect x="496.00" y="912.00" width="16.00" height="48.00" fill="#fcfdfe" />
<rect x="640.00" y="912.00" width="16.00" height="48.00" fill="#fcfdfe" />
<rect x="656.00" y="928.00" width="64.00" height="16.00" fill="#fcfdfe" />
<rect x="736.00" y="928.00" width="160.00" height="16.00" fill="#fcfdfe" />
<rect x="128.00" y="944.00" width="16.00" height="80.00" fill="#fcfdfe" />
<rect x="160.00" y="944.00" width="32.00" height="80.00" fill="#fcfdfe" />
<rect x="192.00" y="976.00" width="240.00" height="16.00" fill="#fcfdfe" />
<rect x="448.00" y="976.00" width="16.00" height="16.00" fill="#fcfdfe" />
<rect x="480.00" y="976.00" width="32.00" height="16.00" fill="#fcfdfe" />
<rect x="640.00" y="976.00" width="80.00" height="16.00" fill="#fcfdfe" />
<rect x="736.00" y="976.00" width="128.00" height="16.00" fill="#fcfdfe" />
<rect x="848.00" y="992.00" width="16.00" height="224.00" fill="#fcfdfe" />
<rect x="688.00" y="1056.00" width="32.00" height="64.00" fill="#fcfdfe" />
<rect x="736.00" y="1056.00" width="16.00" height="64.00" fill="#fcfdfe" />
<rect x="352.00" y="1072.00" width="80.00" height="96.00" fill="#fcfdfe" />
<rect x="448.00" y="1072.00" width="16.00" height="96.00" fill="#fcfdfe" />
<rect x="480.00" y="1072.00" width="32.00" height="96.00" fill="#fcfdfe" />
<rect x="816.00" y="1072.00" width="32.00" height="128.00" fill="#fcfdfe" />
<rect x="864.00" y="1072.00" width="32.00" height="128.00" fill="#fcfdfe" />
<rect x="1072.00" y="1072.00" width="48.00" height="64.00" fill="#fcfdfe" />
<rect x="1136.00" y="1072.00" width="64.00" height="64.00" fill="#fcfdfe" />
<rect x="800.00" y="1088.00" width="16.00" height="96.00" fill="#fcfdfe" />
<rect x="896.00" y="1088.00" width="16.00" height="96.00" fill="#fcfdfe" />
<rect x="48.00" y="1104.00" width="64.00" height="112.00" fill="#fcfdfe" />
<rect x="128.00" y="1104.00" width="16.00" height="112.00" fill="#fcfdfe" />
<rect x="160.00" y="1104.00" width="16.00" height="112.00" fill="#fcfdfe" />
<rect x="608.00" y="1104.00" width="16.00" height="336.00" fill="#fcfdfe" />
<rect x="640.00" y="1104.00" width="48.00" height="16.00" fill="#fcfdfe" />
<rect x="752.00" y="1104.00" width="48.00" height="16.00" fill="#fcfdfe" />
<rect x="912.00" y="1104.00" width="32.00" height="16.00" fill="#fcfdfe" />
<rect x="960.00" y="1104.00" width="16.00" height="16.00" fill="#fcfdfe" />
<rect x="1008.00" y="1104.00" width="64.00" height="16.00" fill="#fcfdfe" />
<rect x="784.00" y="1120.00" width="16.00" height="48.00" fill="#fcfdfe" />
<rect x="912.00" y="1120.00" width="16.00" height="48.00" fill="#fcfdfe" />
<rect x="176.00" y="1152.00" width="176.00" height="16.00" fill="#fcfdfe" />
<rect x="512.00" y="1152.00" width="96.00" height="16.00" fill="#fcfdfe" />
<rect x="640.00" y="1152.00" width="80.00" height="16.00" fill="#fcfdfe" />
<rect x="736.00" y="1152.00" width="48.00" height="16.00" fill="#fcfdfe" />
<rect x="928.00" y="1152.00" width="16.00" height="16.00" fill="#fcfdfe" />
<rect x="960.00" y="1152.00" width="16.00" height="16.00" fill="#fcfdfe" />
<rect x="1008.00" y="1152.00" width="112.00" height="16.00" fill="#fcfdfe" />
<rect x="1296.00" y="1216.00" width="96.00" height="112.00" fill="#fcfdfe" />
<rect x="960.00" y="1264.00" width="16.00" height="16.00" fill="#fcfdfe" />
<rect x="1008.00" y="1264.00" width="112.00" height="16.00" fill="#fcfdfe" />
<rect x="1136.00" y="1264.00" width="64.00" height="16.00" fill="#fcfdfe" />
<rect x="1216.00" y="1264.00" width="80.00" height="16.00" fill="#fcfdfe" />
<rect x="400.00" y="1280.00" width="64.00" height="160.00" fill="#fcfdfe" />
<rect x="480.00" y="1280.00" width="48.00" height="160.00" fill="#fcfdfe" />
<rect x="1056.00" y="1280.00" width="64.00" height="112.00" fill="#fcfdfe" />
<rect x="1136.00" y="1280.00" width="48.00" height="112.00" fill="#fcfdfe" />
<rect x="576.00" y="1296.00" width="32.00" height="144.00" fill="#fcfdfe" />
<rect x="864.00" y="1296.00" width="80.00" height="80.00" fill="#fcfdfe" />
<rect x="960.00" y="1296.00" width="16.00" height="80.00" fill="#fcfdfe" />
<rect x="1008.00" y="1296.00" width="16.00" height="80.00" fill="#fcfdfe" />
<rect x="560.00" y="1312.00" width="16.00" height="96.00" fill="#fcfdfe" />
<rect x="640.00" y="1312.00" width="16.00" height="96.00" fill="#fcfdfe" />
<rect x="544.00" y="1328.00" width="16.00" height="64.00" fill="#fcfdfe" />
<rect x="656.00" y="1328.00" width="64.00" height="16.00" fill="#fcfdfe" />
<rect x="736.00" y="1328.00" width="128.00" height="16.00" fill="#fcfdfe" />
<rect x="1024.00" y="1328.00" width="32.00" height="16.00" fill="#fcfdfe" />
<rect x="656.00" y="1344.00" width="16.00" height="48.00" fill="#fcfdfe" />
<rect x="112.00" y="1376.00" width="32.00" height="112.00" fill="#fcfdfe" />
<rect x="160.00" y="1376.00" width="32.00" height="112.00" fill="#fcfdfe" />
<rect x="1216.00" y="1376.00" width="80.00" height="112.00" fill="#fcfdfe" />
<rect x="192.00" y="1424.00" width="208.00" height="16.00" fill="#fcfdfe" />
<rect x="528.00" y="1424.00" width="48.00" height="16.00" fill="#fcfdfe" />
<rect x="640.00" y="1424.00" width="80.00" height="16.00" fill="#fcfdfe" />
<rect x="736.00" y="1424.00" width="240.00" height="16.00" fill="#fcfdfe" />
<rect x="1008.00" y="1424.00" width="192.00" height="16.00" fill="#fcfdfe" />
  </g>
  <g class="grid">
<line x1="0.00" y1="0" x2="0.00" y2="1536.00" />
<line x1="16.00" y1="0" x2="16.00" y2="1536.00" />
<line x1="32.00" y1="0" x2="32.00" y2="1536.00" />
<line x1="48.00" y1="0" x2="48.00" y2="1536.00" />
<line x1="64.00" y1="0" x2="64.00" y2="1536.00" />
<line x1="80.00" y1="0" x2="80.00" y2="1536.00" />
<line x1="96.00" y1="0" x2="96.00" y2="1536.00" />
<line x1="112.00" y1="0" x2="112.00" y2="1536.00" />
<line x1="128.00" y1="0" x2="128.00" y2="1536.00" />
<line x1="144.00" y1="0" x2="144.00" y2="1536.00" />
<line x1="160.00" y1="0" x2="160.00" y2="1536.00" />
<line x1="176.00" y1="0" x2="176.00" y2="1536.00" />
<line x1="192.00" y1="0" x2="192.00" y2="1536.00" />
<line x1="208.00" y1="0" x2="208.00" y2="1536.00" />
<line x1="224.00" y1="0" x2="224.00" y2="1536.00" />
<line x1="240.00" y1="0" x2="240.00" y2="1536.00" />
<line x1="256.00" y1="0" x2="256.00" y2="1536.00" />
<line x1="272.00" y1="0" x2="272.00" y2="1536.00" />
<line x1="288.00" y1="0" x2="288.00" y2="1536.00" />
<line x1="304.00" y1="0" x2="304.00" y2="1536.00" />
<line x1="320.00" y1="0" x2="320.00" y2="1536.00" />
<line x1="336.00" y1="0" x2="336.00" y2="1536.00" />
<line x1="352.00" y1="0" x2="352.00" y2="1536.00" />
<line x1="368.00" y1="0" x2="368.00" y2="1536.00" />
<line x1="384.00" y1="0" x2="384.00" y2="1536.00" />
<line x1="400.00" y1="0" x2="400.00" y2="1536.00" />
<line x1="416.00" y1="0" x2="416.00" y2="1536.00" />
<line x1="432.00" y1="0" x2="432.00" y2="1536.00" />
<line x1="448.00" y1="0" x2="448.00" y2="1536.00" />
<line x1="464.00" y1="0" x2="464.00" y2="1536.00" />
<line x1="480.00" y1="0" x2="480.00" y2="1536.00" />
<line x1="496.00" y1="0" x2="496.00" y2="1536.00" />
<line x1="512.00" y1="0" x2="512.00" y2="1536.00" />
<line x1="528.00" y1="0" x2="528.00" y2="1536.00" />
<line x1="544.00" y1="0" x2="544.00" y2="1536.00" />
<line x1="560.00" y1="0" x2="560.00" y2="1536.00" />
<line x1="576.00" y1="0" x2="576.00" y2="1536.00" />
<line x1="592.00" y1="0" x2="592.00" y2="1536.00" />
<line x1="608.00" y1="0" x2="608.00" y2="1536.00" />
<line x1="624.00" y1="0" x2="624.00" y2="1536.00" />
<line x1="640.00" y1="0" x2="640.00" y2="1536.00" />
<line x1="656.00" y1="0" x2="656.00" y2="1536.00" />
<line x1="672.00" y1="0" x2="672.00" y2="1536.00" />
<line x1="688.00" y1="0" x2="688.00" y2="1536.00" />
<line x1="704.00" y1="0" x2="704.00" y2="1536.00" />
<line x1="720.00" y1="0" x2="720.00" y2="1536.00" />
<line x1="736.00" y1="0" x2="736.00" y2="1536.00" />
<line x1="752.00" y1="0" x2="752.00" y2="1536.00" />
<line x1="768.00" y1="0" x2="768.00" y2="1536.00" />
<line x1="784.00" y1="0" x2="784.00" y2="1536.00" />
<line x1="800.00" y1="0" x2="800.00" y2="1536.00" />
<line x1="816.00" y1="0" x2="816.00" y2="1536.00" />
<line x1="832.00" y1="0" x2="832.00" y2="1536.00" />
<line x1="848.00" y1="0" x2="848.00" y2="1536.00" />
<line x1="864.00" y1="0" x2="864.00" y2="1536.00" />
<line x1="880.00" y1="0" x2="880.00" y2="1536.00" />
<line x1="896.00" y1="0" x2="896.00" y2="1536.00" />
<line x1="912.00" y1="0" x2="912.00" y2="1536.00" />
<line x1="928.00" y1="0" x2="928.00" y2="1536.00" />
<line x1="944.00" y1="0" x2="944.00" y2="1536.00" />
<line x1="960.00" y1="0" x2="960.00" y2="1536.00" />
<line x1="976.00" y1="0" x2="976.00" y2="1536.00" />
<line x1="992.00" y1="0" x2="992.00" y2="1536.00" />
<line x1="1008.00" y1="0" x2="1008.00" y2="1536.00" />
<line x1="1024.00" y1="0" x2="1024.00" y2="1536.00" />
<line x1="1040.00" y1="0" x2="1040.00" y2="1536.00" />
<line x1="1056.00" y1="0" x2="1056.00" y2="1536.00" />
<line x1="1072.00" y1="0" x2="1072.00" y2="1536.00" />
<line x1="1088.00" y1="0" x2="1088.00" y2="1536.00" />
<line x1="1104.00" y1="0" x2="1104.00" y2="1536.00" />
<line x1="1120.00" y1="0" x2="1120.00" y2="1536.00" />
<line x1="1136.00" y1="0" x2="1136.00" y2="1536.00" />
<line x1="1152.00" y1="0" x2="1152.00" y2="1536.00" />
<line x1="1168.00" y1="0" x2="1168.00" y2="1536.00" />
<line x1="1184.00" y1="0" x2="1184.00" y2="1536.00" />
<line x1="1200.00" y1="0" x2="1200.00" y2="1536.00" />
<line x1="1216.00" y1="0" x2="1216.00" y2="1536.00" />
<line x1="1232.00" y1="0" x2="1232.00" y2="1536.00" />
<line x1="1248.00" y1="0" x2="1248.00" y2="1536.00" />
<line x1="1264.00" y1="0" x2="1264.00" y2="1536.00" />
<line x1="1280.00" y1="0" x2="1280.00" y2="1536.00" />
<line x1="1296.00" y1="0" x2="1296.00" y2="1536.00" />
<line x1="1312.00" y1="0" x2="1312.00" y2="1536.00" />
<line x1="1328.00" y1="0" x2="1328.00" y2="1536.00" />
<line x1="1344.00" y1="0" x2="1344.00" y2="1536.00" />
<line x1="1360.00" y1="0" x2="1360.00" y2="1536.00" />
<line x1="1376.00" y1="0" x2="1376.00" y2="1536.00" />
<line x1="1392.00" y1="0" x2="1392.00" y2="1536.00" />
<line x1="1408.00" y1="0" x2="1408.00" y2="1536.00" />
<line x1="1424.00" y1="0" x2="1424.00" y2="1536.00" />
<line x1="1440.00" y1="0" x2="1440.00" y2="1536.00" />
<line x1="0" y1="0.00" x2="1440.00" y2="0.00" />
<line x1="0" y1="16.00" x2="1440.00" y2="16.00" />
<line x1="0" y1="32.00" x2="1440.00" y2="32.00" />
<line x1="0" y1="48.00" x2="1440.00" y2="48.00" />
<line x1="0" y1="64.00" x2="1440.00" y2="64.00" />
<line x1="0" y1="80.00" x2="1440.00" y2="80.00" />
<line x1="0" y1="96.00" x2="1440.00" y2="96.00" />
<line x1="0" y1="112.00" x2="1440.00" y2="112.00" />
<line x1="0" y1="128.00" x2="1440.00" y2="128.00" />
<line x1="0" y1="144.00" x2="1440.00" y2="144.00" />
<line x1="0" y1="160.00" x2="1440.00" y2="160.00" />
<line x1="0" y1="176.00" x2="1440.00" y2="176.00" />
<line x1="0" y1="192.00" x2="1440.00" y2="192.00" />
<line x1="0" y1="208.00" x2="1440.00" y2="208.00" />
<line x1="0" y1="224.00" x2="1440.00" y2="224.00" />
<line x1="0" y1="240.00" x2="1440.00" y2="240.00" />
<line x1="0" y1="256.00" x2="1440.00" y2="256.00" />
<line x1="0" y1="272.00" x2="1440.00" y2="272.00" />
<line x1="0" y1="288.00" x2="1440.00" y2="288.00" />
<line x1="0" y1="304.00" x2="1440.00" y2="304.00" />
<line x1="0" y1="320.00" x2="1440.00" y2="320.00" />
<line x1="0" y1="336.00" x2="1440.00" y2="336.00" />
<line x1="0" y1="352.00" x2="1440.00" y2="352.00" />
<line x1="0" y1="368.00" x2="1440.00" y2="368.00" />
<line x1="0" y1="384.00" x2="1440.00" y2="384.00" />
<line x1="0" y1="400.00" x2="1440.00" y2="400.00" />
<line x1="0" y1="416.00" x2="1440.00" y2="416.00" />
<line x1="0" y1="432.00" x2="1440.00" y2="432.00" />
<line x1="0" y1="448.00" x2="1440.00" y2="448.00" />
<line x1="0" y1="464.00" x2="1440.00" y2="464.00" />
<line x1="0" y1="480.00" x2="1440.00" y2="480.00" />
<line x1="0" y1="496.00" x2="1440.00" y2="496.00" />
<line x1="0" y1="512.00" x2="1440.00" y2="512.00" />
<line x1="0" y1="528.00" x2="1440.00" y2="528.00" />
<line x1="0" y1="544.00" x2="1440.00" y2="544.00" />
<line x1="0" y1="560.00" x2="1440.00" y2="560.00" />
<line x1="0" y1="576.00" x2="1440.00" y2="576.00" />
<line x1="0" y1="592.00" x2="1440.00" y2="592.00" />
<line x1="0" y1="608.00" x2="1440.00" y2="608.00" />
<line x1="0" y1="624.00" x2="1440.00" y2="624.00" />
<line x1="0" y1="640.00" x2="1440.00" y2="640.00" />
<line x1="0" y1="656.00" x2="1440.00" y2="656.00" />
<line x1="0" y1="672.00" x2="1440.00" y2="672.00" />
<line x1="0" y1="688.00" x2="1440.00" y2="688.00" />
<line x1="0" y1="704.00" x2="1440.00" y2="704.00" />
<line x1="0" y1="720.00" x2="1440.00" y2="720.00" />
<line x1="0" y1="736.00" x2="1440.00" y2="736.00" />
<line x1="0" y1="752.00" x2="1440.00" y2="752.00" />
<line x1="0" y1="768.00" x2="1440.00" y2="768.00" />
<line x1="0" y1="784.00" x2="1440.00" y2="784.00" />
<line x1="0" y1="800.00" x2="1440.00" y2="800.00" />
<line x1="0" y1="816.00" x2="1440.00" y2="816.00" />
<line x1="0" y1="832.00" x2="1440.00" y2="832.00" />
<line x1="0" y1="848.00" x2="1440.00" y2="848.00" />
<line x1="0" y1="864.00" x2="1440.00" y2="864.00" />
<line x1="0" y1="880.00" x2="1440.00" y2="880.00" />
<line x1="0" y1="896.00" x2="1440.00" y2="896.00" />
<line x1="0" y1="912.00" x2="1440.00" y2="912.00" />
<line x1="0" y1="928.00" x2="1440.00" y2="928.00" />
<line x1="0" y1="944.00" x2="1440.00" y2="944.00" />
<line x1="0" y1="960.00" x2="1440.00" y2="960.00" />
<line x1="0" y1="976.00" x2="1440.00" y2="976.00" />
<line x1="0" y1="992.00" x2="1440.00" y2="992.00" />
<line x1="0" y1="1008.00" x2="1440.00" y2="1008.00" />
<line x1="0" y1="1024.00" x2="1440.00" y2="1024.00" />
<line x1="0" y1="1040.00" x2="1440.00" y2="1040.00" />
<line x1="0" y1="1056.00" x2="1440.00" y2="1056.00" />
<line x1="0" y1="1072.00" x2="1440.00" y2="1072.00" />
<line x1="0" y1="1088.00" x2="1440.00" y2="1088.00" />
<line x1="0" y1="1104.00" x2="1440.00" y2="1104.00" />
<line x1="0" y1="1120.00" x2="1440.00" y2="1120.00" />
<line x1="0" y1="1136.00" x2="1440.00" y2="1136.00" />
<line x1="0" y1="1152.00" x2="1440.00" y2="1152.00" />
<line x1="0" y1="1168.00" x2="1440.00" y2="1168.00" />
<line x1="0" y1="1184.00" x2="1440.00" y2="1184.00" />
<line x1="0" y1="1200.00" x2="1440.00" y2="1200.00" />
<line x1="0" y1="1216.00" x2="1440.00" y2="1216.00" />
<line x1="0" y1="1232.00" x2="1440.00" y2="1232.00" />
<line x1="0" y1="1248.00" x2="1440.00" y2="1248.00" />
<line x1="0" y1="1264.00" x2="1440.00" y2="1264.00" />
<line x1="0" y1="1280.00" x2="1440.00" y2="1280.00" />
<line x1="0" y1="1296.00" x2="1440.00" y2="1296.00" />
<line x1="0" y1="1312.00" x2="1440.00" y2="1312.00" />
<line x1="0" y1="1328.00" x2="1440.00" y2="1328.00" />
<line x1="0" y1="1344.00" x2="1440.00" y2="1344.00" />
<line x1="0" y1="1360.00" x2="1440.00" y2="1360.00" />
<line x1="0" y1="1376.00" x2="1440.00" y2="1376.00" />
<line x1="0" y1="1392.00" x2="1440.00" y2="1392.00" />
<line x1="0" y1="1408.00" x2="1440.00" y2="1408.00" />
<line x1="0" y1="1424.00" x2="1440.00" y2="1424.00" />
<line x1="0" y1="1440.00" x2="1440.00" y2="1440.00" />
<line x1="0" y1="1456.00" x2="1440.00" y2="1456.00" />
<line x1="0" y1="1472.00" x2="1440.00" y2="1472.00" />
<line x1="0" y1="1488.00" x2="1440.00" y2="1488.00" />
<line x1="0" y1="1504.00" x2="1440.00" y2="1504.00" />
<line x1="0" y1="1520.00" x2="1440.00" y2="1520.00" />
<line x1="0" y1="1536.00" x2="1440.00" y2="1536.00" />
  </g>
  <g class="walls">
<line x1="672.00" y1="32.00" x2="816.00" y2="32.00" />
<line x1="528.00" y1="48.00" x2="608.00" y2="48.00" />
<line x1="112.00" y1="80.00" x2="528.00" y2="80.00" />
<line x1="608.00" y1="80.00" x2="672.00" y2="80.00" />
<line x1="128.00" y1="112.00" x2="176.00" y2="112.00" />
<line x1="288.00" y1="112.00" x2="336.00" y2="112.00" />
<line x1="352.00" y1="112.00" x2="528.00" y2="112.00" />
<line x1="608.00" y1="112.00" x2="672.00" y2="112.00" />
<line x1="816.00" y1="112.00" x2="912.00" y2="112.00" />
<line x1="928.00" y1="112.00" x2="1296.00" y2="112.00" />
<line x1="816.00" y1="96.00" x2="1376.00" y2="96.00" />
<line x1="672.00" y1="128.00" x2="736.00" y2="128.00" />
<line x1="752.00" y1="128.00" x2="816.00" y2="128.00" />
<line x1="544.00" y1="160.00" x2="560.00" y2="160.00" />
<line x1="576.00" y1="160.00" x2="608.00" y2="160.00" />
<line x1="752.00" y1="160.00" x2="912.00" y2="160.00" />
<line x1="928.00" y1="160.00" x2="944.00" y2="160.00" />
<line x1="1008.00" y1="160.00" x2="1120.00" y2="160.00" />
<line x1="1136.00" y1="160.00" x2="1296.00" y2="160.00" />
<line x1="720.00" y1="144.00" x2="736.00" y2="144.00" />
<line x1="752.00" y1="144.00" x2="912.00" y2="144.00" />
<line x1="928.00" y1="144.00" x2="1296.00" y2="144.00" />
<line x1="96.00" y1="176.00" x2="112.00" y2="176.00" />
<line x1="128.00" y1="176.00" x2="176.00" y2="176.00" />
<line x1="288.00" y1="176.00" x2="336.00" y2="176.00" />
<line x1="352.00" y1="176.00" x2="528.00" y2="176.00" />
<line x1="544.00" y1="176.00" x2="560.00" y2="176.00" />
<line x1="576.00" y1="176.00" x2="720.00" y2="176.00" />
<line x1="752.00" y1="176.00" x2="912.00" y2="176.00" />
<line x1="928.00" y1="176.00" x2="944.00" y2="176.00" />
<line x1="128.00" y1="192.00" x2="176.00" y2="192.00" />
<line x1="288.00" y1="192.00" x2="336.00" y2="192.00" />
<line x1="352.00" y1="192.00" x2="432.00" y2="192.00" />
<line x1="448.00" y1="192.00" x2="464.00" y2="192.00" />
<line x1="480.00" y1="192.00" x2="528.00" y2="192.00" />
<line x1="544.00" y1="192.00" x2="560.00" y2="192.00" />
<line x1="576.00" y1="192.00" x2="720.00" y2="192.00" />
<line x1="752.00" y1="192.00" x2="912.00" y2="192.00" />
<line x1="928.00" y1="192.00" x2="944.00" y2="192.00" />
<line x1="1168.00" y1="208.00" x2="1232.00" y2="208.00" />
<line x1="1296.00" y1="208.00" x2="1312.00" y2="208.00" />
<line x1="1344.00" y1="208.00" x2="1376.00" y2="208.00" />
<line x1="448.00" y1="224.00" x2="464.00" y2="224.00" />
<line x1="480.00" y1="224.00" x2="528.00" y2="224.00" />
<line x1="544.00" y1="224.00" x2="560.00" y2="224.00" />
<line x1="576.00" y1="224.00" x2="608.00" y2="224.00" />
<line x1="944.00" y1="224.00" x2="976.00" y2="224.00" />
<line x1="176.00" y1="240.00" x2="192.00" y2="240.00" />
<line x1="672.00" y1="240.00" x2="720.00" y2="240.00" />
<line x1="752.00" y1="240.00" x2="784.00" y2="240.00" />
<line x1="192.00" y1="256.00" x2="272.00" y2="256.00" />
<line x1="864.00" y1="256.00" x2="912.00" y2="256.00" />
<line x1="928.00" y1="256.00" x2="960.00" y2="256.00" />
<line x1="1008.00" y1="272.00" x2="1120.00" y2="272.00" />
<line x1="1136.00" y1="272.00" x2="1168.00" y2="272.00" />
<line x1="624.00" y1="288.00" x2="672.00" y2="288.00" />
<line x1="784.00" y1="288.00" x2="864.00" y2="288.00" />
<line x1="1008.00" y1="288.00" x2="1120.00" y2="288.00" />
<line x1="1136.00" y1="288.00" x2="1168.00" y2="288.00" />
<line x1="128.00" y1="304.00" x2="272.00" y2="304.00" />
<line x1="288.00" y1="304.00" x2="336.00" y2="304.00" />
<line x1="352.00" y1="304.00" x2="432.00" y2="304.00" />
<line x1="640.00" y1="304.00" x2="672.00" y2="304.00" />
<line x1="784.00" y1="304.00" x2="864.00" y2="304.00" />
<line x1="128.00" y1="320.00" x2="272.00" y2="320.00" />
<line x1="288.00" y1="320.00" x2="336.00" y2="320.00" />
<line x1="352.00" y1="320.00" x2="432.00" y2="320.00" />
<line x1="864.00" y1="320.00" x2="960.00" y2="320.00" />
<line x1="912.00" y1="352.00" x2="976.00" y2="352.00" />
<line x1="1008.00" y1="352.00" x2="1072.00" y2="352.00" />
<line x1="1168.00" y1="352.00" x2="1200.00" y2="352.00" />
<line x1="448.00" y1="384.00" x2="464.00" y2="384.00" />
<line x1="480.00" y1="384.00" x2="560.00" y2="384.00" />
<line x1="576.00" y1="384.00" x2="608.00" y2="384.00" />
<line x1="672.00" y1="384.00" x2="736.00" y2="384.00" />
<line x1="752.00" y1="384.00" x2="784.00" y2="384.00" />
<line x1="208.00" y1="416.00" x2="272.00" y2="416.00" />
<line x1="288.00" y1="416.00" x2="336.00" y2="416.00" />
<line x1="576.00" y1="416.00" x2="624.00" y2="416.00" />
<line x1="640.00" y1="416.00" x2="736.00" y2="416.00" />
<line x1="752.00" y1="416.00" x2="912.00" y2="416.00" />
<line x1="1072.00" y1="416.00" x2="1120.00" y2="416.00" />
<line x1="1136.00" y1="416.00" x2="1200.00" y2="416.00" />
<line x1="1232.00" y1="416.00" x2="1312.00" y2="416.00" />
<line x1="560.00" y1="432.00" x2="624.00" y2="432.00" />
<line x1="640.00" y1="432.00" x2="736.00" y2="432.00" />
<line x1="752.00" y1="432.00" x2="912.00" y2="432.00" />
<line x1="1072.00" y1="432.00" x2="1120.00" y2="432.00" />
<line x1="1136.00" y1="432.00" x2="1200.00" y2="432.00" />
<line x1="1232.00" y1="432.00" x2="1312.00" y2="432.00" />
<line x1="1328.00" y1="432.00" x2="1344.00" y2="432.00" />
<line x1="352.00" y1="448.00" x2="432.00" y2="448.00" />
<line x1="448.00" y1="448.00" x2="464.00" y2="448.00" />
<line x1="480.00" y1="448.00" x2="624.00" y2="448.00" />
<line x1="640.00" y1="448.00" x2="736.00" y2="448.00" />
<line x1="352.00" y1="464.00" x2="432.00" y2="464.00" />
<line x1="448.00" y1="464.00" x2="464.00" y2="464.00" />
<line x1="480.00" y1="464.00" x2="624.00" y2="464.00" />
<line x1="640.00" y1="464.00" x2="752.00" y2="464.00" />
<line x1="64.00" y1="480.00" x2="96.00" y2="480.00" />
<line x1="208.00" y1="480.00" x2="336.00" y2="480.00" />
<line x1="912.00" y1="480.00" x2="976.00" y2="480.00" />
<line x1="1008.00" y1="480.00" x2="1072.00" y2="480.00" />
<line x1="48.00" y1="496.00" x2="64.00" y2="496.00" />
<line x1="128.00" y1="496.00" x2="144.00" y2="496.00" />
<line x1="32.00" y1="512.00" x2="48.00" y2="512.00" />
<line x1="144.00" y1="512.00" x2="160.00" y2="512.00" />
<line x1="848.00" y1="512.00" x2="912.00" y2="512.00" />
<line x1="560.00" y1="528.00" x2="624.00" y2="528.00" />
<line x1="640.00" y1="528.00" x2="704.00" y2="528.00" />
<line x1="160.00" y1="560.00" x2="336.00" y2="560.00" />
<line x1="352.00" y1="560.00" x2="432.00" y2="560.00" />
<line x1="448.00" y1="560.00" x2="464.00" y2="560.00" />
<line x1="480.00" y1="560.00" x2="560.00" y2="560.00" />
<line x1="704.00" y1="560.00" x2="848.00" y2="560.00" />
<line x1="160.00" y1="576.00" x2="336.00" y2="576.00" />
<line x1="352.00" y1="576.00" x2="432.00" y2="576.00" />
<line x1="448.00" y1="576.00" x2="464.00" y2="576.00" />
<line x1="480.00" y1="576.00" x2="560.00" y2="576.00" />
<line x1="704.00" y1="576.00" x2="848.00" y2="576.00" />
<line x1="32.00" y1="592.00" x2="48.00" y2="592.00" />
<line x1="48.00" y1="608.00" x2="64.00" y2="608.00" />
<line x1="128.00" y1="608.00" x2="144.00" y2="608.00" />
<line x1="848.00" y1="608.00" x2="912.00" y2="608.00" />
<line x1="1168.00" y1="608.00" x2="1200.00" y2="608.00" />
<line x1="1232.00" y1="608.00" x2="1264.00" y2="608.00" />
<line x1="64.00" y1="624.00" x2="112.00" y2="624.00" />
<line x1="288.00" y1="624.00" x2="336.00" y2="624.00" />
<line x1="352.00" y1="624.00" x2="400.00" y2="624.00" />
<line x1="448.00" y1="656.00" x2="464.00" y2="656.00" />
<line x1="480.00" y1="656.00" x2="560.00" y2="656.00" />
<line x1="704.00" y1="656.00" x2="976.00" y2="656.00" />
<line x1="1008.00" y1="656.00" x2="1120.00" y2="656.00" />
<line x1="1136.00" y1="656.00" x2="1168.00" y2="656.00" />
<line x1="448.00" y1="672.00" x2="464.00" y2="672.00" />
<line x1="480.00" y1="672.00" x2="976.00" y2="672.00" />
<line x1="1008.00" y1="672.00" x2="1120.00" y2="672.00" />
<line x1="1136.00" y1="672.00" x2="1168.00" y2="672.00" />
<line x1="864.00" y1="720.00" x2="944.00" y2="720.00" />
<line x1="1168.00" y1="720.00" x2="1200.00" y2="720.00" />
<line x1="1232.00" y1="720.00" x2="1264.00" y2="720.00" />
<line x1="560.00" y1="736.00" x2="688.00" y2="736.00" />
<line x1="848.00" y1="736.00" x2="864.00" y2="736.00" />
<line x1="944.00" y1="736.00" x2="960.00" y2="736.00" />
<line x1="96.00" y1="768.00" x2="112.00" y2="768.00" />
<line x1="128.00" y1="768.00" x2="144.00" y2="768.00" />
<line x1="160.00" y1="768.00" x2="256.00" y2="768.00" />
<line x1="288.00" y1="768.00" x2="400.00" y2="768.00" />
<line x1="832.00" y1="752.00" x2="848.00" y2="752.00" />
<line x1="960.00" y1="752.00" x2="976.00" y2="752.00" />
<line x1="256.00" y1="800.00" x2="432.00" y2="800.00" />
<line x1="448.00" y1="800.00" x2="464.00" y2="800.00" />
<line x1="480.00" y1="800.00" x2="560.00" y2="800.00" />
<line x1="688.00" y1="800.00" x2="832.00" y2="800.00" />
<line x1="1008.00" y1="800.00" x2="1120.00" y2="800.00" />
<line x1="1136.00" y1="800.00" x2="1200.00" y2="800.00" />
<line x1="1248.00" y1="800.00" x2="1312.00" y2="800.00" />
<line x1="1328.00" y1="800.00" x2="1392.00" y2="800.00" />
<line x1="256.00" y1="816.00" x2="432.00" y2="816.00" />
<line x1="448.00" y1="816.00" x2="464.00" y2="816.00" />
<line x1="480.00" y1="816.00" x2="560.00" y2="816.00" />
<line x1="688.00" y1="816.00" x2="720.00" y2="816.00" />
<line x1="736.00" y1="816.00" x2="832.00" y2="816.00" />
<line x1="1008.00" y1="816.00" x2="1120.00" y2="816.00" />
<line x1="1136.00" y1="816.00" x2="1200.00" y2="816.00" />
<line x1="1216.00" y1="816.00" x2="1232.00" y2="816.00" />
<line x1="96.00" y1="832.00" x2="112.00" y2="832.00" />
<line x1="128.00" y1="832.00" x2="144.00" y2="832.00" />
<line x1="160.00" y1="832.00" x2="256.00" y2="832.00" />
<line x1="560.00" y1="848.00" x2="624.00" y2="848.00" />
<line x1="640.00" y1="848.00" x2="688.00" y2="848.00" />
<line x1="832.00" y1="848.00" x2="848.00" y2="848.00" />
<line x1="960.00" y1="848.00" x2="976.00" y2="848.00" />
<line x1="128.00" y1="864.00" x2="144.00" y2="864.00" />
<line x1="160.00" y1="864.00" x2="432.00" y2="864.00" />
<line x1="448.00" y1="864.00" x2="464.00" y2="864.00" />
<line x1="480.00" y1="864.00" x2="624.00" y2="864.00" />
<line x1="640.00" y1="864.00" x2="720.00" y2="864.00" />
<line x1="736.00" y1="864.00" x2="848.00" y2="864.00" />
<line x1="960.00" y1="864.00" x2="976.00" y2="864.00" />
<line x1="1008.00" y1="864.00" x2="1120.00" y2="864.00" />
<line x1="1136.00" y1="864.00" x2="1200.00" y2="864.00" />
<line x1="1216.00" y1="864.00" x2="1248.00" y2="864.00" />
<line x1="128.00" y1="880.00" x2="144.00" y2="880.00" />
<line x1="160.00" y1="880.00" x2="432.00" y2="880.00" />
<line x1="448.00" y1="880.00" x2="464.00" y2="880.00" />
<line x1="480.00" y1="880.00" x2="528.00" y2="880.00" />
<line x1="640.00" y1="880.00" x2="720.00" y2="880.00" />
<line x1="736.00" y1="880.00" x2="896.00" y2="880.00" />
<line x1="912.00" y1="880.00" x2="944.00" y2="880.00" />
<line x1="960.00" y1="880.00" x2="976.00" y2="880.00" />
<line x1="1008.00" y1="880.00" x2="1120.00" y2="880.00" />
<line x1="1136.00" y1="880.00" x2="1200.00" y2="880.00" />
<line x1="1216.00" y1="880.00" x2="1248.00" y2="880.00" />
<line x1="512.00" y1="896.00" x2="528.00" y2="896.00" />
<line x1="496.00" y1="912.00" x2="512.00" y2="912.00" />
<line x1="640.00" y1="912.00" x2="656.00" y2="912.00" />
<line x1="656.00" y1="928.00" x2="720.00" y2="928.00" />
<line x1="736.00" y1="928.00" x2="896.00" y2="928.00" />
<line x1="1248.00" y1="928.00" x2="1392.00" y2="928.00" />
<line x1="128.00" y1="944.00" x2="144.00" y2="944.00" />
<line x1="160.00" y1="944.00" x2="192.00" y2="944.00" />
<line x1="656.00" y1="944.00" x2="720.00" y2="944.00" />
<line x1="736.00" y1="944.00" x2="912.00" y2="944.00" />
<line x1="496.00" y1="960.00" x2="512.00" y2="960.00" />
<line x1="640.00" y1="960.00" x2="656.00" y2="960.00" />
<line x1="192.00" y1="976.00" x2="432.00" y2="976.00" />
<line x1="448.00" y1="976.00" x2="464.00" y2="976.00" />
<line x1="480.00" y1="976.00" x2="512.00" y2="976.00" />
<line x1="640.00" y1="976.00" x2="720.00" y2="976.00" />
<line x1="736.00" y1="976.00" x2="864.00" y2="976.00" />
<line x1="192.00" y1="992.00" x2="432.00" y2="992.00" />
<line x1="448.00" y1="992.00" x2="464.00" y2="992.00" />
<line x1="480.00" y1="992.00" x2="624.00" y2="992.00" />
<line x1="640.00" y1="992.00" x2="720.00" y2="992.00" />
<line x1="736.00" y1="992.00" x2="848.00" y2="992.00" />
<line x1="128.00" y1="1024.00" x2="144.00" y2="1024.00" />
<line x1="160.00" y1="1024.00" x2="192.00" y2="1024.00" />
<line x1="688.00" y1="1056.00" x2="720.00" y2="1056.00" />
<line x1="736.00" y1="1056.00" x2="752.00" y2="1056.00" />
<line x1="352.00" y1="1072.00" x2="432.00" y2="1072.00" />
<line x1="448.00" y1="1072.00" x2="464.00" y2="1072.00" />
<line x1="480.00" y1="1072.00" x2="512.00" y2="1072.00" />
<line x1="816.00" y1="1072.00" x2="848.00" y2="1072.00" />
<line x1="864.00" y1="1072.00" x2="896.00" y2="1072.00" />
<line x1="1072.00" y1="1072.00" x2="1120.00" y2="1072.00" />
<line x1="1136.00" y1="1072.00" x2="1200.00" y2="1072.00" />
<line x1="800.00" y1="1088.00" x2="816.00" y2="1088.00" />
<line x1="896.00" y1="1088.00" x2="912.00" y2="1088.00" />
<line x1="48.00" y1="1104.00" x2="112.00" y2="1104.00" />
<line x1="128.00" y1="1104.00" x2="144.00" y2="1104.00" />
<line x1="160.00" y1="1104.00" x2="176.00" y2="1104.00" />
<line x1="608.00" y1="1104.00" x2="624.00" y2="1104.00" />
<line x1="640.00" y1="1104.00" x2="688.00" y2="1104.00" />
<line x1="752.00" y1="1104.00" x2="800.00" y2="1104.00" />
<line x1="912.00" y1="1104.00" x2="944.00" y2="1104.00" />
<line x1="960.00" y1="1104.00" x2="976.00" y2="1104.00" />
<line x1="1008.00" y1="1104.00" x2="1072.00" y2="1104.00" />
<line x1="640.00" y1="1120.00" x2="720.00" y2="1120.00" />
<line x1="736.00" y1="1120.00" x2="784.00" y2="1120.00" />
<line x1="928.00" y1="1120.00" x2="944.00" y2="1120.00" />
<line x1="960.00" y1="1120.00" x2="976.00" y2="1120.00" />
<line x1="1008.00" y1="1120.00" x2="1072.00" y2="1120.00" />
<line x1="1072.00" y1="1136.00" x2="1120.00" y2="1136.00" />
<line x1="1136.00" y1="1136.00" x2="1200.00" y2="1136.00" />
<line x1="176.00" y1="1152.00" x2="352.00" y2="1152.00" />
<line x1="512.00" y1="1152.00" x2="608.00" y2="1152.00" />
<line x1="640.00" y1="1152.00" x2="720.00" y2="1152.00" />
<line x1="736.00" y1="1152.00" x2="784.00" y2="1152.00" />
<line x1="928.00" y1="1152.00" x2="944.00" y2="1152.00" />
<line x1="960.00" y1="1152.00" x2="976.00" y2="1152.00" />
<line x1="1008.00" y1="1152.00" x2="1120.00" y2="1152.00" />
<line x1="176.00" y1="1168.00" x2="464.00" y2="1168.00" />
<line x1="480.00" y1="1168.00" x2="608.00" y2="1168.00" />
<line x1="640.00" y1="1168.00" x2="720.00" y2="1168.00" />
<line x1="736.00" y1="1168.00" x2="800.00" y2="1168.00" />
<line x1="912.00" y1="1168.00" x2="944.00" y2="1168.00" />
<line x1="960.00" y1="1168.00" x2="976.00" y2="1168.00" />
<line x1="1008.00" y1="1168.00" x2="1120.00" y2="1168.00" />
<line x1="800.00" y1="1184.00" x2="816.00" y2="1184.00" />
<line x1="896.00" y1="1184.00" x2="912.00" y2="1184.00" />
<line x1="816.00" y1="1200.00" x2="848.00" y2="1200.00" />
<line x1="864.00" y1="1200.00" x2="896.00" y2="1200.00" />
<line x1="48.00" y1="1216.00" x2="144.00" y2="1216.00" />
<line x1="160.00" y1="1216.00" x2="176.00" y2="1216.00" />
<line x1="848.00" y1="1216.00" x2="864.00" y2="1216.00" />
<line x1="1296.00" y1="1216.00" x2="1392.00" y2="1216.00" />
<line x1="960.00" y1="1264.00" x2="976.00" y2="1264.00" />
<line x1="1008.00" y1="1264.00" x2="1120.00" y2="1264.00" />
<line x1="1136.00" y1="1264.00" x2="1200.00" y2="1264.00" />
<line x1="1216.00" y1="1264.00" x2="1296.00" y2="1264.00" />
<line x1="400.00" y1="1280.00" x2="464.00" y2="1280.00" />
<line x1="480.00" y1="1280.00" x2="528.00" y2="1280.00" />
<line x1="960.00" y1="1280.00" x2="976.00" y2="1280.00" />
<line x1="1008.00" y1="1280.00" x2="1056.00" y2="1280.00" />
<line x1="1184.00" y1="1280.00" x2="1200.00" y2="1280.00" />
<line x1="1216.00" y1="1280.00" x2="1296.00" y2="1280.00" />
<line x1="576.00" y1="1296.00" x2="608.00" y2="1296.00" />
<line x1="864.00" y1="1296.00" x2="944.00" y2="1296.00" />
<line x1="960.00" y1="1296.00" x2="976.00" y2="1296.00" />
<line x1="1008.00" y1="1296.00" x2="1024.00" y2="1296.00" />
<line x1="560.00" y1="1312.00" x2="576.00" y2="1312.00" />
<line x1="640.00" y1="1312.00" x2="656.00" y2="1312.00" />
<line x1="544.00" y1="1328.00" x2="560.00" y2="1328.00" />
<line x1="656.00" y1="1328.00" x2="720.00" y2="1328.00" />
<line x1="736.00" y1="1328.00" x2="864.00" y2="1328.00" />
<line x1="1024.00" y1="1328.00" x2="1056.00" y2="1328.00" />
<line x1="1296.00" y1="1328.00" x2="1392.00" y2="1328.00" />
<line x1="672.00" y1="1344.00" x2="720.00" y2="1344.00" />
<line x1="736.00" y1="1344.00" x2="864.00" y2="1344.00" />
<line x1="1024.00" y1="1344.00" x2="1056.00" y2="1344.00" />
<line x1="112.00" y1="1376.00" x2="144.00" y2="1376.00" />
<line x1="160.00" y1="1376.00" x2="192.00" y2="1376.00" />
<line x1="864.00" y1="1376.00" x2="976.00" y2="1376.00" />
<line x1="1008.00" y1="1376.00" x2="1024.00" y2="1376.00" />
<line x1="1216.00" y1="1376.00" x2="1296.00" y2="1376.00" />
<line x1="544.00" y1="1392.00" x2="560.00" y2="1392.00" />
<line x1="656.00" y1="1392.00" x2="672.00" y2="1392.00" />
<line x1="1056.00" y1="1392.00" x2="1184.00" y2="1392.00" />
<line x1="560.00" y1="1408.00" x2="576.00" y2="1408.00" />
<line x1="640.00" y1="1408.00" x2="656.00" y2="1408.00" />
<line x1="192.00" y1="1424.00" x2="400.00" y2="1424.00" />
<line x1="528.00" y1="1424.00" x2="576.00" y2="1424.00" />
<line x1="640.00" y1="1424.00" x2="720.00" y2="1424.00" />
<line x1="736.00" y1="1424.00" x2="976.00" y2="1424.00" />
<line x1="1008.00" y1="1424.00" x2="1200.00" y2="1424.00" />
<line x1="192.00" y1="1440.00" x2="1200.00" y2="1440.00" />
<line x1="112.00" y1="1488.00" x2="192.00" y2="1488.00" />
<line x1="1200.00" y1="1488.00" x2="1296.00" y2="1488.00" />
<line x1="672.00" y1="32.00" x2="672.00" y2="80.00" />
<line x1="672.00" y1="112.00" x2="672.00" y2="128.00" />
<line x1="672.00" y1="240.00" x2="672.00" y2="288.00" />
<line x1="672.00" y1="304.00" x2="672.00" y2="384.00" />
<line x1="672.00" y1="1344.00" x2="672.00" y2="1392.00" />
<line x1="816.00" y1="32.00" x2="816.00" y2="96.00" />
<line x1="816.00" y1="112.00" x2="816.00" y2="128.00" />
<line x1="816.00" y1="1072.00" x2="816.00" y2="1088.00" />
<line x1="816.00" y1="1184.00" x2="816.00" y2="1200.00" />
<line x1="528.00" y1="48.00" x2="528.00" y2="80.00" />
<line x1="528.00" y1="112.00" x2="528.00" y2="176.00" />
<line x1="528.00" y1="192.00" x2="528.00" y2="224.00" />
<line x1="528.00" y1="880.00" x2="528.00" y2="896.00" />
<line x1="528.00" y1="1280.00" x2="528.00" y2="1424.00" />
<line x1="608.00" y1="48.00" x2="608.00" y2="80.00" />
<line x1="608.00" y1="112.00" x2="608.00" y2="160.00" />
<line x1="608.00" y1="224.00" x2="608.00" y2="384.00" />
<line x1="608.00" y1="1104.00" x2="608.00" y2="1152.00" />
<line x1="608.00" y1="1168.00" x2="608.00" y2="1296.00" />
<line x1="112.00" y1="80.00" x2="112.00" y2="176.00" />
<line x1="112.00" y1="624.00" x2="112.00" y2="768.00" />
<line x1="112.00" y1="832.00" x2="112.00" y2="1104.00" />
<line x1="112.00" y1="1376.00" x2="112.00" y2="1488.00" />
<line x1="1376.00" y1="96.00" x2="1376.00" y2="208.00" />
<line x1="128.00" y1="112.00" x2="128.00" y2="176.00" />
<line x1="128.00" y1="192.00" x2="128.00" y2="304.00" />
<line x1="128.00" y1="320.00" x2="128.00" y2="496.00" />
<line x1="128.00" y1="608.00" x2="128.00" y2="768.00" />
<line x1="128.00" y1="832.00" x2="128.00" y2="864.00" />
<line x1="128.00" y1="880.00" x2="128.00" y2="944.00" />
<line x1="128.00" y1="1024.00" x2="128.00" y2="1104.00" />
<line x1="176.00" y1="112.00" x2="176.00" y2="176.00" />
<line x1="176.00" y1="192.00" x2="176.00" y2="240.00" />
<line x1="176.00" y1="1104.00" x2="176.00" y2="1152.00" />
<line x1="176.00" y1="1168.00" x2="176.00" y2="1216.00" />
<line x1="288.00" y1="112.00" x2="288.00" y2="176.00" />
<line x1="288.00" y1="192.00" x2="288.00" y2="304.00" />
<line x1="288.00" y1="320.00" x2="288.00" y2="416.00" />
<line x1="288.00" y1="624.00" x2="288.00" y2="768.00" />
<line x1="336.00" y1="112.00" x2="336.00" y2="176.00" />
<line x1="336.00" y1="192.00" x2="336.00" y2="304.00" />
<line x1="336.00" y1="320.00" x2="336.00" y2="416.00" />
<line x1="336.00" y1="480.00" x2="336.00" y2="560.00" />
<line x1="336.00" y1="576.00" x2="336.00" y2="624.00" />
<line x1="352.00" y1="112.00" x2="352.00" y2="176.00" />
<line x1="352.00" y1="192.00" x2="352.00" y2="304.00" />
<line x1="352.00" y1="320.00" x2="352.00" y2="448.00" />
<line x1="352.00" y1="464.00" x2="352.00" y2="560.00" />
<line x1="352.00" y1="576.00" x2="352.00" y2="624.00" />
<line x1="352.00" y1="1072.00" x2="352.00" y2="1152.00" />
<line x1="912.00" y1="112.00" x2="912.00" y2="144.00" />
<line x1="912.00" y1="160.00" x2="912.00" y2="176.00" />
<line x1="912.00" y1="192.00" x2="912.00" y2="256.00" />
<line x1="912.00" y1="352.00" x2="912.00" y2="416.00" />
<line x1="912.00" y1="432.00" x2="912.00" y2="480.00" />
<line x1="912.00" y1="512.00" x2="912.00" y2="608.00" />
<line x1="912.00" y1="880.00" x2="912.00" y2="944.00" />
<line x1="912.00" y1="1088.00" x2="912.00" y2="1104.00" />
<line x1="912.00" y1="1168.00" x2="912.00" y2="1184.00" />
<line x1="928.00" y1="112.00" x2="928.00" y2="144.00" />
<line x1="928.00" y1="160.00" x2="928.00" y2="176.00" />
<line x1="928.00" y1="192.00" x2="928.00" y2="256.00" />
<line x1="928.00" y1="1120.00" x2="928.00" y2="1152.00" />
<line x1="1296.00" y1="112.00" x2="1296.00" y2="144.00" />
<line x1="1296.00" y1="160.00" x2="1296.00" y2="208.00" />
<line x1="1296.00" y1="1216.00" x2="1296.00" y2="1264.00" />
<line x1="1296.00" y1="1280.00" x2="1296.00" y2="1328.00" />
<line x1="1296.00" y1="1376.00" x2="1296.00" y2="1488.00" />
<line x1="736.00" y1="128.00" x2="736.00" y2="144.00" />
<line x1="736.00" y1="384.00" x2="736.00" y2="416.00" />
<line x1="736.00" y1="432.00" x2="736.00" y2="448.00" />
<line x1="736.00" y1="816.00" x2="736.00" y2="864.00" />
<line x1="736.00" y1="880.00" x2="736.00" y2="928.00" />
<line x1="736.00" y1="944.00" x2="736.00" y2="976.00" />
<line x1="736.00" y1="992.00" x2="736.00" y2="1056.00" />
<line x1="736.00" y1="1120.00" x2="736.00" y2="1152.00" />
<line x1="736.00" y1="1168.00" x2="736.00" y2="1328.00" />
<line x1="736.00" y1="1344.00" x2="736.00" y2="1424.00" />
<line x1="752.00" y1="128.00" x2="752.00" y2="144.00" />
<line x1="752.00" y1="160.00" x2="752.00" y2="176.00" />
<line x1="752.00" y1="192.00" x2="752.00" y2="240.00" />
<line x1="752.00" y1="384.00" x2="752.00" y2="416.00" />
<line x1="752.00" y1="432.00" x2="752.00" y2="464.00" />
<line x1="752.00" y1="1056.00" x2="752.00" y2="1104.00" />
<line x1="720.00" y1="144.00" x2="720.00" y2="176.00" />
<line x1="720.00" y1="192.00" x2="720.00" y2="240.00" />
<line x1="720.00" y1="816.00" x2="720.00" y2="864.00" />
<line x1="720.00" y1="880.00" x2="720.00" y2="928.00" />
<line x1="720.00" y1="944.00" x2="720.00" y2="976.00" />
<line x1="720.00" y1="992.00" x2="720.00" y2="1056.00" />
<line x1="720.00" y1="1120.00" x2="720.00" y2="1152.00" />
<line x1="720.00" y1="1168.00" x2="720.00" y2="1328.00" />
<line x1="720.00" y1="1344.00" x2="720.00" y2="1424.00" />
<line x1="544.00" y1="160.00" x2="544.00" y2="176.00" />
<line x1="544.00" y1="192.00" x2="544.00" y2="224.00" />
<line x1="544.00" y1="1328.00" x2="544.00" y2="1392.00" />
<line x1="560.00" y1="160.00" x2="560.00" y2="176.00" />
<line x1="560.00" y1="192.00" x2="560.00" y2="224.00" />
<line x1="560.00" y1="384.00" x2="560.00" y2="432.00" />
<line x1="560.00" y1="528.00" x2="560.00" y2="560.00" />
<line x1="560.00" y1="576.00" x2="560.00" y2="656.00" />
<line x1="560.00" y1="736.00" x2="560.00" y2="800.00" />
<line x1="560.00" y1="816.00" x2="560.00" y2="848.00" />
<line x1="560.00" y1="1312.00" x2="560.00" y2="1328.00" />
<line x1="560.00" y1="1392.00" x2="560.00" y2="1408.00" />
<line x1="576.00" y1="160.00" x2="576.00" y2="176.00" />
<line x1="576.00" y1="192.00" x2="576.00" y2="224.00" />
<line x1="576.00" y1="384.00" x2="576.00" y2="416.00" />
<line x1="576.00" y1="1296.00" x2="576.00" y2="1312.00" />
<line x1="576.00" y1="1408.00" x2="576.00" y2="1424.00" />
<line x1="944.00" y1="160.00" x2="944.00" y2="176.00" />
<line x1="944.00" y1="192.00" x2="944.00" y2="224.00" />
<line x1="944.00" y1="720.00" x2="944.00" y2="736.00" />
<line x1="944.00" y1="880.00" x2="944.00" y2="1104.00" />
<line x1="944.00" y1="1120.00" x2="944.00" y2="1152.00" />
<line x1="944.00" y1="1168.00" x2="944.00" y2="1296.00" />
<line x1="1008.00" y1="160.00" x2="1008.00" y2="272.00" />
<line x1="1008.00" y1="288.00" x2="1008.00" y2="352.00" />
<line x1="1008.00" y1="480.00" x2="1008.00" y2="656.00" />
<line x1="1008.00" y1="672.00" x2="1008.00" y2="800.00" />
<line x1="1008.00" y1="816.00" x2="1008.00" y2="864.00" />
<line x1="1008.00" y1="880.00" x2="1008.00" y2="1104.00" />
<line x1="1008.00" y1="1120.00" x2="1008.00" y2="1152.00" />
<line x1="1008.00" y1="1168.00" x2="1008.00" y2="1264.00" />
<line x1="1008.00" y1="1280.00" x2="1008.00" y2="1296.00" />
<line x1="1008.00" y1="1376.00" x2="1008.00" y2="1424.00" />
<line x1="1120.00" y1="160.00" x2="1120.00" y2="272.00" />
<line x1="1120.00" y1="288.00" x2="1120.00" y2="416.00" />
<line x1="1120.00" y1="432.00" x2="1120.00" y2="656.00" />
<line x1="1120.00" y1="672.00" x2="1120.00" y2="800.00" />
<line x1="1120.00" y1="816.00" x2="1120.00" y2="864.00" />
<line x1="1120.00" y1="880.00" x2="1120.00" y2="1072.00" />
<line x1="1120.00" y1="1136.00" x2="1120.00" y2="1152.00" />
<line x1="1120.00" y1="1168.00" x2="1120.00" y2="1264.00" />
<line x1="1136.00" y1="160.00" x2="1136.00" y2="272.00" />
<line x1="1136.00" y1="288.00" x2="1136.00" y2="416.00" />
<line x1="1136.00" y1="432.00" x2="1136.00" y2="656.00" />
<line x1="1136.00" y1="672.00" x2="1136.00" y2="800.00" />
<line x1="1136.00" y1="816.00" x2="1136.00" y2="864.00" />
<line x1="1136.00" y1="880.00" x2="1136.00" y2="1072.00" />
<line x1="1136.00" y1="1136.00" x2="1136.00" y2="1264.00" />
<line x1="96.00" y1="176.00" x2="96.00" y2="480.00" />
<line x1="96.00" y1="768.00" x2="96.00" y2="832.00" />
<line x1="432.00" y1="192.00" x2="432.00" y2="304.00" />
<line x1="432.00" y1="320.00" x2="432.00" y2="448.00" />
<line x1="432.00" y1="464.00" x2="432.00" y2="560.00" />
<line x1="432.00" y1="576.00" x2="432.00" y2="800.00" />
<line x1="432.00" y1="816.00" x2="432.00" y2="864.00" />
<line x1="432.00" y1="880.00" x2="432.00" y2="976.00" />
<line x1="432.00" y1="992.00" x2="432.00" y2="1072.00" />
<line x1="448.00" y1="192.00" x2="448.00" y2="224.00" />
<line x1="448.00" y1="384.00" x2="448.00" y2="448.00" />
<line x1="448.00" y1="464.00" x2="448.00" y2="560.00" />
<line x1="448.00" y1="576.00" x2="448.00" y2="656.00" />
<line x1="448.00" y1="672.00" x2="448.00" y2="800.00" />
<line x1="448.00" y1="816.00" x2="448.00" y2="864.00" />
<line x1="448.00" y1="880.00" x2="448.00" y2="976.00" />
<line x1="448.00" y1="992.00" x2="448.00" y2="1072.00" />
<line x1="464.00" y1="192.00" x2="464.00" y2="224.00" />
<line x1="464.00" y1="384.00" x2="464.00" y2="448.00" />
<line x1="464.00" y1="464.00" x2="464.00" y2="560.00" />
<line x1="464.00" y1="576.00" x2="464.00" y2="656.00" />
<line x1="464.00" y1="672.00" x2="464.00" y2="800.00" />
<line x1="464.00" y1="816.00" x2="464.00" y2="864.00" />
<line x1="464.00" y1="880.00" x2="464.00" y2="976.00" />
<line x1="464.00" y1="992.00" x2="464.00" y2="1072.00" />
<line x1="464.00" y1="1168.00" x2="464.00" y2="1280.00" />
<line x1="480.00" y1="192.00" x2="480.00" y2="224.00" />
<line x1="480.00" y1="384.00" x2="480.00" y2="448.00" />
<line x1="480.00" y1="464.00" x2="480.00" y2="560.00" />
<line x1="480.00" y1="576.00" x2="480.00" y2="656.00" />
<line x1="480.00" y1="672.00" x2="480.00" y2="800.00" />
<line x1="480.00" y1="816.00" x2="480.00" y2="864.00" />
<line x1="480.00" y1="880.00" x2="480.00" y2="976.00" />
<line x1="480.00" y1="992.00" x2="480.00" y2="1072.00" />
<line x1="480.00" y1="1168.00" x2="480.00" y2="1280.00" />
<line x1="1168.00" y1="208.00" x2="1168.00" y2="272.00" />
<line x1="1168.00" y1="288.00" x2="1168.00" y2="352.00" />
<line x1="1168.00" y1="608.00" x2="1168.00" y2="656.00" />
<line x1="1168.00" y1="672.00" x2="1168.00" y2="720.00" />
<line x1="1232.00" y1="208.00" x2="1232.00" y2="416.00" />
<line x1="1232.00" y1="432.00" x2="1232.00" y2="608.00" />
<line x1="1232.00" y1="720.00" x2="1232.00" y2="816.00" />
<line x1="1312.00" y1="208.00" x2="1312.00" y2="416.00" />
<line x1="1312.00" y1="432.00" x2="1312.00" y2="800.00" />
<line x1="1344.00" y1="208.00" x2="1344.00" y2="432.00" />
<line x1="976.00" y1="224.00" x2="976.00" y2="352.00" />
<line x1="976.00" y1="480.00" x2="976.00" y2="656.00" />
<line x1="976.00" y1="672.00" x2="976.00" y2="752.00" />
<line x1="976.00" y1="848.00" x2="976.00" y2="864.00" />
<line x1="976.00" y1="880.00" x2="976.00" y2="1104.00" />
<line x1="976.00" y1="1120.00" x2="976.00" y2="1152.00" />
<line x1="976.00" y1="1168.00" x2="976.00" y2="1264.00" />
<line x1="976.00" y1="1280.00" x2="976.00" y2="1296.00" />
<line x1="976.00" y1="1376.00" x2="976.00" y2="1424.00" />
<line x1="192.00" y1="240.00" x2="192.00" y2="256.00" />
<line x1="192.00" y1="944.00" x2="192.00" y2="976.00" />
<line x1="192.00" y1="992.00" x2="192.00" y2="1024.00" />
<line x1="192.00" y1="1376.00" x2="192.00" y2="1424.00" />
<line x1="192.00" y1="1440.00" x2="192.00" y2="1488.00" />
<line x1="784.00" y1="240.00" x2="784.00" y2="288.00" />
<line x1="784.00" y1="304.00" x2="784.00" y2="384.00" />
<line x1="784.00" y1="1120.00" x2="784.00" y2="1152.00" />
<line x1="272.00" y1="256.00" x2="272.00" y2="304.00" />
<line x1="272.00" y1="320.00" x2="272.00" y2="416.00" />
<line x1="864.00" y1="256.00" x2="864.00" y2="288.00" />
<line x1="864.00" y1="304.00" x2="864.00" y2="320.00" />
<line x1="864.00" y1="720.00" x2="864.00" y2="736.00" />
<line x1="864.00" y1="976.00" x2="864.00" y2="1072.00" />
<line x1="864.00" y1="1200.00" x2="864.00" y2="1216.00" />
<line x1="864.00" y1="1296.00" x2="864.00" y2="1328.00" />
<line x1="864.00" y1="1344.00" x2="864.00" y2="1376.00" />
<line x1="960.00" y1="256.00" x2="960.00" y2="320.00" />
<line x1="960.00" y1="736.00" x2="960.00" y2="752.00" />
<line x1="960.00" y1="848.00" x2="960.00" y2="864.00" />
<line x1="960.00" y1="880.00" x2="960.00" y2="1104.00" />
<line x1="960.00" y1="1120.00" x2="960.00" y2="1152.00" />
<line x1="960.00" y1="1168.00" x2="960.00" y2="1264.00" />
<line x1="960.00" y1="1280.00" x2="960.00" y2="1296.00" />
<line x1="624.00" y1="288.00" x2="624.00" y2="416.00" />
<line x1="624.00" y1="432.00" x2="624.00" y2="448.00" />
<line x1="624.00" y1="464.00" x2="624.00" y2="528.00" />
<line x1="624.00" y1="848.00" x2="624.00" y2="864.00" />
<line x1="624.00" y1="992.00" x2="624.00" y2="1104.00" />
<line x1="640.00" y1="304.00" x2="640.00" y2="416.00" />
<line x1="640.00" y1="432.00" x2="640.00" y2="448.00" />
<line x1="640.00" y1="464.00" x2="640.00" y2="528.00" />
<line x1="640.00" y1="848.00" x2="640.00" y2="864.00" />
<line x1="640.00" y1="880.00" x2="640.00" y2="912.00" />
<line x1="640.00" y1="960.00" x2="640.00" y2="976.00" />
<line x1="640.00" y1="992.00" x2="640.00" y2="1104.00" />
<line x1="640.00" y1="1120.00" x2="640.00" y2="1152.00" />
<line x1="640.00" y1="1168.00" x2="640.00" y2="1312.00" />
<line x1="640.00" y1="1408.00" x2="640.00" y2="1424.00" />
<line x1="1072.00" y1="352.00" x2="1072.00" y2="416.00" />
<line x1="1072.00" y1="432.00" x2="1072.00" y2="480.00" />
<line x1="1072.00" y1="1072.00" x2="1072.00" y2="1104.00" />
<line x1="1072.00" y1="1120.00" x2="1072.00" y2="1136.00" />
<line x1="1200.00" y1="352.00" x2="1200.00" y2="416.00" />
<line x1="1200.00" y1="432.00" x2="1200.00" y2="608.00" />
<line x1="1200.00" y1="720.00" x2="1200.00" y2="800.00" />
<line x1="1200.00" y1="816.00" x2="1200.00" y2="864.00" />
<line x1="1200.00" y1="880.00" x2="1200.00" y2="1072.00" />
<line x1="1200.00" y1="1136.00" x2="1200.00" y2="1264.00" />
<line x1="1200.00" y1="1280.00" x2="1200.00" y2="1424.00" />
<line x1="1200.00" y1="1440.00" x2="1200.00" y2="1488.00" />
<line x1="208.00" y1="416.00" x2="208.00" y2="480.00" />
<line x1="1328.00" y1="432.00" x2="1328.00" y2="800.00" />
<line x1="64.00" y1="480.00" x2="64.00" y2="496.00" />
<line x1="64.00" y1="608.00" x2="64.00" y2="624.00" />
<line x1="48.00" y1="496.00" x2="48.00" y2="512.00" />
<line x1="48.00" y1="592.00" x2="48.00" y2="608.00" />
<line x1="48.00" y1="1104.00" x2="48.00" y2="1216.00" />
<line x1="144.00" y1="496.00" x2="144.00" y2="512.00" />
<line x1="144.00" y1="608.00" x2="144.00" y2="768.00" />
<line x1="144.00" y1="832.00" x2="144.00" y2="864.00" />
<line x1="144.00" y1="880.00" x2="144.00" y2="944.00" />
<line x1="144.00" y1="1024.00" x2="144.00" y2="1104.00" />
<line x1="144.00" y1="1216.00" x2="144.00" y2="1376.00" />
<line x1="32.00" y1="512.00" x2="32.00" y2="592.00" />
<line x1="160.00" y1="512.00" x2="160.00" y2="560.00" />
<line x1="160.00" y1="576.00" x2="160.00" y2="768.00" />
<line x1="160.00" y1="832.00" x2="160.00" y2="864.00" />
<line x1="160.00" y1="880.00" x2="160.00" y2="944.00" />
<line x1="160.00" y1="1024.00" x2="160.00" y2="1104.00" />
<line x1="160.00" y1="1216.00" x2="160.00" y2="1376.00" />
<line x1="848.00" y1="512.00" x2="848.00" y2="560.00" />
<line x1="848.00" y1="576.00" x2="848.00" y2="608.00" />
<line x1="848.00" y1="736.00" x2="848.00" y2="752.00" />
<line x1="848.00" y1="848.00" x2="848.00" y2="864.00" />
<line x1="848.00" y1="992.00" x2="848.00" y2="1072.00" />
<line x1="848.00" y1="1200.00" x2="848.00" y2="1216.00" />
<line x1="704.00" y1="528.00" x2="704.00" y2="560.00" />
<line x1="704.00" y1="576.00" x2="704.00" y2="656.00" />
<line x1="1264.00" y1="608.00" x2="1264.00" y2="720.00" />
<line x1="400.00" y1="624.00" x2="400.00" y2="768.00" />
<line x1="400.00" y1="1280.00" x2="400.00" y2="1424.00" />
<line x1="688.00" y1="736.00" x2="688.00" y2="800.00" />
<line x1="688.00" y1="816.00" x2="688.00" y2="848.00" />
<line x1="688.00" y1="1056.00" x2="688.00" y2="1104.00" />
<line x1="832.00" y1="752.00" x2="832.00" y2="800.00" />
<line x1="832.00" y1="816.00" x2="832.00" y2="848.00" />
<line x1="256.00" y1="768.00" x2="256.00" y2="800.00" />
<line x1="256.00" y1="816.00" x2="256.00" y2="832.00" />
<line x1="1248.00" y1="800.00" x2="1248.00" y2="864.00" />
<line x1="1248.00" y1="880.00" x2="1248.00" y2="928.00" />
<line x1="1392.00" y1="800.00" x2="1392.00" y2="928.00" />
<line x1="1392.00" y1="1216.00" x2="1392.00" y2="1328.00" />
<line x1="1216.00" y1="816.00" x2="1216.00" y2="864.00" />
<line x1="1216.00" y1="880.00" x2="1216.00" y2="1264.00" />
<line x1="1216.00" y1="1280.00" x2="1216.00" y2="1376.00" />
<line x1="896.00" y1="880.00" x2="896.00" y2="928.00" />
<line x1="896.00" y1="1072.00" x2="896.00" y2="1088.00" />
<line x1="896.00" y1="1184.00" x2="896.00" y2="1200.00" />
<line x1="512.00" y1="896.00" x2="512.00" y2="912.00" />
<line x1="512.00" y1="960.00" x2="512.00" y2="976.00" />
<line x1="512.00" y1="1072.00" x2="512.00" y2="1152.00" />
<line x1="496.00" y1="912.00" x2="496.00" y2="960.00" />
<line x1="656.00" y1="912.00" x2="656.00" y2="928.00" />
<line x1="656.00" y1="944.00" x2="656.00" y2="960.00" />
<line x1="656.00" y1="1312.00" x2="656.00" y2="1328.00" />
<line x1="656.00" y1="1392.00" x2="656.00" y2="1408.00" />
<line x1="800.00" y1="1088.00" x2="800.00" y2="1104.00" />
<line x1="800.00" y1="1168.00" x2="800.00" y2="1184.00" />
<line x1="1056.00" y1="1280.00" x2="1056.00" y2="1328.00" />
<line x1="1056.00" y1="1344.00" x2="1056.00" y2="1392.00" />
<line x1="1184.00" y1="1280.00" x2="1184.00" y2="1392.00" />
<line x1="1024.00" y1="1296.00" x2="1024.00" y2="1328.00" />
<line x1="1024.00" y1="1344.00" x2="1024.00" y2="1376.00" />
  </g>
  <g class="features">
<g data-feature-type="stairsDown"><line data-feature-type="stairsDown" x1="530.24" y1="291.36" x2="541.76" y2="291.36" /><line x1="530.65" y1="293.68" x2="541.35" y2="293.68" /><line x1="531.07" y1="296.00" x2="540.93" y2="296.00" /><line x1="531.48" y1="298.32" x2="540.52" y2="298.32" /><line x1="531.90" y1="300.64" x2="540.10" y2="300.64" /></g>
<g data-feature-type="stairsUp"><line data-feature-type="stairsUp" x1="931.90" y1="803.36" x2="940.10" y2="803.36" /><line x1="931.48" y1="805.68" x2="940.52" y2="805.68" /><line x1="931.07" y1="808.00" x2="940.93" y2="808.00" /><line x1="930.65" y1="810.32" x2="941.35" y2="810.32" /><line x1="930.24" y1="812.64" x2="941.76" y2="812.64" /></g>
<g data-feature-type="trap"><rect x="1204.64" y="244.64" width="6.72" height="6.72" fill="none" /><line x1="1204.64" y1="244.64" x2="1211.36" y2="251.36" /><line x1="1204.64" y1="251.36" x2="1211.36" y2="244.64" /></g>
<path data-feature-type="curtain" d="M 1190.40 275.84 Q 1192.00 278.34 1190.40 280.00 Q 1192.00 281.66 1190.40 284.16" fill="none" /><path d="M 1193.60 275.84 Q 1192.00 278.34 1193.60 280.00 Q 1192.00 281.66 1193.60 284.16" fill="none" />
<circle data-feature-type="pillar" cx="1016.00" cy="408.00" r="3.68" fill="#4f89a8" stroke="none" />
<circle data-feature-type="pillar" cx="968.00" cy="440.00" r="3.68" fill="#4f89a8" stroke="none" />
<circle data-feature-type="pillar" cx="1032.00" cy="440.00" r="3.68" fill="#4f89a8" stroke="none" />
<g data-feature-type="trap"><rect x="980.64" y="388.64" width="6.72" height="6.72" fill="none" /><line x1="980.64" y1="388.64" x2="987.36" y2="395.36" /><line x1="980.64" y1="395.36" x2="987.36" y2="388.64" /></g>
<circle data-feature-type="pillar" cx="1240.00" cy="664.00" r="3.68" fill="#4f89a8" stroke="none" />
<g data-feature-type="statue"><circle cx="1224.00" cy="1432.00" r="3.52" fill="none" /><line x1="1221.76" y1="1432.00" x2="1226.24" y2="1432.00" /><line x1="1224.00" y1="1429.76" x2="1224.00" y2="1434.24" /><line x1="1222.39" y1="1430.39" x2="1225.61" y2="1433.61" /><line x1="1222.39" y1="1433.61" x2="1225.61" y2="1430.39" /></g>
<g data-feature-type="trap"><rect x="1220.64" y="1460.64" width="6.72" height="6.72" fill="none" /><line x1="1220.64" y1="1460.64" x2="1227.36" y2="1467.36" /><line x1="1220.64" y1="1467.36" x2="1227.36" y2="1460.64" /></g>
<circle data-feature-type="pillar" cx="264.00" cy="184.00" r="3.68" fill="#4f89a8" stroke="none" />
<circle data-feature-type="pillar" cx="248.00" cy="184.00" r="3.68" fill="#4f89a8" stroke="none" />
<circle data-feature-type="pillar" cx="1336.00" cy="872.00" r="3.68" fill="#4f89a8" stroke="none" />
<circle data-feature-type="pillar" cx="360.00" cy="696.00" r="3.68" fill="#4f89a8" stroke="none" />
<circle data-feature-type="pillar" cx="328.00" cy="696.00" r="3.68" fill="#4f89a8" stroke="none" />
<g data-feature-type="trap"><rect x="356.64" y="724.64" width="6.72" height="6.72" fill="none" /><line x1="356.64" y1="724.64" x2="363.36" y2="731.36" /><line x1="356.64" y1="731.36" x2="363.36" y2="724.64" /></g>
<g data-feature-type="trap"><rect x="228.64" y="452.64" width="6.72" height="6.72" fill="none" /><line x1="228.64" y1="452.64" x2="235.36" y2="459.36" /><line x1="228.64" y1="459.36" x2="235.36" y2="452.64" /></g>
<g data-feature-type="coffin"><rect x="325.60" y="452.32" width="4.80" height="7.36" rx="0.80" ry="0.80" fill="none" /><line x1="328.00" y1="453.94" x2="328.00" y2="458.06" /></g>
<circle data-feature-type="pillar" cx="920.00" cy="824.00" r="3.68" fill="#4f89a8" stroke="none" />
<circle data-feature-type="pillar" cx="888.00" cy="792.00" r="3.68" fill="#4f89a8" stroke="none" />
<circle data-feature-type="pillar" cx="872.00" cy="824.00" r="3.68" fill="#4f89a8" stroke="none" />
<g data-feature-type="statue"><circle cx="872.00" cy="808.00" r="3.52" fill="none" /><line x1="869.76" y1="808.00" x2="874.24" y2="808.00" /><line x1="872.00" y1="805.76" x2="872.00" y2="810.24" /><line x1="870.39" y1="806.39" x2="873.61" y2="809.61" /><line x1="870.39" y1="809.61" x2="873.61" y2="806.39" /></g>
<g data-feature-type="statue"><circle cx="152.00" cy="1128.00" r="3.52" fill="none" /><line x1="149.76" y1="1128.00" x2="154.24" y2="1128.00" /><line x1="152.00" y1="1125.76" x2="152.00" y2="1130.24" /><line x1="150.39" y1="1126.39" x2="153.61" y2="1129.61" /><line x1="150.39" y1="1129.61" x2="153.61" y2="1126.39" /></g>
<circle data-feature-type="pillar" cx="440.00" cy="1096.00" r="3.68" fill="#4f89a8" stroke="none" />
<circle data-feature-type="pillar" cx="440.00" cy="1144.00" r="3.68" fill="#4f89a8" stroke="none" />
<circle data-feature-type="pillar" cx="904.00" cy="568.00" r="3.68" fill="#4f89a8" stroke="none" />
<circle data-feature-type="pillar" cx="200.00" cy="808.00" r="3.68" fill="#4f89a8" stroke="none" />
<g data-feature-type="trap"><rect x="1108.64" y="1316.64" width="6.72" height="6.72" fill="none" /><line x1="1108.64" y1="1316.64" x2="1115.36" y2="1323.36" /><line x1="1108.64" y1="1323.36" x2="1115.36" y2="1316.64" /></g>
<g data-feature-type="chest"><rect x="1077.28" y="1302.24" width="5.44" height="3.52" fill="none" /><line x1="1077.28" y1="1304.00" x2="1082.72" y2="1304.00" /><circle cx="1080.00" cy="1304.18" r="0.70" fill="#4f89a8" stroke="none" /></g>
<circle data-feature-type="pillar" cx="1352.00" cy="152.00" r="3.68" fill="#4f89a8" stroke="none" />
<g data-feature-type="statue"><circle cx="1352.00" cy="120.00" r="3.52" fill="none" /><line x1="1349.76" y1="120.00" x2="1354.24" y2="120.00" /><line x1="1352.00" y1="117.76" x2="1352.00" y2="122.24" /><line x1="1350.39" y1="118.39" x2="1353.61" y2="121.61" /><line x1="1350.39" y1="121.61" x2="1353.61" y2="118.39" /></g>
<circle data-feature-type="pillar" cx="632.00" cy="1368.00" r="3.68" fill="#4f89a8" stroke="none" />
<circle data-feature-type="pillar" cx="584.00" cy="1368.00" r="3.68" fill="#4f89a8" stroke="none" />
<g data-feature-type="well"><circle cx="648.00" cy="1320.00" r="4.00" fill="none" /><circle cx="648.00" cy="1320.00" r="2.24" fill="none" /></g>
<circle data-feature-type="pillar" cx="1160.00" cy="1112.00" r="3.68" fill="#4f89a8" stroke="none" />
<circle data-feature-type="pillar" cx="504.00" cy="328.00" r="3.68" fill="#4f89a8" stroke="none" />
<circle data-feature-type="pillar" cx="504.00" cy="296.00" r="3.68" fill="#4f89a8" stroke="none" />
<circle data-feature-type="pillar" cx="520.00" cy="328.00" r="3.68" fill="#4f89a8" stroke="none" />
<g data-feature-type="chest"><rect x="581.28" y="358.24" width="5.44" height="3.52" fill="none" /><line x1="581.28" y1="360.00" x2="586.72" y2="360.00" /><circle cx="584.00" cy="360.18" r="0.70" fill="#4f89a8" stroke="none" /></g>
<path data-feature-type="curtain" d="M 486.40 243.84 Q 488.00 246.34 486.40 248.00 Q 488.00 249.66 486.40 252.16" fill="none" /><path d="M 489.60 243.84 Q 488.00 246.34 489.60 248.00 Q 488.00 249.66 489.60 252.16" fill="none" />
<circle data-feature-type="pillar" cx="712.00" cy="88.00" r="3.68" fill="#4f89a8" stroke="none" />
<circle data-feature-type="pillar" cx="776.00" cy="88.00" r="3.68" fill="#4f89a8" stroke="none" />
<circle data-feature-type="pillar" cx="168.00" cy="1432.00" r="3.68" fill="#4f89a8" stroke="none" />
<circle data-feature-type="pillar" cx="936.00" cy="296.00" r="3.68" fill="#4f89a8" stroke="none" />
<circle data-feature-type="pillar" cx="168.00" cy="984.00" r="3.68" fill="#4f89a8" stroke="none" />
<circle data-feature-type="pillar" cx="616.00" cy="616.00" r="3.68" fill="#4f89a8" stroke="none" />
<circle data-feature-type="pillar" cx="600.00" cy="584.00" r="3.68" fill="#4f89a8" stroke="none" />
<circle data-feature-type="pillar" cx="664.00" cy="616.00" r="3.68" fill="#4f89a8" stroke="none" />
<circle data-feature-type="pillar" cx="968.00" cy="1336.00" r="3.68" fill="#4f89a8" stroke="none" />
<g data-feature-type="statue"><circle cx="952.00" cy="1352.00" r="3.52" fill="none" /><line x1="949.76" y1="1352.00" x2="954.24" y2="1352.00" /><line x1="952.00" y1="1349.76" x2="952.00" y2="1354.24" /><line x1="950.39" y1="1350.39" x2="953.61" y2="1353.61" /><line x1="950.39" y1="1353.61" x2="953.61" y2="1350.39" /></g>
<g data-feature-type="trap"><rect x="868.64" y="1076.64" width="6.72" height="6.72" fill="none" /><line x1="868.64" y1="1076.64" x2="875.36" y2="1083.36" /><line x1="868.64" y1="1083.36" x2="875.36" y2="1076.64" /></g>
<circle data-feature-type="pillar" cx="728.00" cy="280.00" r="3.68" fill="#4f89a8" stroke="none" />
<circle data-feature-type="pillar" cx="728.00" cy="328.00" r="3.68" fill="#4f89a8" stroke="none" />
<circle data-feature-type="pillar" cx="648.00" cy="792.00" r="3.68" fill="#4f89a8" stroke="none" />
<g data-feature-type="statue"><circle cx="88.00" cy="568.00" r="3.52" fill="none" /><line x1="85.76" y1="568.00" x2="90.24" y2="568.00" /><line x1="88.00" y1="565.76" x2="88.00" y2="570.24" /><line x1="86.39" y1="566.39" x2="89.61" y2="569.61" /><line x1="86.39" y1="569.61" x2="89.61" y2="566.39" /></g>
<circle data-feature-type="pillar" cx="1368.00" cy="1272.00" r="3.68" fill="#4f89a8" stroke="none" />
<g data-feature-type="trap"><rect x="1316.64" y="1284.64" width="6.72" height="6.72" fill="none" /><line x1="1316.64" y1="1284.64" x2="1323.36" y2="1291.36" /><line x1="1316.64" y1="1291.36" x2="1323.36" y2="1284.64" /></g>
<circle data-feature-type="pillar" cx="440.00" cy="1352.00" r="3.68" fill="#4f89a8" stroke="none" />
<circle data-feature-type="pillar" cx="456.00" cy="1384.00" r="3.68" fill="#4f89a8" stroke="none" />
<circle data-feature-type="pillar" cx="488.00" cy="1384.00" r="3.68" fill="#4f89a8" stroke="none" />
<g data-feature-type="coffin"><rect x="501.60" y="1380.32" width="4.80" height="7.36" rx="0.80" ry="0.80" fill="none" /><line x1="504.00" y1="1381.94" x2="504.00" y2="1386.06" /></g>
<g data-feature-type="chest"><rect x="965.28" y="166.24" width="5.44" height="3.52" fill="none" /><line x1="965.28" y1="168.00" x2="970.72" y2="168.00" /><circle cx="968.00" cy="168.18" r="0.70" fill="#4f89a8" stroke="none" /></g>
<circle data-feature-type="pillar" cx="600.00" cy="936.00" r="3.68" fill="#4f89a8" stroke="none" />
<circle data-feature-type="pillar" cx="616.00" cy="936.00" r="3.68" fill="#4f89a8" stroke="none" />
<g data-feature-type="well"><circle cx="632.00" cy="968.00" r="4.00" fill="none" /><circle cx="632.00" cy="968.00" r="2.24" fill="none" /></g>
  </g>
  <g class="thresholds">
<rect data-threshold-type="door" x="1219.52" y="341.76" width="8.96" height="4.48" fill="#ffffff" stroke="#4f89a8" stroke-width="1.52" />
<rect data-threshold-type="door" x="979.52" y="357.76" width="8.96" height="4.48" fill="#ffffff" stroke="#4f89a8" stroke-width="1.52" />
<rect data-threshold-type="door" x="1203.52" y="709.76" width="8.96" height="4.48" fill="#ffffff" stroke="#4f89a8" stroke-width="1.52" />
<rect data-threshold-type="door" x="1203.52" y="1429.76" width="8.96" height="4.48" fill="#ffffff" stroke="#4f89a8" stroke-width="1.52" />
<g data-threshold-type="locked" stroke="#4f89a8" fill="none" stroke-width="1.52"><rect x="211.52" y="101.76" width="8.96" height="4.48" fill="#ffffff" /><circle cx="216.00" cy="100.77" r="1.61" /></g>
<rect data-threshold-type="door" x="531.52" y="149.76" width="8.96" height="4.48" fill="#ffffff" stroke="#4f89a8" stroke-width="1.52" />
<rect data-threshold-type="door" x="1251.52" y="869.76" width="8.96" height="4.48" fill="#ffffff" stroke="#4f89a8" stroke-width="1.52" />
<rect data-threshold-type="door" x="339.52" y="629.76" width="8.96" height="4.48" fill="#ffffff" stroke="#4f89a8" stroke-width="1.52" />
<rect data-threshold-type="door" x="275.52" y="421.76" width="8.96" height="4.48" fill="#ffffff" stroke="#4f89a8" stroke-width="1.52" />
<g data-threshold-type="locked" stroke="#4f89a8" fill="none" stroke-width="1.52"><rect x="963.52" y="821.76" width="8.96" height="4.48" fill="#ffffff" /><circle cx="968.00" cy="820.77" r="1.61" /></g>
<rect data-threshold-type="door" x="115.52" y="1109.76" width="8.96" height="4.48" fill="#ffffff" stroke="#4f89a8" stroke-width="1.52" />
<rect data-threshold-type="door" x="467.52" y="1077.76" width="8.96" height="4.48" fill="#ffffff" stroke="#4f89a8" stroke-width="1.52" />
<rect data-threshold-type="door" x="851.52" y="565.76" width="8.96" height="4.48" fill="#ffffff" stroke="#4f89a8" stroke-width="1.52" />
<g data-threshold-type="secret"><line x1="147.52" y1="824.00" x2="156.48" y2="824.00" stroke="#4f89a8" stroke-width="1.31" stroke-dasharray="1.31 1.31" /><text x="157.56" y="823.10" font-size="5.44" fill="#4f89a8" font-family="Courier New, monospace" font-weight="700">S</text></g>
<rect data-threshold-type="door" x="1107.52" y="1285.76" width="8.96" height="4.48" fill="#ffffff" stroke="#4f89a8" stroke-width="1.52" />
<rect data-threshold-type="door" x="1315.52" y="197.76" width="8.96" height="4.48" fill="#ffffff" stroke="#4f89a8" stroke-width="1.52" />
<g data-threshold-type="secret"><line x1="659.52" y1="1336.00" x2="668.48" y2="1336.00" stroke="#4f89a8" stroke-width="1.31" stroke-dasharray="1.31 1.31" /><text x="669.56" y="1335.10" font-size="5.44" fill="#4f89a8" font-family="Courier New, monospace" font-weight="700">S</text></g>
<rect data-threshold-type="door" x="1123.52" y="1077.76" width="8.96" height="4.48" fill="#ffffff" stroke="#4f89a8" stroke-width="1.52" />
<rect data-threshold-type="door" x="467.52" y="373.76" width="8.96" height="4.48" fill="#ffffff" stroke="#4f89a8" stroke-width="1.52" />
<rect data-threshold-type="door" x="675.52" y="101.76" width="8.96" height="4.48" fill="#ffffff" stroke="#4f89a8" stroke-width="1.52" />
<rect data-threshold-type="door" x="179.52" y="1429.76" width="8.96" height="4.48" fill="#ffffff" stroke="#4f89a8" stroke-width="1.52" />
<rect data-threshold-type="door" x="915.52" y="261.76" width="8.96" height="4.48" fill="#ffffff" stroke="#4f89a8" stroke-width="1.52" />
<rect data-threshold-type="door" x="147.52" y="949.76" width="8.96" height="4.48" fill="#ffffff" stroke="#4f89a8" stroke-width="1.52" />
<rect data-threshold-type="door" x="563.52" y="661.76" width="8.96" height="4.48" fill="#ffffff" stroke="#4f89a8" stroke-width="1.52" />
<rect data-threshold-type="door" x="1011.52" y="1333.76" width="8.96" height="4.48" fill="#ffffff" stroke="#4f89a8" stroke-width="1.52" />
<rect data-threshold-type="door" x="915.52" y="1109.76" width="8.96" height="4.48" fill="#ffffff" stroke="#4f89a8" stroke-width="1.52" />
<g data-threshold-type="locked" stroke="#4f89a8" fill="none" stroke-width="1.52"><rect x="739.52" y="373.76" width="8.96" height="4.48" fill="#ffffff" /><circle cx="744.00" cy="372.77" r="1.61" /></g>
<rect data-threshold-type="door" x="675.52" y="805.76" width="8.96" height="4.48" fill="#ffffff" stroke="#4f89a8" stroke-width="1.52" />
<rect data-threshold-type="door" x="99.52" y="485.76" width="8.96" height="4.48" fill="#ffffff" stroke="#4f89a8" stroke-width="1.52" />
<rect data-threshold-type="door" x="1299.52" y="1269.76" width="8.96" height="4.48" fill="#ffffff" stroke="#4f89a8" stroke-width="1.52" />
<rect data-threshold-type="door" x="691.52" y="1109.76" width="8.96" height="4.48" fill="#ffffff" stroke="#4f89a8" stroke-width="1.52" />
<rect data-threshold-type="door" x="467.52" y="1285.76" width="8.96" height="4.48" fill="#ffffff" stroke="#4f89a8" stroke-width="1.52" />
<rect data-threshold-type="door" x="947.52" y="181.76" width="8.96" height="4.48" fill="#ffffff" stroke="#4f89a8" stroke-width="1.52" />
<rect data-threshold-type="door" x="563.52" y="885.76" width="8.96" height="4.48" fill="#ffffff" stroke="#4f89a8" stroke-width="1.52" />
  </g>
  <g class="labels">
<text x="1208.00" y="281.92" text-anchor="middle">1</text>
<text x="1000.00" y="425.92" text-anchor="middle">2</text>
<text x="1224.00" y="665.92" text-anchor="middle">3</text>
<text x="1256.00" y="1433.92" text-anchor="middle">4</text>
<text x="232.00" y="185.92" text-anchor="middle">5</text>
<text x="568.00" y="105.92" text-anchor="middle">6</text>
<text x="1320.00" y="873.92" text-anchor="middle">7</text>
<text x="344.00" y="697.92" text-anchor="middle">8</text>
<text x="280.00" y="457.92" text-anchor="middle">9</text>
<text x="904.00" y="809.92" text-anchor="middle">10</text>
<text x="120.00" y="1161.92" text-anchor="middle">11</text>
<text x="440.00" y="1129.92" text-anchor="middle">12</text>
<text x="888.00" y="569.92" text-anchor="middle">13</text>
<text x="184.00" y="809.92" text-anchor="middle">14</text>
<text x="1128.00" y="1337.92" text-anchor="middle">15</text>
<text x="1336.00" y="153.92" text-anchor="middle">16</text>
<text x="616.00" y="1369.92" text-anchor="middle">17</text>
<text x="1144.00" y="1113.92" text-anchor="middle">18</text>
<text x="536.00" y="313.92" text-anchor="middle">19</text>
<text x="744.00" y="89.92" text-anchor="middle">20</text>
<text x="152.00" y="1433.92" text-anchor="middle">21</text>
<text x="920.00" y="297.92" text-anchor="middle">22</text>
<text x="152.00" y="985.92" text-anchor="middle">23</text>
<text x="632.00" y="601.92" text-anchor="middle">24</text>
<text x="952.00" y="1337.92" text-anchor="middle">25</text>
<text x="856.00" y="1145.92" text-anchor="middle">26</text>
<text x="728.00" y="313.92" text-anchor="middle">27</text>
<text x="632.00" y="793.92" text-anchor="middle">28</text>
<text x="104.00" y="553.92" text-anchor="middle">29</text>
<text x="1352.00" y="1273.92" text-anchor="middle">30</text>
<text x="728.00" y="1097.92" text-anchor="middle">31</text>
<text x="472.00" y="1369.92" text-anchor="middle">32</text>
<text x="984.00" y="185.92" text-anchor="middle">33</text>
<text x="584.00" y="937.92" text-anchor="middle">34</text>
  </g>
</svg>