<?xml version="1.0" encoding="UTF-8"?>
<svg xmlns="http://www.w3.org/2000/svg" width="1488" height="1536" viewBox="0 0 1488.00 1536.00" role="img" aria-label="MapIR render: Learned Generated Map 3">
  <defs>
    <style>
      .grid { stroke: #cde2ec; stroke-width: 0.64; opacity: 0.72; }
      .walls { stroke: #6aa7c7; stroke-width: 1.92; fill: none; stroke-linecap: square; }
      .thresholds { fill: none; stroke-linecap: round; }
      .features { stroke: #4f89a8; fill: none; stroke-width: 1.60; stroke-linecap: round; stroke-linejoin: round; }
      .labels { fill: #4f89a8; font-size: 7.20px; font-family: "Courier New", monospace; font-weight: 600; }
    </style>
  </defs>
  <rect x="0" y="0" width="1488.00" height="1536.00" fill="#4393be" />
  <g class="floors">
<rect x="144.00" y="96.00" width="144.00" height="112.00" fill="#fcfdfe" />
<rect x="672.00" y="96.00" width="128.00" height="144.00" fill="#fcfdfe" />
<rect x="912.00" y="96.00" width="96.00" height="96.00" fill="#fcfdfe" />
<rect x="464.00" y="112.00" width="128.00" height="112.00" fill="#fcfdfe" />
<rect x="320.00" y="128.00" width="96.00" height="96.00" fill="#fcfdfe" />
<rect x="640.00" y="144.00" width="32.00" height="16.00" fill="#fcfdfe" />
<rect x="800.00" y="144.00" width="112.00" height="32.00" fill="#fcfdfe" />
<rect x="640.00" y="160.00" width="16.00" height="496.00" fill="#fcfdfe" />
<rect x="1008.00" y="160.00" width="368.00" height="16.00" fill="#fcfdfe" />
<rect x="1360.00" y="176.00" width="16.00" height="480.00" fill="#fcfdfe" />
<rect x="944.00" y="192.00" width="32.00" height="1072.00" fill="#fcfdfe" />
<rect x="208.00" y="208.00" width="16.00" height="1232.00" fill="#fcfdfe" />
<rect x="368.00" y="224.00" width="16.00" height="880.00" fill="#fcfdfe" />
<rect x="528.00" y="224.00" width="16.00" height="192.00" fill="#fcfdfe" />
<rect x="496.00" y="256.00" width="32.00" height="96.00" fill="#fcfdfe" />
<rect x="544.00" y="256.00" width="80.00" height="96.00" fill="#fcfdfe" />
<rect x="976.00" y="272.00" width="112.00" height="96.00" fill="#fcfdfe" />
<rect x="304.00" y="304.00" width="64.00" height="32.00" fill="#fcfdfe" />
<rect x="384.00" y="304.00" width="112.00" height="32.00" fill="#fcfdfe" />
<rect x="624.00" y="304.00" width="16.00" height="32.00" fill="#fcfdfe" />
<rect x="656.00" y="304.00" width="288.00" height="32.00" fill="#fcfdfe" />
<rect x="1088.00" y="304.00" width="112.00" height="16.00" fill="#fcfdfe" />
<rect x="1184.00" y="320.00" width="16.00" height="176.00" fill="#fcfdfe" />
<rect x="304.00" y="336.00" width="16.00" height="848.00" fill="#fcfdfe" />
<rect x="432.00" y="336.00" width="16.00" height="464.00" fill="#fcfdfe" />
<rect x="816.00" y="336.00" width="16.00" height="880.00" fill="#fcfdfe" />
<rect x="512.00" y="352.00" width="16.00" height="1120.00" fill="#fcfdfe" />
<rect x="544.00" y="352.00" width="16.00" height="1120.00" fill="#fcfdfe" />
<rect x="672.00" y="352.00" width="144.00" height="112.00" fill="#fcfdfe" />
<rect x="1008.00" y="368.00" width="16.00" height="880.00" fill="#fcfdfe" />
<rect x="1136.00" y="368.00" width="48.00" height="128.00" fill="#fcfdfe" />
<rect x="1200.00" y="368.00" width="48.00" height="128.00" fill="#fcfdfe" />
<rect x="992.00" y="384.00" width="16.00" height="96.00" fill="#fcfdfe" />
<rect x="1024.00" y="384.00" width="64.00" height="96.00" fill="#fcfdfe" />
<rect x="560.00" y="400.00" width="80.00" height="16.00" fill="#fcfdfe" />
<rect x="656.00" y="400.00" width="16.00" height="16.00" fill="#fcfdfe" />
<rect x="1040.00" y="480.00" width="16.00" height="960.00" fill="#fcfdfe" />
<rect x="592.00" y="512.00" width="48.00" height="144.00" fill="#fcfdfe" />
<rect x="656.00" y="512.00" width="48.00" height="144.00" fill="#fcfdfe" />
<rect x="896.00" y="512.00" width="48.00" height="128.00" fill="#fcfdfe" />
<rect x="976.00" y="512.00" width="32.00" height="128.00" fill="#fcfdfe" />
<rect x="1120.00" y="512.00" width="112.00" height="112.00" fill="#fcfdfe" />
<rect x="1328.00" y="512.00" width="32.00" height="144.00" fill="#fcfdfe" />
<rect x="1376.00" y="512.00" width="16.00" height="144.00" fill="#fcfdfe" />
<rect x="256.00" y="528.00" width="48.00" height="144.00" fill="#fcfdfe" />
<rect x="320.00" y="528.00" width="32.00" height="144.00" fill="#fcfdfe" />
<rect x="1312.00" y="528.00" width="16.00" height="112.00" fill="#fcfdfe" />
<rect x="1392.00" y="528.00" width="16.00" height="112.00" fill="#fcfdfe" />
<rect x="1296.00" y="544.00" width="16.00" height="80.00" fill="#fcfdfe" />
<rect x="1408.00" y="544.00" width="16.00" height="80.00" fill="#fcfdfe" />
<rect x="448.00" y="560.00" width="64.00" height="32.00" fill="#fcfdfe" />
<rect x="528.00" y="560.00" width="16.00" height="32.00" fill="#fcfdfe" />
<rect x="560.00" y="560.00" width="32.00" height="32.00" fill="#fcfdfe" />
<rect x="704.00" y="560.00" width="112.00" height="32.00" fill="#fcfdfe" />
<rect x="832.00" y="560.00" width="64.00" height="32.00" fill="#fcfdfe" />
<rect x="1024.00" y="560.00" width="16.00" height="32.00" fill="#fcfdfe" />
<rect x="1056.00" y="560.00" width="64.00" height="32.00" fill="#fcfdfe" />
<rect x="224.00" y="576.00" width="32.00" height="16.00" fill="#fcfdfe" />
<rect x="352.00" y="576.00" width="16.00" height="16.00" fill="#fcfdfe" />
<rect x="384.00" y="576.00" width="48.00" height="112.00" fill="#fcfdfe" />
<rect x="1232.00" y="576.00" width="64.00" height="16.00" fill="#fcfdfe" />
<rect x="448.00" y="592.00" width="48.00" height="96.00" fill="#fcfdfe" />
<rect x="768.00" y="592.00" width="48.00" height="128.00" fill="#fcfdfe" />
<rect x="832.00" y="592.00" width="48.00" height="128.00" fill="#fcfdfe" />
<rect x="1168.00" y="624.00" width="16.00" height="864.00" fill="#fcfdfe" />
<rect x="496.00" y="640.00" width="16.00" height="16.00" fill="#fcfdfe" />
<rect x="528.00" y="640.00" width="16.00" height="16.00" fill="#fcfdfe" />
<rect x="560.00" y="640.00" width="32.00" height="16.00" fill="#fcfdfe" />
<rect x="704.00" y="640.00" width="64.00" height="16.00" fill="#fcfdfe" />
<rect x="224.00" y="720.00" width="80.00" height="128.00" fill="#fcfdfe" />
<rect x="864.00" y="720.00" width="16.00" height="672.00" fill="#fcfdfe" />
<rect x="320.00" y="784.00" width="48.00" height="16.00" fill="#fcfdfe" />
<rect x="384.00" y="784.00" width="48.00" height="16.00" fill="#fcfdfe" />
<rect x="448.00" y="784.00" width="64.00" height="16.00" fill="#fcfdfe" />
<rect x="528.00" y="784.00" width="16.00" height="128.00" fill="#fcfdfe" />
<rect x="560.00" y="784.00" width="256.00" height="16.00" fill="#fcfdfe" />
<rect x="832.00" y="784.00" width="32.00" height="16.00" fill="#fcfdfe" />
<rect x="880.00" y="784.00" width="64.00" height="128.00" fill="#fcfdfe" />
<rect x="976.00" y="784.00" width="32.00" height="16.00" fill="#fcfdfe" />
<rect x="1024.00" y="784.00" width="16.00" height="16.00" fill="#fcfdfe" />
<rect x="1056.00" y="784.00" width="112.00" height="16.00" fill="#fcfdfe" />
<rect x="1184.00" y="784.00" width="80.00" height="144.00" fill="#fcfdfe" />
<rect x="464.00" y="800.00" width="48.00" height="112.00" fill="#fcfdfe" />
<rect x="560.00" y="800.00" width="16.00" height="112.00" fill="#fcfdfe" />
<rect x="1264.00" y="800.00" width="16.00" height="112.00" fill="#fcfdfe" />
<rect x="1152.00" y="816.00" width="16.00" height="80.00" fill="#fcfdfe" />
<rect x="1280.00" y="816.00" width="16.00" height="80.00" fill="#fcfdfe" />
<rect x="576.00" y="848.00" width="240.00" height="16.00" fill="#fcfdfe" />
<rect x="832.00" y="848.00" width="32.00" height="16.00" fill="#fcfdfe" />
<rect x="976.00" y="848.00" width="32.00" height="16.00" fill="#fcfdfe" />
<rect x="1024.00" y="848.00" width="16.00" height="16.00" fill="#fcfdfe" />
<rect x="1056.00" y="848.00" width="96.00" height="16.00" fill="#fcfdfe" />
<rect x="736.00" y="864.00" width="80.00" height="112.00" fill="#fcfdfe" />
<rect x="272.00" y="880.00" width="32.00" height="128.00" fill="#fcfdfe" />
<rect x="320.00" y="880.00" width="48.00" height="128.00" fill="#fcfdfe" />
<rect x="720.00" y="880.00" width="16.00" height="80.00" fill="#fcfdfe" />
<rect x="608.00" y="912.00" width="112.00" height="16.00" fill="#fcfdfe" />
<rect x="928.00" y="912.00" width="16.00" height="112.00" fill="#fcfdfe" />
<rect x="608.00" y="928.00" width="16.00" height="544.00" fill="#fcfdfe" />
<rect x="384.00" y="944.00" width="128.00" height="16.00" fill="#fcfdfe" />
<rect x="528.00" y="944.00" width="16.00" height="16.00" fill="#fcfdfe" />
<rect x="560.00" y="944.00" width="48.00" height="16.00" fill="#fcfdfe" />
<rect x="624.00" y="944.00" width="96.00" height="16.00" fill="#fcfdfe" />
<rect x="832.00" y="944.00" width="32.00" height="16.00" fill="#fcfdfe" />
<rect x="880.00" y="944.00" width="48.00" height="16.00" fill="#fcfdfe" />
<rect x="976.00" y="944.00" width="32.00" height="160.00" fill="#fcfdfe" />
<rect x="1024.00" y="944.00" width="16.00" height="304.00" fill="#fcfdfe" />
<rect x="1056.00" y="944.00" width="112.00" height="16.00" fill="#fcfdfe" />
<rect x="1184.00" y="944.00" width="96.00" height="16.00" fill="#fcfdfe" />
<rect x="1264.00" y="960.00" width="16.00" height="144.00" fill="#fcfdfe" />
<rect x="560.00" y="992.00" width="48.00" height="128.00" fill="#fcfdfe" />
<rect x="624.00" y="992.00" width="32.00" height="128.00" fill="#fcfdfe" />
<rect x="320.00" y="1008.00" width="16.00" height="176.00" fill="#fcfdfe" />
<rect x="720.00" y="1008.00" width="96.00" height="16.00" fill="#fcfdfe" />
<rect x="832.00" y="1008.00" width="32.00" height="16.00" fill="#fcfdfe" />
<rect x="880.00" y="1008.00" width="48.00" height="16.00" fill="#fcfdfe" />
<rect x="1200.00" y="1008.00" width="64.00" height="96.00" fill="#fcfdfe" />
<rect x="1280.00" y="1008.00" width="48.00" height="96.00" fill="#fcfdfe" />
<rect x="720.00" y="1024.00" width="16.00" height="320.00" fill="#fcfdfe" />
<rect x="192.00" y="1040.00" width="16.00" height="96.00" fill="#fcfdfe" />
<rect x="224.00" y="1040.00" width="80.00" height="96.00" fill="#fcfdfe" />
<rect x="176.00" y="1056.00" width="16.00" height="384.00" fill="#fcfdfe" />
<rect x="336.00" y="1056.00" width="32.00" height="16.00" fill="#fcfdfe" />
<rect x="384.00" y="1056.00" width="128.00" height="16.00" fill="#fcfdfe" />
<rect x="528.00" y="1056.00" width="16.00" height="16.00" fill="#fcfdfe" />
<rect x="656.00" y="1056.00" width="64.00" height="16.00" fill="#fcfdfe" />
<rect x="736.00" y="1056.00" width="80.00" height="16.00" fill="#fcfdfe" />
<rect x="832.00" y="1056.00" width="32.00" height="16.00" fill="#fcfdfe" />
<rect x="880.00" y="1056.00" width="64.00" height="16.00" fill="#fcfdfe" />
<rect x="1056.00" y="1056.00" width="112.00" height="16.00" fill="#fcfdfe" />
<rect x="1184.00" y="1056.00" width="16.00" height="16.00" fill="#fcfdfe" />
<rect x="336.00" y="1088.00" width="32.00" height="16.00" fill="#fcfdfe" />
<rect x="384.00" y="1088.00" width="128.00" height="16.00" fill="#fcfdfe" />
<rect x="528.00" y="1088.00" width="16.00" height="16.00" fill="#fcfdfe" />
<rect x="656.00" y="1088.00" width="64.00" height="16.00" fill="#fcfdfe" />
<rect x="736.00" y="1088.00" width="80.00" height="16.00" fill="#fcfdfe" />
<rect x="832.00" y="1088.00" width="32.00" height="16.00" fill="#fcfdfe" />
<rect x="880.00" y="1088.00" width="64.00" height="16.00" fill="#fcfdfe" />
<rect x="1056.00" y="1088.00" width="112.00" height="16.00" fill="#fcfdfe" />
<rect x="1056.00" y="1104.00" width="48.00" height="144.00" fill="#fcfdfe" />
<rect x="736.00" y="1120.00" width="80.00" height="96.00" fill="#fcfdfe" />
<rect x="832.00" y="1120.00" width="16.00" height="96.00" fill="#fcfdfe" />
<rect x="256.00" y="1136.00" width="16.00" height="256.00" fill="#fcfdfe" />
<rect x="336.00" y="1168.00" width="176.00" height="16.00" fill="#fcfdfe" />
<rect x="528.00" y="1168.00" width="16.00" height="144.00" fill="#fcfdfe" />
<rect x="560.00" y="1168.00" width="48.00" height="16.00" fill="#fcfdfe" />
<rect x="624.00" y="1168.00" width="96.00" height="16.00" fill="#fcfdfe" />
<rect x="848.00" y="1168.00" width="16.00" height="16.00" fill="#fcfdfe" />
<rect x="880.00" y="1168.00" width="64.00" height="16.00" fill="#fcfdfe" />
<rect x="976.00" y="1168.00" width="32.00" height="16.00" fill="#fcfdfe" />
<rect x="448.00" y="1184.00" width="64.00" height="128.00" fill="#fcfdfe" />
<rect x="560.00" y="1184.00" width="32.00" height="128.00" fill="#fcfdfe" />
<rect x="592.00" y="1248.00" width="16.00" height="16.00" fill="#fcfdfe" />
<rect x="624.00" y="1248.00" width="96.00" height="16.00" fill="#fcfdfe" />
<rect x="736.00" y="1248.00" width="128.00" height="16.00" fill="#fcfdfe" />
<rect x="880.00" y="1248.00" width="64.00" height="16.00" fill="#fcfdfe" />
<rect x="672.00" y="1264.00" width="48.00" height="80.00" fill="#fcfdfe" />
<rect x="736.00" y="1264.00" width="32.00" height="80.00" fill="#fcfdfe" />
<rect x="832.00" y="1264.00" width="32.00" height="128.00" fill="#fcfdfe" />
<rect x="880.00" y="1264.00" width="32.00" height="128.00" fill="#fcfdfe" />
<rect x="960.00" y="1264.00" width="16.00" height="176.00" fill="#fcfdfe" />
<rect x="816.00" y="1280.00" width="16.00" height="96.00" fill="#fcfdfe" />
<rect x="912.00" y="1280.00" width="16.00" height="96.00" fill="#fcfdfe" />
<rect x="112.00" y="1312.00" width="64.00" height="128.00" fill="#fcfdfe" />
<rect x="192.00" y="1312.00" width="16.00" height="128.00" fill="#fcfdfe" />
<rect x="224.00" y="1312.00" width="32.00" height="128.00" fill="#fcfdfe" />
<rect x="272.00" y="1328.00" width="240.00" height="16.00" fill="#fcfdfe" />
<rect x="528.00" y="1328.00" width="16.00" height="16.00" fill="#fcfdfe" />
<rect x="560.00" y="1328.00" width="48.00" height="16.00" fill="#fcfdfe" />
<rect x="624.00" y="1328.00" width="48.00" height="16.00" fill="#fcfdfe" />
<rect x="768.00" y="1328.00" width="48.00" height="16.00" fill="#fcfdfe" />
<rect x="1104.00" y="1344.00" width="64.00" height="144.00" fill="#fcfdfe" />
<rect x="1184.00" y="1344.00" width="64.00" height="144.00" fill="#fcfdfe" />
<rect x="480.00" y="1376.00" width="32.00" height="96.00" fill="#fcfdfe" />
<rect x="528.00" y="1376.00" width="16.00" height="96.00" fill="#fcfdfe" />
<rect x="560.00" y="1376.00" width="48.00" height="96.00" fill="#fcfdfe" />
<rect x="256.00" y="1424.00" width="224.00" height="16.00" fill="#fcfdfe" />
<rect x="624.00" y="1424.00" width="336.00" height="16.00" fill="#fcfdfe" />
<rect x="976.00" y="1424.00" width="64.00" height="16.00" fill="#fcfdfe" />
<rect x="1056.00" y="1424.00" width="48.00" height="16.00" fill="#fcfdfe" />
  </g>
  <g class="grid">
<line x1="0.00" y1="0" x2="0.00" y2="1536.00" />
<line x1="16.00" y1="0" x2="16.00" y2="1536.00" />
<line x1="32.00" y1="0" x2="32.00" y2="1536.00" />
<line x1="48.00" y1="0" x2="48.00" y2="1536.00" />
<line x1="64.00" y1="0" x2="64.00" y2="1536.00" />
<line x1="80.00" y1="0" x2="80.00" y2="1536.00" />
<line x1="96.00" y1="0" x2="96.00" y2="1536.00" />
<line x1="112.00" y1="0" x2="112.00" y2="1536.00" />
<line x1="128.00" y1="0" x2="128.00" y2="1536.00" />
<line x1="144.00" y1="0" x2="144.00" y2="1536.00" />
<line x1="160.00" y1="0" x2="160.00" y2="1536.00" />
<line x1="176.00" y1="0" x2="176.00" y2="1536.00" />
<line x1="192.00" y1="0" x2="192.00" y2="1536.00" />
<line x1="208.00" y1="0" x2="208.00" y2="1536.00" />
<line x1="224.00" y1="0" x2="224.00" y2="1536.00" />
<line x1="240.00" y1="0" x2="240.00" y2="1536.00" />
<line x1="256.00" y1="0" x2="256.00" y2="1536.00" />
<line x1="272.00" y1="0" x2="272.00" y2="1536.00" />
<line x1="288.00" y1="0" x2="288.00" y2="1536.00" />
<line x1="304.00" y1="0" x2="304.00" y2="1536.00" />
<line x1="320.00" y1="0" x2="320.00" y2="1536.00" />
<line x1="336.00" y1="0" x2="336.00" y2="1536.00" />
<line x1="352.00" y1="0" x2="352.00" y2="1536.00" />
<line x1="368.00" y1="0" x2="368.00" y2="1536.00" />
<line x1="384.00" y1="0" x2="384.00" y2="1536.00" />
<line x1="400.00" y1="0" x2="400.00" y2="1536.00" />
<line x1="416.00" y1="0" x2="416.00" y2="1536.00" />
<line x1="432.00" y1="0" x2="432.00" y2="1536.00" />
<line x1="448.00" y1="0" x2="448.00" y2="1536.00" />
<line x1="464.00" y1="0" x2="464.00" y2="1536.00" />
<line x1="480.00" y1="0" x2="480.00" y2="1536.00" />
<line x1="496.00" y1="0" x2="496.00" y2="1536.00" />
<line x1="512.00" y1="0" x2="512.00" y2="1536.00" />
<line x1="528.00" y1="0" x2="528.00" y2="1536.00" />
<line x1="544.00" y1="0" x2="544.00" y2="1536.00" />
<line x1="560.00" y1="0" x2="560.00" y2="1536.00" />
<line x1="576.00" y1="0" x2="576.00" y2="1536.00" />
<line x1="592.00" y1="0" x2="592.00" y2="1536.00" />
<line x1="608.00" y1="0" x2="608.00" y2="1536.00" />
<line x1="624.00" y1="0" x2="624.00" y2="1536.00" />
<line x1="640.00" y1="0" x2="640.00" y2="1536.00" />
<line x1="656.00" y1="0" x2="656.00" y2="1536.00" />
<line x1="672.00" y1="0" x2="672.00" y2="1536.00" />
<line x1="688.00" y1="0" x2="688.00" y2="1536.00" />
<line x1="704.00" y1="0" x2="704.00" y2="1536.00" />
<line x1="720.00" y1="0" x2="720.00" y2="1536.00" />
<line x1="736.00" y1="0" x2="736.00" y2="1536.00" />
<line x1="752.00" y1="0" x2="752.00" y2="1536.00" />
<line x1="768.00" y1="0" x2="768.00" y2="1536.00" />
<line x1="784.00" y1="0" x2="784.00" y2="1536.00" />
<line x1="800.00" y1="0" x2="800.00" y2="1536.00" />
<line x1="816.00" y1="0" x2="816.00" y2="1536.00" />
<line x1="832.00" y1="0" x2="832.00" y2="1536.00" />
<line x1="848.00" y1="0" x2="848.00" y2="1536.00" />
<line x1="864.00" y1="0" x2="864.00" y2="1536.00" />
<line x1="880.00" y1="0" x2="880.00" y2="1536.00" />
<line x1="896.00" y1="0" x2="896.00" y2="1536.00" />
<line x1="912.00" y1="0" x2="912.00" y2="1536.00" />
<line x1="928.00" y1="0" x2="928.00" y2="1536.00" />
<line x1="944.00" y1="0" x2="944.00" y2="1536.00" />
<line x1="960.00" y1="0" x2="960.00" y2="1536.00" />
<line x1="976.00" y1="0" x2="976.00" y2="1536.00" />
<line x1="992.00" y1="0" x2="992.00" y2="1536.00" />
<line x1="1008.00" y1="0" x2="1008.00" y2="1536.00" />
<line x1="1024.00" y1="0" x2="1024.00" y2="1536.00" />
<line x1="1040.00" y1="0" x2="1040.00" y2="1536.00" />
<line x1="1056.00" y1="0" x2="1056.00" y2="1536.00" />
<line x1="1072.00" y1="0" x2="1072.00" y2="1536.00" />
<line x1="1088.00" y1="0" x2="1088.00" y2="1536.00" />
<line x1="1104.00" y1="0" x2="1104.00" y2="1536.00" />
<line x1="1120.00" y1="0" x2="1120.00" y2="1536.00" />
<line x1="1136.00" y1="0" x2="1136.00" y2="1536.00" />
<line x1="1152.00" y1="0" x2="1152.00" y2="1536.00" />
<line x1="1168.00" y1="0" x2="1168.00" y2="1536.00" />
<line x1="1184.00" y1="0" x2="1184.00" y2="1536.00" />
<line x1="1200.00" y1="0" x2="1200.00" y2="1536.00" />
<line x1="1216.00" y1="0" x2="1216.00" y2="1536.00" />
<line x1="1232.00" y1="0" x2="1232.00" y2="1536.00" />
<line x1="1248.00" y1="0" x2="1248.00" y2="1536.00" />
<line x1="1264.00" y1="0" x2="1264.00" y2="1536.00" />
<line x1="1280.00" y1="0" x2="1280.00" y2="1536.00" />
<line x1="1296.00" y1="0" x2="1296.00" y2="1536.00" />
<line x1="1312.00" y1="0" x2="1312.00" y2="1536.00" />
<line x1="1328.00" y1="0" x2="1328.00" y2="1536.00" />
<line x1="1344.00" y1="0" x2="1344.00" y2="1536.00" />
<line x1="1360.00" y1="0" x2="1360.00" y2="1536.00" />
<line x1="1376.00" y1="0" x2="1376.00" y2="1536.00" />
<line x1="1392.00" y1="0" x2="1392.00" y2="1536.00" />
<line x1="1408.00" y1="0" x2="1408.00" y2="1536.00" />
<line x1="1424.00" y1="0" x2="1424.00" y2="1536.00" />
<line x1="1440.00" y1="0" x2="1440.00" y2="1536.00" />
<line x1="1456.00" y1="0" x2="1456.00" y2="1536.00" />
<line x1="1472.00" y1="0" x2="1472.00" y2="1536.00" />
<line x1="1488.00" y1="0" x2="1488.00" y2="1536.00" />
<line x1="0" y1="0.00" x2="1488.00" y2="0.00" />
<line x1="0" y1="16.00" x2="1488.00" y2="16.00" />
<line x1="0" y1="32.00" x2="1488.00" y2="32.00" />
<line x1="0" y1="48.00" x2="1488.00" y2="48.00" />
<line x1="0" y1="64.00" x2="1488.00" y2="64.00" />
<line x1="0" y1="80.00" x2="1488.00" y2="80.00" />
<line x1="0" y1="96.00" x2="1488.00" y2="96.00" />
<line x1="0" y1="112.00" x2="1488.00" y2="112.00" />
<line x1="0" y1="128.00" x2="1488.00" y2="128.00" />
<line x1="0" y1="144.00" x2="1488.00" y2="144.00" />
<line x1="0" y1="160.00" x2="1488.00" y2="160.00" />
<line x1="0" y1="176.00" x2="1488.00" y2="176.00" />
<line x1="0" y1="192.00" x2="1488.00" y2="192.00" />
<line x1="0" y1="208.00" x2="1488.00" y2="208.00" />
<line x1="0" y1="224.00" x2="1488.00" y2="224.00" />
<line x1="0" y1="240.00" x2="1488.00" y2="240.00" />
<line x1="0" y1="256.00" x2="1488.00" y2="256.00" />
<line x1="0" y1="272.00" x2="1488.00" y2="272.00" />
<line x1="0" y1="288.00" x2="1488.00" y2="288.00" />
<line x1="0" y1="304.00" x2="1488.00" y2="304.00" />
<line x1="0" y1="320.00" x2="1488.00" y2="320.00" />
<line x1="0" y1="336.00" x2="1488.00" y2="336.00" />
<line x1="0" y1="352.00" x2="1488.00" y2="352.00" />
<line x1="0" y1="368.00" x2="1488.00" y2="368.00" />
<line x1="0" y1="384.00" x2="1488.00" y2="384.00" />
<line x1="0" y1="400.00" x2="1488.00" y2="400.00" />
<line x1="0" y1="416.00" x2="1488.00" y2="416.00" />
<line x1="0" y1="432.00" x2="1488.00" y2="432.00" />
<line x1="0" y1="448.00" x2="1488.00" y2="448.00" />
<line x1="0" y1="464.00" x2="1488.00" y2="464.00" />
<line x1="0" y1="480.00" x2="1488.00" y2="480.00" />
<line x1="0" y1="496.00" x2="1488.00" y2="496.00" />
<line x1="0" y1="512.00" x2="1488.00" y2="512.00" />
<line x1="0" y1="528.00" x2="1488.00" y2="528.00" />
<line x1="0" y1="544.00" x2="1488.00" y2="544.00" />
<line x1="0" y1="560.00" x2="1488.00" y2="560.00" />
<line x1="0" y1="576.00" x2="1488.00" y2="576.00" />
<line x1="0" y1="592.00" x2="1488.00" y2="592.00" />
<line x1="0" y1="608.00" x2="1488.00" y2="608.00" />
<line x1="0" y1="624.00" x2="1488.00" y2="624.00" />
<line x1="0" y1="640.00" x2="1488.00" y2="640.00" />
<line x1="0" y1="656.00" x2="1488.00" y2="656.00" />
<line x1="0" y1="672.00" x2="1488.00" y2="672.00" />
<line x1="0" y1="688.00" x2="1488.00" y2="688.00" />
<line x1="0" y1="704.00" x2="1488.00" y2="704.00" />
<line x1="0" y1="720.00" x2="1488.00" y2="720.00" />
<line x1="0" y1="736.00" x2="1488.00" y2="736.00" />
<line x1="0" y1="752.00" x2="1488.00" y2="752.00" />
<line x1="0" y1="768.00" x2="1488.00" y2="768.00" />
<line x1="0" y1="784.00" x2="1488.00" y2="784.00" />
<line x1="0" y1="800.00" x2="1488.00" y2="800.00" />
<line x1="0" y1="816.00" x2="1488.00" y2="816.00" />
<line x1="0" y1="832.00" x2="1488.00" y2="832.00" />
<line x1="0" y1="848.00" x2="1488.00" y2="848.00" />
<line x1="0" y1="864.00" x2="1488.00" y2="864.00" />
<line x1="0" y1="880.00" x2="1488.00" y2="880.00" />
<line x1="0" y1="896.00" x2="1488.00" y2="896.00" />
<line x1="0" y1="912.00" x2="1488.00" y2="912.00" />
<line x1="0" y1="928.00" x2="1488.00" y2="928.00" />
<line x1="0" y1="944.00" x2="1488.00" y2="944.00" />
<line x1="0" y1="960.00" x2="1488.00" y2="960.00" />
<line x1="0" y1="976.00" x2="1488.00" y2="976.00" />
<line x1="0" y1="992.00" x2="1488.00" y2="992.00" />
<line x1="0" y1="1008.00" x2="1488.00" y2="1008.00" />
<line x1="0" y1="1024.00" x2="1488.00" y2="1024.00" />
<line x1="0" y1="1040.00" x2="1488.00" y2="1040.00" />
<line x1="0" y1="1056.00" x2="1488.00" y2="1056.00" />
<line x1="0" y1="1072.00" x2="1488.00" y2="1072.00" />
<line x1="0" y1="1088.00" x2="1488.00" y2="1088.00" />
<line x1="0" y1="1104.00" x2="1488.00" y2="1104.00" />
<line x1="0" y1="1120.00" x2="1488.00" y2="1120.00" />
<line x1="0" y1="1136.00" x2="1488.00" y2="1136.00" />
<line x1="0" y1="1152.00" x2="1488.00" y2="1152.00" />
<line x1="0" y1="1168.00" x2="1488.00" y2="1168.00" />
<line x1="0" y1="1184.00" x2="1488.00" y2="1184.00" />
<line x1="0" y1="1200.00" x2="1488.00" y2="1200.00" />
<line x1="0" y1="1216.00" x2="1488.00" y2="1216.00" />
<line x1="0" y1="1232.00" x2="1488.00" y2="1232.00" />
<line x1="0" y1="1248.00" x2="1488.00" y2="1248.00" />
<line x1="0" y1="1264.00" x2="1488.00" y2="1264.00" />
<line x1="0" y1="1280.00" x2="1488.00" y2="1280.00" />
<line x1="0" y1="1296.00" x2="1488.00" y2="1296.00" />
<line x1="0" y1="1312.00" x2="1488.00" y2="1312.00" />
<line x1="0" y1="1328.00" x2="1488.00" y2="1328.00" />
<line x1="0" y1="1344.00" x2="1488.00" y2="1344.00" />
<line x1="0" y1="1360.00" x2="1488.00" y2="1360.00" />
<line x1="0" y1="1376.00" x2="1488.00" y2="1376.00" />
<line x1="0" y1="1392.00" x2="1488.00" y2="1392.00" />
<line x1="0" y1="1408.00" x2="1488.00" y2="1408.00" />
<line x1="0" y1="1424.00" x2="1488.00" y2="1424.00" />
<line x1="0" y1="1440.00" x2="1488.00" y2="1440.00" />
<line x1="0" y1="1456.00" x2="1488.00" y2="1456.00" />
<line x1="0" y1="1472.00" x2="1488.00" y2="1472.00" />
<line x1="0" y1="1488.00" x2="1488.00" y2="1488.00" />
<line x1="0" y1="1504.00" x2="1488.00" y2="1504.00" />
<line x1="0" y1="1520.00" x2="1488.00" y2="1520.00" />
<line x1="0" y1="1536.00" x2="1488.00" y2="1536.00" />
  </g>
  <g class="walls">
<line x1="144.00" y1="96.00" x2="288.00" y2="96.00" />
<line x1="672.00" y1="96.00" x2="800.00" y2="96.00" />
<line x1="912.00" y1="96.00" x2="1008.00" y2="96.00" />
<line x1="464.00" y1="112.00" x2="592.00" y2="112.00" />
<line x1="320.00" y1="128.00" x2="416.00" y2="128.00" />
<line x1="640.00" y1="144.00" x2="672.00" y2="144.00" />
<line x1="800.00" y1="144.00" x2="912.00" y2="144.00" />
<line x1="656.00" y1="160.00" x2="672.00" y2="160.00" />
<line x1="1008.00" y1="160.00" x2="1376.00" y2="160.00" />
<line x1="800.00" y1="176.00" x2="912.00" y2="176.00" />
<line x1="1008.00" y1="176.00" x2="1360.00" y2="176.00" />
<line x1="912.00" y1="192.00" x2="944.00" y2="192.00" />
<line x1="976.00" y1="192.00" x2="1008.00" y2="192.00" />
<line x1="144.00" y1="208.00" x2="208.00" y2="208.00" />
<line x1="224.00" y1="208.00" x2="288.00" y2="208.00" />
<line x1="320.00" y1="224.00" x2="368.00" y2="224.00" />
<line x1="384.00" y1="224.00" x2="416.00" y2="224.00" />
<line x1="464.00" y1="224.00" x2="528.00" y2="224.00" />
<line x1="544.00" y1="224.00" x2="592.00" y2="224.00" />
<line x1="672.00" y1="240.00" x2="800.00" y2="240.00" />
<line x1="496.00" y1="256.00" x2="528.00" y2="256.00" />
<line x1="544.00" y1="256.00" x2="624.00" y2="256.00" />
<line x1="976.00" y1="272.00" x2="1088.00" y2="272.00" />
<line x1="304.00" y1="304.00" x2="368.00" y2="304.00" />
<line x1="384.00" y1="304.00" x2="496.00" y2="304.00" />
<line x1="624.00" y1="304.00" x2="640.00" y2="304.00" />
<line x1="656.00" y1="304.00" x2="944.00" y2="304.00" />
<line x1="1088.00" y1="304.00" x2="1200.00" y2="304.00" />
<line x1="1088.00" y1="320.00" x2="1184.00" y2="320.00" />
<line x1="320.00" y1="336.00" x2="368.00" y2="336.00" />
<line x1="384.00" y1="336.00" x2="432.00" y2="336.00" />
<line x1="448.00" y1="336.00" x2="496.00" y2="336.00" />
<line x1="624.00" y1="336.00" x2="640.00" y2="336.00" />
<line x1="656.00" y1="336.00" x2="816.00" y2="336.00" />
<line x1="832.00" y1="336.00" x2="944.00" y2="336.00" />
<line x1="496.00" y1="352.00" x2="512.00" y2="352.00" />
<line x1="560.00" y1="352.00" x2="624.00" y2="352.00" />
<line x1="672.00" y1="352.00" x2="816.00" y2="352.00" />
<line x1="976.00" y1="368.00" x2="1008.00" y2="368.00" />
<line x1="1024.00" y1="368.00" x2="1088.00" y2="368.00" />
<line x1="1136.00" y1="368.00" x2="1184.00" y2="368.00" />
<line x1="1200.00" y1="368.00" x2="1248.00" y2="368.00" />
<line x1="992.00" y1="384.00" x2="1008.00" y2="384.00" />
<line x1="1024.00" y1="384.00" x2="1088.00" y2="384.00" />
<line x1="528.00" y1="416.00" x2="544.00" y2="416.00" />
<line x1="560.00" y1="416.00" x2="640.00" y2="416.00" />
<line x1="656.00" y1="416.00" x2="672.00" y2="416.00" />
<line x1="560.00" y1="400.00" x2="640.00" y2="400.00" />
<line x1="656.00" y1="400.00" x2="672.00" y2="400.00" />
<line x1="672.00" y1="464.00" x2="816.00" y2="464.00" />
<line x1="992.00" y1="480.00" x2="1008.00" y2="480.00" />
<line x1="1024.00" y1="480.00" x2="1040.00" y2="480.00" />
<line x1="1056.00" y1="480.00" x2="1088.00" y2="480.00" />
<line x1="1136.00" y1="496.00" x2="1248.00" y2="496.00" />
<line x1="592.00" y1="512.00" x2="640.00" y2="512.00" />
<line x1="656.00" y1="512.00" x2="704.00" y2="512.00" />
<line x1="896.00" y1="512.00" x2="944.00" y2="512.00" />
<line x1="976.00" y1="512.00" x2="1008.00" y2="512.00" />
<line x1="1120.00" y1="512.00" x2="1232.00" y2="512.00" />
<line x1="1328.00" y1="512.00" x2="1360.00" y2="512.00" />
<line x1="1376.00" y1="512.00" x2="1392.00" y2="512.00" />
<line x1="256.00" y1="528.00" x2="304.00" y2="528.00" />
<line x1="320.00" y1="528.00" x2="352.00" y2="528.00" />
<line x1="1312.00" y1="528.00" x2="1328.00" y2="528.00" />
<line x1="1392.00" y1="528.00" x2="1408.00" y2="528.00" />
<line x1="1296.00" y1="544.00" x2="1312.00" y2="544.00" />
<line x1="1408.00" y1="544.00" x2="1424.00" y2="544.00" />
<line x1="448.00" y1="560.00" x2="512.00" y2="560.00" />
<line x1="528.00" y1="560.00" x2="544.00" y2="560.00" />
<line x1="560.00" y1="560.00" x2="592.00" y2="560.00" />
<line x1="704.00" y1="560.00" x2="816.00" y2="560.00" />
<line x1="832.00" y1="560.00" x2="896.00" y2="560.00" />
<line x1="1024.00" y1="560.00" x2="1040.00" y2="560.00" />
<line x1="1056.00" y1="560.00" x2="1120.00" y2="560.00" />
<line x1="224.00" y1="576.00" x2="256.00" y2="576.00" />
<line x1="352.00" y1="576.00" x2="368.00" y2="576.00" />
<line x1="384.00" y1="576.00" x2="432.00" y2="576.00" />
<line x1="1232.00" y1="576.00" x2="1296.00" y2="576.00" />
<line x1="224.00" y1="592.00" x2="256.00" y2="592.00" />
<line x1="352.00" y1="592.00" x2="368.00" y2="592.00" />
<line x1="496.00" y1="592.00" x2="512.00" y2="592.00" />
<line x1="528.00" y1="592.00" x2="544.00" y2="592.00" />
<line x1="560.00" y1="592.00" x2="592.00" y2="592.00" />
<line x1="704.00" y1="592.00" x2="768.00" y2="592.00" />
<line x1="880.00" y1="592.00" x2="896.00" y2="592.00" />
<line x1="1024.00" y1="592.00" x2="1040.00" y2="592.00" />
<line x1="1056.00" y1="592.00" x2="1120.00" y2="592.00" />
<line x1="1232.00" y1="592.00" x2="1296.00" y2="592.00" />
<line x1="1120.00" y1="624.00" x2="1168.00" y2="624.00" />
<line x1="1184.00" y1="624.00" x2="1232.00" y2="624.00" />
<line x1="1296.00" y1="624.00" x2="1312.00" y2="624.00" />
<line x1="1408.00" y1="624.00" x2="1424.00" y2="624.00" />
<line x1="496.00" y1="640.00" x2="512.00" y2="640.00" />
<line x1="528.00" y1="640.00" x2="544.00" y2="640.00" />
<line x1="560.00" y1="640.00" x2="592.00" y2="640.00" />
<line x1="704.00" y1="640.00" x2="768.00" y2="640.00" />
<line x1="896.00" y1="640.00" x2="944.00" y2="640.00" />
<line x1="976.00" y1="640.00" x2="1008.00" y2="640.00" />
<line x1="1312.00" y1="640.00" x2="1328.00" y2="640.00" />
<line x1="1392.00" y1="640.00" x2="1408.00" y2="640.00" />
<line x1="496.00" y1="656.00" x2="512.00" y2="656.00" />
<line x1="528.00" y1="656.00" x2="544.00" y2="656.00" />
<line x1="560.00" y1="656.00" x2="768.00" y2="656.00" />
<line x1="1328.00" y1="656.00" x2="1392.00" y2="656.00" />
<line x1="256.00" y1="672.00" x2="304.00" y2="672.00" />
<line x1="320.00" y1="672.00" x2="352.00" y2="672.00" />
<line x1="384.00" y1="688.00" x2="432.00" y2="688.00" />
<line x1="448.00" y1="688.00" x2="496.00" y2="688.00" />
<line x1="224.00" y1="720.00" x2="304.00" y2="720.00" />
<line x1="768.00" y1="720.00" x2="816.00" y2="720.00" />
<line x1="832.00" y1="720.00" x2="864.00" y2="720.00" />
<line x1="320.00" y1="784.00" x2="368.00" y2="784.00" />
<line x1="384.00" y1="784.00" x2="432.00" y2="784.00" />
<line x1="448.00" y1="784.00" x2="512.00" y2="784.00" />
<line x1="528.00" y1="784.00" x2="544.00" y2="784.00" />
<line x1="560.00" y1="784.00" x2="816.00" y2="784.00" />
<line x1="832.00" y1="784.00" x2="864.00" y2="784.00" />
<line x1="880.00" y1="784.00" x2="944.00" y2="784.00" />
<line x1="976.00" y1="784.00" x2="1008.00" y2="784.00" />
<line x1="1024.00" y1="784.00" x2="1040.00" y2="784.00" />
<line x1="1056.00" y1="784.00" x2="1168.00" y2="784.00" />
<line x1="1184.00" y1="784.00" x2="1264.00" y2="784.00" />
<line x1="320.00" y1="800.00" x2="368.00" y2="800.00" />
<line x1="384.00" y1="800.00" x2="464.00" y2="800.00" />
<line x1="576.00" y1="800.00" x2="816.00" y2="800.00" />
<line x1="832.00" y1="800.00" x2="864.00" y2="800.00" />
<line x1="976.00" y1="800.00" x2="1008.00" y2="800.00" />
<line x1="1024.00" y1="800.00" x2="1040.00" y2="800.00" />
<line x1="1056.00" y1="800.00" x2="1168.00" y2="800.00" />
<line x1="1264.00" y1="800.00" x2="1280.00" y2="800.00" />
<line x1="1152.00" y1="816.00" x2="1168.00" y2="816.00" />
<line x1="1280.00" y1="816.00" x2="1296.00" y2="816.00" />
<line x1="224.00" y1="848.00" x2="304.00" y2="848.00" />
<line x1="576.00" y1="848.00" x2="816.00" y2="848.00" />
<line x1="832.00" y1="848.00" x2="864.00" y2="848.00" />
<line x1="976.00" y1="848.00" x2="1008.00" y2="848.00" />
<line x1="1024.00" y1="848.00" x2="1040.00" y2="848.00" />
<line x1="1056.00" y1="848.00" x2="1152.00" y2="848.00" />
<line x1="576.00" y1="864.00" x2="736.00" y2="864.00" />
<line x1="832.00" y1="864.00" x2="864.00" y2="864.00" />
<line x1="976.00" y1="864.00" x2="1008.00" y2="864.00" />
<line x1="1024.00" y1="864.00" x2="1040.00" y2="864.00" />
<line x1="1056.00" y1="864.00" x2="1152.00" y2="864.00" />
<line x1="272.00" y1="880.00" x2="304.00" y2="880.00" />
<line x1="320.00" y1="880.00" x2="368.00" y2="880.00" />
<line x1="720.00" y1="880.00" x2="736.00" y2="880.00" />
<line x1="1152.00" y1="896.00" x2="1168.00" y2="896.00" />
<line x1="1280.00" y1="896.00" x2="1296.00" y2="896.00" />
<line x1="464.00" y1="912.00" x2="512.00" y2="912.00" />
<line x1="528.00" y1="912.00" x2="544.00" y2="912.00" />
<line x1="560.00" y1="912.00" x2="576.00" y2="912.00" />
<line x1="608.00" y1="912.00" x2="720.00" y2="912.00" />
<line x1="880.00" y1="912.00" x2="928.00" y2="912.00" />
<line x1="1264.00" y1="912.00" x2="1280.00" y2="912.00" />
<line x1="624.00" y1="928.00" x2="720.00" y2="928.00" />
<line x1="1184.00" y1="928.00" x2="1264.00" y2="928.00" />
<line x1="384.00" y1="944.00" x2="512.00" y2="944.00" />
<line x1="528.00" y1="944.00" x2="544.00" y2="944.00" />
<line x1="560.00" y1="944.00" x2="608.00" y2="944.00" />
<line x1="624.00" y1="944.00" x2="720.00" y2="944.00" />
<line x1="832.00" y1="944.00" x2="864.00" y2="944.00" />
<line x1="880.00" y1="944.00" x2="928.00" y2="944.00" />
<line x1="976.00" y1="944.00" x2="1008.00" y2="944.00" />
<line x1="1024.00" y1="944.00" x2="1040.00" y2="944.00" />
<line x1="1056.00" y1="944.00" x2="1168.00" y2="944.00" />
<line x1="1184.00" y1="944.00" x2="1280.00" y2="944.00" />
<line x1="384.00" y1="960.00" x2="512.00" y2="960.00" />
<line x1="528.00" y1="960.00" x2="544.00" y2="960.00" />
<line x1="560.00" y1="960.00" x2="608.00" y2="960.00" />
<line x1="624.00" y1="960.00" x2="736.00" y2="960.00" />
<line x1="832.00" y1="960.00" x2="864.00" y2="960.00" />
<line x1="880.00" y1="960.00" x2="928.00" y2="960.00" />
<line x1="1056.00" y1="960.00" x2="1168.00" y2="960.00" />
<line x1="1184.00" y1="960.00" x2="1264.00" y2="960.00" />
<line x1="736.00" y1="976.00" x2="816.00" y2="976.00" />
<line x1="272.00" y1="1008.00" x2="304.00" y2="1008.00" />
<line x1="336.00" y1="1008.00" x2="368.00" y2="1008.00" />
<line x1="720.00" y1="1008.00" x2="816.00" y2="1008.00" />
<line x1="832.00" y1="1008.00" x2="864.00" y2="1008.00" />
<line x1="880.00" y1="1008.00" x2="928.00" y2="1008.00" />
<line x1="1200.00" y1="1008.00" x2="1264.00" y2="1008.00" />
<line x1="1280.00" y1="1008.00" x2="1328.00" y2="1008.00" />
<line x1="560.00" y1="992.00" x2="608.00" y2="992.00" />
<line x1="624.00" y1="992.00" x2="656.00" y2="992.00" />
<line x1="736.00" y1="1024.00" x2="816.00" y2="1024.00" />
<line x1="832.00" y1="1024.00" x2="864.00" y2="1024.00" />
<line x1="880.00" y1="1024.00" x2="944.00" y2="1024.00" />
<line x1="192.00" y1="1040.00" x2="208.00" y2="1040.00" />
<line x1="224.00" y1="1040.00" x2="304.00" y2="1040.00" />
<line x1="176.00" y1="1056.00" x2="192.00" y2="1056.00" />
<line x1="336.00" y1="1056.00" x2="368.00" y2="1056.00" />
<line x1="384.00" y1="1056.00" x2="512.00" y2="1056.00" />
<line x1="528.00" y1="1056.00" x2="544.00" y2="1056.00" />
<line x1="656.00" y1="1056.00" x2="720.00" y2="1056.00" />
<line x1="736.00" y1="1056.00" x2="816.00" y2="1056.00" />
<line x1="832.00" y1="1056.00" x2="864.00" y2="1056.00" />
<line x1="880.00" y1="1056.00" x2="944.00" y2="1056.00" />
<line x1="1056.00" y1="1056.00" x2="1168.00" y2="1056.00" />
<line x1="1184.00" y1="1056.00" x2="1200.00" y2="1056.00" />
<line x1="336.00" y1="1072.00" x2="368.00" y2="1072.00" />
<line x1="384.00" y1="1072.00" x2="512.00" y2="1072.00" />
<line x1="528.00" y1="1072.00" x2="544.00" y2="1072.00" />
<line x1="656.00" y1="1072.00" x2="720.00" y2="1072.00" />
<line x1="736.00" y1="1072.00" x2="816.00" y2="1072.00" />
<line x1="832.00" y1="1072.00" x2="864.00" y2="1072.00" />
<line x1="880.00" y1="1072.00" x2="944.00" y2="1072.00" />
<line x1="1056.00" y1="1072.00" x2="1168.00" y2="1072.00" />
<line x1="1184.00" y1="1072.00" x2="1200.00" y2="1072.00" />
<line x1="336.00" y1="1088.00" x2="368.00" y2="1088.00" />
<line x1="384.00" y1="1088.00" x2="512.00" y2="1088.00" />
<line x1="528.00" y1="1088.00" x2="544.00" y2="1088.00" />
<line x1="656.00" y1="1088.00" x2="720.00" y2="1088.00" />
<line x1="736.00" y1="1088.00" x2="816.00" y2="1088.00" />
<line x1="832.00" y1="1088.00" x2="864.00" y2="1088.00" />
<line x1="880.00" y1="1088.00" x2="944.00" y2="1088.00" />
<line x1="1056.00" y1="1088.00" x2="1168.00" y2="1088.00" />
<line x1="336.00" y1="1104.00" x2="512.00" y2="1104.00" />
<line x1="528.00" y1="1104.00" x2="544.00" y2="1104.00" />
<line x1="656.00" y1="1104.00" x2="720.00" y2="1104.00" />
<line x1="736.00" y1="1104.00" x2="816.00" y2="1104.00" />
<line x1="832.00" y1="1104.00" x2="864.00" y2="1104.00" />
<line x1="880.00" y1="1104.00" x2="944.00" y2="1104.00" />
<line x1="976.00" y1="1104.00" x2="1008.00" y2="1104.00" />
<line x1="1104.00" y1="1104.00" x2="1168.00" y2="1104.00" />
<line x1="1200.00" y1="1104.00" x2="1328.00" y2="1104.00" />
<line x1="560.00" y1="1120.00" x2="608.00" y2="1120.00" />
<line x1="624.00" y1="1120.00" x2="656.00" y2="1120.00" />
<line x1="736.00" y1="1120.00" x2="816.00" y2="1120.00" />
<line x1="832.00" y1="1120.00" x2="848.00" y2="1120.00" />
<line x1="192.00" y1="1136.00" x2="208.00" y2="1136.00" />
<line x1="224.00" y1="1136.00" x2="256.00" y2="1136.00" />
<line x1="272.00" y1="1136.00" x2="304.00" y2="1136.00" />
<line x1="304.00" y1="1184.00" x2="448.00" y2="1184.00" />
<line x1="592.00" y1="1184.00" x2="608.00" y2="1184.00" />
<line x1="624.00" y1="1184.00" x2="720.00" y2="1184.00" />
<line x1="848.00" y1="1184.00" x2="864.00" y2="1184.00" />
<line x1="880.00" y1="1184.00" x2="944.00" y2="1184.00" />
<line x1="976.00" y1="1184.00" x2="1008.00" y2="1184.00" />
<line x1="336.00" y1="1168.00" x2="512.00" y2="1168.00" />
<line x1="528.00" y1="1168.00" x2="544.00" y2="1168.00" />
<line x1="560.00" y1="1168.00" x2="608.00" y2="1168.00" />
<line x1="624.00" y1="1168.00" x2="720.00" y2="1168.00" />
<line x1="848.00" y1="1168.00" x2="864.00" y2="1168.00" />
<line x1="880.00" y1="1168.00" x2="944.00" y2="1168.00" />
<line x1="976.00" y1="1168.00" x2="1008.00" y2="1168.00" />
<line x1="736.00" y1="1216.00" x2="848.00" y2="1216.00" />
<line x1="592.00" y1="1248.00" x2="608.00" y2="1248.00" />
<line x1="624.00" y1="1248.00" x2="720.00" y2="1248.00" />
<line x1="736.00" y1="1248.00" x2="864.00" y2="1248.00" />
<line x1="880.00" y1="1248.00" x2="944.00" y2="1248.00" />
<line x1="1008.00" y1="1248.00" x2="1040.00" y2="1248.00" />
<line x1="1056.00" y1="1248.00" x2="1104.00" y2="1248.00" />
<line x1="592.00" y1="1264.00" x2="608.00" y2="1264.00" />
<line x1="624.00" y1="1264.00" x2="672.00" y2="1264.00" />
<line x1="768.00" y1="1264.00" x2="832.00" y2="1264.00" />
<line x1="912.00" y1="1264.00" x2="960.00" y2="1264.00" />
<line x1="816.00" y1="1280.00" x2="832.00" y2="1280.00" />
<line x1="912.00" y1="1280.00" x2="928.00" y2="1280.00" />
<line x1="112.00" y1="1312.00" x2="176.00" y2="1312.00" />
<line x1="192.00" y1="1312.00" x2="208.00" y2="1312.00" />
<line x1="224.00" y1="1312.00" x2="256.00" y2="1312.00" />
<line x1="448.00" y1="1312.00" x2="512.00" y2="1312.00" />
<line x1="528.00" y1="1312.00" x2="544.00" y2="1312.00" />
<line x1="560.00" y1="1312.00" x2="592.00" y2="1312.00" />
<line x1="272.00" y1="1328.00" x2="512.00" y2="1328.00" />
<line x1="528.00" y1="1328.00" x2="544.00" y2="1328.00" />
<line x1="560.00" y1="1328.00" x2="608.00" y2="1328.00" />
<line x1="624.00" y1="1328.00" x2="672.00" y2="1328.00" />
<line x1="768.00" y1="1328.00" x2="816.00" y2="1328.00" />
<line x1="272.00" y1="1344.00" x2="512.00" y2="1344.00" />
<line x1="528.00" y1="1344.00" x2="544.00" y2="1344.00" />
<line x1="560.00" y1="1344.00" x2="608.00" y2="1344.00" />
<line x1="624.00" y1="1344.00" x2="816.00" y2="1344.00" />
<line x1="1104.00" y1="1344.00" x2="1168.00" y2="1344.00" />
<line x1="1184.00" y1="1344.00" x2="1248.00" y2="1344.00" />
<line x1="480.00" y1="1376.00" x2="512.00" y2="1376.00" />
<line x1="528.00" y1="1376.00" x2="544.00" y2="1376.00" />
<line x1="560.00" y1="1376.00" x2="608.00" y2="1376.00" />
<line x1="816.00" y1="1376.00" x2="832.00" y2="1376.00" />
<line x1="912.00" y1="1376.00" x2="928.00" y2="1376.00" />
<line x1="256.00" y1="1392.00" x2="272.00" y2="1392.00" />
<line x1="832.00" y1="1392.00" x2="912.00" y2="1392.00" />
<line x1="112.00" y1="1440.00" x2="480.00" y2="1440.00" />
<line x1="624.00" y1="1440.00" x2="1104.00" y2="1440.00" />
<line x1="256.00" y1="1424.00" x2="480.00" y2="1424.00" />
<line x1="624.00" y1="1424.00" x2="960.00" y2="1424.00" />
<line x1="976.00" y1="1424.00" x2="1040.00" y2="1424.00" />
<line x1="1056.00" y1="1424.00" x2="1104.00" y2="1424.00" />
<line x1="480.00" y1="1472.00" x2="624.00" y2="1472.00" />
<line x1="1104.00" y1="1488.00" x2="1248.00" y2="1488.00" />
<line x1="144.00" y1="96.00" x2="144.00" y2="208.00" />
<line x1="288.00" y1="96.00" x2="288.00" y2="208.00" />
<line x1="672.00" y1="96.00" x2="672.00" y2="144.00" />
<line x1="672.00" y1="160.00" x2="672.00" y2="240.00" />
<line x1="672.00" y1="352.00" x2="672.00" y2="400.00" />
<line x1="672.00" y1="416.00" x2="672.00" y2="464.00" />
<line x1="672.00" y1="1264.00" x2="672.00" y2="1328.00" />
<line x1="800.00" y1="96.00" x2="800.00" y2="144.00" />
<line x1="800.00" y1="176.00" x2="800.00" y2="240.00" />
<line x1="912.00" y1="96.00" x2="912.00" y2="144.00" />
<line x1="912.00" y1="176.00" x2="912.00" y2="192.00" />
<line x1="912.00" y1="1264.00" x2="912.00" y2="1280.00" />
<line x1="912.00" y1="1376.00" x2="912.00" y2="1392.00" />
<line x1="1008.00" y1="96.00" x2="1008.00" y2="160.00" />
<line x1="1008.00" y1="176.00" x2="1008.00" y2="192.00" />
<line x1="1008.00" y1="368.00" x2="1008.00" y2="384.00" />
<line x1="1008.00" y1="480.00" x2="1008.00" y2="512.00" />
<line x1="1008.00" y1="640.00" x2="1008.00" y2="784.00" />
<line x1="1008.00" y1="800.00" x2="1008.00" y2="848.00" />
<line x1="1008.00" y1="864.00" x2="1008.00" y2="944.00" />
<line x1="1008.00" y1="1104.00" x2="1008.00" y2="1168.00" />
<line x1="1008.00" y1="1184.00" x2="1008.00" y2="1248.00" />
<line x1="464.00" y1="112.00" x2="464.00" y2="224.00" />
<line x1="464.00" y1="800.00" x2="464.00" y2="912.00" />
<line x1="592.00" y1="112.00" x2="592.00" y2="224.00" />
<line x1="592.00" y1="512.00" x2="592.00" y2="560.00" />
<line x1="592.00" y1="592.00" x2="592.00" y2="640.00" />
<line x1="592.00" y1="1184.00" x2="592.00" y2="1248.00" />
<line x1="592.00" y1="1264.00" x2="592.00" y2="1312.00" />
<line x1="320.00" y1="128.00" x2="320.00" y2="224.00" />
<line x1="320.00" y1="336.00" x2="320.00" y2="528.00" />
<line x1="320.00" y1="672.00" x2="320.00" y2="784.00" />
<line x1="320.00" y1="800.00" x2="320.00" y2="880.00" />
<line x1="416.00" y1="128.00" x2="416.00" y2="224.00" />
<line x1="640.00" y1="144.00" x2="640.00" y2="304.00" />
<line x1="640.00" y1="336.00" x2="640.00" y2="400.00" />
<line x1="640.00" y1="416.00" x2="640.00" y2="512.00" />
<line x1="656.00" y1="160.00" x2="656.00" y2="304.00" />
<line x1="656.00" y1="336.00" x2="656.00" y2="400.00" />
<line x1="656.00" y1="416.00" x2="656.00" y2="512.00" />
<line x1="656.00" y1="992.00" x2="656.00" y2="1056.00" />
<line x1="656.00" y1="1072.00" x2="656.00" y2="1088.00" />
<line x1="656.00" y1="1104.00" x2="656.00" y2="1120.00" />
<line x1="1376.00" y1="160.00" x2="1376.00" y2="512.00" />
<line x1="1360.00" y1="176.00" x2="1360.00" y2="512.00" />
<line x1="944.00" y1="192.00" x2="944.00" y2="304.00" />
<line x1="944.00" y1="336.00" x2="944.00" y2="512.00" />
<line x1="944.00" y1="640.00" x2="944.00" y2="784.00" />
<line x1="944.00" y1="1024.00" x2="944.00" y2="1056.00" />
<line x1="944.00" y1="1072.00" x2="944.00" y2="1088.00" />
<line x1="944.00" y1="1104.00" x2="944.00" y2="1168.00" />
<line x1="944.00" y1="1184.00" x2="944.00" y2="1248.00" />
<line x1="976.00" y1="192.00" x2="976.00" y2="272.00" />
<line x1="976.00" y1="368.00" x2="976.00" y2="512.00" />
<line x1="976.00" y1="640.00" x2="976.00" y2="784.00" />
<line x1="976.00" y1="800.00" x2="976.00" y2="848.00" />
<line x1="976.00" y1="864.00" x2="976.00" y2="944.00" />
<line x1="976.00" y1="1104.00" x2="976.00" y2="1168.00" />
<line x1="976.00" y1="1184.00" x2="976.00" y2="1424.00" />
<line x1="208.00" y1="208.00" x2="208.00" y2="1040.00" />
<line x1="208.00" y1="1136.00" x2="208.00" y2="1312.00" />
<line x1="224.00" y1="208.00" x2="224.00" y2="576.00" />
<line x1="224.00" y1="592.00" x2="224.00" y2="720.00" />
<line x1="224.00" y1="848.00" x2="224.00" y2="1040.00" />
<line x1="224.00" y1="1136.00" x2="224.00" y2="1312.00" />
<line x1="368.00" y1="224.00" x2="368.00" y2="304.00" />
<line x1="368.00" y1="336.00" x2="368.00" y2="576.00" />
<line x1="368.00" y1="592.00" x2="368.00" y2="784.00" />
<line x1="368.00" y1="800.00" x2="368.00" y2="880.00" />
<line x1="368.00" y1="1008.00" x2="368.00" y2="1056.00" />
<line x1="368.00" y1="1072.00" x2="368.00" y2="1088.00" />
<line x1="384.00" y1="224.00" x2="384.00" y2="304.00" />
<line x1="384.00" y1="336.00" x2="384.00" y2="576.00" />
<line x1="384.00" y1="688.00" x2="384.00" y2="784.00" />
<line x1="384.00" y1="800.00" x2="384.00" y2="944.00" />
<line x1="384.00" y1="960.00" x2="384.00" y2="1056.00" />
<line x1="384.00" y1="1072.00" x2="384.00" y2="1088.00" />
<line x1="528.00" y1="224.00" x2="528.00" y2="256.00" />
<line x1="528.00" y1="416.00" x2="528.00" y2="560.00" />
<line x1="528.00" y1="592.00" x2="528.00" y2="640.00" />
<line x1="528.00" y1="656.00" x2="528.00" y2="784.00" />
<line x1="528.00" y1="912.00" x2="528.00" y2="944.00" />
<line x1="528.00" y1="960.00" x2="528.00" y2="1056.00" />
<line x1="528.00" y1="1072.00" x2="528.00" y2="1088.00" />
<line x1="528.00" y1="1104.00" x2="528.00" y2="1168.00" />
<line x1="528.00" y1="1312.00" x2="528.00" y2="1328.00" />
<line x1="528.00" y1="1344.00" x2="528.00" y2="1376.00" />
<line x1="544.00" y1="224.00" x2="544.00" y2="256.00" />
<line x1="544.00" y1="416.00" x2="544.00" y2="560.00" />
<line x1="544.00" y1="592.00" x2="544.00" y2="640.00" />
<line x1="544.00" y1="656.00" x2="544.00" y2="784.00" />
<line x1="544.00" y1="912.00" x2="544.00" y2="944.00" />
<line x1="544.00" y1="960.00" x2="544.00" y2="1056.00" />
<line x1="544.00" y1="1072.00" x2="544.00" y2="1088.00" />
<line x1="544.00" y1="1104.00" x2="544.00" y2="1168.00" />
<line x1="544.00" y1="1312.00" x2="544.00" y2="1328.00" />
<line x1="544.00" y1="1344.00" x2="544.00" y2="1376.00" />
<line x1="496.00" y1="256.00" x2="496.00" y2="304.00" />
<line x1="496.00" y1="336.00" x2="496.00" y2="352.00" />
<line x1="496.00" y1="592.00" x2="496.00" y2="640.00" />
<line x1="496.00" y1="656.00" x2="496.00" y2="688.00" />
<line x1="624.00" y1="256.00" x2="624.00" y2="304.00" />
<line x1="624.00" y1="336.00" x2="624.00" y2="352.00" />
<line x1="624.00" y1="928.00" x2="624.00" y2="944.00" />
<line x1="624.00" y1="960.00" x2="624.00" y2="992.00" />
<line x1="624.00" y1="1120.00" x2="624.00" y2="1168.00" />
<line x1="624.00" y1="1184.00" x2="624.00" y2="1248.00" />
<line x1="624.00" y1="1264.00" x2="624.00" y2="1328.00" />
<line x1="624.00" y1="1344.00" x2="624.00" y2="1424.00" />
<line x1="624.00" y1="1440.00" x2="624.00" y2="1472.00" />
<line x1="1088.00" y1="272.00" x2="1088.00" y2="304.00" />
<line x1="1088.00" y1="320.00" x2="1088.00" y2="368.00" />
<line x1="1088.00" y1="384.00" x2="1088.00" y2="480.00" />
<line x1="304.00" y1="304.00" x2="304.00" y2="528.00" />
<line x1="304.00" y1="672.00" x2="304.00" y2="720.00" />
<line x1="304.00" y1="848.00" x2="304.00" y2="880.00" />
<line x1="304.00" y1="1008.00" x2="304.00" y2="1040.00" />
<line x1="304.00" y1="1136.00" x2="304.00" y2="1184.00" />
<line x1="1200.00" y1="304.00" x2="1200.00" y2="368.00" />
<line x1="1200.00" y1="1008.00" x2="1200.00" y2="1056.00" />
<line x1="1200.00" y1="1072.00" x2="1200.00" y2="1104.00" />
<line x1="1184.00" y1="320.00" x2="1184.00" y2="368.00" />
<line x1="1184.00" y1="624.00" x2="1184.00" y2="784.00" />
<line x1="1184.00" y1="928.00" x2="1184.00" y2="944.00" />
<line x1="1184.00" y1="960.00" x2="1184.00" y2="1056.00" />
<line x1="1184.00" y1="1072.00" x2="1184.00" y2="1344.00" />
<line x1="432.00" y1="336.00" x2="432.00" y2="576.00" />
<line x1="432.00" y1="688.00" x2="432.00" y2="784.00" />
<line x1="448.00" y1="336.00" x2="448.00" y2="560.00" />
<line x1="448.00" y1="688.00" x2="448.00" y2="784.00" />
<line x1="448.00" y1="1184.00" x2="448.00" y2="1312.00" />
<line x1="816.00" y1="336.00" x2="816.00" y2="352.00" />
<line x1="816.00" y1="464.00" x2="816.00" y2="560.00" />
<line x1="816.00" y1="720.00" x2="816.00" y2="784.00" />
<line x1="816.00" y1="800.00" x2="816.00" y2="848.00" />
<line x1="816.00" y1="976.00" x2="816.00" y2="1008.00" />
<line x1="816.00" y1="1024.00" x2="816.00" y2="1056.00" />
<line x1="816.00" y1="1072.00" x2="816.00" y2="1088.00" />
<line x1="816.00" y1="1104.00" x2="816.00" y2="1120.00" />
<line x1="816.00" y1="1280.00" x2="816.00" y2="1328.00" />
<line x1="816.00" y1="1344.00" x2="816.00" y2="1376.00" />
<line x1="832.00" y1="336.00" x2="832.00" y2="560.00" />
<line x1="832.00" y1="720.00" x2="832.00" y2="784.00" />
<line x1="832.00" y1="800.00" x2="832.00" y2="848.00" />
<line x1="832.00" y1="864.00" x2="832.00" y2="944.00" />
<line x1="832.00" y1="960.00" x2="832.00" y2="1008.00" />
<line x1="832.00" y1="1024.00" x2="832.00" y2="1056.00" />
<line x1="832.00" y1="1072.00" x2="832.00" y2="1088.00" />
<line x1="832.00" y1="1104.00" x2="832.00" y2="1120.00" />
<line x1="832.00" y1="1264.00" x2="832.00" y2="1280.00" />
<line x1="832.00" y1="1376.00" x2="832.00" y2="1392.00" />
<line x1="512.00" y1="352.00" x2="512.00" y2="560.00" />
<line x1="512.00" y1="592.00" x2="512.00" y2="640.00" />
<line x1="512.00" y1="656.00" x2="512.00" y2="784.00" />
<line x1="512.00" y1="912.00" x2="512.00" y2="944.00" />
<line x1="512.00" y1="960.00" x2="512.00" y2="1056.00" />
<line x1="512.00" y1="1072.00" x2="512.00" y2="1088.00" />
<line x1="512.00" y1="1104.00" x2="512.00" y2="1168.00" />
<line x1="512.00" y1="1312.00" x2="512.00" y2="1328.00" />
<line x1="512.00" y1="1344.00" x2="512.00" y2="1376.00" />
<line x1="560.00" y1="352.00" x2="560.00" y2="400.00" />
<line x1="560.00" y1="416.00" x2="560.00" y2="560.00" />
<line x1="560.00" y1="592.00" x2="560.00" y2="640.00" />
<line x1="560.00" y1="656.00" x2="560.00" y2="784.00" />
<line x1="560.00" y1="912.00" x2="560.00" y2="944.00" />
<line x1="560.00" y1="960.00" x2="560.00" y2="992.00" />
<line x1="560.00" y1="1120.00" x2="560.00" y2="1168.00" />
<line x1="560.00" y1="1312.00" x2="560.00" y2="1328.00" />
<line x1="560.00" y1="1344.00" x2="560.00" y2="1376.00" />
<line x1="1024.00" y1="368.00" x2="1024.00" y2="384.00" />
<line x1="1024.00" y1="480.00" x2="1024.00" y2="560.00" />
<line x1="1024.00" y1="592.00" x2="1024.00" y2="784.00" />
<line x1="1024.00" y1="800.00" x2="1024.00" y2="848.00" />
<line x1="1024.00" y1="864.00" x2="1024.00" y2="944.00" />
<line x1="1136.00" y1="368.00" x2="1136.00" y2="496.00" />
<line x1="1248.00" y1="368.00" x2="1248.00" y2="496.00" />
<line x1="1248.00" y1="1344.00" x2="1248.00" y2="1488.00" />
<line x1="992.00" y1="384.00" x2="992.00" y2="480.00" />
<line x1="1040.00" y1="480.00" x2="1040.00" y2="560.00" />
<line x1="1040.00" y1="592.00" x2="1040.00" y2="784.00" />
<line x1="1040.00" y1="800.00" x2="1040.00" y2="848.00" />
<line x1="1040.00" y1="864.00" x2="1040.00" y2="944.00" />
<line x1="1040.00" y1="1248.00" x2="1040.00" y2="1424.00" />
<line x1="1056.00" y1="480.00" x2="1056.00" y2="560.00" />
<line x1="1056.00" y1="592.00" x2="1056.00" y2="784.00" />
<line x1="1056.00" y1="800.00" x2="1056.00" y2="848.00" />
<line x1="1056.00" y1="864.00" x2="1056.00" y2="944.00" />
<line x1="1056.00" y1="960.00" x2="1056.00" y2="1056.00" />
<line x1="1056.00" y1="1072.00" x2="1056.00" y2="1088.00" />
<line x1="1056.00" y1="1248.00" x2="1056.00" y2="1424.00" />
<line x1="704.00" y1="512.00" x2="704.00" y2="560.00" />
<line x1="704.00" y1="592.00" x2="704.00" y2="640.00" />
<line x1="896.00" y1="512.00" x2="896.00" y2="560.00" />
<line x1="896.00" y1="592.00" x2="896.00" y2="640.00" />
<line x1="1120.00" y1="512.00" x2="1120.00" y2="560.00" />
<line x1="1120.00" y1="592.00" x2="1120.00" y2="624.00" />
<line x1="1232.00" y1="512.00" x2="1232.00" y2="576.00" />
<line x1="1232.00" y1="592.00" x2="1232.00" y2="624.00" />
<line x1="1328.00" y1="512.00" x2="1328.00" y2="528.00" />
<line x1="1328.00" y1="640.00" x2="1328.00" y2="656.00" />
<line x1="1328.00" y1="1008.00" x2="1328.00" y2="1104.00" />
<line x1="1392.00" y1="512.00" x2="1392.00" y2="528.00" />
<line x1="1392.00" y1="640.00" x2="1392.00" y2="656.00" />
<line x1="256.00" y1="528.00" x2="256.00" y2="576.00" />
<line x1="256.00" y1="592.00" x2="256.00" y2="672.00" />
<line x1="256.00" y1="1136.00" x2="256.00" y2="1312.00" />
<line x1="256.00" y1="1392.00" x2="256.00" y2="1424.00" />
<line x1="352.00" y1="528.00" x2="352.00" y2="576.00" />
<line x1="352.00" y1="592.00" x2="352.00" y2="672.00" />
<line x1="1312.00" y1="528.00" x2="1312.00" y2="544.00" />
<line x1="1312.00" y1="624.00" x2="1312.00" y2="640.00" />
<line x1="1408.00" y1="528.00" x2="1408.00" y2="544.00" />
<line x1="1408.00" y1="624.00" x2="1408.00" y2="640.00" />
<line x1="1296.00" y1="544.00" x2="1296.00" y2="576.00" />
<line x1="1296.00" y1="592.00" x2="1296.00" y2="624.00" />
<line x1="1296.00" y1="816.00" x2="1296.00" y2="896.00" />
<line x1="1424.00" y1="544.00" x2="1424.00" y2="624.00" />
<line x1="768.00" y1="592.00" x2="768.00" y2="640.00" />
<line x1="768.00" y1="656.00" x2="768.00" y2="720.00" />
<line x1="768.00" y1="1264.00" x2="768.00" y2="1328.00" />
<line x1="880.00" y1="592.00" x2="880.00" y2="784.00" />
<line x1="880.00" y1="912.00" x2="880.00" y2="944.00" />
<line x1="880.00" y1="960.00" x2="880.00" y2="1008.00" />
<line x1="880.00" y1="1024.00" x2="880.00" y2="1056.00" />
<line x1="880.00" y1="1072.00" x2="880.00" y2="1088.00" />
<line x1="880.00" y1="1104.00" x2="880.00" y2="1168.00" />
<line x1="880.00" y1="1184.00" x2="880.00" y2="1248.00" />
<line x1="1168.00" y1="624.00" x2="1168.00" y2="784.00" />
<line x1="1168.00" y1="800.00" x2="1168.00" y2="816.00" />
<line x1="1168.00" y1="896.00" x2="1168.00" y2="944.00" />
<line x1="1168.00" y1="960.00" x2="1168.00" y2="1056.00" />
<line x1="1168.00" y1="1072.00" x2="1168.00" y2="1088.00" />
<line x1="1168.00" y1="1104.00" x2="1168.00" y2="1344.00" />
<line x1="864.00" y1="720.00" x2="864.00" y2="784.00" />
<line x1="864.00" y1="800.00" x2="864.00" y2="848.00" />
<line x1="864.00" y1="864.00" x2="864.00" y2="944.00" />
<line x1="864.00" y1="960.00" x2="864.00" y2="1008.00" />
<line x1="864.00" y1="1024.00" x2="864.00" y2="1056.00" />
<line x1="864.00" y1="1072.00" x2="864.00" y2="1088.00" />
<line x1="864.00" y1="1104.00" x2="864.00" y2="1168.00" />
<line x1="864.00" y1="1184.00" x2="864.00" y2="1248.00" />
<line x1="1264.00" y1="784.00" x2="1264.00" y2="800.00" />
<line x1="1264.00" y1="912.00" x2="1264.00" y2="928.00" />
<line x1="1264.00" y1="960.00" x2="1264.00" y2="1008.00" />
<line x1="576.00" y1="800.00" x2="576.00" y2="848.00" />
<line x1="576.00" y1="864.00" x2="576.00" y2="912.00" />
<line x1="1280.00" y1="800.00" x2="1280.00" y2="816.00" />
<line x1="1280.00" y1="896.00" x2="1280.00" y2="912.00" />
<line x1="1280.00" y1="944.00" x2="1280.00" y2="1008.00" />
<line x1="1152.00" y1="816.00" x2="1152.00" y2="848.00" />
<line x1="1152.00" y1="864.00" x2="1152.00" y2="896.00" />
<line x1="736.00" y1="864.00" x2="736.00" y2="880.00" />
<line x1="736.00" y1="960.00" x2="736.00" y2="976.00" />
<line x1="736.00" y1="1024.00" x2="736.00" y2="1056.00" />
<line x1="736.00" y1="1072.00" x2="736.00" y2="1088.00" />
<line x1="736.00" y1="1104.00" x2="736.00" y2="1120.00" />
<line x1="736.00" y1="1216.00" x2="736.00" y2="1248.00" />
<line x1="272.00" y1="880.00" x2="272.00" y2="1008.00" />
<line x1="272.00" y1="1136.00" x2="272.00" y2="1328.00" />
<line x1="272.00" y1="1344.00" x2="272.00" y2="1392.00" />
<line x1="720.00" y1="880.00" x2="720.00" y2="912.00" />
<line x1="720.00" y1="928.00" x2="720.00" y2="944.00" />
<line x1="720.00" y1="1008.00" x2="720.00" y2="1056.00" />
<line x1="720.00" y1="1072.00" x2="720.00" y2="1088.00" />
<line x1="720.00" y1="1104.00" x2="720.00" y2="1168.00" />
<line x1="720.00" y1="1184.00" x2="720.00" y2="1248.00" />
<line x1="608.00" y1="912.00" x2="608.00" y2="944.00" />
<line x1="608.00" y1="960.00" x2="608.00" y2="992.00" />
<line x1="608.00" y1="1120.00" x2="608.00" y2="1168.00" />
<line x1="608.00" y1="1184.00" x2="608.00" y2="1248.00" />
<line x1="608.00" y1="1264.00" x2="608.00" y2="1328.00" />
<line x1="608.00" y1="1344.00" x2="608.00" y2="1376.00" />
<line x1="928.00" y1="912.00" x2="928.00" y2="944.00" />
<line x1="928.00" y1="960.00" x2="928.00" y2="1008.00" />
<line x1="928.00" y1="1280.00" x2="928.00" y2="1376.00" />
<line x1="336.00" y1="1008.00" x2="336.00" y2="1056.00" />
<line x1="336.00" y1="1072.00" x2="336.00" y2="1088.00" />
<line x1="336.00" y1="1104.00" x2="336.00" y2="1168.00" />
<line x1="192.00" y1="1040.00" x2="192.00" y2="1056.00" />
<line x1="192.00" y1="1136.00" x2="192.00" y2="1312.00" />
<line x1="176.00" y1="1056.00" x2="176.00" y2="1312.00" />
<line x1="1104.00" y1="1104.00" x2="1104.00" y2="1248.00" />
<line x1="1104.00" y1="1344.00" x2="1104.00" y2="1424.00" />
<line x1="1104.00" y1="1440.00" x2="1104.00" y2="1488.00" />
<line x1="848.00" y1="1120.00" x2="848.00" y2="1168.00" />
<line x1="848.00" y1="1184.00" x2="848.00" y2="1216.00" />
<line x1="960.00" y1="1264.00" x2="960.00" y2="1424.00" />
<line x1="112.00" y1="1312.00" x2="112.00" y2="1440.00" />
<line x1="480.00" y1="1376.00" x2="480.00" y2="1424.00" />
<line x1="480.00" y1="1440.00" x2="480.00" y2="1472.00" />
  </g>
  <g class="features">
<g data-feature-type="stairsDown"><line data-feature-type="stairsDown" x1="1186.24" y1="1395.36" x2="1197.76" y2="1395.36" /><line x1="1186.65" y1="1397.68" x2="1197.35" y2="1397.68" /><line x1="1187.07" y1="1400.00" x2="1196.93" y2="1400.00" /><line x1="1187.48" y1="1402.32" x2="1196.52" y2="1402.32" /><line x1="1187.90" y1="1404.64" x2="1196.10" y2="1404.64" /></g>
<g data-feature-type="stairsUp"><line data-feature-type="stairsUp" x1="1235.90" y1="851.36" x2="1244.10" y2="851.36" /><line x1="1235.48" y1="853.68" x2="1244.52" y2="853.68" /><line x1="1235.07" y1="856.00" x2="1244.93" y2="856.00" /><line x1="1234.65" y1="858.32" x2="1245.35" y2="858.32" /><line x1="1234.24" y1="860.64" x2="1245.76" y2="860.64" /></g>
<circle data-feature-type="pillar" cx="568.00" cy="1432.00" r="3.68" fill="#4f89a8" stroke="none" />
<g data-feature-type="statue"><circle cx="600.00" cy="1448.00" r="3.52" fill="none" /><line x1="597.76" y1="1448.00" x2="602.24" y2="1448.00" /><line x1="600.00" y1="1445.76" x2="600.00" y2="1450.24" /><line x1="598.39" y1="1446.39" x2="601.61" y2="1449.61" /><line x1="598.39" y1="1449.61" x2="601.61" y2="1446.39" /></g>
<circle data-feature-type="pillar" cx="584.00" cy="312.00" r="3.68" fill="#4f89a8" stroke="none" />
<circle data-feature-type="pillar" cx="600.00" cy="312.00" r="3.68" fill="#4f89a8" stroke="none" />
<circle data-feature-type="pillar" cx="632.00" cy="1064.00" r="3.68" fill="#4f89a8" stroke="none" />
<circle data-feature-type="pillar" cx="600.00" cy="1064.00" r="3.68" fill="#4f89a8" stroke="none" />
<g data-feature-type="well"><circle cx="632.00" cy="1016.00" r="4.00" fill="none" /><circle cx="632.00" cy="1016.00" r="2.24" fill="none" /></g>
<g data-feature-type="trap"><rect x="596.64" y="1012.64" width="6.72" height="6.72" fill="none" /><line x1="596.64" y1="1012.64" x2="603.36" y2="1019.36" /><line x1="596.64" y1="1019.36" x2="603.36" y2="1012.64" /></g>
<circle data-feature-type="pillar" cx="1064.00" cy="440.00" r="3.68" fill="#4f89a8" stroke="none" />
<circle data-feature-type="pillar" cx="344.00" cy="952.00" r="3.68" fill="#4f89a8" stroke="none" />
<g data-feature-type="altar"><rect x="309.28" y="918.40" width="5.44" height="3.20" fill="none" /><line x1="312.00" y1="917.44" x2="312.00" y2="922.56" /><line x1="310.40" y1="920.00" x2="313.60" y2="920.00" /></g>
<circle data-feature-type="pillar" cx="1032.00" cy="1016.00" r="3.68" fill="#4f89a8" stroke="none" />
<path data-feature-type="curtain" d="M 1014.40 963.84 Q 1016.00 966.34 1014.40 968.00 Q 1016.00 969.66 1014.40 972.16" fill="none" /><path d="M 1017.60 963.84 Q 1016.00 966.34 1017.60 968.00 Q 1016.00 969.66 1017.60 972.16" fill="none" />
<circle data-feature-type="pillar" cx="520.00" cy="824.00" r="3.68" fill="#4f89a8" stroke="none" />
<circle data-feature-type="pillar" cx="520.00" cy="888.00" r="3.68" fill="#4f89a8" stroke="none" />
<g data-feature-type="trap"><rect x="484.64" y="852.64" width="6.72" height="6.72" fill="none" /><line x1="484.64" y1="852.64" x2="491.36" y2="859.36" /><line x1="484.64" y1="859.36" x2="491.36" y2="852.64" /></g>
<g data-feature-type="coffin"><rect x="277.60" y="548.32" width="4.80" height="7.36" rx="0.80" ry="0.80" fill="none" /><line x1="280.00" y1="549.94" x2="280.00" y2="554.06" /></g>
<g data-feature-type="well"><circle cx="1176.00" cy="424.00" r="4.00" fill="none" /><circle cx="1176.00" cy="424.00" r="2.24" fill="none" /></g>
<g data-feature-type="trap"><rect x="1220.64" y="452.64" width="6.72" height="6.72" fill="none" /><line x1="1220.64" y1="452.64" x2="1227.36" y2="459.36" /><line x1="1220.64" y1="459.36" x2="1227.36" y2="452.64" /></g>
<circle data-feature-type="pillar" cx="1080.00" cy="1176.00" r="3.68" fill="#4f89a8" stroke="none" />
<circle data-feature-type="pillar" cx="744.00" cy="1304.00" r="3.68" fill="#4f89a8" stroke="none" />
<circle data-feature-type="pillar" cx="824.00" cy="616.00" r="3.68" fill="#4f89a8" stroke="none" />
<circle data-feature-type="pillar" cx="824.00" cy="680.00" r="3.68" fill="#4f89a8" stroke="none" />
<circle data-feature-type="pillar" cx="1160.00" cy="1416.00" r="3.68" fill="#4f89a8" stroke="none" />
<circle data-feature-type="pillar" cx="1144.00" cy="1416.00" r="3.68" fill="#4f89a8" stroke="none" />
<circle data-feature-type="pillar" cx="760.00" cy="408.00" r="3.68" fill="#4f89a8" stroke="none" />
<g data-feature-type="statue"><circle cx="728.00" cy="376.00" r="3.52" fill="none" /><line x1="725.76" y1="376.00" x2="730.24" y2="376.00" /><line x1="728.00" y1="373.76" x2="728.00" y2="378.24" /><line x1="726.39" y1="374.39" x2="729.61" y2="377.61" /><line x1="726.39" y1="377.61" x2="729.61" y2="374.39" /></g>
<circle data-feature-type="pillar" cx="1192.00" cy="568.00" r="3.68" fill="#4f89a8" stroke="none" />
<g data-feature-type="chest"><rect x="405.28" y="662.24" width="5.44" height="3.52" fill="none" /><line x1="405.28" y1="664.00" x2="410.72" y2="664.00" /><circle cx="408.00" cy="664.18" r="0.70" fill="#4f89a8" stroke="none" /></g>
<circle data-feature-type="pillar" cx="920.00" cy="856.00" r="3.68" fill="#4f89a8" stroke="none" />
<circle data-feature-type="pillar" cx="904.00" cy="856.00" r="3.68" fill="#4f89a8" stroke="none" />
<circle data-feature-type="pillar" cx="248.00" cy="1096.00" r="3.68" fill="#4f89a8" stroke="none" />
<circle data-feature-type="pillar" cx="232.00" cy="1096.00" r="3.68" fill="#4f89a8" stroke="none" />
<circle data-feature-type="pillar" cx="968.00" cy="584.00" r="3.68" fill="#4f89a8" stroke="none" />
<g data-feature-type="trap"><rect x="932.64" y="612.64" width="6.72" height="6.72" fill="none" /><line x1="932.64" y1="612.64" x2="939.36" y2="619.36" /><line x1="932.64" y1="619.36" x2="939.36" y2="612.64" /></g>
<circle data-feature-type="pillar" cx="1336.00" cy="584.00" r="3.68" fill="#4f89a8" stroke="none" />
<circle data-feature-type="pillar" cx="1400.00" cy="584.00" r="3.68" fill="#4f89a8" stroke="none" />
<g data-feature-type="statue"><circle cx="1336.00" cy="536.00" r="3.52" fill="none" /><line x1="1333.76" y1="536.00" x2="1338.24" y2="536.00" /><line x1="1336.00" y1="533.76" x2="1336.00" y2="538.24" /><line x1="1334.39" y1="534.39" x2="1337.61" y2="537.61" /><line x1="1334.39" y1="537.61" x2="1337.61" y2="534.39" /></g>
<circle data-feature-type="pillar" cx="280.00" cy="792.00" r="3.68" fill="#4f89a8" stroke="none" />
<circle data-feature-type="pillar" cx="392.00" cy="184.00" r="3.68" fill="#4f89a8" stroke="none" />
<g data-feature-type="chest"><rect x="389.28" y="150.24" width="5.44" height="3.52" fill="none" /><line x1="389.28" y1="152.00" x2="394.72" y2="152.00" /><circle cx="392.00" cy="152.18" r="0.70" fill="#4f89a8" stroke="none" /></g>
<circle data-feature-type="pillar" cx="872.00" cy="1320.00" r="3.68" fill="#4f89a8" stroke="none" />
<circle data-feature-type="pillar" cx="872.00" cy="1368.00" r="3.68" fill="#4f89a8" stroke="none" />
<g data-feature-type="statue"><circle cx="824.00" cy="1160.00" r="3.52" fill="none" /><line x1="821.76" y1="1160.00" x2="826.24" y2="1160.00" /><line x1="824.00" y1="1157.76" x2="824.00" y2="1162.24" /><line x1="822.39" y1="1158.39" x2="825.61" y2="1161.61" /><line x1="822.39" y1="1161.61" x2="825.61" y2="1158.39" /></g>
<circle data-feature-type="pillar" cx="1272.00" cy="1096.00" r="3.68" fill="#4f89a8" stroke="none" />
<circle data-feature-type="pillar" cx="1272.00" cy="1032.00" r="3.68" fill="#4f89a8" stroke="none" />
<g data-feature-type="statue"><circle cx="1288.00" cy="1032.00" r="3.52" fill="none" /><line x1="1285.76" y1="1032.00" x2="1290.24" y2="1032.00" /><line x1="1288.00" y1="1029.76" x2="1288.00" y2="1034.24" /><line x1="1286.39" y1="1030.39" x2="1289.61" y2="1033.61" /><line x1="1286.39" y1="1033.61" x2="1289.61" y2="1030.39" /></g>
<g data-feature-type="chest"><rect x="1301.28" y="1030.24" width="5.44" height="3.52" fill="none" /><line x1="1301.28" y1="1032.00" x2="1306.72" y2="1032.00" /><circle cx="1304.00" cy="1032.18" r="0.70" fill="#4f89a8" stroke="none" /></g>
<path data-feature-type="curtain" d="M 1222.40 1043.84 Q 1224.00 1046.34 1222.40 1048.00 Q 1224.00 1049.66 1222.40 1052.16" fill="none" /><path d="M 1225.60 1043.84 Q 1224.00 1046.34 1225.60 1048.00 Q 1224.00 1049.66 1225.60 1052.16" fill="none" />
<g data-feature-type="altar"><rect x="501.28" y="1286.40" width="5.44" height="3.20" fill="none" /><line x1="504.00" y1="1285.44" x2="504.00" y2="1290.56" /><line x1="502.40" y1="1288.00" x2="505.60" y2="1288.00" /></g>
<g data-feature-type="statue"><circle cx="136.00" cy="1384.00" r="3.52" fill="none" /><line x1="133.76" y1="1384.00" x2="138.24" y2="1384.00" /><line x1="136.00" y1="1381.76" x2="136.00" y2="1386.24" /><line x1="134.39" y1="1382.39" x2="137.61" y2="1385.61" /><line x1="134.39" y1="1385.61" x2="137.61" y2="1382.39" /></g>
<g data-feature-type="trap"><rect x="228.64" y="1412.64" width="6.72" height="6.72" fill="none" /><line x1="228.64" y1="1412.64" x2="235.36" y2="1419.36" /><line x1="228.64" y1="1419.36" x2="235.36" y2="1412.64" /></g>
<circle data-feature-type="pillar" cx="744.00" cy="136.00" r="3.68" fill="#4f89a8" stroke="none" />
<circle data-feature-type="pillar" cx="744.00" cy="152.00" r="3.68" fill="#4f89a8" stroke="none" />
<g data-feature-type="altar"><rect x="693.28" y="166.40" width="5.44" height="3.20" fill="none" /><line x1="696.00" y1="165.44" x2="696.00" y2="170.56" /><line x1="694.40" y1="168.00" x2="697.60" y2="168.00" /></g>
<g data-feature-type="well"><circle cx="1176.00" cy="856.00" r="4.00" fill="none" /><circle cx="1176.00" cy="856.00" r="2.24" fill="none" /></g>
<circle data-feature-type="pillar" cx="248.00" cy="152.00" r="3.68" fill="#4f89a8" stroke="none" />
<circle data-feature-type="pillar" cx="184.00" cy="152.00" r="3.68" fill="#4f89a8" stroke="none" />
<g data-feature-type="well"><circle cx="680.00" cy="584.00" r="4.00" fill="none" /><circle cx="680.00" cy="584.00" r="2.24" fill="none" /></g>
<g data-feature-type="trap"><rect x="676.64" y="532.64" width="6.72" height="6.72" fill="none" /><line x1="676.64" y1="532.64" x2="683.36" y2="539.36" /><line x1="676.64" y1="539.36" x2="683.36" y2="532.64" /></g>
<circle data-feature-type="pillar" cx="792.00" cy="920.00" r="3.68" fill="#4f89a8" stroke="none" />
<g data-feature-type="well"><circle cx="792.00" cy="952.00" r="4.00" fill="none" /><circle cx="792.00" cy="952.00" r="2.24" fill="none" /></g>
<g data-feature-type="chest"><rect x="1013.28" y="342.24" width="5.44" height="3.52" fill="none" /><line x1="1013.28" y1="344.00" x2="1018.72" y2="344.00" /><circle cx="1016.00" cy="344.18" r="0.70" fill="#4f89a8" stroke="none" /></g>
<circle data-feature-type="pillar" cx="984.00" cy="152.00" r="3.68" fill="#4f89a8" stroke="none" />
  </g>
  <g class="thresholds">
<rect data-threshold-type="door" x="611.52" y="1381.76" width="8.96" height="4.48" fill="#ffffff" stroke="#4f89a8" stroke-width="1.52" />
<rect data-threshold-type="door" x="499.52" y="309.76" width="8.96" height="4.48" fill="#ffffff" stroke="#4f89a8" stroke-width="1.52" />
<rect data-threshold-type="door" x="563.52" y="1093.76" width="8.96" height="4.48" fill="#ffffff" stroke="#4f89a8" stroke-width="1.52" />
<rect data-threshold-type="door" x="1011.52" y="469.76" width="8.96" height="4.48" fill="#ffffff" stroke="#4f89a8" stroke-width="1.52" />
<rect data-threshold-type="door" x="307.52" y="997.76" width="8.96" height="4.48" fill="#ffffff" stroke="#4f89a8" stroke-width="1.52" />
<rect data-threshold-type="door" x="1043.52" y="1077.76" width="8.96" height="4.48" fill="#ffffff" stroke="#4f89a8" stroke-width="1.52" />
<rect data-threshold-type="door" x="467.52" y="805.76" width="8.96" height="4.48" fill="#ffffff" stroke="#4f89a8" stroke-width="1.52" />
<rect data-threshold-type="door" x="339.52" y="581.76" width="8.96" height="4.48" fill="#ffffff" stroke="#4f89a8" stroke-width="1.52" />
<rect data-threshold-type="door" x="1187.52" y="373.76" width="8.96" height="4.48" fill="#ffffff" stroke="#4f89a8" stroke-width="1.52" />
<rect data-threshold-type="door" x="1043.52" y="1237.76" width="8.96" height="4.48" fill="#ffffff" stroke="#4f89a8" stroke-width="1.52" />
<rect data-threshold-type="door" x="723.52" y="1253.76" width="8.96" height="4.48" fill="#ffffff" stroke="#4f89a8" stroke-width="1.52" />
<rect data-threshold-type="door" x="867.52" y="709.76" width="8.96" height="4.48" fill="#ffffff" stroke="#4f89a8" stroke-width="1.52" />
<rect data-threshold-type="door" x="1107.52" y="1429.76" width="8.96" height="4.48" fill="#ffffff" stroke="#4f89a8" stroke-width="1.52" />
<rect data-threshold-type="door" x="803.52" y="357.76" width="8.96" height="4.48" fill="#ffffff" stroke="#4f89a8" stroke-width="1.52" />
<rect data-threshold-type="door" x="1123.52" y="581.76" width="8.96" height="4.48" fill="#ffffff" stroke="#4f89a8" stroke-width="1.52" />
<rect data-threshold-type="door" x="467.52" y="597.76" width="8.96" height="4.48" fill="#ffffff" stroke="#4f89a8" stroke-width="1.52" />
<rect data-threshold-type="door" x="883.52" y="901.76" width="8.96" height="4.48" fill="#ffffff" stroke="#4f89a8" stroke-width="1.52" />
<rect data-threshold-type="door" x="307.52" y="1045.76" width="8.96" height="4.48" fill="#ffffff" stroke="#4f89a8" stroke-width="1.52" />
<rect data-threshold-type="door" x="995.52" y="613.76" width="8.96" height="4.48" fill="#ffffff" stroke="#4f89a8" stroke-width="1.52" />
<rect data-threshold-type="door" x="1299.52" y="581.76" width="8.96" height="4.48" fill="#ffffff" stroke="#4f89a8" stroke-width="1.52" />
<g data-threshold-type="secret"><line x1="291.52" y1="744.00" x2="300.48" y2="744.00" stroke="#4f89a8" stroke-width="1.31" stroke-dasharray="1.31 1.31" /><text x="301.56" y="743.10" font-size="5.44" fill="#4f89a8" font-family="Courier New, monospace" font-weight="700">S</text></g>
<rect data-threshold-type="door" x="371.52" y="213.76" width="8.96" height="4.48" fill="#ffffff" stroke="#4f89a8" stroke-width="1.52" />
<rect data-threshold-type="door" x="531.52" y="213.76" width="8.96" height="4.48" fill="#ffffff" stroke="#4f89a8" stroke-width="1.52" />
<rect data-threshold-type="door" x="835.52" y="1269.76" width="8.96" height="4.48" fill="#ffffff" stroke="#4f89a8" stroke-width="1.52" />
<rect data-threshold-type="door" x="739.52" y="1125.76" width="8.96" height="4.48" fill="#ffffff" stroke="#4f89a8" stroke-width="1.52" />
<rect data-threshold-type="door" x="1203.52" y="1061.76" width="8.96" height="4.48" fill="#ffffff" stroke="#4f89a8" stroke-width="1.52" />
<rect data-threshold-type="door" x="563.52" y="1189.76" width="8.96" height="4.48" fill="#ffffff" stroke="#4f89a8" stroke-width="1.52" />
<rect data-threshold-type="door" x="243.52" y="1429.76" width="8.96" height="4.48" fill="#ffffff" stroke="#4f89a8" stroke-width="1.52" />
<rect data-threshold-type="door" x="675.52" y="149.76" width="8.96" height="4.48" fill="#ffffff" stroke="#4f89a8" stroke-width="1.52" />
<rect data-threshold-type="door" x="1155.52" y="853.76" width="8.96" height="4.48" fill="#ffffff" stroke="#4f89a8" stroke-width="1.52" />
<rect data-threshold-type="door" x="211.52" y="197.76" width="8.96" height="4.48" fill="#ffffff" stroke="#4f89a8" stroke-width="1.52" />
<rect data-threshold-type="door" x="691.52" y="645.76" width="8.96" height="4.48" fill="#ffffff" stroke="#4f89a8" stroke-width="1.52" />
<rect data-threshold-type="door" x="787.52" y="869.76" width="8.96" height="4.48" fill="#ffffff" stroke="#4f89a8" stroke-width="1.52" />
<rect data-threshold-type="door" x="979.52" y="277.76" width="8.96" height="4.48" fill="#ffffff" stroke="#4f89a8" stroke-width="1.52" />
<g data-threshold-type="secret"><line x1="915.52" y1="152.00" x2="924.48" y2="152.00" stroke="#4f89a8" stroke-width="1.31" stroke-dasharray="1.31 1.31" /><text x="925.56" y="151.10" font-size="5.44" fill="#4f89a8" font-family="Courier New, monospace" font-weight="700">S</text></g>
  </g>
  <g class="labels">
<text x="552.00" y="1433.92" text-anchor="middle">1</text>
<text x="568.00" y="313.92" text-anchor="middle">2</text>
<text x="616.00" y="1065.92" text-anchor="middle">3</text>
<text x="1048.00" y="441.92" text-anchor="middle">4</text>
<text x="328.00" y="953.92" text-anchor="middle">5</text>
<text x="1016.00" y="1017.92" text-anchor="middle">6</text>
<text x="520.00" y="857.92" text-anchor="middle">7</text>
<text x="312.00" y="601.92" text-anchor="middle">8</text>
<text x="1192.00" y="441.92" text-anchor="middle">9</text>
<text x="1064.00" y="1177.92" text-anchor="middle">10</text>
<text x="728.00" y="1305.92" text-anchor="middle">11</text>
<text x="824.00" y="649.92" text-anchor="middle">12</text>
<text x="1176.00" y="1417.92" text-anchor="middle">13</text>
<text x="744.00" y="409.92" text-anchor="middle">14</text>
<text x="1176.00" y="569.92" text-anchor="middle">15</text>
<text x="440.00" y="649.92" text-anchor="middle">16</text>
<text x="936.00" y="857.92" text-anchor="middle">17</text>
<text x="264.00" y="1097.92" text-anchor="middle">18</text>
<text x="952.00" y="585.92" text-anchor="middle">19</text>
<text x="1368.00" y="585.92" text-anchor="middle">20</text>
<text x="264.00" y="793.92" text-anchor="middle">21</text>
<text x="376.00" y="185.92" text-anchor="middle">22</text>
<text x="536.00" y="169.92" text-anchor="middle">23</text>
<text x="872.00" y="1337.92" text-anchor="middle">24</text>
<text x="792.00" y="1177.92" text-anchor="middle">25</text>
<text x="1272.00" y="1065.92" text-anchor="middle">26</text>
<text x="520.00" y="1257.92" text-anchor="middle">27</text>
<text x="184.00" y="1385.92" text-anchor="middle">28</text>
<text x="744.00" y="169.92" text-anchor="middle">29</text>
<text x="1224.00" y="857.92" text-anchor="middle">30</text>
<text x="216.00" y="153.92" text-anchor="middle">31</text>
<text x="648.00" y="585.92" text-anchor="middle">32</text>
<text x="776.00" y="921.92" text-anchor="middle">33</text>
<text x="1032.00" y="329.92" text-anchor="middle">34</text>
<text x="968.00" y="153.92" text-anchor="middle">35</text>
  </g>
</svg>