<?xml version="1.0" encoding="UTF-8"?>
<svg xmlns="http://www.w3.org/2000/svg" width="1504" height="1536" viewBox="0 0 1504.00 1536.00" role="img" aria-label="MapIR render: Learned Generated Map 4">
  <defs>
    <style>
      .grid { stroke: #cde2ec; stroke-width: 0.64; opacity: 0.72; }
      .walls { stroke: #6aa7c7; stroke-width: 1.92; fill: none; stroke-linecap: square; }
      .thresholds { fill: none; stroke-linecap: round; }
      .features { stroke: #4f89a8; fill: none; stroke-width: 1.60; stroke-linecap: round; stroke-linejoin: round; }
      .labels { fill: #4f89a8; font-size: 7.20px; font-family: "Courier New", monospace; font-weight: 600; }
    </style>
  </defs>
  <rect x="0" y="0" width="1504.00" height="1536.00" fill="#4393be" />
  <g class="floors">
<rect x="448.00" y="48.00" width="112.00" height="80.00" fill="#fcfdfe" />
<rect x="1056.00" y="48.00" width="128.00" height="64.00" fill="#fcfdfe" />
<rect x="96.00" y="80.00" width="352.00" height="16.00" fill="#fcfdfe" />
<rect x="784.00" y="80.00" width="272.00" height="16.00" fill="#fcfdfe" />
<rect x="96.00" y="96.00" width="16.00" height="1168.00" fill="#fcfdfe" />
<rect x="784.00" y="96.00" width="176.00" height="160.00" fill="#fcfdfe" />
<rect x="368.00" y="144.00" width="416.00" height="16.00" fill="#fcfdfe" />
<rect x="64.00" y="160.00" width="32.00" height="144.00" fill="#fcfdfe" />
<rect x="112.00" y="160.00" width="16.00" height="144.00" fill="#fcfdfe" />
<rect x="368.00" y="160.00" width="16.00" height="464.00" fill="#fcfdfe" />
<rect x="432.00" y="160.00" width="16.00" height="864.00" fill="#fcfdfe" />
<rect x="192.00" y="176.00" width="112.00" height="128.00" fill="#fcfdfe" />
<rect x="128.00" y="224.00" width="64.00" height="16.00" fill="#fcfdfe" />
<rect x="304.00" y="224.00" width="64.00" height="32.00" fill="#fcfdfe" />
<rect x="384.00" y="224.00" width="48.00" height="32.00" fill="#fcfdfe" />
<rect x="448.00" y="224.00" width="336.00" height="32.00" fill="#fcfdfe" />
<rect x="960.00" y="224.00" width="416.00" height="32.00" fill="#fcfdfe" />
<rect x="400.00" y="256.00" width="32.00" height="112.00" fill="#fcfdfe" />
<rect x="448.00" y="256.00" width="96.00" height="112.00" fill="#fcfdfe" />
<rect x="944.00" y="256.00" width="16.00" height="864.00" fill="#fcfdfe" />
<rect x="1280.00" y="256.00" width="176.00" height="48.00" fill="#fcfdfe" />
<rect x="304.00" y="272.00" width="64.00" height="16.00" fill="#fcfdfe" />
<rect x="384.00" y="272.00" width="16.00" height="16.00" fill="#fcfdfe" />
<rect x="544.00" y="272.00" width="400.00" height="16.00" fill="#fcfdfe" />
<rect x="960.00" y="272.00" width="320.00" height="16.00" fill="#fcfdfe" />
<rect x="352.00" y="288.00" width="16.00" height="560.00" fill="#fcfdfe" />
<rect x="1136.00" y="288.00" width="16.00" height="1120.00" fill="#fcfdfe" />
<rect x="256.00" y="304.00" width="16.00" height="960.00" fill="#fcfdfe" />
<rect x="1328.00" y="304.00" width="16.00" height="672.00" fill="#fcfdfe" />
<rect x="1360.00" y="304.00" width="16.00" height="464.00" fill="#fcfdfe" />
<rect x="128.00" y="352.00" width="128.00" height="176.00" fill="#fcfdfe" />
<rect x="464.00" y="368.00" width="16.00" height="656.00" fill="#fcfdfe" />
<rect x="992.00" y="368.00" width="144.00" height="176.00" fill="#fcfdfe" />
<rect x="272.00" y="432.00" width="80.00" height="16.00" fill="#fcfdfe" />
<rect x="384.00" y="432.00" width="48.00" height="32.00" fill="#fcfdfe" />
<rect x="448.00" y="432.00" width="16.00" height="32.00" fill="#fcfdfe" />
<rect x="480.00" y="432.00" width="464.00" height="32.00" fill="#fcfdfe" />
<rect x="960.00" y="432.00" width="32.00" height="32.00" fill="#fcfdfe" />
<rect x="1152.00" y="432.00" width="144.00" height="16.00" fill="#fcfdfe" />
<rect x="288.00" y="448.00" width="64.00" height="16.00" fill="#fcfdfe" />
<rect x="1280.00" y="448.00" width="16.00" height="896.00" fill="#fcfdfe" />
<rect x="288.00" y="464.00" width="16.00" height="800.00" fill="#fcfdfe" />
<rect x="576.00" y="464.00" width="176.00" height="112.00" fill="#fcfdfe" />
<rect x="336.00" y="560.00" width="16.00" height="64.00" fill="#fcfdfe" />
<rect x="384.00" y="560.00" width="32.00" height="64.00" fill="#fcfdfe" />
<rect x="592.00" y="576.00" width="16.00" height="272.00" fill="#fcfdfe" />
<rect x="656.00" y="576.00" width="16.00" height="464.00" fill="#fcfdfe" />
<rect x="688.00" y="576.00" width="16.00" height="768.00" fill="#fcfdfe" />
<rect x="416.00" y="592.00" width="16.00" height="16.00" fill="#fcfdfe" />
<rect x="448.00" y="592.00" width="16.00" height="16.00" fill="#fcfdfe" />
<rect x="480.00" y="592.00" width="112.00" height="16.00" fill="#fcfdfe" />
<rect x="608.00" y="592.00" width="48.00" height="16.00" fill="#fcfdfe" />
<rect x="672.00" y="592.00" width="16.00" height="16.00" fill="#fcfdfe" />
<rect x="704.00" y="592.00" width="240.00" height="16.00" fill="#fcfdfe" />
<rect x="960.00" y="592.00" width="176.00" height="16.00" fill="#fcfdfe" />
<rect x="1152.00" y="592.00" width="128.00" height="16.00" fill="#fcfdfe" />
<rect x="1296.00" y="592.00" width="32.00" height="16.00" fill="#fcfdfe" />
<rect x="1344.00" y="592.00" width="16.00" height="16.00" fill="#fcfdfe" />
<rect x="960.00" y="608.00" width="128.00" height="64.00" fill="#fcfdfe" />
<rect x="1088.00" y="624.00" width="48.00" height="16.00" fill="#fcfdfe" />
<rect x="1152.00" y="624.00" width="128.00" height="16.00" fill="#fcfdfe" />
<rect x="1296.00" y="624.00" width="32.00" height="16.00" fill="#fcfdfe" />
<rect x="1008.00" y="672.00" width="16.00" height="736.00" fill="#fcfdfe" />
<rect x="64.00" y="704.00" width="32.00" height="96.00" fill="#fcfdfe" />
<rect x="112.00" y="704.00" width="96.00" height="96.00" fill="#fcfdfe" />
<rect x="512.00" y="704.00" width="80.00" height="112.00" fill="#fcfdfe" />
<rect x="608.00" y="704.00" width="48.00" height="112.00" fill="#fcfdfe" />
<rect x="672.00" y="704.00" width="16.00" height="112.00" fill="#fcfdfe" />
<rect x="208.00" y="752.00" width="48.00" height="16.00" fill="#fcfdfe" />
<rect x="272.00" y="752.00" width="16.00" height="16.00" fill="#fcfdfe" />
<rect x="304.00" y="752.00" width="48.00" height="16.00" fill="#fcfdfe" />
<rect x="368.00" y="752.00" width="64.00" height="16.00" fill="#fcfdfe" />
<rect x="448.00" y="752.00" width="16.00" height="16.00" fill="#fcfdfe" />
<rect x="480.00" y="752.00" width="32.00" height="16.00" fill="#fcfdfe" />
<rect x="704.00" y="752.00" width="240.00" height="16.00" fill="#fcfdfe" />
<rect x="960.00" y="752.00" width="48.00" height="16.00" fill="#fcfdfe" />
<rect x="1024.00" y="752.00" width="112.00" height="16.00" fill="#fcfdfe" />
<rect x="1152.00" y="752.00" width="128.00" height="16.00" fill="#fcfdfe" />
<rect x="1296.00" y="752.00" width="32.00" height="16.00" fill="#fcfdfe" />
<rect x="1344.00" y="752.00" width="16.00" height="16.00" fill="#fcfdfe" />
<rect x="336.00" y="768.00" width="16.00" height="80.00" fill="#fcfdfe" />
<rect x="368.00" y="768.00" width="16.00" height="80.00" fill="#fcfdfe" />
<rect x="128.00" y="800.00" width="16.00" height="528.00" fill="#fcfdfe" />
<rect x="304.00" y="800.00" width="32.00" height="16.00" fill="#fcfdfe" />
<rect x="384.00" y="800.00" width="48.00" height="16.00" fill="#fcfdfe" />
<rect x="448.00" y="800.00" width="16.00" height="16.00" fill="#fcfdfe" />
<rect x="480.00" y="800.00" width="32.00" height="16.00" fill="#fcfdfe" />
<rect x="864.00" y="800.00" width="80.00" height="64.00" fill="#fcfdfe" />
<rect x="960.00" y="800.00" width="48.00" height="64.00" fill="#fcfdfe" />
<rect x="1024.00" y="800.00" width="16.00" height="64.00" fill="#fcfdfe" />
<rect x="576.00" y="816.00" width="16.00" height="176.00" fill="#fcfdfe" />
<rect x="112.00" y="832.00" width="16.00" height="16.00" fill="#fcfdfe" />
<rect x="144.00" y="832.00" width="112.00" height="16.00" fill="#fcfdfe" />
<rect x="272.00" y="832.00" width="16.00" height="16.00" fill="#fcfdfe" />
<rect x="304.00" y="832.00" width="32.00" height="16.00" fill="#fcfdfe" />
<rect x="384.00" y="832.00" width="48.00" height="16.00" fill="#fcfdfe" />
<rect x="448.00" y="832.00" width="16.00" height="16.00" fill="#fcfdfe" />
<rect x="480.00" y="832.00" width="96.00" height="16.00" fill="#fcfdfe" />
<rect x="608.00" y="832.00" width="48.00" height="16.00" fill="#fcfdfe" />
<rect x="672.00" y="832.00" width="16.00" height="16.00" fill="#fcfdfe" />
<rect x="704.00" y="832.00" width="160.00" height="16.00" fill="#fcfdfe" />
<rect x="1296.00" y="848.00" width="32.00" height="128.00" fill="#fcfdfe" />
<rect x="1344.00" y="848.00" width="48.00" height="128.00" fill="#fcfdfe" />
<rect x="1264.00" y="864.00" width="16.00" height="112.00" fill="#fcfdfe" />
<rect x="1392.00" y="864.00" width="16.00" height="96.00" fill="#fcfdfe" />
<rect x="1248.00" y="880.00" width="16.00" height="64.00" fill="#fcfdfe" />
<rect x="1408.00" y="880.00" width="16.00" height="64.00" fill="#fcfdfe" />
<rect x="384.00" y="896.00" width="48.00" height="128.00" fill="#fcfdfe" />
<rect x="448.00" y="896.00" width="16.00" height="128.00" fill="#fcfdfe" />
<rect x="480.00" y="896.00" width="16.00" height="128.00" fill="#fcfdfe" />
<rect x="544.00" y="896.00" width="32.00" height="96.00" fill="#fcfdfe" />
<rect x="592.00" y="896.00" width="32.00" height="96.00" fill="#fcfdfe" />
<rect x="272.00" y="912.00" width="16.00" height="96.00" fill="#fcfdfe" />
<rect x="304.00" y="912.00" width="16.00" height="96.00" fill="#fcfdfe" />
<rect x="368.00" y="912.00" width="16.00" height="96.00" fill="#fcfdfe" />
<rect x="496.00" y="912.00" width="16.00" height="96.00" fill="#fcfdfe" />
<rect x="352.00" y="928.00" width="16.00" height="64.00" fill="#fcfdfe" />
<rect x="512.00" y="928.00" width="16.00" height="64.00" fill="#fcfdfe" />
<rect x="928.00" y="944.00" width="16.00" height="176.00" fill="#fcfdfe" />
<rect x="528.00" y="960.00" width="16.00" height="16.00" fill="#fcfdfe" />
<rect x="624.00" y="960.00" width="32.00" height="16.00" fill="#fcfdfe" />
<rect x="672.00" y="960.00" width="16.00" height="16.00" fill="#fcfdfe" />
<rect x="704.00" y="960.00" width="224.00" height="16.00" fill="#fcfdfe" />
<rect x="960.00" y="960.00" width="48.00" height="16.00" fill="#fcfdfe" />
<rect x="1024.00" y="960.00" width="112.00" height="16.00" fill="#fcfdfe" />
<rect x="1152.00" y="960.00" width="112.00" height="16.00" fill="#fcfdfe" />
<rect x="896.00" y="976.00" width="32.00" height="128.00" fill="#fcfdfe" />
<rect x="960.00" y="976.00" width="32.00" height="128.00" fill="#fcfdfe" />
<rect x="880.00" y="992.00" width="16.00" height="80.00" fill="#fcfdfe" />
<rect x="992.00" y="992.00" width="16.00" height="80.00" fill="#fcfdfe" />
<rect x="672.00" y="1024.00" width="16.00" height="16.00" fill="#fcfdfe" />
<rect x="704.00" y="1024.00" width="176.00" height="16.00" fill="#fcfdfe" />
<rect x="224.00" y="1088.00" width="32.00" height="176.00" fill="#fcfdfe" />
<rect x="272.00" y="1088.00" width="16.00" height="176.00" fill="#fcfdfe" />
<rect x="208.00" y="1104.00" width="16.00" height="128.00" fill="#fcfdfe" />
<rect x="304.00" y="1104.00" width="16.00" height="128.00" fill="#fcfdfe" />
<rect x="192.00" y="1152.00" width="16.00" height="32.00" fill="#fcfdfe" />
<rect x="320.00" y="1152.00" width="16.00" height="32.00" fill="#fcfdfe" />
<rect x="592.00" y="1152.00" width="96.00" height="192.00" fill="#fcfdfe" />
<rect x="704.00" y="1152.00" width="80.00" height="192.00" fill="#fcfdfe" />
<rect x="1088.00" y="1232.00" width="48.00" height="176.00" fill="#fcfdfe" />
<rect x="1152.00" y="1232.00" width="32.00" height="176.00" fill="#fcfdfe" />
<rect x="1216.00" y="1232.00" width="64.00" height="112.00" fill="#fcfdfe" />
<rect x="1296.00" y="1232.00" width="48.00" height="112.00" fill="#fcfdfe" />
<rect x="112.00" y="1248.00" width="16.00" height="16.00" fill="#fcfdfe" />
<rect x="144.00" y="1248.00" width="80.00" height="16.00" fill="#fcfdfe" />
<rect x="304.00" y="1248.00" width="288.00" height="16.00" fill="#fcfdfe" />
<rect x="784.00" y="1280.00" width="224.00" height="16.00" fill="#fcfdfe" />
<rect x="1024.00" y="1280.00" width="64.00" height="16.00" fill="#fcfdfe" />
<rect x="1184.00" y="1280.00" width="32.00" height="16.00" fill="#fcfdfe" />
<rect x="144.00" y="1312.00" width="448.00" height="16.00" fill="#fcfdfe" />
<rect x="784.00" y="1312.00" width="224.00" height="16.00" fill="#fcfdfe" />
<rect x="1024.00" y="1312.00" width="64.00" height="16.00" fill="#fcfdfe" />
<rect x="1360.00" y="1360.00" width="64.00" height="80.00" fill="#fcfdfe" />
<rect x="1024.00" y="1392.00" width="64.00" height="16.00" fill="#fcfdfe" />
<rect x="1184.00" y="1392.00" width="176.00" height="16.00" fill="#fcfdfe" />
  </g>
  <g class="grid">
<line x1="0.00" y1="0" x2="0.00" y2="1536.00" />
<line x1="16.00" y1="0" x2="16.00" y2="1536.00" />
<line x1="32.00" y1="0" x2="32.00" y2="1536.00" />
<line x1="48.00" y1="0" x2="48.00" y2="1536.00" />
<line x1="64.00" y1="0" x2="64.00" y2="1536.00" />
<line x1="80.00" y1="0" x2="80.00" y2="1536.00" />
<line x1="96.00" y1="0" x2="96.00" y2="1536.00" />
<line x1="112.00" y1="0" x2="112.00" y2="1536.00" />
<line x1="128.00" y1="0" x2="128.00" y2="1536.00" />
<line x1="144.00" y1="0" x2="144.00" y2="1536.00" />
<line x1="160.00" y1="0" x2="160.00" y2="1536.00" />
<line x1="176.00" y1="0" x2="176.00" y2="1536.00" />
<line x1="192.00" y1="0" x2="192.00" y2="1536.00" />
<line x1="208.00" y1="0" x2="208.00" y2="1536.00" />
<line x1="224.00" y1="0" x2="224.00" y2="1536.00" />
<line x1="240.00" y1="0" x2="240.00" y2="1536.00" />
<line x1="256.00" y1="0" x2="256.00" y2="1536.00" />
<line x1="272.00" y1="0" x2="272.00" y2="1536.00" />
<line x1="288.00" y1="0" x2="288.00" y2="1536.00" />
<line x1="304.00" y1="0" x2="304.00" y2="1536.00" />
<line x1="320.00" y1="0" x2="320.00" y2="1536.00" />
<line x1="336.00" y1="0" x2="336.00" y2="1536.00" />
<line x1="352.00" y1="0" x2="352.00" y2="1536.00" />
<line x1="368.00" y1="0" x2="368.00" y2="1536.00" />
<line x1="384.00" y1="0" x2="384.00" y2="1536.00" />
<line x1="400.00" y1="0" x2="400.00" y2="1536.00" />
<line x1="416.00" y1="0" x2="416.00" y2="1536.00" />
<line x1="432.00" y1="0" x2="432.00" y2="1536.00" />
<line x1="448.00" y1="0" x2="448.00" y2="1536.00" />
<line x1="464.00" y1="0" x2="464.00" y2="1536.00" />
<line x1="480.00" y1="0" x2="480.00" y2="1536.00" />
<line x1="496.00" y1="0" x2="496.00" y2="1536.00" />
<line x1="512.00" y1="0" x2="512.00" y2="1536.00" />
<line x1="528.00" y1="0" x2="528.00" y2="1536.00" />
<line x1="544.00" y1="0" x2="544.00" y2="1536.00" />
<line x1="560.00" y1="0" x2="560.00" y2="1536.00" />
<line x1="576.00" y1="0" x2="576.00" y2="1536.00" />
<line x1="592.00" y1="0" x2="592.00" y2="1536.00" />
<line x1="608.00" y1="0" x2="608.00" y2="1536.00" />
<line x1="624.00" y1="0" x2="624.00" y2="1536.00" />
<line x1="640.00" y1="0" x2="640.00" y2="1536.00" />
<line x1="656.00" y1="0" x2="656.00" y2="1536.00" />
<line x1="672.00" y1="0" x2="672.00" y2="1536.00" />
<line x1="688.00" y1="0" x2="688.00" y2="1536.00" />
<line x1="704.00" y1="0" x2="704.00" y2="1536.00" />
<line x1="720.00" y1="0" x2="720.00" y2="1536.00" />
<line x1="736.00" y1="0" x2="736.00" y2="1536.00" />
<line x1="752.00" y1="0" x2="752.00" y2="1536.00" />
<line x1="768.00" y1="0" x2="768.00" y2="1536.00" />
<line x1="784.00" y1="0" x2="784.00" y2="1536.00" />
<line x1="800.00" y1="0" x2="800.00" y2="1536.00" />
<line x1="816.00" y1="0" x2="816.00" y2="1536.00" />
<line x1="832.00" y1="0" x2="832.00" y2="1536.00" />
<line x1="848.00" y1="0" x2="848.00" y2="1536.00" />
<line x1="864.00" y1="0" x2="864.00" y2="1536.00" />
<line x1="880.00" y1="0" x2="880.00" y2="1536.00" />
<line x1="896.00" y1="0" x2="896.00" y2="1536.00" />
<line x1="912.00" y1="0" x2="912.00" y2="1536.00" />
<line x1="928.00" y1="0" x2="928.00" y2="1536.00" />
<line x1="944.00" y1="0" x2="944.00" y2="1536.00" />
<line x1="960.00" y1="0" x2="960.00" y2="1536.00" />
<line x1="976.00" y1="0" x2="976.00" y2="1536.00" />
<line x1="992.00" y1="0" x2="992.00" y2="1536.00" />
<line x1="1008.00" y1="0" x2="1008.00" y2="1536.00" />
<line x1="1024.00" y1="0" x2="1024.00" y2="1536.00" />
<line x1="1040.00" y1="0" x2="1040.00" y2="1536.00" />
<line x1="1056.00" y1="0" x2="1056.00" y2="1536.00" />
<line x1="1072.00" y1="0" x2="1072.00" y2="1536.00" />
<line x1="1088.00" y1="0" x2="1088.00" y2="1536.00" />
<line x1="1104.00" y1="0" x2="1104.00" y2="1536.00" />
<line x1="1120.00" y1="0" x2="1120.00" y2="1536.00" />
<line x1="1136.00" y1="0" x2="1136.00" y2="1536.00" />
<line x1="1152.00" y1="0" x2="1152.00" y2="1536.00" />
<line x1="1168.00" y1="0" x2="1168.00" y2="1536.00" />
<line x1="1184.00" y1="0" x2="1184.00" y2="1536.00" />
<line x1="1200.00" y1="0" x2="1200.00" y2="1536.00" />
<line x1="1216.00" y1="0" x2="1216.00" y2="1536.00" />
<line x1="1232.00" y1="0" x2="1232.00" y2="1536.00" />
<line x1="1248.00" y1="0" x2="1248.00" y2="1536.00" />
<line x1="1264.00" y1="0" x2="1264.00" y2="1536.00" />
<line x1="1280.00" y1="0" x2="1280.00" y2="1536.00" />
<line x1="1296.00" y1="0" x2="1296.00" y2="1536.00" />
<line x1="1312.00" y1="0" x2="1312.00" y2="1536.00" />
<line x1="1328.00" y1="0" x2="1328.00" y2="1536.00" />
<line x1="1344.00" y1="0" x2="1344.00" y2="1536.00" />
<line x1="1360.00" y1="0" x2="1360.00" y2="1536.00" />
<line x1="1376.00" y1="0" x2="1376.00" y2="1536.00" />
<line x1="1392.00" y1="0" x2="1392.00" y2="1536.00" />
<line x1="1408.00" y1="0" x2="1408.00" y2="1536.00" />
<line x1="1424.00" y1="0" x2="1424.00" y2="1536.00" />
<line x1="1440.00" y1="0" x2="1440.00" y2="1536.00" />
<line x1="1456.00" y1="0" x2="1456.00" y2="1536.00" />
<line x1="1472.00" y1="0" x2="1472.00" y2="1536.00" />
<line x1="1488.00" y1="0" x2="1488.00" y2="1536.00" />
<line x1="1504.00" y1="0" x2="1504.00" y2="1536.00" />
<line x1="0" y1="0.00" x2="1504.00" y2="0.00" />
<line x1="0" y1="16.00" x2="1504.00" y2="16.00" />
<line x1="0" y1="32.00" x2="1504.00" y2="32.00" />
<line x1="0" y1="48.00" x2="1504.00" y2="48.00" />
<line x1="0" y1="64.00" x2="1504.00" y2="64.00" />
<line x1="0" y1="80.00" x2="1504.00" y2="80.00" />
<line x1="0" y1="96.00" x2="1504.00" y2="96.00" />
<line x1="0" y1="112.00" x2="1504.00" y2="112.00" />
<line x1="0" y1="128.00" x2="1504.00" y2="128.00" />
<line x1="0" y1="144.00" x2="1504.00" y2="144.00" />
<line x1="0" y1="160.00" x2="1504.00" y2="160.00" />
<line x1="0" y1="176.00" x2="1504.00" y2="176.00" />
<line x1="0" y1="192.00" x2="1504.00" y2="192.00" />
<line x1="0" y1="208.00" x2="1504.00" y2="208.00" />
<line x1="0" y1="224.00" x2="1504.00" y2="224.00" />
<line x1="0" y1="240.00" x2="1504.00" y2="240.00" />
<line x1="0" y1="256.00" x2="1504.00" y2="256.00" />
<line x1="0" y1="272.00" x2="1504.00" y2="272.00" />
<line x1="0" y1="288.00" x2="1504.00" y2="288.00" />
<line x1="0" y1="304.00" x2="1504.00" y2="304.00" />
<line x1="0" y1="320.00" x2="1504.00" y2="320.00" />
<line x1="0" y1="336.00" x2="1504.00" y2="336.00" />
<line x1="0" y1="352.00" x2="1504.00" y2="352.00" />
<line x1="0" y1="368.00" x2="1504.00" y2="368.00" />
<line x1="0" y1="384.00" x2="1504.00" y2="384.00" />
<line x1="0" y1="400.00" x2="1504.00" y2="400.00" />
<line x1="0" y1="416.00" x2="1504.00" y2="416.00" />
<line x1="0" y1="432.00" x2="1504.00" y2="432.00" />
<line x1="0" y1="448.00" x2="1504.00" y2="448.00" />
<line x1="0" y1="464.00" x2="1504.00" y2="464.00" />
<line x1="0" y1="480.00" x2="1504.00" y2="480.00" />
<line x1="0" y1="496.00" x2="1504.00" y2="496.00" />
<line x1="0" y1="512.00" x2="1504.00" y2="512.00" />
<line x1="0" y1="528.00" x2="1504.00" y2="528.00" />
<line x1="0" y1="544.00" x2="1504.00" y2="544.00" />
<line x1="0" y1="560.00" x2="1504.00" y2="560.00" />
<line x1="0" y1="576.00" x2="1504.00" y2="576.00" />
<line x1="0" y1="592.00" x2="1504.00" y2="592.00" />
<line x1="0" y1="608.00" x2="1504.00" y2="608.00" />
<line x1="0" y1="624.00" x2="1504.00" y2="624.00" />
<line x1="0" y1="640.00" x2="1504.00" y2="640.00" />
<line x1="0" y1="656.00" x2="1504.00" y2="656.00" />
<line x1="0" y1="672.00" x2="1504.00" y2="672.00" />
<line x1="0" y1="688.00" x2="1504.00" y2="688.00" />
<line x1="0" y1="704.00" x2="1504.00" y2="704.00" />
<line x1="0" y1="720.00" x2="1504.00" y2="720.00" />
<line x1="0" y1="736.00" x2="1504.00" y2="736.00" />
<line x1="0" y1="752.00" x2="1504.00" y2="752.00" />
<line x1="0" y1="768.00" x2="1504.00" y2="768.00" />
<line x1="0" y1="784.00" x2="1504.00" y2="784.00" />
<line x1="0" y1="800.00" x2="1504.00" y2="800.00" />
<line x1="0" y1="816.00" x2="1504.00" y2="816.00" />
<line x1="0" y1="832.00" x2="1504.00" y2="832.00" />
<line x1="0" y1="848.00" x2="1504.00" y2="848.00" />
<line x1="0" y1="864.00" x2="1504.00" y2="864.00" />
<line x1="0" y1="880.00" x2="1504.00" y2="880.00" />
<line x1="0" y1="896.00" x2="1504.00" y2="896.00" />
<line x1="0" y1="912.00" x2="1504.00" y2="912.00" />
<line x1="0" y1="928.00" x2="1504.00" y2="928.00" />
<line x1="0" y1="944.00" x2="1504.00" y2="944.00" />
<line x1="0" y1="960.00" x2="1504.00" y2="960.00" />
<line x1="0" y1="976.00" x2="1504.00" y2="976.00" />
<line x1="0" y1="992.00" x2="1504.00" y2="992.00" />
<line x1="0" y1="1008.00" x2="1504.00" y2="1008.00" />
<line x1="0" y1="1024.00" x2="1504.00" y2="1024.00" />
<line x1="0" y1="1040.00" x2="1504.00" y2="1040.00" />
<line x1="0" y1="1056.00" x2="1504.00" y2="1056.00" />
<line x1="0" y1="1072.00" x2="1504.00" y2="1072.00" />
<line x1="0" y1="1088.00" x2="1504.00" y2="1088.00" />
<line x1="0" y1="1104.00" x2="1504.00" y2="1104.00" />
<line x1="0" y1="1120.00" x2="1504.00" y2="1120.00" />
<line x1="0" y1="1136.00" x2="1504.00" y2="1136.00" />
<line x1="0" y1="1152.00" x2="1504.00" y2="1152.00" />
<line x1="0" y1="1168.00" x2="1504.00" y2="1168.00" />
<line x1="0" y1="1184.00" x2="1504.00" y2="1184.00" />
<line x1="0" y1="1200.00" x2="1504.00" y2="1200.00" />
<line x1="0" y1="1216.00" x2="1504.00" y2="1216.00" />
<line x1="0" y1="1232.00" x2="1504.00" y2="1232.00" />
<line x1="0" y1="1248.00" x2="1504.00" y2="1248.00" />
<line x1="0" y1="1264.00" x2="1504.00" y2="1264.00" />
<line x1="0" y1="1280.00" x2="1504.00" y2="1280.00" />
<line x1="0" y1="1296.00" x2="1504.00" y2="1296.00" />
<line x1="0" y1="1312.00" x2="1504.00" y2="1312.00" />
<line x1="0" y1="1328.00" x2="1504.00" y2="1328.00" />
<line x1="0" y1="1344.00" x2="1504.00" y2="1344.00" />
<line x1="0" y1="1360.00" x2="1504.00" y2="1360.00" />
<line x1="0" y1="1376.00" x2="1504.00" y2="1376.00" />
<line x1="0" y1="1392.00" x2="1504.00" y2="1392.00" />
<line x1="0" y1="1408.00" x2="1504.00" y2="1408.00" />
<line x1="0" y1="1424.00" x2="1504.00" y2="1424.00" />
<line x1="0" y1="1440.00" x2="1504.00" y2="1440.00" />
<line x1="0" y1="1456.00" x2="1504.00" y2="1456.00" />
<line x1="0" y1="1472.00" x2="1504.00" y2="1472.00" />
<line x1="0" y1="1488.00" x2="1504.00" y2="1488.00" />
<line x1="0" y1="1504.00" x2="1504.00" y2="1504.00" />
<line x1="0" y1="1520.00" x2="1504.00" y2="1520.00" />
<line x1="0" y1="1536.00" x2="1504.00" y2="1536.00" />
  </g>
  <g class="walls">
<line x1="448.00" y1="48.00" x2="560.00" y2="48.00" />
<line x1="1056.00" y1="48.00" x2="1184.00" y2="48.00" />
<line x1="96.00" y1="80.00" x2="448.00" y2="80.00" />
<line x1="784.00" y1="80.00" x2="1056.00" y2="80.00" />
<line x1="112.00" y1="96.00" x2="448.00" y2="96.00" />
<line x1="960.00" y1="96.00" x2="1056.00" y2="96.00" />
<line x1="1056.00" y1="112.00" x2="1184.00" y2="112.00" />
<line x1="448.00" y1="128.00" x2="560.00" y2="128.00" />
<line x1="368.00" y1="144.00" x2="784.00" y2="144.00" />
<line x1="64.00" y1="160.00" x2="96.00" y2="160.00" />
<line x1="112.00" y1="160.00" x2="128.00" y2="160.00" />
<line x1="384.00" y1="160.00" x2="432.00" y2="160.00" />
<line x1="448.00" y1="160.00" x2="784.00" y2="160.00" />
<line x1="192.00" y1="176.00" x2="304.00" y2="176.00" />
<line x1="128.00" y1="224.00" x2="192.00" y2="224.00" />
<line x1="304.00" y1="224.00" x2="368.00" y2="224.00" />
<line x1="384.00" y1="224.00" x2="432.00" y2="224.00" />
<line x1="448.00" y1="224.00" x2="784.00" y2="224.00" />
<line x1="960.00" y1="224.00" x2="1376.00" y2="224.00" />
<line x1="128.00" y1="240.00" x2="192.00" y2="240.00" />
<line x1="304.00" y1="256.00" x2="368.00" y2="256.00" />
<line x1="384.00" y1="256.00" x2="400.00" y2="256.00" />
<line x1="544.00" y1="256.00" x2="944.00" y2="256.00" />
<line x1="960.00" y1="256.00" x2="1280.00" y2="256.00" />
<line x1="1376.00" y1="256.00" x2="1456.00" y2="256.00" />
<line x1="304.00" y1="272.00" x2="368.00" y2="272.00" />
<line x1="384.00" y1="272.00" x2="400.00" y2="272.00" />
<line x1="544.00" y1="272.00" x2="944.00" y2="272.00" />
<line x1="960.00" y1="272.00" x2="1280.00" y2="272.00" />
<line x1="304.00" y1="288.00" x2="352.00" y2="288.00" />
<line x1="384.00" y1="288.00" x2="400.00" y2="288.00" />
<line x1="544.00" y1="288.00" x2="944.00" y2="288.00" />
<line x1="960.00" y1="288.00" x2="1136.00" y2="288.00" />
<line x1="1152.00" y1="288.00" x2="1280.00" y2="288.00" />
<line x1="64.00" y1="304.00" x2="96.00" y2="304.00" />
<line x1="112.00" y1="304.00" x2="128.00" y2="304.00" />
<line x1="192.00" y1="304.00" x2="256.00" y2="304.00" />
<line x1="272.00" y1="304.00" x2="304.00" y2="304.00" />
<line x1="1280.00" y1="304.00" x2="1328.00" y2="304.00" />
<line x1="1344.00" y1="304.00" x2="1360.00" y2="304.00" />
<line x1="1376.00" y1="304.00" x2="1456.00" y2="304.00" />
<line x1="128.00" y1="352.00" x2="256.00" y2="352.00" />
<line x1="400.00" y1="368.00" x2="432.00" y2="368.00" />
<line x1="448.00" y1="368.00" x2="464.00" y2="368.00" />
<line x1="480.00" y1="368.00" x2="544.00" y2="368.00" />
<line x1="992.00" y1="368.00" x2="1136.00" y2="368.00" />
<line x1="272.00" y1="432.00" x2="352.00" y2="432.00" />
<line x1="384.00" y1="432.00" x2="432.00" y2="432.00" />
<line x1="448.00" y1="432.00" x2="464.00" y2="432.00" />
<line x1="480.00" y1="432.00" x2="944.00" y2="432.00" />
<line x1="960.00" y1="432.00" x2="992.00" y2="432.00" />
<line x1="1152.00" y1="432.00" x2="1296.00" y2="432.00" />
<line x1="272.00" y1="448.00" x2="288.00" y2="448.00" />
<line x1="1152.00" y1="448.00" x2="1280.00" y2="448.00" />
<line x1="304.00" y1="464.00" x2="352.00" y2="464.00" />
<line x1="384.00" y1="464.00" x2="432.00" y2="464.00" />
<line x1="448.00" y1="464.00" x2="464.00" y2="464.00" />
<line x1="480.00" y1="464.00" x2="576.00" y2="464.00" />
<line x1="752.00" y1="464.00" x2="944.00" y2="464.00" />
<line x1="960.00" y1="464.00" x2="992.00" y2="464.00" />
<line x1="128.00" y1="528.00" x2="256.00" y2="528.00" />
<line x1="992.00" y1="544.00" x2="1136.00" y2="544.00" />
<line x1="336.00" y1="560.00" x2="352.00" y2="560.00" />
<line x1="384.00" y1="560.00" x2="416.00" y2="560.00" />
<line x1="576.00" y1="576.00" x2="592.00" y2="576.00" />
<line x1="608.00" y1="576.00" x2="656.00" y2="576.00" />
<line x1="672.00" y1="576.00" x2="688.00" y2="576.00" />
<line x1="704.00" y1="576.00" x2="752.00" y2="576.00" />
<line x1="416.00" y1="592.00" x2="432.00" y2="592.00" />
<line x1="448.00" y1="592.00" x2="464.00" y2="592.00" />
<line x1="480.00" y1="592.00" x2="592.00" y2="592.00" />
<line x1="608.00" y1="592.00" x2="656.00" y2="592.00" />
<line x1="672.00" y1="592.00" x2="688.00" y2="592.00" />
<line x1="704.00" y1="592.00" x2="944.00" y2="592.00" />
<line x1="960.00" y1="592.00" x2="1136.00" y2="592.00" />
<line x1="1152.00" y1="592.00" x2="1280.00" y2="592.00" />
<line x1="1296.00" y1="592.00" x2="1328.00" y2="592.00" />
<line x1="1344.00" y1="592.00" x2="1360.00" y2="592.00" />
<line x1="416.00" y1="608.00" x2="432.00" y2="608.00" />
<line x1="448.00" y1="608.00" x2="464.00" y2="608.00" />
<line x1="480.00" y1="608.00" x2="592.00" y2="608.00" />
<line x1="608.00" y1="608.00" x2="656.00" y2="608.00" />
<line x1="672.00" y1="608.00" x2="688.00" y2="608.00" />
<line x1="704.00" y1="608.00" x2="944.00" y2="608.00" />
<line x1="1088.00" y1="608.00" x2="1136.00" y2="608.00" />
<line x1="1152.00" y1="608.00" x2="1280.00" y2="608.00" />
<line x1="1296.00" y1="608.00" x2="1328.00" y2="608.00" />
<line x1="1344.00" y1="608.00" x2="1360.00" y2="608.00" />
<line x1="336.00" y1="624.00" x2="352.00" y2="624.00" />
<line x1="368.00" y1="624.00" x2="416.00" y2="624.00" />
<line x1="1088.00" y1="624.00" x2="1136.00" y2="624.00" />
<line x1="1152.00" y1="624.00" x2="1280.00" y2="624.00" />
<line x1="1296.00" y1="624.00" x2="1328.00" y2="624.00" />
<line x1="1088.00" y1="640.00" x2="1136.00" y2="640.00" />
<line x1="1152.00" y1="640.00" x2="1280.00" y2="640.00" />
<line x1="1296.00" y1="640.00" x2="1328.00" y2="640.00" />
<line x1="960.00" y1="672.00" x2="1008.00" y2="672.00" />
<line x1="1024.00" y1="672.00" x2="1088.00" y2="672.00" />
<line x1="64.00" y1="704.00" x2="96.00" y2="704.00" />
<line x1="112.00" y1="704.00" x2="208.00" y2="704.00" />
<line x1="512.00" y1="704.00" x2="592.00" y2="704.00" />
<line x1="608.00" y1="704.00" x2="656.00" y2="704.00" />
<line x1="672.00" y1="704.00" x2="688.00" y2="704.00" />
<line x1="208.00" y1="752.00" x2="256.00" y2="752.00" />
<line x1="272.00" y1="752.00" x2="288.00" y2="752.00" />
<line x1="304.00" y1="752.00" x2="352.00" y2="752.00" />
<line x1="368.00" y1="752.00" x2="432.00" y2="752.00" />
<line x1="448.00" y1="752.00" x2="464.00" y2="752.00" />
<line x1="480.00" y1="752.00" x2="512.00" y2="752.00" />
<line x1="704.00" y1="752.00" x2="944.00" y2="752.00" />
<line x1="960.00" y1="752.00" x2="1008.00" y2="752.00" />
<line x1="1024.00" y1="752.00" x2="1136.00" y2="752.00" />
<line x1="1152.00" y1="752.00" x2="1280.00" y2="752.00" />
<line x1="1296.00" y1="752.00" x2="1328.00" y2="752.00" />
<line x1="1344.00" y1="752.00" x2="1360.00" y2="752.00" />
<line x1="208.00" y1="768.00" x2="256.00" y2="768.00" />
<line x1="272.00" y1="768.00" x2="288.00" y2="768.00" />
<line x1="304.00" y1="768.00" x2="336.00" y2="768.00" />
<line x1="384.00" y1="768.00" x2="432.00" y2="768.00" />
<line x1="448.00" y1="768.00" x2="464.00" y2="768.00" />
<line x1="480.00" y1="768.00" x2="512.00" y2="768.00" />
<line x1="704.00" y1="768.00" x2="944.00" y2="768.00" />
<line x1="960.00" y1="768.00" x2="1008.00" y2="768.00" />
<line x1="1024.00" y1="768.00" x2="1136.00" y2="768.00" />
<line x1="1152.00" y1="768.00" x2="1280.00" y2="768.00" />
<line x1="1296.00" y1="768.00" x2="1328.00" y2="768.00" />
<line x1="1344.00" y1="768.00" x2="1376.00" y2="768.00" />
<line x1="64.00" y1="800.00" x2="96.00" y2="800.00" />
<line x1="112.00" y1="800.00" x2="128.00" y2="800.00" />
<line x1="144.00" y1="800.00" x2="208.00" y2="800.00" />
<line x1="304.00" y1="800.00" x2="336.00" y2="800.00" />
<line x1="384.00" y1="800.00" x2="432.00" y2="800.00" />
<line x1="448.00" y1="800.00" x2="464.00" y2="800.00" />
<line x1="480.00" y1="800.00" x2="512.00" y2="800.00" />
<line x1="864.00" y1="800.00" x2="944.00" y2="800.00" />
<line x1="960.00" y1="800.00" x2="1008.00" y2="800.00" />
<line x1="1024.00" y1="800.00" x2="1040.00" y2="800.00" />
<line x1="304.00" y1="816.00" x2="336.00" y2="816.00" />
<line x1="384.00" y1="816.00" x2="432.00" y2="816.00" />
<line x1="448.00" y1="816.00" x2="464.00" y2="816.00" />
<line x1="480.00" y1="816.00" x2="576.00" y2="816.00" />
<line x1="608.00" y1="816.00" x2="656.00" y2="816.00" />
<line x1="672.00" y1="816.00" x2="688.00" y2="816.00" />
<line x1="112.00" y1="832.00" x2="128.00" y2="832.00" />
<line x1="144.00" y1="832.00" x2="256.00" y2="832.00" />
<line x1="272.00" y1="832.00" x2="288.00" y2="832.00" />
<line x1="304.00" y1="832.00" x2="336.00" y2="832.00" />
<line x1="384.00" y1="832.00" x2="432.00" y2="832.00" />
<line x1="448.00" y1="832.00" x2="464.00" y2="832.00" />
<line x1="480.00" y1="832.00" x2="576.00" y2="832.00" />
<line x1="608.00" y1="832.00" x2="656.00" y2="832.00" />
<line x1="672.00" y1="832.00" x2="688.00" y2="832.00" />
<line x1="704.00" y1="832.00" x2="864.00" y2="832.00" />
<line x1="112.00" y1="848.00" x2="128.00" y2="848.00" />
<line x1="144.00" y1="848.00" x2="256.00" y2="848.00" />
<line x1="272.00" y1="848.00" x2="288.00" y2="848.00" />
<line x1="304.00" y1="848.00" x2="432.00" y2="848.00" />
<line x1="448.00" y1="848.00" x2="464.00" y2="848.00" />
<line x1="480.00" y1="848.00" x2="576.00" y2="848.00" />
<line x1="592.00" y1="848.00" x2="656.00" y2="848.00" />
<line x1="672.00" y1="848.00" x2="688.00" y2="848.00" />
<line x1="704.00" y1="848.00" x2="864.00" y2="848.00" />
<line x1="1296.00" y1="848.00" x2="1328.00" y2="848.00" />
<line x1="1344.00" y1="848.00" x2="1392.00" y2="848.00" />
<line x1="864.00" y1="864.00" x2="944.00" y2="864.00" />
<line x1="960.00" y1="864.00" x2="1008.00" y2="864.00" />
<line x1="1024.00" y1="864.00" x2="1040.00" y2="864.00" />
<line x1="1264.00" y1="864.00" x2="1280.00" y2="864.00" />
<line x1="1392.00" y1="864.00" x2="1408.00" y2="864.00" />
<line x1="1248.00" y1="880.00" x2="1264.00" y2="880.00" />
<line x1="1408.00" y1="880.00" x2="1424.00" y2="880.00" />
<line x1="384.00" y1="896.00" x2="432.00" y2="896.00" />
<line x1="448.00" y1="896.00" x2="464.00" y2="896.00" />
<line x1="480.00" y1="896.00" x2="496.00" y2="896.00" />
<line x1="544.00" y1="896.00" x2="576.00" y2="896.00" />
<line x1="592.00" y1="896.00" x2="624.00" y2="896.00" />
<line x1="272.00" y1="912.00" x2="288.00" y2="912.00" />
<line x1="304.00" y1="912.00" x2="320.00" y2="912.00" />
<line x1="368.00" y1="912.00" x2="384.00" y2="912.00" />
<line x1="496.00" y1="912.00" x2="512.00" y2="912.00" />
<line x1="352.00" y1="928.00" x2="368.00" y2="928.00" />
<line x1="512.00" y1="928.00" x2="528.00" y2="928.00" />
<line x1="928.00" y1="944.00" x2="944.00" y2="944.00" />
<line x1="1248.00" y1="944.00" x2="1264.00" y2="944.00" />
<line x1="1408.00" y1="944.00" x2="1424.00" y2="944.00" />
<line x1="528.00" y1="960.00" x2="544.00" y2="960.00" />
<line x1="624.00" y1="960.00" x2="656.00" y2="960.00" />
<line x1="672.00" y1="960.00" x2="688.00" y2="960.00" />
<line x1="704.00" y1="960.00" x2="928.00" y2="960.00" />
<line x1="960.00" y1="960.00" x2="1008.00" y2="960.00" />
<line x1="1024.00" y1="960.00" x2="1136.00" y2="960.00" />
<line x1="1152.00" y1="960.00" x2="1264.00" y2="960.00" />
<line x1="1392.00" y1="960.00" x2="1408.00" y2="960.00" />
<line x1="528.00" y1="976.00" x2="544.00" y2="976.00" />
<line x1="624.00" y1="976.00" x2="656.00" y2="976.00" />
<line x1="672.00" y1="976.00" x2="688.00" y2="976.00" />
<line x1="704.00" y1="976.00" x2="896.00" y2="976.00" />
<line x1="992.00" y1="976.00" x2="1008.00" y2="976.00" />
<line x1="1024.00" y1="976.00" x2="1136.00" y2="976.00" />
<line x1="1152.00" y1="976.00" x2="1280.00" y2="976.00" />
<line x1="1296.00" y1="976.00" x2="1392.00" y2="976.00" />
<line x1="352.00" y1="992.00" x2="368.00" y2="992.00" />
<line x1="512.00" y1="992.00" x2="528.00" y2="992.00" />
<line x1="544.00" y1="992.00" x2="624.00" y2="992.00" />
<line x1="880.00" y1="992.00" x2="896.00" y2="992.00" />
<line x1="992.00" y1="992.00" x2="1008.00" y2="992.00" />
<line x1="272.00" y1="1008.00" x2="288.00" y2="1008.00" />
<line x1="304.00" y1="1008.00" x2="320.00" y2="1008.00" />
<line x1="368.00" y1="1008.00" x2="384.00" y2="1008.00" />
<line x1="496.00" y1="1008.00" x2="512.00" y2="1008.00" />
<line x1="384.00" y1="1024.00" x2="496.00" y2="1024.00" />
<line x1="672.00" y1="1024.00" x2="688.00" y2="1024.00" />
<line x1="704.00" y1="1024.00" x2="880.00" y2="1024.00" />
<line x1="656.00" y1="1040.00" x2="688.00" y2="1040.00" />
<line x1="704.00" y1="1040.00" x2="880.00" y2="1040.00" />
<line x1="880.00" y1="1072.00" x2="896.00" y2="1072.00" />
<line x1="992.00" y1="1072.00" x2="1008.00" y2="1072.00" />
<line x1="224.00" y1="1088.00" x2="256.00" y2="1088.00" />
<line x1="272.00" y1="1088.00" x2="288.00" y2="1088.00" />
<line x1="208.00" y1="1104.00" x2="224.00" y2="1104.00" />
<line x1="304.00" y1="1104.00" x2="320.00" y2="1104.00" />
<line x1="896.00" y1="1104.00" x2="928.00" y2="1104.00" />
<line x1="960.00" y1="1104.00" x2="992.00" y2="1104.00" />
<line x1="928.00" y1="1120.00" x2="960.00" y2="1120.00" />
<line x1="192.00" y1="1152.00" x2="208.00" y2="1152.00" />
<line x1="320.00" y1="1152.00" x2="336.00" y2="1152.00" />
<line x1="592.00" y1="1152.00" x2="688.00" y2="1152.00" />
<line x1="704.00" y1="1152.00" x2="784.00" y2="1152.00" />
<line x1="192.00" y1="1184.00" x2="208.00" y2="1184.00" />
<line x1="320.00" y1="1184.00" x2="336.00" y2="1184.00" />
<line x1="208.00" y1="1232.00" x2="224.00" y2="1232.00" />
<line x1="304.00" y1="1232.00" x2="320.00" y2="1232.00" />
<line x1="1088.00" y1="1232.00" x2="1136.00" y2="1232.00" />
<line x1="1152.00" y1="1232.00" x2="1184.00" y2="1232.00" />
<line x1="1216.00" y1="1232.00" x2="1280.00" y2="1232.00" />
<line x1="1296.00" y1="1232.00" x2="1344.00" y2="1232.00" />
<line x1="96.00" y1="1264.00" x2="128.00" y2="1264.00" />
<line x1="144.00" y1="1264.00" x2="592.00" y2="1264.00" />
<line x1="112.00" y1="1248.00" x2="128.00" y2="1248.00" />
<line x1="144.00" y1="1248.00" x2="224.00" y2="1248.00" />
<line x1="304.00" y1="1248.00" x2="592.00" y2="1248.00" />
<line x1="784.00" y1="1280.00" x2="1008.00" y2="1280.00" />
<line x1="1024.00" y1="1280.00" x2="1088.00" y2="1280.00" />
<line x1="1184.00" y1="1280.00" x2="1216.00" y2="1280.00" />
<line x1="784.00" y1="1296.00" x2="1008.00" y2="1296.00" />
<line x1="1024.00" y1="1296.00" x2="1088.00" y2="1296.00" />
<line x1="1184.00" y1="1296.00" x2="1216.00" y2="1296.00" />
<line x1="128.00" y1="1328.00" x2="592.00" y2="1328.00" />
<line x1="784.00" y1="1328.00" x2="1008.00" y2="1328.00" />
<line x1="1024.00" y1="1328.00" x2="1088.00" y2="1328.00" />
<line x1="144.00" y1="1312.00" x2="592.00" y2="1312.00" />
<line x1="784.00" y1="1312.00" x2="1008.00" y2="1312.00" />
<line x1="1024.00" y1="1312.00" x2="1088.00" y2="1312.00" />
<line x1="592.00" y1="1344.00" x2="784.00" y2="1344.00" />
<line x1="1216.00" y1="1344.00" x2="1344.00" y2="1344.00" />
<line x1="1360.00" y1="1360.00" x2="1424.00" y2="1360.00" />
<line x1="1008.00" y1="1408.00" x2="1360.00" y2="1408.00" />
<line x1="1024.00" y1="1392.00" x2="1088.00" y2="1392.00" />
<line x1="1184.00" y1="1392.00" x2="1360.00" y2="1392.00" />
<line x1="1360.00" y1="1440.00" x2="1424.00" y2="1440.00" />
<line x1="448.00" y1="48.00" x2="448.00" y2="80.00" />
<line x1="448.00" y1="96.00" x2="448.00" y2="128.00" />
<line x1="448.00" y1="160.00" x2="448.00" y2="224.00" />
<line x1="448.00" y1="368.00" x2="448.00" y2="432.00" />
<line x1="448.00" y1="464.00" x2="448.00" y2="592.00" />
<line x1="448.00" y1="608.00" x2="448.00" y2="752.00" />
<line x1="448.00" y1="768.00" x2="448.00" y2="800.00" />
<line x1="448.00" y1="816.00" x2="448.00" y2="832.00" />
<line x1="448.00" y1="848.00" x2="448.00" y2="896.00" />
<line x1="560.00" y1="48.00" x2="560.00" y2="128.00" />
<line x1="1056.00" y1="48.00" x2="1056.00" y2="80.00" />
<line x1="1056.00" y1="96.00" x2="1056.00" y2="112.00" />
<line x1="1184.00" y1="48.00" x2="1184.00" y2="112.00" />
<line x1="1184.00" y1="1232.00" x2="1184.00" y2="1280.00" />
<line x1="1184.00" y1="1296.00" x2="1184.00" y2="1392.00" />
<line x1="96.00" y1="80.00" x2="96.00" y2="160.00" />
<line x1="96.00" y1="304.00" x2="96.00" y2="704.00" />
<line x1="96.00" y1="800.00" x2="96.00" y2="1264.00" />
<line x1="784.00" y1="80.00" x2="784.00" y2="144.00" />
<line x1="784.00" y1="160.00" x2="784.00" y2="224.00" />
<line x1="784.00" y1="1152.00" x2="784.00" y2="1280.00" />
<line x1="784.00" y1="1296.00" x2="784.00" y2="1312.00" />
<line x1="784.00" y1="1328.00" x2="784.00" y2="1344.00" />
<line x1="112.00" y1="96.00" x2="112.00" y2="160.00" />
<line x1="112.00" y1="304.00" x2="112.00" y2="704.00" />
<line x1="112.00" y1="800.00" x2="112.00" y2="832.00" />
<line x1="112.00" y1="848.00" x2="112.00" y2="1248.00" />
<line x1="960.00" y1="96.00" x2="960.00" y2="224.00" />
<line x1="960.00" y1="256.00" x2="960.00" y2="272.00" />
<line x1="960.00" y1="288.00" x2="960.00" y2="432.00" />
<line x1="960.00" y1="464.00" x2="960.00" y2="592.00" />
<line x1="960.00" y1="672.00" x2="960.00" y2="752.00" />
<line x1="960.00" y1="768.00" x2="960.00" y2="800.00" />
<line x1="960.00" y1="864.00" x2="960.00" y2="960.00" />
<line x1="960.00" y1="1104.00" x2="960.00" y2="1120.00" />
<line x1="368.00" y1="144.00" x2="368.00" y2="224.00" />
<line x1="368.00" y1="256.00" x2="368.00" y2="272.00" />
<line x1="368.00" y1="624.00" x2="368.00" y2="752.00" />
<line x1="368.00" y1="912.00" x2="368.00" y2="928.00" />
<line x1="368.00" y1="992.00" x2="368.00" y2="1008.00" />
<line x1="64.00" y1="160.00" x2="64.00" y2="304.00" />
<line x1="64.00" y1="704.00" x2="64.00" y2="800.00" />
<line x1="128.00" y1="160.00" x2="128.00" y2="224.00" />
<line x1="128.00" y1="240.00" x2="128.00" y2="304.00" />
<line x1="128.00" y1="352.00" x2="128.00" y2="528.00" />
<line x1="128.00" y1="800.00" x2="128.00" y2="832.00" />
<line x1="128.00" y1="848.00" x2="128.00" y2="1248.00" />
<line x1="128.00" y1="1264.00" x2="128.00" y2="1328.00" />
<line x1="384.00" y1="160.00" x2="384.00" y2="224.00" />
<line x1="384.00" y1="256.00" x2="384.00" y2="272.00" />
<line x1="384.00" y1="288.00" x2="384.00" y2="432.00" />
<line x1="384.00" y1="464.00" x2="384.00" y2="560.00" />
<line x1="384.00" y1="768.00" x2="384.00" y2="800.00" />
<line x1="384.00" y1="816.00" x2="384.00" y2="832.00" />
<line x1="384.00" y1="896.00" x2="384.00" y2="912.00" />
<line x1="384.00" y1="1008.00" x2="384.00" y2="1024.00" />
<line x1="432.00" y1="160.00" x2="432.00" y2="224.00" />
<line x1="432.00" y1="368.00" x2="432.00" y2="432.00" />
<line x1="432.00" y1="464.00" x2="432.00" y2="592.00" />
<line x1="432.00" y1="608.00" x2="432.00" y2="752.00" />
<line x1="432.00" y1="768.00" x2="432.00" y2="800.00" />
<line x1="432.00" y1="816.00" x2="432.00" y2="832.00" />
<line x1="432.00" y1="848.00" x2="432.00" y2="896.00" />
<line x1="192.00" y1="176.00" x2="192.00" y2="224.00" />
<line x1="192.00" y1="240.00" x2="192.00" y2="304.00" />
<line x1="192.00" y1="1152.00" x2="192.00" y2="1184.00" />
<line x1="304.00" y1="176.00" x2="304.00" y2="224.00" />
<line x1="304.00" y1="256.00" x2="304.00" y2="272.00" />
<line x1="304.00" y1="288.00" x2="304.00" y2="304.00" />
<line x1="304.00" y1="464.00" x2="304.00" y2="752.00" />
<line x1="304.00" y1="768.00" x2="304.00" y2="800.00" />
<line x1="304.00" y1="816.00" x2="304.00" y2="832.00" />
<line x1="304.00" y1="848.00" x2="304.00" y2="912.00" />
<line x1="304.00" y1="1008.00" x2="304.00" y2="1104.00" />
<line x1="304.00" y1="1232.00" x2="304.00" y2="1248.00" />
<line x1="1376.00" y1="224.00" x2="1376.00" y2="256.00" />
<line x1="1376.00" y1="304.00" x2="1376.00" y2="768.00" />
<line x1="400.00" y1="256.00" x2="400.00" y2="272.00" />
<line x1="400.00" y1="288.00" x2="400.00" y2="368.00" />
<line x1="544.00" y1="256.00" x2="544.00" y2="272.00" />
<line x1="544.00" y1="288.00" x2="544.00" y2="368.00" />
<line x1="544.00" y1="896.00" x2="544.00" y2="960.00" />
<line x1="544.00" y1="976.00" x2="544.00" y2="992.00" />
<line x1="944.00" y1="256.00" x2="944.00" y2="272.00" />
<line x1="944.00" y1="288.00" x2="944.00" y2="432.00" />
<line x1="944.00" y1="464.00" x2="944.00" y2="592.00" />
<line x1="944.00" y1="608.00" x2="944.00" y2="752.00" />
<line x1="944.00" y1="768.00" x2="944.00" y2="800.00" />
<line x1="944.00" y1="864.00" x2="944.00" y2="944.00" />
<line x1="1280.00" y1="256.00" x2="1280.00" y2="272.00" />
<line x1="1280.00" y1="288.00" x2="1280.00" y2="304.00" />
<line x1="1280.00" y1="448.00" x2="1280.00" y2="592.00" />
<line x1="1280.00" y1="608.00" x2="1280.00" y2="624.00" />
<line x1="1280.00" y1="640.00" x2="1280.00" y2="752.00" />
<line x1="1280.00" y1="768.00" x2="1280.00" y2="864.00" />
<line x1="1280.00" y1="976.00" x2="1280.00" y2="1232.00" />
<line x1="1456.00" y1="256.00" x2="1456.00" y2="304.00" />
<line x1="352.00" y1="288.00" x2="352.00" y2="432.00" />
<line x1="352.00" y1="464.00" x2="352.00" y2="560.00" />
<line x1="352.00" y1="624.00" x2="352.00" y2="752.00" />
<line x1="352.00" y1="928.00" x2="352.00" y2="992.00" />
<line x1="1136.00" y1="288.00" x2="1136.00" y2="368.00" />
<line x1="1136.00" y1="544.00" x2="1136.00" y2="592.00" />
<line x1="1136.00" y1="608.00" x2="1136.00" y2="624.00" />
<line x1="1136.00" y1="640.00" x2="1136.00" y2="752.00" />
<line x1="1136.00" y1="768.00" x2="1136.00" y2="960.00" />
<line x1="1136.00" y1="976.00" x2="1136.00" y2="1232.00" />
<line x1="1152.00" y1="288.00" x2="1152.00" y2="432.00" />
<line x1="1152.00" y1="448.00" x2="1152.00" y2="592.00" />
<line x1="1152.00" y1="608.00" x2="1152.00" y2="624.00" />
<line x1="1152.00" y1="640.00" x2="1152.00" y2="752.00" />
<line x1="1152.00" y1="768.00" x2="1152.00" y2="960.00" />
<line x1="1152.00" y1="976.00" x2="1152.00" y2="1232.00" />
<line x1="256.00" y1="304.00" x2="256.00" y2="352.00" />
<line x1="256.00" y1="528.00" x2="256.00" y2="752.00" />
<line x1="256.00" y1="768.00" x2="256.00" y2="832.00" />
<line x1="256.00" y1="848.00" x2="256.00" y2="1088.00" />
<line x1="272.00" y1="304.00" x2="272.00" y2="432.00" />
<line x1="272.00" y1="448.00" x2="272.00" y2="752.00" />
<line x1="272.00" y1="768.00" x2="272.00" y2="832.00" />
<line x1="272.00" y1="848.00" x2="272.00" y2="912.00" />
<line x1="272.00" y1="1008.00" x2="272.00" y2="1088.00" />
<line x1="1328.00" y1="304.00" x2="1328.00" y2="592.00" />
<line x1="1328.00" y1="608.00" x2="1328.00" y2="624.00" />
<line x1="1328.00" y1="640.00" x2="1328.00" y2="752.00" />
<line x1="1328.00" y1="768.00" x2="1328.00" y2="848.00" />
<line x1="1344.00" y1="304.00" x2="1344.00" y2="592.00" />
<line x1="1344.00" y1="608.00" x2="1344.00" y2="752.00" />
<line x1="1344.00" y1="768.00" x2="1344.00" y2="848.00" />
<line x1="1344.00" y1="1232.00" x2="1344.00" y2="1344.00" />
<line x1="1360.00" y1="304.00" x2="1360.00" y2="592.00" />
<line x1="1360.00" y1="608.00" x2="1360.00" y2="752.00" />
<line x1="1360.00" y1="1360.00" x2="1360.00" y2="1392.00" />
<line x1="1360.00" y1="1408.00" x2="1360.00" y2="1440.00" />
<line x1="464.00" y1="368.00" x2="464.00" y2="432.00" />
<line x1="464.00" y1="464.00" x2="464.00" y2="592.00" />
<line x1="464.00" y1="608.00" x2="464.00" y2="752.00" />
<line x1="464.00" y1="768.00" x2="464.00" y2="800.00" />
<line x1="464.00" y1="816.00" x2="464.00" y2="832.00" />
<line x1="464.00" y1="848.00" x2="464.00" y2="896.00" />
<line x1="480.00" y1="368.00" x2="480.00" y2="432.00" />
<line x1="480.00" y1="464.00" x2="480.00" y2="592.00" />
<line x1="480.00" y1="608.00" x2="480.00" y2="752.00" />
<line x1="480.00" y1="768.00" x2="480.00" y2="800.00" />
<line x1="480.00" y1="816.00" x2="480.00" y2="832.00" />
<line x1="480.00" y1="848.00" x2="480.00" y2="896.00" />
<line x1="992.00" y1="368.00" x2="992.00" y2="432.00" />
<line x1="992.00" y1="464.00" x2="992.00" y2="544.00" />
<line x1="992.00" y1="976.00" x2="992.00" y2="992.00" />
<line x1="992.00" y1="1072.00" x2="992.00" y2="1104.00" />
<line x1="1296.00" y1="432.00" x2="1296.00" y2="592.00" />
<line x1="1296.00" y1="608.00" x2="1296.00" y2="624.00" />
<line x1="1296.00" y1="640.00" x2="1296.00" y2="752.00" />
<line x1="1296.00" y1="768.00" x2="1296.00" y2="848.00" />
<line x1="1296.00" y1="976.00" x2="1296.00" y2="1232.00" />
<line x1="288.00" y1="448.00" x2="288.00" y2="752.00" />
<line x1="288.00" y1="768.00" x2="288.00" y2="832.00" />
<line x1="288.00" y1="848.00" x2="288.00" y2="912.00" />
<line x1="288.00" y1="1008.00" x2="288.00" y2="1088.00" />
<line x1="576.00" y1="464.00" x2="576.00" y2="576.00" />
<line x1="576.00" y1="816.00" x2="576.00" y2="832.00" />
<line x1="576.00" y1="848.00" x2="576.00" y2="896.00" />
<line x1="752.00" y1="464.00" x2="752.00" y2="576.00" />
<line x1="336.00" y1="560.00" x2="336.00" y2="624.00" />
<line x1="336.00" y1="768.00" x2="336.00" y2="800.00" />
<line x1="336.00" y1="816.00" x2="336.00" y2="832.00" />
<line x1="336.00" y1="1152.00" x2="336.00" y2="1184.00" />
<line x1="416.00" y1="560.00" x2="416.00" y2="592.00" />
<line x1="416.00" y1="608.00" x2="416.00" y2="624.00" />
<line x1="592.00" y1="576.00" x2="592.00" y2="592.00" />
<line x1="592.00" y1="608.00" x2="592.00" y2="704.00" />
<line x1="592.00" y1="848.00" x2="592.00" y2="896.00" />
<line x1="592.00" y1="1152.00" x2="592.00" y2="1248.00" />
<line x1="592.00" y1="1264.00" x2="592.00" y2="1312.00" />
<line x1="592.00" y1="1328.00" x2="592.00" y2="1344.00" />
<line x1="608.00" y1="576.00" x2="608.00" y2="592.00" />
<line x1="608.00" y1="608.00" x2="608.00" y2="704.00" />
<line x1="608.00" y1="816.00" x2="608.00" y2="832.00" />
<line x1="656.00" y1="576.00" x2="656.00" y2="592.00" />
<line x1="656.00" y1="608.00" x2="656.00" y2="704.00" />
<line x1="656.00" y1="816.00" x2="656.00" y2="832.00" />
<line x1="656.00" y1="848.00" x2="656.00" y2="960.00" />
<line x1="656.00" y1="976.00" x2="656.00" y2="1040.00" />
<line x1="672.00" y1="576.00" x2="672.00" y2="592.00" />
<line x1="672.00" y1="608.00" x2="672.00" y2="704.00" />
<line x1="672.00" y1="816.00" x2="672.00" y2="832.00" />
<line x1="672.00" y1="848.00" x2="672.00" y2="960.00" />
<line x1="672.00" y1="976.00" x2="672.00" y2="1024.00" />
<line x1="688.00" y1="576.00" x2="688.00" y2="592.00" />
<line x1="688.00" y1="608.00" x2="688.00" y2="704.00" />
<line x1="688.00" y1="816.00" x2="688.00" y2="832.00" />
<line x1="688.00" y1="848.00" x2="688.00" y2="960.00" />
<line x1="688.00" y1="976.00" x2="688.00" y2="1024.00" />
<line x1="688.00" y1="1040.00" x2="688.00" y2="1152.00" />
<line x1="704.00" y1="576.00" x2="704.00" y2="592.00" />
<line x1="704.00" y1="608.00" x2="704.00" y2="752.00" />
<line x1="704.00" y1="768.00" x2="704.00" y2="832.00" />
<line x1="704.00" y1="848.00" x2="704.00" y2="960.00" />
<line x1="704.00" y1="976.00" x2="704.00" y2="1024.00" />
<line x1="704.00" y1="1040.00" x2="704.00" y2="1152.00" />
<line x1="1088.00" y1="608.00" x2="1088.00" y2="624.00" />
<line x1="1088.00" y1="640.00" x2="1088.00" y2="672.00" />
<line x1="1088.00" y1="1232.00" x2="1088.00" y2="1280.00" />
<line x1="1088.00" y1="1296.00" x2="1088.00" y2="1312.00" />
<line x1="1088.00" y1="1328.00" x2="1088.00" y2="1392.00" />
<line x1="1008.00" y1="672.00" x2="1008.00" y2="752.00" />
<line x1="1008.00" y1="768.00" x2="1008.00" y2="800.00" />
<line x1="1008.00" y1="864.00" x2="1008.00" y2="960.00" />
<line x1="1008.00" y1="976.00" x2="1008.00" y2="992.00" />
<line x1="1008.00" y1="1072.00" x2="1008.00" y2="1280.00" />
<line x1="1008.00" y1="1296.00" x2="1008.00" y2="1312.00" />
<line x1="1008.00" y1="1328.00" x2="1008.00" y2="1408.00" />
<line x1="1024.00" y1="672.00" x2="1024.00" y2="752.00" />
<line x1="1024.00" y1="768.00" x2="1024.00" y2="800.00" />
<line x1="1024.00" y1="864.00" x2="1024.00" y2="960.00" />
<line x1="1024.00" y1="976.00" x2="1024.00" y2="1280.00" />
<line x1="1024.00" y1="1296.00" x2="1024.00" y2="1312.00" />
<line x1="1024.00" y1="1328.00" x2="1024.00" y2="1392.00" />
<line x1="208.00" y1="704.00" x2="208.00" y2="752.00" />
<line x1="208.00" y1="768.00" x2="208.00" y2="800.00" />
<line x1="208.00" y1="1104.00" x2="208.00" y2="1152.00" />
<line x1="208.00" y1="1184.00" x2="208.00" y2="1232.00" />
<line x1="512.00" y1="704.00" x2="512.00" y2="752.00" />
<line x1="512.00" y1="768.00" x2="512.00" y2="800.00" />
<line x1="512.00" y1="912.00" x2="512.00" y2="928.00" />
<line x1="512.00" y1="992.00" x2="512.00" y2="1008.00" />
<line x1="144.00" y1="800.00" x2="144.00" y2="832.00" />
<line x1="144.00" y1="848.00" x2="144.00" y2="1248.00" />
<line x1="144.00" y1="1264.00" x2="144.00" y2="1312.00" />
<line x1="864.00" y1="800.00" x2="864.00" y2="832.00" />
<line x1="864.00" y1="848.00" x2="864.00" y2="864.00" />
<line x1="1040.00" y1="800.00" x2="1040.00" y2="864.00" />
<line x1="1392.00" y1="848.00" x2="1392.00" y2="864.00" />
<line x1="1392.00" y1="960.00" x2="1392.00" y2="976.00" />
<line x1="1264.00" y1="864.00" x2="1264.00" y2="880.00" />
<line x1="1264.00" y1="944.00" x2="1264.00" y2="960.00" />
<line x1="1408.00" y1="864.00" x2="1408.00" y2="880.00" />
<line x1="1408.00" y1="944.00" x2="1408.00" y2="960.00" />
<line x1="1248.00" y1="880.00" x2="1248.00" y2="944.00" />
<line x1="1424.00" y1="880.00" x2="1424.00" y2="944.00" />
<line x1="1424.00" y1="1360.00" x2="1424.00" y2="1440.00" />
<line x1="496.00" y1="896.00" x2="496.00" y2="912.00" />
<line x1="496.00" y1="1008.00" x2="496.00" y2="1024.00" />
<line x1="624.00" y1="896.00" x2="624.00" y2="960.00" />
<line x1="624.00" y1="976.00" x2="624.00" y2="992.00" />
<line x1="320.00" y1="912.00" x2="320.00" y2="1008.00" />
<line x1="320.00" y1="1104.00" x2="320.00" y2="1152.00" />
<line x1="320.00" y1="1184.00" x2="320.00" y2="1232.00" />
<line x1="528.00" y1="928.00" x2="528.00" y2="960.00" />
<line x1="528.00" y1="976.00" x2="528.00" y2="992.00" />
<line x1="928.00" y1="944.00" x2="928.00" y2="960.00" />
<line x1="928.00" y1="1104.00" x2="928.00" y2="1120.00" />
<line x1="896.00" y1="976.00" x2="896.00" y2="992.00" />
<line x1="896.00" y1="1072.00" x2="896.00" y2="1104.00" />
<line x1="880.00" y1="992.00" x2="880.00" y2="1024.00" />
<line x1="880.00" y1="1040.00" x2="880.00" y2="1072.00" />
<line x1="224.00" y1="1088.00" x2="224.00" y2="1104.00" />
<line x1="224.00" y1="1232.00" x2="224.00" y2="1248.00" />
<line x1="1216.00" y1="1232.00" x2="1216.00" y2="1280.00" />
<line x1="1216.00" y1="1296.00" x2="1216.00" y2="1344.00" />
  </g>
  <g class="features">
<g data-feature-type="stairsDown"><line data-feature-type="stairsDown" x1="690.24" y1="1283.36" x2="701.76" y2="1283.36" /><line x1="690.65" y1="1285.68" x2="701.35" y2="1285.68" /><line x1="691.07" y1="1288.00" x2="700.93" y2="1288.00" /><line x1="691.48" y1="1290.32" x2="700.52" y2="1290.32" /><line x1="691.90" y1="1292.64" x2="700.10" y2="1292.64" /></g>
<g data-feature-type="stairsUp"><line data-feature-type="stairsUp" x1="1091.90" y1="435.36" x2="1100.10" y2="435.36" /><line x1="1091.48" y1="437.68" x2="1100.52" y2="437.68" /><line x1="1091.07" y1="440.00" x2="1100.93" y2="440.00" /><line x1="1090.65" y1="442.32" x2="1101.35" y2="442.32" /><line x1="1090.24" y1="444.64" x2="1101.76" y2="444.64" /></g>
<circle data-feature-type="pillar" cx="1384.00" cy="280.00" r="3.68" fill="#4f89a8" stroke="none" />
<g data-feature-type="statue"><circle cx="1320.00" cy="280.00" r="3.52" fill="none" /><line x1="1317.76" y1="280.00" x2="1322.24" y2="280.00" /><line x1="1320.00" y1="277.76" x2="1320.00" y2="282.24" /><line x1="1318.39" y1="278.39" x2="1321.61" y2="281.61" /><line x1="1318.39" y1="281.61" x2="1321.61" y2="278.39" /></g>
<g data-feature-type="chest"><rect x="1429.28" y="278.24" width="5.44" height="3.52" fill="none" /><line x1="1429.28" y1="280.00" x2="1434.72" y2="280.00" /><circle cx="1432.00" cy="280.18" r="0.70" fill="#4f89a8" stroke="none" /></g>
<circle data-feature-type="pillar" cx="88.00" cy="232.00" r="3.68" fill="#4f89a8" stroke="none" />
<g data-feature-type="statue"><circle cx="88.00" cy="184.00" r="3.52" fill="none" /><line x1="85.76" y1="184.00" x2="90.24" y2="184.00" /><line x1="88.00" y1="181.76" x2="88.00" y2="186.24" /><line x1="86.39" y1="182.39" x2="89.61" y2="185.61" /><line x1="86.39" y1="185.61" x2="89.61" y2="182.39" /></g>
<path data-feature-type="curtain" d="M 102.40 179.84 Q 104.00 182.34 102.40 184.00 Q 104.00 185.66 102.40 188.16" fill="none" /><path d="M 105.60 179.84 Q 104.00 182.34 105.60 184.00 Q 104.00 185.66 105.60 188.16" fill="none" />
<circle data-feature-type="pillar" cx="728.00" cy="1240.00" r="3.68" fill="#4f89a8" stroke="none" />
<circle data-feature-type="pillar" cx="680.00" cy="1240.00" r="3.68" fill="#4f89a8" stroke="none" />
<circle data-feature-type="pillar" cx="664.00" cy="1272.00" r="3.68" fill="#4f89a8" stroke="none" />
<circle data-feature-type="pillar" cx="712.00" cy="1272.00" r="3.68" fill="#4f89a8" stroke="none" />
<g data-feature-type="chest"><rect x="629.28" y="1318.24" width="5.44" height="3.52" fill="none" /><line x1="629.28" y1="1320.00" x2="634.72" y2="1320.00" /><circle cx="632.00" cy="1320.18" r="0.70" fill="#4f89a8" stroke="none" /></g>
<circle data-feature-type="pillar" cx="1160.00" cy="1320.00" r="3.68" fill="#4f89a8" stroke="none" />
<path data-feature-type="curtain" d="M 1110.40 1347.84 Q 1112.00 1350.34 1110.40 1352.00 Q 1112.00 1353.66 1110.40 1356.16" fill="none" /><path d="M 1113.60 1347.84 Q 1112.00 1350.34 1113.60 1352.00 Q 1112.00 1353.66 1113.60 1356.16" fill="none" />
<circle data-feature-type="pillar" cx="696.00" cy="536.00" r="3.68" fill="#4f89a8" stroke="none" />
<circle data-feature-type="pillar" cx="680.00" cy="536.00" r="3.68" fill="#4f89a8" stroke="none" />
<circle data-feature-type="pillar" cx="648.00" cy="536.00" r="3.68" fill="#4f89a8" stroke="none" />
<circle data-feature-type="pillar" cx="1032.00" cy="632.00" r="3.68" fill="#4f89a8" stroke="none" />
<circle data-feature-type="pillar" cx="136.00" cy="776.00" r="3.68" fill="#4f89a8" stroke="none" />
<circle data-feature-type="pillar" cx="136.00" cy="728.00" r="3.68" fill="#4f89a8" stroke="none" />
<circle data-feature-type="pillar" cx="1288.00" cy="1256.00" r="3.68" fill="#4f89a8" stroke="none" />
<circle data-feature-type="pillar" cx="1288.00" cy="1304.00" r="3.68" fill="#4f89a8" stroke="none" />
<g data-feature-type="well"><circle cx="1016.00" cy="824.00" r="4.00" fill="none" /><circle cx="1016.00" cy="824.00" r="2.24" fill="none" /></g>
<circle data-feature-type="pillar" cx="920.00" cy="1016.00" r="3.68" fill="#4f89a8" stroke="none" />
<circle data-feature-type="pillar" cx="984.00" cy="1016.00" r="3.68" fill="#4f89a8" stroke="none" />
<circle data-feature-type="pillar" cx="920.00" cy="1048.00" r="3.68" fill="#4f89a8" stroke="none" />
<g data-feature-type="chest"><rect x="901.28" y="1046.24" width="5.44" height="3.52" fill="none" /><line x1="901.28" y1="1048.00" x2="906.72" y2="1048.00" /><circle cx="904.00" cy="1048.18" r="0.70" fill="#4f89a8" stroke="none" /></g>
<circle data-feature-type="pillar" cx="1144.00" cy="88.00" r="3.68" fill="#4f89a8" stroke="none" />
<g data-feature-type="statue"><circle cx="1080.00" cy="88.00" r="3.52" fill="none" /><line x1="1077.76" y1="88.00" x2="1082.24" y2="88.00" /><line x1="1080.00" y1="85.76" x2="1080.00" y2="90.24" /><line x1="1078.39" y1="86.39" x2="1081.61" y2="89.61" /><line x1="1078.39" y1="89.61" x2="1081.61" y2="86.39" /></g>
<g data-feature-type="trap"><rect x="1092.64" y="68.64" width="6.72" height="6.72" fill="none" /><line x1="1092.64" y1="68.64" x2="1099.36" y2="75.36" /><line x1="1092.64" y1="75.36" x2="1099.36" y2="68.64" /></g>
<circle data-feature-type="pillar" cx="888.00" cy="152.00" r="3.68" fill="#4f89a8" stroke="none" />
<circle data-feature-type="pillar" cx="232.00" cy="456.00" r="3.68" fill="#4f89a8" stroke="none" />
<circle data-feature-type="pillar" cx="168.00" cy="456.00" r="3.68" fill="#4f89a8" stroke="none" />
<circle data-feature-type="pillar" cx="184.00" cy="424.00" r="3.68" fill="#4f89a8" stroke="none" />
<g data-feature-type="statue"><circle cx="152.00" cy="504.00" r="3.52" fill="none" /><line x1="149.76" y1="504.00" x2="154.24" y2="504.00" /><line x1="152.00" y1="501.76" x2="152.00" y2="506.24" /><line x1="150.39" y1="502.39" x2="153.61" y2="505.61" /><line x1="150.39" y1="505.61" x2="153.61" y2="502.39" /></g>
<circle data-feature-type="pillar" cx="248.00" cy="1160.00" r="3.68" fill="#4f89a8" stroke="none" />
<circle data-feature-type="pillar" cx="248.00" cy="1192.00" r="3.68" fill="#4f89a8" stroke="none" />
<circle data-feature-type="pillar" cx="280.00" cy="1192.00" r="3.68" fill="#4f89a8" stroke="none" />
<circle data-feature-type="pillar" cx="232.00" cy="1160.00" r="3.68" fill="#4f89a8" stroke="none" />
<g data-feature-type="statue"><circle cx="296.00" cy="1112.00" r="3.52" fill="none" /><line x1="293.76" y1="1112.00" x2="298.24" y2="1112.00" /><line x1="296.00" y1="1109.76" x2="296.00" y2="1114.24" /><line x1="294.39" y1="1110.39" x2="297.61" y2="1113.61" /><line x1="294.39" y1="1113.61" x2="297.61" y2="1110.39" /></g>
<circle data-feature-type="pillar" cx="600.00" cy="792.00" r="3.68" fill="#4f89a8" stroke="none" />
<circle data-feature-type="pillar" cx="600.00" cy="728.00" r="3.68" fill="#4f89a8" stroke="none" />
<g data-feature-type="statue"><circle cx="536.00" cy="760.00" r="3.52" fill="none" /><line x1="533.76" y1="760.00" x2="538.24" y2="760.00" /><line x1="536.00" y1="757.76" x2="536.00" y2="762.24" /><line x1="534.39" y1="758.39" x2="537.61" y2="761.61" /><line x1="534.39" y1="761.61" x2="537.61" y2="758.39" /></g>
<g data-feature-type="statue"><circle cx="1368.00" cy="920.00" r="3.52" fill="none" /><line x1="1365.76" y1="920.00" x2="1370.24" y2="920.00" /><line x1="1368.00" y1="917.76" x2="1368.00" y2="922.24" /><line x1="1366.39" y1="918.39" x2="1369.61" y2="921.61" /><line x1="1366.39" y1="921.61" x2="1369.61" y2="918.39" /></g>
<circle data-feature-type="pillar" cx="1048.00" cy="440.00" r="3.68" fill="#4f89a8" stroke="none" />
<circle data-feature-type="pillar" cx="1096.00" cy="472.00" r="3.68" fill="#4f89a8" stroke="none" />
<circle data-feature-type="pillar" cx="1048.00" cy="472.00" r="3.68" fill="#4f89a8" stroke="none" />
<circle data-feature-type="pillar" cx="1112.00" cy="440.00" r="3.68" fill="#4f89a8" stroke="none" />
<circle data-feature-type="pillar" cx="488.00" cy="312.00" r="3.68" fill="#4f89a8" stroke="none" />
<g data-feature-type="statue"><circle cx="584.00" cy="936.00" r="3.52" fill="none" /><line x1="581.76" y1="936.00" x2="586.24" y2="936.00" /><line x1="584.00" y1="933.76" x2="584.00" y2="938.24" /><line x1="582.39" y1="934.39" x2="585.61" y2="937.61" /><line x1="582.39" y1="937.61" x2="585.61" y2="934.39" /></g>
<circle data-feature-type="pillar" cx="456.00" cy="952.00" r="3.68" fill="#4f89a8" stroke="none" />
<circle data-feature-type="pillar" cx="456.00" cy="984.00" r="3.68" fill="#4f89a8" stroke="none" />
<circle data-feature-type="pillar" cx="408.00" cy="984.00" r="3.68" fill="#4f89a8" stroke="none" />
<g data-feature-type="altar"><rect x="421.28" y="918.40" width="5.44" height="3.20" fill="none" /><line x1="424.00" y1="917.44" x2="424.00" y2="922.56" /><line x1="422.40" y1="920.00" x2="425.60" y2="920.00" /></g>
  </g>
  <g class="thresholds">
<rect data-threshold-type="door" x="1363.52" y="261.76" width="8.96" height="4.48" fill="#ffffff" stroke="#4f89a8" stroke-width="1.52" />
<g data-threshold-type="secret"><line x1="115.52" y1="232.00" x2="124.48" y2="232.00" stroke="#4f89a8" stroke-width="1.31" stroke-dasharray="1.31 1.31" /><text x="125.56" y="231.10" font-size="5.44" fill="#4f89a8" font-family="Courier New, monospace" font-weight="700">S</text></g>
<rect data-threshold-type="door" x="595.52" y="1317.76" width="8.96" height="4.48" fill="#ffffff" stroke="#4f89a8" stroke-width="1.52" />
<rect data-threshold-type="door" x="1107.52" y="1381.76" width="8.96" height="4.48" fill="#ffffff" stroke="#4f89a8" stroke-width="1.52" />
<rect data-threshold-type="door" x="371.52" y="805.76" width="8.96" height="4.48" fill="#ffffff" stroke="#4f89a8" stroke-width="1.52" />
<rect data-threshold-type="door" x="451.52" y="85.76" width="8.96" height="4.48" fill="#ffffff" stroke="#4f89a8" stroke-width="1.52" />
<rect data-threshold-type="door" x="707.52" y="453.76" width="8.96" height="4.48" fill="#ffffff" stroke="#4f89a8" stroke-width="1.52" />
<rect data-threshold-type="door" x="1075.52" y="597.76" width="8.96" height="4.48" fill="#ffffff" stroke="#4f89a8" stroke-width="1.52" />
<rect data-threshold-type="door" x="275.52" y="981.76" width="8.96" height="4.48" fill="#ffffff" stroke="#4f89a8" stroke-width="1.52" />
<rect data-threshold-type="door" x="195.52" y="757.76" width="8.96" height="4.48" fill="#ffffff" stroke="#4f89a8" stroke-width="1.52" />
<rect data-threshold-type="door" x="355.52" y="613.76" width="8.96" height="4.48" fill="#ffffff" stroke="#4f89a8" stroke-width="1.52" />
<g data-threshold-type="secret"><line x1="1219.52" y1="1288.00" x2="1228.48" y2="1288.00" stroke="#4f89a8" stroke-width="1.31" stroke-dasharray="1.31 1.31" /><text x="1229.56" y="1287.10" font-size="5.44" fill="#4f89a8" font-family="Courier New, monospace" font-weight="700">S</text></g>
<rect data-threshold-type="door" x="947.52" y="805.76" width="8.96" height="4.48" fill="#ffffff" stroke="#4f89a8" stroke-width="1.52" />
<rect data-threshold-type="door" x="1363.52" y="1397.76" width="8.96" height="4.48" fill="#ffffff" stroke="#4f89a8" stroke-width="1.52" />
<rect data-threshold-type="door" x="883.52" y="949.76" width="8.96" height="4.48" fill="#ffffff" stroke="#4f89a8" stroke-width="1.52" />
<rect data-threshold-type="door" x="1059.52" y="85.76" width="8.96" height="4.48" fill="#ffffff" stroke="#4f89a8" stroke-width="1.52" />
<rect data-threshold-type="door" x="883.52" y="213.76" width="8.96" height="4.48" fill="#ffffff" stroke="#4f89a8" stroke-width="1.52" />
<rect data-threshold-type="door" x="243.52" y="501.76" width="8.96" height="4.48" fill="#ffffff" stroke="#4f89a8" stroke-width="1.52" />
<g data-threshold-type="secret"><line x1="291.52" y1="248.00" x2="300.48" y2="248.00" stroke="#4f89a8" stroke-width="1.31" stroke-dasharray="1.31 1.31" /><text x="301.56" y="247.10" font-size="5.44" fill="#4f89a8" font-family="Courier New, monospace" font-weight="700">S</text></g>
<rect data-threshold-type="door" x="243.52" y="1237.76" width="8.96" height="4.48" fill="#ffffff" stroke="#4f89a8" stroke-width="1.52" />
<rect data-threshold-type="door" x="675.52" y="805.76" width="8.96" height="4.48" fill="#ffffff" stroke="#4f89a8" stroke-width="1.52" />
<rect data-threshold-type="door" x="1251.52" y="965.76" width="8.96" height="4.48" fill="#ffffff" stroke="#4f89a8" stroke-width="1.52" />
<rect data-threshold-type="door" x="1139.52" y="533.76" width="8.96" height="4.48" fill="#ffffff" stroke="#4f89a8" stroke-width="1.52" />
<rect data-threshold-type="door" x="531.52" y="277.76" width="8.96" height="4.48" fill="#ffffff" stroke="#4f89a8" stroke-width="1.52" />
<rect data-threshold-type="door" x="547.52" y="965.76" width="8.96" height="4.48" fill="#ffffff" stroke="#4f89a8" stroke-width="1.52" />
<rect data-threshold-type="door" x="515.52" y="965.76" width="8.96" height="4.48" fill="#ffffff" stroke="#4f89a8" stroke-width="1.52" />
  </g>
  <g class="labels">
<text x="1368.00" y="281.92" text-anchor="middle">1</text>
<text x="104.00" y="233.92" text-anchor="middle">2</text>
<text x="696.00" y="1257.92" text-anchor="middle">3</text>
<text x="1144.00" y="1321.92" text-anchor="middle">4</text>
<text x="360.00" y="809.92" text-anchor="middle">5</text>
<text x="504.00" y="89.92" text-anchor="middle">6</text>
<text x="664.00" y="521.92" text-anchor="middle">7</text>
<text x="1016.00" y="633.92" text-anchor="middle">8</text>
<text x="296.00" y="969.92" text-anchor="middle">9</text>
<text x="136.00" y="761.92" text-anchor="middle">10</text>
<text x="376.00" y="601.92" text-anchor="middle">11</text>
<text x="1288.00" y="1289.92" text-anchor="middle">12</text>
<text x="952.00" y="841.92" text-anchor="middle">13</text>
<text x="1400.00" y="1401.92" text-anchor="middle">14</text>
<text x="952.00" y="1033.92" text-anchor="middle">15</text>
<text x="1128.00" y="89.92" text-anchor="middle">16</text>
<text x="872.00" y="153.92" text-anchor="middle">17</text>
<text x="200.00" y="441.92" text-anchor="middle">18</text>
<text x="248.00" y="249.92" text-anchor="middle">19</text>
<text x="264.00" y="1177.92" text-anchor="middle">20</text>
<text x="600.00" y="761.92" text-anchor="middle">21</text>
<text x="1336.00" y="921.92" text-anchor="middle">22</text>
<text x="1080.00" y="457.92" text-anchor="middle">23</text>
<text x="472.00" y="313.92" text-anchor="middle">24</text>
<text x="584.00" y="953.92" text-anchor="middle">25</text>
<text x="440.00" y="969.92" text-anchor="middle">26</text>
  </g>
</svg>