<?xml version="1.0" encoding="UTF-8"?>
<svg xmlns="http://www.w3.org/2000/svg" width="1440" height="1536" viewBox="0 0 1440.00 1536.00" role="img" aria-label="MapIR render: Learned Generated Map 7">
  <defs>
    <style>
      .grid { stroke: #cde2ec; stroke-width: 0.64; opacity: 0.72; }
      .walls { stroke: #6aa7c7; stroke-width: 1.92; fill: none; stroke-linecap: square; }
      .thresholds { fill: none; stroke-linecap: round; }
      .features { stroke: #4f89a8; fill: none; stroke-width: 1.60; stroke-linecap: round; stroke-linejoin: round; }
      .labels { fill: #4f89a8; font-size: 7.20px; font-family: "Courier New", monospace; font-weight: 600; }
    </style>
  </defs>
  <rect x="0" y="0" width="1440.00" height="1536.00" fill="#4393be" />
  <g class="floors">
<rect x="480.00" y="48.00" width="112.00" height="160.00" fill="#fcfdfe" />
<rect x="1264.00" y="96.00" width="128.00" height="144.00" fill="#fcfdfe" />
<rect x="272.00" y="128.00" width="80.00" height="80.00" fill="#fcfdfe" />
<rect x="384.00" y="128.00" width="96.00" height="16.00" fill="#fcfdfe" />
<rect x="592.00" y="128.00" width="672.00" height="16.00" fill="#fcfdfe" />
<rect x="384.00" y="144.00" width="16.00" height="1216.00" fill="#fcfdfe" />
<rect x="176.00" y="160.00" width="96.00" height="16.00" fill="#fcfdfe" />
<rect x="352.00" y="160.00" width="32.00" height="16.00" fill="#fcfdfe" />
<rect x="400.00" y="160.00" width="80.00" height="16.00" fill="#fcfdfe" />
<rect x="592.00" y="160.00" width="672.00" height="16.00" fill="#fcfdfe" />
<rect x="176.00" y="176.00" width="16.00" height="128.00" fill="#fcfdfe" />
<rect x="1200.00" y="176.00" width="16.00" height="1104.00" fill="#fcfdfe" />
<rect x="304.00" y="208.00" width="16.00" height="1248.00" fill="#fcfdfe" />
<rect x="528.00" y="208.00" width="16.00" height="1072.00" fill="#fcfdfe" />
<rect x="720.00" y="208.00" width="144.00" height="160.00" fill="#fcfdfe" />
<rect x="144.00" y="240.00" width="32.00" height="64.00" fill="#fcfdfe" />
<rect x="192.00" y="240.00" width="16.00" height="64.00" fill="#fcfdfe" />
<rect x="1328.00" y="240.00" width="16.00" height="880.00" fill="#fcfdfe" />
<rect x="1376.00" y="240.00" width="16.00" height="1120.00" fill="#fcfdfe" />
<rect x="1056.00" y="256.00" width="144.00" height="96.00" fill="#fcfdfe" />
<rect x="1216.00" y="256.00" width="16.00" height="96.00" fill="#fcfdfe" />
<rect x="208.00" y="272.00" width="96.00" height="16.00" fill="#fcfdfe" />
<rect x="320.00" y="272.00" width="64.00" height="16.00" fill="#fcfdfe" />
<rect x="400.00" y="272.00" width="128.00" height="32.00" fill="#fcfdfe" />
<rect x="544.00" y="272.00" width="48.00" height="32.00" fill="#fcfdfe" />
<rect x="256.00" y="288.00" width="48.00" height="80.00" fill="#fcfdfe" />
<rect x="320.00" y="288.00" width="48.00" height="80.00" fill="#fcfdfe" />
<rect x="592.00" y="288.00" width="128.00" height="16.00" fill="#fcfdfe" />
<rect x="432.00" y="304.00" width="64.00" height="176.00" fill="#fcfdfe" />
<rect x="576.00" y="304.00" width="16.00" height="880.00" fill="#fcfdfe" />
<rect x="368.00" y="320.00" width="16.00" height="16.00" fill="#fcfdfe" />
<rect x="400.00" y="320.00" width="32.00" height="16.00" fill="#fcfdfe" />
<rect x="496.00" y="320.00" width="32.00" height="16.00" fill="#fcfdfe" />
<rect x="112.00" y="352.00" width="112.00" height="160.00" fill="#fcfdfe" />
<rect x="1136.00" y="352.00" width="16.00" height="576.00" fill="#fcfdfe" />
<rect x="784.00" y="368.00" width="16.00" height="1056.00" fill="#fcfdfe" />
<rect x="512.00" y="416.00" width="16.00" height="112.00" fill="#fcfdfe" />
<rect x="544.00" y="416.00" width="32.00" height="112.00" fill="#fcfdfe" />
<rect x="592.00" y="416.00" width="96.00" height="112.00" fill="#fcfdfe" />
<rect x="224.00" y="432.00" width="80.00" height="16.00" fill="#fcfdfe" />
<rect x="320.00" y="432.00" width="64.00" height="16.00" fill="#fcfdfe" />
<rect x="400.00" y="432.00" width="32.00" height="16.00" fill="#fcfdfe" />
<rect x="496.00" y="432.00" width="16.00" height="16.00" fill="#fcfdfe" />
<rect x="688.00" y="432.00" width="96.00" height="16.00" fill="#fcfdfe" />
<rect x="800.00" y="432.00" width="336.00" height="16.00" fill="#fcfdfe" />
<rect x="400.00" y="464.00" width="32.00" height="16.00" fill="#fcfdfe" />
<rect x="496.00" y="464.00" width="16.00" height="16.00" fill="#fcfdfe" />
<rect x="688.00" y="464.00" width="96.00" height="16.00" fill="#fcfdfe" />
<rect x="800.00" y="464.00" width="336.00" height="16.00" fill="#fcfdfe" />
<rect x="1152.00" y="464.00" width="48.00" height="16.00" fill="#fcfdfe" />
<rect x="464.00" y="480.00" width="16.00" height="432.00" fill="#fcfdfe" />
<rect x="800.00" y="480.00" width="80.00" height="176.00" fill="#fcfdfe" />
<rect x="1264.00" y="480.00" width="64.00" height="64.00" fill="#fcfdfe" />
<rect x="1344.00" y="480.00" width="16.00" height="64.00" fill="#fcfdfe" />
<rect x="160.00" y="512.00" width="16.00" height="400.00" fill="#fcfdfe" />
<rect x="240.00" y="512.00" width="64.00" height="16.00" fill="#fcfdfe" />
<rect x="320.00" y="512.00" width="64.00" height="16.00" fill="#fcfdfe" />
<rect x="400.00" y="512.00" width="64.00" height="16.00" fill="#fcfdfe" />
<rect x="480.00" y="512.00" width="32.00" height="16.00" fill="#fcfdfe" />
<rect x="688.00" y="512.00" width="96.00" height="16.00" fill="#fcfdfe" />
<rect x="880.00" y="512.00" width="256.00" height="16.00" fill="#fcfdfe" />
<rect x="1152.00" y="512.00" width="48.00" height="16.00" fill="#fcfdfe" />
<rect x="1216.00" y="512.00" width="48.00" height="16.00" fill="#fcfdfe" />
<rect x="240.00" y="528.00" width="16.00" height="848.00" fill="#fcfdfe" />
<rect x="880.00" y="560.00" width="256.00" height="16.00" fill="#fcfdfe" />
<rect x="1152.00" y="560.00" width="48.00" height="16.00" fill="#fcfdfe" />
<rect x="1216.00" y="560.00" width="112.00" height="16.00" fill="#fcfdfe" />
<rect x="592.00" y="576.00" width="176.00" height="80.00" fill="#fcfdfe" />
<rect x="320.00" y="608.00" width="64.00" height="16.00" fill="#fcfdfe" />
<rect x="400.00" y="608.00" width="64.00" height="16.00" fill="#fcfdfe" />
<rect x="480.00" y="608.00" width="48.00" height="16.00" fill="#fcfdfe" />
<rect x="544.00" y="608.00" width="32.00" height="16.00" fill="#fcfdfe" />
<rect x="768.00" y="608.00" width="16.00" height="16.00" fill="#fcfdfe" />
<rect x="880.00" y="608.00" width="256.00" height="16.00" fill="#fcfdfe" />
<rect x="1152.00" y="608.00" width="48.00" height="16.00" fill="#fcfdfe" />
<rect x="1216.00" y="608.00" width="112.00" height="16.00" fill="#fcfdfe" />
<rect x="1344.00" y="608.00" width="32.00" height="16.00" fill="#fcfdfe" />
<rect x="1360.00" y="640.00" width="16.00" height="176.00" fill="#fcfdfe" />
<rect x="1392.00" y="640.00" width="16.00" height="176.00" fill="#fcfdfe" />
<rect x="848.00" y="656.00" width="16.00" height="256.00" fill="#fcfdfe" />
<rect x="1152.00" y="688.00" width="48.00" height="128.00" fill="#fcfdfe" />
<rect x="1216.00" y="688.00" width="64.00" height="128.00" fill="#fcfdfe" />
<rect x="768.00" y="720.00" width="16.00" height="192.00" fill="#fcfdfe" />
<rect x="800.00" y="720.00" width="48.00" height="192.00" fill="#fcfdfe" />
<rect x="864.00" y="720.00" width="64.00" height="192.00" fill="#fcfdfe" />
<rect x="1216.00" y="816.00" width="16.00" height="112.00" fill="#fcfdfe" />
<rect x="560.00" y="864.00" width="16.00" height="80.00" fill="#fcfdfe" />
<rect x="592.00" y="864.00" width="64.00" height="80.00" fill="#fcfdfe" />
<rect x="1152.00" y="880.00" width="48.00" height="48.00" fill="#fcfdfe" />
<rect x="1232.00" y="880.00" width="80.00" height="48.00" fill="#fcfdfe" />
<rect x="176.00" y="896.00" width="64.00" height="16.00" fill="#fcfdfe" />
<rect x="256.00" y="896.00" width="48.00" height="16.00" fill="#fcfdfe" />
<rect x="320.00" y="896.00" width="64.00" height="16.00" fill="#fcfdfe" />
<rect x="400.00" y="896.00" width="64.00" height="16.00" fill="#fcfdfe" />
<rect x="480.00" y="896.00" width="48.00" height="16.00" fill="#fcfdfe" />
<rect x="544.00" y="896.00" width="16.00" height="16.00" fill="#fcfdfe" />
<rect x="656.00" y="896.00" width="112.00" height="16.00" fill="#fcfdfe" />
<rect x="928.00" y="896.00" width="208.00" height="16.00" fill="#fcfdfe" />
<rect x="864.00" y="912.00" width="16.00" height="448.00" fill="#fcfdfe" />
<rect x="352.00" y="1024.00" width="32.00" height="176.00" fill="#fcfdfe" />
<rect x="400.00" y="1024.00" width="32.00" height="176.00" fill="#fcfdfe" />
<rect x="544.00" y="1056.00" width="32.00" height="112.00" fill="#fcfdfe" />
<rect x="592.00" y="1056.00" width="32.00" height="128.00" fill="#fcfdfe" />
<rect x="624.00" y="1072.00" width="16.00" height="80.00" fill="#fcfdfe" />
<rect x="320.00" y="1104.00" width="32.00" height="16.00" fill="#fcfdfe" />
<rect x="432.00" y="1104.00" width="96.00" height="16.00" fill="#fcfdfe" />
<rect x="640.00" y="1104.00" width="144.00" height="16.00" fill="#fcfdfe" />
<rect x="800.00" y="1104.00" width="64.00" height="16.00" fill="#fcfdfe" />
<rect x="880.00" y="1104.00" width="320.00" height="16.00" fill="#fcfdfe" />
<rect x="1216.00" y="1104.00" width="112.00" height="16.00" fill="#fcfdfe" />
<rect x="704.00" y="1120.00" width="80.00" height="112.00" fill="#fcfdfe" />
<rect x="800.00" y="1120.00" width="48.00" height="112.00" fill="#fcfdfe" />
<rect x="1168.00" y="1136.00" width="32.00" height="144.00" fill="#fcfdfe" />
<rect x="1216.00" y="1136.00" width="16.00" height="144.00" fill="#fcfdfe" />
<rect x="1152.00" y="1152.00" width="16.00" height="128.00" fill="#fcfdfe" />
<rect x="1232.00" y="1152.00" width="16.00" height="128.00" fill="#fcfdfe" />
<rect x="624.00" y="1168.00" width="80.00" height="16.00" fill="#fcfdfe" />
<rect x="1136.00" y="1168.00" width="16.00" height="80.00" fill="#fcfdfe" />
<rect x="1248.00" y="1168.00" width="16.00" height="80.00" fill="#fcfdfe" />
<rect x="1328.00" y="1184.00" width="48.00" height="176.00" fill="#fcfdfe" />
<rect x="1392.00" y="1184.00" width="16.00" height="176.00" fill="#fcfdfe" />
<rect x="544.00" y="1264.00" width="240.00" height="16.00" fill="#fcfdfe" />
<rect x="800.00" y="1264.00" width="64.00" height="16.00" fill="#fcfdfe" />
<rect x="880.00" y="1264.00" width="272.00" height="16.00" fill="#fcfdfe" />
<rect x="1248.00" y="1264.00" width="80.00" height="16.00" fill="#fcfdfe" />
<rect x="176.00" y="1312.00" width="64.00" height="64.00" fill="#fcfdfe" />
<rect x="256.00" y="1312.00" width="48.00" height="64.00" fill="#fcfdfe" />
<rect x="816.00" y="1312.00" width="48.00" height="48.00" fill="#fcfdfe" />
<rect x="880.00" y="1312.00" width="48.00" height="48.00" fill="#fcfdfe" />
<rect x="320.00" y="1328.00" width="64.00" height="32.00" fill="#fcfdfe" />
<rect x="400.00" y="1328.00" width="384.00" height="16.00" fill="#fcfdfe" />
<rect x="800.00" y="1328.00" width="16.00" height="16.00" fill="#fcfdfe" />
<rect x="928.00" y="1328.00" width="400.00" height="16.00" fill="#fcfdfe" />
<rect x="560.00" y="1360.00" width="144.00" height="112.00" fill="#fcfdfe" />
<rect x="112.00" y="1392.00" width="96.00" height="112.00" fill="#fcfdfe" />
<rect x="704.00" y="1408.00" width="80.00" height="16.00" fill="#fcfdfe" />
<rect x="208.00" y="1440.00" width="96.00" height="16.00" fill="#fcfdfe" />
  </g>
  <g class="grid">
<line x1="0.00" y1="0" x2="0.00" y2="1536.00" />
<line x1="16.00" y1="0" x2="16.00" y2="1536.00" />
<line x1="32.00" y1="0" x2="32.00" y2="1536.00" />
<line x1="48.00" y1="0" x2="48.00" y2="1536.00" />
<line x1="64.00" y1="0" x2="64.00" y2="1536.00" />
<line x1="80.00" y1="0" x2="80.00" y2="1536.00" />
<line x1="96.00" y1="0" x2="96.00" y2="1536.00" />
<line x1="112.00" y1="0" x2="112.00" y2="1536.00" />
<line x1="128.00" y1="0" x2="128.00" y2="1536.00" />
<line x1="144.00" y1="0" x2="144.00" y2="1536.00" />
<line x1="160.00" y1="0" x2="160.00" y2="1536.00" />
<line x1="176.00" y1="0" x2="176.00" y2="1536.00" />
<line x1="192.00" y1="0" x2="192.00" y2="1536.00" />
<line x1="208.00" y1="0" x2="208.00" y2="1536.00" />
<line x1="224.00" y1="0" x2="224.00" y2="1536.00" />
<line x1="240.00" y1="0" x2="240.00" y2="1536.00" />
<line x1="256.00" y1="0" x2="256.00" y2="1536.00" />
<line x1="272.00" y1="0" x2="272.00" y2="1536.00" />
<line x1="288.00" y1="0" x2="288.00" y2="1536.00" />
<line x1="304.00" y1="0" x2="304.00" y2="1536.00" />
<line x1="320.00" y1="0" x2="320.00" y2="1536.00" />
<line x1="336.00" y1="0" x2="336.00" y2="1536.00" />
<line x1="352.00" y1="0" x2="352.00" y2="1536.00" />
<line x1="368.00" y1="0" x2="368.00" y2="1536.00" />
<line x1="384.00" y1="0" x2="384.00" y2="1536.00" />
<line x1="400.00" y1="0" x2="400.00" y2="1536.00" />
<line x1="416.00" y1="0" x2="416.00" y2="1536.00" />
<line x1="432.00" y1="0" x2="432.00" y2="1536.00" />
<line x1="448.00" y1="0" x2="448.00" y2="1536.00" />
<line x1="464.00" y1="0" x2="464.00" y2="1536.00" />
<line x1="480.00" y1="0" x2="480.00" y2="1536.00" />
<line x1="496.00" y1="0" x2="496.00" y2="1536.00" />
<line x1="512.00" y1="0" x2="512.00" y2="1536.00" />
<line x1="528.00" y1="0" x2="528.00" y2="1536.00" />
<line x1="544.00" y1="0" x2="544.00" y2="1536.00" />
<line x1="560.00" y1="0" x2="560.00" y2="1536.00" />
<line x1="576.00" y1="0" x2="576.00" y2="1536.00" />
<line x1="592.00" y1="0" x2="592.00" y2="1536.00" />
<line x1="608.00" y1="0" x2="608.00" y2="1536.00" />
<line x1="624.00" y1="0" x2="624.00" y2="1536.00" />
<line x1="640.00" y1="0" x2="640.00" y2="1536.00" />
<line x1="656.00" y1="0" x2="656.00" y2="1536.00" />
<line x1="672.00" y1="0" x2="672.00" y2="1536.00" />
<line x1="688.00" y1="0" x2="688.00" y2="1536.00" />
<line x1="704.00" y1="0" x2="704.00" y2="1536.00" />
<line x1="720.00" y1="0" x2="720.00" y2="1536.00" />
<line x1="736.00" y1="0" x2="736.00" y2="1536.00" />
<line x1="752.00" y1="0" x2="752.00" y2="1536.00" />
<line x1="768.00" y1="0" x2="768.00" y2="1536.00" />
<line x1="784.00" y1="0" x2="784.00" y2="1536.00" />
<line x1="800.00" y1="0" x2="800.00" y2="1536.00" />
<line x1="816.00" y1="0" x2="816.00" y2="1536.00" />
<line x1="832.00" y1="0" x2="832.00" y2="1536.00" />
<line x1="848.00" y1="0" x2="848.00" y2="1536.00" />
<line x1="864.00" y1="0" x2="864.00" y2="1536.00" />
<line x1="880.00" y1="0" x2="880.00" y2="1536.00" />
<line x1="896.00" y1="0" x2="896.00" y2="1536.00" />
<line x1="912.00" y1="0" x2="912.00" y2="1536.00" />
<line x1="928.00" y1="0" x2="928.00" y2="1536.00" />
<line x1="944.00" y1="0" x2="944.00" y2="1536.00" />
<line x1="960.00" y1="0" x2="960.00" y2="1536.00" />
<line x1="976.00" y1="0" x2="976.00" y2="1536.00" />
<line x1="992.00" y1="0" x2="992.00" y2="1536.00" />
<line x1="1008.00" y1="0" x2="1008.00" y2="1536.00" />
<line x1="1024.00" y1="0" x2="1024.00" y2="1536.00" />
<line x1="1040.00" y1="0" x2="1040.00" y2="1536.00" />
<line x1="1056.00" y1="0" x2="1056.00" y2="1536.00" />
<line x1="1072.00" y1="0" x2="1072.00" y2="1536.00" />
<line x1="1088.00" y1="0" x2="1088.00" y2="1536.00" />
<line x1="1104.00" y1="0" x2="1104.00" y2="1536.00" />
<line x1="1120.00" y1="0" x2="1120.00" y2="1536.00" />
<line x1="1136.00" y1="0" x2="1136.00" y2="1536.00" />
<line x1="1152.00" y1="0" x2="1152.00" y2="1536.00" />
<line x1="1168.00" y1="0" x2="1168.00" y2="1536.00" />
<line x1="1184.00" y1="0" x2="1184.00" y2="1536.00" />
<line x1="1200.00" y1="0" x2="1200.00" y2="1536.00" />
<line x1="1216.00" y1="0" x2="1216.00" y2="1536.00" />
<line x1="1232.00" y1="0" x2="1232.00" y2="1536.00" />
<line x1="1248.00" y1="0" x2="1248.00" y2="1536.00" />
<line x1="1264.00" y1="0" x2="1264.00" y2="1536.00" />
<line x1="1280.00" y1="0" x2="1280.00" y2="1536.00" />
<line x1="1296.00" y1="0" x2="1296.00" y2="1536.00" />
<line x1="1312.00" y1="0" x2="1312.00" y2="1536.00" />
<line x1="1328.00" y1="0" x2="1328.00" y2="1536.00" />
<line x1="1344.00" y1="0" x2="1344.00" y2="1536.00" />
<line x1="1360.00" y1="0" x2="1360.00" y2="1536.00" />
<line x1="1376.00" y1="0" x2="1376.00" y2="1536.00" />
<line x1="1392.00" y1="0" x2="1392.00" y2="1536.00" />
<line x1="1408.00" y1="0" x2="1408.00" y2="1536.00" />
<line x1="1424.00" y1="0" x2="1424.00" y2="1536.00" />
<line x1="1440.00" y1="0" x2="1440.00" y2="1536.00" />
<line x1="0" y1="0.00" x2="1440.00" y2="0.00" />
<line x1="0" y1="16.00" x2="1440.00" y2="16.00" />
<line x1="0" y1="32.00" x2="1440.00" y2="32.00" />
<line x1="0" y1="48.00" x2="1440.00" y2="48.00" />
<line x1="0" y1="64.00" x2="1440.00" y2="64.00" />
<line x1="0" y1="80.00" x2="1440.00" y2="80.00" />
<line x1="0" y1="96.00" x2="1440.00" y2="96.00" />
<line x1="0" y1="112.00" x2="1440.00" y2="112.00" />
<line x1="0" y1="128.00" x2="1440.00" y2="128.00" />
<line x1="0" y1="144.00" x2="1440.00" y2="144.00" />
<line x1="0" y1="160.00" x2="1440.00" y2="160.00" />
<line x1="0" y1="176.00" x2="1440.00" y2="176.00" />
<line x1="0" y1="192.00" x2="1440.00" y2="192.00" />
<line x1="0" y1="208.00" x2="1440.00" y2="208.00" />
<line x1="0" y1="224.00" x2="1440.00" y2="224.00" />
<line x1="0" y1="240.00" x2="1440.00" y2="240.00" />
<line x1="0" y1="256.00" x2="1440.00" y2="256.00" />
<line x1="0" y1="272.00" x2="1440.00" y2="272.00" />
<line x1="0" y1="288.00" x2="1440.00" y2="288.00" />
<line x1="0" y1="304.00" x2="1440.00" y2="304.00" />
<line x1="0" y1="320.00" x2="1440.00" y2="320.00" />
<line x1="0" y1="336.00" x2="1440.00" y2="336.00" />
<line x1="0" y1="352.00" x2="1440.00" y2="352.00" />
<line x1="0" y1="368.00" x2="1440.00" y2="368.00" />
<line x1="0" y1="384.00" x2="1440.00" y2="384.00" />
<line x1="0" y1="400.00" x2="1440.00" y2="400.00" />
<line x1="0" y1="416.00" x2="1440.00" y2="416.00" />
<line x1="0" y1="432.00" x2="1440.00" y2="432.00" />
<line x1="0" y1="448.00" x2="1440.00" y2="448.00" />
<line x1="0" y1="464.00" x2="1440.00" y2="464.00" />
<line x1="0" y1="480.00" x2="1440.00" y2="480.00" />
<line x1="0" y1="496.00" x2="1440.00" y2="496.00" />
<line x1="0" y1="512.00" x2="1440.00" y2="512.00" />
<line x1="0" y1="528.00" x2="1440.00" y2="528.00" />
<line x1="0" y1="544.00" x2="1440.00" y2="544.00" />
<line x1="0" y1="560.00" x2="1440.00" y2="560.00" />
<line x1="0" y1="576.00" x2="1440.00" y2="576.00" />
<line x1="0" y1="592.00" x2="1440.00" y2="592.00" />
<line x1="0" y1="608.00" x2="1440.00" y2="608.00" />
<line x1="0" y1="624.00" x2="1440.00" y2="624.00" />
<line x1="0" y1="640.00" x2="1440.00" y2="640.00" />
<line x1="0" y1="656.00" x2="1440.00" y2="656.00" />
<line x1="0" y1="672.00" x2="1440.00" y2="672.00" />
<line x1="0" y1="688.00" x2="1440.00" y2="688.00" />
<line x1="0" y1="704.00" x2="1440.00" y2="704.00" />
<line x1="0" y1="720.00" x2="1440.00" y2="720.00" />
<line x1="0" y1="736.00" x2="1440.00" y2="736.00" />
<line x1="0" y1="752.00" x2="1440.00" y2="752.00" />
<line x1="0" y1="768.00" x2="1440.00" y2="768.00" />
<line x1="0" y1="784.00" x2="1440.00" y2="784.00" />
<line x1="0" y1="800.00" x2="1440.00" y2="800.00" />
<line x1="0" y1="816.00" x2="1440.00" y2="816.00" />
<line x1="0" y1="832.00" x2="1440.00" y2="832.00" />
<line x1="0" y1="848.00" x2="1440.00" y2="848.00" />
<line x1="0" y1="864.00" x2="1440.00" y2="864.00" />
<line x1="0" y1="880.00" x2="1440.00" y2="880.00" />
<line x1="0" y1="896.00" x2="1440.00" y2="896.00" />
<line x1="0" y1="912.00" x2="1440.00" y2="912.00" />
<line x1="0" y1="928.00" x2="1440.00" y2="928.00" />
<line x1="0" y1="944.00" x2="1440.00" y2="944.00" />
<line x1="0" y1="960.00" x2="1440.00" y2="960.00" />
<line x1="0" y1="976.00" x2="1440.00" y2="976.00" />
<line x1="0" y1="992.00" x2="1440.00" y2="992.00" />
<line x1="0" y1="1008.00" x2="1440.00" y2="1008.00" />
<line x1="0" y1="1024.00" x2="1440.00" y2="1024.00" />
<line x1="0" y1="1040.00" x2="1440.00" y2="1040.00" />
<line x1="0" y1="1056.00" x2="1440.00" y2="1056.00" />
<line x1="0" y1="1072.00" x2="1440.00" y2="1072.00" />
<line x1="0" y1="1088.00" x2="1440.00" y2="1088.00" />
<line x1="0" y1="1104.00" x2="1440.00" y2="1104.00" />
<line x1="0" y1="1120.00" x2="1440.00" y2="1120.00" />
<line x1="0" y1="1136.00" x2="1440.00" y2="1136.00" />
<line x1="0" y1="1152.00" x2="1440.00" y2="1152.00" />
<line x1="0" y1="1168.00" x2="1440.00" y2="1168.00" />
<line x1="0" y1="1184.00" x2="1440.00" y2="1184.00" />
<line x1="0" y1="1200.00" x2="1440.00" y2="1200.00" />
<line x1="0" y1="1216.00" x2="1440.00" y2="1216.00" />
<line x1="0" y1="1232.00" x2="1440.00" y2="1232.00" />
<line x1="0" y1="1248.00" x2="1440.00" y2="1248.00" />
<line x1="0" y1="1264.00" x2="1440.00" y2="1264.00" />
<line x1="0" y1="1280.00" x2="1440.00" y2="1280.00" />
<line x1="0" y1="1296.00" x2="1440.00" y2="1296.00" />
<line x1="0" y1="1312.00" x2="1440.00" y2="1312.00" />
<line x1="0" y1="1328.00" x2="1440.00" y2="1328.00" />
<line x1="0" y1="1344.00" x2="1440.00" y2="1344.00" />
<line x1="0" y1="1360.00" x2="1440.00" y2="1360.00" />
<line x1="0" y1="1376.00" x2="1440.00" y2="1376.00" />
<line x1="0" y1="1392.00" x2="1440.00" y2="1392.00" />
<line x1="0" y1="1408.00" x2="1440.00" y2="1408.00" />
<line x1="0" y1="1424.00" x2="1440.00" y2="1424.00" />
<line x1="0" y1="1440.00" x2="1440.00" y2="1440.00" />
<line x1="0" y1="1456.00" x2="1440.00" y2="1456.00" />
<line x1="0" y1="1472.00" x2="1440.00" y2="1472.00" />
<line x1="0" y1="1488.00" x2="1440.00" y2="1488.00" />
<line x1="0" y1="1504.00" x2="1440.00" y2="1504.00" />
<line x1="0" y1="1520.00" x2="1440.00" y2="1520.00" />
<line x1="0" y1="1536.00" x2="1440.00" y2="1536.00" />
  </g>
  <g class="walls">
<line x1="480.00" y1="48.00" x2="592.00" y2="48.00" />
<line x1="1264.00" y1="96.00" x2="1392.00" y2="96.00" />
<line x1="272.00" y1="128.00" x2="352.00" y2="128.00" />
<line x1="384.00" y1="128.00" x2="480.00" y2="128.00" />
<line x1="592.00" y1="128.00" x2="1264.00" y2="128.00" />
<line x1="400.00" y1="144.00" x2="480.00" y2="144.00" />
<line x1="592.00" y1="144.00" x2="1264.00" y2="144.00" />
<line x1="176.00" y1="160.00" x2="272.00" y2="160.00" />
<line x1="352.00" y1="160.00" x2="384.00" y2="160.00" />
<line x1="400.00" y1="160.00" x2="480.00" y2="160.00" />
<line x1="592.00" y1="160.00" x2="1264.00" y2="160.00" />
<line x1="192.00" y1="176.00" x2="272.00" y2="176.00" />
<line x1="352.00" y1="176.00" x2="384.00" y2="176.00" />
<line x1="400.00" y1="176.00" x2="480.00" y2="176.00" />
<line x1="592.00" y1="176.00" x2="1200.00" y2="176.00" />
<line x1="1216.00" y1="176.00" x2="1264.00" y2="176.00" />
<line x1="272.00" y1="208.00" x2="304.00" y2="208.00" />
<line x1="320.00" y1="208.00" x2="352.00" y2="208.00" />
<line x1="480.00" y1="208.00" x2="528.00" y2="208.00" />
<line x1="544.00" y1="208.00" x2="592.00" y2="208.00" />
<line x1="720.00" y1="208.00" x2="864.00" y2="208.00" />
<line x1="144.00" y1="240.00" x2="176.00" y2="240.00" />
<line x1="192.00" y1="240.00" x2="208.00" y2="240.00" />
<line x1="1264.00" y1="240.00" x2="1328.00" y2="240.00" />
<line x1="1344.00" y1="240.00" x2="1376.00" y2="240.00" />
<line x1="1056.00" y1="256.00" x2="1200.00" y2="256.00" />
<line x1="1216.00" y1="256.00" x2="1232.00" y2="256.00" />
<line x1="208.00" y1="272.00" x2="304.00" y2="272.00" />
<line x1="320.00" y1="272.00" x2="384.00" y2="272.00" />
<line x1="400.00" y1="272.00" x2="528.00" y2="272.00" />
<line x1="544.00" y1="272.00" x2="592.00" y2="272.00" />
<line x1="208.00" y1="288.00" x2="256.00" y2="288.00" />
<line x1="368.00" y1="288.00" x2="384.00" y2="288.00" />
<line x1="592.00" y1="288.00" x2="720.00" y2="288.00" />
<line x1="144.00" y1="304.00" x2="208.00" y2="304.00" />
<line x1="400.00" y1="304.00" x2="432.00" y2="304.00" />
<line x1="496.00" y1="304.00" x2="528.00" y2="304.00" />
<line x1="544.00" y1="304.00" x2="576.00" y2="304.00" />
<line x1="592.00" y1="304.00" x2="720.00" y2="304.00" />
<line x1="368.00" y1="320.00" x2="384.00" y2="320.00" />
<line x1="400.00" y1="320.00" x2="432.00" y2="320.00" />
<line x1="496.00" y1="320.00" x2="528.00" y2="320.00" />
<line x1="368.00" y1="336.00" x2="384.00" y2="336.00" />
<line x1="400.00" y1="336.00" x2="432.00" y2="336.00" />
<line x1="496.00" y1="336.00" x2="528.00" y2="336.00" />
<line x1="112.00" y1="352.00" x2="224.00" y2="352.00" />
<line x1="1056.00" y1="352.00" x2="1136.00" y2="352.00" />
<line x1="1152.00" y1="352.00" x2="1200.00" y2="352.00" />
<line x1="1216.00" y1="352.00" x2="1232.00" y2="352.00" />
<line x1="256.00" y1="368.00" x2="304.00" y2="368.00" />
<line x1="320.00" y1="368.00" x2="368.00" y2="368.00" />
<line x1="720.00" y1="368.00" x2="784.00" y2="368.00" />
<line x1="800.00" y1="368.00" x2="864.00" y2="368.00" />
<line x1="512.00" y1="416.00" x2="528.00" y2="416.00" />
<line x1="544.00" y1="416.00" x2="576.00" y2="416.00" />
<line x1="592.00" y1="416.00" x2="688.00" y2="416.00" />
<line x1="224.00" y1="432.00" x2="304.00" y2="432.00" />
<line x1="320.00" y1="432.00" x2="384.00" y2="432.00" />
<line x1="400.00" y1="432.00" x2="432.00" y2="432.00" />
<line x1="496.00" y1="432.00" x2="512.00" y2="432.00" />
<line x1="688.00" y1="432.00" x2="784.00" y2="432.00" />
<line x1="800.00" y1="432.00" x2="1136.00" y2="432.00" />
<line x1="224.00" y1="448.00" x2="304.00" y2="448.00" />
<line x1="320.00" y1="448.00" x2="384.00" y2="448.00" />
<line x1="400.00" y1="448.00" x2="432.00" y2="448.00" />
<line x1="496.00" y1="448.00" x2="512.00" y2="448.00" />
<line x1="688.00" y1="448.00" x2="784.00" y2="448.00" />
<line x1="800.00" y1="448.00" x2="1136.00" y2="448.00" />
<line x1="400.00" y1="464.00" x2="432.00" y2="464.00" />
<line x1="496.00" y1="464.00" x2="512.00" y2="464.00" />
<line x1="688.00" y1="464.00" x2="784.00" y2="464.00" />
<line x1="800.00" y1="464.00" x2="1136.00" y2="464.00" />
<line x1="1152.00" y1="464.00" x2="1200.00" y2="464.00" />
<line x1="400.00" y1="480.00" x2="464.00" y2="480.00" />
<line x1="480.00" y1="480.00" x2="512.00" y2="480.00" />
<line x1="688.00" y1="480.00" x2="784.00" y2="480.00" />
<line x1="880.00" y1="480.00" x2="1136.00" y2="480.00" />
<line x1="1152.00" y1="480.00" x2="1200.00" y2="480.00" />
<line x1="1264.00" y1="480.00" x2="1328.00" y2="480.00" />
<line x1="1344.00" y1="480.00" x2="1360.00" y2="480.00" />
<line x1="112.00" y1="512.00" x2="160.00" y2="512.00" />
<line x1="176.00" y1="512.00" x2="224.00" y2="512.00" />
<line x1="240.00" y1="512.00" x2="304.00" y2="512.00" />
<line x1="320.00" y1="512.00" x2="384.00" y2="512.00" />
<line x1="400.00" y1="512.00" x2="464.00" y2="512.00" />
<line x1="480.00" y1="512.00" x2="512.00" y2="512.00" />
<line x1="688.00" y1="512.00" x2="784.00" y2="512.00" />
<line x1="880.00" y1="512.00" x2="1136.00" y2="512.00" />
<line x1="1152.00" y1="512.00" x2="1200.00" y2="512.00" />
<line x1="1216.00" y1="512.00" x2="1264.00" y2="512.00" />
<line x1="256.00" y1="528.00" x2="304.00" y2="528.00" />
<line x1="320.00" y1="528.00" x2="384.00" y2="528.00" />
<line x1="400.00" y1="528.00" x2="464.00" y2="528.00" />
<line x1="480.00" y1="528.00" x2="528.00" y2="528.00" />
<line x1="544.00" y1="528.00" x2="576.00" y2="528.00" />
<line x1="592.00" y1="528.00" x2="784.00" y2="528.00" />
<line x1="880.00" y1="528.00" x2="1136.00" y2="528.00" />
<line x1="1152.00" y1="528.00" x2="1200.00" y2="528.00" />
<line x1="1216.00" y1="528.00" x2="1264.00" y2="528.00" />
<line x1="1264.00" y1="544.00" x2="1328.00" y2="544.00" />
<line x1="1344.00" y1="544.00" x2="1360.00" y2="544.00" />
<line x1="880.00" y1="560.00" x2="1136.00" y2="560.00" />
<line x1="1152.00" y1="560.00" x2="1200.00" y2="560.00" />
<line x1="1216.00" y1="560.00" x2="1328.00" y2="560.00" />
<line x1="592.00" y1="576.00" x2="768.00" y2="576.00" />
<line x1="880.00" y1="576.00" x2="1136.00" y2="576.00" />
<line x1="1152.00" y1="576.00" x2="1200.00" y2="576.00" />
<line x1="1216.00" y1="576.00" x2="1328.00" y2="576.00" />
<line x1="320.00" y1="608.00" x2="384.00" y2="608.00" />
<line x1="400.00" y1="608.00" x2="464.00" y2="608.00" />
<line x1="480.00" y1="608.00" x2="528.00" y2="608.00" />
<line x1="544.00" y1="608.00" x2="576.00" y2="608.00" />
<line x1="768.00" y1="608.00" x2="784.00" y2="608.00" />
<line x1="880.00" y1="608.00" x2="1136.00" y2="608.00" />
<line x1="1152.00" y1="608.00" x2="1200.00" y2="608.00" />
<line x1="1216.00" y1="608.00" x2="1328.00" y2="608.00" />
<line x1="1344.00" y1="608.00" x2="1376.00" y2="608.00" />
<line x1="320.00" y1="624.00" x2="384.00" y2="624.00" />
<line x1="400.00" y1="624.00" x2="464.00" y2="624.00" />
<line x1="480.00" y1="624.00" x2="528.00" y2="624.00" />
<line x1="544.00" y1="624.00" x2="576.00" y2="624.00" />
<line x1="768.00" y1="624.00" x2="784.00" y2="624.00" />
<line x1="880.00" y1="624.00" x2="1136.00" y2="624.00" />
<line x1="1152.00" y1="624.00" x2="1200.00" y2="624.00" />
<line x1="1216.00" y1="624.00" x2="1328.00" y2="624.00" />
<line x1="1344.00" y1="624.00" x2="1376.00" y2="624.00" />
<line x1="592.00" y1="656.00" x2="768.00" y2="656.00" />
<line x1="800.00" y1="656.00" x2="848.00" y2="656.00" />
<line x1="864.00" y1="656.00" x2="880.00" y2="656.00" />
<line x1="1360.00" y1="640.00" x2="1376.00" y2="640.00" />
<line x1="1392.00" y1="640.00" x2="1408.00" y2="640.00" />
<line x1="1152.00" y1="688.00" x2="1200.00" y2="688.00" />
<line x1="1216.00" y1="688.00" x2="1280.00" y2="688.00" />
<line x1="768.00" y1="720.00" x2="784.00" y2="720.00" />
<line x1="800.00" y1="720.00" x2="848.00" y2="720.00" />
<line x1="864.00" y1="720.00" x2="928.00" y2="720.00" />
<line x1="1152.00" y1="816.00" x2="1200.00" y2="816.00" />
<line x1="1232.00" y1="816.00" x2="1280.00" y2="816.00" />
<line x1="1360.00" y1="816.00" x2="1376.00" y2="816.00" />
<line x1="1392.00" y1="816.00" x2="1408.00" y2="816.00" />
<line x1="560.00" y1="864.00" x2="576.00" y2="864.00" />
<line x1="592.00" y1="864.00" x2="656.00" y2="864.00" />
<line x1="1152.00" y1="880.00" x2="1200.00" y2="880.00" />
<line x1="1232.00" y1="880.00" x2="1312.00" y2="880.00" />
<line x1="160.00" y1="912.00" x2="240.00" y2="912.00" />
<line x1="256.00" y1="912.00" x2="304.00" y2="912.00" />
<line x1="320.00" y1="912.00" x2="384.00" y2="912.00" />
<line x1="400.00" y1="912.00" x2="528.00" y2="912.00" />
<line x1="544.00" y1="912.00" x2="560.00" y2="912.00" />
<line x1="656.00" y1="912.00" x2="784.00" y2="912.00" />
<line x1="800.00" y1="912.00" x2="864.00" y2="912.00" />
<line x1="880.00" y1="912.00" x2="1136.00" y2="912.00" />
<line x1="176.00" y1="896.00" x2="240.00" y2="896.00" />
<line x1="256.00" y1="896.00" x2="304.00" y2="896.00" />
<line x1="320.00" y1="896.00" x2="384.00" y2="896.00" />
<line x1="400.00" y1="896.00" x2="464.00" y2="896.00" />
<line x1="480.00" y1="896.00" x2="528.00" y2="896.00" />
<line x1="544.00" y1="896.00" x2="560.00" y2="896.00" />
<line x1="656.00" y1="896.00" x2="768.00" y2="896.00" />
<line x1="928.00" y1="896.00" x2="1136.00" y2="896.00" />
<line x1="1136.00" y1="928.00" x2="1200.00" y2="928.00" />
<line x1="1216.00" y1="928.00" x2="1312.00" y2="928.00" />
<line x1="560.00" y1="944.00" x2="576.00" y2="944.00" />
<line x1="592.00" y1="944.00" x2="656.00" y2="944.00" />
<line x1="352.00" y1="1024.00" x2="384.00" y2="1024.00" />
<line x1="400.00" y1="1024.00" x2="432.00" y2="1024.00" />
<line x1="544.00" y1="1056.00" x2="576.00" y2="1056.00" />
<line x1="592.00" y1="1056.00" x2="624.00" y2="1056.00" />
<line x1="624.00" y1="1072.00" x2="640.00" y2="1072.00" />
<line x1="320.00" y1="1104.00" x2="352.00" y2="1104.00" />
<line x1="432.00" y1="1104.00" x2="528.00" y2="1104.00" />
<line x1="640.00" y1="1104.00" x2="784.00" y2="1104.00" />
<line x1="800.00" y1="1104.00" x2="864.00" y2="1104.00" />
<line x1="880.00" y1="1104.00" x2="1200.00" y2="1104.00" />
<line x1="1216.00" y1="1104.00" x2="1328.00" y2="1104.00" />
<line x1="320.00" y1="1120.00" x2="352.00" y2="1120.00" />
<line x1="432.00" y1="1120.00" x2="528.00" y2="1120.00" />
<line x1="640.00" y1="1120.00" x2="704.00" y2="1120.00" />
<line x1="848.00" y1="1120.00" x2="864.00" y2="1120.00" />
<line x1="880.00" y1="1120.00" x2="1200.00" y2="1120.00" />
<line x1="1216.00" y1="1120.00" x2="1344.00" y2="1120.00" />
<line x1="624.00" y1="1152.00" x2="640.00" y2="1152.00" />
<line x1="1152.00" y1="1152.00" x2="1168.00" y2="1152.00" />
<line x1="1232.00" y1="1152.00" x2="1248.00" y2="1152.00" />
<line x1="1168.00" y1="1136.00" x2="1200.00" y2="1136.00" />
<line x1="1216.00" y1="1136.00" x2="1232.00" y2="1136.00" />
<line x1="544.00" y1="1168.00" x2="576.00" y2="1168.00" />
<line x1="624.00" y1="1168.00" x2="704.00" y2="1168.00" />
<line x1="1136.00" y1="1168.00" x2="1152.00" y2="1168.00" />
<line x1="1248.00" y1="1168.00" x2="1264.00" y2="1168.00" />
<line x1="576.00" y1="1184.00" x2="704.00" y2="1184.00" />
<line x1="1328.00" y1="1184.00" x2="1376.00" y2="1184.00" />
<line x1="1392.00" y1="1184.00" x2="1408.00" y2="1184.00" />
<line x1="352.00" y1="1200.00" x2="384.00" y2="1200.00" />
<line x1="400.00" y1="1200.00" x2="432.00" y2="1200.00" />
<line x1="704.00" y1="1232.00" x2="784.00" y2="1232.00" />
<line x1="800.00" y1="1232.00" x2="848.00" y2="1232.00" />
<line x1="1136.00" y1="1248.00" x2="1152.00" y2="1248.00" />
<line x1="1248.00" y1="1248.00" x2="1264.00" y2="1248.00" />
<line x1="528.00" y1="1280.00" x2="784.00" y2="1280.00" />
<line x1="800.00" y1="1280.00" x2="864.00" y2="1280.00" />
<line x1="880.00" y1="1280.00" x2="1328.00" y2="1280.00" />
<line x1="544.00" y1="1264.00" x2="784.00" y2="1264.00" />
<line x1="800.00" y1="1264.00" x2="864.00" y2="1264.00" />
<line x1="880.00" y1="1264.00" x2="1152.00" y2="1264.00" />
<line x1="1248.00" y1="1264.00" x2="1328.00" y2="1264.00" />
<line x1="176.00" y1="1312.00" x2="240.00" y2="1312.00" />
<line x1="256.00" y1="1312.00" x2="304.00" y2="1312.00" />
<line x1="816.00" y1="1312.00" x2="864.00" y2="1312.00" />
<line x1="880.00" y1="1312.00" x2="928.00" y2="1312.00" />
<line x1="320.00" y1="1328.00" x2="384.00" y2="1328.00" />
<line x1="400.00" y1="1328.00" x2="784.00" y2="1328.00" />
<line x1="800.00" y1="1328.00" x2="816.00" y2="1328.00" />
<line x1="928.00" y1="1328.00" x2="1328.00" y2="1328.00" />
<line x1="400.00" y1="1344.00" x2="784.00" y2="1344.00" />
<line x1="800.00" y1="1344.00" x2="816.00" y2="1344.00" />
<line x1="928.00" y1="1344.00" x2="1328.00" y2="1344.00" />
<line x1="320.00" y1="1360.00" x2="400.00" y2="1360.00" />
<line x1="560.00" y1="1360.00" x2="704.00" y2="1360.00" />
<line x1="816.00" y1="1360.00" x2="928.00" y2="1360.00" />
<line x1="1328.00" y1="1360.00" x2="1408.00" y2="1360.00" />
<line x1="176.00" y1="1376.00" x2="304.00" y2="1376.00" />
<line x1="112.00" y1="1392.00" x2="208.00" y2="1392.00" />
<line x1="704.00" y1="1408.00" x2="784.00" y2="1408.00" />
<line x1="704.00" y1="1424.00" x2="800.00" y2="1424.00" />
<line x1="208.00" y1="1440.00" x2="304.00" y2="1440.00" />
<line x1="208.00" y1="1456.00" x2="320.00" y2="1456.00" />
<line x1="560.00" y1="1472.00" x2="704.00" y2="1472.00" />
<line x1="112.00" y1="1504.00" x2="208.00" y2="1504.00" />
<line x1="480.00" y1="48.00" x2="480.00" y2="128.00" />
<line x1="480.00" y1="144.00" x2="480.00" y2="160.00" />
<line x1="480.00" y1="176.00" x2="480.00" y2="208.00" />
<line x1="480.00" y1="480.00" x2="480.00" y2="512.00" />
<line x1="480.00" y1="528.00" x2="480.00" y2="608.00" />
<line x1="480.00" y1="624.00" x2="480.00" y2="896.00" />
<line x1="592.00" y1="48.00" x2="592.00" y2="128.00" />
<line x1="592.00" y1="144.00" x2="592.00" y2="160.00" />
<line x1="592.00" y1="176.00" x2="592.00" y2="208.00" />
<line x1="592.00" y1="272.00" x2="592.00" y2="288.00" />
<line x1="592.00" y1="304.00" x2="592.00" y2="416.00" />
<line x1="592.00" y1="528.00" x2="592.00" y2="576.00" />
<line x1="592.00" y1="656.00" x2="592.00" y2="864.00" />
<line x1="592.00" y1="944.00" x2="592.00" y2="1056.00" />
<line x1="1264.00" y1="96.00" x2="1264.00" y2="128.00" />
<line x1="1264.00" y1="144.00" x2="1264.00" y2="160.00" />
<line x1="1264.00" y1="176.00" x2="1264.00" y2="240.00" />
<line x1="1264.00" y1="480.00" x2="1264.00" y2="512.00" />
<line x1="1264.00" y1="528.00" x2="1264.00" y2="544.00" />
<line x1="1264.00" y1="1168.00" x2="1264.00" y2="1248.00" />
<line x1="1392.00" y1="96.00" x2="1392.00" y2="640.00" />
<line x1="1392.00" y1="816.00" x2="1392.00" y2="1184.00" />
<line x1="272.00" y1="128.00" x2="272.00" y2="160.00" />
<line x1="272.00" y1="176.00" x2="272.00" y2="208.00" />
<line x1="352.00" y1="128.00" x2="352.00" y2="160.00" />
<line x1="352.00" y1="176.00" x2="352.00" y2="208.00" />
<line x1="352.00" y1="1024.00" x2="352.00" y2="1104.00" />
<line x1="352.00" y1="1120.00" x2="352.00" y2="1200.00" />
<line x1="384.00" y1="128.00" x2="384.00" y2="160.00" />
<line x1="384.00" y1="176.00" x2="384.00" y2="272.00" />
<line x1="384.00" y1="288.00" x2="384.00" y2="320.00" />
<line x1="384.00" y1="336.00" x2="384.00" y2="432.00" />
<line x1="384.00" y1="448.00" x2="384.00" y2="512.00" />
<line x1="384.00" y1="528.00" x2="384.00" y2="608.00" />
<line x1="384.00" y1="624.00" x2="384.00" y2="896.00" />
<line x1="384.00" y1="912.00" x2="384.00" y2="1024.00" />
<line x1="384.00" y1="1200.00" x2="384.00" y2="1328.00" />
<line x1="400.00" y1="144.00" x2="400.00" y2="160.00" />
<line x1="400.00" y1="176.00" x2="400.00" y2="272.00" />
<line x1="400.00" y1="304.00" x2="400.00" y2="320.00" />
<line x1="400.00" y1="336.00" x2="400.00" y2="432.00" />
<line x1="400.00" y1="448.00" x2="400.00" y2="464.00" />
<line x1="400.00" y1="480.00" x2="400.00" y2="512.00" />
<line x1="400.00" y1="528.00" x2="400.00" y2="608.00" />
<line x1="400.00" y1="624.00" x2="400.00" y2="896.00" />
<line x1="400.00" y1="912.00" x2="400.00" y2="1024.00" />
<line x1="400.00" y1="1200.00" x2="400.00" y2="1328.00" />
<line x1="400.00" y1="1344.00" x2="400.00" y2="1360.00" />
<line x1="176.00" y1="160.00" x2="176.00" y2="240.00" />
<line x1="176.00" y1="512.00" x2="176.00" y2="896.00" />
<line x1="176.00" y1="1312.00" x2="176.00" y2="1376.00" />
<line x1="192.00" y1="176.00" x2="192.00" y2="240.00" />
<line x1="1200.00" y1="176.00" x2="1200.00" y2="256.00" />
<line x1="1200.00" y1="352.00" x2="1200.00" y2="464.00" />
<line x1="1200.00" y1="480.00" x2="1200.00" y2="512.00" />
<line x1="1200.00" y1="528.00" x2="1200.00" y2="560.00" />
<line x1="1200.00" y1="576.00" x2="1200.00" y2="608.00" />
<line x1="1200.00" y1="624.00" x2="1200.00" y2="688.00" />
<line x1="1200.00" y1="816.00" x2="1200.00" y2="880.00" />
<line x1="1200.00" y1="928.00" x2="1200.00" y2="1104.00" />
<line x1="1200.00" y1="1120.00" x2="1200.00" y2="1136.00" />
<line x1="1216.00" y1="176.00" x2="1216.00" y2="256.00" />
<line x1="1216.00" y1="352.00" x2="1216.00" y2="512.00" />
<line x1="1216.00" y1="528.00" x2="1216.00" y2="560.00" />
<line x1="1216.00" y1="576.00" x2="1216.00" y2="608.00" />
<line x1="1216.00" y1="624.00" x2="1216.00" y2="688.00" />
<line x1="1216.00" y1="928.00" x2="1216.00" y2="1104.00" />
<line x1="1216.00" y1="1120.00" x2="1216.00" y2="1136.00" />
<line x1="304.00" y1="208.00" x2="304.00" y2="272.00" />
<line x1="304.00" y1="368.00" x2="304.00" y2="432.00" />
<line x1="304.00" y1="448.00" x2="304.00" y2="512.00" />
<line x1="304.00" y1="528.00" x2="304.00" y2="896.00" />
<line x1="304.00" y1="912.00" x2="304.00" y2="1312.00" />
<line x1="304.00" y1="1376.00" x2="304.00" y2="1440.00" />
<line x1="320.00" y1="208.00" x2="320.00" y2="272.00" />
<line x1="320.00" y1="368.00" x2="320.00" y2="432.00" />
<line x1="320.00" y1="448.00" x2="320.00" y2="512.00" />
<line x1="320.00" y1="528.00" x2="320.00" y2="608.00" />
<line x1="320.00" y1="624.00" x2="320.00" y2="896.00" />
<line x1="320.00" y1="912.00" x2="320.00" y2="1104.00" />
<line x1="320.00" y1="1120.00" x2="320.00" y2="1328.00" />
<line x1="320.00" y1="1360.00" x2="320.00" y2="1456.00" />
<line x1="528.00" y1="208.00" x2="528.00" y2="272.00" />
<line x1="528.00" y1="304.00" x2="528.00" y2="320.00" />
<line x1="528.00" y1="336.00" x2="528.00" y2="416.00" />
<line x1="528.00" y1="528.00" x2="528.00" y2="608.00" />
<line x1="528.00" y1="624.00" x2="528.00" y2="896.00" />
<line x1="528.00" y1="912.00" x2="528.00" y2="1104.00" />
<line x1="528.00" y1="1120.00" x2="528.00" y2="1280.00" />
<line x1="544.00" y1="208.00" x2="544.00" y2="272.00" />
<line x1="544.00" y1="304.00" x2="544.00" y2="416.00" />
<line x1="544.00" y1="528.00" x2="544.00" y2="608.00" />
<line x1="544.00" y1="624.00" x2="544.00" y2="896.00" />
<line x1="544.00" y1="912.00" x2="544.00" y2="1056.00" />
<line x1="544.00" y1="1168.00" x2="544.00" y2="1264.00" />
<line x1="720.00" y1="208.00" x2="720.00" y2="288.00" />
<line x1="720.00" y1="304.00" x2="720.00" y2="368.00" />
<line x1="864.00" y1="208.00" x2="864.00" y2="368.00" />
<line x1="864.00" y1="656.00" x2="864.00" y2="720.00" />
<line x1="864.00" y1="912.00" x2="864.00" y2="1104.00" />
<line x1="864.00" y1="1120.00" x2="864.00" y2="1264.00" />
<line x1="864.00" y1="1280.00" x2="864.00" y2="1312.00" />
<line x1="144.00" y1="240.00" x2="144.00" y2="304.00" />
<line x1="208.00" y1="240.00" x2="208.00" y2="272.00" />
<line x1="208.00" y1="288.00" x2="208.00" y2="304.00" />
<line x1="208.00" y1="1392.00" x2="208.00" y2="1440.00" />
<line x1="208.00" y1="1456.00" x2="208.00" y2="1504.00" />
<line x1="1328.00" y1="240.00" x2="1328.00" y2="480.00" />
<line x1="1328.00" y1="544.00" x2="1328.00" y2="560.00" />
<line x1="1328.00" y1="576.00" x2="1328.00" y2="608.00" />
<line x1="1328.00" y1="624.00" x2="1328.00" y2="1104.00" />
<line x1="1328.00" y1="1184.00" x2="1328.00" y2="1264.00" />
<line x1="1328.00" y1="1280.00" x2="1328.00" y2="1328.00" />
<line x1="1328.00" y1="1344.00" x2="1328.00" y2="1360.00" />
<line x1="1344.00" y1="240.00" x2="1344.00" y2="480.00" />
<line x1="1344.00" y1="544.00" x2="1344.00" y2="608.00" />
<line x1="1344.00" y1="624.00" x2="1344.00" y2="1120.00" />
<line x1="1376.00" y1="240.00" x2="1376.00" y2="608.00" />
<line x1="1376.00" y1="624.00" x2="1376.00" y2="640.00" />
<line x1="1376.00" y1="816.00" x2="1376.00" y2="1184.00" />
<line x1="1056.00" y1="256.00" x2="1056.00" y2="352.00" />
<line x1="1232.00" y1="256.00" x2="1232.00" y2="352.00" />
<line x1="1232.00" y1="816.00" x2="1232.00" y2="880.00" />
<line x1="1232.00" y1="1136.00" x2="1232.00" y2="1152.00" />
<line x1="256.00" y1="288.00" x2="256.00" y2="368.00" />
<line x1="256.00" y1="528.00" x2="256.00" y2="896.00" />
<line x1="256.00" y1="912.00" x2="256.00" y2="1312.00" />
<line x1="368.00" y1="288.00" x2="368.00" y2="320.00" />
<line x1="368.00" y1="336.00" x2="368.00" y2="368.00" />
<line x1="432.00" y1="304.00" x2="432.00" y2="320.00" />
<line x1="432.00" y1="336.00" x2="432.00" y2="432.00" />
<line x1="432.00" y1="448.00" x2="432.00" y2="464.00" />
<line x1="432.00" y1="1024.00" x2="432.00" y2="1104.00" />
<line x1="432.00" y1="1120.00" x2="432.00" y2="1200.00" />
<line x1="496.00" y1="304.00" x2="496.00" y2="320.00" />
<line x1="496.00" y1="336.00" x2="496.00" y2="432.00" />
<line x1="496.00" y1="448.00" x2="496.00" y2="464.00" />
<line x1="576.00" y1="304.00" x2="576.00" y2="416.00" />
<line x1="576.00" y1="528.00" x2="576.00" y2="608.00" />
<line x1="576.00" y1="624.00" x2="576.00" y2="864.00" />
<line x1="576.00" y1="944.00" x2="576.00" y2="1056.00" />
<line x1="576.00" y1="1168.00" x2="576.00" y2="1184.00" />
<line x1="112.00" y1="352.00" x2="112.00" y2="512.00" />
<line x1="112.00" y1="1392.00" x2="112.00" y2="1504.00" />
<line x1="224.00" y1="352.00" x2="224.00" y2="432.00" />
<line x1="224.00" y1="448.00" x2="224.00" y2="512.00" />
<line x1="1136.00" y1="352.00" x2="1136.00" y2="432.00" />
<line x1="1136.00" y1="448.00" x2="1136.00" y2="464.00" />
<line x1="1136.00" y1="480.00" x2="1136.00" y2="512.00" />
<line x1="1136.00" y1="528.00" x2="1136.00" y2="560.00" />
<line x1="1136.00" y1="576.00" x2="1136.00" y2="608.00" />
<line x1="1136.00" y1="624.00" x2="1136.00" y2="896.00" />
<line x1="1136.00" y1="912.00" x2="1136.00" y2="928.00" />
<line x1="1136.00" y1="1168.00" x2="1136.00" y2="1248.00" />
<line x1="1152.00" y1="352.00" x2="1152.00" y2="464.00" />
<line x1="1152.00" y1="480.00" x2="1152.00" y2="512.00" />
<line x1="1152.00" y1="528.00" x2="1152.00" y2="560.00" />
<line x1="1152.00" y1="576.00" x2="1152.00" y2="608.00" />
<line x1="1152.00" y1="624.00" x2="1152.00" y2="688.00" />
<line x1="1152.00" y1="816.00" x2="1152.00" y2="880.00" />
<line x1="1152.00" y1="1152.00" x2="1152.00" y2="1168.00" />
<line x1="1152.00" y1="1248.00" x2="1152.00" y2="1264.00" />
<line x1="784.00" y1="368.00" x2="784.00" y2="432.00" />
<line x1="784.00" y1="448.00" x2="784.00" y2="464.00" />
<line x1="784.00" y1="480.00" x2="784.00" y2="512.00" />
<line x1="784.00" y1="528.00" x2="784.00" y2="608.00" />
<line x1="784.00" y1="624.00" x2="784.00" y2="720.00" />
<line x1="784.00" y1="912.00" x2="784.00" y2="1104.00" />
<line x1="784.00" y1="1232.00" x2="784.00" y2="1264.00" />
<line x1="784.00" y1="1280.00" x2="784.00" y2="1328.00" />
<line x1="784.00" y1="1344.00" x2="784.00" y2="1408.00" />
<line x1="800.00" y1="368.00" x2="800.00" y2="432.00" />
<line x1="800.00" y1="448.00" x2="800.00" y2="464.00" />
<line x1="800.00" y1="656.00" x2="800.00" y2="720.00" />
<line x1="800.00" y1="912.00" x2="800.00" y2="1104.00" />
<line x1="800.00" y1="1232.00" x2="800.00" y2="1264.00" />
<line x1="800.00" y1="1280.00" x2="800.00" y2="1328.00" />
<line x1="800.00" y1="1344.00" x2="800.00" y2="1424.00" />
<line x1="512.00" y1="416.00" x2="512.00" y2="432.00" />
<line x1="512.00" y1="448.00" x2="512.00" y2="464.00" />
<line x1="512.00" y1="480.00" x2="512.00" y2="512.00" />
<line x1="688.00" y1="416.00" x2="688.00" y2="432.00" />
<line x1="688.00" y1="448.00" x2="688.00" y2="464.00" />
<line x1="688.00" y1="480.00" x2="688.00" y2="512.00" />
<line x1="464.00" y1="480.00" x2="464.00" y2="512.00" />
<line x1="464.00" y1="528.00" x2="464.00" y2="608.00" />
<line x1="464.00" y1="624.00" x2="464.00" y2="896.00" />
<line x1="880.00" y1="480.00" x2="880.00" y2="512.00" />
<line x1="880.00" y1="528.00" x2="880.00" y2="560.00" />
<line x1="880.00" y1="576.00" x2="880.00" y2="608.00" />
<line x1="880.00" y1="624.00" x2="880.00" y2="656.00" />
<line x1="880.00" y1="912.00" x2="880.00" y2="1104.00" />
<line x1="880.00" y1="1120.00" x2="880.00" y2="1264.00" />
<line x1="880.00" y1="1280.00" x2="880.00" y2="1312.00" />
<line x1="1360.00" y1="480.00" x2="1360.00" y2="544.00" />
<line x1="1360.00" y1="640.00" x2="1360.00" y2="816.00" />
<line x1="160.00" y1="512.00" x2="160.00" y2="912.00" />
<line x1="240.00" y1="512.00" x2="240.00" y2="896.00" />
<line x1="240.00" y1="912.00" x2="240.00" y2="1312.00" />
<line x1="768.00" y1="576.00" x2="768.00" y2="608.00" />
<line x1="768.00" y1="624.00" x2="768.00" y2="656.00" />
<line x1="768.00" y1="720.00" x2="768.00" y2="896.00" />
<line x1="1408.00" y1="640.00" x2="1408.00" y2="816.00" />
<line x1="1408.00" y1="1184.00" x2="1408.00" y2="1360.00" />
<line x1="848.00" y1="656.00" x2="848.00" y2="720.00" />
<line x1="848.00" y1="1120.00" x2="848.00" y2="1232.00" />
<line x1="1280.00" y1="688.00" x2="1280.00" y2="816.00" />
<line x1="928.00" y1="720.00" x2="928.00" y2="896.00" />
<line x1="928.00" y1="1312.00" x2="928.00" y2="1328.00" />
<line x1="928.00" y1="1344.00" x2="928.00" y2="1360.00" />
<line x1="560.00" y1="864.00" x2="560.00" y2="896.00" />
<line x1="560.00" y1="912.00" x2="560.00" y2="944.00" />
<line x1="560.00" y1="1360.00" x2="560.00" y2="1472.00" />
<line x1="656.00" y1="864.00" x2="656.00" y2="896.00" />
<line x1="656.00" y1="912.00" x2="656.00" y2="944.00" />
<line x1="1312.00" y1="880.00" x2="1312.00" y2="928.00" />
<line x1="624.00" y1="1056.00" x2="624.00" y2="1072.00" />
<line x1="624.00" y1="1152.00" x2="624.00" y2="1168.00" />
<line x1="640.00" y1="1072.00" x2="640.00" y2="1104.00" />
<line x1="640.00" y1="1120.00" x2="640.00" y2="1152.00" />
<line x1="704.00" y1="1120.00" x2="704.00" y2="1168.00" />
<line x1="704.00" y1="1184.00" x2="704.00" y2="1232.00" />
<line x1="704.00" y1="1360.00" x2="704.00" y2="1408.00" />
<line x1="704.00" y1="1424.00" x2="704.00" y2="1472.00" />
<line x1="1168.00" y1="1136.00" x2="1168.00" y2="1152.00" />
<line x1="1248.00" y1="1152.00" x2="1248.00" y2="1168.00" />
<line x1="1248.00" y1="1248.00" x2="1248.00" y2="1264.00" />
<line x1="816.00" y1="1312.00" x2="816.00" y2="1328.00" />
<line x1="816.00" y1="1344.00" x2="816.00" y2="1360.00" />
  </g>
  <g class="features">
<g data-feature-type="stairsDown"><line data-feature-type="stairsDown" x1="850.24" y1="771.36" x2="861.76" y2="771.36" /><line x1="850.65" y1="773.68" x2="861.35" y2="773.68" /><line x1="851.07" y1="776.00" x2="860.93" y2="776.00" /><line x1="851.48" y1="778.32" x2="860.52" y2="778.32" /><line x1="851.90" y1="780.64" x2="860.10" y2="780.64" /></g>
<g data-feature-type="stairsUp"><line data-feature-type="stairsUp" x1="771.90" y1="291.36" x2="780.10" y2="291.36" /><line x1="771.48" y1="293.68" x2="780.52" y2="293.68" /><line x1="771.07" y1="296.00" x2="780.93" y2="296.00" /><line x1="770.65" y1="298.32" x2="781.35" y2="298.32" /><line x1="770.24" y1="300.64" x2="781.76" y2="300.64" /></g>
<circle data-feature-type="pillar" cx="1336.00" cy="200.00" r="3.68" fill="#4f89a8" stroke="none" />
<circle data-feature-type="pillar" cx="1336.00" cy="184.00" r="3.68" fill="#4f89a8" stroke="none" />
<g data-feature-type="trap"><rect x="1284.64" y="148.64" width="6.72" height="6.72" fill="none" /><line x1="1284.64" y1="148.64" x2="1291.36" y2="155.36" /><line x1="1284.64" y1="155.36" x2="1291.36" y2="148.64" /></g>
<g data-feature-type="coffin"><rect x="1317.60" y="212.32" width="4.80" height="7.36" rx="0.80" ry="0.80" fill="none" /><line x1="1320.00" y1="213.94" x2="1320.00" y2="218.06" /></g>
<circle data-feature-type="pillar" cx="328.00" cy="168.00" r="3.68" fill="#4f89a8" stroke="none" />
<circle data-feature-type="pillar" cx="1224.00" cy="760.00" r="3.68" fill="#4f89a8" stroke="none" />
<g data-feature-type="chest"><rect x="1253.28" y="774.24" width="5.44" height="3.52" fill="none" /><line x1="1253.28" y1="776.00" x2="1258.72" y2="776.00" /><circle cx="1256.00" cy="776.18" r="0.70" fill="#4f89a8" stroke="none" /></g>
<circle data-feature-type="pillar" cx="1160.00" cy="312.00" r="3.68" fill="#4f89a8" stroke="none" />
<g data-feature-type="statue"><circle cx="1208.00" cy="328.00" r="3.52" fill="none" /><line x1="1205.76" y1="328.00" x2="1210.24" y2="328.00" /><line x1="1208.00" y1="325.76" x2="1208.00" y2="330.24" /><line x1="1206.39" y1="326.39" x2="1209.61" y2="329.61" /><line x1="1206.39" y1="329.61" x2="1209.61" y2="326.39" /></g>
<circle data-feature-type="pillar" cx="888.00" cy="792.00" r="3.68" fill="#4f89a8" stroke="none" />
<circle data-feature-type="pillar" cx="824.00" cy="824.00" r="3.68" fill="#4f89a8" stroke="none" />
<circle data-feature-type="pillar" cx="872.00" cy="824.00" r="3.68" fill="#4f89a8" stroke="none" />
<circle data-feature-type="pillar" cx="888.00" cy="824.00" r="3.68" fill="#4f89a8" stroke="none" />
<g data-feature-type="statue"><circle cx="888.00" cy="840.00" r="3.52" fill="none" /><line x1="885.76" y1="840.00" x2="890.24" y2="840.00" /><line x1="888.00" y1="837.76" x2="888.00" y2="842.24" /><line x1="886.39" y1="838.39" x2="889.61" y2="841.61" /><line x1="886.39" y1="841.61" x2="889.61" y2="838.39" /></g>
<circle data-feature-type="pillar" cx="584.00" cy="1128.00" r="3.68" fill="#4f89a8" stroke="none" />
<circle data-feature-type="pillar" cx="584.00" cy="1144.00" r="3.68" fill="#4f89a8" stroke="none" />
<circle data-feature-type="pillar" cx="824.00" cy="280.00" r="3.68" fill="#4f89a8" stroke="none" />
<circle data-feature-type="pillar" cx="760.00" cy="312.00" r="3.68" fill="#4f89a8" stroke="none" />
<circle data-feature-type="pillar" cx="776.00" cy="280.00" r="3.68" fill="#4f89a8" stroke="none" />
<g data-feature-type="chest"><rect x="789.28" y="342.24" width="5.44" height="3.52" fill="none" /><line x1="789.28" y1="344.00" x2="794.72" y2="344.00" /><circle cx="792.00" cy="344.18" r="0.70" fill="#4f89a8" stroke="none" /></g>
<path data-feature-type="curtain" d="M 742.40 307.84 Q 744.00 310.34 742.40 312.00 Q 744.00 313.66 742.40 316.16" fill="none" /><path d="M 745.60 307.84 Q 744.00 310.34 745.60 312.00 Q 744.00 313.66 745.60 316.16" fill="none" />
<circle data-feature-type="pillar" cx="168.00" cy="424.00" r="3.68" fill="#4f89a8" stroke="none" />
<circle data-feature-type="pillar" cx="168.00" cy="456.00" r="3.68" fill="#4f89a8" stroke="none" />
<g data-feature-type="statue"><circle cx="152.00" cy="408.00" r="3.52" fill="none" /><line x1="149.76" y1="408.00" x2="154.24" y2="408.00" /><line x1="152.00" y1="405.76" x2="152.00" y2="410.24" /><line x1="150.39" y1="406.39" x2="153.61" y2="409.61" /><line x1="150.39" y1="409.61" x2="153.61" y2="406.39" /></g>
<g data-feature-type="trap"><rect x="180.64" y="436.64" width="6.72" height="6.72" fill="none" /><line x1="180.64" y1="436.64" x2="187.36" y2="443.36" /><line x1="180.64" y1="443.36" x2="187.36" y2="436.64" /></g>
<circle data-feature-type="pillar" cx="568.00" cy="472.00" r="3.68" fill="#4f89a8" stroke="none" />
<circle data-feature-type="pillar" cx="584.00" cy="472.00" r="3.68" fill="#4f89a8" stroke="none" />
<g data-feature-type="well"><circle cx="648.00" cy="472.00" r="4.00" fill="none" /><circle cx="648.00" cy="472.00" r="2.24" fill="none" /></g>
<g data-feature-type="trap"><rect x="548.64" y="468.64" width="6.72" height="6.72" fill="none" /><line x1="548.64" y1="468.64" x2="555.36" y2="475.36" /><line x1="548.64" y1="475.36" x2="555.36" y2="468.64" /></g>
<circle data-feature-type="pillar" cx="328.00" cy="328.00" r="3.68" fill="#4f89a8" stroke="none" />
<circle data-feature-type="pillar" cx="184.00" cy="1448.00" r="3.68" fill="#4f89a8" stroke="none" />
<g data-feature-type="statue"><circle cx="168.00" cy="1464.00" r="3.52" fill="none" /><line x1="165.76" y1="1464.00" x2="170.24" y2="1464.00" /><line x1="168.00" y1="1461.76" x2="168.00" y2="1466.24" /><line x1="166.39" y1="1462.39" x2="169.61" y2="1465.61" /><line x1="166.39" y1="1465.61" x2="169.61" y2="1462.39" /></g>
<circle data-feature-type="pillar" cx="776.00" cy="1208.00" r="3.68" fill="#4f89a8" stroke="none" />
<circle data-feature-type="pillar" cx="776.00" cy="1144.00" r="3.68" fill="#4f89a8" stroke="none" />
<g data-feature-type="well"><circle cx="760.00" cy="1160.00" r="4.00" fill="none" /><circle cx="760.00" cy="1160.00" r="2.24" fill="none" /></g>
<g data-feature-type="trap"><rect x="756.64" y="1140.64" width="6.72" height="6.72" fill="none" /><line x1="756.64" y1="1140.64" x2="763.36" y2="1147.36" /><line x1="756.64" y1="1147.36" x2="763.36" y2="1140.64" /></g>
<path data-feature-type="curtain" d="M 726.40 1139.84 Q 728.00 1142.34 726.40 1144.00 Q 728.00 1145.66 726.40 1148.16" fill="none" /><path d="M 729.60 1139.84 Q 728.00 1142.34 729.60 1144.00 Q 728.00 1145.66 729.60 1148.16" fill="none" />
<circle data-feature-type="pillar" cx="376.00" cy="1112.00" r="3.68" fill="#4f89a8" stroke="none" />
<circle data-feature-type="pillar" cx="424.00" cy="1112.00" r="3.68" fill="#4f89a8" stroke="none" />
<g data-feature-type="statue"><circle cx="376.00" cy="1048.00" r="3.52" fill="none" /><line x1="373.76" y1="1048.00" x2="378.24" y2="1048.00" /><line x1="376.00" y1="1045.76" x2="376.00" y2="1050.24" /><line x1="374.39" y1="1046.39" x2="377.61" y2="1049.61" /><line x1="374.39" y1="1049.61" x2="377.61" y2="1046.39" /></g>
<g data-feature-type="trap"><rect x="388.64" y="1172.64" width="6.72" height="6.72" fill="none" /><line x1="388.64" y1="1172.64" x2="395.36" y2="1179.36" /><line x1="388.64" y1="1179.36" x2="395.36" y2="1172.64" /></g>
<circle data-feature-type="pillar" cx="1384.00" cy="1272.00" r="3.68" fill="#4f89a8" stroke="none" />
<g data-feature-type="trap"><rect x="836.64" y="1332.64" width="6.72" height="6.72" fill="none" /><line x1="836.64" y1="1332.64" x2="843.36" y2="1339.36" /><line x1="836.64" y1="1339.36" x2="843.36" y2="1332.64" /></g>
<circle data-feature-type="pillar" cx="488.00" cy="392.00" r="3.68" fill="#4f89a8" stroke="none" />
<g data-feature-type="altar"><rect x="469.28" y="454.40" width="5.44" height="3.20" fill="none" /><line x1="472.00" y1="453.44" x2="472.00" y2="458.56" /><line x1="470.40" y1="456.00" x2="473.60" y2="456.00" /></g>
<circle data-feature-type="pillar" cx="1240.00" cy="904.00" r="3.68" fill="#4f89a8" stroke="none" />
<circle data-feature-type="pillar" cx="632.00" cy="904.00" r="3.68" fill="#4f89a8" stroke="none" />
<g data-feature-type="statue"><circle cx="616.00" cy="920.00" r="3.52" fill="none" /><line x1="613.76" y1="920.00" x2="618.24" y2="920.00" /><line x1="616.00" y1="917.76" x2="616.00" y2="922.24" /><line x1="614.39" y1="918.39" x2="617.61" y2="921.61" /><line x1="614.39" y1="921.61" x2="617.61" y2="918.39" /></g>
<circle data-feature-type="pillar" cx="1224.00" cy="1208.00" r="3.68" fill="#4f89a8" stroke="none" />
<g data-feature-type="chest"><rect x="1237.28" y="1174.24" width="5.44" height="3.52" fill="none" /><line x1="1237.28" y1="1176.00" x2="1242.72" y2="1176.00" /><circle cx="1240.00" cy="1176.18" r="0.70" fill="#4f89a8" stroke="none" /></g>
<circle data-feature-type="pillar" cx="632.00" cy="1384.00" r="3.68" fill="#4f89a8" stroke="none" />
<circle data-feature-type="pillar" cx="632.00" cy="1400.00" r="3.68" fill="#4f89a8" stroke="none" />
<circle data-feature-type="pillar" cx="1336.00" cy="520.00" r="3.68" fill="#4f89a8" stroke="none" />
<circle data-feature-type="pillar" cx="264.00" cy="1352.00" r="3.68" fill="#4f89a8" stroke="none" />
<g data-feature-type="coffin"><rect x="213.60" y="1348.32" width="4.80" height="7.36" rx="0.80" ry="0.80" fill="none" /><line x1="216.00" y1="1349.94" x2="216.00" y2="1354.06" /></g>
<circle data-feature-type="pillar" cx="664.00" cy="616.00" r="3.68" fill="#4f89a8" stroke="none" />
<circle data-feature-type="pillar" cx="712.00" cy="616.00" r="3.68" fill="#4f89a8" stroke="none" />
<g data-feature-type="trap"><rect x="644.64" y="612.64" width="6.72" height="6.72" fill="none" /><line x1="644.64" y1="612.64" x2="651.36" y2="619.36" /><line x1="644.64" y1="619.36" x2="651.36" y2="612.64" /></g>
<g data-feature-type="coffin"><rect x="661.60" y="596.32" width="4.80" height="7.36" rx="0.80" ry="0.80" fill="none" /><line x1="664.00" y1="597.94" x2="664.00" y2="602.06" /></g>
  </g>
  <g class="thresholds">
<rect data-threshold-type="door" x="1379.52" y="229.76" width="8.96" height="4.48" fill="#ffffff" stroke="#4f89a8" stroke-width="1.52" />
<rect data-threshold-type="door" x="179.52" y="245.76" width="8.96" height="4.48" fill="#ffffff" stroke="#4f89a8" stroke-width="1.52" />
<rect data-threshold-type="door" x="339.52" y="165.76" width="8.96" height="4.48" fill="#ffffff" stroke="#4f89a8" stroke-width="1.52" />
<g data-threshold-type="locked" stroke="#4f89a8" fill="none" stroke-width="1.52"><rect x="851.52" y="485.76" width="8.96" height="4.48" fill="#ffffff" /><circle cx="856.00" cy="484.77" r="1.61" /></g>
<rect data-threshold-type="door" x="1219.52" y="805.76" width="8.96" height="4.48" fill="#ffffff" stroke="#4f89a8" stroke-width="1.52" />
<rect data-threshold-type="door" x="1203.52" y="341.76" width="8.96" height="4.48" fill="#ffffff" stroke="#4f89a8" stroke-width="1.52" />
<rect data-threshold-type="door" x="835.52" y="885.76" width="8.96" height="4.48" fill="#ffffff" stroke="#4f89a8" stroke-width="1.52" />
<rect data-threshold-type="door" x="627.52" y="1157.76" width="8.96" height="4.48" fill="#ffffff" stroke="#4f89a8" stroke-width="1.52" />
<rect data-threshold-type="door" x="787.52" y="357.76" width="8.96" height="4.48" fill="#ffffff" stroke="#4f89a8" stroke-width="1.52" />
<g data-threshold-type="secret"><line x1="163.52" y1="504.00" x2="172.48" y2="504.00" stroke="#4f89a8" stroke-width="1.31" stroke-dasharray="1.31 1.31" /><text x="173.56" y="503.10" font-size="5.44" fill="#4f89a8" font-family="Courier New, monospace" font-weight="700">S</text></g>
<rect data-threshold-type="door" x="627.52" y="501.76" width="8.96" height="4.48" fill="#ffffff" stroke="#4f89a8" stroke-width="1.52" />
<rect data-threshold-type="door" x="355.52" y="293.76" width="8.96" height="4.48" fill="#ffffff" stroke="#4f89a8" stroke-width="1.52" />
<rect data-threshold-type="door" x="195.52" y="1445.76" width="8.96" height="4.48" fill="#ffffff" stroke="#4f89a8" stroke-width="1.52" />
<rect data-threshold-type="door" x="819.52" y="1125.76" width="8.96" height="4.48" fill="#ffffff" stroke="#4f89a8" stroke-width="1.52" />
<rect data-threshold-type="door" x="579.52" y="165.76" width="8.96" height="4.48" fill="#ffffff" stroke="#4f89a8" stroke-width="1.52" />
<rect data-threshold-type="door" x="387.52" y="1029.76" width="8.96" height="4.48" fill="#ffffff" stroke="#4f89a8" stroke-width="1.52" />
<rect data-threshold-type="door" x="1379.52" y="1189.76" width="8.96" height="4.48" fill="#ffffff" stroke="#4f89a8" stroke-width="1.52" />
<rect data-threshold-type="door" x="867.52" y="1317.76" width="8.96" height="4.48" fill="#ffffff" stroke="#4f89a8" stroke-width="1.52" />
<rect data-threshold-type="door" x="435.52" y="325.76" width="8.96" height="4.48" fill="#ffffff" stroke="#4f89a8" stroke-width="1.52" />
<rect data-threshold-type="door" x="1203.52" y="917.76" width="8.96" height="4.48" fill="#ffffff" stroke="#4f89a8" stroke-width="1.52" />
<rect data-threshold-type="door" x="563.52" y="901.76" width="8.96" height="4.48" fill="#ffffff" stroke="#4f89a8" stroke-width="1.52" />
<g data-threshold-type="locked" stroke="#4f89a8" fill="none" stroke-width="1.52"><rect x="1219.52" y="1269.76" width="8.96" height="4.48" fill="#ffffff" /><circle cx="1224.00" cy="1268.77" r="1.61" /></g>
<rect data-threshold-type="door" x="691.52" y="1413.76" width="8.96" height="4.48" fill="#ffffff" stroke="#4f89a8" stroke-width="1.52" />
<rect data-threshold-type="door" x="1331.52" y="485.76" width="8.96" height="4.48" fill="#ffffff" stroke="#4f89a8" stroke-width="1.52" />
<rect data-threshold-type="door" x="1379.52" y="805.76" width="8.96" height="4.48" fill="#ffffff" stroke="#4f89a8" stroke-width="1.52" />
<rect data-threshold-type="door" x="243.52" y="1317.76" width="8.96" height="4.48" fill="#ffffff" stroke="#4f89a8" stroke-width="1.52" />
<rect data-threshold-type="door" x="595.52" y="581.76" width="8.96" height="4.48" fill="#ffffff" stroke="#4f89a8" stroke-width="1.52" />
  </g>
  <g class="labels">
<text x="1336.00" y="169.92" text-anchor="middle">1</text>
<text x="184.00" y="281.92" text-anchor="middle">2</text>
<text x="312.00" y="169.92" text-anchor="middle">3</text>
<text x="840.00" y="569.92" text-anchor="middle">4</text>
<text x="1208.00" y="761.92" text-anchor="middle">5</text>
<text x="1144.00" y="313.92" text-anchor="middle">6</text>
<text x="856.00" y="809.92" text-anchor="middle">7</text>
<text x="584.00" y="1113.92" text-anchor="middle">8</text>
<text x="792.00" y="297.92" text-anchor="middle">9</text>
<text x="168.00" y="441.92" text-anchor="middle">10</text>
<text x="600.00" y="473.92" text-anchor="middle">11</text>
<text x="312.00" y="329.92" text-anchor="middle">12</text>
<text x="168.00" y="1449.92" text-anchor="middle">13</text>
<text x="776.00" y="1177.92" text-anchor="middle">14</text>
<text x="536.00" y="137.92" text-anchor="middle">15</text>
<text x="392.00" y="1113.92" text-anchor="middle">16</text>
<text x="1368.00" y="1273.92" text-anchor="middle">17</text>
<text x="872.00" y="1337.92" text-anchor="middle">18</text>
<text x="472.00" y="393.92" text-anchor="middle">19</text>
<text x="1224.00" y="905.92" text-anchor="middle">20</text>
<text x="616.00" y="905.92" text-anchor="middle">21</text>
<text x="1208.00" y="1209.92" text-anchor="middle">22</text>
<text x="632.00" y="1417.92" text-anchor="middle">23</text>
<text x="1320.00" y="521.92" text-anchor="middle">24</text>
<text x="1384.00" y="729.92" text-anchor="middle">25</text>
<text x="248.00" y="1353.92" text-anchor="middle">26</text>
<text x="680.00" y="617.92" text-anchor="middle">27</text>
  </g>
</svg>