<?xml version="1.0" encoding="UTF-8"?>
<svg xmlns="http://www.w3.org/2000/svg" width="1504" height="1536" viewBox="0 0 1504.00 1536.00" role="img" aria-label="MapIR render: Learned Generated Map 5">
  <defs>
    <style>
      .grid { stroke: #cde2ec; stroke-width: 0.64; opacity: 0.72; }
      .walls { stroke: #6aa7c7; stroke-width: 1.92; fill: none; stroke-linecap: square; }
      .thresholds { fill: none; stroke-linecap: round; }
      .features { stroke: #4f89a8; fill: none; stroke-width: 1.60; stroke-linecap: round; stroke-linejoin: round; }
      .labels { fill: #4f89a8; font-size: 7.20px; font-family: "Courier New", monospace; font-weight: 600; }
    </style>
  </defs>
  <rect x="0" y="0" width="1504.00" height="1536.00" fill="#4393be" />
  <g class="floors">
<rect x="688.00" y="64.00" width="176.00" height="192.00" fill="#fcfdfe" />
<rect x="32.00" y="96.00" width="176.00" height="80.00" fill="#fcfdfe" />
<rect x="1088.00" y="96.00" width="96.00" height="80.00" fill="#fcfdfe" />
<rect x="208.00" y="128.00" width="400.00" height="16.00" fill="#fcfdfe" />
<rect x="464.00" y="144.00" width="16.00" height="1056.00" fill="#fcfdfe" />
<rect x="592.00" y="144.00" width="16.00" height="304.00" fill="#fcfdfe" />
<rect x="480.00" y="160.00" width="112.00" height="16.00" fill="#fcfdfe" />
<rect x="608.00" y="160.00" width="80.00" height="16.00" fill="#fcfdfe" />
<rect x="864.00" y="160.00" width="224.00" height="16.00" fill="#fcfdfe" />
<rect x="1184.00" y="160.00" width="192.00" height="16.00" fill="#fcfdfe" />
<rect x="112.00" y="176.00" width="16.00" height="1248.00" fill="#fcfdfe" />
<rect x="1104.00" y="176.00" width="128.00" height="64.00" fill="#fcfdfe" />
<rect x="1360.00" y="176.00" width="16.00" height="656.00" fill="#fcfdfe" />
<rect x="256.00" y="192.00" width="80.00" height="80.00" fill="#fcfdfe" />
<rect x="432.00" y="192.00" width="32.00" height="128.00" fill="#fcfdfe" />
<rect x="480.00" y="192.00" width="16.00" height="128.00" fill="#fcfdfe" />
<rect x="336.00" y="224.00" width="96.00" height="16.00" fill="#fcfdfe" />
<rect x="496.00" y="224.00" width="96.00" height="16.00" fill="#fcfdfe" />
<rect x="608.00" y="224.00" width="80.00" height="16.00" fill="#fcfdfe" />
<rect x="864.00" y="224.00" width="32.00" height="16.00" fill="#fcfdfe" />
<rect x="336.00" y="240.00" width="16.00" height="1104.00" fill="#fcfdfe" />
<rect x="880.00" y="240.00" width="16.00" height="1120.00" fill="#fcfdfe" />
<rect x="1136.00" y="240.00" width="16.00" height="992.00" fill="#fcfdfe" />
<rect x="1168.00" y="240.00" width="16.00" height="1120.00" fill="#fcfdfe" />
<rect x="496.00" y="256.00" width="96.00" height="16.00" fill="#fcfdfe" />
<rect x="608.00" y="256.00" width="240.00" height="16.00" fill="#fcfdfe" />
<rect x="256.00" y="272.00" width="16.00" height="1072.00" fill="#fcfdfe" />
<rect x="288.00" y="272.00" width="16.00" height="272.00" fill="#fcfdfe" />
<rect x="768.00" y="272.00" width="16.00" height="1088.00" fill="#fcfdfe" />
<rect x="832.00" y="272.00" width="16.00" height="624.00" fill="#fcfdfe" />
<rect x="1328.00" y="272.00" width="32.00" height="176.00" fill="#fcfdfe" />
<rect x="1296.00" y="288.00" width="32.00" height="144.00" fill="#fcfdfe" />
<rect x="1376.00" y="288.00" width="32.00" height="144.00" fill="#fcfdfe" />
<rect x="1280.00" y="304.00" width="16.00" height="112.00" fill="#fcfdfe" />
<rect x="1408.00" y="304.00" width="16.00" height="112.00" fill="#fcfdfe" />
<rect x="80.00" y="320.00" width="32.00" height="208.00" fill="#fcfdfe" />
<rect x="128.00" y="320.00" width="32.00" height="208.00" fill="#fcfdfe" />
<rect x="1024.00" y="320.00" width="112.00" height="80.00" fill="#fcfdfe" />
<rect x="64.00" y="336.00" width="16.00" height="176.00" fill="#fcfdfe" />
<rect x="160.00" y="336.00" width="16.00" height="176.00" fill="#fcfdfe" />
<rect x="224.00" y="336.00" width="32.00" height="208.00" fill="#fcfdfe" />
<rect x="272.00" y="336.00" width="16.00" height="208.00" fill="#fcfdfe" />
<rect x="304.00" y="336.00" width="32.00" height="208.00" fill="#fcfdfe" />
<rect x="352.00" y="336.00" width="80.00" height="208.00" fill="#fcfdfe" />
<rect x="1264.00" y="336.00" width="16.00" height="48.00" fill="#fcfdfe" />
<rect x="1424.00" y="336.00" width="16.00" height="48.00" fill="#fcfdfe" />
<rect x="176.00" y="352.00" width="48.00" height="16.00" fill="#fcfdfe" />
<rect x="432.00" y="352.00" width="32.00" height="16.00" fill="#fcfdfe" />
<rect x="480.00" y="352.00" width="112.00" height="16.00" fill="#fcfdfe" />
<rect x="608.00" y="352.00" width="160.00" height="16.00" fill="#fcfdfe" />
<rect x="784.00" y="352.00" width="48.00" height="16.00" fill="#fcfdfe" />
<rect x="848.00" y="352.00" width="32.00" height="16.00" fill="#fcfdfe" />
<rect x="896.00" y="352.00" width="128.00" height="16.00" fill="#fcfdfe" />
<rect x="1152.00" y="352.00" width="16.00" height="16.00" fill="#fcfdfe" />
<rect x="1184.00" y="352.00" width="80.00" height="16.00" fill="#fcfdfe" />
<rect x="640.00" y="368.00" width="16.00" height="896.00" fill="#fcfdfe" />
<rect x="976.00" y="368.00" width="16.00" height="544.00" fill="#fcfdfe" />
<rect x="512.00" y="384.00" width="80.00" height="64.00" fill="#fcfdfe" />
<rect x="608.00" y="384.00" width="32.00" height="64.00" fill="#fcfdfe" />
<rect x="656.00" y="384.00" width="32.00" height="64.00" fill="#fcfdfe" />
<rect x="176.00" y="416.00" width="48.00" height="16.00" fill="#fcfdfe" />
<rect x="432.00" y="432.00" width="32.00" height="16.00" fill="#fcfdfe" />
<rect x="480.00" y="432.00" width="32.00" height="16.00" fill="#fcfdfe" />
<rect x="688.00" y="432.00" width="80.00" height="16.00" fill="#fcfdfe" />
<rect x="784.00" y="432.00" width="48.00" height="16.00" fill="#fcfdfe" />
<rect x="848.00" y="432.00" width="32.00" height="16.00" fill="#fcfdfe" />
<rect x="896.00" y="432.00" width="80.00" height="16.00" fill="#fcfdfe" />
<rect x="992.00" y="432.00" width="144.00" height="16.00" fill="#fcfdfe" />
<rect x="1152.00" y="432.00" width="16.00" height="16.00" fill="#fcfdfe" />
<rect x="320.00" y="544.00" width="16.00" height="416.00" fill="#fcfdfe" />
<rect x="672.00" y="560.00" width="96.00" height="80.00" fill="#fcfdfe" />
<rect x="784.00" y="560.00" width="16.00" height="80.00" fill="#fcfdfe" />
<rect x="656.00" y="592.00" width="16.00" height="16.00" fill="#fcfdfe" />
<rect x="800.00" y="672.00" width="32.00" height="224.00" fill="#fcfdfe" />
<rect x="848.00" y="672.00" width="32.00" height="224.00" fill="#fcfdfe" />
<rect x="992.00" y="672.00" width="144.00" height="96.00" fill="#fcfdfe" />
<rect x="1152.00" y="672.00" width="16.00" height="96.00" fill="#fcfdfe" />
<rect x="1264.00" y="688.00" width="96.00" height="144.00" fill="#fcfdfe" />
<rect x="1376.00" y="688.00" width="96.00" height="144.00" fill="#fcfdfe" />
<rect x="208.00" y="704.00" width="48.00" height="208.00" fill="#fcfdfe" />
<rect x="272.00" y="704.00" width="48.00" height="208.00" fill="#fcfdfe" />
<rect x="416.00" y="720.00" width="48.00" height="96.00" fill="#fcfdfe" />
<rect x="480.00" y="720.00" width="64.00" height="96.00" fill="#fcfdfe" />
<rect x="1072.00" y="768.00" width="16.00" height="592.00" fill="#fcfdfe" />
<rect x="128.00" y="800.00" width="80.00" height="16.00" fill="#fcfdfe" />
<rect x="352.00" y="800.00" width="64.00" height="16.00" fill="#fcfdfe" />
<rect x="544.00" y="800.00" width="96.00" height="16.00" fill="#fcfdfe" />
<rect x="656.00" y="800.00" width="112.00" height="16.00" fill="#fcfdfe" />
<rect x="480.00" y="816.00" width="16.00" height="384.00" fill="#fcfdfe" />
<rect x="1264.00" y="832.00" width="16.00" height="480.00" fill="#fcfdfe" />
<rect x="608.00" y="848.00" width="32.00" height="192.00" fill="#fcfdfe" />
<rect x="656.00" y="848.00" width="16.00" height="192.00" fill="#fcfdfe" />
<rect x="912.00" y="848.00" width="64.00" height="64.00" fill="#fcfdfe" />
<rect x="992.00" y="848.00" width="48.00" height="64.00" fill="#fcfdfe" />
<rect x="592.00" y="864.00" width="16.00" height="160.00" fill="#fcfdfe" />
<rect x="672.00" y="864.00" width="16.00" height="160.00" fill="#fcfdfe" />
<rect x="352.00" y="880.00" width="112.00" height="16.00" fill="#fcfdfe" />
<rect x="496.00" y="880.00" width="96.00" height="16.00" fill="#fcfdfe" />
<rect x="688.00" y="880.00" width="80.00" height="16.00" fill="#fcfdfe" />
<rect x="784.00" y="880.00" width="16.00" height="16.00" fill="#fcfdfe" />
<rect x="896.00" y="880.00" width="16.00" height="16.00" fill="#fcfdfe" />
<rect x="576.00" y="896.00" width="16.00" height="112.00" fill="#fcfdfe" />
<rect x="688.00" y="896.00" width="16.00" height="112.00" fill="#fcfdfe" />
<rect x="1088.00" y="912.00" width="48.00" height="144.00" fill="#fcfdfe" />
<rect x="1152.00" y="912.00" width="16.00" height="144.00" fill="#fcfdfe" />
<rect x="1184.00" y="912.00" width="64.00" height="144.00" fill="#fcfdfe" />
<rect x="352.00" y="944.00" width="112.00" height="16.00" fill="#fcfdfe" />
<rect x="496.00" y="944.00" width="80.00" height="16.00" fill="#fcfdfe" />
<rect x="704.00" y="944.00" width="64.00" height="16.00" fill="#fcfdfe" />
<rect x="784.00" y="944.00" width="96.00" height="16.00" fill="#fcfdfe" />
<rect x="896.00" y="944.00" width="176.00" height="16.00" fill="#fcfdfe" />
<rect x="352.00" y="976.00" width="112.00" height="16.00" fill="#fcfdfe" />
<rect x="496.00" y="976.00" width="80.00" height="16.00" fill="#fcfdfe" />
<rect x="704.00" y="976.00" width="64.00" height="16.00" fill="#fcfdfe" />
<rect x="784.00" y="976.00" width="96.00" height="16.00" fill="#fcfdfe" />
<rect x="896.00" y="976.00" width="176.00" height="16.00" fill="#fcfdfe" />
<rect x="1088.00" y="1056.00" width="16.00" height="176.00" fill="#fcfdfe" />
<rect x="1232.00" y="1104.00" width="32.00" height="208.00" fill="#fcfdfe" />
<rect x="1280.00" y="1104.00" width="16.00" height="208.00" fill="#fcfdfe" />
<rect x="816.00" y="1136.00" width="64.00" height="224.00" fill="#fcfdfe" />
<rect x="896.00" y="1136.00" width="48.00" height="224.00" fill="#fcfdfe" />
<rect x="1008.00" y="1136.00" width="64.00" height="96.00" fill="#fcfdfe" />
<rect x="1104.00" y="1136.00" width="32.00" height="96.00" fill="#fcfdfe" />
<rect x="1152.00" y="1136.00" width="16.00" height="96.00" fill="#fcfdfe" />
<rect x="240.00" y="1168.00" width="16.00" height="176.00" fill="#fcfdfe" />
<rect x="272.00" y="1168.00" width="64.00" height="176.00" fill="#fcfdfe" />
<rect x="352.00" y="1168.00" width="80.00" height="176.00" fill="#fcfdfe" />
<rect x="128.00" y="1184.00" width="112.00" height="16.00" fill="#fcfdfe" />
<rect x="432.00" y="1184.00" width="32.00" height="16.00" fill="#fcfdfe" />
<rect x="496.00" y="1184.00" width="144.00" height="16.00" fill="#fcfdfe" />
<rect x="656.00" y="1184.00" width="112.00" height="16.00" fill="#fcfdfe" />
<rect x="784.00" y="1184.00" width="32.00" height="16.00" fill="#fcfdfe" />
<rect x="944.00" y="1184.00" width="64.00" height="16.00" fill="#fcfdfe" />
<rect x="432.00" y="1248.00" width="208.00" height="16.00" fill="#fcfdfe" />
<rect x="1024.00" y="1248.00" width="48.00" height="64.00" fill="#fcfdfe" />
<rect x="1088.00" y="1248.00" width="80.00" height="64.00" fill="#fcfdfe" />
<rect x="560.00" y="1264.00" width="64.00" height="160.00" fill="#fcfdfe" />
<rect x="624.00" y="1344.00" width="144.00" height="16.00" fill="#fcfdfe" />
<rect x="784.00" y="1344.00" width="32.00" height="16.00" fill="#fcfdfe" />
<rect x="944.00" y="1344.00" width="128.00" height="16.00" fill="#fcfdfe" />
<rect x="1088.00" y="1344.00" width="80.00" height="16.00" fill="#fcfdfe" />
<rect x="320.00" y="1360.00" width="64.00" height="112.00" fill="#fcfdfe" />
<rect x="128.00" y="1408.00" width="192.00" height="16.00" fill="#fcfdfe" />
  </g>
  <g class="grid">
<line x1="0.00" y1="0" x2="0.00" y2="1536.00" />
<line x1="16.00" y1="0" x2="16.00" y2="1536.00" />
<line x1="32.00" y1="0" x2="32.00" y2="1536.00" />
<line x1="48.00" y1="0" x2="48.00" y2="1536.00" />
<line x1="64.00" y1="0" x2="64.00" y2="1536.00" />
<line x1="80.00" y1="0" x2="80.00" y2="1536.00" />
<line x1="96.00" y1="0" x2="96.00" y2="1536.00" />
<line x1="112.00" y1="0" x2="112.00" y2="1536.00" />
<line x1="128.00" y1="0" x2="128.00" y2="1536.00" />
<line x1="144.00" y1="0" x2="144.00" y2="1536.00" />
<line x1="160.00" y1="0" x2="160.00" y2="1536.00" />
<line x1="176.00" y1="0" x2="176.00" y2="1536.00" />
<line x1="192.00" y1="0" x2="192.00" y2="1536.00" />
<line x1="208.00" y1="0" x2="208.00" y2="1536.00" />
<line x1="224.00" y1="0" x2="224.00" y2="1536.00" />
<line x1="240.00" y1="0" x2="240.00" y2="1536.00" />
<line x1="256.00" y1="0" x2="256.00" y2="1536.00" />
<line x1="272.00" y1="0" x2="272.00" y2="1536.00" />
<line x1="288.00" y1="0" x2="288.00" y2="1536.00" />
<line x1="304.00" y1="0" x2="304.00" y2="1536.00" />
<line x1="320.00" y1="0" x2="320.00" y2="1536.00" />
<line x1="336.00" y1="0" x2="336.00" y2="1536.00" />
<line x1="352.00" y1="0" x2="352.00" y2="1536.00" />
<line x1="368.00" y1="0" x2="368.00" y2="1536.00" />
<line x1="384.00" y1="0" x2="384.00" y2="1536.00" />
<line x1="400.00" y1="0" x2="400.00" y2="1536.00" />
<line x1="416.00" y1="0" x2="416.00" y2="1536.00" />
<line x1="432.00" y1="0" x2="432.00" y2="1536.00" />
<line x1="448.00" y1="0" x2="448.00" y2="1536.00" />
<line x1="464.00" y1="0" x2="464.00" y2="1536.00" />
<line x1="480.00" y1="0" x2="480.00" y2="1536.00" />
<line x1="496.00" y1="0" x2="496.00" y2="1536.00" />
<line x1="512.00" y1="0" x2="512.00" y2="1536.00" />
<line x1="528.00" y1="0" x2="528.00" y2="1536.00" />
<line x1="544.00" y1="0" x2="544.00" y2="1536.00" />
<line x1="560.00" y1="0" x2="560.00" y2="1536.00" />
<line x1="576.00" y1="0" x2="576.00" y2="1536.00" />
<line x1="592.00" y1="0" x2="592.00" y2="1536.00" />
<line x1="608.00" y1="0" x2="608.00" y2="1536.00" />
<line x1="624.00" y1="0" x2="624.00" y2="1536.00" />
<line x1="640.00" y1="0" x2="640.00" y2="1536.00" />
<line x1="656.00" y1="0" x2="656.00" y2="1536.00" />
<line x1="672.00" y1="0" x2="672.00" y2="1536.00" />
<line x1="688.00" y1="0" x2="688.00" y2="1536.00" />
<line x1="704.00" y1="0" x2="704.00" y2="1536.00" />
<line x1="720.00" y1="0" x2="720.00" y2="1536.00" />
<line x1="736.00" y1="0" x2="736.00" y2="1536.00" />
<line x1="752.00" y1="0" x2="752.00" y2="1536.00" />
<line x1="768.00" y1="0" x2="768.00" y2="1536.00" />
<line x1="784.00" y1="0" x2="784.00" y2="1536.00" />
<line x1="800.00" y1="0" x2="800.00" y2="1536.00" />
<line x1="816.00" y1="0" x2="816.00" y2="1536.00" />
<line x1="832.00" y1="0" x2="832.00" y2="1536.00" />
<line x1="848.00" y1="0" x2="848.00" y2="1536.00" />
<line x1="864.00" y1="0" x2="864.00" y2="1536.00" />
<line x1="880.00" y1="0" x2="880.00" y2="1536.00" />
<line x1="896.00" y1="0" x2="896.00" y2="1536.00" />
<line x1="912.00" y1="0" x2="912.00" y2="1536.00" />
<line x1="928.00" y1="0" x2="928.00" y2="1536.00" />
<line x1="944.00" y1="0" x2="944.00" y2="1536.00" />
<line x1="960.00" y1="0" x2="960.00" y2="1536.00" />
<line x1="976.00" y1="0" x2="976.00" y2="1536.00" />
<line x1="992.00" y1="0" x2="992.00" y2="1536.00" />
<line x1="1008.00" y1="0" x2="1008.00" y2="1536.00" />
<line x1="1024.00" y1="0" x2="1024.00" y2="1536.00" />
<line x1="1040.00" y1="0" x2="1040.00" y2="1536.00" />
<line x1="1056.00" y1="0" x2="1056.00" y2="1536.00" />
<line x1="1072.00" y1="0" x2="1072.00" y2="1536.00" />
<line x1="1088.00" y1="0" x2="1088.00" y2="1536.00" />
<line x1="1104.00" y1="0" x2="1104.00" y2="1536.00" />
<line x1="1120.00" y1="0" x2="1120.00" y2="1536.00" />
<line x1="1136.00" y1="0" x2="1136.00" y2="1536.00" />
<line x1="1152.00" y1="0" x2="1152.00" y2="1536.00" />
<line x1="1168.00" y1="0" x2="1168.00" y2="1536.00" />
<line x1="1184.00" y1="0" x2="1184.00" y2="1536.00" />
<line x1="1200.00" y1="0" x2="1200.00" y2="1536.00" />
<line x1="1216.00" y1="0" x2="1216.00" y2="1536.00" />
<line x1="1232.00" y1="0" x2="1232.00" y2="1536.00" />
<line x1="1248.00" y1="0" x2="1248.00" y2="1536.00" />
<line x1="1264.00" y1="0" x2="1264.00" y2="1536.00" />
<line x1="1280.00" y1="0" x2="1280.00" y2="1536.00" />
<line x1="1296.00" y1="0" x2="1296.00" y2="1536.00" />
<line x1="1312.00" y1="0" x2="1312.00" y2="1536.00" />
<line x1="1328.00" y1="0" x2="1328.00" y2="1536.00" />
<line x1="1344.00" y1="0" x2="1344.00" y2="1536.00" />
<line x1="1360.00" y1="0" x2="1360.00" y2="1536.00" />
<line x1="1376.00" y1="0" x2="1376.00" y2="1536.00" />
<line x1="1392.00" y1="0" x2="1392.00" y2="1536.00" />
<line x1="1408.00" y1="0" x2="1408.00" y2="1536.00" />
<line x1="1424.00" y1="0" x2="1424.00" y2="1536.00" />
<line x1="1440.00" y1="0" x2="1440.00" y2="1536.00" />
<line x1="1456.00" y1="0" x2="1456.00" y2="1536.00" />
<line x1="1472.00" y1="0" x2="1472.00" y2="1536.00" />
<line x1="1488.00" y1="0" x2="1488.00" y2="1536.00" />
<line x1="1504.00" y1="0" x2="1504.00" y2="1536.00" />
<line x1="0" y1="0.00" x2="1504.00" y2="0.00" />
<line x1="0" y1="16.00" x2="1504.00" y2="16.00" />
<line x1="0" y1="32.00" x2="1504.00" y2="32.00" />
<line x1="0" y1="48.00" x2="1504.00" y2="48.00" />
<line x1="0" y1="64.00" x2="1504.00" y2="64.00" />
<line x1="0" y1="80.00" x2="1504.00" y2="80.00" />
<line x1="0" y1="96.00" x2="1504.00" y2="96.00" />
<line x1="0" y1="112.00" x2="1504.00" y2="112.00" />
<line x1="0" y1="128.00" x2="1504.00" y2="128.00" />
<line x1="0" y1="144.00" x2="1504.00" y2="144.00" />
<line x1="0" y1="160.00" x2="1504.00" y2="160.00" />
<line x1="0" y1="176.00" x2="1504.00" y2="176.00" />
<line x1="0" y1="192.00" x2="1504.00" y2="192.00" />
<line x1="0" y1="208.00" x2="1504.00" y2="208.00" />
<line x1="0" y1="224.00" x2="1504.00" y2="224.00" />
<line x1="0" y1="240.00" x2="1504.00" y2="240.00" />
<line x1="0" y1="256.00" x2="1504.00" y2="256.00" />
<line x1="0" y1="272.00" x2="1504.00" y2="272.00" />
<line x1="0" y1="288.00" x2="1504.00" y2="288.00" />
<line x1="0" y1="304.00" x2="1504.00" y2="304.00" />
<line x1="0" y1="320.00" x2="1504.00" y2="320.00" />
<line x1="0" y1="336.00" x2="1504.00" y2="336.00" />
<line x1="0" y1="352.00" x2="1504.00" y2="352.00" />
<line x1="0" y1="368.00" x2="1504.00" y2="368.00" />
<line x1="0" y1="384.00" x2="1504.00" y2="384.00" />
<line x1="0" y1="400.00" x2="1504.00" y2="400.00" />
<line x1="0" y1="416.00" x2="1504.00" y2="416.00" />
<line x1="0" y1="432.00" x2="1504.00" y2="432.00" />
<line x1="0" y1="448.00" x2="1504.00" y2="448.00" />
<line x1="0" y1="464.00" x2="1504.00" y2="464.00" />
<line x1="0" y1="480.00" x2="1504.00" y2="480.00" />
<line x1="0" y1="496.00" x2="1504.00" y2="496.00" />
<line x1="0" y1="512.00" x2="1504.00" y2="512.00" />
<line x1="0" y1="528.00" x2="1504.00" y2="528.00" />
<line x1="0" y1="544.00" x2="1504.00" y2="544.00" />
<line x1="0" y1="560.00" x2="1504.00" y2="560.00" />
<line x1="0" y1="576.00" x2="1504.00" y2="576.00" />
<line x1="0" y1="592.00" x2="1504.00" y2="592.00" />
<line x1="0" y1="608.00" x2="1504.00" y2="608.00" />
<line x1="0" y1="624.00" x2="1504.00" y2="624.00" />
<line x1="0" y1="640.00" x2="1504.00" y2="640.00" />
<line x1="0" y1="656.00" x2="1504.00" y2="656.00" />
<line x1="0" y1="672.00" x2="1504.00" y2="672.00" />
<line x1="0" y1="688.00" x2="1504.00" y2="688.00" />
<line x1="0" y1="704.00" x2="1504.00" y2="704.00" />
<line x1="0" y1="720.00" x2="1504.00" y2="720.00" />
<line x1="0" y1="736.00" x2="1504.00" y2="736.00" />
<line x1="0" y1="752.00" x2="1504.00" y2="752.00" />
<line x1="0" y1="768.00" x2="1504.00" y2="768.00" />
<line x1="0" y1="784.00" x2="1504.00" y2="784.00" />
<line x1="0" y1="800.00" x2="1504.00" y2="800.00" />
<line x1="0" y1="816.00" x2="1504.00" y2="816.00" />
<line x1="0" y1="832.00" x2="1504.00" y2="832.00" />
<line x1="0" y1="848.00" x2="1504.00" y2="848.00" />
<line x1="0" y1="864.00" x2="1504.00" y2="864.00" />
<line x1="0" y1="880.00" x2="1504.00" y2="880.00" />
<line x1="0" y1="896.00" x2="1504.00" y2="896.00" />
<line x1="0" y1="912.00" x2="1504.00" y2="912.00" />
<line x1="0" y1="928.00" x2="1504.00" y2="928.00" />
<line x1="0" y1="944.00" x2="1504.00" y2="944.00" />
<line x1="0" y1="960.00" x2="1504.00" y2="960.00" />
<line x1="0" y1="976.00" x2="1504.00" y2="976.00" />
<line x1="0" y1="992.00" x2="1504.00" y2="992.00" />
<line x1="0" y1="1008.00" x2="1504.00" y2="1008.00" />
<line x1="0" y1="1024.00" x2="1504.00" y2="1024.00" />
<line x1="0" y1="1040.00" x2="1504.00" y2="1040.00" />
<line x1="0" y1="1056.00" x2="1504.00" y2="1056.00" />
<line x1="0" y1="1072.00" x2="1504.00" y2="1072.00" />
<line x1="0" y1="1088.00" x2="1504.00" y2="1088.00" />
<line x1="0" y1="1104.00" x2="1504.00" y2="1104.00" />
<line x1="0" y1="1120.00" x2="1504.00" y2="1120.00" />
<line x1="0" y1="1136.00" x2="1504.00" y2="1136.00" />
<line x1="0" y1="1152.00" x2="1504.00" y2="1152.00" />
<line x1="0" y1="1168.00" x2="1504.00" y2="1168.00" />
<line x1="0" y1="1184.00" x2="1504.00" y2="1184.00" />
<line x1="0" y1="1200.00" x2="1504.00" y2="1200.00" />
<line x1="0" y1="1216.00" x2="1504.00" y2="1216.00" />
<line x1="0" y1="1232.00" x2="1504.00" y2="1232.00" />
<line x1="0" y1="1248.00" x2="1504.00" y2="1248.00" />
<line x1="0" y1="1264.00" x2="1504.00" y2="1264.00" />
<line x1="0" y1="1280.00" x2="1504.00" y2="1280.00" />
<line x1="0" y1="1296.00" x2="1504.00" y2="1296.00" />
<line x1="0" y1="1312.00" x2="1504.00" y2="1312.00" />
<line x1="0" y1="1328.00" x2="1504.00" y2="1328.00" />
<line x1="0" y1="1344.00" x2="1504.00" y2="1344.00" />
<line x1="0" y1="1360.00" x2="1504.00" y2="1360.00" />
<line x1="0" y1="1376.00" x2="1504.00" y2="1376.00" />
<line x1="0" y1="1392.00" x2="1504.00" y2="1392.00" />
<line x1="0" y1="1408.00" x2="1504.00" y2="1408.00" />
<line x1="0" y1="1424.00" x2="1504.00" y2="1424.00" />
<line x1="0" y1="1440.00" x2="1504.00" y2="1440.00" />
<line x1="0" y1="1456.00" x2="1504.00" y2="1456.00" />
<line x1="0" y1="1472.00" x2="1504.00" y2="1472.00" />
<line x1="0" y1="1488.00" x2="1504.00" y2="1488.00" />
<line x1="0" y1="1504.00" x2="1504.00" y2="1504.00" />
<line x1="0" y1="1520.00" x2="1504.00" y2="1520.00" />
<line x1="0" y1="1536.00" x2="1504.00" y2="1536.00" />
  </g>
  <g class="walls">
<line x1="688.00" y1="64.00" x2="864.00" y2="64.00" />
<line x1="32.00" y1="96.00" x2="208.00" y2="96.00" />
<line x1="1088.00" y1="96.00" x2="1184.00" y2="96.00" />
<line x1="208.00" y1="128.00" x2="608.00" y2="128.00" />
<line x1="208.00" y1="144.00" x2="464.00" y2="144.00" />
<line x1="480.00" y1="144.00" x2="592.00" y2="144.00" />
<line x1="32.00" y1="176.00" x2="112.00" y2="176.00" />
<line x1="128.00" y1="176.00" x2="208.00" y2="176.00" />
<line x1="480.00" y1="176.00" x2="592.00" y2="176.00" />
<line x1="608.00" y1="176.00" x2="688.00" y2="176.00" />
<line x1="864.00" y1="176.00" x2="1104.00" y2="176.00" />
<line x1="1232.00" y1="176.00" x2="1360.00" y2="176.00" />
<line x1="480.00" y1="160.00" x2="592.00" y2="160.00" />
<line x1="608.00" y1="160.00" x2="688.00" y2="160.00" />
<line x1="864.00" y1="160.00" x2="1088.00" y2="160.00" />
<line x1="1184.00" y1="160.00" x2="1376.00" y2="160.00" />
<line x1="256.00" y1="192.00" x2="336.00" y2="192.00" />
<line x1="432.00" y1="192.00" x2="464.00" y2="192.00" />
<line x1="480.00" y1="192.00" x2="496.00" y2="192.00" />
<line x1="336.00" y1="224.00" x2="432.00" y2="224.00" />
<line x1="496.00" y1="224.00" x2="592.00" y2="224.00" />
<line x1="608.00" y1="224.00" x2="688.00" y2="224.00" />
<line x1="864.00" y1="224.00" x2="896.00" y2="224.00" />
<line x1="352.00" y1="240.00" x2="432.00" y2="240.00" />
<line x1="496.00" y1="240.00" x2="592.00" y2="240.00" />
<line x1="608.00" y1="240.00" x2="688.00" y2="240.00" />
<line x1="864.00" y1="240.00" x2="880.00" y2="240.00" />
<line x1="1104.00" y1="240.00" x2="1136.00" y2="240.00" />
<line x1="1152.00" y1="240.00" x2="1168.00" y2="240.00" />
<line x1="1184.00" y1="240.00" x2="1232.00" y2="240.00" />
<line x1="496.00" y1="256.00" x2="592.00" y2="256.00" />
<line x1="608.00" y1="256.00" x2="688.00" y2="256.00" />
<line x1="848.00" y1="256.00" x2="864.00" y2="256.00" />
<line x1="272.00" y1="272.00" x2="288.00" y2="272.00" />
<line x1="304.00" y1="272.00" x2="336.00" y2="272.00" />
<line x1="496.00" y1="272.00" x2="592.00" y2="272.00" />
<line x1="608.00" y1="272.00" x2="768.00" y2="272.00" />
<line x1="784.00" y1="272.00" x2="832.00" y2="272.00" />
<line x1="1328.00" y1="272.00" x2="1360.00" y2="272.00" />
<line x1="1296.00" y1="288.00" x2="1328.00" y2="288.00" />
<line x1="1376.00" y1="288.00" x2="1408.00" y2="288.00" />
<line x1="80.00" y1="320.00" x2="112.00" y2="320.00" />
<line x1="128.00" y1="320.00" x2="160.00" y2="320.00" />
<line x1="432.00" y1="320.00" x2="464.00" y2="320.00" />
<line x1="480.00" y1="320.00" x2="496.00" y2="320.00" />
<line x1="1024.00" y1="320.00" x2="1136.00" y2="320.00" />
<line x1="1280.00" y1="304.00" x2="1296.00" y2="304.00" />
<line x1="1408.00" y1="304.00" x2="1424.00" y2="304.00" />
<line x1="64.00" y1="336.00" x2="80.00" y2="336.00" />
<line x1="160.00" y1="336.00" x2="176.00" y2="336.00" />
<line x1="224.00" y1="336.00" x2="256.00" y2="336.00" />
<line x1="272.00" y1="336.00" x2="288.00" y2="336.00" />
<line x1="304.00" y1="336.00" x2="336.00" y2="336.00" />
<line x1="352.00" y1="336.00" x2="432.00" y2="336.00" />
<line x1="1264.00" y1="336.00" x2="1280.00" y2="336.00" />
<line x1="1424.00" y1="336.00" x2="1440.00" y2="336.00" />
<line x1="176.00" y1="352.00" x2="224.00" y2="352.00" />
<line x1="432.00" y1="352.00" x2="464.00" y2="352.00" />
<line x1="480.00" y1="352.00" x2="592.00" y2="352.00" />
<line x1="608.00" y1="352.00" x2="768.00" y2="352.00" />
<line x1="784.00" y1="352.00" x2="832.00" y2="352.00" />
<line x1="848.00" y1="352.00" x2="880.00" y2="352.00" />
<line x1="896.00" y1="352.00" x2="1024.00" y2="352.00" />
<line x1="1152.00" y1="352.00" x2="1168.00" y2="352.00" />
<line x1="1184.00" y1="352.00" x2="1264.00" y2="352.00" />
<line x1="176.00" y1="368.00" x2="224.00" y2="368.00" />
<line x1="432.00" y1="368.00" x2="464.00" y2="368.00" />
<line x1="480.00" y1="368.00" x2="592.00" y2="368.00" />
<line x1="608.00" y1="368.00" x2="640.00" y2="368.00" />
<line x1="656.00" y1="368.00" x2="768.00" y2="368.00" />
<line x1="784.00" y1="368.00" x2="832.00" y2="368.00" />
<line x1="848.00" y1="368.00" x2="880.00" y2="368.00" />
<line x1="896.00" y1="368.00" x2="976.00" y2="368.00" />
<line x1="992.00" y1="368.00" x2="1024.00" y2="368.00" />
<line x1="1152.00" y1="368.00" x2="1168.00" y2="368.00" />
<line x1="1184.00" y1="368.00" x2="1264.00" y2="368.00" />
<line x1="512.00" y1="384.00" x2="592.00" y2="384.00" />
<line x1="608.00" y1="384.00" x2="640.00" y2="384.00" />
<line x1="656.00" y1="384.00" x2="688.00" y2="384.00" />
<line x1="1264.00" y1="384.00" x2="1280.00" y2="384.00" />
<line x1="1424.00" y1="384.00" x2="1440.00" y2="384.00" />
<line x1="1024.00" y1="400.00" x2="1136.00" y2="400.00" />
<line x1="176.00" y1="416.00" x2="224.00" y2="416.00" />
<line x1="1280.00" y1="416.00" x2="1296.00" y2="416.00" />
<line x1="1408.00" y1="416.00" x2="1424.00" y2="416.00" />
<line x1="176.00" y1="432.00" x2="224.00" y2="432.00" />
<line x1="432.00" y1="432.00" x2="464.00" y2="432.00" />
<line x1="480.00" y1="432.00" x2="512.00" y2="432.00" />
<line x1="688.00" y1="432.00" x2="768.00" y2="432.00" />
<line x1="784.00" y1="432.00" x2="832.00" y2="432.00" />
<line x1="848.00" y1="432.00" x2="880.00" y2="432.00" />
<line x1="896.00" y1="432.00" x2="976.00" y2="432.00" />
<line x1="992.00" y1="432.00" x2="1136.00" y2="432.00" />
<line x1="1152.00" y1="432.00" x2="1168.00" y2="432.00" />
<line x1="1296.00" y1="432.00" x2="1328.00" y2="432.00" />
<line x1="1376.00" y1="432.00" x2="1408.00" y2="432.00" />
<line x1="432.00" y1="448.00" x2="464.00" y2="448.00" />
<line x1="480.00" y1="448.00" x2="640.00" y2="448.00" />
<line x1="656.00" y1="448.00" x2="768.00" y2="448.00" />
<line x1="784.00" y1="448.00" x2="832.00" y2="448.00" />
<line x1="848.00" y1="448.00" x2="880.00" y2="448.00" />
<line x1="896.00" y1="448.00" x2="976.00" y2="448.00" />
<line x1="992.00" y1="448.00" x2="1136.00" y2="448.00" />
<line x1="1152.00" y1="448.00" x2="1168.00" y2="448.00" />
<line x1="1328.00" y1="448.00" x2="1360.00" y2="448.00" />
<line x1="64.00" y1="512.00" x2="80.00" y2="512.00" />
<line x1="160.00" y1="512.00" x2="176.00" y2="512.00" />
<line x1="80.00" y1="528.00" x2="112.00" y2="528.00" />
<line x1="128.00" y1="528.00" x2="160.00" y2="528.00" />
<line x1="224.00" y1="544.00" x2="256.00" y2="544.00" />
<line x1="272.00" y1="544.00" x2="320.00" y2="544.00" />
<line x1="352.00" y1="544.00" x2="432.00" y2="544.00" />
<line x1="672.00" y1="560.00" x2="768.00" y2="560.00" />
<line x1="784.00" y1="560.00" x2="800.00" y2="560.00" />
<line x1="656.00" y1="592.00" x2="672.00" y2="592.00" />
<line x1="656.00" y1="608.00" x2="672.00" y2="608.00" />
<line x1="672.00" y1="640.00" x2="768.00" y2="640.00" />
<line x1="784.00" y1="640.00" x2="800.00" y2="640.00" />
<line x1="800.00" y1="672.00" x2="832.00" y2="672.00" />
<line x1="848.00" y1="672.00" x2="880.00" y2="672.00" />
<line x1="992.00" y1="672.00" x2="1136.00" y2="672.00" />
<line x1="1152.00" y1="672.00" x2="1168.00" y2="672.00" />
<line x1="1264.00" y1="688.00" x2="1360.00" y2="688.00" />
<line x1="1376.00" y1="688.00" x2="1472.00" y2="688.00" />
<line x1="208.00" y1="704.00" x2="256.00" y2="704.00" />
<line x1="272.00" y1="704.00" x2="320.00" y2="704.00" />
<line x1="416.00" y1="720.00" x2="464.00" y2="720.00" />
<line x1="480.00" y1="720.00" x2="544.00" y2="720.00" />
<line x1="992.00" y1="768.00" x2="1072.00" y2="768.00" />
<line x1="1088.00" y1="768.00" x2="1136.00" y2="768.00" />
<line x1="1152.00" y1="768.00" x2="1168.00" y2="768.00" />
<line x1="128.00" y1="800.00" x2="208.00" y2="800.00" />
<line x1="352.00" y1="800.00" x2="416.00" y2="800.00" />
<line x1="544.00" y1="800.00" x2="640.00" y2="800.00" />
<line x1="656.00" y1="800.00" x2="768.00" y2="800.00" />
<line x1="128.00" y1="816.00" x2="208.00" y2="816.00" />
<line x1="352.00" y1="816.00" x2="464.00" y2="816.00" />
<line x1="496.00" y1="816.00" x2="640.00" y2="816.00" />
<line x1="656.00" y1="816.00" x2="768.00" y2="816.00" />
<line x1="1280.00" y1="832.00" x2="1472.00" y2="832.00" />
<line x1="608.00" y1="848.00" x2="640.00" y2="848.00" />
<line x1="656.00" y1="848.00" x2="672.00" y2="848.00" />
<line x1="912.00" y1="848.00" x2="976.00" y2="848.00" />
<line x1="992.00" y1="848.00" x2="1040.00" y2="848.00" />
<line x1="592.00" y1="864.00" x2="608.00" y2="864.00" />
<line x1="672.00" y1="864.00" x2="688.00" y2="864.00" />
<line x1="352.00" y1="880.00" x2="464.00" y2="880.00" />
<line x1="496.00" y1="880.00" x2="592.00" y2="880.00" />
<line x1="688.00" y1="880.00" x2="768.00" y2="880.00" />
<line x1="784.00" y1="880.00" x2="800.00" y2="880.00" />
<line x1="896.00" y1="880.00" x2="912.00" y2="880.00" />
<line x1="352.00" y1="896.00" x2="464.00" y2="896.00" />
<line x1="496.00" y1="896.00" x2="576.00" y2="896.00" />
<line x1="704.00" y1="896.00" x2="768.00" y2="896.00" />
<line x1="784.00" y1="896.00" x2="880.00" y2="896.00" />
<line x1="896.00" y1="896.00" x2="912.00" y2="896.00" />
<line x1="208.00" y1="912.00" x2="256.00" y2="912.00" />
<line x1="272.00" y1="912.00" x2="320.00" y2="912.00" />
<line x1="912.00" y1="912.00" x2="1040.00" y2="912.00" />
<line x1="1088.00" y1="912.00" x2="1136.00" y2="912.00" />
<line x1="1152.00" y1="912.00" x2="1168.00" y2="912.00" />
<line x1="1184.00" y1="912.00" x2="1248.00" y2="912.00" />
<line x1="320.00" y1="960.00" x2="336.00" y2="960.00" />
<line x1="352.00" y1="960.00" x2="464.00" y2="960.00" />
<line x1="496.00" y1="960.00" x2="576.00" y2="960.00" />
<line x1="704.00" y1="960.00" x2="768.00" y2="960.00" />
<line x1="784.00" y1="960.00" x2="880.00" y2="960.00" />
<line x1="896.00" y1="960.00" x2="1072.00" y2="960.00" />
<line x1="352.00" y1="944.00" x2="464.00" y2="944.00" />
<line x1="496.00" y1="944.00" x2="576.00" y2="944.00" />
<line x1="704.00" y1="944.00" x2="768.00" y2="944.00" />
<line x1="784.00" y1="944.00" x2="880.00" y2="944.00" />
<line x1="896.00" y1="944.00" x2="1072.00" y2="944.00" />
<line x1="352.00" y1="976.00" x2="464.00" y2="976.00" />
<line x1="496.00" y1="976.00" x2="576.00" y2="976.00" />
<line x1="704.00" y1="976.00" x2="768.00" y2="976.00" />
<line x1="784.00" y1="976.00" x2="880.00" y2="976.00" />
<line x1="896.00" y1="976.00" x2="1072.00" y2="976.00" />
<line x1="352.00" y1="992.00" x2="464.00" y2="992.00" />
<line x1="496.00" y1="992.00" x2="576.00" y2="992.00" />
<line x1="704.00" y1="992.00" x2="768.00" y2="992.00" />
<line x1="784.00" y1="992.00" x2="880.00" y2="992.00" />
<line x1="896.00" y1="992.00" x2="1072.00" y2="992.00" />
<line x1="576.00" y1="1008.00" x2="592.00" y2="1008.00" />
<line x1="688.00" y1="1008.00" x2="704.00" y2="1008.00" />
<line x1="592.00" y1="1024.00" x2="608.00" y2="1024.00" />
<line x1="672.00" y1="1024.00" x2="688.00" y2="1024.00" />
<line x1="608.00" y1="1040.00" x2="640.00" y2="1040.00" />
<line x1="656.00" y1="1040.00" x2="672.00" y2="1040.00" />
<line x1="1104.00" y1="1056.00" x2="1136.00" y2="1056.00" />
<line x1="1152.00" y1="1056.00" x2="1168.00" y2="1056.00" />
<line x1="1184.00" y1="1056.00" x2="1248.00" y2="1056.00" />
<line x1="1232.00" y1="1104.00" x2="1264.00" y2="1104.00" />
<line x1="1280.00" y1="1104.00" x2="1296.00" y2="1104.00" />
<line x1="816.00" y1="1136.00" x2="880.00" y2="1136.00" />
<line x1="896.00" y1="1136.00" x2="944.00" y2="1136.00" />
<line x1="1008.00" y1="1136.00" x2="1072.00" y2="1136.00" />
<line x1="1104.00" y1="1136.00" x2="1136.00" y2="1136.00" />
<line x1="1152.00" y1="1136.00" x2="1168.00" y2="1136.00" />
<line x1="240.00" y1="1168.00" x2="256.00" y2="1168.00" />
<line x1="272.00" y1="1168.00" x2="336.00" y2="1168.00" />
<line x1="352.00" y1="1168.00" x2="432.00" y2="1168.00" />
<line x1="128.00" y1="1184.00" x2="240.00" y2="1184.00" />
<line x1="432.00" y1="1184.00" x2="464.00" y2="1184.00" />
<line x1="496.00" y1="1184.00" x2="640.00" y2="1184.00" />
<line x1="656.00" y1="1184.00" x2="768.00" y2="1184.00" />
<line x1="784.00" y1="1184.00" x2="816.00" y2="1184.00" />
<line x1="944.00" y1="1184.00" x2="1008.00" y2="1184.00" />
<line x1="128.00" y1="1200.00" x2="240.00" y2="1200.00" />
<line x1="432.00" y1="1200.00" x2="640.00" y2="1200.00" />
<line x1="656.00" y1="1200.00" x2="768.00" y2="1200.00" />
<line x1="784.00" y1="1200.00" x2="816.00" y2="1200.00" />
<line x1="944.00" y1="1200.00" x2="1008.00" y2="1200.00" />
<line x1="1008.00" y1="1232.00" x2="1072.00" y2="1232.00" />
<line x1="1088.00" y1="1232.00" x2="1168.00" y2="1232.00" />
<line x1="432.00" y1="1248.00" x2="640.00" y2="1248.00" />
<line x1="1024.00" y1="1248.00" x2="1072.00" y2="1248.00" />
<line x1="1088.00" y1="1248.00" x2="1168.00" y2="1248.00" />
<line x1="432.00" y1="1264.00" x2="560.00" y2="1264.00" />
<line x1="624.00" y1="1264.00" x2="656.00" y2="1264.00" />
<line x1="1024.00" y1="1312.00" x2="1072.00" y2="1312.00" />
<line x1="1088.00" y1="1312.00" x2="1168.00" y2="1312.00" />
<line x1="1232.00" y1="1312.00" x2="1296.00" y2="1312.00" />
<line x1="240.00" y1="1344.00" x2="432.00" y2="1344.00" />
<line x1="624.00" y1="1344.00" x2="768.00" y2="1344.00" />
<line x1="784.00" y1="1344.00" x2="816.00" y2="1344.00" />
<line x1="944.00" y1="1344.00" x2="1072.00" y2="1344.00" />
<line x1="1088.00" y1="1344.00" x2="1168.00" y2="1344.00" />
<line x1="320.00" y1="1360.00" x2="384.00" y2="1360.00" />
<line x1="624.00" y1="1360.00" x2="1184.00" y2="1360.00" />
<line x1="112.00" y1="1424.00" x2="320.00" y2="1424.00" />
<line x1="560.00" y1="1424.00" x2="624.00" y2="1424.00" />
<line x1="128.00" y1="1408.00" x2="320.00" y2="1408.00" />
<line x1="320.00" y1="1472.00" x2="384.00" y2="1472.00" />
<line x1="688.00" y1="64.00" x2="688.00" y2="160.00" />
<line x1="688.00" y1="176.00" x2="688.00" y2="224.00" />
<line x1="688.00" y1="240.00" x2="688.00" y2="256.00" />
<line x1="688.00" y1="384.00" x2="688.00" y2="432.00" />
<line x1="688.00" y1="864.00" x2="688.00" y2="880.00" />
<line x1="688.00" y1="1008.00" x2="688.00" y2="1024.00" />
<line x1="864.00" y1="64.00" x2="864.00" y2="160.00" />
<line x1="864.00" y1="176.00" x2="864.00" y2="224.00" />
<line x1="864.00" y1="240.00" x2="864.00" y2="256.00" />
<line x1="32.00" y1="96.00" x2="32.00" y2="176.00" />
<line x1="208.00" y1="96.00" x2="208.00" y2="128.00" />
<line x1="208.00" y1="144.00" x2="208.00" y2="176.00" />
<line x1="208.00" y1="704.00" x2="208.00" y2="800.00" />
<line x1="208.00" y1="816.00" x2="208.00" y2="912.00" />
<line x1="1088.00" y1="96.00" x2="1088.00" y2="160.00" />
<line x1="1088.00" y1="768.00" x2="1088.00" y2="912.00" />
<line x1="1088.00" y1="1232.00" x2="1088.00" y2="1248.00" />
<line x1="1088.00" y1="1312.00" x2="1088.00" y2="1344.00" />
<line x1="1184.00" y1="96.00" x2="1184.00" y2="160.00" />
<line x1="1184.00" y1="240.00" x2="1184.00" y2="352.00" />
<line x1="1184.00" y1="368.00" x2="1184.00" y2="912.00" />
<line x1="1184.00" y1="1056.00" x2="1184.00" y2="1360.00" />
<line x1="608.00" y1="128.00" x2="608.00" y2="160.00" />
<line x1="608.00" y1="176.00" x2="608.00" y2="224.00" />
<line x1="608.00" y1="240.00" x2="608.00" y2="256.00" />
<line x1="608.00" y1="272.00" x2="608.00" y2="352.00" />
<line x1="608.00" y1="368.00" x2="608.00" y2="384.00" />
<line x1="608.00" y1="848.00" x2="608.00" y2="864.00" />
<line x1="608.00" y1="1024.00" x2="608.00" y2="1040.00" />
<line x1="464.00" y1="144.00" x2="464.00" y2="192.00" />
<line x1="464.00" y1="320.00" x2="464.00" y2="352.00" />
<line x1="464.00" y1="368.00" x2="464.00" y2="432.00" />
<line x1="464.00" y1="448.00" x2="464.00" y2="720.00" />
<line x1="464.00" y1="816.00" x2="464.00" y2="880.00" />
<line x1="464.00" y1="896.00" x2="464.00" y2="944.00" />
<line x1="464.00" y1="960.00" x2="464.00" y2="976.00" />
<line x1="464.00" y1="992.00" x2="464.00" y2="1184.00" />
<line x1="480.00" y1="144.00" x2="480.00" y2="160.00" />
<line x1="480.00" y1="176.00" x2="480.00" y2="192.00" />
<line x1="480.00" y1="320.00" x2="480.00" y2="352.00" />
<line x1="480.00" y1="368.00" x2="480.00" y2="432.00" />
<line x1="480.00" y1="448.00" x2="480.00" y2="720.00" />
<line x1="592.00" y1="144.00" x2="592.00" y2="160.00" />
<line x1="592.00" y1="176.00" x2="592.00" y2="224.00" />
<line x1="592.00" y1="240.00" x2="592.00" y2="256.00" />
<line x1="592.00" y1="272.00" x2="592.00" y2="352.00" />
<line x1="592.00" y1="368.00" x2="592.00" y2="384.00" />
<line x1="592.00" y1="864.00" x2="592.00" y2="880.00" />
<line x1="592.00" y1="1008.00" x2="592.00" y2="1024.00" />
<line x1="1376.00" y1="160.00" x2="1376.00" y2="288.00" />
<line x1="1376.00" y1="432.00" x2="1376.00" y2="688.00" />
<line x1="112.00" y1="176.00" x2="112.00" y2="320.00" />
<line x1="112.00" y1="528.00" x2="112.00" y2="1424.00" />
<line x1="128.00" y1="176.00" x2="128.00" y2="320.00" />
<line x1="128.00" y1="528.00" x2="128.00" y2="800.00" />
<line x1="128.00" y1="816.00" x2="128.00" y2="1184.00" />
<line x1="128.00" y1="1200.00" x2="128.00" y2="1408.00" />
<line x1="1104.00" y1="176.00" x2="1104.00" y2="240.00" />
<line x1="1104.00" y1="1056.00" x2="1104.00" y2="1136.00" />
<line x1="1232.00" y1="176.00" x2="1232.00" y2="240.00" />
<line x1="1232.00" y1="1104.00" x2="1232.00" y2="1312.00" />
<line x1="1360.00" y1="176.00" x2="1360.00" y2="272.00" />
<line x1="1360.00" y1="448.00" x2="1360.00" y2="688.00" />
<line x1="256.00" y1="192.00" x2="256.00" y2="336.00" />
<line x1="256.00" y1="544.00" x2="256.00" y2="704.00" />
<line x1="256.00" y1="912.00" x2="256.00" y2="1168.00" />
<line x1="336.00" y1="192.00" x2="336.00" y2="224.00" />
<line x1="336.00" y1="272.00" x2="336.00" y2="336.00" />
<line x1="336.00" y1="960.00" x2="336.00" y2="1168.00" />
<line x1="432.00" y1="192.00" x2="432.00" y2="224.00" />
<line x1="432.00" y1="240.00" x2="432.00" y2="320.00" />
<line x1="432.00" y1="336.00" x2="432.00" y2="352.00" />
<line x1="432.00" y1="368.00" x2="432.00" y2="432.00" />
<line x1="432.00" y1="448.00" x2="432.00" y2="544.00" />
<line x1="432.00" y1="1168.00" x2="432.00" y2="1184.00" />
<line x1="432.00" y1="1200.00" x2="432.00" y2="1248.00" />
<line x1="432.00" y1="1264.00" x2="432.00" y2="1344.00" />
<line x1="496.00" y1="192.00" x2="496.00" y2="224.00" />
<line x1="496.00" y1="240.00" x2="496.00" y2="256.00" />
<line x1="496.00" y1="272.00" x2="496.00" y2="320.00" />
<line x1="496.00" y1="816.00" x2="496.00" y2="880.00" />
<line x1="496.00" y1="896.00" x2="496.00" y2="944.00" />
<line x1="496.00" y1="960.00" x2="496.00" y2="976.00" />
<line x1="496.00" y1="992.00" x2="496.00" y2="1184.00" />
<line x1="896.00" y1="224.00" x2="896.00" y2="352.00" />
<line x1="896.00" y1="368.00" x2="896.00" y2="432.00" />
<line x1="896.00" y1="448.00" x2="896.00" y2="880.00" />
<line x1="896.00" y1="896.00" x2="896.00" y2="944.00" />
<line x1="896.00" y1="960.00" x2="896.00" y2="976.00" />
<line x1="896.00" y1="992.00" x2="896.00" y2="1136.00" />
<line x1="352.00" y1="240.00" x2="352.00" y2="336.00" />
<line x1="352.00" y1="544.00" x2="352.00" y2="800.00" />
<line x1="352.00" y1="816.00" x2="352.00" y2="880.00" />
<line x1="352.00" y1="896.00" x2="352.00" y2="944.00" />
<line x1="352.00" y1="960.00" x2="352.00" y2="976.00" />
<line x1="352.00" y1="992.00" x2="352.00" y2="1168.00" />
<line x1="880.00" y1="240.00" x2="880.00" y2="352.00" />
<line x1="880.00" y1="368.00" x2="880.00" y2="432.00" />
<line x1="880.00" y1="448.00" x2="880.00" y2="672.00" />
<line x1="880.00" y1="896.00" x2="880.00" y2="944.00" />
<line x1="880.00" y1="960.00" x2="880.00" y2="976.00" />
<line x1="880.00" y1="992.00" x2="880.00" y2="1136.00" />
<line x1="1136.00" y1="240.00" x2="1136.00" y2="320.00" />
<line x1="1136.00" y1="400.00" x2="1136.00" y2="432.00" />
<line x1="1136.00" y1="448.00" x2="1136.00" y2="672.00" />
<line x1="1136.00" y1="768.00" x2="1136.00" y2="912.00" />
<line x1="1136.00" y1="1056.00" x2="1136.00" y2="1136.00" />
<line x1="1152.00" y1="240.00" x2="1152.00" y2="352.00" />
<line x1="1152.00" y1="368.00" x2="1152.00" y2="432.00" />
<line x1="1152.00" y1="448.00" x2="1152.00" y2="672.00" />
<line x1="1152.00" y1="768.00" x2="1152.00" y2="912.00" />
<line x1="1152.00" y1="1056.00" x2="1152.00" y2="1136.00" />
<line x1="1168.00" y1="240.00" x2="1168.00" y2="352.00" />
<line x1="1168.00" y1="368.00" x2="1168.00" y2="432.00" />
<line x1="1168.00" y1="448.00" x2="1168.00" y2="672.00" />
<line x1="1168.00" y1="768.00" x2="1168.00" y2="912.00" />
<line x1="1168.00" y1="1056.00" x2="1168.00" y2="1136.00" />
<line x1="1168.00" y1="1232.00" x2="1168.00" y2="1248.00" />
<line x1="1168.00" y1="1312.00" x2="1168.00" y2="1344.00" />
<line x1="848.00" y1="256.00" x2="848.00" y2="352.00" />
<line x1="848.00" y1="368.00" x2="848.00" y2="432.00" />
<line x1="848.00" y1="448.00" x2="848.00" y2="672.00" />
<line x1="272.00" y1="272.00" x2="272.00" y2="336.00" />
<line x1="272.00" y1="544.00" x2="272.00" y2="704.00" />
<line x1="272.00" y1="912.00" x2="272.00" y2="1168.00" />
<line x1="288.00" y1="272.00" x2="288.00" y2="336.00" />
<line x1="304.00" y1="272.00" x2="304.00" y2="336.00" />
<line x1="768.00" y1="272.00" x2="768.00" y2="352.00" />
<line x1="768.00" y1="368.00" x2="768.00" y2="432.00" />
<line x1="768.00" y1="448.00" x2="768.00" y2="560.00" />
<line x1="768.00" y1="640.00" x2="768.00" y2="800.00" />
<line x1="768.00" y1="816.00" x2="768.00" y2="880.00" />
<line x1="768.00" y1="896.00" x2="768.00" y2="944.00" />
<line x1="768.00" y1="960.00" x2="768.00" y2="976.00" />
<line x1="768.00" y1="992.00" x2="768.00" y2="1184.00" />
<line x1="768.00" y1="1200.00" x2="768.00" y2="1344.00" />
<line x1="784.00" y1="272.00" x2="784.00" y2="352.00" />
<line x1="784.00" y1="368.00" x2="784.00" y2="432.00" />
<line x1="784.00" y1="448.00" x2="784.00" y2="560.00" />
<line x1="784.00" y1="640.00" x2="784.00" y2="880.00" />
<line x1="784.00" y1="896.00" x2="784.00" y2="944.00" />
<line x1="784.00" y1="960.00" x2="784.00" y2="976.00" />
<line x1="784.00" y1="992.00" x2="784.00" y2="1184.00" />
<line x1="784.00" y1="1200.00" x2="784.00" y2="1344.00" />
<line x1="832.00" y1="272.00" x2="832.00" y2="352.00" />
<line x1="832.00" y1="368.00" x2="832.00" y2="432.00" />
<line x1="832.00" y1="448.00" x2="832.00" y2="672.00" />
<line x1="1328.00" y1="272.00" x2="1328.00" y2="288.00" />
<line x1="1328.00" y1="432.00" x2="1328.00" y2="448.00" />
<line x1="1296.00" y1="288.00" x2="1296.00" y2="304.00" />
<line x1="1296.00" y1="416.00" x2="1296.00" y2="432.00" />
<line x1="1296.00" y1="1104.00" x2="1296.00" y2="1312.00" />
<line x1="1408.00" y1="288.00" x2="1408.00" y2="304.00" />
<line x1="1408.00" y1="416.00" x2="1408.00" y2="432.00" />
<line x1="1280.00" y1="304.00" x2="1280.00" y2="336.00" />
<line x1="1280.00" y1="384.00" x2="1280.00" y2="416.00" />
<line x1="1280.00" y1="832.00" x2="1280.00" y2="1104.00" />
<line x1="1424.00" y1="304.00" x2="1424.00" y2="336.00" />
<line x1="1424.00" y1="384.00" x2="1424.00" y2="416.00" />
<line x1="80.00" y1="320.00" x2="80.00" y2="336.00" />
<line x1="80.00" y1="512.00" x2="80.00" y2="528.00" />
<line x1="160.00" y1="320.00" x2="160.00" y2="336.00" />
<line x1="160.00" y1="512.00" x2="160.00" y2="528.00" />
<line x1="1024.00" y1="320.00" x2="1024.00" y2="352.00" />
<line x1="1024.00" y1="368.00" x2="1024.00" y2="400.00" />
<line x1="1024.00" y1="1248.00" x2="1024.00" y2="1312.00" />
<line x1="64.00" y1="336.00" x2="64.00" y2="512.00" />
<line x1="176.00" y1="336.00" x2="176.00" y2="352.00" />
<line x1="176.00" y1="368.00" x2="176.00" y2="416.00" />
<line x1="176.00" y1="432.00" x2="176.00" y2="512.00" />
<line x1="224.00" y1="336.00" x2="224.00" y2="352.00" />
<line x1="224.00" y1="368.00" x2="224.00" y2="416.00" />
<line x1="224.00" y1="432.00" x2="224.00" y2="544.00" />
<line x1="1264.00" y1="336.00" x2="1264.00" y2="352.00" />
<line x1="1264.00" y1="368.00" x2="1264.00" y2="384.00" />
<line x1="1264.00" y1="688.00" x2="1264.00" y2="1104.00" />
<line x1="1440.00" y1="336.00" x2="1440.00" y2="384.00" />
<line x1="640.00" y1="368.00" x2="640.00" y2="384.00" />
<line x1="640.00" y1="448.00" x2="640.00" y2="800.00" />
<line x1="640.00" y1="816.00" x2="640.00" y2="848.00" />
<line x1="640.00" y1="1040.00" x2="640.00" y2="1184.00" />
<line x1="640.00" y1="1200.00" x2="640.00" y2="1248.00" />
<line x1="656.00" y1="368.00" x2="656.00" y2="384.00" />
<line x1="656.00" y1="448.00" x2="656.00" y2="592.00" />
<line x1="656.00" y1="608.00" x2="656.00" y2="800.00" />
<line x1="656.00" y1="816.00" x2="656.00" y2="848.00" />
<line x1="656.00" y1="1040.00" x2="656.00" y2="1184.00" />
<line x1="656.00" y1="1200.00" x2="656.00" y2="1264.00" />
<line x1="976.00" y1="368.00" x2="976.00" y2="432.00" />
<line x1="976.00" y1="448.00" x2="976.00" y2="848.00" />
<line x1="992.00" y1="368.00" x2="992.00" y2="432.00" />
<line x1="992.00" y1="448.00" x2="992.00" y2="672.00" />
<line x1="992.00" y1="768.00" x2="992.00" y2="848.00" />
<line x1="512.00" y1="384.00" x2="512.00" y2="432.00" />
<line x1="320.00" y1="544.00" x2="320.00" y2="704.00" />
<line x1="320.00" y1="912.00" x2="320.00" y2="960.00" />
<line x1="320.00" y1="1360.00" x2="320.00" y2="1408.00" />
<line x1="320.00" y1="1424.00" x2="320.00" y2="1472.00" />
<line x1="672.00" y1="560.00" x2="672.00" y2="592.00" />
<line x1="672.00" y1="608.00" x2="672.00" y2="640.00" />
<line x1="672.00" y1="848.00" x2="672.00" y2="864.00" />
<line x1="672.00" y1="1024.00" x2="672.00" y2="1040.00" />
<line x1="800.00" y1="560.00" x2="800.00" y2="640.00" />
<line x1="800.00" y1="672.00" x2="800.00" y2="880.00" />
<line x1="1472.00" y1="688.00" x2="1472.00" y2="832.00" />
<line x1="416.00" y1="720.00" x2="416.00" y2="800.00" />
<line x1="544.00" y1="720.00" x2="544.00" y2="800.00" />
<line x1="1072.00" y1="768.00" x2="1072.00" y2="944.00" />
<line x1="1072.00" y1="960.00" x2="1072.00" y2="976.00" />
<line x1="1072.00" y1="992.00" x2="1072.00" y2="1136.00" />
<line x1="1072.00" y1="1232.00" x2="1072.00" y2="1248.00" />
<line x1="1072.00" y1="1312.00" x2="1072.00" y2="1344.00" />
<line x1="912.00" y1="848.00" x2="912.00" y2="880.00" />
<line x1="912.00" y1="896.00" x2="912.00" y2="912.00" />
<line x1="1040.00" y1="848.00" x2="1040.00" y2="912.00" />
<line x1="576.00" y1="896.00" x2="576.00" y2="944.00" />
<line x1="576.00" y1="960.00" x2="576.00" y2="976.00" />
<line x1="576.00" y1="992.00" x2="576.00" y2="1008.00" />
<line x1="704.00" y1="896.00" x2="704.00" y2="944.00" />
<line x1="704.00" y1="960.00" x2="704.00" y2="976.00" />
<line x1="704.00" y1="992.00" x2="704.00" y2="1008.00" />
<line x1="1248.00" y1="912.00" x2="1248.00" y2="1056.00" />
<line x1="816.00" y1="1136.00" x2="816.00" y2="1184.00" />
<line x1="816.00" y1="1200.00" x2="816.00" y2="1344.00" />
<line x1="944.00" y1="1136.00" x2="944.00" y2="1184.00" />
<line x1="944.00" y1="1200.00" x2="944.00" y2="1344.00" />
<line x1="1008.00" y1="1136.00" x2="1008.00" y2="1184.00" />
<line x1="1008.00" y1="1200.00" x2="1008.00" y2="1232.00" />
<line x1="240.00" y1="1168.00" x2="240.00" y2="1184.00" />
<line x1="240.00" y1="1200.00" x2="240.00" y2="1344.00" />
<line x1="560.00" y1="1264.00" x2="560.00" y2="1424.00" />
<line x1="624.00" y1="1264.00" x2="624.00" y2="1344.00" />
<line x1="624.00" y1="1360.00" x2="624.00" y2="1424.00" />
<line x1="384.00" y1="1360.00" x2="384.00" y2="1472.00" />
  </g>
  <g class="features">
<g data-feature-type="stairsDown"><line data-feature-type="stairsDown" x1="290.24" y1="435.36" x2="301.76" y2="435.36" /><line x1="290.65" y1="437.68" x2="301.35" y2="437.68" /><line x1="291.07" y1="440.00" x2="300.93" y2="440.00" /><line x1="291.48" y1="442.32" x2="300.52" y2="442.32" /><line x1="291.90" y1="444.64" x2="300.10" y2="444.64" /></g>
<g data-feature-type="stairsUp"><line data-feature-type="stairsUp" x1="755.90" y1="147.36" x2="764.10" y2="147.36" /><line x1="755.48" y1="149.68" x2="764.52" y2="149.68" /><line x1="755.07" y1="152.00" x2="764.93" y2="152.00" /><line x1="754.65" y1="154.32" x2="765.35" y2="154.32" /><line x1="754.24" y1="156.64" x2="765.76" y2="156.64" /></g>
<circle data-feature-type="pillar" cx="488.00" cy="264.00" r="3.68" fill="#4f89a8" stroke="none" />
<g data-feature-type="trap"><rect x="452.64" y="292.64" width="6.72" height="6.72" fill="none" /><line x1="452.64" y1="292.64" x2="459.36" y2="299.36" /><line x1="452.64" y1="299.36" x2="459.36" y2="292.64" /></g>
<path data-feature-type="curtain" d="M 470.40 291.84 Q 472.00 294.34 470.40 296.00 Q 472.00 297.66 470.40 300.16" fill="none" /><path d="M 473.60 291.84 Q 472.00 294.34 473.60 296.00 Q 472.00 297.66 473.60 300.16" fill="none" />
<circle data-feature-type="pillar" cx="1112.00" cy="1192.00" r="3.68" fill="#4f89a8" stroke="none" />
<circle data-feature-type="pillar" cx="776.00" cy="136.00" r="3.68" fill="#4f89a8" stroke="none" />
<circle data-feature-type="pillar" cx="776.00" cy="152.00" r="3.68" fill="#4f89a8" stroke="none" />
<g data-feature-type="trap"><rect x="740.64" y="212.64" width="6.72" height="6.72" fill="none" /><line x1="740.64" y1="212.64" x2="747.36" y2="219.36" /><line x1="740.64" y1="219.36" x2="747.36" y2="212.64" /></g>
<circle data-feature-type="pillar" cx="616.00" cy="968.00" r="3.68" fill="#4f89a8" stroke="none" />
<circle data-feature-type="pillar" cx="680.00" cy="968.00" r="3.68" fill="#4f89a8" stroke="none" />
<circle data-feature-type="pillar" cx="616.00" cy="936.00" r="3.68" fill="#4f89a8" stroke="none" />
<g data-feature-type="statue"><circle cx="664.00" cy="904.00" r="3.52" fill="none" /><line x1="661.76" y1="904.00" x2="666.24" y2="904.00" /><line x1="664.00" y1="901.76" x2="664.00" y2="906.24" /><line x1="662.39" y1="902.39" x2="665.61" y2="905.61" /><line x1="662.39" y1="905.61" x2="665.61" y2="902.39" /></g>
<g data-feature-type="coffin"><rect x="677.60" y="916.32" width="4.80" height="7.36" rx="0.80" ry="0.80" fill="none" /><line x1="680.00" y1="917.94" x2="680.00" y2="922.06" /></g>
<circle data-feature-type="pillar" cx="1400.00" cy="776.00" r="3.68" fill="#4f89a8" stroke="none" />
<circle data-feature-type="pillar" cx="1336.00" cy="776.00" r="3.68" fill="#4f89a8" stroke="none" />
<circle data-feature-type="pillar" cx="1352.00" cy="776.00" r="3.68" fill="#4f89a8" stroke="none" />
<circle data-feature-type="pillar" cx="1400.00" cy="744.00" r="3.68" fill="#4f89a8" stroke="none" />
<path data-feature-type="curtain" d="M 1398.40 707.84 Q 1400.00 710.34 1398.40 712.00 Q 1400.00 713.66 1398.40 716.16" fill="none" /><path d="M 1401.60 707.84 Q 1400.00 710.34 1401.60 712.00 Q 1400.00 713.66 1401.60 716.16" fill="none" />
<circle data-feature-type="pillar" cx="120.00" cy="120.00" r="3.68" fill="#4f89a8" stroke="none" />
<circle data-feature-type="pillar" cx="120.00" cy="168.00" r="3.68" fill="#4f89a8" stroke="none" />
<circle data-feature-type="pillar" cx="328.00" cy="424.00" r="3.68" fill="#4f89a8" stroke="none" />
<circle data-feature-type="pillar" cx="328.00" cy="408.00" r="3.68" fill="#4f89a8" stroke="none" />
<circle data-feature-type="pillar" cx="1192.00" cy="216.00" r="3.68" fill="#4f89a8" stroke="none" />
<g data-feature-type="trap"><rect x="1188.64" y="196.64" width="6.72" height="6.72" fill="none" /><line x1="1188.64" y1="196.64" x2="1195.36" y2="203.36" /><line x1="1188.64" y1="203.36" x2="1195.36" y2="196.64" /></g>
<g data-feature-type="chest"><rect x="1125.28" y="198.24" width="5.44" height="3.52" fill="none" /><line x1="1125.28" y1="200.00" x2="1130.72" y2="200.00" /><circle cx="1128.00" cy="200.18" r="0.70" fill="#4f89a8" stroke="none" /></g>
<circle data-feature-type="pillar" cx="296.00" cy="792.00" r="3.68" fill="#4f89a8" stroke="none" />
<circle data-feature-type="pillar" cx="296.00" cy="824.00" r="3.68" fill="#4f89a8" stroke="none" />
<circle data-feature-type="pillar" cx="248.00" cy="824.00" r="3.68" fill="#4f89a8" stroke="none" />
<g data-feature-type="well"><circle cx="264.00" cy="744.00" r="4.00" fill="none" /><circle cx="264.00" cy="744.00" r="2.24" fill="none" /></g>
<circle data-feature-type="pillar" cx="520.00" cy="776.00" r="3.68" fill="#4f89a8" stroke="none" />
<circle data-feature-type="pillar" cx="504.00" cy="776.00" r="3.68" fill="#4f89a8" stroke="none" />
<g data-feature-type="statue"><circle cx="488.00" cy="760.00" r="3.52" fill="none" /><line x1="485.76" y1="760.00" x2="490.24" y2="760.00" /><line x1="488.00" y1="757.76" x2="488.00" y2="762.24" /><line x1="486.39" y1="758.39" x2="489.61" y2="761.61" /><line x1="486.39" y1="761.61" x2="489.61" y2="758.39" /></g>
<path data-feature-type="curtain" d="M 502.40 739.84 Q 504.00 742.34 502.40 744.00 Q 504.00 745.66 502.40 748.16" fill="none" /><path d="M 505.60 739.84 Q 504.00 742.34 505.60 744.00 Q 504.00 745.66 505.60 748.16" fill="none" />
<g data-feature-type="well"><circle cx="1256.00" cy="1192.00" r="4.00" fill="none" /><circle cx="1256.00" cy="1192.00" r="2.24" fill="none" /></g>
<g data-feature-type="trap"><rect x="1268.64" y="1140.64" width="6.72" height="6.72" fill="none" /><line x1="1268.64" y1="1140.64" x2="1275.36" y2="1147.36" /><line x1="1268.64" y1="1147.36" x2="1275.36" y2="1140.64" /></g>
<circle data-feature-type="pillar" cx="584.00" cy="1352.00" r="3.68" fill="#4f89a8" stroke="none" />
<path data-feature-type="curtain" d="M 582.40 1331.84 Q 584.00 1334.34 582.40 1336.00 Q 584.00 1337.66 582.40 1340.16" fill="none" /><path d="M 585.60 1331.84 Q 584.00 1334.34 585.60 1336.00 Q 584.00 1337.66 585.60 1340.16" fill="none" />
<circle data-feature-type="pillar" cx="344.00" cy="1288.00" r="3.68" fill="#4f89a8" stroke="none" />
<circle data-feature-type="pillar" cx="344.00" cy="1240.00" r="3.68" fill="#4f89a8" stroke="none" />
<g data-feature-type="coffin"><rect x="261.60" y="1188.32" width="4.80" height="7.36" rx="0.80" ry="0.80" fill="none" /><line x1="264.00" y1="1189.94" x2="264.00" y2="1194.06" /></g>
<circle data-feature-type="pillar" cx="312.00" cy="232.00" r="3.68" fill="#4f89a8" stroke="none" />
<circle data-feature-type="pillar" cx="760.00" cy="600.00" r="3.68" fill="#4f89a8" stroke="none" />
<path data-feature-type="curtain" d="M 758.40 611.84 Q 760.00 614.34 758.40 616.00 Q 760.00 617.66 758.40 620.16" fill="none" /><path d="M 761.60 611.84 Q 760.00 614.34 761.60 616.00 Q 760.00 617.66 761.60 620.16" fill="none" />
<circle data-feature-type="pillar" cx="872.00" cy="1224.00" r="3.68" fill="#4f89a8" stroke="none" />
<circle data-feature-type="pillar" cx="872.00" cy="1256.00" r="3.68" fill="#4f89a8" stroke="none" />
<circle data-feature-type="pillar" cx="904.00" cy="1256.00" r="3.68" fill="#4f89a8" stroke="none" />
<circle data-feature-type="pillar" cx="856.00" cy="1256.00" r="3.68" fill="#4f89a8" stroke="none" />
<g data-feature-type="trap"><rect x="852.64" y="1156.64" width="6.72" height="6.72" fill="none" /><line x1="852.64" y1="1156.64" x2="859.36" y2="1163.36" /><line x1="852.64" y1="1163.36" x2="859.36" y2="1156.64" /></g>
<g data-feature-type="statue"><circle cx="344.00" cy="1416.00" r="3.52" fill="none" /><line x1="341.76" y1="1416.00" x2="346.24" y2="1416.00" /><line x1="344.00" y1="1413.76" x2="344.00" y2="1418.24" /><line x1="342.39" y1="1414.39" x2="345.61" y2="1417.61" /><line x1="342.39" y1="1417.61" x2="345.61" y2="1414.39" /></g>
<circle data-feature-type="pillar" cx="1096.00" cy="360.00" r="3.68" fill="#4f89a8" stroke="none" />
<g data-feature-type="statue"><circle cx="1064.00" cy="376.00" r="3.52" fill="none" /><line x1="1061.76" y1="376.00" x2="1066.24" y2="376.00" /><line x1="1064.00" y1="373.76" x2="1064.00" y2="378.24" /><line x1="1062.39" y1="374.39" x2="1065.61" y2="377.61" /><line x1="1062.39" y1="377.61" x2="1065.61" y2="374.39" /></g>
<path data-feature-type="curtain" d="M 1094.40 339.84 Q 1096.00 342.34 1094.40 344.00 Q 1096.00 345.66 1094.40 348.16" fill="none" /><path d="M 1097.60 339.84 Q 1096.00 342.34 1097.60 344.00 Q 1096.00 345.66 1097.60 348.16" fill="none" />
<circle data-feature-type="pillar" cx="616.00" cy="424.00" r="3.68" fill="#4f89a8" stroke="none" />
<g data-feature-type="statue"><circle cx="632.00" cy="408.00" r="3.52" fill="none" /><line x1="629.76" y1="408.00" x2="634.24" y2="408.00" /><line x1="632.00" y1="405.76" x2="632.00" y2="410.24" /><line x1="630.39" y1="406.39" x2="633.61" y2="409.61" /><line x1="630.39" y1="409.61" x2="633.61" y2="406.39" /></g>
<circle data-feature-type="pillar" cx="152.00" cy="440.00" r="3.68" fill="#4f89a8" stroke="none" />
<circle data-feature-type="pillar" cx="88.00" cy="408.00" r="3.68" fill="#4f89a8" stroke="none" />
<circle data-feature-type="pillar" cx="152.00" cy="408.00" r="3.68" fill="#4f89a8" stroke="none" />
<g data-feature-type="statue"><circle cx="120.00" cy="488.00" r="3.52" fill="none" /><line x1="117.76" y1="488.00" x2="122.24" y2="488.00" /><line x1="120.00" y1="485.76" x2="120.00" y2="490.24" /><line x1="118.39" y1="486.39" x2="121.61" y2="489.61" /><line x1="118.39" y1="489.61" x2="121.61" y2="486.39" /></g>
<g data-feature-type="statue"><circle cx="1208.00" cy="952.00" r="3.52" fill="none" /><line x1="1205.76" y1="952.00" x2="1210.24" y2="952.00" /><line x1="1208.00" y1="949.76" x2="1208.00" y2="954.24" /><line x1="1206.39" y1="950.39" x2="1209.61" y2="953.61" /><line x1="1206.39" y1="953.61" x2="1209.61" y2="950.39" /></g>
<g data-feature-type="statue"><circle cx="856.00" cy="776.00" r="3.52" fill="none" /><line x1="853.76" y1="776.00" x2="858.24" y2="776.00" /><line x1="856.00" y1="773.76" x2="856.00" y2="778.24" /><line x1="854.39" y1="774.39" x2="857.61" y2="777.61" /><line x1="854.39" y1="777.61" x2="857.61" y2="774.39" /></g>
<circle data-feature-type="pillar" cx="1128.00" cy="1288.00" r="3.68" fill="#4f89a8" stroke="none" />
<circle data-feature-type="pillar" cx="1000.00" cy="888.00" r="3.68" fill="#4f89a8" stroke="none" />
<g data-feature-type="trap"><rect x="932.64" y="884.64" width="6.72" height="6.72" fill="none" /><line x1="932.64" y1="884.64" x2="939.36" y2="891.36" /><line x1="932.64" y1="891.36" x2="939.36" y2="884.64" /></g>
  </g>
  <g class="thresholds">
<rect data-threshold-type="door" x="483.52" y="229.76" width="8.96" height="4.48" fill="#ffffff" stroke="#4f89a8" stroke-width="1.52" />
<rect data-threshold-type="door" x="1155.52" y="1221.76" width="8.96" height="4.48" fill="#ffffff" stroke="#4f89a8" stroke-width="1.52" />
<rect data-threshold-type="door" x="803.52" y="245.76" width="8.96" height="4.48" fill="#ffffff" stroke="#4f89a8" stroke-width="1.52" />
<rect data-threshold-type="door" x="579.52" y="981.76" width="8.96" height="4.48" fill="#ffffff" stroke="#4f89a8" stroke-width="1.52" />
<rect data-threshold-type="door" x="1267.52" y="821.76" width="8.96" height="4.48" fill="#ffffff" stroke="#4f89a8" stroke-width="1.52" />
<rect data-threshold-type="door" x="195.52" y="133.76" width="8.96" height="4.48" fill="#ffffff" stroke="#4f89a8" stroke-width="1.52" />
<rect data-threshold-type="door" x="419.52" y="357.76" width="8.96" height="4.48" fill="#ffffff" stroke="#4f89a8" stroke-width="1.52" />
<rect data-threshold-type="door" x="1171.52" y="181.76" width="8.96" height="4.48" fill="#ffffff" stroke="#4f89a8" stroke-width="1.52" />
<rect data-threshold-type="door" x="307.52" y="821.76" width="8.96" height="4.48" fill="#ffffff" stroke="#4f89a8" stroke-width="1.52" />
<rect data-threshold-type="door" x="483.52" y="805.76" width="8.96" height="4.48" fill="#ffffff" stroke="#4f89a8" stroke-width="1.52" />
<g data-threshold-type="secret"><line x1="1267.52" y1="1112.00" x2="1276.48" y2="1112.00" stroke="#4f89a8" stroke-width="1.31" stroke-dasharray="1.31 1.31" /><text x="1277.56" y="1111.10" font-size="5.44" fill="#4f89a8" font-family="Courier New, monospace" font-weight="700">S</text></g>
<g data-threshold-type="secret"><line x1="1091.52" y1="152.00" x2="1100.48" y2="152.00" stroke="#4f89a8" stroke-width="1.31" stroke-dasharray="1.31 1.31" /><text x="1101.56" y="151.10" font-size="5.44" fill="#4f89a8" font-family="Courier New, monospace" font-weight="700">S</text></g>
<rect data-threshold-type="door" x="611.52" y="1349.76" width="8.96" height="4.48" fill="#ffffff" stroke="#4f89a8" stroke-width="1.52" />
<rect data-threshold-type="door" x="259.52" y="1173.76" width="8.96" height="4.48" fill="#ffffff" stroke="#4f89a8" stroke-width="1.52" />
<rect data-threshold-type="door" x="323.52" y="245.76" width="8.96" height="4.48" fill="#ffffff" stroke="#4f89a8" stroke-width="1.52" />
<rect data-threshold-type="door" x="771.52" y="565.76" width="8.96" height="4.48" fill="#ffffff" stroke="#4f89a8" stroke-width="1.52" />
<g data-threshold-type="locked" stroke="#4f89a8" fill="none" stroke-width="1.52"><rect x="883.52" y="1141.76" width="8.96" height="4.48" fill="#ffffff" /><circle cx="888.00" cy="1140.77" r="1.61" /></g>
<rect data-threshold-type="door" x="995.52" y="725.76" width="8.96" height="4.48" fill="#ffffff" stroke="#4f89a8" stroke-width="1.52" />
<rect data-threshold-type="door" x="1363.52" y="277.76" width="8.96" height="4.48" fill="#ffffff" stroke="#4f89a8" stroke-width="1.52" />
<rect data-threshold-type="door" x="323.52" y="1413.76" width="8.96" height="4.48" fill="#ffffff" stroke="#4f89a8" stroke-width="1.52" />
<rect data-threshold-type="door" x="1123.52" y="389.76" width="8.96" height="4.48" fill="#ffffff" stroke="#4f89a8" stroke-width="1.52" />
<rect data-threshold-type="door" x="515.52" y="437.76" width="8.96" height="4.48" fill="#ffffff" stroke="#4f89a8" stroke-width="1.52" />
<g data-threshold-type="locked" stroke="#4f89a8" fill="none" stroke-width="1.52"><rect x="163.52" y="421.76" width="8.96" height="4.48" fill="#ffffff" /><circle cx="168.00" cy="420.77" r="1.61" /></g>
<rect data-threshold-type="door" x="1091.52" y="965.76" width="8.96" height="4.48" fill="#ffffff" stroke="#4f89a8" stroke-width="1.52" />
<rect data-threshold-type="door" x="803.52" y="869.76" width="8.96" height="4.48" fill="#ffffff" stroke="#4f89a8" stroke-width="1.52" />
<rect data-threshold-type="door" x="1171.52" y="1253.76" width="8.96" height="4.48" fill="#ffffff" stroke="#4f89a8" stroke-width="1.52" />
<rect data-threshold-type="door" x="915.52" y="885.76" width="8.96" height="4.48" fill="#ffffff" stroke="#4f89a8" stroke-width="1.52" />
  </g>
  <g class="labels">
<text x="472.00" y="265.92" text-anchor="middle">1</text>
<text x="1096.00" y="1193.92" text-anchor="middle">2</text>
<text x="776.00" y="169.92" text-anchor="middle">3</text>
<text x="648.00" y="953.92" text-anchor="middle">4</text>
<text x="1368.00" y="761.92" text-anchor="middle">5</text>
<text x="120.00" y="137.92" text-anchor="middle">6</text>
<text x="328.00" y="441.92" text-anchor="middle">7</text>
<text x="1176.00" y="217.92" text-anchor="middle">8</text>
<text x="264.00" y="809.92" text-anchor="middle">9</text>
<text x="488.00" y="777.92" text-anchor="middle">10</text>
<text x="1272.00" y="1209.92" text-anchor="middle">11</text>
<text x="1144.00" y="137.92" text-anchor="middle">12</text>
<text x="600.00" y="1353.92" text-anchor="middle">13</text>
<text x="344.00" y="1257.92" text-anchor="middle">14</text>
<text x="296.00" y="233.92" text-anchor="middle">15</text>
<text x="744.00" y="601.92" text-anchor="middle">16</text>
<text x="888.00" y="1241.92" text-anchor="middle">17</text>
<text x="1080.00" y="729.92" text-anchor="middle">18</text>
<text x="1352.00" y="361.92" text-anchor="middle">19</text>
<text x="360.00" y="1417.92" text-anchor="middle">20</text>
<text x="1080.00" y="361.92" text-anchor="middle">21</text>
<text x="600.00" y="425.92" text-anchor="middle">22</text>
<text x="120.00" y="425.92" text-anchor="middle">23</text>
<text x="1176.00" y="985.92" text-anchor="middle">24</text>
<text x="840.00" y="777.92" text-anchor="middle">25</text>
<text x="1112.00" y="1289.92" text-anchor="middle">26</text>
<text x="984.00" y="889.92" text-anchor="middle">27</text>
  </g>
</svg>