<?xml version="1.0" encoding="UTF-8"?>
<svg xmlns="http://www.w3.org/2000/svg" width="1280" height="1536" viewBox="0 0 1280.00 1536.00" role="img" aria-label="MapIR render: Learned Generated Map 6">
  <defs>
    <style>
      .grid { stroke: #cde2ec; stroke-width: 0.64; opacity: 0.72; }
      .walls { stroke: #6aa7c7; stroke-width: 1.92; fill: none; stroke-linecap: square; }
      .thresholds { fill: none; stroke-linecap: round; }
      .features { stroke: #4f89a8; fill: none; stroke-width: 1.60; stroke-linecap: round; stroke-linejoin: round; }
      .labels { fill: #4f89a8; font-size: 7.20px; font-family: "Courier New", monospace; font-weight: 600; }
    </style>
  </defs>
  <rect x="0" y="0" width="1280.00" height="1536.00" fill="#4393be" />
  <g class="floors">
<rect x="1056.00" y="64.00" width="112.00" height="96.00" fill="#fcfdfe" />
<rect x="896.00" y="96.00" width="64.00" height="144.00" fill="#fcfdfe" />
<rect x="352.00" y="112.00" width="544.00" height="16.00" fill="#fcfdfe" />
<rect x="960.00" y="112.00" width="96.00" height="16.00" fill="#fcfdfe" />
<rect x="352.00" y="128.00" width="16.00" height="1040.00" fill="#fcfdfe" />
<rect x="752.00" y="128.00" width="16.00" height="400.00" fill="#fcfdfe" />
<rect x="160.00" y="160.00" width="192.00" height="16.00" fill="#fcfdfe" />
<rect x="368.00" y="160.00" width="384.00" height="16.00" fill="#fcfdfe" />
<rect x="768.00" y="160.00" width="128.00" height="16.00" fill="#fcfdfe" />
<rect x="1152.00" y="160.00" width="16.00" height="1168.00" fill="#fcfdfe" />
<rect x="160.00" y="176.00" width="16.00" height="720.00" fill="#fcfdfe" />
<rect x="656.00" y="176.00" width="96.00" height="80.00" fill="#fcfdfe" />
<rect x="768.00" y="176.00" width="48.00" height="80.00" fill="#fcfdfe" />
<rect x="1104.00" y="176.00" width="48.00" height="160.00" fill="#fcfdfe" />
<rect x="1168.00" y="176.00" width="32.00" height="160.00" fill="#fcfdfe" />
<rect x="560.00" y="208.00" width="96.00" height="16.00" fill="#fcfdfe" />
<rect x="320.00" y="224.00" width="32.00" height="80.00" fill="#fcfdfe" />
<rect x="368.00" y="224.00" width="32.00" height="80.00" fill="#fcfdfe" />
<rect x="560.00" y="224.00" width="16.00" height="1024.00" fill="#fcfdfe" />
<rect x="688.00" y="256.00" width="16.00" height="992.00" fill="#fcfdfe" />
<rect x="320.00" y="304.00" width="16.00" height="1120.00" fill="#fcfdfe" />
<rect x="368.00" y="320.00" width="112.00" height="160.00" fill="#fcfdfe" />
<rect x="976.00" y="320.00" width="64.00" height="96.00" fill="#fcfdfe" />
<rect x="544.00" y="352.00" width="16.00" height="384.00" fill="#fcfdfe" />
<rect x="576.00" y="352.00" width="112.00" height="16.00" fill="#fcfdfe" />
<rect x="704.00" y="352.00" width="48.00" height="176.00" fill="#fcfdfe" />
<rect x="768.00" y="352.00" width="208.00" height="16.00" fill="#fcfdfe" />
<rect x="672.00" y="368.00" width="16.00" height="160.00" fill="#fcfdfe" />
<rect x="768.00" y="368.00" width="64.00" height="160.00" fill="#fcfdfe" />
<rect x="112.00" y="384.00" width="48.00" height="144.00" fill="#fcfdfe" />
<rect x="176.00" y="384.00" width="32.00" height="144.00" fill="#fcfdfe" />
<rect x="480.00" y="400.00" width="64.00" height="16.00" fill="#fcfdfe" />
<rect x="576.00" y="400.00" width="96.00" height="16.00" fill="#fcfdfe" />
<rect x="832.00" y="400.00" width="144.00" height="16.00" fill="#fcfdfe" />
<rect x="1040.00" y="400.00" width="112.00" height="16.00" fill="#fcfdfe" />
<rect x="1168.00" y="400.00" width="16.00" height="928.00" fill="#fcfdfe" />
<rect x="208.00" y="432.00" width="112.00" height="16.00" fill="#fcfdfe" />
<rect x="336.00" y="432.00" width="16.00" height="16.00" fill="#fcfdfe" />
<rect x="480.00" y="432.00" width="64.00" height="16.00" fill="#fcfdfe" />
<rect x="576.00" y="432.00" width="96.00" height="16.00" fill="#fcfdfe" />
<rect x="832.00" y="432.00" width="240.00" height="16.00" fill="#fcfdfe" />
<rect x="1056.00" y="448.00" width="16.00" height="800.00" fill="#fcfdfe" />
<rect x="416.00" y="480.00" width="16.00" height="944.00" fill="#fcfdfe" />
<rect x="448.00" y="480.00" width="16.00" height="768.00" fill="#fcfdfe" />
<rect x="1024.00" y="480.00" width="32.00" height="128.00" fill="#fcfdfe" />
<rect x="1072.00" y="480.00" width="32.00" height="128.00" fill="#fcfdfe" />
<rect x="1008.00" y="496.00" width="16.00" height="96.00" fill="#fcfdfe" />
<rect x="1104.00" y="496.00" width="16.00" height="96.00" fill="#fcfdfe" />
<rect x="992.00" y="512.00" width="16.00" height="64.00" fill="#fcfdfe" />
<rect x="1120.00" y="512.00" width="16.00" height="64.00" fill="#fcfdfe" />
<rect x="144.00" y="528.00" width="16.00" height="704.00" fill="#fcfdfe" />
<rect x="496.00" y="576.00" width="48.00" height="144.00" fill="#fcfdfe" />
<rect x="576.00" y="576.00" width="32.00" height="144.00" fill="#fcfdfe" />
<rect x="752.00" y="576.00" width="32.00" height="176.00" fill="#fcfdfe" />
<rect x="480.00" y="592.00" width="16.00" height="128.00" fill="#fcfdfe" />
<rect x="608.00" y="592.00" width="16.00" height="128.00" fill="#fcfdfe" />
<rect x="736.00" y="592.00" width="16.00" height="144.00" fill="#fcfdfe" />
<rect x="784.00" y="592.00" width="16.00" height="816.00" fill="#fcfdfe" />
<rect x="720.00" y="608.00" width="16.00" height="112.00" fill="#fcfdfe" />
<rect x="800.00" y="608.00" width="16.00" height="112.00" fill="#fcfdfe" />
<rect x="368.00" y="640.00" width="48.00" height="16.00" fill="#fcfdfe" />
<rect x="432.00" y="640.00" width="16.00" height="16.00" fill="#fcfdfe" />
<rect x="464.00" y="640.00" width="16.00" height="16.00" fill="#fcfdfe" />
<rect x="624.00" y="640.00" width="64.00" height="16.00" fill="#fcfdfe" />
<rect x="704.00" y="640.00" width="16.00" height="32.00" fill="#fcfdfe" />
<rect x="992.00" y="640.00" width="64.00" height="128.00" fill="#fcfdfe" />
<rect x="816.00" y="656.00" width="16.00" height="16.00" fill="#fcfdfe" />
<rect x="96.00" y="688.00" width="48.00" height="128.00" fill="#fcfdfe" />
<rect x="224.00" y="704.00" width="96.00" height="16.00" fill="#fcfdfe" />
<rect x="336.00" y="704.00" width="16.00" height="16.00" fill="#fcfdfe" />
<rect x="368.00" y="704.00" width="48.00" height="16.00" fill="#fcfdfe" />
<rect x="432.00" y="704.00" width="16.00" height="16.00" fill="#fcfdfe" />
<rect x="464.00" y="704.00" width="16.00" height="16.00" fill="#fcfdfe" />
<rect x="624.00" y="704.00" width="64.00" height="16.00" fill="#fcfdfe" />
<rect x="704.00" y="704.00" width="16.00" height="16.00" fill="#fcfdfe" />
<rect x="816.00" y="704.00" width="176.00" height="16.00" fill="#fcfdfe" />
<rect x="224.00" y="720.00" width="16.00" height="704.00" fill="#fcfdfe" />
<rect x="176.00" y="752.00" width="48.00" height="16.00" fill="#fcfdfe" />
<rect x="240.00" y="752.00" width="80.00" height="16.00" fill="#fcfdfe" />
<rect x="336.00" y="752.00" width="16.00" height="64.00" fill="#fcfdfe" />
<rect x="368.00" y="752.00" width="48.00" height="64.00" fill="#fcfdfe" />
<rect x="432.00" y="752.00" width="16.00" height="16.00" fill="#fcfdfe" />
<rect x="464.00" y="752.00" width="96.00" height="16.00" fill="#fcfdfe" />
<rect x="576.00" y="752.00" width="112.00" height="16.00" fill="#fcfdfe" />
<rect x="768.00" y="752.00" width="16.00" height="112.00" fill="#fcfdfe" />
<rect x="608.00" y="768.00" width="16.00" height="640.00" fill="#fcfdfe" />
<rect x="1024.00" y="768.00" width="16.00" height="576.00" fill="#fcfdfe" />
<rect x="432.00" y="784.00" width="16.00" height="16.00" fill="#fcfdfe" />
<rect x="464.00" y="784.00" width="96.00" height="16.00" fill="#fcfdfe" />
<rect x="576.00" y="784.00" width="32.00" height="144.00" fill="#fcfdfe" />
<rect x="624.00" y="784.00" width="64.00" height="128.00" fill="#fcfdfe" />
<rect x="704.00" y="784.00" width="64.00" height="16.00" fill="#fcfdfe" />
<rect x="800.00" y="784.00" width="224.00" height="16.00" fill="#fcfdfe" />
<rect x="1040.00" y="784.00" width="16.00" height="16.00" fill="#fcfdfe" />
<rect x="1072.00" y="784.00" width="80.00" height="16.00" fill="#fcfdfe" />
<rect x="544.00" y="800.00" width="16.00" height="112.00" fill="#fcfdfe" />
<rect x="944.00" y="800.00" width="16.00" height="496.00" fill="#fcfdfe" />
<rect x="384.00" y="848.00" width="32.00" height="80.00" fill="#fcfdfe" />
<rect x="432.00" y="848.00" width="16.00" height="80.00" fill="#fcfdfe" />
<rect x="464.00" y="848.00" width="48.00" height="80.00" fill="#fcfdfe" />
<rect x="528.00" y="848.00" width="16.00" height="16.00" fill="#fcfdfe" />
<rect x="704.00" y="848.00" width="64.00" height="16.00" fill="#fcfdfe" />
<rect x="800.00" y="848.00" width="144.00" height="16.00" fill="#fcfdfe" />
<rect x="176.00" y="880.00" width="48.00" height="16.00" fill="#fcfdfe" />
<rect x="240.00" y="880.00" width="80.00" height="16.00" fill="#fcfdfe" />
<rect x="336.00" y="880.00" width="16.00" height="16.00" fill="#fcfdfe" />
<rect x="368.00" y="880.00" width="16.00" height="16.00" fill="#fcfdfe" />
<rect x="624.00" y="912.00" width="48.00" height="16.00" fill="#fcfdfe" />
<rect x="624.00" y="976.00" width="64.00" height="128.00" fill="#fcfdfe" />
<rect x="704.00" y="976.00" width="80.00" height="128.00" fill="#fcfdfe" />
<rect x="288.00" y="992.00" width="32.00" height="176.00" fill="#fcfdfe" />
<rect x="336.00" y="992.00" width="16.00" height="176.00" fill="#fcfdfe" />
<rect x="368.00" y="992.00" width="48.00" height="176.00" fill="#fcfdfe" />
<rect x="432.00" y="1040.00" width="16.00" height="16.00" fill="#fcfdfe" />
<rect x="464.00" y="1040.00" width="96.00" height="16.00" fill="#fcfdfe" />
<rect x="576.00" y="1040.00" width="32.00" height="16.00" fill="#fcfdfe" />
<rect x="432.00" y="1072.00" width="16.00" height="16.00" fill="#fcfdfe" />
<rect x="464.00" y="1072.00" width="96.00" height="16.00" fill="#fcfdfe" />
<rect x="576.00" y="1072.00" width="32.00" height="16.00" fill="#fcfdfe" />
<rect x="800.00" y="1072.00" width="144.00" height="16.00" fill="#fcfdfe" />
<rect x="960.00" y="1072.00" width="64.00" height="16.00" fill="#fcfdfe" />
<rect x="1040.00" y="1072.00" width="16.00" height="16.00" fill="#fcfdfe" />
<rect x="1072.00" y="1072.00" width="80.00" height="16.00" fill="#fcfdfe" />
<rect x="80.00" y="1136.00" width="64.00" height="96.00" fill="#fcfdfe" />
<rect x="160.00" y="1136.00" width="48.00" height="96.00" fill="#fcfdfe" />
<rect x="528.00" y="1152.00" width="32.00" height="96.00" fill="#fcfdfe" />
<rect x="576.00" y="1152.00" width="32.00" height="96.00" fill="#fcfdfe" />
<rect x="1088.00" y="1152.00" width="64.00" height="176.00" fill="#fcfdfe" />
<rect x="1184.00" y="1152.00" width="64.00" height="176.00" fill="#fcfdfe" />
<rect x="896.00" y="1168.00" width="48.00" height="128.00" fill="#fcfdfe" />
<rect x="960.00" y="1168.00" width="32.00" height="128.00" fill="#fcfdfe" />
<rect x="208.00" y="1184.00" width="16.00" height="16.00" fill="#fcfdfe" />
<rect x="240.00" y="1184.00" width="80.00" height="16.00" fill="#fcfdfe" />
<rect x="336.00" y="1184.00" width="80.00" height="16.00" fill="#fcfdfe" />
<rect x="432.00" y="1184.00" width="16.00" height="16.00" fill="#fcfdfe" />
<rect x="464.00" y="1184.00" width="64.00" height="16.00" fill="#fcfdfe" />
<rect x="624.00" y="1184.00" width="64.00" height="16.00" fill="#fcfdfe" />
<rect x="704.00" y="1184.00" width="80.00" height="16.00" fill="#fcfdfe" />
<rect x="800.00" y="1184.00" width="96.00" height="16.00" fill="#fcfdfe" />
<rect x="992.00" y="1184.00" width="32.00" height="16.00" fill="#fcfdfe" />
<rect x="1040.00" y="1184.00" width="16.00" height="16.00" fill="#fcfdfe" />
<rect x="272.00" y="1200.00" width="48.00" height="64.00" fill="#fcfdfe" />
<rect x="336.00" y="1200.00" width="32.00" height="64.00" fill="#fcfdfe" />
<rect x="368.00" y="1216.00" width="48.00" height="16.00" fill="#fcfdfe" />
<rect x="432.00" y="1216.00" width="16.00" height="16.00" fill="#fcfdfe" />
<rect x="464.00" y="1216.00" width="64.00" height="32.00" fill="#fcfdfe" />
<rect x="624.00" y="1216.00" width="64.00" height="32.00" fill="#fcfdfe" />
<rect x="704.00" y="1216.00" width="80.00" height="32.00" fill="#fcfdfe" />
<rect x="800.00" y="1216.00" width="96.00" height="32.00" fill="#fcfdfe" />
<rect x="992.00" y="1216.00" width="32.00" height="32.00" fill="#fcfdfe" />
<rect x="1040.00" y="1216.00" width="16.00" height="32.00" fill="#fcfdfe" />
<rect x="1072.00" y="1232.00" width="16.00" height="16.00" fill="#fcfdfe" />
<rect x="752.00" y="1248.00" width="32.00" height="160.00" fill="#fcfdfe" />
<rect x="800.00" y="1248.00" width="16.00" height="160.00" fill="#fcfdfe" />
<rect x="144.00" y="1280.00" width="80.00" height="144.00" fill="#fcfdfe" />
<rect x="240.00" y="1280.00" width="64.00" height="144.00" fill="#fcfdfe" />
<rect x="560.00" y="1280.00" width="48.00" height="128.00" fill="#fcfdfe" />
<rect x="624.00" y="1280.00" width="32.00" height="128.00" fill="#fcfdfe" />
<rect x="336.00" y="1296.00" width="80.00" height="128.00" fill="#fcfdfe" />
<rect x="432.00" y="1296.00" width="16.00" height="128.00" fill="#fcfdfe" />
<rect x="816.00" y="1328.00" width="208.00" height="16.00" fill="#fcfdfe" />
<rect x="448.00" y="1344.00" width="112.00" height="16.00" fill="#fcfdfe" />
  </g>
  <g class="grid">
<line x1="0.00" y1="0" x2="0.00" y2="1536.00" />
<line x1="16.00" y1="0" x2="16.00" y2="1536.00" />
<line x1="32.00" y1="0" x2="32.00" y2="1536.00" />
<line x1="48.00" y1="0" x2="48.00" y2="1536.00" />
<line x1="64.00" y1="0" x2="64.00" y2="1536.00" />
<line x1="80.00" y1="0" x2="80.00" y2="1536.00" />
<line x1="96.00" y1="0" x2="96.00" y2="1536.00" />
<line x1="112.00" y1="0" x2="112.00" y2="1536.00" />
<line x1="128.00" y1="0" x2="128.00" y2="1536.00" />
<line x1="144.00" y1="0" x2="144.00" y2="1536.00" />
<line x1="160.00" y1="0" x2="160.00" y2="1536.00" />
<line x1="176.00" y1="0" x2="176.00" y2="1536.00" />
<line x1="192.00" y1="0" x2="192.00" y2="1536.00" />
<line x1="208.00" y1="0" x2="208.00" y2="1536.00" />
<line x1="224.00" y1="0" x2="224.00" y2="1536.00" />
<line x1="240.00" y1="0" x2="240.00" y2="1536.00" />
<line x1="256.00" y1="0" x2="256.00" y2="1536.00" />
<line x1="272.00" y1="0" x2="272.00" y2="1536.00" />
<line x1="288.00" y1="0" x2="288.00" y2="1536.00" />
<line x1="304.00" y1="0" x2="304.00" y2="1536.00" />
<line x1="320.00" y1="0" x2="320.00" y2="1536.00" />
<line x1="336.00" y1="0" x2="336.00" y2="1536.00" />
<line x1="352.00" y1="0" x2="352.00" y2="1536.00" />
<line x1="368.00" y1="0" x2="368.00" y2="1536.00" />
<line x1="384.00" y1="0" x2="384.00" y2="1536.00" />
<line x1="400.00" y1="0" x2="400.00" y2="1536.00" />
<line x1="416.00" y1="0" x2="416.00" y2="1536.00" />
<line x1="432.00" y1="0" x2="432.00" y2="1536.00" />
<line x1="448.00" y1="0" x2="448.00" y2="1536.00" />
<line x1="464.00" y1="0" x2="464.00" y2="1536.00" />
<line x1="480.00" y1="0" x2="480.00" y2="1536.00" />
<line x1="496.00" y1="0" x2="496.00" y2="1536.00" />
<line x1="512.00" y1="0" x2="512.00" y2="1536.00" />
<line x1="528.00" y1="0" x2="528.00" y2="1536.00" />
<line x1="544.00" y1="0" x2="544.00" y2="1536.00" />
<line x1="560.00" y1="0" x2="560.00" y2="1536.00" />
<line x1="576.00" y1="0" x2="576.00" y2="1536.00" />
<line x1="592.00" y1="0" x2="592.00" y2="1536.00" />
<line x1="608.00" y1="0" x2="608.00" y2="1536.00" />
<line x1="624.00" y1="0" x2="624.00" y2="1536.00" />
<line x1="640.00" y1="0" x2="640.00" y2="1536.00" />
<line x1="656.00" y1="0" x2="656.00" y2="1536.00" />
<line x1="672.00" y1="0" x2="672.00" y2="1536.00" />
<line x1="688.00" y1="0" x2="688.00" y2="1536.00" />
<line x1="704.00" y1="0" x2="704.00" y2="1536.00" />
<line x1="720.00" y1="0" x2="720.00" y2="1536.00" />
<line x1="736.00" y1="0" x2="736.00" y2="1536.00" />
<line x1="752.00" y1="0" x2="752.00" y2="1536.00" />
<line x1="768.00" y1="0" x2="768.00" y2="1536.00" />
<line x1="784.00" y1="0" x2="784.00" y2="1536.00" />
<line x1="800.00" y1="0" x2="800.00" y2="1536.00" />
<line x1="816.00" y1="0" x2="816.00" y2="1536.00" />
<line x1="832.00" y1="0" x2="832.00" y2="1536.00" />
<line x1="848.00" y1="0" x2="848.00" y2="1536.00" />
<line x1="864.00" y1="0" x2="864.00" y2="1536.00" />
<line x1="880.00" y1="0" x2="880.00" y2="1536.00" />
<line x1="896.00" y1="0" x2="896.00" y2="1536.00" />
<line x1="912.00" y1="0" x2="912.00" y2="1536.00" />
<line x1="928.00" y1="0" x2="928.00" y2="1536.00" />
<line x1="944.00" y1="0" x2="944.00" y2="1536.00" />
<line x1="960.00" y1="0" x2="960.00" y2="1536.00" />
<line x1="976.00" y1="0" x2="976.00" y2="1536.00" />
<line x1="992.00" y1="0" x2="992.00" y2="1536.00" />
<line x1="1008.00" y1="0" x2="1008.00" y2="1536.00" />
<line x1="1024.00" y1="0" x2="1024.00" y2="1536.00" />
<line x1="1040.00" y1="0" x2="1040.00" y2="1536.00" />
<line x1="1056.00" y1="0" x2="1056.00" y2="1536.00" />
<line x1="1072.00" y1="0" x2="1072.00" y2="1536.00" />
<line x1="1088.00" y1="0" x2="1088.00" y2="1536.00" />
<line x1="1104.00" y1="0" x2="1104.00" y2="1536.00" />
<line x1="1120.00" y1="0" x2="1120.00" y2="1536.00" />
<line x1="1136.00" y1="0" x2="1136.00" y2="1536.00" />
<line x1="1152.00" y1="0" x2="1152.00" y2="1536.00" />
<line x1="1168.00" y1="0" x2="1168.00" y2="1536.00" />
<line x1="1184.00" y1="0" x2="1184.00" y2="1536.00" />
<line x1="1200.00" y1="0" x2="1200.00" y2="1536.00" />
<line x1="1216.00" y1="0" x2="1216.00" y2="1536.00" />
<line x1="1232.00" y1="0" x2="1232.00" y2="1536.00" />
<line x1="1248.00" y1="0" x2="1248.00" y2="1536.00" />
<line x1="1264.00" y1="0" x2="1264.00" y2="1536.00" />
<line x1="1280.00" y1="0" x2="1280.00" y2="1536.00" />
<line x1="0" y1="0.00" x2="1280.00" y2="0.00" />
<line x1="0" y1="16.00" x2="1280.00" y2="16.00" />
<line x1="0" y1="32.00" x2="1280.00" y2="32.00" />
<line x1="0" y1="48.00" x2="1280.00" y2="48.00" />
<line x1="0" y1="64.00" x2="1280.00" y2="64.00" />
<line x1="0" y1="80.00" x2="1280.00" y2="80.00" />
<line x1="0" y1="96.00" x2="1280.00" y2="96.00" />
<line x1="0" y1="112.00" x2="1280.00" y2="112.00" />
<line x1="0" y1="128.00" x2="1280.00" y2="128.00" />
<line x1="0" y1="144.00" x2="1280.00" y2="144.00" />
<line x1="0" y1="160.00" x2="1280.00" y2="160.00" />
<line x1="0" y1="176.00" x2="1280.00" y2="176.00" />
<line x1="0" y1="192.00" x2="1280.00" y2="192.00" />
<line x1="0" y1="208.00" x2="1280.00" y2="208.00" />
<line x1="0" y1="224.00" x2="1280.00" y2="224.00" />
<line x1="0" y1="240.00" x2="1280.00" y2="240.00" />
<line x1="0" y1="256.00" x2="1280.00" y2="256.00" />
<line x1="0" y1="272.00" x2="1280.00" y2="272.00" />
<line x1="0" y1="288.00" x2="1280.00" y2="288.00" />
<line x1="0" y1="304.00" x2="1280.00" y2="304.00" />
<line x1="0" y1="320.00" x2="1280.00" y2="320.00" />
<line x1="0" y1="336.00" x2="1280.00" y2="336.00" />
<line x1="0" y1="352.00" x2="1280.00" y2="352.00" />
<line x1="0" y1="368.00" x2="1280.00" y2="368.00" />
<line x1="0" y1="384.00" x2="1280.00" y2="384.00" />
<line x1="0" y1="400.00" x2="1280.00" y2="400.00" />
<line x1="0" y1="416.00" x2="1280.00" y2="416.00" />
<line x1="0" y1="432.00" x2="1280.00" y2="432.00" />
<line x1="0" y1="448.00" x2="1280.00" y2="448.00" />
<line x1="0" y1="464.00" x2="1280.00" y2="464.00" />
<line x1="0" y1="480.00" x2="1280.00" y2="480.00" />
<line x1="0" y1="496.00" x2="1280.00" y2="496.00" />
<line x1="0" y1="512.00" x2="1280.00" y2="512.00" />
<line x1="0" y1="528.00" x2="1280.00" y2="528.00" />
<line x1="0" y1="544.00" x2="1280.00" y2="544.00" />
<line x1="0" y1="560.00" x2="1280.00" y2="560.00" />
<line x1="0" y1="576.00" x2="1280.00" y2="576.00" />
<line x1="0" y1="592.00" x2="1280.00" y2="592.00" />
<line x1="0" y1="608.00" x2="1280.00" y2="608.00" />
<line x1="0" y1="624.00" x2="1280.00" y2="624.00" />
<line x1="0" y1="640.00" x2="1280.00" y2="640.00" />
<line x1="0" y1="656.00" x2="1280.00" y2="656.00" />
<line x1="0" y1="672.00" x2="1280.00" y2="672.00" />
<line x1="0" y1="688.00" x2="1280.00" y2="688.00" />
<line x1="0" y1="704.00" x2="1280.00" y2="704.00" />
<line x1="0" y1="720.00" x2="1280.00" y2="720.00" />
<line x1="0" y1="736.00" x2="1280.00" y2="736.00" />
<line x1="0" y1="752.00" x2="1280.00" y2="752.00" />
<line x1="0" y1="768.00" x2="1280.00" y2="768.00" />
<line x1="0" y1="784.00" x2="1280.00" y2="784.00" />
<line x1="0" y1="800.00" x2="1280.00" y2="800.00" />
<line x1="0" y1="816.00" x2="1280.00" y2="816.00" />
<line x1="0" y1="832.00" x2="1280.00" y2="832.00" />
<line x1="0" y1="848.00" x2="1280.00" y2="848.00" />
<line x1="0" y1="864.00" x2="1280.00" y2="864.00" />
<line x1="0" y1="880.00" x2="1280.00" y2="880.00" />
<line x1="0" y1="896.00" x2="1280.00" y2="896.00" />
<line x1="0" y1="912.00" x2="1280.00" y2="912.00" />
<line x1="0" y1="928.00" x2="1280.00" y2="928.00" />
<line x1="0" y1="944.00" x2="1280.00" y2="944.00" />
<line x1="0" y1="960.00" x2="1280.00" y2="960.00" />
<line x1="0" y1="976.00" x2="1280.00" y2="976.00" />
<line x1="0" y1="992.00" x2="1280.00" y2="992.00" />
<line x1="0" y1="1008.00" x2="1280.00" y2="1008.00" />
<line x1="0" y1="1024.00" x2="1280.00" y2="1024.00" />
<line x1="0" y1="1040.00" x2="1280.00" y2="1040.00" />
<line x1="0" y1="1056.00" x2="1280.00" y2="1056.00" />
<line x1="0" y1="1072.00" x2="1280.00" y2="1072.00" />
<line x1="0" y1="1088.00" x2="1280.00" y2="1088.00" />
<line x1="0" y1="1104.00" x2="1280.00" y2="1104.00" />
<line x1="0" y1="1120.00" x2="1280.00" y2="1120.00" />
<line x1="0" y1="1136.00" x2="1280.00" y2="1136.00" />
<line x1="0" y1="1152.00" x2="1280.00" y2="1152.00" />
<line x1="0" y1="1168.00" x2="1280.00" y2="1168.00" />
<line x1="0" y1="1184.00" x2="1280.00" y2="1184.00" />
<line x1="0" y1="1200.00" x2="1280.00" y2="1200.00" />
<line x1="0" y1="1216.00" x2="1280.00" y2="1216.00" />
<line x1="0" y1="1232.00" x2="1280.00" y2="1232.00" />
<line x1="0" y1="1248.00" x2="1280.00" y2="1248.00" />
<line x1="0" y1="1264.00" x2="1280.00" y2="1264.00" />
<line x1="0" y1="1280.00" x2="1280.00" y2="1280.00" />
<line x1="0" y1="1296.00" x2="1280.00" y2="1296.00" />
<line x1="0" y1="1312.00" x2="1280.00" y2="1312.00" />
<line x1="0" y1="1328.00" x2="1280.00" y2="1328.00" />
<line x1="0" y1="1344.00" x2="1280.00" y2="1344.00" />
<line x1="0" y1="1360.00" x2="1280.00" y2="1360.00" />
<line x1="0" y1="1376.00" x2="1280.00" y2="1376.00" />
<line x1="0" y1="1392.00" x2="1280.00" y2="1392.00" />
<line x1="0" y1="1408.00" x2="1280.00" y2="1408.00" />
<line x1="0" y1="1424.00" x2="1280.00" y2="1424.00" />
<line x1="0" y1="1440.00" x2="1280.00" y2="1440.00" />
<line x1="0" y1="1456.00" x2="1280.00" y2="1456.00" />
<line x1="0" y1="1472.00" x2="1280.00" y2="1472.00" />
<line x1="0" y1="1488.00" x2="1280.00" y2="1488.00" />
<line x1="0" y1="1504.00" x2="1280.00" y2="1504.00" />
<line x1="0" y1="1520.00" x2="1280.00" y2="1520.00" />
<line x1="0" y1="1536.00" x2="1280.00" y2="1536.00" />
  </g>
  <g class="walls">
<line x1="1056.00" y1="64.00" x2="1168.00" y2="64.00" />
<line x1="896.00" y1="96.00" x2="960.00" y2="96.00" />
<line x1="352.00" y1="112.00" x2="896.00" y2="112.00" />
<line x1="960.00" y1="112.00" x2="1056.00" y2="112.00" />
<line x1="368.00" y1="128.00" x2="752.00" y2="128.00" />
<line x1="768.00" y1="128.00" x2="896.00" y2="128.00" />
<line x1="960.00" y1="128.00" x2="1056.00" y2="128.00" />
<line x1="160.00" y1="160.00" x2="352.00" y2="160.00" />
<line x1="368.00" y1="160.00" x2="752.00" y2="160.00" />
<line x1="768.00" y1="160.00" x2="896.00" y2="160.00" />
<line x1="1056.00" y1="160.00" x2="1152.00" y2="160.00" />
<line x1="176.00" y1="176.00" x2="352.00" y2="176.00" />
<line x1="368.00" y1="176.00" x2="656.00" y2="176.00" />
<line x1="816.00" y1="176.00" x2="896.00" y2="176.00" />
<line x1="1104.00" y1="176.00" x2="1152.00" y2="176.00" />
<line x1="1168.00" y1="176.00" x2="1200.00" y2="176.00" />
<line x1="560.00" y1="208.00" x2="656.00" y2="208.00" />
<line x1="320.00" y1="224.00" x2="352.00" y2="224.00" />
<line x1="368.00" y1="224.00" x2="400.00" y2="224.00" />
<line x1="576.00" y1="224.00" x2="656.00" y2="224.00" />
<line x1="896.00" y1="240.00" x2="960.00" y2="240.00" />
<line x1="656.00" y1="256.00" x2="688.00" y2="256.00" />
<line x1="704.00" y1="256.00" x2="752.00" y2="256.00" />
<line x1="768.00" y1="256.00" x2="816.00" y2="256.00" />
<line x1="336.00" y1="304.00" x2="352.00" y2="304.00" />
<line x1="368.00" y1="304.00" x2="400.00" y2="304.00" />
<line x1="368.00" y1="320.00" x2="480.00" y2="320.00" />
<line x1="976.00" y1="320.00" x2="1040.00" y2="320.00" />
<line x1="1104.00" y1="336.00" x2="1152.00" y2="336.00" />
<line x1="1168.00" y1="336.00" x2="1200.00" y2="336.00" />
<line x1="544.00" y1="352.00" x2="560.00" y2="352.00" />
<line x1="576.00" y1="352.00" x2="688.00" y2="352.00" />
<line x1="704.00" y1="352.00" x2="752.00" y2="352.00" />
<line x1="768.00" y1="352.00" x2="976.00" y2="352.00" />
<line x1="576.00" y1="368.00" x2="672.00" y2="368.00" />
<line x1="832.00" y1="368.00" x2="976.00" y2="368.00" />
<line x1="112.00" y1="384.00" x2="160.00" y2="384.00" />
<line x1="176.00" y1="384.00" x2="208.00" y2="384.00" />
<line x1="480.00" y1="400.00" x2="544.00" y2="400.00" />
<line x1="576.00" y1="400.00" x2="672.00" y2="400.00" />
<line x1="832.00" y1="400.00" x2="976.00" y2="400.00" />
<line x1="1040.00" y1="400.00" x2="1152.00" y2="400.00" />
<line x1="1168.00" y1="400.00" x2="1184.00" y2="400.00" />
<line x1="480.00" y1="416.00" x2="544.00" y2="416.00" />
<line x1="576.00" y1="416.00" x2="672.00" y2="416.00" />
<line x1="832.00" y1="416.00" x2="1152.00" y2="416.00" />
<line x1="208.00" y1="432.00" x2="320.00" y2="432.00" />
<line x1="336.00" y1="432.00" x2="352.00" y2="432.00" />
<line x1="480.00" y1="432.00" x2="544.00" y2="432.00" />
<line x1="576.00" y1="432.00" x2="672.00" y2="432.00" />
<line x1="832.00" y1="432.00" x2="1072.00" y2="432.00" />
<line x1="208.00" y1="448.00" x2="320.00" y2="448.00" />
<line x1="336.00" y1="448.00" x2="352.00" y2="448.00" />
<line x1="480.00" y1="448.00" x2="544.00" y2="448.00" />
<line x1="576.00" y1="448.00" x2="672.00" y2="448.00" />
<line x1="832.00" y1="448.00" x2="1056.00" y2="448.00" />
<line x1="368.00" y1="480.00" x2="416.00" y2="480.00" />
<line x1="432.00" y1="480.00" x2="448.00" y2="480.00" />
<line x1="464.00" y1="480.00" x2="480.00" y2="480.00" />
<line x1="1024.00" y1="480.00" x2="1056.00" y2="480.00" />
<line x1="1072.00" y1="480.00" x2="1104.00" y2="480.00" />
<line x1="1008.00" y1="496.00" x2="1024.00" y2="496.00" />
<line x1="1104.00" y1="496.00" x2="1120.00" y2="496.00" />
<line x1="112.00" y1="528.00" x2="144.00" y2="528.00" />
<line x1="176.00" y1="528.00" x2="208.00" y2="528.00" />
<line x1="672.00" y1="528.00" x2="688.00" y2="528.00" />
<line x1="704.00" y1="528.00" x2="832.00" y2="528.00" />
<line x1="992.00" y1="512.00" x2="1008.00" y2="512.00" />
<line x1="1120.00" y1="512.00" x2="1136.00" y2="512.00" />
<line x1="496.00" y1="576.00" x2="544.00" y2="576.00" />
<line x1="576.00" y1="576.00" x2="608.00" y2="576.00" />
<line x1="752.00" y1="576.00" x2="784.00" y2="576.00" />
<line x1="992.00" y1="576.00" x2="1008.00" y2="576.00" />
<line x1="1120.00" y1="576.00" x2="1136.00" y2="576.00" />
<line x1="480.00" y1="592.00" x2="496.00" y2="592.00" />
<line x1="608.00" y1="592.00" x2="624.00" y2="592.00" />
<line x1="736.00" y1="592.00" x2="752.00" y2="592.00" />
<line x1="784.00" y1="592.00" x2="800.00" y2="592.00" />
<line x1="1008.00" y1="592.00" x2="1024.00" y2="592.00" />
<line x1="1104.00" y1="592.00" x2="1120.00" y2="592.00" />
<line x1="720.00" y1="608.00" x2="736.00" y2="608.00" />
<line x1="800.00" y1="608.00" x2="816.00" y2="608.00" />
<line x1="1024.00" y1="608.00" x2="1056.00" y2="608.00" />
<line x1="1072.00" y1="608.00" x2="1104.00" y2="608.00" />
<line x1="368.00" y1="640.00" x2="416.00" y2="640.00" />
<line x1="432.00" y1="640.00" x2="448.00" y2="640.00" />
<line x1="464.00" y1="640.00" x2="480.00" y2="640.00" />
<line x1="624.00" y1="640.00" x2="688.00" y2="640.00" />
<line x1="704.00" y1="640.00" x2="720.00" y2="640.00" />
<line x1="992.00" y1="640.00" x2="1056.00" y2="640.00" />
<line x1="368.00" y1="656.00" x2="416.00" y2="656.00" />
<line x1="432.00" y1="656.00" x2="448.00" y2="656.00" />
<line x1="464.00" y1="656.00" x2="480.00" y2="656.00" />
<line x1="624.00" y1="656.00" x2="688.00" y2="656.00" />
<line x1="816.00" y1="656.00" x2="832.00" y2="656.00" />
<line x1="704.00" y1="672.00" x2="720.00" y2="672.00" />
<line x1="816.00" y1="672.00" x2="832.00" y2="672.00" />
<line x1="96.00" y1="688.00" x2="144.00" y2="688.00" />
<line x1="224.00" y1="704.00" x2="320.00" y2="704.00" />
<line x1="336.00" y1="704.00" x2="352.00" y2="704.00" />
<line x1="368.00" y1="704.00" x2="416.00" y2="704.00" />
<line x1="432.00" y1="704.00" x2="448.00" y2="704.00" />
<line x1="464.00" y1="704.00" x2="480.00" y2="704.00" />
<line x1="624.00" y1="704.00" x2="688.00" y2="704.00" />
<line x1="704.00" y1="704.00" x2="720.00" y2="704.00" />
<line x1="816.00" y1="704.00" x2="992.00" y2="704.00" />
<line x1="240.00" y1="720.00" x2="320.00" y2="720.00" />
<line x1="336.00" y1="720.00" x2="352.00" y2="720.00" />
<line x1="368.00" y1="720.00" x2="416.00" y2="720.00" />
<line x1="432.00" y1="720.00" x2="448.00" y2="720.00" />
<line x1="464.00" y1="720.00" x2="544.00" y2="720.00" />
<line x1="576.00" y1="720.00" x2="688.00" y2="720.00" />
<line x1="704.00" y1="720.00" x2="736.00" y2="720.00" />
<line x1="800.00" y1="720.00" x2="992.00" y2="720.00" />
<line x1="544.00" y1="736.00" x2="560.00" y2="736.00" />
<line x1="736.00" y1="736.00" x2="752.00" y2="736.00" />
<line x1="176.00" y1="752.00" x2="224.00" y2="752.00" />
<line x1="240.00" y1="752.00" x2="320.00" y2="752.00" />
<line x1="336.00" y1="752.00" x2="352.00" y2="752.00" />
<line x1="368.00" y1="752.00" x2="416.00" y2="752.00" />
<line x1="432.00" y1="752.00" x2="448.00" y2="752.00" />
<line x1="464.00" y1="752.00" x2="560.00" y2="752.00" />
<line x1="576.00" y1="752.00" x2="688.00" y2="752.00" />
<line x1="752.00" y1="752.00" x2="768.00" y2="752.00" />
<line x1="176.00" y1="768.00" x2="224.00" y2="768.00" />
<line x1="240.00" y1="768.00" x2="320.00" y2="768.00" />
<line x1="432.00" y1="768.00" x2="448.00" y2="768.00" />
<line x1="464.00" y1="768.00" x2="560.00" y2="768.00" />
<line x1="576.00" y1="768.00" x2="608.00" y2="768.00" />
<line x1="624.00" y1="768.00" x2="688.00" y2="768.00" />
<line x1="992.00" y1="768.00" x2="1024.00" y2="768.00" />
<line x1="1040.00" y1="768.00" x2="1056.00" y2="768.00" />
<line x1="432.00" y1="784.00" x2="448.00" y2="784.00" />
<line x1="464.00" y1="784.00" x2="560.00" y2="784.00" />
<line x1="576.00" y1="784.00" x2="608.00" y2="784.00" />
<line x1="624.00" y1="784.00" x2="688.00" y2="784.00" />
<line x1="704.00" y1="784.00" x2="768.00" y2="784.00" />
<line x1="800.00" y1="784.00" x2="1024.00" y2="784.00" />
<line x1="1040.00" y1="784.00" x2="1056.00" y2="784.00" />
<line x1="1072.00" y1="784.00" x2="1152.00" y2="784.00" />
<line x1="432.00" y1="800.00" x2="448.00" y2="800.00" />
<line x1="464.00" y1="800.00" x2="544.00" y2="800.00" />
<line x1="704.00" y1="800.00" x2="768.00" y2="800.00" />
<line x1="800.00" y1="800.00" x2="944.00" y2="800.00" />
<line x1="960.00" y1="800.00" x2="1024.00" y2="800.00" />
<line x1="1040.00" y1="800.00" x2="1056.00" y2="800.00" />
<line x1="1072.00" y1="800.00" x2="1152.00" y2="800.00" />
<line x1="96.00" y1="816.00" x2="144.00" y2="816.00" />
<line x1="336.00" y1="816.00" x2="352.00" y2="816.00" />
<line x1="368.00" y1="816.00" x2="416.00" y2="816.00" />
<line x1="384.00" y1="848.00" x2="416.00" y2="848.00" />
<line x1="432.00" y1="848.00" x2="448.00" y2="848.00" />
<line x1="464.00" y1="848.00" x2="512.00" y2="848.00" />
<line x1="528.00" y1="848.00" x2="544.00" y2="848.00" />
<line x1="704.00" y1="848.00" x2="768.00" y2="848.00" />
<line x1="800.00" y1="848.00" x2="944.00" y2="848.00" />
<line x1="528.00" y1="864.00" x2="544.00" y2="864.00" />
<line x1="704.00" y1="864.00" x2="784.00" y2="864.00" />
<line x1="800.00" y1="864.00" x2="944.00" y2="864.00" />
<line x1="160.00" y1="896.00" x2="224.00" y2="896.00" />
<line x1="240.00" y1="896.00" x2="320.00" y2="896.00" />
<line x1="336.00" y1="896.00" x2="352.00" y2="896.00" />
<line x1="368.00" y1="896.00" x2="384.00" y2="896.00" />
<line x1="176.00" y1="880.00" x2="224.00" y2="880.00" />
<line x1="240.00" y1="880.00" x2="320.00" y2="880.00" />
<line x1="336.00" y1="880.00" x2="352.00" y2="880.00" />
<line x1="368.00" y1="880.00" x2="384.00" y2="880.00" />
<line x1="544.00" y1="912.00" x2="560.00" y2="912.00" />
<line x1="672.00" y1="912.00" x2="688.00" y2="912.00" />
<line x1="384.00" y1="928.00" x2="416.00" y2="928.00" />
<line x1="432.00" y1="928.00" x2="448.00" y2="928.00" />
<line x1="464.00" y1="928.00" x2="512.00" y2="928.00" />
<line x1="576.00" y1="928.00" x2="608.00" y2="928.00" />
<line x1="624.00" y1="928.00" x2="672.00" y2="928.00" />
<line x1="624.00" y1="976.00" x2="688.00" y2="976.00" />
<line x1="704.00" y1="976.00" x2="784.00" y2="976.00" />
<line x1="288.00" y1="992.00" x2="320.00" y2="992.00" />
<line x1="336.00" y1="992.00" x2="352.00" y2="992.00" />
<line x1="368.00" y1="992.00" x2="416.00" y2="992.00" />
<line x1="432.00" y1="1040.00" x2="448.00" y2="1040.00" />
<line x1="464.00" y1="1040.00" x2="560.00" y2="1040.00" />
<line x1="576.00" y1="1040.00" x2="608.00" y2="1040.00" />
<line x1="432.00" y1="1056.00" x2="448.00" y2="1056.00" />
<line x1="464.00" y1="1056.00" x2="560.00" y2="1056.00" />
<line x1="576.00" y1="1056.00" x2="608.00" y2="1056.00" />
<line x1="432.00" y1="1072.00" x2="448.00" y2="1072.00" />
<line x1="464.00" y1="1072.00" x2="560.00" y2="1072.00" />
<line x1="576.00" y1="1072.00" x2="608.00" y2="1072.00" />
<line x1="800.00" y1="1072.00" x2="944.00" y2="1072.00" />
<line x1="960.00" y1="1072.00" x2="1024.00" y2="1072.00" />
<line x1="1040.00" y1="1072.00" x2="1056.00" y2="1072.00" />
<line x1="1072.00" y1="1072.00" x2="1152.00" y2="1072.00" />
<line x1="432.00" y1="1088.00" x2="448.00" y2="1088.00" />
<line x1="464.00" y1="1088.00" x2="560.00" y2="1088.00" />
<line x1="576.00" y1="1088.00" x2="608.00" y2="1088.00" />
<line x1="800.00" y1="1088.00" x2="944.00" y2="1088.00" />
<line x1="960.00" y1="1088.00" x2="1024.00" y2="1088.00" />
<line x1="1040.00" y1="1088.00" x2="1056.00" y2="1088.00" />
<line x1="1072.00" y1="1088.00" x2="1152.00" y2="1088.00" />
<line x1="624.00" y1="1104.00" x2="688.00" y2="1104.00" />
<line x1="704.00" y1="1104.00" x2="784.00" y2="1104.00" />
<line x1="80.00" y1="1136.00" x2="144.00" y2="1136.00" />
<line x1="160.00" y1="1136.00" x2="208.00" y2="1136.00" />
<line x1="288.00" y1="1168.00" x2="320.00" y2="1168.00" />
<line x1="336.00" y1="1168.00" x2="416.00" y2="1168.00" />
<line x1="896.00" y1="1168.00" x2="944.00" y2="1168.00" />
<line x1="960.00" y1="1168.00" x2="992.00" y2="1168.00" />
<line x1="528.00" y1="1152.00" x2="560.00" y2="1152.00" />
<line x1="576.00" y1="1152.00" x2="608.00" y2="1152.00" />
<line x1="1088.00" y1="1152.00" x2="1152.00" y2="1152.00" />
<line x1="1184.00" y1="1152.00" x2="1248.00" y2="1152.00" />
<line x1="208.00" y1="1184.00" x2="224.00" y2="1184.00" />
<line x1="240.00" y1="1184.00" x2="320.00" y2="1184.00" />
<line x1="336.00" y1="1184.00" x2="416.00" y2="1184.00" />
<line x1="432.00" y1="1184.00" x2="448.00" y2="1184.00" />
<line x1="464.00" y1="1184.00" x2="528.00" y2="1184.00" />
<line x1="624.00" y1="1184.00" x2="688.00" y2="1184.00" />
<line x1="704.00" y1="1184.00" x2="784.00" y2="1184.00" />
<line x1="800.00" y1="1184.00" x2="896.00" y2="1184.00" />
<line x1="992.00" y1="1184.00" x2="1024.00" y2="1184.00" />
<line x1="1040.00" y1="1184.00" x2="1056.00" y2="1184.00" />
<line x1="208.00" y1="1200.00" x2="224.00" y2="1200.00" />
<line x1="240.00" y1="1200.00" x2="272.00" y2="1200.00" />
<line x1="368.00" y1="1200.00" x2="416.00" y2="1200.00" />
<line x1="432.00" y1="1200.00" x2="448.00" y2="1200.00" />
<line x1="464.00" y1="1200.00" x2="528.00" y2="1200.00" />
<line x1="624.00" y1="1200.00" x2="688.00" y2="1200.00" />
<line x1="704.00" y1="1200.00" x2="784.00" y2="1200.00" />
<line x1="800.00" y1="1200.00" x2="896.00" y2="1200.00" />
<line x1="992.00" y1="1200.00" x2="1024.00" y2="1200.00" />
<line x1="1040.00" y1="1200.00" x2="1056.00" y2="1200.00" />
<line x1="80.00" y1="1232.00" x2="208.00" y2="1232.00" />
<line x1="368.00" y1="1232.00" x2="416.00" y2="1232.00" />
<line x1="432.00" y1="1232.00" x2="448.00" y2="1232.00" />
<line x1="1072.00" y1="1232.00" x2="1088.00" y2="1232.00" />
<line x1="368.00" y1="1216.00" x2="416.00" y2="1216.00" />
<line x1="432.00" y1="1216.00" x2="448.00" y2="1216.00" />
<line x1="464.00" y1="1216.00" x2="528.00" y2="1216.00" />
<line x1="624.00" y1="1216.00" x2="688.00" y2="1216.00" />
<line x1="704.00" y1="1216.00" x2="784.00" y2="1216.00" />
<line x1="800.00" y1="1216.00" x2="896.00" y2="1216.00" />
<line x1="992.00" y1="1216.00" x2="1024.00" y2="1216.00" />
<line x1="1040.00" y1="1216.00" x2="1056.00" y2="1216.00" />
<line x1="448.00" y1="1248.00" x2="608.00" y2="1248.00" />
<line x1="624.00" y1="1248.00" x2="752.00" y2="1248.00" />
<line x1="816.00" y1="1248.00" x2="896.00" y2="1248.00" />
<line x1="992.00" y1="1248.00" x2="1024.00" y2="1248.00" />
<line x1="1040.00" y1="1248.00" x2="1088.00" y2="1248.00" />
<line x1="272.00" y1="1264.00" x2="320.00" y2="1264.00" />
<line x1="336.00" y1="1264.00" x2="368.00" y2="1264.00" />
<line x1="144.00" y1="1280.00" x2="224.00" y2="1280.00" />
<line x1="240.00" y1="1280.00" x2="304.00" y2="1280.00" />
<line x1="560.00" y1="1280.00" x2="608.00" y2="1280.00" />
<line x1="624.00" y1="1280.00" x2="656.00" y2="1280.00" />
<line x1="336.00" y1="1296.00" x2="416.00" y2="1296.00" />
<line x1="432.00" y1="1296.00" x2="448.00" y2="1296.00" />
<line x1="896.00" y1="1296.00" x2="992.00" y2="1296.00" />
<line x1="816.00" y1="1328.00" x2="1024.00" y2="1328.00" />
<line x1="1088.00" y1="1328.00" x2="1248.00" y2="1328.00" />
<line x1="448.00" y1="1344.00" x2="560.00" y2="1344.00" />
<line x1="816.00" y1="1344.00" x2="1040.00" y2="1344.00" />
<line x1="448.00" y1="1360.00" x2="560.00" y2="1360.00" />
<line x1="560.00" y1="1408.00" x2="656.00" y2="1408.00" />
<line x1="752.00" y1="1408.00" x2="816.00" y2="1408.00" />
<line x1="144.00" y1="1424.00" x2="304.00" y2="1424.00" />
<line x1="320.00" y1="1424.00" x2="448.00" y2="1424.00" />
<line x1="1056.00" y1="64.00" x2="1056.00" y2="112.00" />
<line x1="1056.00" y1="128.00" x2="1056.00" y2="160.00" />
<line x1="1056.00" y1="448.00" x2="1056.00" y2="480.00" />
<line x1="1056.00" y1="608.00" x2="1056.00" y2="640.00" />
<line x1="1056.00" y1="768.00" x2="1056.00" y2="784.00" />
<line x1="1056.00" y1="800.00" x2="1056.00" y2="1072.00" />
<line x1="1056.00" y1="1088.00" x2="1056.00" y2="1184.00" />
<line x1="1056.00" y1="1200.00" x2="1056.00" y2="1216.00" />
<line x1="1168.00" y1="64.00" x2="1168.00" y2="176.00" />
<line x1="1168.00" y1="336.00" x2="1168.00" y2="400.00" />
<line x1="896.00" y1="96.00" x2="896.00" y2="112.00" />
<line x1="896.00" y1="128.00" x2="896.00" y2="160.00" />
<line x1="896.00" y1="176.00" x2="896.00" y2="240.00" />
<line x1="896.00" y1="1168.00" x2="896.00" y2="1184.00" />
<line x1="896.00" y1="1200.00" x2="896.00" y2="1216.00" />
<line x1="896.00" y1="1248.00" x2="896.00" y2="1296.00" />
<line x1="960.00" y1="96.00" x2="960.00" y2="112.00" />
<line x1="960.00" y1="128.00" x2="960.00" y2="240.00" />
<line x1="960.00" y1="800.00" x2="960.00" y2="1072.00" />
<line x1="960.00" y1="1088.00" x2="960.00" y2="1168.00" />
<line x1="352.00" y1="112.00" x2="352.00" y2="160.00" />
<line x1="352.00" y1="176.00" x2="352.00" y2="224.00" />
<line x1="352.00" y1="304.00" x2="352.00" y2="432.00" />
<line x1="352.00" y1="448.00" x2="352.00" y2="704.00" />
<line x1="352.00" y1="720.00" x2="352.00" y2="752.00" />
<line x1="352.00" y1="816.00" x2="352.00" y2="880.00" />
<line x1="352.00" y1="896.00" x2="352.00" y2="992.00" />
<line x1="368.00" y1="128.00" x2="368.00" y2="160.00" />
<line x1="368.00" y1="176.00" x2="368.00" y2="224.00" />
<line x1="368.00" y1="304.00" x2="368.00" y2="320.00" />
<line x1="368.00" y1="480.00" x2="368.00" y2="640.00" />
<line x1="368.00" y1="656.00" x2="368.00" y2="704.00" />
<line x1="368.00" y1="720.00" x2="368.00" y2="752.00" />
<line x1="368.00" y1="816.00" x2="368.00" y2="880.00" />
<line x1="368.00" y1="896.00" x2="368.00" y2="992.00" />
<line x1="368.00" y1="1200.00" x2="368.00" y2="1216.00" />
<line x1="368.00" y1="1232.00" x2="368.00" y2="1264.00" />
<line x1="752.00" y1="128.00" x2="752.00" y2="160.00" />
<line x1="752.00" y1="256.00" x2="752.00" y2="352.00" />
<line x1="752.00" y1="576.00" x2="752.00" y2="592.00" />
<line x1="752.00" y1="736.00" x2="752.00" y2="752.00" />
<line x1="752.00" y1="1248.00" x2="752.00" y2="1408.00" />
<line x1="768.00" y1="128.00" x2="768.00" y2="160.00" />
<line x1="768.00" y1="256.00" x2="768.00" y2="352.00" />
<line x1="768.00" y1="752.00" x2="768.00" y2="784.00" />
<line x1="768.00" y1="800.00" x2="768.00" y2="848.00" />
<line x1="160.00" y1="160.00" x2="160.00" y2="384.00" />
<line x1="160.00" y1="896.00" x2="160.00" y2="1136.00" />
<line x1="1152.00" y1="160.00" x2="1152.00" y2="176.00" />
<line x1="1152.00" y1="336.00" x2="1152.00" y2="400.00" />
<line x1="1152.00" y1="416.00" x2="1152.00" y2="784.00" />
<line x1="1152.00" y1="800.00" x2="1152.00" y2="1072.00" />
<line x1="1152.00" y1="1088.00" x2="1152.00" y2="1152.00" />
<line x1="176.00" y1="176.00" x2="176.00" y2="384.00" />
<line x1="176.00" y1="528.00" x2="176.00" y2="752.00" />
<line x1="176.00" y1="768.00" x2="176.00" y2="880.00" />
<line x1="656.00" y1="176.00" x2="656.00" y2="208.00" />
<line x1="656.00" y1="224.00" x2="656.00" y2="256.00" />
<line x1="656.00" y1="1280.00" x2="656.00" y2="1408.00" />
<line x1="816.00" y1="176.00" x2="816.00" y2="256.00" />
<line x1="816.00" y1="608.00" x2="816.00" y2="656.00" />
<line x1="816.00" y1="672.00" x2="816.00" y2="704.00" />
<line x1="816.00" y1="1248.00" x2="816.00" y2="1328.00" />
<line x1="816.00" y1="1344.00" x2="816.00" y2="1408.00" />
<line x1="1104.00" y1="176.00" x2="1104.00" y2="336.00" />
<line x1="1104.00" y1="480.00" x2="1104.00" y2="496.00" />
<line x1="1104.00" y1="592.00" x2="1104.00" y2="608.00" />
<line x1="1200.00" y1="176.00" x2="1200.00" y2="336.00" />
<line x1="560.00" y1="208.00" x2="560.00" y2="352.00" />
<line x1="560.00" y1="736.00" x2="560.00" y2="752.00" />
<line x1="560.00" y1="768.00" x2="560.00" y2="784.00" />
<line x1="560.00" y1="912.00" x2="560.00" y2="1040.00" />
<line x1="560.00" y1="1056.00" x2="560.00" y2="1072.00" />
<line x1="560.00" y1="1088.00" x2="560.00" y2="1152.00" />
<line x1="560.00" y1="1280.00" x2="560.00" y2="1344.00" />
<line x1="560.00" y1="1360.00" x2="560.00" y2="1408.00" />
<line x1="320.00" y1="224.00" x2="320.00" y2="432.00" />
<line x1="320.00" y1="448.00" x2="320.00" y2="704.00" />
<line x1="320.00" y1="720.00" x2="320.00" y2="752.00" />
<line x1="320.00" y1="768.00" x2="320.00" y2="880.00" />
<line x1="320.00" y1="896.00" x2="320.00" y2="992.00" />
<line x1="320.00" y1="1168.00" x2="320.00" y2="1184.00" />
<line x1="320.00" y1="1264.00" x2="320.00" y2="1424.00" />
<line x1="400.00" y1="224.00" x2="400.00" y2="304.00" />
<line x1="576.00" y1="224.00" x2="576.00" y2="352.00" />
<line x1="576.00" y1="368.00" x2="576.00" y2="400.00" />
<line x1="576.00" y1="416.00" x2="576.00" y2="432.00" />
<line x1="576.00" y1="448.00" x2="576.00" y2="576.00" />
<line x1="576.00" y1="720.00" x2="576.00" y2="752.00" />
<line x1="576.00" y1="768.00" x2="576.00" y2="784.00" />
<line x1="576.00" y1="928.00" x2="576.00" y2="1040.00" />
<line x1="576.00" y1="1056.00" x2="576.00" y2="1072.00" />
<line x1="576.00" y1="1088.00" x2="576.00" y2="1152.00" />
<line x1="688.00" y1="256.00" x2="688.00" y2="352.00" />
<line x1="688.00" y1="528.00" x2="688.00" y2="640.00" />
<line x1="688.00" y1="656.00" x2="688.00" y2="704.00" />
<line x1="688.00" y1="720.00" x2="688.00" y2="752.00" />
<line x1="688.00" y1="768.00" x2="688.00" y2="784.00" />
<line x1="688.00" y1="912.00" x2="688.00" y2="976.00" />
<line x1="688.00" y1="1104.00" x2="688.00" y2="1184.00" />
<line x1="688.00" y1="1200.00" x2="688.00" y2="1216.00" />
<line x1="704.00" y1="256.00" x2="704.00" y2="352.00" />
<line x1="704.00" y1="528.00" x2="704.00" y2="640.00" />
<line x1="704.00" y1="672.00" x2="704.00" y2="704.00" />
<line x1="704.00" y1="720.00" x2="704.00" y2="784.00" />
<line x1="704.00" y1="800.00" x2="704.00" y2="848.00" />
<line x1="704.00" y1="864.00" x2="704.00" y2="976.00" />
<line x1="704.00" y1="1104.00" x2="704.00" y2="1184.00" />
<line x1="704.00" y1="1200.00" x2="704.00" y2="1216.00" />
<line x1="336.00" y1="304.00" x2="336.00" y2="432.00" />
<line x1="336.00" y1="448.00" x2="336.00" y2="704.00" />
<line x1="336.00" y1="720.00" x2="336.00" y2="752.00" />
<line x1="336.00" y1="816.00" x2="336.00" y2="880.00" />
<line x1="336.00" y1="896.00" x2="336.00" y2="992.00" />
<line x1="336.00" y1="1168.00" x2="336.00" y2="1184.00" />
<line x1="336.00" y1="1264.00" x2="336.00" y2="1296.00" />
<line x1="480.00" y1="320.00" x2="480.00" y2="400.00" />
<line x1="480.00" y1="416.00" x2="480.00" y2="432.00" />
<line x1="480.00" y1="448.00" x2="480.00" y2="480.00" />
<line x1="480.00" y1="592.00" x2="480.00" y2="640.00" />
<line x1="480.00" y1="656.00" x2="480.00" y2="704.00" />
<line x1="976.00" y1="320.00" x2="976.00" y2="352.00" />
<line x1="976.00" y1="368.00" x2="976.00" y2="400.00" />
<line x1="1040.00" y1="320.00" x2="1040.00" y2="400.00" />
<line x1="1040.00" y1="768.00" x2="1040.00" y2="784.00" />
<line x1="1040.00" y1="800.00" x2="1040.00" y2="1072.00" />
<line x1="1040.00" y1="1088.00" x2="1040.00" y2="1184.00" />
<line x1="1040.00" y1="1200.00" x2="1040.00" y2="1216.00" />
<line x1="1040.00" y1="1248.00" x2="1040.00" y2="1344.00" />
<line x1="544.00" y1="352.00" x2="544.00" y2="400.00" />
<line x1="544.00" y1="416.00" x2="544.00" y2="432.00" />
<line x1="544.00" y1="448.00" x2="544.00" y2="576.00" />
<line x1="544.00" y1="720.00" x2="544.00" y2="736.00" />
<line x1="544.00" y1="800.00" x2="544.00" y2="848.00" />
<line x1="544.00" y1="864.00" x2="544.00" y2="912.00" />
<line x1="672.00" y1="368.00" x2="672.00" y2="400.00" />
<line x1="672.00" y1="416.00" x2="672.00" y2="432.00" />
<line x1="672.00" y1="448.00" x2="672.00" y2="528.00" />
<line x1="672.00" y1="912.00" x2="672.00" y2="928.00" />
<line x1="832.00" y1="368.00" x2="832.00" y2="400.00" />
<line x1="832.00" y1="416.00" x2="832.00" y2="432.00" />
<line x1="832.00" y1="448.00" x2="832.00" y2="528.00" />
<line x1="832.00" y1="656.00" x2="832.00" y2="672.00" />
<line x1="112.00" y1="384.00" x2="112.00" y2="528.00" />
<line x1="208.00" y1="384.00" x2="208.00" y2="432.00" />
<line x1="208.00" y1="448.00" x2="208.00" y2="528.00" />
<line x1="208.00" y1="1136.00" x2="208.00" y2="1184.00" />
<line x1="208.00" y1="1200.00" x2="208.00" y2="1232.00" />
<line x1="1184.00" y1="400.00" x2="1184.00" y2="1152.00" />
<line x1="1072.00" y1="432.00" x2="1072.00" y2="480.00" />
<line x1="1072.00" y1="608.00" x2="1072.00" y2="784.00" />
<line x1="1072.00" y1="800.00" x2="1072.00" y2="1072.00" />
<line x1="1072.00" y1="1088.00" x2="1072.00" y2="1232.00" />
<line x1="416.00" y1="480.00" x2="416.00" y2="640.00" />
<line x1="416.00" y1="656.00" x2="416.00" y2="704.00" />
<line x1="416.00" y1="720.00" x2="416.00" y2="752.00" />
<line x1="416.00" y1="816.00" x2="416.00" y2="848.00" />
<line x1="416.00" y1="928.00" x2="416.00" y2="992.00" />
<line x1="416.00" y1="1168.00" x2="416.00" y2="1184.00" />
<line x1="416.00" y1="1200.00" x2="416.00" y2="1216.00" />
<line x1="416.00" y1="1232.00" x2="416.00" y2="1296.00" />
<line x1="432.00" y1="480.00" x2="432.00" y2="640.00" />
<line x1="432.00" y1="656.00" x2="432.00" y2="704.00" />
<line x1="432.00" y1="720.00" x2="432.00" y2="752.00" />
<line x1="432.00" y1="768.00" x2="432.00" y2="784.00" />
<line x1="432.00" y1="800.00" x2="432.00" y2="848.00" />
<line x1="432.00" y1="928.00" x2="432.00" y2="1040.00" />
<line x1="432.00" y1="1056.00" x2="432.00" y2="1072.00" />
<line x1="432.00" y1="1088.00" x2="432.00" y2="1184.00" />
<line x1="432.00" y1="1200.00" x2="432.00" y2="1216.00" />
<line x1="432.00" y1="1232.00" x2="432.00" y2="1296.00" />
<line x1="448.00" y1="480.00" x2="448.00" y2="640.00" />
<line x1="448.00" y1="656.00" x2="448.00" y2="704.00" />
<line x1="448.00" y1="720.00" x2="448.00" y2="752.00" />
<line x1="448.00" y1="768.00" x2="448.00" y2="784.00" />
<line x1="448.00" y1="800.00" x2="448.00" y2="848.00" />
<line x1="448.00" y1="928.00" x2="448.00" y2="1040.00" />
<line x1="448.00" y1="1056.00" x2="448.00" y2="1072.00" />
<line x1="448.00" y1="1088.00" x2="448.00" y2="1184.00" />
<line x1="448.00" y1="1200.00" x2="448.00" y2="1216.00" />
<line x1="448.00" y1="1232.00" x2="448.00" y2="1248.00" />
<line x1="448.00" y1="1296.00" x2="448.00" y2="1344.00" />
<line x1="448.00" y1="1360.00" x2="448.00" y2="1424.00" />
<line x1="464.00" y1="480.00" x2="464.00" y2="640.00" />
<line x1="464.00" y1="656.00" x2="464.00" y2="704.00" />
<line x1="464.00" y1="720.00" x2="464.00" y2="752.00" />
<line x1="464.00" y1="768.00" x2="464.00" y2="784.00" />
<line x1="464.00" y1="800.00" x2="464.00" y2="848.00" />
<line x1="464.00" y1="928.00" x2="464.00" y2="1040.00" />
<line x1="464.00" y1="1056.00" x2="464.00" y2="1072.00" />
<line x1="464.00" y1="1088.00" x2="464.00" y2="1184.00" />
<line x1="464.00" y1="1200.00" x2="464.00" y2="1216.00" />
<line x1="1024.00" y1="480.00" x2="1024.00" y2="496.00" />
<line x1="1024.00" y1="592.00" x2="1024.00" y2="608.00" />
<line x1="1024.00" y1="768.00" x2="1024.00" y2="784.00" />
<line x1="1024.00" y1="800.00" x2="1024.00" y2="1072.00" />
<line x1="1024.00" y1="1088.00" x2="1024.00" y2="1184.00" />
<line x1="1024.00" y1="1200.00" x2="1024.00" y2="1216.00" />
<line x1="1024.00" y1="1248.00" x2="1024.00" y2="1328.00" />
<line x1="1008.00" y1="496.00" x2="1008.00" y2="512.00" />
<line x1="1008.00" y1="576.00" x2="1008.00" y2="592.00" />
<line x1="1120.00" y1="496.00" x2="1120.00" y2="512.00" />
<line x1="1120.00" y1="576.00" x2="1120.00" y2="592.00" />
<line x1="992.00" y1="512.00" x2="992.00" y2="576.00" />
<line x1="992.00" y1="640.00" x2="992.00" y2="704.00" />
<line x1="992.00" y1="720.00" x2="992.00" y2="768.00" />
<line x1="992.00" y1="1168.00" x2="992.00" y2="1184.00" />
<line x1="992.00" y1="1200.00" x2="992.00" y2="1216.00" />
<line x1="992.00" y1="1248.00" x2="992.00" y2="1296.00" />
<line x1="1136.00" y1="512.00" x2="1136.00" y2="576.00" />
<line x1="144.00" y1="528.00" x2="144.00" y2="688.00" />
<line x1="144.00" y1="816.00" x2="144.00" y2="1136.00" />
<line x1="144.00" y1="1280.00" x2="144.00" y2="1424.00" />
<line x1="496.00" y1="576.00" x2="496.00" y2="592.00" />
<line x1="608.00" y1="576.00" x2="608.00" y2="592.00" />
<line x1="608.00" y1="768.00" x2="608.00" y2="784.00" />
<line x1="608.00" y1="928.00" x2="608.00" y2="1040.00" />
<line x1="608.00" y1="1056.00" x2="608.00" y2="1072.00" />
<line x1="608.00" y1="1088.00" x2="608.00" y2="1152.00" />
<line x1="608.00" y1="1248.00" x2="608.00" y2="1280.00" />
<line x1="784.00" y1="576.00" x2="784.00" y2="592.00" />
<line x1="784.00" y1="864.00" x2="784.00" y2="976.00" />
<line x1="784.00" y1="1104.00" x2="784.00" y2="1184.00" />
<line x1="784.00" y1="1200.00" x2="784.00" y2="1216.00" />
<line x1="624.00" y1="592.00" x2="624.00" y2="640.00" />
<line x1="624.00" y1="656.00" x2="624.00" y2="704.00" />
<line x1="624.00" y1="768.00" x2="624.00" y2="784.00" />
<line x1="624.00" y1="928.00" x2="624.00" y2="976.00" />
<line x1="624.00" y1="1104.00" x2="624.00" y2="1184.00" />
<line x1="624.00" y1="1200.00" x2="624.00" y2="1216.00" />
<line x1="624.00" y1="1248.00" x2="624.00" y2="1280.00" />
<line x1="736.00" y1="592.00" x2="736.00" y2="608.00" />
<line x1="736.00" y1="720.00" x2="736.00" y2="736.00" />
<line x1="800.00" y1="592.00" x2="800.00" y2="608.00" />
<line x1="800.00" y1="720.00" x2="800.00" y2="784.00" />
<line x1="800.00" y1="800.00" x2="800.00" y2="848.00" />
<line x1="800.00" y1="864.00" x2="800.00" y2="1072.00" />
<line x1="800.00" y1="1088.00" x2="800.00" y2="1184.00" />
<line x1="800.00" y1="1200.00" x2="800.00" y2="1216.00" />
<line x1="720.00" y1="608.00" x2="720.00" y2="640.00" />
<line x1="720.00" y1="672.00" x2="720.00" y2="704.00" />
<line x1="96.00" y1="688.00" x2="96.00" y2="816.00" />
<line x1="224.00" y1="704.00" x2="224.00" y2="752.00" />
<line x1="224.00" y1="768.00" x2="224.00" y2="880.00" />
<line x1="224.00" y1="896.00" x2="224.00" y2="1184.00" />
<line x1="224.00" y1="1200.00" x2="224.00" y2="1280.00" />
<line x1="240.00" y1="720.00" x2="240.00" y2="752.00" />
<line x1="240.00" y1="768.00" x2="240.00" y2="880.00" />
<line x1="240.00" y1="896.00" x2="240.00" y2="1184.00" />
<line x1="240.00" y1="1200.00" x2="240.00" y2="1280.00" />
<line x1="944.00" y1="800.00" x2="944.00" y2="848.00" />
<line x1="944.00" y1="864.00" x2="944.00" y2="1072.00" />
<line x1="944.00" y1="1088.00" x2="944.00" y2="1168.00" />
<line x1="384.00" y1="848.00" x2="384.00" y2="880.00" />
<line x1="384.00" y1="896.00" x2="384.00" y2="928.00" />
<line x1="512.00" y1="848.00" x2="512.00" y2="928.00" />
<line x1="528.00" y1="848.00" x2="528.00" y2="864.00" />
<line x1="528.00" y1="1152.00" x2="528.00" y2="1184.00" />
<line x1="528.00" y1="1200.00" x2="528.00" y2="1216.00" />
<line x1="288.00" y1="992.00" x2="288.00" y2="1168.00" />
<line x1="80.00" y1="1136.00" x2="80.00" y2="1232.00" />
<line x1="1088.00" y1="1152.00" x2="1088.00" y2="1232.00" />
<line x1="1088.00" y1="1248.00" x2="1088.00" y2="1328.00" />
<line x1="1248.00" y1="1152.00" x2="1248.00" y2="1328.00" />
<line x1="272.00" y1="1200.00" x2="272.00" y2="1264.00" />
<line x1="304.00" y1="1280.00" x2="304.00" y2="1424.00" />
  </g>
  <g class="features">
<g data-feature-type="stairsDown"><line data-feature-type="stairsDown" x1="626.24" y1="835.36" x2="637.76" y2="835.36" /><line x1="626.65" y1="837.68" x2="637.35" y2="837.68" /><line x1="627.07" y1="840.00" x2="636.93" y2="840.00" /><line x1="627.48" y1="842.32" x2="636.52" y2="842.32" /><line x1="627.90" y1="844.64" x2="636.10" y2="844.64" /></g>
<g data-feature-type="stairsUp"><line data-feature-type="stairsUp" x1="547.90" y1="627.36" x2="556.10" y2="627.36" /><line x1="547.48" y1="629.68" x2="556.52" y2="629.68" /><line x1="547.07" y1="632.00" x2="556.93" y2="632.00" /><line x1="546.65" y1="634.32" x2="557.35" y2="634.32" /><line x1="546.24" y1="636.64" x2="557.76" y2="636.64" /></g>
<circle data-feature-type="pillar" cx="392.00" cy="424.00" r="3.68" fill="#4f89a8" stroke="none" />
<circle data-feature-type="pillar" cx="408.00" cy="392.00" r="3.68" fill="#4f89a8" stroke="none" />
<circle data-feature-type="pillar" cx="456.00" cy="424.00" r="3.68" fill="#4f89a8" stroke="none" />
<g data-feature-type="altar"><rect x="421.28" y="454.40" width="5.44" height="3.20" fill="none" /><line x1="424.00" y1="453.44" x2="424.00" y2="458.56" /><line x1="422.40" y1="456.00" x2="425.60" y2="456.00" /></g>
<circle data-feature-type="pillar" cx="1192.00" cy="1240.00" r="3.68" fill="#4f89a8" stroke="none" />
<g data-feature-type="chest"><rect x="1205.28" y="1302.24" width="5.44" height="3.52" fill="none" /><line x1="1205.28" y1="1304.00" x2="1210.72" y2="1304.00" /><circle cx="1208.00" cy="1304.18" r="0.70" fill="#4f89a8" stroke="none" /></g>
<circle data-feature-type="pillar" cx="664.00" cy="1032.00" r="3.68" fill="#4f89a8" stroke="none" />
<circle data-feature-type="pillar" cx="728.00" cy="1032.00" r="3.68" fill="#4f89a8" stroke="none" />
<circle data-feature-type="pillar" cx="712.00" cy="1032.00" r="3.68" fill="#4f89a8" stroke="none" />
<circle data-feature-type="pillar" cx="472.00" cy="888.00" r="3.68" fill="#4f89a8" stroke="none" />
<circle data-feature-type="pillar" cx="136.00" cy="456.00" r="3.68" fill="#4f89a8" stroke="none" />
<circle data-feature-type="pillar" cx="152.00" cy="456.00" r="3.68" fill="#4f89a8" stroke="none" />
<path data-feature-type="curtain" d="M 134.40 483.84 Q 136.00 486.34 134.40 488.00 Q 136.00 489.66 134.40 492.16" fill="none" /><path d="M 137.60 483.84 Q 136.00 486.34 137.60 488.00 Q 136.00 489.66 137.60 492.16" fill="none" />
<circle data-feature-type="pillar" cx="648.00" cy="856.00" r="3.68" fill="#4f89a8" stroke="none" />
<circle data-feature-type="pillar" cx="632.00" cy="856.00" r="3.68" fill="#4f89a8" stroke="none" />
<g data-feature-type="trap"><rect x="660.64" y="836.64" width="6.72" height="6.72" fill="none" /><line x1="660.64" y1="836.64" x2="667.36" y2="843.36" /><line x1="660.64" y1="843.36" x2="667.36" y2="836.64" /></g>
<circle data-feature-type="pillar" cx="808.00" cy="1336.00" r="3.68" fill="#4f89a8" stroke="none" />
<path data-feature-type="curtain" d="M 774.40 1347.84 Q 776.00 1350.34 774.40 1352.00 Q 776.00 1353.66 774.40 1356.16" fill="none" /><path d="M 777.60 1347.84 Q 776.00 1350.34 777.60 1352.00 Q 776.00 1353.66 777.60 1356.16" fill="none" />
<circle data-feature-type="pillar" cx="808.00" cy="680.00" r="3.68" fill="#4f89a8" stroke="none" />
<circle data-feature-type="pillar" cx="808.00" cy="648.00" r="3.68" fill="#4f89a8" stroke="none" />
<circle data-feature-type="pillar" cx="792.00" cy="680.00" r="3.68" fill="#4f89a8" stroke="none" />
<g data-feature-type="altar"><rect x="773.28" y="678.40" width="5.44" height="3.20" fill="none" /><line x1="776.00" y1="677.44" x2="776.00" y2="682.56" /><line x1="774.40" y1="680.00" x2="777.60" y2="680.00" /></g>
<g data-feature-type="trap"><rect x="756.64" y="660.64" width="6.72" height="6.72" fill="none" /><line x1="756.64" y1="660.64" x2="763.36" y2="667.36" /><line x1="756.64" y1="667.36" x2="763.36" y2="660.64" /></g>
<g data-feature-type="coffin"><rect x="741.60" y="724.32" width="4.80" height="7.36" rx="0.80" ry="0.80" fill="none" /><line x1="744.00" y1="725.94" x2="744.00" y2="730.06" /></g>
<path data-feature-type="curtain" d="M 998.40 371.84 Q 1000.00 374.34 998.40 376.00 Q 1000.00 377.66 998.40 380.16" fill="none" /><path d="M 1001.60 371.84 Q 1000.00 374.34 1001.60 376.00 Q 1000.00 377.66 1001.60 380.16" fill="none" />
<circle data-feature-type="pillar" cx="776.00" cy="424.00" r="3.68" fill="#4f89a8" stroke="none" />
<circle data-feature-type="pillar" cx="792.00" cy="456.00" r="3.68" fill="#4f89a8" stroke="none" />
<circle data-feature-type="pillar" cx="776.00" cy="456.00" r="3.68" fill="#4f89a8" stroke="none" />
<circle data-feature-type="pillar" cx="744.00" cy="424.00" r="3.68" fill="#4f89a8" stroke="none" />
<g data-feature-type="altar"><rect x="597.28" y="1334.40" width="5.44" height="3.20" fill="none" /><line x1="600.00" y1="1333.44" x2="600.00" y2="1338.56" /><line x1="598.40" y1="1336.00" x2="601.60" y2="1336.00" /></g>
<circle data-feature-type="pillar" cx="952.00" cy="168.00" r="3.68" fill="#4f89a8" stroke="none" />
<circle data-feature-type="pillar" cx="1080.00" cy="552.00" r="3.68" fill="#4f89a8" stroke="none" />
<circle data-feature-type="pillar" cx="1032.00" cy="552.00" r="3.68" fill="#4f89a8" stroke="none" />
<circle data-feature-type="pillar" cx="1128.00" cy="120.00" r="3.68" fill="#4f89a8" stroke="none" />
<g data-feature-type="statue"><circle cx="1128.00" cy="104.00" r="3.52" fill="none" /><line x1="1125.76" y1="104.00" x2="1130.24" y2="104.00" /><line x1="1128.00" y1="101.76" x2="1128.00" y2="106.24" /><line x1="1126.39" y1="102.39" x2="1129.61" y2="105.61" /><line x1="1126.39" y1="105.61" x2="1129.61" y2="102.39" /></g>
<g data-feature-type="trap"><rect x="1076.64" y="100.64" width="6.72" height="6.72" fill="none" /><line x1="1076.64" y1="100.64" x2="1083.36" y2="107.36" /><line x1="1076.64" y1="107.36" x2="1083.36" y2="100.64" /></g>
<circle data-feature-type="pillar" cx="376.00" cy="1096.00" r="3.68" fill="#4f89a8" stroke="none" />
<circle data-feature-type="pillar" cx="392.00" cy="1096.00" r="3.68" fill="#4f89a8" stroke="none" />
<circle data-feature-type="pillar" cx="392.00" cy="1064.00" r="3.68" fill="#4f89a8" stroke="none" />
<g data-feature-type="well"><circle cx="344.00" cy="1032.00" r="4.00" fill="none" /><circle cx="344.00" cy="1032.00" r="2.24" fill="none" /></g>
<circle data-feature-type="pillar" cx="152.00" cy="760.00" r="3.68" fill="#4f89a8" stroke="none" />
<g data-feature-type="trap"><rect x="164.64" y="1188.64" width="6.72" height="6.72" fill="none" /><line x1="164.64" y1="1188.64" x2="171.36" y2="1195.36" /><line x1="164.64" y1="1195.36" x2="171.36" y2="1188.64" /></g>
<circle data-feature-type="pillar" cx="376.00" cy="264.00" r="3.68" fill="#4f89a8" stroke="none" />
<circle data-feature-type="pillar" cx="760.00" cy="216.00" r="3.68" fill="#4f89a8" stroke="none" />
<g data-feature-type="statue"><circle cx="712.00" cy="216.00" r="3.52" fill="none" /><line x1="709.76" y1="216.00" x2="714.24" y2="216.00" /><line x1="712.00" y1="213.76" x2="712.00" y2="218.24" /><line x1="710.39" y1="214.39" x2="713.61" y2="217.61" /><line x1="710.39" y1="217.61" x2="713.61" y2="214.39" /></g>
<circle data-feature-type="pillar" cx="1160.00" cy="248.00" r="3.68" fill="#4f89a8" stroke="none" />
<circle data-feature-type="pillar" cx="1160.00" cy="232.00" r="3.68" fill="#4f89a8" stroke="none" />
<g data-feature-type="well"><circle cx="1144.00" cy="232.00" r="4.00" fill="none" /><circle cx="1144.00" cy="232.00" r="2.24" fill="none" /></g>
<circle data-feature-type="pillar" cx="1048.00" cy="712.00" r="3.68" fill="#4f89a8" stroke="none" />
<g data-feature-type="coffin"><rect x="1013.60" y="660.32" width="4.80" height="7.36" rx="0.80" ry="0.80" fill="none" /><line x1="1016.00" y1="661.94" x2="1016.00" y2="666.06" /></g>
<circle data-feature-type="pillar" cx="408.00" cy="1368.00" r="3.68" fill="#4f89a8" stroke="none" />
<circle data-feature-type="pillar" cx="424.00" cy="1368.00" r="3.68" fill="#4f89a8" stroke="none" />
<circle data-feature-type="pillar" cx="200.00" cy="1368.00" r="3.68" fill="#4f89a8" stroke="none" />
<circle data-feature-type="pillar" cx="264.00" cy="1368.00" r="3.68" fill="#4f89a8" stroke="none" />
<circle data-feature-type="pillar" cx="264.00" cy="1336.00" r="3.68" fill="#4f89a8" stroke="none" />
<g data-feature-type="statue"><circle cx="184.00" cy="1336.00" r="3.52" fill="none" /><line x1="181.76" y1="1336.00" x2="186.24" y2="1336.00" /><line x1="184.00" y1="1333.76" x2="184.00" y2="1338.24" /><line x1="182.39" y1="1334.39" x2="185.61" y2="1337.61" /><line x1="182.39" y1="1337.61" x2="185.61" y2="1334.39" /></g>
<path data-feature-type="curtain" d="M 278.40 1395.84 Q 280.00 1398.34 278.40 1400.00 Q 280.00 1401.66 278.40 1404.16" fill="none" /><path d="M 281.60 1395.84 Q 280.00 1398.34 281.60 1400.00 Q 280.00 1401.66 281.60 1404.16" fill="none" />
<circle data-feature-type="pillar" cx="984.00" cy="1240.00" r="3.68" fill="#4f89a8" stroke="none" />
<circle data-feature-type="pillar" cx="920.00" cy="1240.00" r="3.68" fill="#4f89a8" stroke="none" />
<g data-feature-type="statue"><circle cx="936.00" cy="1272.00" r="3.52" fill="none" /><line x1="933.76" y1="1272.00" x2="938.24" y2="1272.00" /><line x1="936.00" y1="1269.76" x2="936.00" y2="1274.24" /><line x1="934.39" y1="1270.39" x2="937.61" y2="1273.61" /><line x1="934.39" y1="1273.61" x2="937.61" y2="1270.39" /></g>
<path data-feature-type="curtain" d="M 966.40 1267.84 Q 968.00 1270.34 966.40 1272.00 Q 968.00 1273.66 966.40 1276.16" fill="none" /><path d="M 969.60 1267.84 Q 968.00 1270.34 969.60 1272.00 Q 968.00 1273.66 969.60 1276.16" fill="none" />
  </g>
  <g class="thresholds">
<g data-threshold-type="locked" stroke="#4f89a8" fill="none" stroke-width="1.52"><rect x="451.52" y="469.76" width="8.96" height="4.48" fill="#ffffff" /><circle cx="456.00" cy="468.77" r="1.61" /></g>
<g data-threshold-type="locked" stroke="#4f89a8" fill="none" stroke-width="1.52"><rect x="1155.52" y="1157.76" width="8.96" height="4.48" fill="#ffffff" /><circle cx="1160.00" cy="1156.77" r="1.61" /></g>
<g data-threshold-type="locked" stroke="#4f89a8" fill="none" stroke-width="1.52"><rect x="771.52" y="981.76" width="8.96" height="4.48" fill="#ffffff" /><circle cx="776.00" cy="980.77" r="1.61" /></g>
<rect data-threshold-type="door" x="275.52" y="1189.76" width="8.96" height="4.48" fill="#ffffff" stroke="#4f89a8" stroke-width="1.52" />
<rect data-threshold-type="door" x="451.52" y="917.76" width="8.96" height="4.48" fill="#ffffff" stroke="#4f89a8" stroke-width="1.52" />
<rect data-threshold-type="door" x="323.52" y="757.76" width="8.96" height="4.48" fill="#ffffff" stroke="#4f89a8" stroke-width="1.52" />
<rect data-threshold-type="door" x="163.52" y="517.76" width="8.96" height="4.48" fill="#ffffff" stroke="#4f89a8" stroke-width="1.52" />
<rect data-threshold-type="door" x="531.52" y="789.76" width="8.96" height="4.48" fill="#ffffff" stroke="#4f89a8" stroke-width="1.52" />
<rect data-threshold-type="door" x="467.52" y="629.76" width="8.96" height="4.48" fill="#ffffff" stroke="#4f89a8" stroke-width="1.52" />
<rect data-threshold-type="door" x="787.52" y="1253.76" width="8.96" height="4.48" fill="#ffffff" stroke="#4f89a8" stroke-width="1.52" />
<rect data-threshold-type="door" x="707.52" y="677.76" width="8.96" height="4.48" fill="#ffffff" stroke="#4f89a8" stroke-width="1.52" />
<g data-threshold-type="secret"><line x1="995.52" y1="392.00" x2="1004.48" y2="392.00" stroke="#4f89a8" stroke-width="1.31" stroke-dasharray="1.31 1.31" /><text x="1005.56" y="391.10" font-size="5.44" fill="#4f89a8" font-family="Courier New, monospace" font-weight="700">S</text></g>
<rect data-threshold-type="door" x="675.52" y="437.76" width="8.96" height="4.48" fill="#ffffff" stroke="#4f89a8" stroke-width="1.52" />
<rect data-threshold-type="door" x="563.52" y="1349.76" width="8.96" height="4.48" fill="#ffffff" stroke="#4f89a8" stroke-width="1.52" />
<rect data-threshold-type="door" x="899.52" y="117.76" width="8.96" height="4.48" fill="#ffffff" stroke="#4f89a8" stroke-width="1.52" />
<rect data-threshold-type="door" x="1059.52" y="485.76" width="8.96" height="4.48" fill="#ffffff" stroke="#4f89a8" stroke-width="1.52" />
<rect data-threshold-type="door" x="1059.52" y="117.76" width="8.96" height="4.48" fill="#ffffff" stroke="#4f89a8" stroke-width="1.52" />
<rect data-threshold-type="door" x="323.52" y="1157.76" width="8.96" height="4.48" fill="#ffffff" stroke="#4f89a8" stroke-width="1.52" />
<rect data-threshold-type="door" x="147.52" y="725.76" width="8.96" height="4.48" fill="#ffffff" stroke="#4f89a8" stroke-width="1.52" />
<rect data-threshold-type="door" x="147.52" y="1141.76" width="8.96" height="4.48" fill="#ffffff" stroke="#4f89a8" stroke-width="1.52" />
<rect data-threshold-type="door" x="355.52" y="293.76" width="8.96" height="4.48" fill="#ffffff" stroke="#4f89a8" stroke-width="1.52" />
<rect data-threshold-type="door" x="675.52" y="181.76" width="8.96" height="4.48" fill="#ffffff" stroke="#4f89a8" stroke-width="1.52" />
<rect data-threshold-type="door" x="1155.52" y="181.76" width="8.96" height="4.48" fill="#ffffff" stroke="#4f89a8" stroke-width="1.52" />
<rect data-threshold-type="door" x="595.52" y="1157.76" width="8.96" height="4.48" fill="#ffffff" stroke="#4f89a8" stroke-width="1.52" />
<g data-threshold-type="secret"><line x1="1059.52" y1="760.00" x2="1068.48" y2="760.00" stroke="#4f89a8" stroke-width="1.31" stroke-dasharray="1.31 1.31" /><text x="1069.56" y="759.10" font-size="5.44" fill="#4f89a8" font-family="Courier New, monospace" font-weight="700">S</text></g>
<rect data-threshold-type="door" x="419.52" y="1301.76" width="8.96" height="4.48" fill="#ffffff" stroke="#4f89a8" stroke-width="1.52" />
<rect data-threshold-type="door" x="227.52" y="1285.76" width="8.96" height="4.48" fill="#ffffff" stroke="#4f89a8" stroke-width="1.52" />
<rect data-threshold-type="door" x="979.52" y="1189.76" width="8.96" height="4.48" fill="#ffffff" stroke="#4f89a8" stroke-width="1.52" />
  </g>
  <g class="labels">
<text x="424.00" y="409.92" text-anchor="middle">1</text>
<text x="1176.00" y="1241.92" text-anchor="middle">2</text>
<text x="696.00" y="1049.92" text-anchor="middle">3</text>
<text x="328.00" y="1225.92" text-anchor="middle">4</text>
<text x="456.00" y="889.92" text-anchor="middle">5</text>
<text x="376.00" y="793.92" text-anchor="middle">6</text>
<text x="168.00" y="457.92" text-anchor="middle">7</text>
<text x="616.00" y="857.92" text-anchor="middle">8</text>
<text x="552.00" y="649.92" text-anchor="middle">9</text>
<text x="792.00" y="1337.92" text-anchor="middle">10</text>
<text x="776.00" y="665.92" text-anchor="middle">11</text>
<text x="1016.00" y="361.92" text-anchor="middle">12</text>
<text x="760.00" y="441.92" text-anchor="middle">13</text>
<text x="616.00" y="1353.92" text-anchor="middle">14</text>
<text x="936.00" y="169.92" text-anchor="middle">15</text>
<text x="1064.00" y="553.92" text-anchor="middle">16</text>
<text x="1112.00" y="121.92" text-anchor="middle">17</text>
<text x="360.00" y="1081.92" text-anchor="middle">18</text>
<text x="136.00" y="761.92" text-anchor="middle">19</text>
<text x="152.00" y="1193.92" text-anchor="middle">20</text>
<text x="360.00" y="265.92" text-anchor="middle">21</text>
<text x="744.00" y="217.92" text-anchor="middle">22</text>
<text x="1160.00" y="265.92" text-anchor="middle">23</text>
<text x="568.00" y="1193.92" text-anchor="middle">24</text>
<text x="1032.00" y="713.92" text-anchor="middle">25</text>
<text x="392.00" y="1369.92" text-anchor="middle">26</text>
<text x="232.00" y="1353.92" text-anchor="middle">27</text>
<text x="952.00" y="1241.92" text-anchor="middle">28</text>
  </g>
</svg>