<?xml version="1.0" encoding="UTF-8"?>
<svg xmlns="http://www.w3.org/2000/svg" width="1024" height="1024" viewBox="0 0 1024.00 1024.00" role="img" aria-label="MapIR render: Generated Map 14">
  <defs>
    <style>
      .grid { stroke: #cde2ec; stroke-width: 0.64; opacity: 0.72; }
      .walls { stroke: #6aa7c7; stroke-width: 1.92; fill: none; stroke-linecap: square; }
      .thresholds { fill: none; stroke-linecap: round; }
      .labels { fill: #4f89a8; font-size: 7.20px; font-family: "Courier New", monospace; font-weight: 600; }
    </style>
  </defs>
  <rect x="0" y="0" width="1024.00" height="1024.00" fill="#4393be" />
  <g class="floors">
<rect x="928.00" y="64.00" width="64.00" height="128.00" fill="#fcfdfe" />
<rect x="224.00" y="128.00" width="96.00" height="80.00" fill="#fcfdfe" />
<rect x="896.00" y="128.00" width="32.00" height="16.00" fill="#fcfdfe" />
<rect x="896.00" y="144.00" width="16.00" height="496.00" fill="#fcfdfe" />
<rect x="320.00" y="160.00" width="416.00" height="16.00" fill="#fcfdfe" />
<rect x="720.00" y="176.00" width="16.00" height="352.00" fill="#fcfdfe" />
<rect x="112.00" y="192.00" width="64.00" height="96.00" fill="#fcfdfe" />
<rect x="960.00" y="192.00" width="16.00" height="704.00" fill="#fcfdfe" />
<rect x="336.00" y="208.00" width="160.00" height="128.00" fill="#fcfdfe" />
<rect x="176.00" y="224.00" width="160.00" height="16.00" fill="#fcfdfe" />
<rect x="496.00" y="224.00" width="128.00" height="16.00" fill="#fcfdfe" />
<rect x="736.00" y="224.00" width="80.00" height="96.00" fill="#fcfdfe" />
<rect x="512.00" y="240.00" width="112.00" height="64.00" fill="#fcfdfe" />
<rect x="96.00" y="256.00" width="16.00" height="624.00" fill="#fcfdfe" />
<rect x="176.00" y="256.00" width="160.00" height="32.00" fill="#fcfdfe" />
<rect x="496.00" y="256.00" width="16.00" height="32.00" fill="#fcfdfe" />
<rect x="624.00" y="272.00" width="96.00" height="16.00" fill="#fcfdfe" />
<rect x="816.00" y="272.00" width="80.00" height="16.00" fill="#fcfdfe" />
<rect x="144.00" y="288.00" width="160.00" height="80.00" fill="#fcfdfe" />
<rect x="608.00" y="304.00" width="16.00" height="96.00" fill="#fcfdfe" />
<rect x="560.00" y="320.00" width="48.00" height="80.00" fill="#fcfdfe" />
<rect x="624.00" y="320.00" width="32.00" height="80.00" fill="#fcfdfe" />
<rect x="336.00" y="336.00" width="16.00" height="272.00" fill="#fcfdfe" />
<rect x="416.00" y="336.00" width="16.00" height="560.00" fill="#fcfdfe" />
<rect x="464.00" y="336.00" width="16.00" height="560.00" fill="#fcfdfe" />
<rect x="304.00" y="352.00" width="32.00" height="16.00" fill="#fcfdfe" />
<rect x="352.00" y="352.00" width="64.00" height="16.00" fill="#fcfdfe" />
<rect x="432.00" y="352.00" width="32.00" height="16.00" fill="#fcfdfe" />
<rect x="480.00" y="352.00" width="80.00" height="16.00" fill="#fcfdfe" />
<rect x="144.00" y="368.00" width="16.00" height="176.00" fill="#fcfdfe" />
<rect x="224.00" y="368.00" width="16.00" height="528.00" fill="#fcfdfe" />
<rect x="304.00" y="368.00" width="16.00" height="464.00" fill="#fcfdfe" />
<rect x="864.00" y="368.00" width="32.00" height="144.00" fill="#fcfdfe" />
<rect x="912.00" y="368.00" width="32.00" height="144.00" fill="#fcfdfe" />
<rect x="32.00" y="384.00" width="64.00" height="160.00" fill="#fcfdfe" />
<rect x="112.00" y="384.00" width="32.00" height="160.00" fill="#fcfdfe" />
<rect x="688.00" y="400.00" width="32.00" height="128.00" fill="#fcfdfe" />
<rect x="736.00" y="400.00" width="32.00" height="128.00" fill="#fcfdfe" />
<rect x="192.00" y="432.00" width="32.00" height="96.00" fill="#fcfdfe" />
<rect x="240.00" y="432.00" width="64.00" height="96.00" fill="#fcfdfe" />
<rect x="160.00" y="464.00" width="32.00" height="16.00" fill="#fcfdfe" />
<rect x="320.00" y="464.00" width="16.00" height="16.00" fill="#fcfdfe" />
<rect x="352.00" y="464.00" width="64.00" height="16.00" fill="#fcfdfe" />
<rect x="432.00" y="464.00" width="32.00" height="16.00" fill="#fcfdfe" />
<rect x="480.00" y="464.00" width="208.00" height="16.00" fill="#fcfdfe" />
<rect x="240.00" y="528.00" width="16.00" height="304.00" fill="#fcfdfe" />
<rect x="272.00" y="544.00" width="32.00" height="64.00" fill="#fcfdfe" />
<rect x="320.00" y="544.00" width="16.00" height="64.00" fill="#fcfdfe" />
<rect x="352.00" y="544.00" width="48.00" height="64.00" fill="#fcfdfe" />
<rect x="752.00" y="544.00" width="64.00" height="160.00" fill="#fcfdfe" />
<rect x="816.00" y="624.00" width="80.00" height="16.00" fill="#fcfdfe" />
<rect x="256.00" y="656.00" width="48.00" height="176.00" fill="#fcfdfe" />
<rect x="320.00" y="656.00" width="48.00" height="176.00" fill="#fcfdfe" />
<rect x="400.00" y="736.00" width="16.00" height="160.00" fill="#fcfdfe" />
<rect x="432.00" y="736.00" width="32.00" height="160.00" fill="#fcfdfe" />
<rect x="480.00" y="736.00" width="48.00" height="160.00" fill="#fcfdfe" />
<rect x="64.00" y="768.00" width="32.00" height="96.00" fill="#fcfdfe" />
<rect x="112.00" y="768.00" width="16.00" height="112.00" fill="#fcfdfe" />
<rect x="128.00" y="816.00" width="96.00" height="16.00" fill="#fcfdfe" />
<rect x="368.00" y="816.00" width="32.00" height="16.00" fill="#fcfdfe" />
<rect x="528.00" y="816.00" width="432.00" height="16.00" fill="#fcfdfe" />
<rect x="704.00" y="832.00" width="144.00" height="128.00" fill="#fcfdfe" />
<rect x="912.00" y="832.00" width="48.00" height="64.00" fill="#fcfdfe" />
<rect x="976.00" y="832.00" width="16.00" height="64.00" fill="#fcfdfe" />
<rect x="128.00" y="864.00" width="96.00" height="16.00" fill="#fcfdfe" />
<rect x="240.00" y="864.00" width="160.00" height="32.00" fill="#fcfdfe" />
<rect x="528.00" y="864.00" width="176.00" height="32.00" fill="#fcfdfe" />
<rect x="848.00" y="864.00" width="64.00" height="16.00" fill="#fcfdfe" />
  </g>
  <g class="grid">
<line x1="0.00" y1="0" x2="0.00" y2="1024.00" />
<line x1="16.00" y1="0" x2="16.00" y2="1024.00" />
<line x1="32.00" y1="0" x2="32.00" y2="1024.00" />
<line x1="48.00" y1="0" x2="48.00" y2="1024.00" />
<line x1="64.00" y1="0" x2="64.00" y2="1024.00" />
<line x1="80.00" y1="0" x2="80.00" y2="1024.00" />
<line x1="96.00" y1="0" x2="96.00" y2="1024.00" />
<line x1="112.00" y1="0" x2="112.00" y2="1024.00" />
<line x1="128.00" y1="0" x2="128.00" y2="1024.00" />
<line x1="144.00" y1="0" x2="144.00" y2="1024.00" />
<line x1="160.00" y1="0" x2="160.00" y2="1024.00" />
<line x1="176.00" y1="0" x2="176.00" y2="1024.00" />
<line x1="192.00" y1="0" x2="192.00" y2="1024.00" />
<line x1="208.00" y1="0" x2="208.00" y2="1024.00" />
<line x1="224.00" y1="0" x2="224.00" y2="1024.00" />
<line x1="240.00" y1="0" x2="240.00" y2="1024.00" />
<line x1="256.00" y1="0" x2="256.00" y2="1024.00" />
<line x1="272.00" y1="0" x2="272.00" y2="1024.00" />
<line x1="288.00" y1="0" x2="288.00" y2="1024.00" />
<line x1="304.00" y1="0" x2="304.00" y2="1024.00" />
<line x1="320.00" y1="0" x2="320.00" y2="1024.00" />
<line x1="336.00" y1="0" x2="336.00" y2="1024.00" />
<line x1="352.00" y1="0" x2="352.00" y2="1024.00" />
<line x1="368.00" y1="0" x2="368.00" y2="1024.00" />
<line x1="384.00" y1="0" x2="384.00" y2="1024.00" />
<line x1="400.00" y1="0" x2="400.00" y2="1024.00" />
<line x1="416.00" y1="0" x2="416.00" y2="1024.00" />
<line x1="432.00" y1="0" x2="432.00" y2="1024.00" />
<line x1="448.00" y1="0" x2="448.00" y2="1024.00" />
<line x1="464.00" y1="0" x2="464.00" y2="1024.00" />
<line x1="480.00" y1="0" x2="480.00" y2="1024.00" />
<line x1="496.00" y1="0" x2="496.00" y2="1024.00" />
<line x1="512.00" y1="0" x2="512.00" y2="1024.00" />
<line x1="528.00" y1="0" x2="528.00" y2="1024.00" />
<line x1="544.00" y1="0" x2="544.00" y2="1024.00" />
<line x1="560.00" y1="0" x2="560.00" y2="1024.00" />
<line x1="576.00" y1="0" x2="576.00" y2="1024.00" />
<line x1="592.00" y1="0" x2="592.00" y2="1024.00" />
<line x1="608.00" y1="0" x2="608.00" y2="1024.00" />
<line x1="624.00" y1="0" x2="624.00" y2="1024.00" />
<line x1="640.00" y1="0" x2="640.00" y2="1024.00" />
<line x1="656.00" y1="0" x2="656.00" y2="1024.00" />
<line x1="672.00" y1="0" x2="672.00" y2="1024.00" />
<line x1="688.00" y1="0" x2="688.00" y2="1024.00" />
<line x1="704.00" y1="0" x2="704.00" y2="1024.00" />
<line x1="720.00" y1="0" x2="720.00" y2="1024.00" />
<line x1="736.00" y1="0" x2="736.00" y2="1024.00" />
<line x1="752.00" y1="0" x2="752.00" y2="1024.00" />
<line x1="768.00" y1="0" x2="768.00" y2="1024.00" />
<line x1="784.00" y1="0" x2="784.00" y2="1024.00" />
<line x1="800.00" y1="0" x2="800.00" y2="1024.00" />
<line x1="816.00" y1="0" x2="816.00" y2="1024.00" />
<line x1="832.00" y1="0" x2="832.00" y2="1024.00" />
<line x1="848.00" y1="0" x2="848.00" y2="1024.00" />
<line x1="864.00" y1="0" x2="864.00" y2="1024.00" />
<line x1="880.00" y1="0" x2="880.00" y2="1024.00" />
<line x1="896.00" y1="0" x2="896.00" y2="1024.00" />
<line x1="912.00" y1="0" x2="912.00" y2="1024.00" />
<line x1="928.00" y1="0" x2="928.00" y2="1024.00" />
<line x1="944.00" y1="0" x2="944.00" y2="1024.00" />
<line x1="960.00" y1="0" x2="960.00" y2="1024.00" />
<line x1="976.00" y1="0" x2="976.00" y2="1024.00" />
<line x1="992.00" y1="0" x2="992.00" y2="1024.00" />
<line x1="1008.00" y1="0" x2="1008.00" y2="1024.00" />
<line x1="1024.00" y1="0" x2="1024.00" y2="1024.00" />
<line x1="0" y1="0.00" x2="1024.00" y2="0.00" />
<line x1="0" y1="16.00" x2="1024.00" y2="16.00" />
<line x1="0" y1="32.00" x2="1024.00" y2="32.00" />
<line x1="0" y1="48.00" x2="1024.00" y2="48.00" />
<line x1="0" y1="64.00" x2="1024.00" y2="64.00" />
<line x1="0" y1="80.00" x2="1024.00" y2="80.00" />
<line x1="0" y1="96.00" x2="1024.00" y2="96.00" />
<line x1="0" y1="112.00" x2="1024.00" y2="112.00" />
<line x1="0" y1="128.00" x2="1024.00" y2="128.00" />
<line x1="0" y1="144.00" x2="1024.00" y2="144.00" />
<line x1="0" y1="160.00" x2="1024.00" y2="160.00" />
<line x1="0" y1="176.00" x2="1024.00" y2="176.00" />
<line x1="0" y1="192.00" x2="1024.00" y2="192.00" />
<line x1="0" y1="208.00" x2="1024.00" y2="208.00" />
<line x1="0" y1="224.00" x2="1024.00" y2="224.00" />
<line x1="0" y1="240.00" x2="1024.00" y2="240.00" />
<line x1="0" y1="256.00" x2="1024.00" y2="256.00" />
<line x1="0" y1="272.00" x2="1024.00" y2="272.00" />
<line x1="0" y1="288.00" x2="1024.00" y2="288.00" />
<line x1="0" y1="304.00" x2="1024.00" y2="304.00" />
<line x1="0" y1="320.00" x2="1024.00" y2="320.00" />
<line x1="0" y1="336.00" x2="1024.00" y2="336.00" />
<line x1="0" y1="352.00" x2="1024.00" y2="352.00" />
<line x1="0" y1="368.00" x2="1024.00" y2="368.00" />
<line x1="0" y1="384.00" x2="1024.00" y2="384.00" />
<line x1="0" y1="400.00" x2="1024.00" y2="400.00" />
<line x1="0" y1="416.00" x2="1024.00" y2="416.00" />
<line x1="0" y1="432.00" x2="1024.00" y2="432.00" />
<line x1="0" y1="448.00" x2="1024.00" y2="448.00" />
<line x1="0" y1="464.00" x2="1024.00" y2="464.00" />
<line x1="0" y1="480.00" x2="1024.00" y2="480.00" />
<line x1="0" y1="496.00" x2="1024.00" y2="496.00" />
<line x1="0" y1="512.00" x2="1024.00" y2="512.00" />
<line x1="0" y1="528.00" x2="1024.00" y2="528.00" />
<line x1="0" y1="544.00" x2="1024.00" y2="544.00" />
<line x1="0" y1="560.00" x2="1024.00" y2="560.00" />
<line x1="0" y1="576.00" x2="1024.00" y2="576.00" />
<line x1="0" y1="592.00" x2="1024.00" y2="592.00" />
<line x1="0" y1="608.00" x2="1024.00" y2="608.00" />
<line x1="0" y1="624.00" x2="1024.00" y2="624.00" />
<line x1="0" y1="640.00" x2="1024.00" y2="640.00" />
<line x1="0" y1="656.00" x2="1024.00" y2="656.00" />
<line x1="0" y1="672.00" x2="1024.00" y2="672.00" />
<line x1="0" y1="688.00" x2="1024.00" y2="688.00" />
<line x1="0" y1="704.00" x2="1024.00" y2="704.00" />
<line x1="0" y1="720.00" x2="1024.00" y2="720.00" />
<line x1="0" y1="736.00" x2="1024.00" y2="736.00" />
<line x1="0" y1="752.00" x2="1024.00" y2="752.00" />
<line x1="0" y1="768.00" x2="1024.00" y2="768.00" />
<line x1="0" y1="784.00" x2="1024.00" y2="784.00" />
<line x1="0" y1="800.00" x2="1024.00" y2="800.00" />
<line x1="0" y1="816.00" x2="1024.00" y2="816.00" />
<line x1="0" y1="832.00" x2="1024.00" y2="832.00" />
<line x1="0" y1="848.00" x2="1024.00" y2="848.00" />
<line x1="0" y1="864.00" x2="1024.00" y2="864.00" />
<line x1="0" y1="880.00" x2="1024.00" y2="880.00" />
<line x1="0" y1="896.00" x2="1024.00" y2="896.00" />
<line x1="0" y1="912.00" x2="1024.00" y2="912.00" />
<line x1="0" y1="928.00" x2="1024.00" y2="928.00" />
<line x1="0" y1="944.00" x2="1024.00" y2="944.00" />
<line x1="0" y1="960.00" x2="1024.00" y2="960.00" />
<line x1="0" y1="976.00" x2="1024.00" y2="976.00" />
<line x1="0" y1="992.00" x2="1024.00" y2="992.00" />
<line x1="0" y1="1008.00" x2="1024.00" y2="1008.00" />
<line x1="0" y1="1024.00" x2="1024.00" y2="1024.00" />
  </g>
  <g class="walls">
<line x1="928.00" y1="64.00" x2="992.00" y2="64.00" />
<line x1="224.00" y1="128.00" x2="320.00" y2="128.00" />
<line x1="896.00" y1="128.00" x2="928.00" y2="128.00" />
<line x1="912.00" y1="144.00" x2="928.00" y2="144.00" />
<line x1="320.00" y1="160.00" x2="736.00" y2="160.00" />
<line x1="320.00" y1="176.00" x2="720.00" y2="176.00" />
<line x1="112.00" y1="192.00" x2="176.00" y2="192.00" />
<line x1="928.00" y1="192.00" x2="960.00" y2="192.00" />
<line x1="976.00" y1="192.00" x2="992.00" y2="192.00" />
<line x1="224.00" y1="208.00" x2="320.00" y2="208.00" />
<line x1="336.00" y1="208.00" x2="496.00" y2="208.00" />
<line x1="176.00" y1="224.00" x2="336.00" y2="224.00" />
<line x1="496.00" y1="224.00" x2="624.00" y2="224.00" />
<line x1="736.00" y1="224.00" x2="816.00" y2="224.00" />
<line x1="176.00" y1="240.00" x2="336.00" y2="240.00" />
<line x1="496.00" y1="240.00" x2="512.00" y2="240.00" />
<line x1="96.00" y1="256.00" x2="112.00" y2="256.00" />
<line x1="176.00" y1="256.00" x2="336.00" y2="256.00" />
<line x1="496.00" y1="256.00" x2="512.00" y2="256.00" />
<line x1="112.00" y1="288.00" x2="144.00" y2="288.00" />
<line x1="304.00" y1="288.00" x2="336.00" y2="288.00" />
<line x1="496.00" y1="288.00" x2="512.00" y2="288.00" />
<line x1="624.00" y1="288.00" x2="720.00" y2="288.00" />
<line x1="816.00" y1="288.00" x2="896.00" y2="288.00" />
<line x1="624.00" y1="272.00" x2="720.00" y2="272.00" />
<line x1="816.00" y1="272.00" x2="896.00" y2="272.00" />
<line x1="512.00" y1="304.00" x2="608.00" y2="304.00" />
<line x1="560.00" y1="320.00" x2="608.00" y2="320.00" />
<line x1="624.00" y1="320.00" x2="656.00" y2="320.00" />
<line x1="736.00" y1="320.00" x2="816.00" y2="320.00" />
<line x1="352.00" y1="336.00" x2="416.00" y2="336.00" />
<line x1="432.00" y1="336.00" x2="464.00" y2="336.00" />
<line x1="480.00" y1="336.00" x2="496.00" y2="336.00" />
<line x1="160.00" y1="368.00" x2="224.00" y2="368.00" />
<line x1="240.00" y1="368.00" x2="304.00" y2="368.00" />
<line x1="320.00" y1="368.00" x2="336.00" y2="368.00" />
<line x1="352.00" y1="368.00" x2="416.00" y2="368.00" />
<line x1="432.00" y1="368.00" x2="464.00" y2="368.00" />
<line x1="480.00" y1="368.00" x2="560.00" y2="368.00" />
<line x1="864.00" y1="368.00" x2="896.00" y2="368.00" />
<line x1="912.00" y1="368.00" x2="944.00" y2="368.00" />
<line x1="304.00" y1="352.00" x2="336.00" y2="352.00" />
<line x1="352.00" y1="352.00" x2="416.00" y2="352.00" />
<line x1="432.00" y1="352.00" x2="464.00" y2="352.00" />
<line x1="480.00" y1="352.00" x2="560.00" y2="352.00" />
<line x1="32.00" y1="384.00" x2="96.00" y2="384.00" />
<line x1="112.00" y1="384.00" x2="144.00" y2="384.00" />
<line x1="560.00" y1="400.00" x2="656.00" y2="400.00" />
<line x1="688.00" y1="400.00" x2="720.00" y2="400.00" />
<line x1="736.00" y1="400.00" x2="768.00" y2="400.00" />
<line x1="192.00" y1="432.00" x2="224.00" y2="432.00" />
<line x1="240.00" y1="432.00" x2="304.00" y2="432.00" />
<line x1="160.00" y1="464.00" x2="192.00" y2="464.00" />
<line x1="320.00" y1="464.00" x2="336.00" y2="464.00" />
<line x1="352.00" y1="464.00" x2="416.00" y2="464.00" />
<line x1="432.00" y1="464.00" x2="464.00" y2="464.00" />
<line x1="480.00" y1="464.00" x2="688.00" y2="464.00" />
<line x1="160.00" y1="480.00" x2="192.00" y2="480.00" />
<line x1="320.00" y1="480.00" x2="336.00" y2="480.00" />
<line x1="352.00" y1="480.00" x2="416.00" y2="480.00" />
<line x1="432.00" y1="480.00" x2="464.00" y2="480.00" />
<line x1="480.00" y1="480.00" x2="688.00" y2="480.00" />
<line x1="864.00" y1="512.00" x2="896.00" y2="512.00" />
<line x1="912.00" y1="512.00" x2="944.00" y2="512.00" />
<line x1="192.00" y1="528.00" x2="224.00" y2="528.00" />
<line x1="256.00" y1="528.00" x2="304.00" y2="528.00" />
<line x1="688.00" y1="528.00" x2="768.00" y2="528.00" />
<line x1="32.00" y1="544.00" x2="96.00" y2="544.00" />
<line x1="112.00" y1="544.00" x2="160.00" y2="544.00" />
<line x1="272.00" y1="544.00" x2="304.00" y2="544.00" />
<line x1="320.00" y1="544.00" x2="336.00" y2="544.00" />
<line x1="352.00" y1="544.00" x2="400.00" y2="544.00" />
<line x1="752.00" y1="544.00" x2="816.00" y2="544.00" />
<line x1="272.00" y1="608.00" x2="304.00" y2="608.00" />
<line x1="320.00" y1="608.00" x2="400.00" y2="608.00" />
<line x1="816.00" y1="624.00" x2="896.00" y2="624.00" />
<line x1="816.00" y1="640.00" x2="912.00" y2="640.00" />
<line x1="256.00" y1="656.00" x2="304.00" y2="656.00" />
<line x1="320.00" y1="656.00" x2="368.00" y2="656.00" />
<line x1="752.00" y1="704.00" x2="816.00" y2="704.00" />
<line x1="400.00" y1="736.00" x2="416.00" y2="736.00" />
<line x1="432.00" y1="736.00" x2="464.00" y2="736.00" />
<line x1="480.00" y1="736.00" x2="528.00" y2="736.00" />
<line x1="64.00" y1="768.00" x2="96.00" y2="768.00" />
<line x1="112.00" y1="768.00" x2="128.00" y2="768.00" />
<line x1="128.00" y1="816.00" x2="224.00" y2="816.00" />
<line x1="368.00" y1="816.00" x2="400.00" y2="816.00" />
<line x1="528.00" y1="816.00" x2="960.00" y2="816.00" />
<line x1="128.00" y1="832.00" x2="224.00" y2="832.00" />
<line x1="240.00" y1="832.00" x2="400.00" y2="832.00" />
<line x1="528.00" y1="832.00" x2="704.00" y2="832.00" />
<line x1="848.00" y1="832.00" x2="912.00" y2="832.00" />
<line x1="976.00" y1="832.00" x2="992.00" y2="832.00" />
<line x1="64.00" y1="864.00" x2="96.00" y2="864.00" />
<line x1="128.00" y1="864.00" x2="224.00" y2="864.00" />
<line x1="240.00" y1="864.00" x2="400.00" y2="864.00" />
<line x1="528.00" y1="864.00" x2="704.00" y2="864.00" />
<line x1="848.00" y1="864.00" x2="912.00" y2="864.00" />
<line x1="96.00" y1="880.00" x2="224.00" y2="880.00" />
<line x1="848.00" y1="880.00" x2="912.00" y2="880.00" />
<line x1="224.00" y1="896.00" x2="704.00" y2="896.00" />
<line x1="912.00" y1="896.00" x2="992.00" y2="896.00" />
<line x1="704.00" y1="960.00" x2="848.00" y2="960.00" />
<line x1="928.00" y1="64.00" x2="928.00" y2="128.00" />
<line x1="928.00" y1="144.00" x2="928.00" y2="192.00" />
<line x1="992.00" y1="64.00" x2="992.00" y2="192.00" />
<line x1="992.00" y1="832.00" x2="992.00" y2="896.00" />
<line x1="224.00" y1="128.00" x2="224.00" y2="208.00" />
<line x1="224.00" y1="368.00" x2="224.00" y2="432.00" />
<line x1="224.00" y1="528.00" x2="224.00" y2="816.00" />
<line x1="224.00" y1="832.00" x2="224.00" y2="864.00" />
<line x1="224.00" y1="880.00" x2="224.00" y2="896.00" />
<line x1="320.00" y1="128.00" x2="320.00" y2="160.00" />
<line x1="320.00" y1="176.00" x2="320.00" y2="208.00" />
<line x1="320.00" y1="368.00" x2="320.00" y2="464.00" />
<line x1="320.00" y1="480.00" x2="320.00" y2="544.00" />
<line x1="320.00" y1="608.00" x2="320.00" y2="656.00" />
<line x1="896.00" y1="128.00" x2="896.00" y2="272.00" />
<line x1="896.00" y1="288.00" x2="896.00" y2="368.00" />
<line x1="896.00" y1="512.00" x2="896.00" y2="624.00" />
<line x1="912.00" y1="144.00" x2="912.00" y2="368.00" />
<line x1="912.00" y1="512.00" x2="912.00" y2="640.00" />
<line x1="912.00" y1="832.00" x2="912.00" y2="864.00" />
<line x1="912.00" y1="880.00" x2="912.00" y2="896.00" />
<line x1="736.00" y1="160.00" x2="736.00" y2="224.00" />
<line x1="736.00" y1="320.00" x2="736.00" y2="400.00" />
<line x1="720.00" y1="176.00" x2="720.00" y2="272.00" />
<line x1="720.00" y1="288.00" x2="720.00" y2="400.00" />
<line x1="112.00" y1="192.00" x2="112.00" y2="256.00" />
<line x1="112.00" y1="288.00" x2="112.00" y2="384.00" />
<line x1="112.00" y1="544.00" x2="112.00" y2="768.00" />
<line x1="176.00" y1="192.00" x2="176.00" y2="224.00" />
<line x1="176.00" y1="240.00" x2="176.00" y2="256.00" />
<line x1="960.00" y1="192.00" x2="960.00" y2="816.00" />
<line x1="976.00" y1="192.00" x2="976.00" y2="832.00" />
<line x1="336.00" y1="208.00" x2="336.00" y2="224.00" />
<line x1="336.00" y1="240.00" x2="336.00" y2="256.00" />
<line x1="336.00" y1="288.00" x2="336.00" y2="352.00" />
<line x1="336.00" y1="368.00" x2="336.00" y2="464.00" />
<line x1="336.00" y1="480.00" x2="336.00" y2="544.00" />
<line x1="496.00" y1="208.00" x2="496.00" y2="224.00" />
<line x1="496.00" y1="240.00" x2="496.00" y2="256.00" />
<line x1="496.00" y1="288.00" x2="496.00" y2="336.00" />
<line x1="624.00" y1="224.00" x2="624.00" y2="272.00" />
<line x1="624.00" y1="288.00" x2="624.00" y2="320.00" />
<line x1="816.00" y1="224.00" x2="816.00" y2="272.00" />
<line x1="816.00" y1="288.00" x2="816.00" y2="320.00" />
<line x1="816.00" y1="544.00" x2="816.00" y2="624.00" />
<line x1="816.00" y1="640.00" x2="816.00" y2="704.00" />
<line x1="512.00" y1="240.00" x2="512.00" y2="256.00" />
<line x1="512.00" y1="288.00" x2="512.00" y2="304.00" />
<line x1="96.00" y1="256.00" x2="96.00" y2="384.00" />
<line x1="96.00" y1="544.00" x2="96.00" y2="768.00" />
<line x1="96.00" y1="864.00" x2="96.00" y2="880.00" />
<line x1="144.00" y1="288.00" x2="144.00" y2="384.00" />
<line x1="304.00" y1="288.00" x2="304.00" y2="352.00" />
<line x1="304.00" y1="368.00" x2="304.00" y2="432.00" />
<line x1="304.00" y1="528.00" x2="304.00" y2="544.00" />
<line x1="304.00" y1="608.00" x2="304.00" y2="656.00" />
<line x1="608.00" y1="304.00" x2="608.00" y2="320.00" />
<line x1="560.00" y1="320.00" x2="560.00" y2="352.00" />
<line x1="560.00" y1="368.00" x2="560.00" y2="400.00" />
<line x1="656.00" y1="320.00" x2="656.00" y2="400.00" />
<line x1="352.00" y1="336.00" x2="352.00" y2="352.00" />
<line x1="352.00" y1="368.00" x2="352.00" y2="464.00" />
<line x1="352.00" y1="480.00" x2="352.00" y2="544.00" />
<line x1="416.00" y1="336.00" x2="416.00" y2="352.00" />
<line x1="416.00" y1="368.00" x2="416.00" y2="464.00" />
<line x1="416.00" y1="480.00" x2="416.00" y2="736.00" />
<line x1="432.00" y1="336.00" x2="432.00" y2="352.00" />
<line x1="432.00" y1="368.00" x2="432.00" y2="464.00" />
<line x1="432.00" y1="480.00" x2="432.00" y2="736.00" />
<line x1="464.00" y1="336.00" x2="464.00" y2="352.00" />
<line x1="464.00" y1="368.00" x2="464.00" y2="464.00" />
<line x1="464.00" y1="480.00" x2="464.00" y2="736.00" />
<line x1="480.00" y1="336.00" x2="480.00" y2="352.00" />
<line x1="480.00" y1="368.00" x2="480.00" y2="464.00" />
<line x1="480.00" y1="480.00" x2="480.00" y2="736.00" />
<line x1="160.00" y1="368.00" x2="160.00" y2="464.00" />
<line x1="160.00" y1="480.00" x2="160.00" y2="544.00" />
<line x1="240.00" y1="368.00" x2="240.00" y2="432.00" />
<line x1="240.00" y1="832.00" x2="240.00" y2="864.00" />
<line x1="864.00" y1="368.00" x2="864.00" y2="512.00" />
<line x1="944.00" y1="368.00" x2="944.00" y2="512.00" />
<line x1="32.00" y1="384.00" x2="32.00" y2="544.00" />
<line x1="688.00" y1="400.00" x2="688.00" y2="464.00" />
<line x1="688.00" y1="480.00" x2="688.00" y2="528.00" />
<line x1="768.00" y1="400.00" x2="768.00" y2="528.00" />
<line x1="192.00" y1="432.00" x2="192.00" y2="464.00" />
<line x1="192.00" y1="480.00" x2="192.00" y2="528.00" />
<line x1="256.00" y1="528.00" x2="256.00" y2="656.00" />
<line x1="272.00" y1="544.00" x2="272.00" y2="608.00" />
<line x1="400.00" y1="544.00" x2="400.00" y2="608.00" />
<line x1="400.00" y1="736.00" x2="400.00" y2="816.00" />
<line x1="400.00" y1="832.00" x2="400.00" y2="864.00" />
<line x1="752.00" y1="544.00" x2="752.00" y2="704.00" />
<line x1="368.00" y1="656.00" x2="368.00" y2="816.00" />
<line x1="528.00" y1="736.00" x2="528.00" y2="816.00" />
<line x1="528.00" y1="832.00" x2="528.00" y2="864.00" />
<line x1="64.00" y1="768.00" x2="64.00" y2="864.00" />
<line x1="128.00" y1="768.00" x2="128.00" y2="816.00" />
<line x1="128.00" y1="832.00" x2="128.00" y2="864.00" />
<line x1="704.00" y1="832.00" x2="704.00" y2="864.00" />
<line x1="704.00" y1="896.00" x2="704.00" y2="960.00" />
<line x1="848.00" y1="832.00" x2="848.00" y2="864.00" />
<line x1="848.00" y1="880.00" x2="848.00" y2="960.00" />
  </g>
  <g class="thresholds">
<rect x="165.20" y="246.60" width="5.60" height="2.80" fill="none" stroke="#5a98b8" stroke-width="1.00" />
<rect x="485.20" y="230.60" width="5.60" height="2.80" fill="none" stroke="#5a98b8" stroke-width="1.00" />
<rect x="725.20" y="406.60" width="5.60" height="2.80" fill="none" stroke="#5a98b8" stroke-width="1.00" />
<rect x="341.20" y="550.60" width="5.60" height="2.80" fill="none" stroke="#5a98b8" stroke-width="1.00" />
<rect x="613.20" y="326.60" width="5.60" height="2.80" fill="none" stroke="#5a98b8" stroke-width="1.00" />
<rect x="901.20" y="374.60" width="5.60" height="2.80" fill="none" stroke="#5a98b8" stroke-width="1.00" />
<rect x="101.20" y="774.60" width="5.60" height="2.80" fill="none" stroke="#5a98b8" stroke-width="1.00" />
<rect x="293.20" y="358.60" width="5.60" height="2.80" fill="none" stroke="#5a98b8" stroke-width="1.00" />
<rect x="837.20" y="870.60" width="5.60" height="2.80" fill="none" stroke="#5a98b8" stroke-width="1.00" />
<rect x="325.20" y="806.60" width="5.60" height="2.80" fill="none" stroke="#5a98b8" stroke-width="1.00" />
<rect x="309.20" y="166.60" width="5.60" height="2.80" fill="none" stroke="#5a98b8" stroke-width="1.00" />
<rect x="149.20" y="470.60" width="5.60" height="2.80" fill="none" stroke="#5a98b8" stroke-width="1.00" />
<rect x="469.20" y="742.60" width="5.60" height="2.80" fill="none" stroke="#5a98b8" stroke-width="1.00" />
<rect x="933.20" y="134.60" width="5.60" height="2.80" fill="none" stroke="#5a98b8" stroke-width="1.00" />
<rect x="741.20" y="310.60" width="5.60" height="2.80" fill="none" stroke="#5a98b8" stroke-width="1.00" />
<rect x="805.20" y="630.60" width="5.60" height="2.80" fill="none" stroke="#5a98b8" stroke-width="1.00" />
<rect x="517.20" y="262.60" width="5.60" height="2.80" fill="none" stroke="#5a98b8" stroke-width="1.00" />
<rect x="229.20" y="518.60" width="5.60" height="2.80" fill="none" stroke="#5a98b8" stroke-width="1.00" />
<rect x="917.20" y="870.60" width="5.60" height="2.80" fill="none" stroke="#5a98b8" stroke-width="1.00" />
  </g>
  <g class="labels">
<text x="152.00" y="233.92" text-anchor="middle">1</text>
<text x="424.00" y="281.92" text-anchor="middle">2</text>
<text x="728.00" y="473.92" text-anchor="middle">3</text>
<text x="344.00" y="585.92" text-anchor="middle">4</text>
<text x="616.00" y="361.92" text-anchor="middle">5</text>
<text x="904.00" y="441.92" text-anchor="middle">6</text>
<text x="104.00" y="825.92" text-anchor="middle">7</text>
<text x="232.00" y="329.92" text-anchor="middle">8</text>
<text x="776.00" y="889.92" text-anchor="middle">9</text>
<text x="312.00" y="745.92" text-anchor="middle">10</text>
<text x="280.00" y="169.92" text-anchor="middle">11</text>
<text x="104.00" y="473.92" text-anchor="middle">12</text>
<text x="472.00" y="825.92" text-anchor="middle">13</text>
<text x="968.00" y="137.92" text-anchor="middle">14</text>
<text x="776.00" y="281.92" text-anchor="middle">15</text>
<text x="792.00" y="633.92" text-anchor="middle">16</text>
<text x="568.00" y="265.92" text-anchor="middle">17</text>
<text x="248.00" y="489.92" text-anchor="middle">18</text>
<text x="952.00" y="873.92" text-anchor="middle">19</text>
  </g>
</svg>