<svg xmlns="http://www.w3.org/2000/svg" viewBox="0 0 600 988" width="600" height="988">
<style>
    .bg { fill: #4a90b8; }
    .floor { fill: #f5fafd; }
    .corridor { fill: #f5fafd; }
    .grid-line { stroke: #d0e0ec; stroke-width: 0.5; }
    .wall { stroke: #16516d; stroke-width: 4; stroke-linecap: square; stroke-linejoin: miter; }
    .door { fill: #f0f6fa; stroke: #3b7a9e; stroke-width: 2; }
    .door-locked { fill: #f0f6fa; stroke: #3b7a9e; stroke-width: 2; }
    .door-locked-key { fill: #3b7a9e; stroke: none; }
    .door-secret { fill: none; stroke: #3b7a9e; stroke-width: 1.8; stroke-dasharray: 2,2; }
    .secret-label { font-family: Georgia, serif; font-weight: bold; fill: #3b7a9e; }
    .stairs { fill: none; stroke: #3b7a9e; stroke-width: 1.8; }
    .stairs-arrow { fill: #3b7a9e; stroke: none; }
    .pillar { fill: #3b7a9e; stroke: none; }
    .trap { fill: none; stroke: #3b7a9e; stroke-width: 1.8; }
    .water { fill: #dce9f2; stroke: #3b7a9e; stroke-width: 0.8; }
    .treasure { fill: none; stroke: #3b7a9e; stroke-width: 1.5; }
    .rubble { fill: #e4edf3; }
    .portcullis { fill: none; stroke: #3b7a9e; stroke-width: 1.5; }
    .archway { fill: none; stroke: #3b7a9e; stroke-width: 1.6; }
    .archway-base { fill: #3b7a9e; stroke: none; }
    .curtain { fill: none; stroke: #3b7a9e; stroke-width: 1.5; stroke-dasharray: 4,2; }
    .statue-base { fill: none; stroke: #3b7a9e; stroke-width: 1.4; }
    .statue { fill: #3b7a9e; stroke: none; }
    .altar { fill: none; stroke: #3b7a9e; stroke-width: 1.5; }
    .altar-cross { stroke: #3b7a9e; stroke-width: 1.5; }
    .well-outer { fill: none; stroke: #3b7a9e; stroke-width: 1.4; }
    .well-inner { fill: none; stroke: #3b7a9e; stroke-width: 1; }
    .fountain-outer { fill: none; stroke: #3b7a9e; stroke-width: 1.4; }
    .fountain-inner { fill: none; stroke: #3b7a9e; stroke-width: 1; }
    .fountain-jet { stroke: #3b7a9e; stroke-width: 1; }
    .firepit { fill: none; stroke: #3b7a9e; stroke-width: 1.4; }
    .firepit-flame { fill: #3b7a9e; stroke: none; opacity: 0.4; }
    .throne { fill: none; stroke: #3b7a9e; stroke-width: 1.4; }
    .throne-seat { fill: #3b7a9e; stroke: none; opacity: 0.25; }
    .throne-arm { stroke: #3b7a9e; stroke-width: 1.4; }
    .sarcophagus { fill: none; stroke: #3b7a9e; stroke-width: 1.4; }
    .sarcophagus-lid { fill: none; stroke: #3b7a9e; stroke-width: 1; opacity: 0.9; }
    .bars { stroke: #3b7a9e; stroke-width: 1.4; }
    .pit { fill: none; stroke: #3b7a9e; stroke-width: 1.4; }
    .pit-hatch { stroke: #3b7a9e; stroke-width: 1; }
    .lever-base { fill: #3b7a9e; stroke: #3b7a9e; stroke-width: 1; }
    .lever-arm { stroke: #3b7a9e; stroke-width: 1.4; }
    .lever-handle { fill: #3b7a9e; stroke: none; }
    .collapsed { fill: #dae6ee; stroke: none; }
    .rubble-dot { fill: #7eaec8; stroke: none; }
    .water-wave { fill: none; stroke: #3b7a9e; stroke-width: 0.8; opacity: 0.5; }
    .room-number { font-family: 'Helvetica Neue', Helvetica, Arial, sans-serif; font-size: 12px; font-weight: bold; fill: #1b5a78; text-anchor: start; dominant-baseline: central; }
    .title-text { font-family: Georgia, serif; font-size: 12px; fill: #f3fbff; }
    .compass-fill { fill: #f0f6fa; }
    .compass-stroke { fill: none; stroke: #1b5a78; stroke-width: 1.5; }
    .compass-text { font-family: 'Helvetica Neue', Helvetica, Arial, sans-serif; font-size: 11px; font-weight: bold; fill: #f0f6fa; text-anchor: middle; }
    .legend-box { fill: #f0f6fa; stroke: #1b5a78; stroke-width: 2; }
    .legend-title { font-family: 'Helvetica Neue', Helvetica, Arial, sans-serif; font-size: 11px; font-weight: bold; fill: #1b5a78; }
    .legend-text { font-family: 'Helvetica Neue', Helvetica, Arial, sans-serif; font-size: 8px; fill: #1b5a78; }
    .legend-sym { stroke: #3b7a9e; stroke-width: 1.5; fill: none; }
    .legend-sym-filled { fill: #3b7a9e; stroke: none; }
    .scale-box { fill: #f0f6fa; stroke: #1b5a78; stroke-width: 1; }
    .rock-hatch { stroke: #67a0c2; stroke-width: 0.5; }
  </style>
  <rect class="bg" width="600" height="988"/>
  <g class="floors">
    <rect class="floor" x="40" y="60" width="20" height="20"/>
    <rect class="floor" x="60" y="60" width="20" height="20"/>
    <rect class="floor" x="40" y="80" width="20" height="20"/>
    <rect class="floor" x="60" y="80" width="20" height="20"/>
    <rect class="corridor" x="80" y="80" width="20" height="20"/>
    <rect class="corridor" x="60" y="100" width="20" height="20"/>
    <rect class="corridor" x="80" y="100" width="20" height="20"/>
    <rect class="corridor" x="100" y="100" width="20" height="20"/>
    <rect class="corridor" x="120" y="100" width="20" height="20"/>
    <rect class="corridor" x="140" y="100" width="20" height="20"/>
    <rect class="corridor" x="160" y="100" width="20" height="20"/>
    <rect class="corridor" x="180" y="100" width="20" height="20"/>
    <rect class="corridor" x="80" y="120" width="20" height="20"/>
    <rect class="corridor" x="180" y="120" width="20" height="20"/>
    <rect class="corridor" x="80" y="140" width="20" height="20"/>
    <rect class="corridor" x="180" y="140" width="20" height="20"/>
    <rect class="corridor" x="80" y="160" width="20" height="20"/>
    <rect class="corridor" x="100" y="160" width="20" height="20"/>
    <rect class="corridor" x="120" y="160" width="20" height="20"/>
    <rect class="corridor" x="140" y="160" width="20" height="20"/>
    <rect class="corridor" x="160" y="160" width="20" height="20"/>
    <rect class="corridor" x="180" y="160" width="20" height="20"/>
    <rect class="floor" x="200" y="160" width="20" height="20"/>
    <rect class="floor" x="220" y="160" width="20" height="20"/>
    <rect class="floor" x="240" y="160" width="20" height="20"/>
    <rect class="floor" x="40" y="180" width="20" height="20"/>
    <rect class="floor" x="60" y="180" width="20" height="20"/>
    <rect class="floor" x="80" y="180" width="20" height="20"/>
    <rect class="corridor" x="180" y="180" width="20" height="20"/>
    <rect class="floor" x="200" y="180" width="20" height="20"/>
    <rect class="floor" x="220" y="180" width="20" height="20"/>
    <rect class="floor" x="240" y="180" width="20" height="20"/>
    <rect class="floor" x="40" y="200" width="20" height="20"/>
    <rect class="floor" x="60" y="200" width="20" height="20"/>
    <rect class="floor" x="80" y="200" width="20" height="20"/>
    <rect class="corridor" x="180" y="200" width="20" height="20"/>
    <rect class="floor" x="200" y="200" width="20" height="20"/>
    <rect class="floor" x="220" y="200" width="20" height="20"/>
    <rect class="floor" x="240" y="200" width="20" height="20"/>
    <rect class="floor" x="380" y="200" width="20" height="20"/>
    <rect class="floor" x="400" y="200" width="20" height="20"/>
    <rect class="floor" x="420" y="200" width="20" height="20"/>
    <rect class="floor" x="440" y="200" width="20" height="20"/>
    <rect class="floor" x="40" y="220" width="20" height="20"/>
    <rect class="floor" x="60" y="220" width="20" height="20"/>
    <rect class="floor" x="80" y="220" width="20" height="20"/>
    <rect class="corridor" x="100" y="220" width="20" height="20"/>
    <rect class="corridor" x="120" y="220" width="20" height="20"/>
    <rect class="corridor" x="140" y="220" width="20" height="20"/>
    <rect class="corridor" x="160" y="220" width="20" height="20"/>
    <rect class="corridor" x="180" y="220" width="20" height="20"/>
    <rect class="corridor" x="200" y="220" width="20" height="20"/>
    <rect class="floor" x="220" y="220" width="20" height="20"/>
    <rect class="corridor" x="240" y="220" width="20" height="20"/>
    <rect class="corridor" x="260" y="220" width="20" height="20"/>
    <rect class="corridor" x="280" y="220" width="20" height="20"/>
    <rect class="corridor" x="300" y="220" width="20" height="20"/>
    <rect class="corridor" x="320" y="220" width="20" height="20"/>
    <rect class="corridor" x="340" y="220" width="20" height="20"/>
    <rect class="corridor" x="360" y="220" width="20" height="20"/>
    <rect class="floor" x="380" y="220" width="20" height="20"/>
    <rect class="floor" x="400" y="220" width="20" height="20"/>
    <rect class="floor" x="420" y="220" width="20" height="20"/>
    <rect class="floor" x="440" y="220" width="20" height="20"/>
    <rect class="corridor" x="80" y="240" width="20" height="20"/>
    <rect class="corridor" x="180" y="240" width="20" height="20"/>
    <rect class="corridor" x="220" y="240" width="20" height="20"/>
    <rect class="floor" x="380" y="240" width="20" height="20"/>
    <rect class="floor" x="400" y="240" width="20" height="20"/>
    <rect class="floor" x="420" y="240" width="20" height="20"/>
    <rect class="floor" x="440" y="240" width="20" height="20"/>
    <rect class="corridor" x="80" y="260" width="20" height="20"/>
    <rect class="corridor" x="180" y="260" width="20" height="20"/>
    <rect class="corridor" x="220" y="260" width="20" height="20"/>
    <rect class="floor" x="380" y="260" width="20" height="20"/>
    <rect class="floor" x="400" y="260" width="20" height="20"/>
    <rect class="floor" x="420" y="260" width="20" height="20"/>
    <rect class="floor" x="440" y="260" width="20" height="20"/>
    <rect class="corridor" x="80" y="280" width="20" height="20"/>
    <rect class="corridor" x="180" y="280" width="20" height="20"/>
    <rect class="corridor" x="220" y="280" width="20" height="20"/>
    <rect class="floor" x="380" y="280" width="20" height="20"/>
    <rect class="floor" x="400" y="280" width="20" height="20"/>
    <rect class="floor" x="420" y="280" width="20" height="20"/>
    <rect class="floor" x="440" y="280" width="20" height="20"/>
    <rect class="corridor" x="80" y="300" width="20" height="20"/>
    <rect class="corridor" x="180" y="300" width="20" height="20"/>
    <rect class="corridor" x="220" y="300" width="20" height="20"/>
    <rect class="floor" x="380" y="300" width="20" height="20"/>
    <rect class="floor" x="400" y="300" width="20" height="20"/>
    <rect class="floor" x="420" y="300" width="20" height="20"/>
    <rect class="floor" x="440" y="300" width="20" height="20"/>
    <rect class="corridor" x="80" y="320" width="20" height="20"/>
    <rect class="corridor" x="180" y="320" width="20" height="20"/>
    <rect class="corridor" x="220" y="320" width="20" height="20"/>
    <rect class="corridor" x="240" y="320" width="20" height="20"/>
    <rect class="corridor" x="260" y="320" width="20" height="20"/>
    <rect class="corridor" x="280" y="320" width="20" height="20"/>
    <rect class="corridor" x="300" y="320" width="20" height="20"/>
    <rect class="corridor" x="320" y="320" width="20" height="20"/>
    <rect class="corridor" x="340" y="320" width="20" height="20"/>
    <rect class="corridor" x="360" y="320" width="20" height="20"/>
    <rect class="corridor" x="380" y="320" width="20" height="20"/>
    <rect class="corridor" x="400" y="320" width="20" height="20"/>
    <rect class="corridor" x="80" y="340" width="20" height="20"/>
    <rect class="corridor" x="180" y="340" width="20" height="20"/>
    <rect class="corridor" x="220" y="340" width="20" height="20"/>
    <rect class="corridor" x="80" y="360" width="20" height="20"/>
    <rect class="corridor" x="180" y="360" width="20" height="20"/>
    <rect class="corridor" x="220" y="360" width="20" height="20"/>
    <rect class="floor" x="40" y="380" width="20" height="20"/>
    <rect class="floor" x="60" y="380" width="20" height="20"/>
    <rect class="floor" x="80" y="380" width="20" height="20"/>
    <rect class="corridor" x="180" y="380" width="20" height="20"/>
    <rect class="corridor" x="220" y="380" width="20" height="20"/>
    <rect class="floor" x="40" y="400" width="20" height="20"/>
    <rect class="floor" x="60" y="400" width="20" height="20"/>
    <rect class="floor" x="80" y="400" width="20" height="20"/>
    <rect class="corridor" x="180" y="400" width="20" height="20"/>
    <rect class="corridor" x="220" y="400" width="20" height="20"/>
    <rect class="floor" x="380" y="400" width="20" height="20"/>
    <rect class="floor" x="400" y="400" width="20" height="20"/>
    <rect class="floor" x="420" y="400" width="20" height="20"/>
    <rect class="corridor" x="80" y="420" width="20" height="20"/>
    <rect class="corridor" x="180" y="420" width="20" height="20"/>
    <rect class="corridor" x="220" y="420" width="20" height="20"/>
    <rect class="floor" x="380" y="420" width="20" height="20"/>
    <rect class="floor" x="400" y="420" width="20" height="20"/>
    <rect class="floor" x="420" y="420" width="20" height="20"/>
    <rect class="corridor" x="80" y="440" width="20" height="20"/>
    <rect class="corridor" x="180" y="440" width="20" height="20"/>
    <rect class="floor" x="220" y="440" width="20" height="20"/>
    <rect class="corridor" x="240" y="440" width="20" height="20"/>
    <rect class="corridor" x="260" y="440" width="20" height="20"/>
    <rect class="corridor" x="280" y="440" width="20" height="20"/>
    <rect class="corridor" x="300" y="440" width="20" height="20"/>
    <rect class="corridor" x="320" y="440" width="20" height="20"/>
    <rect class="corridor" x="340" y="440" width="20" height="20"/>
    <rect class="corridor" x="360" y="440" width="20" height="20"/>
    <rect class="floor" x="380" y="440" width="20" height="20"/>
    <rect class="floor" x="400" y="440" width="20" height="20"/>
    <rect class="floor" x="420" y="440" width="20" height="20"/>
    <rect class="corridor" x="80" y="460" width="20" height="20"/>
    <rect class="floor" x="180" y="460" width="20" height="20"/>
    <rect class="floor" x="200" y="460" width="20" height="20"/>
    <rect class="floor" x="220" y="460" width="20" height="20"/>
    <rect class="corridor" x="240" y="460" width="20" height="20"/>
    <rect class="corridor" x="420" y="460" width="20" height="20"/>
    <rect class="corridor" x="80" y="480" width="20" height="20"/>
    <rect class="floor" x="180" y="480" width="20" height="20"/>
    <rect class="floor" x="200" y="480" width="20" height="20"/>
    <rect class="floor" x="220" y="480" width="20" height="20"/>
    <rect class="corridor" x="420" y="480" width="20" height="20"/>
    <rect class="corridor" x="80" y="500" width="20" height="20"/>
    <rect class="floor" x="180" y="500" width="20" height="20"/>
    <rect class="floor" x="200" y="500" width="20" height="20"/>
    <rect class="floor" x="220" y="500" width="20" height="20"/>
    <rect class="corridor" x="420" y="500" width="20" height="20"/>
    <rect class="corridor" x="80" y="520" width="20" height="20"/>
    <rect class="corridor" x="120" y="520" width="20" height="20"/>
    <rect class="corridor" x="140" y="520" width="20" height="20"/>
    <rect class="corridor" x="160" y="520" width="20" height="20"/>
    <rect class="floor" x="180" y="520" width="20" height="20"/>
    <rect class="corridor" x="220" y="520" width="20" height="20"/>
    <rect class="corridor" x="240" y="520" width="20" height="20"/>
    <rect class="corridor" x="260" y="520" width="20" height="20"/>
    <rect class="corridor" x="280" y="520" width="20" height="20"/>
    <rect class="corridor" x="300" y="520" width="20" height="20"/>
    <rect class="corridor" x="320" y="520" width="20" height="20"/>
    <rect class="corridor" x="340" y="520" width="20" height="20"/>
    <rect class="corridor" x="360" y="520" width="20" height="20"/>
    <rect class="corridor" x="380" y="520" width="20" height="20"/>
    <rect class="corridor" x="400" y="520" width="20" height="20"/>
    <rect class="corridor" x="420" y="520" width="20" height="20"/>
    <rect class="corridor" x="80" y="540" width="20" height="20"/>
    <rect class="corridor" x="120" y="540" width="20" height="20"/>
    <rect class="corridor" x="420" y="540" width="20" height="20"/>
    <rect class="corridor" x="80" y="560" width="20" height="20"/>
    <rect class="corridor" x="120" y="560" width="20" height="20"/>
    <rect class="corridor" x="420" y="560" width="20" height="20"/>
    <rect class="floor" x="80" y="580" width="20" height="20"/>
    <rect class="corridor" x="120" y="580" width="20" height="20"/>
    <rect class="corridor" x="420" y="580" width="20" height="20"/>
    <rect class="floor" x="40" y="600" width="20" height="20"/>
    <rect class="floor" x="60" y="600" width="20" height="20"/>
    <rect class="floor" x="80" y="600" width="20" height="20"/>
    <rect class="floor" x="100" y="600" width="20" height="20"/>
    <rect class="floor" x="120" y="600" width="20" height="20"/>
    <rect class="floor" x="140" y="600" width="20" height="20"/>
    <rect class="corridor" x="420" y="600" width="20" height="20"/>
    <rect class="floor" x="40" y="620" width="20" height="20"/>
    <rect class="floor" x="60" y="620" width="20" height="20"/>
    <rect class="floor" x="80" y="620" width="20" height="20"/>
    <rect class="floor" x="100" y="620" width="20" height="20"/>
    <rect class="floor" x="120" y="620" width="20" height="20"/>
    <rect class="floor" x="140" y="620" width="20" height="20"/>
    <rect class="corridor" x="420" y="620" width="20" height="20"/>
    <rect class="floor" x="40" y="640" width="20" height="20"/>
    <rect class="floor" x="60" y="640" width="20" height="20"/>
    <rect class="floor" x="80" y="640" width="20" height="20"/>
    <rect class="floor" x="100" y="640" width="20" height="20"/>
    <rect class="floor" x="120" y="640" width="20" height="20"/>
    <rect class="floor" x="140" y="640" width="20" height="20"/>
    <rect class="corridor" x="420" y="640" width="20" height="20"/>
    <rect class="floor" x="40" y="660" width="20" height="20"/>
    <rect class="floor" x="60" y="660" width="20" height="20"/>
    <rect class="floor" x="80" y="660" width="20" height="20"/>
    <rect class="floor" x="100" y="660" width="20" height="20"/>
    <rect class="floor" x="120" y="660" width="20" height="20"/>
    <rect class="floor" x="140" y="660" width="20" height="20"/>
    <rect class="corridor" x="420" y="660" width="20" height="20"/>
    <rect class="floor" x="40" y="680" width="20" height="20"/>
    <rect class="floor" x="60" y="680" width="20" height="20"/>
    <rect class="floor" x="80" y="680" width="20" height="20"/>
    <rect class="floor" x="100" y="680" width="20" height="20"/>
    <rect class="floor" x="120" y="680" width="20" height="20"/>
    <rect class="floor" x="140" y="680" width="20" height="20"/>
    <rect class="corridor" x="420" y="680" width="20" height="20"/>
    <rect class="floor" x="420" y="700" width="20" height="20"/>
    <rect class="floor" x="400" y="720" width="20" height="20"/>
    <rect class="floor" x="420" y="720" width="20" height="20"/>
    <rect class="floor" x="440" y="720" width="20" height="20"/>
    <rect class="floor" x="460" y="720" width="20" height="20"/>
    <rect class="corridor" x="240" y="740" width="20" height="20"/>
    <rect class="corridor" x="260" y="740" width="20" height="20"/>
    <rect class="corridor" x="280" y="740" width="20" height="20"/>
    <rect class="corridor" x="300" y="740" width="20" height="20"/>
    <rect class="corridor" x="320" y="740" width="20" height="20"/>
    <rect class="corridor" x="340" y="740" width="20" height="20"/>
    <rect class="corridor" x="360" y="740" width="20" height="20"/>
    <rect class="corridor" x="380" y="740" width="20" height="20"/>
    <rect class="floor" x="400" y="740" width="20" height="20"/>
    <rect class="floor" x="420" y="740" width="20" height="20"/>
    <rect class="floor" x="440" y="740" width="20" height="20"/>
    <rect class="floor" x="460" y="740" width="20" height="20"/>
    <rect class="corridor" x="240" y="760" width="20" height="20"/>
    <rect class="corridor" x="260" y="760" width="20" height="20"/>
    <rect class="corridor" x="280" y="760" width="20" height="20"/>
    <rect class="corridor" x="300" y="760" width="20" height="20"/>
    <rect class="corridor" x="320" y="760" width="20" height="20"/>
    <rect class="corridor" x="340" y="760" width="20" height="20"/>
    <rect class="corridor" x="360" y="760" width="20" height="20"/>
    <rect class="corridor" x="380" y="760" width="20" height="20"/>
    <rect class="floor" x="400" y="760" width="20" height="20"/>
    <rect class="floor" x="420" y="760" width="20" height="20"/>
    <rect class="floor" x="440" y="760" width="20" height="20"/>
    <rect class="floor" x="460" y="760" width="20" height="20"/>
    <rect class="corridor" x="220" y="780" width="20" height="20"/>
    <rect class="corridor" x="240" y="780" width="20" height="20"/>
    <rect class="corridor" x="260" y="780" width="20" height="20"/>
    <rect class="corridor" x="280" y="780" width="20" height="20"/>
    <rect class="corridor" x="300" y="780" width="20" height="20"/>
    <rect class="corridor" x="320" y="780" width="20" height="20"/>
    <rect class="corridor" x="340" y="780" width="20" height="20"/>
    <rect class="corridor" x="360" y="780" width="20" height="20"/>
    <rect class="corridor" x="380" y="780" width="20" height="20"/>
    <rect class="floor" x="400" y="780" width="20" height="20"/>
    <rect class="floor" x="420" y="780" width="20" height="20"/>
    <rect class="floor" x="440" y="780" width="20" height="20"/>
    <rect class="floor" x="460" y="780" width="20" height="20"/>
    <rect class="corridor" x="220" y="800" width="20" height="20"/>
    <rect class="corridor" x="240" y="800" width="20" height="20"/>
    <rect class="corridor" x="260" y="800" width="20" height="20"/>
    <rect class="corridor" x="220" y="820" width="20" height="20"/>
    <rect class="corridor" x="240" y="820" width="20" height="20"/>
    <rect class="corridor" x="260" y="820" width="20" height="20"/>
    <rect class="corridor" x="220" y="840" width="20" height="20"/>
    <rect class="corridor" x="240" y="840" width="20" height="20"/>
    <rect class="corridor" x="260" y="840" width="20" height="20"/>
    <rect class="corridor" x="220" y="860" width="20" height="20"/>
    <rect class="corridor" x="240" y="860" width="20" height="20"/>
    <rect class="corridor" x="260" y="860" width="20" height="20"/>
  </g>
  <g class="grid">
    <line class="grid-line" x1="40" y1="60" x2="80" y2="60"/>
    <line class="grid-line" x1="40" y1="80" x2="100" y2="80"/>
    <line class="grid-line" x1="40" y1="100" x2="200" y2="100"/>
    <line class="grid-line" x1="60" y1="120" x2="200" y2="120"/>
    <line class="grid-line" x1="80" y1="140" x2="100" y2="140"/>
    <line class="grid-line" x1="180" y1="140" x2="200" y2="140"/>
    <line class="grid-line" x1="80" y1="160" x2="260" y2="160"/>
    <line class="grid-line" x1="40" y1="180" x2="260" y2="180"/>
    <line class="grid-line" x1="40" y1="200" x2="100" y2="200"/>
    <line class="grid-line" x1="180" y1="200" x2="260" y2="200"/>
    <line class="grid-line" x1="380" y1="200" x2="460" y2="200"/>
    <line class="grid-line" x1="40" y1="220" x2="460" y2="220"/>
    <line class="grid-line" x1="40" y1="240" x2="460" y2="240"/>
    <line class="grid-line" x1="80" y1="260" x2="100" y2="260"/>
    <line class="grid-line" x1="180" y1="260" x2="200" y2="260"/>
    <line class="grid-line" x1="220" y1="260" x2="240" y2="260"/>
    <line class="grid-line" x1="380" y1="260" x2="460" y2="260"/>
    <line class="grid-line" x1="80" y1="280" x2="100" y2="280"/>
    <line class="grid-line" x1="180" y1="280" x2="200" y2="280"/>
    <line class="grid-line" x1="220" y1="280" x2="240" y2="280"/>
    <line class="grid-line" x1="380" y1="280" x2="460" y2="280"/>
    <line class="grid-line" x1="80" y1="300" x2="100" y2="300"/>
    <line class="grid-line" x1="180" y1="300" x2="200" y2="300"/>
    <line class="grid-line" x1="220" y1="300" x2="240" y2="300"/>
    <line class="grid-line" x1="380" y1="300" x2="460" y2="300"/>
    <line class="grid-line" x1="80" y1="320" x2="100" y2="320"/>
    <line class="grid-line" x1="180" y1="320" x2="200" y2="320"/>
    <line class="grid-line" x1="220" y1="320" x2="460" y2="320"/>
    <line class="grid-line" x1="80" y1="340" x2="100" y2="340"/>
    <line class="grid-line" x1="180" y1="340" x2="200" y2="340"/>
    <line class="grid-line" x1="220" y1="340" x2="420" y2="340"/>
    <line class="grid-line" x1="80" y1="360" x2="100" y2="360"/>
    <line class="grid-line" x1="180" y1="360" x2="200" y2="360"/>
    <line class="grid-line" x1="220" y1="360" x2="240" y2="360"/>
    <line class="grid-line" x1="40" y1="380" x2="100" y2="380"/>
    <line class="grid-line" x1="180" y1="380" x2="200" y2="380"/>
    <line class="grid-line" x1="220" y1="380" x2="240" y2="380"/>
    <line class="grid-line" x1="40" y1="400" x2="100" y2="400"/>
    <line class="grid-line" x1="180" y1="400" x2="200" y2="400"/>
    <line class="grid-line" x1="220" y1="400" x2="240" y2="400"/>
    <line class="grid-line" x1="380" y1="400" x2="440" y2="400"/>
    <line class="grid-line" x1="40" y1="420" x2="100" y2="420"/>
    <line class="grid-line" x1="180" y1="420" x2="200" y2="420"/>
    <line class="grid-line" x1="220" y1="420" x2="240" y2="420"/>
    <line class="grid-line" x1="380" y1="420" x2="440" y2="420"/>
    <line class="grid-line" x1="80" y1="440" x2="100" y2="440"/>
    <line class="grid-line" x1="180" y1="440" x2="200" y2="440"/>
    <line class="grid-line" x1="220" y1="440" x2="440" y2="440"/>
    <line class="grid-line" x1="80" y1="460" x2="100" y2="460"/>
    <line class="grid-line" x1="180" y1="460" x2="440" y2="460"/>
    <line class="grid-line" x1="80" y1="480" x2="100" y2="480"/>
    <line class="grid-line" x1="180" y1="480" x2="260" y2="480"/>
    <line class="grid-line" x1="420" y1="480" x2="440" y2="480"/>
    <line class="grid-line" x1="80" y1="500" x2="100" y2="500"/>
    <line class="grid-line" x1="180" y1="500" x2="240" y2="500"/>
    <line class="grid-line" x1="420" y1="500" x2="440" y2="500"/>
    <line class="grid-line" x1="80" y1="520" x2="100" y2="520"/>
    <line class="grid-line" x1="120" y1="520" x2="440" y2="520"/>
    <line class="grid-line" x1="80" y1="540" x2="100" y2="540"/>
    <line class="grid-line" x1="120" y1="540" x2="200" y2="540"/>
    <line class="grid-line" x1="220" y1="540" x2="440" y2="540"/>
    <line class="grid-line" x1="80" y1="560" x2="100" y2="560"/>
    <line class="grid-line" x1="120" y1="560" x2="140" y2="560"/>
    <line class="grid-line" x1="420" y1="560" x2="440" y2="560"/>
    <line class="grid-line" x1="80" y1="580" x2="100" y2="580"/>
    <line class="grid-line" x1="120" y1="580" x2="140" y2="580"/>
    <line class="grid-line" x1="420" y1="580" x2="440" y2="580"/>
    <line class="grid-line" x1="40" y1="600" x2="160" y2="600"/>
    <line class="grid-line" x1="420" y1="600" x2="440" y2="600"/>
    <line class="grid-line" x1="40" y1="620" x2="160" y2="620"/>
    <line class="grid-line" x1="420" y1="620" x2="440" y2="620"/>
    <line class="grid-line" x1="40" y1="640" x2="160" y2="640"/>
    <line class="grid-line" x1="420" y1="640" x2="440" y2="640"/>
    <line class="grid-line" x1="40" y1="660" x2="160" y2="660"/>
    <line class="grid-line" x1="420" y1="660" x2="440" y2="660"/>
    <line class="grid-line" x1="40" y1="680" x2="160" y2="680"/>
    <line class="grid-line" x1="420" y1="680" x2="440" y2="680"/>
    <line class="grid-line" x1="40" y1="700" x2="160" y2="700"/>
    <line class="grid-line" x1="420" y1="700" x2="440" y2="700"/>
    <line class="grid-line" x1="400" y1="720" x2="480" y2="720"/>
    <line class="grid-line" x1="240" y1="740" x2="480" y2="740"/>
    <line class="grid-line" x1="240" y1="760" x2="480" y2="760"/>
    <line class="grid-line" x1="220" y1="780" x2="480" y2="780"/>
    <line class="grid-line" x1="220" y1="800" x2="480" y2="800"/>
    <line class="grid-line" x1="220" y1="820" x2="280" y2="820"/>
    <line class="grid-line" x1="220" y1="840" x2="280" y2="840"/>
    <line class="grid-line" x1="220" y1="860" x2="280" y2="860"/>
    <line class="grid-line" x1="220" y1="880" x2="280" y2="880"/>
    <line class="grid-line" x1="40" y1="60" x2="40" y2="100"/>
    <line class="grid-line" x1="40" y1="180" x2="40" y2="240"/>
    <line class="grid-line" x1="40" y1="380" x2="40" y2="420"/>
    <line class="grid-line" x1="40" y1="600" x2="40" y2="700"/>
    <line class="grid-line" x1="60" y1="60" x2="60" y2="120"/>
    <line class="grid-line" x1="60" y1="180" x2="60" y2="240"/>
    <line class="grid-line" x1="60" y1="380" x2="60" y2="420"/>
    <line class="grid-line" x1="60" y1="600" x2="60" y2="700"/>
    <line class="grid-line" x1="80" y1="60" x2="80" y2="700"/>
    <line class="grid-line" x1="100" y1="80" x2="100" y2="700"/>
    <line class="grid-line" x1="120" y1="100" x2="120" y2="120"/>
    <line class="grid-line" x1="120" y1="160" x2="120" y2="180"/>
    <line class="grid-line" x1="120" y1="220" x2="120" y2="240"/>
    <line class="grid-line" x1="120" y1="520" x2="120" y2="700"/>
    <line class="grid-line" x1="140" y1="100" x2="140" y2="120"/>
    <line class="grid-line" x1="140" y1="160" x2="140" y2="180"/>
    <line class="grid-line" x1="140" y1="220" x2="140" y2="240"/>
    <line class="grid-line" x1="140" y1="520" x2="140" y2="700"/>
    <line class="grid-line" x1="160" y1="100" x2="160" y2="120"/>
    <line class="grid-line" x1="160" y1="160" x2="160" y2="180"/>
    <line class="grid-line" x1="160" y1="220" x2="160" y2="240"/>
    <line class="grid-line" x1="160" y1="520" x2="160" y2="540"/>
    <line class="grid-line" x1="160" y1="600" x2="160" y2="700"/>
    <line class="grid-line" x1="180" y1="100" x2="180" y2="540"/>
    <line class="grid-line" x1="200" y1="100" x2="200" y2="540"/>
    <line class="grid-line" x1="220" y1="160" x2="220" y2="540"/>
    <line class="grid-line" x1="220" y1="780" x2="220" y2="880"/>
    <line class="grid-line" x1="240" y1="160" x2="240" y2="540"/>
    <line class="grid-line" x1="240" y1="740" x2="240" y2="880"/>
    <line class="grid-line" x1="260" y1="160" x2="260" y2="240"/>
    <line class="grid-line" x1="260" y1="320" x2="260" y2="340"/>
    <line class="grid-line" x1="260" y1="440" x2="260" y2="480"/>
    <line class="grid-line" x1="260" y1="520" x2="260" y2="540"/>
    <line class="grid-line" x1="260" y1="740" x2="260" y2="880"/>
    <line class="grid-line" x1="280" y1="220" x2="280" y2="240"/>
    <line class="grid-line" x1="280" y1="320" x2="280" y2="340"/>
    <line class="grid-line" x1="280" y1="440" x2="280" y2="460"/>
    <line class="grid-line" x1="280" y1="520" x2="280" y2="540"/>
    <line class="grid-line" x1="280" y1="740" x2="280" y2="880"/>
    <line class="grid-line" x1="300" y1="220" x2="300" y2="240"/>
    <line class="grid-line" x1="300" y1="320" x2="300" y2="340"/>
    <line class="grid-line" x1="300" y1="440" x2="300" y2="460"/>
    <line class="grid-line" x1="300" y1="520" x2="300" y2="540"/>
    <line class="grid-line" x1="300" y1="740" x2="300" y2="800"/>
    <line class="grid-line" x1="320" y1="220" x2="320" y2="240"/>
    <line class="grid-line" x1="320" y1="320" x2="320" y2="340"/>
    <line class="grid-line" x1="320" y1="440" x2="320" y2="460"/>
    <line class="grid-line" x1="320" y1="520" x2="320" y2="540"/>
    <line class="grid-line" x1="320" y1="740" x2="320" y2="800"/>
    <line class="grid-line" x1="340" y1="220" x2="340" y2="240"/>
    <line class="grid-line" x1="340" y1="320" x2="340" y2="340"/>
    <line class="grid-line" x1="340" y1="440" x2="340" y2="460"/>
    <line class="grid-line" x1="340" y1="520" x2="340" y2="540"/>
    <line class="grid-line" x1="340" y1="740" x2="340" y2="800"/>
    <line class="grid-line" x1="360" y1="220" x2="360" y2="240"/>
    <line class="grid-line" x1="360" y1="320" x2="360" y2="340"/>
    <line class="grid-line" x1="360" y1="440" x2="360" y2="460"/>
    <line class="grid-line" x1="360" y1="520" x2="360" y2="540"/>
    <line class="grid-line" x1="360" y1="740" x2="360" y2="800"/>
    <line class="grid-line" x1="380" y1="200" x2="380" y2="340"/>
    <line class="grid-line" x1="380" y1="400" x2="380" y2="460"/>
    <line class="grid-line" x1="380" y1="520" x2="380" y2="540"/>
    <line class="grid-line" x1="380" y1="740" x2="380" y2="800"/>
    <line class="grid-line" x1="400" y1="200" x2="400" y2="340"/>
    <line class="grid-line" x1="400" y1="400" x2="400" y2="460"/>
    <line class="grid-line" x1="400" y1="520" x2="400" y2="540"/>
    <line class="grid-line" x1="400" y1="720" x2="400" y2="800"/>
    <line class="grid-line" x1="420" y1="200" x2="420" y2="340"/>
    <line class="grid-line" x1="420" y1="400" x2="420" y2="800"/>
    <line class="grid-line" x1="440" y1="200" x2="440" y2="320"/>
    <line class="grid-line" x1="440" y1="400" x2="440" y2="800"/>
    <line class="grid-line" x1="460" y1="200" x2="460" y2="320"/>
    <line class="grid-line" x1="460" y1="720" x2="460" y2="800"/>
    <line class="grid-line" x1="480" y1="720" x2="480" y2="800"/>
  </g>
  <g class="walls">
    <line class="wall" x1="40" y1="60" x2="80" y2="60"/>
    <line class="wall" x1="40" y1="100" x2="60" y2="100"/>
    <line class="wall" x1="100" y1="100" x2="200" y2="100"/>
    <line class="wall" x1="80" y1="80" x2="100" y2="80"/>
    <line class="wall" x1="60" y1="120" x2="80" y2="120"/>
    <line class="wall" x1="100" y1="120" x2="180" y2="120"/>
    <line class="wall" x1="100" y1="160" x2="180" y2="160"/>
    <line class="wall" x1="200" y1="160" x2="260" y2="160"/>
    <line class="wall" x1="40" y1="180" x2="80" y2="180"/>
    <line class="wall" x1="100" y1="180" x2="180" y2="180"/>
    <line class="wall" x1="380" y1="200" x2="460" y2="200"/>
    <line class="wall" x1="40" y1="240" x2="80" y2="240"/>
    <line class="wall" x1="100" y1="240" x2="180" y2="240"/>
    <line class="wall" x1="200" y1="240" x2="220" y2="240"/>
    <line class="wall" x1="240" y1="240" x2="380" y2="240"/>
    <line class="wall" x1="100" y1="220" x2="180" y2="220"/>
    <line class="wall" x1="260" y1="220" x2="380" y2="220"/>
    <line class="wall" x1="240" y1="320" x2="380" y2="320"/>
    <line class="wall" x1="420" y1="320" x2="460" y2="320"/>
    <line class="wall" x1="240" y1="340" x2="420" y2="340"/>
    <line class="wall" x1="40" y1="380" x2="80" y2="380"/>
    <line class="wall" x1="40" y1="420" x2="80" y2="420"/>
    <line class="wall" x1="380" y1="400" x2="440" y2="400"/>
    <line class="wall" x1="240" y1="440" x2="380" y2="440"/>
    <line class="wall" x1="200" y1="460" x2="220" y2="460"/>
    <line class="wall" x1="260" y1="460" x2="420" y2="460"/>
    <line class="wall" x1="240" y1="480" x2="260" y2="480"/>
    <line class="wall" x1="120" y1="520" x2="180" y2="520"/>
    <line class="wall" x1="200" y1="520" x2="220" y2="520"/>
    <line class="wall" x1="240" y1="520" x2="420" y2="520"/>
    <line class="wall" x1="140" y1="540" x2="200" y2="540"/>
    <line class="wall" x1="220" y1="540" x2="420" y2="540"/>
    <line class="wall" x1="40" y1="600" x2="80" y2="600"/>
    <line class="wall" x1="100" y1="600" x2="120" y2="600"/>
    <line class="wall" x1="140" y1="600" x2="160" y2="600"/>
    <line class="wall" x1="40" y1="700" x2="160" y2="700"/>
    <line class="wall" x1="400" y1="720" x2="420" y2="720"/>
    <line class="wall" x1="440" y1="720" x2="480" y2="720"/>
    <line class="wall" x1="240" y1="740" x2="400" y2="740"/>
    <line class="wall" x1="220" y1="780" x2="240" y2="780"/>
    <line class="wall" x1="280" y1="800" x2="480" y2="800"/>
    <line class="wall" x1="220" y1="880" x2="280" y2="880"/>
    <line class="wall" x1="40" y1="60" x2="40" y2="100"/>
    <line class="wall" x1="40" y1="180" x2="40" y2="240"/>
    <line class="wall" x1="40" y1="380" x2="40" y2="420"/>
    <line class="wall" x1="40" y1="600" x2="40" y2="700"/>
    <line class="wall" x1="80" y1="60" x2="80" y2="80"/>
    <line class="wall" x1="80" y1="120" x2="80" y2="180"/>
    <line class="wall" x1="80" y1="240" x2="80" y2="380"/>
    <line class="wall" x1="80" y1="420" x2="80" y2="600"/>
    <line class="wall" x1="100" y1="80" x2="100" y2="100"/>
    <line class="wall" x1="100" y1="120" x2="100" y2="160"/>
    <line class="wall" x1="100" y1="180" x2="100" y2="220"/>
    <line class="wall" x1="100" y1="240" x2="100" y2="600"/>
    <line class="wall" x1="60" y1="100" x2="60" y2="120"/>
    <line class="wall" x1="200" y1="100" x2="200" y2="160"/>
    <line class="wall" x1="200" y1="240" x2="200" y2="460"/>
    <line class="wall" x1="200" y1="520" x2="200" y2="540"/>
    <line class="wall" x1="180" y1="120" x2="180" y2="160"/>
    <line class="wall" x1="180" y1="180" x2="180" y2="220"/>
    <line class="wall" x1="180" y1="240" x2="180" y2="520"/>
    <line class="wall" x1="260" y1="160" x2="260" y2="220"/>
    <line class="wall" x1="260" y1="460" x2="260" y2="480"/>
    <line class="wall" x1="380" y1="200" x2="380" y2="220"/>
    <line class="wall" x1="380" y1="240" x2="380" y2="320"/>
    <line class="wall" x1="380" y1="400" x2="380" y2="440"/>
    <line class="wall" x1="460" y1="200" x2="460" y2="320"/>
    <line class="wall" x1="220" y1="240" x2="220" y2="460"/>
    <line class="wall" x1="220" y1="520" x2="220" y2="540"/>
    <line class="wall" x1="220" y1="780" x2="220" y2="880"/>
    <line class="wall" x1="240" y1="240" x2="240" y2="320"/>
    <line class="wall" x1="240" y1="340" x2="240" y2="440"/>
    <line class="wall" x1="240" y1="480" x2="240" y2="520"/>
    <line class="wall" x1="240" y1="740" x2="240" y2="780"/>
    <line class="wall" x1="420" y1="320" x2="420" y2="340"/>
    <line class="wall" x1="420" y1="460" x2="420" y2="520"/>
    <line class="wall" x1="420" y1="540" x2="420" y2="720"/>
    <line class="wall" x1="440" y1="400" x2="440" y2="720"/>
    <line class="wall" x1="120" y1="520" x2="120" y2="600"/>
    <line class="wall" x1="140" y1="540" x2="140" y2="600"/>
    <line class="wall" x1="160" y1="600" x2="160" y2="700"/>
    <line class="wall" x1="400" y1="720" x2="400" y2="740"/>
    <line class="wall" x1="480" y1="720" x2="480" y2="800"/>
    <line class="wall" x1="280" y1="800" x2="280" y2="880"/>
  </g>
  <g class="features">
    <line class="door-secret" x1="230" y1="222" x2="230" y2="238"/>
      <text class="secret-label" x="230" y="231" font-size="9" text-anchor="middle" dominant-baseline="central">S</text>
    <circle class="well-outer" cx="430" cy="270" r="4.800000000000001"/>
      <circle class="well-inner" cx="430" cy="270" r="2.4000000000000004"/>
    <rect class="door" x="222.98" y="446.88" width="14.040000000000001" height="6.240000000000001" rx="1"/>
    <rect class="door-locked" x="186.88" y="522.98" width="6.240000000000001" height="14.040000000000001" rx="1"/>
      <circle class="door-locked-key" cx="190" cy="530" r="1.4040000000000001"/>
    <rect class="door" x="82.98" y="586.88" width="14.040000000000001" height="6.240000000000001" rx="1"/>
    <circle class="pillar" cx="70" cy="630" r="3.5999999999999996"/>
    <circle class="pillar" cx="130" cy="630" r="3.5999999999999996"/>
    <circle class="pillar" cx="70" cy="670" r="3.5999999999999996"/>
    <circle class="pillar" cx="130" cy="670" r="3.5999999999999996"/>
    <rect class="door" x="422.98" y="706.88" width="14.040000000000001" height="6.240000000000001" rx="1"/>
    <circle class="pillar" cx="430" cy="750" r="3.5999999999999996"/>
  </g>
  <g class="labels">
    <text class="room-number" x="46" y="615">1</text>
    <text class="room-number" x="386" y="215">2</text>
    <text class="room-number" x="406" y="735">3</text>
    <text class="room-number" x="386" y="415">4</text>
    <text class="room-number" x="186" y="475">5</text>
    <text class="room-number" x="206" y="175">6</text>
    <text class="room-number" x="46" y="195">7</text>
    <text class="room-number" x="46" y="395">8</text>
    <text class="room-number" x="46" y="75">9</text>
  </g>
  <g class="compass-group">
    <g class="compass" transform="translate(550,810)">
      <polygon class="compass-fill" points="0,-33.599999999999994 10.8,7.199999999999999 2.88,7.199999999999999 2.88,24 -2.88,24 -2.88,7.199999999999999 -10.8,7.199999999999999"/>
      <polygon class="compass-stroke" points="0,-33.599999999999994 10.8,7.199999999999999 2.88,7.199999999999999 2.88,24 -2.88,24 -2.88,7.199999999999999 -10.8,7.199999999999999"/>
      <circle class="compass-fill" cx="0" cy="28.799999999999997" r="6"/>
      <circle class="compass-stroke" cx="0" cy="28.799999999999997" r="6"/>
      <text class="compass-text" x="0" y="43.2" dominant-baseline="hanging">North</text>
    </g>
  </g>
  <g class="legend" transform="translate(20,890)">
      <rect class="legend-box" x="0" y="0" width="460" height="88" rx="3"/>
      <text class="legend-title" x="10" y="23">LEGEND</text>
      <rect class="scale-box" x="400" y="12" width="20" height="20"/>
      <text class="legend-text" x="424" y="23">= 10ft.</text>
      <line class="legend-sym" x1="10" y1="30" x2="450" y2="30" stroke-width="0.5"/>
      <rect class="door" x="12.085999999999999" y="39.816" width="9.828000000000001" height="4.368000000000001" rx="1"/>
      <text class="legend-text" x="28" y="42" dominant-baseline="central">Door</text>
      <rect class="door-locked" x="122.086" y="39.816" width="9.828000000000001" height="4.368000000000001" rx="1"/>
      <circle class="door-locked-key" cx="127" cy="42" r="0.9828000000000001"/>
      <text class="legend-text" x="138" y="42" dominant-baseline="central">Locked Door</text>
      <line class="door-secret" x1="232" y1="42" x2="242" y2="42"/>
      <text class="secret-label" x="237" y="43" font-size="6.3" text-anchor="middle" dominant-baseline="central">S</text>
      <text class="legend-text" x="248" y="42" dominant-baseline="central">Secret Door</text>
      <circle class="pillar" cx="347" cy="42" r="2.52"/>
      <text class="legend-text" x="358" y="42" dominant-baseline="central">Column</text>
      <circle class="well-outer" cx="17" cy="66" r="3.3600000000000003"/>
      <circle class="well-inner" cx="17" cy="66" r="1.6800000000000002"/>
      <text class="legend-text" x="28" y="66" dominant-baseline="central">Well</text>
    </g>
</svg>