<?xml version="1.0" encoding="UTF-8"?>
<svg xmlns="http://www.w3.org/2000/svg" width="288" height="216" viewBox="0 0 288.00 216.00" role="img" aria-label="MapIR render: Sample MapIR">
  <defs>
    <style>
      .grid { stroke: #cde2ec; stroke-width: 0.72; opacity: 0.72; }
      .walls { stroke: #6aa7c7; stroke-width: 2.16; fill: none; stroke-linecap: square; }
      .thresholds { fill: none; stroke-linecap: round; }
      .labels { fill: #4f89a8; font-size: 8.10px; font-family: "Courier New", monospace; font-weight: 600; }
    </style>
  </defs>
  <rect x="0" y="0" width="288.00" height="216.00" fill="#4393be" />
  <g class="floors">
<rect x="36.00" y="36.00" width="90.00" height="72.00" fill="#fcfdfe" />
<rect x="144.00" y="54.00" width="72.00" height="54.00" fill="#fcfdfe" />
<rect x="126.00" y="72.00" width="18.00" height="18.00" fill="#fcfdfe" />
  </g>
  <g class="grid">
<line x1="0.00" y1="0" x2="0.00" y2="216.00" />
<line x1="18.00" y1="0" x2="18.00" y2="216.00" />
<line x1="36.00" y1="0" x2="36.00" y2="216.00" />
<line x1="54.00" y1="0" x2="54.00" y2="216.00" />
<line x1="72.00" y1="0" x2="72.00" y2="216.00" />
<line x1="90.00" y1="0" x2="90.00" y2="216.00" />
<line x1="108.00" y1="0" x2="108.00" y2="216.00" />
<line x1="126.00" y1="0" x2="126.00" y2="216.00" />
<line x1="144.00" y1="0" x2="144.00" y2="216.00" />
<line x1="162.00" y1="0" x2="162.00" y2="216.00" />
<line x1="180.00" y1="0" x2="180.00" y2="216.00" />
<line x1="198.00" y1="0" x2="198.00" y2="216.00" />
<line x1="216.00" y1="0" x2="216.00" y2="216.00" />
<line x1="234.00" y1="0" x2="234.00" y2="216.00" />
<line x1="252.00" y1="0" x2="252.00" y2="216.00" />
<line x1="270.00" y1="0" x2="270.00" y2="216.00" />
<line x1="288.00" y1="0" x2="288.00" y2="216.00" />
<line x1="0" y1="0.00" x2="288.00" y2="0.00" />
<line x1="0" y1="18.00" x2="288.00" y2="18.00" />
<line x1="0" y1="36.00" x2="288.00" y2="36.00" />
<line x1="0" y1="54.00" x2="288.00" y2="54.00" />
<line x1="0" y1="72.00" x2="288.00" y2="72.00" />
<line x1="0" y1="90.00" x2="288.00" y2="90.00" />
<line x1="0" y1="108.00" x2="288.00" y2="108.00" />
<line x1="0" y1="126.00" x2="288.00" y2="126.00" />
<line x1="0" y1="144.00" x2="288.00" y2="144.00" />
<line x1="0" y1="162.00" x2="288.00" y2="162.00" />
<line x1="0" y1="180.00" x2="288.00" y2="180.00" />
<line x1="0" y1="198.00" x2="288.00" y2="198.00" />
<line x1="0" y1="216.00" x2="288.00" y2="216.00" />
  </g>
  <g class="walls">
<line x1="36.00" y1="36.00" x2="126.00" y2="36.00" />
<line x1="126.00" y1="36.00" x2="126.00" y2="108.00" />
<line x1="36.00" y1="108.00" x2="126.00" y2="108.00" />
<line x1="36.00" y1="36.00" x2="36.00" y2="108.00" />
<line x1="144.00" y1="54.00" x2="216.00" y2="54.00" />
<line x1="216.00" y1="54.00" x2="216.00" y2="108.00" />
<line x1="144.00" y1="108.00" x2="216.00" y2="108.00" />
<line x1="144.00" y1="54.00" x2="144.00" y2="108.00" />
<line x1="126.00" y1="72.00" x2="144.00" y2="72.00" />
<line x1="126.00" y1="90.00" x2="144.00" y2="90.00" />
<line x1="126.00" y1="72.00" x2="126.00" y2="90.00" />
<line x1="144.00" y1="72.00" x2="144.00" y2="90.00" />
  </g>
  <g class="thresholds">
<rect x="131.85" y="79.42" width="6.30" height="3.15" fill="none" stroke="#5a98b8" stroke-width="1.00" />
  </g>
  <g class="labels">
<text x="63.00" y="65.16" text-anchor="middle">1</text>
<text x="171.00" y="83.16" text-anchor="middle">2</text>
  </g>
</svg>