<?xml version="1.0" encoding="UTF-8"?>
<svg xmlns="http://www.w3.org/2000/svg" width="1280" height="1536" viewBox="0 0 1280.00 1536.00" role="img" aria-label="MapIR render: Learned Generated Map 2">
  <defs>
    <style>
      .grid { stroke: #cde2ec; stroke-width: 0.64; opacity: 0.72; }
      .walls { stroke: #6aa7c7; stroke-width: 1.92; fill: none; stroke-linecap: square; }
      .thresholds { fill: none; stroke-linecap: round; }
      .features { stroke: #4f89a8; fill: none; stroke-width: 1.60; stroke-linecap: round; stroke-linejoin: round; }
      .labels { fill: #4f89a8; font-size: 7.20px; font-family: "Courier New", monospace; font-weight: 600; }
    </style>
  </defs>
  <rect x="0" y="0" width="1280.00" height="1536.00" fill="#4393be" />
  <g class="floors">
<rect x="576.00" y="48.00" width="64.00" height="144.00" fill="#fcfdfe" />
<rect x="192.00" y="64.00" width="128.00" height="96.00" fill="#fcfdfe" />
<rect x="1040.00" y="64.00" width="64.00" height="80.00" fill="#fcfdfe" />
<rect x="640.00" y="96.00" width="400.00" height="16.00" fill="#fcfdfe" />
<rect x="1104.00" y="96.00" width="80.00" height="16.00" fill="#fcfdfe" />
<rect x="80.00" y="112.00" width="112.00" height="16.00" fill="#fcfdfe" />
<rect x="320.00" y="112.00" width="256.00" height="16.00" fill="#fcfdfe" />
<rect x="1168.00" y="112.00" width="16.00" height="352.00" fill="#fcfdfe" />
<rect x="80.00" y="128.00" width="16.00" height="544.00" fill="#fcfdfe" />
<rect x="1072.00" y="144.00" width="16.00" height="320.00" fill="#fcfdfe" />
<rect x="208.00" y="160.00" width="16.00" height="320.00" fill="#fcfdfe" />
<rect x="144.00" y="192.00" width="64.00" height="144.00" fill="#fcfdfe" />
<rect x="224.00" y="192.00" width="64.00" height="144.00" fill="#fcfdfe" />
<rect x="880.00" y="208.00" width="96.00" height="128.00" fill="#fcfdfe" />
<rect x="384.00" y="240.00" width="96.00" height="112.00" fill="#fcfdfe" />
<rect x="288.00" y="256.00" width="96.00" height="16.00" fill="#fcfdfe" />
<rect x="480.00" y="256.00" width="16.00" height="80.00" fill="#fcfdfe" />
<rect x="1152.00" y="256.00" width="16.00" height="176.00" fill="#fcfdfe" />
<rect x="368.00" y="272.00" width="16.00" height="64.00" fill="#fcfdfe" />
<rect x="976.00" y="272.00" width="48.00" height="16.00" fill="#fcfdfe" />
<rect x="1120.00" y="272.00" width="32.00" height="144.00" fill="#fcfdfe" />
<rect x="1184.00" y="272.00" width="32.00" height="144.00" fill="#fcfdfe" />
<rect x="1008.00" y="288.00" width="16.00" height="576.00" fill="#fcfdfe" />
<rect x="1104.00" y="288.00" width="16.00" height="112.00" fill="#fcfdfe" />
<rect x="1216.00" y="288.00" width="16.00" height="112.00" fill="#fcfdfe" />
<rect x="1088.00" y="320.00" width="16.00" height="48.00" fill="#fcfdfe" />
<rect x="1232.00" y="320.00" width="16.00" height="48.00" fill="#fcfdfe" />
<rect x="960.00" y="336.00" width="16.00" height="544.00" fill="#fcfdfe" />
<rect x="976.00" y="400.00" width="32.00" height="96.00" fill="#fcfdfe" />
<rect x="1024.00" y="400.00" width="16.00" height="96.00" fill="#fcfdfe" />
<rect x="32.00" y="432.00" width="48.00" height="64.00" fill="#fcfdfe" />
<rect x="96.00" y="432.00" width="32.00" height="64.00" fill="#fcfdfe" />
<rect x="864.00" y="448.00" width="96.00" height="16.00" fill="#fcfdfe" />
<rect x="1040.00" y="448.00" width="32.00" height="16.00" fill="#fcfdfe" />
<rect x="1088.00" y="448.00" width="80.00" height="16.00" fill="#fcfdfe" />
<rect x="128.00" y="464.00" width="80.00" height="16.00" fill="#fcfdfe" />
<rect x="832.00" y="464.00" width="96.00" height="96.00" fill="#fcfdfe" />
<rect x="624.00" y="496.00" width="96.00" height="176.00" fill="#fcfdfe" />
<rect x="816.00" y="496.00" width="16.00" height="32.00" fill="#fcfdfe" />
<rect x="928.00" y="496.00" width="16.00" height="32.00" fill="#fcfdfe" />
<rect x="608.00" y="512.00" width="16.00" height="144.00" fill="#fcfdfe" />
<rect x="720.00" y="512.00" width="96.00" height="16.00" fill="#fcfdfe" />
<rect x="592.00" y="528.00" width="16.00" height="112.00" fill="#fcfdfe" />
<rect x="720.00" y="528.00" width="32.00" height="112.00" fill="#fcfdfe" />
<rect x="64.00" y="544.00" width="16.00" height="128.00" fill="#fcfdfe" />
<rect x="96.00" y="544.00" width="64.00" height="128.00" fill="#fcfdfe" />
<rect x="480.00" y="544.00" width="64.00" height="160.00" fill="#fcfdfe" />
<rect x="48.00" y="560.00" width="16.00" height="96.00" fill="#fcfdfe" />
<rect x="160.00" y="560.00" width="16.00" height="96.00" fill="#fcfdfe" />
<rect x="864.00" y="560.00" width="32.00" height="32.00" fill="#fcfdfe" />
<rect x="32.00" y="576.00" width="16.00" height="64.00" fill="#fcfdfe" />
<rect x="176.00" y="576.00" width="16.00" height="64.00" fill="#fcfdfe" />
<rect x="272.00" y="576.00" width="208.00" height="16.00" fill="#fcfdfe" />
<rect x="544.00" y="576.00" width="48.00" height="16.00" fill="#fcfdfe" />
<rect x="752.00" y="576.00" width="112.00" height="16.00" fill="#fcfdfe" />
<rect x="896.00" y="576.00" width="64.00" height="16.00" fill="#fcfdfe" />
<rect x="976.00" y="576.00" width="32.00" height="16.00" fill="#fcfdfe" />
<rect x="1024.00" y="576.00" width="144.00" height="16.00" fill="#fcfdfe" />
<rect x="272.00" y="592.00" width="16.00" height="240.00" fill="#fcfdfe" />
<rect x="880.00" y="592.00" width="16.00" height="128.00" fill="#fcfdfe" />
<rect x="1152.00" y="592.00" width="16.00" height="736.00" fill="#fcfdfe" />
<rect x="544.00" y="624.00" width="48.00" height="16.00" fill="#fcfdfe" />
<rect x="720.00" y="640.00" width="16.00" height="16.00" fill="#fcfdfe" />
<rect x="928.00" y="656.00" width="32.00" height="112.00" fill="#fcfdfe" />
<rect x="976.00" y="656.00" width="32.00" height="112.00" fill="#fcfdfe" />
<rect x="112.00" y="672.00" width="16.00" height="272.00" fill="#fcfdfe" />
<rect x="688.00" y="672.00" width="16.00" height="272.00" fill="#fcfdfe" />
<rect x="512.00" y="704.00" width="16.00" height="496.00" fill="#fcfdfe" />
<rect x="896.00" y="704.00" width="32.00" height="16.00" fill="#fcfdfe" />
<rect x="192.00" y="736.00" width="80.00" height="96.00" fill="#fcfdfe" />
<rect x="288.00" y="736.00" width="80.00" height="96.00" fill="#fcfdfe" />
<rect x="624.00" y="736.00" width="64.00" height="112.00" fill="#fcfdfe" />
<rect x="704.00" y="736.00" width="64.00" height="112.00" fill="#fcfdfe" />
<rect x="1104.00" y="784.00" width="48.00" height="96.00" fill="#fcfdfe" />
<rect x="1168.00" y="784.00" width="32.00" height="96.00" fill="#fcfdfe" />
<rect x="864.00" y="816.00" width="96.00" height="64.00" fill="#fcfdfe" />
<rect x="976.00" y="816.00" width="32.00" height="64.00" fill="#fcfdfe" />
<rect x="48.00" y="832.00" width="64.00" height="112.00" fill="#fcfdfe" />
<rect x="128.00" y="832.00" width="16.00" height="112.00" fill="#fcfdfe" />
<rect x="256.00" y="832.00" width="16.00" height="128.00" fill="#fcfdfe" />
<rect x="336.00" y="832.00" width="16.00" height="400.00" fill="#fcfdfe" />
<rect x="1024.00" y="832.00" width="80.00" height="16.00" fill="#fcfdfe" />
<rect x="192.00" y="848.00" width="64.00" height="112.00" fill="#fcfdfe" />
<rect x="272.00" y="848.00" width="48.00" height="112.00" fill="#fcfdfe" />
<rect x="736.00" y="848.00" width="16.00" height="304.00" fill="#fcfdfe" />
<rect x="1024.00" y="848.00" width="16.00" height="560.00" fill="#fcfdfe" />
<rect x="144.00" y="880.00" width="48.00" height="16.00" fill="#fcfdfe" />
<rect x="320.00" y="896.00" width="16.00" height="16.00" fill="#fcfdfe" />
<rect x="352.00" y="896.00" width="48.00" height="16.00" fill="#fcfdfe" />
<rect x="528.00" y="896.00" width="128.00" height="80.00" fill="#fcfdfe" />
<rect x="384.00" y="912.00" width="16.00" height="208.00" fill="#fcfdfe" />
<rect x="656.00" y="928.00" width="32.00" height="16.00" fill="#fcfdfe" />
<rect x="576.00" y="976.00" width="16.00" height="208.00" fill="#fcfdfe" />
<rect x="144.00" y="1008.00" width="80.00" height="128.00" fill="#fcfdfe" />
<rect x="352.00" y="1008.00" width="32.00" height="80.00" fill="#fcfdfe" />
<rect x="400.00" y="1008.00" width="32.00" height="80.00" fill="#fcfdfe" />
<rect x="528.00" y="1024.00" width="48.00" height="160.00" fill="#fcfdfe" />
<rect x="592.00" y="1024.00" width="48.00" height="160.00" fill="#fcfdfe" />
<rect x="224.00" y="1040.00" width="112.00" height="16.00" fill="#fcfdfe" />
<rect x="640.00" y="1040.00" width="16.00" height="128.00" fill="#fcfdfe" />
<rect x="496.00" y="1056.00" width="16.00" height="96.00" fill="#fcfdfe" />
<rect x="656.00" y="1056.00" width="16.00" height="96.00" fill="#fcfdfe" />
<rect x="688.00" y="1056.00" width="48.00" height="64.00" fill="#fcfdfe" />
<rect x="752.00" y="1056.00" width="32.00" height="64.00" fill="#fcfdfe" />
<rect x="672.00" y="1088.00" width="16.00" height="16.00" fill="#fcfdfe" />
<rect x="784.00" y="1088.00" width="16.00" height="288.00" fill="#fcfdfe" />
<rect x="400.00" y="1104.00" width="96.00" height="16.00" fill="#fcfdfe" />
<rect x="992.00" y="1104.00" width="32.00" height="64.00" fill="#fcfdfe" />
<rect x="1040.00" y="1104.00" width="32.00" height="64.00" fill="#fcfdfe" />
<rect x="176.00" y="1136.00" width="16.00" height="160.00" fill="#fcfdfe" />
<rect x="272.00" y="1136.00" width="64.00" height="96.00" fill="#fcfdfe" />
<rect x="352.00" y="1136.00" width="64.00" height="96.00" fill="#fcfdfe" />
<rect x="752.00" y="1136.00" width="32.00" height="16.00" fill="#fcfdfe" />
<rect x="800.00" y="1136.00" width="192.00" height="16.00" fill="#fcfdfe" />
<rect x="416.00" y="1184.00" width="96.00" height="16.00" fill="#fcfdfe" />
<rect x="432.00" y="1200.00" width="16.00" height="160.00" fill="#fcfdfe" />
<rect x="752.00" y="1200.00" width="32.00" height="128.00" fill="#fcfdfe" />
<rect x="800.00" y="1200.00" width="32.00" height="128.00" fill="#fcfdfe" />
<rect x="80.00" y="1216.00" width="96.00" height="144.00" fill="#fcfdfe" />
<rect x="1040.00" y="1232.00" width="16.00" height="176.00" fill="#fcfdfe" />
<rect x="992.00" y="1248.00" width="32.00" height="144.00" fill="#fcfdfe" />
<rect x="1056.00" y="1248.00" width="32.00" height="144.00" fill="#fcfdfe" />
<rect x="976.00" y="1264.00" width="16.00" height="112.00" fill="#fcfdfe" />
<rect x="1088.00" y="1264.00" width="16.00" height="112.00" fill="#fcfdfe" />
<rect x="368.00" y="1296.00" width="64.00" height="64.00" fill="#fcfdfe" />
<rect x="448.00" y="1296.00" width="48.00" height="64.00" fill="#fcfdfe" />
<rect x="496.00" y="1312.00" width="256.00" height="16.00" fill="#fcfdfe" />
<rect x="832.00" y="1312.00" width="144.00" height="16.00" fill="#fcfdfe" />
<rect x="1104.00" y="1312.00" width="48.00" height="16.00" fill="#fcfdfe" />
<rect x="560.00" y="1328.00" width="176.00" height="80.00" fill="#fcfdfe" />
<rect x="736.00" y="1360.00" width="48.00" height="16.00" fill="#fcfdfe" />
  </g>
  <g class="grid">
<line x1="0.00" y1="0" x2="0.00" y2="1536.00" />
<line x1="16.00" y1="0" x2="16.00" y2="1536.00" />
<line x1="32.00" y1="0" x2="32.00" y2="1536.00" />
<line x1="48.00" y1="0" x2="48.00" y2="1536.00" />
<line x1="64.00" y1="0" x2="64.00" y2="1536.00" />
<line x1="80.00" y1="0" x2="80.00" y2="1536.00" />
<line x1="96.00" y1="0" x2="96.00" y2="1536.00" />
<line x1="112.00" y1="0" x2="112.00" y2="1536.00" />
<line x1="128.00" y1="0" x2="128.00" y2="1536.00" />
<line x1="144.00" y1="0" x2="144.00" y2="1536.00" />
<line x1="160.00" y1="0" x2="160.00" y2="1536.00" />
<line x1="176.00" y1="0" x2="176.00" y2="1536.00" />
<line x1="192.00" y1="0" x2="192.00" y2="1536.00" />
<line x1="208.00" y1="0" x2="208.00" y2="1536.00" />
<line x1="224.00" y1="0" x2="224.00" y2="1536.00" />
<line x1="240.00" y1="0" x2="240.00" y2="1536.00" />
<line x1="256.00" y1="0" x2="256.00" y2="1536.00" />
<line x1="272.00" y1="0" x2="272.00" y2="1536.00" />
<line x1="288.00" y1="0" x2="288.00" y2="1536.00" />
<line x1="304.00" y1="0" x2="304.00" y2="1536.00" />
<line x1="320.00" y1="0" x2="320.00" y2="1536.00" />
<line x1="336.00" y1="0" x2="336.00" y2="1536.00" />
<line x1="352.00" y1="0" x2="352.00" y2="1536.00" />
<line x1="368.00" y1="0" x2="368.00" y2="1536.00" />
<line x1="384.00" y1="0" x2="384.00" y2="1536.00" />
<line x1="400.00" y1="0" x2="400.00" y2="1536.00" />
<line x1="416.00" y1="0" x2="416.00" y2="1536.00" />
<line x1="432.00" y1="0" x2="432.00" y2="1536.00" />
<line x1="448.00" y1="0" x2="448.00" y2="1536.00" />
<line x1="464.00" y1="0" x2="464.00" y2="1536.00" />
<line x1="480.00" y1="0" x2="480.00" y2="1536.00" />
<line x1="496.00" y1="0" x2="496.00" y2="1536.00" />
<line x1="512.00" y1="0" x2="512.00" y2="1536.00" />
<line x1="528.00" y1="0" x2="528.00" y2="1536.00" />
<line x1="544.00" y1="0" x2="544.00" y2="1536.00" />
<line x1="560.00" y1="0" x2="560.00" y2="1536.00" />
<line x1="576.00" y1="0" x2="576.00" y2="1536.00" />
<line x1="592.00" y1="0" x2="592.00" y2="1536.00" />
<line x1="608.00" y1="0" x2="608.00" y2="1536.00" />
<line x1="624.00" y1="0" x2="624.00" y2="1536.00" />
<line x1="640.00" y1="0" x2="640.00" y2="1536.00" />
<line x1="656.00" y1="0" x2="656.00" y2="1536.00" />
<line x1="672.00" y1="0" x2="672.00" y2="1536.00" />
<line x1="688.00" y1="0" x2="688.00" y2="1536.00" />
<line x1="704.00" y1="0" x2="704.00" y2="1536.00" />
<line x1="720.00" y1="0" x2="720.00" y2="1536.00" />
<line x1="736.00" y1="0" x2="736.00" y2="1536.00" />
<line x1="752.00" y1="0" x2="752.00" y2="1536.00" />
<line x1="768.00" y1="0" x2="768.00" y2="1536.00" />
<line x1="784.00" y1="0" x2="784.00" y2="1536.00" />
<line x1="800.00" y1="0" x2="800.00" y2="1536.00" />
<line x1="816.00" y1="0" x2="816.00" y2="1536.00" />
<line x1="832.00" y1="0" x2="832.00" y2="1536.00" />
<line x1="848.00" y1="0" x2="848.00" y2="1536.00" />
<line x1="864.00" y1="0" x2="864.00" y2="1536.00" />
<line x1="880.00" y1="0" x2="880.00" y2="1536.00" />
<line x1="896.00" y1="0" x2="896.00" y2="1536.00" />
<line x1="912.00" y1="0" x2="912.00" y2="1536.00" />
<line x1="928.00" y1="0" x2="928.00" y2="1536.00" />
<line x1="944.00" y1="0" x2="944.00" y2="1536.00" />
<line x1="960.00" y1="0" x2="960.00" y2="1536.00" />
<line x1="976.00" y1="0" x2="976.00" y2="1536.00" />
<line x1="992.00" y1="0" x2="992.00" y2="1536.00" />
<line x1="1008.00" y1="0" x2="1008.00" y2="1536.00" />
<line x1="1024.00" y1="0" x2="1024.00" y2="1536.00" />
<line x1="1040.00" y1="0" x2="1040.00" y2="1536.00" />
<line x1="1056.00" y1="0" x2="1056.00" y2="1536.00" />
<line x1="1072.00" y1="0" x2="1072.00" y2="1536.00" />
<line x1="1088.00" y1="0" x2="1088.00" y2="1536.00" />
<line x1="1104.00" y1="0" x2="1104.00" y2="1536.00" />
<line x1="1120.00" y1="0" x2="1120.00" y2="1536.00" />
<line x1="1136.00" y1="0" x2="1136.00" y2="1536.00" />
<line x1="1152.00" y1="0" x2="1152.00" y2="1536.00" />
<line x1="1168.00" y1="0" x2="1168.00" y2="1536.00" />
<line x1="1184.00" y1="0" x2="1184.00" y2="1536.00" />
<line x1="1200.00" y1="0" x2="1200.00" y2="1536.00" />
<line x1="1216.00" y1="0" x2="1216.00" y2="1536.00" />
<line x1="1232.00" y1="0" x2="1232.00" y2="1536.00" />
<line x1="1248.00" y1="0" x2="1248.00" y2="1536.00" />
<line x1="1264.00" y1="0" x2="1264.00" y2="1536.00" />
<line x1="1280.00" y1="0" x2="1280.00" y2="1536.00" />
<line x1="0" y1="0.00" x2="1280.00" y2="0.00" />
<line x1="0" y1="16.00" x2="1280.00" y2="16.00" />
<line x1="0" y1="32.00" x2="1280.00" y2="32.00" />
<line x1="0" y1="48.00" x2="1280.00" y2="48.00" />
<line x1="0" y1="64.00" x2="1280.00" y2="64.00" />
<line x1="0" y1="80.00" x2="1280.00" y2="80.00" />
<line x1="0" y1="96.00" x2="1280.00" y2="96.00" />
<line x1="0" y1="112.00" x2="1280.00" y2="112.00" />
<line x1="0" y1="128.00" x2="1280.00" y2="128.00" />
<line x1="0" y1="144.00" x2="1280.00" y2="144.00" />
<line x1="0" y1="160.00" x2="1280.00" y2="160.00" />
<line x1="0" y1="176.00" x2="1280.00" y2="176.00" />
<line x1="0" y1="192.00" x2="1280.00" y2="192.00" />
<line x1="0" y1="208.00" x2="1280.00" y2="208.00" />
<line x1="0" y1="224.00" x2="1280.00" y2="224.00" />
<line x1="0" y1="240.00" x2="1280.00" y2="240.00" />
<line x1="0" y1="256.00" x2="1280.00" y2="256.00" />
<line x1="0" y1="272.00" x2="1280.00" y2="272.00" />
<line x1="0" y1="288.00" x2="1280.00" y2="288.00" />
<line x1="0" y1="304.00" x2="1280.00" y2="304.00" />
<line x1="0" y1="320.00" x2="1280.00" y2="320.00" />
<line x1="0" y1="336.00" x2="1280.00" y2="336.00" />
<line x1="0" y1="352.00" x2="1280.00" y2="352.00" />
<line x1="0" y1="368.00" x2="1280.00" y2="368.00" />
<line x1="0" y1="384.00" x2="1280.00" y2="384.00" />
<line x1="0" y1="400.00" x2="1280.00" y2="400.00" />
<line x1="0" y1="416.00" x2="1280.00" y2="416.00" />
<line x1="0" y1="432.00" x2="1280.00" y2="432.00" />
<line x1="0" y1="448.00" x2="1280.00" y2="448.00" />
<line x1="0" y1="464.00" x2="1280.00" y2="464.00" />
<line x1="0" y1="480.00" x2="1280.00" y2="480.00" />
<line x1="0" y1="496.00" x2="1280.00" y2="496.00" />
<line x1="0" y1="512.00" x2="1280.00" y2="512.00" />
<line x1="0" y1="528.00" x2="1280.00" y2="528.00" />
<line x1="0" y1="544.00" x2="1280.00" y2="544.00" />
<line x1="0" y1="560.00" x2="1280.00" y2="560.00" />
<line x1="0" y1="576.00" x2="1280.00" y2="576.00" />
<line x1="0" y1="592.00" x2="1280.00" y2="592.00" />
<line x1="0" y1="608.00" x2="1280.00" y2="608.00" />
<line x1="0" y1="624.00" x2="1280.00" y2="624.00" />
<line x1="0" y1="640.00" x2="1280.00" y2="640.00" />
<line x1="0" y1="656.00" x2="1280.00" y2="656.00" />
<line x1="0" y1="672.00" x2="1280.00" y2="672.00" />
<line x1="0" y1="688.00" x2="1280.00" y2="688.00" />
<line x1="0" y1="704.00" x2="1280.00" y2="704.00" />
<line x1="0" y1="720.00" x2="1280.00" y2="720.00" />
<line x1="0" y1="736.00" x2="1280.00" y2="736.00" />
<line x1="0" y1="752.00" x2="1280.00" y2="752.00" />
<line x1="0" y1="768.00" x2="1280.00" y2="768.00" />
<line x1="0" y1="784.00" x2="1280.00" y2="784.00" />
<line x1="0" y1="800.00" x2="1280.00" y2="800.00" />
<line x1="0" y1="816.00" x2="1280.00" y2="816.00" />
<line x1="0" y1="832.00" x2="1280.00" y2="832.00" />
<line x1="0" y1="848.00" x2="1280.00" y2="848.00" />
<line x1="0" y1="864.00" x2="1280.00" y2="864.00" />
<line x1="0" y1="880.00" x2="1280.00" y2="880.00" />
<line x1="0" y1="896.00" x2="1280.00" y2="896.00" />
<line x1="0" y1="912.00" x2="1280.00" y2="912.00" />
<line x1="0" y1="928.00" x2="1280.00" y2="928.00" />
<line x1="0" y1="944.00" x2="1280.00" y2="944.00" />
<line x1="0" y1="960.00" x2="1280.00" y2="960.00" />
<line x1="0" y1="976.00" x2="1280.00" y2="976.00" />
<line x1="0" y1="992.00" x2="1280.00" y2="992.00" />
<line x1="0" y1="1008.00" x2="1280.00" y2="1008.00" />
<line x1="0" y1="1024.00" x2="1280.00" y2="1024.00" />
<line x1="0" y1="1040.00" x2="1280.00" y2="1040.00" />
<line x1="0" y1="1056.00" x2="1280.00" y2="1056.00" />
<line x1="0" y1="1072.00" x2="1280.00" y2="1072.00" />
<line x1="0" y1="1088.00" x2="1280.00" y2="1088.00" />
<line x1="0" y1="1104.00" x2="1280.00" y2="1104.00" />
<line x1="0" y1="1120.00" x2="1280.00" y2="1120.00" />
<line x1="0" y1="1136.00" x2="1280.00" y2="1136.00" />
<line x1="0" y1="1152.00" x2="1280.00" y2="1152.00" />
<line x1="0" y1="1168.00" x2="1280.00" y2="1168.00" />
<line x1="0" y1="1184.00" x2="1280.00" y2="1184.00" />
<line x1="0" y1="1200.00" x2="1280.00" y2="1200.00" />
<line x1="0" y1="1216.00" x2="1280.00" y2="1216.00" />
<line x1="0" y1="1232.00" x2="1280.00" y2="1232.00" />
<line x1="0" y1="1248.00" x2="1280.00" y2="1248.00" />
<line x1="0" y1="1264.00" x2="1280.00" y2="1264.00" />
<line x1="0" y1="1280.00" x2="1280.00" y2="1280.00" />
<line x1="0" y1="1296.00" x2="1280.00" y2="1296.00" />
<line x1="0" y1="1312.00" x2="1280.00" y2="1312.00" />
<line x1="0" y1="1328.00" x2="1280.00" y2="1328.00" />
<line x1="0" y1="1344.00" x2="1280.00" y2="1344.00" />
<line x1="0" y1="1360.00" x2="1280.00" y2="1360.00" />
<line x1="0" y1="1376.00" x2="1280.00" y2="1376.00" />
<line x1="0" y1="1392.00" x2="1280.00" y2="1392.00" />
<line x1="0" y1="1408.00" x2="1280.00" y2="1408.00" />
<line x1="0" y1="1424.00" x2="1280.00" y2="1424.00" />
<line x1="0" y1="1440.00" x2="1280.00" y2="1440.00" />
<line x1="0" y1="1456.00" x2="1280.00" y2="1456.00" />
<line x1="0" y1="1472.00" x2="1280.00" y2="1472.00" />
<line x1="0" y1="1488.00" x2="1280.00" y2="1488.00" />
<line x1="0" y1="1504.00" x2="1280.00" y2="1504.00" />
<line x1="0" y1="1520.00" x2="1280.00" y2="1520.00" />
<line x1="0" y1="1536.00" x2="1280.00" y2="1536.00" />
  </g>
  <g class="walls">
<line x1="576.00" y1="48.00" x2="640.00" y2="48.00" />
<line x1="192.00" y1="64.00" x2="320.00" y2="64.00" />
<line x1="1040.00" y1="64.00" x2="1104.00" y2="64.00" />
<line x1="640.00" y1="96.00" x2="1040.00" y2="96.00" />
<line x1="1104.00" y1="96.00" x2="1184.00" y2="96.00" />
<line x1="80.00" y1="112.00" x2="192.00" y2="112.00" />
<line x1="320.00" y1="112.00" x2="576.00" y2="112.00" />
<line x1="640.00" y1="112.00" x2="1040.00" y2="112.00" />
<line x1="1104.00" y1="112.00" x2="1168.00" y2="112.00" />
<line x1="96.00" y1="128.00" x2="192.00" y2="128.00" />
<line x1="320.00" y1="128.00" x2="576.00" y2="128.00" />
<line x1="1040.00" y1="144.00" x2="1072.00" y2="144.00" />
<line x1="1088.00" y1="144.00" x2="1104.00" y2="144.00" />
<line x1="192.00" y1="160.00" x2="208.00" y2="160.00" />
<line x1="224.00" y1="160.00" x2="320.00" y2="160.00" />
<line x1="144.00" y1="192.00" x2="208.00" y2="192.00" />
<line x1="224.00" y1="192.00" x2="288.00" y2="192.00" />
<line x1="576.00" y1="192.00" x2="640.00" y2="192.00" />
<line x1="880.00" y1="208.00" x2="976.00" y2="208.00" />
<line x1="384.00" y1="240.00" x2="480.00" y2="240.00" />
<line x1="288.00" y1="256.00" x2="384.00" y2="256.00" />
<line x1="480.00" y1="256.00" x2="496.00" y2="256.00" />
<line x1="1152.00" y1="256.00" x2="1168.00" y2="256.00" />
<line x1="288.00" y1="272.00" x2="368.00" y2="272.00" />
<line x1="976.00" y1="272.00" x2="1024.00" y2="272.00" />
<line x1="1120.00" y1="272.00" x2="1152.00" y2="272.00" />
<line x1="1184.00" y1="272.00" x2="1216.00" y2="272.00" />
<line x1="976.00" y1="288.00" x2="1008.00" y2="288.00" />
<line x1="1104.00" y1="288.00" x2="1120.00" y2="288.00" />
<line x1="1216.00" y1="288.00" x2="1232.00" y2="288.00" />
<line x1="144.00" y1="336.00" x2="208.00" y2="336.00" />
<line x1="224.00" y1="336.00" x2="288.00" y2="336.00" />
<line x1="368.00" y1="336.00" x2="384.00" y2="336.00" />
<line x1="480.00" y1="336.00" x2="496.00" y2="336.00" />
<line x1="880.00" y1="336.00" x2="960.00" y2="336.00" />
<line x1="1088.00" y1="320.00" x2="1104.00" y2="320.00" />
<line x1="1232.00" y1="320.00" x2="1248.00" y2="320.00" />
<line x1="384.00" y1="352.00" x2="480.00" y2="352.00" />
<line x1="1088.00" y1="368.00" x2="1104.00" y2="368.00" />
<line x1="1232.00" y1="368.00" x2="1248.00" y2="368.00" />
<line x1="976.00" y1="400.00" x2="1008.00" y2="400.00" />
<line x1="1024.00" y1="400.00" x2="1040.00" y2="400.00" />
<line x1="1104.00" y1="400.00" x2="1120.00" y2="400.00" />
<line x1="1216.00" y1="400.00" x2="1232.00" y2="400.00" />
<line x1="1120.00" y1="416.00" x2="1152.00" y2="416.00" />
<line x1="1184.00" y1="416.00" x2="1216.00" y2="416.00" />
<line x1="32.00" y1="432.00" x2="80.00" y2="432.00" />
<line x1="96.00" y1="432.00" x2="128.00" y2="432.00" />
<line x1="1152.00" y1="432.00" x2="1168.00" y2="432.00" />
<line x1="864.00" y1="448.00" x2="960.00" y2="448.00" />
<line x1="1040.00" y1="448.00" x2="1072.00" y2="448.00" />
<line x1="1088.00" y1="448.00" x2="1168.00" y2="448.00" />
<line x1="128.00" y1="464.00" x2="208.00" y2="464.00" />
<line x1="832.00" y1="464.00" x2="864.00" y2="464.00" />
<line x1="928.00" y1="464.00" x2="960.00" y2="464.00" />
<line x1="1040.00" y1="464.00" x2="1184.00" y2="464.00" />
<line x1="128.00" y1="480.00" x2="224.00" y2="480.00" />
<line x1="32.00" y1="496.00" x2="80.00" y2="496.00" />
<line x1="96.00" y1="496.00" x2="128.00" y2="496.00" />
<line x1="624.00" y1="496.00" x2="720.00" y2="496.00" />
<line x1="816.00" y1="496.00" x2="832.00" y2="496.00" />
<line x1="928.00" y1="496.00" x2="944.00" y2="496.00" />
<line x1="976.00" y1="496.00" x2="1008.00" y2="496.00" />
<line x1="1024.00" y1="496.00" x2="1040.00" y2="496.00" />
<line x1="608.00" y1="512.00" x2="624.00" y2="512.00" />
<line x1="720.00" y1="512.00" x2="816.00" y2="512.00" />
<line x1="592.00" y1="528.00" x2="608.00" y2="528.00" />
<line x1="752.00" y1="528.00" x2="832.00" y2="528.00" />
<line x1="928.00" y1="528.00" x2="944.00" y2="528.00" />
<line x1="64.00" y1="544.00" x2="80.00" y2="544.00" />
<line x1="96.00" y1="544.00" x2="160.00" y2="544.00" />
<line x1="480.00" y1="544.00" x2="544.00" y2="544.00" />
<line x1="48.00" y1="560.00" x2="64.00" y2="560.00" />
<line x1="160.00" y1="560.00" x2="176.00" y2="560.00" />
<line x1="832.00" y1="560.00" x2="864.00" y2="560.00" />
<line x1="896.00" y1="560.00" x2="928.00" y2="560.00" />
<line x1="32.00" y1="576.00" x2="48.00" y2="576.00" />
<line x1="176.00" y1="576.00" x2="192.00" y2="576.00" />
<line x1="272.00" y1="576.00" x2="480.00" y2="576.00" />
<line x1="544.00" y1="576.00" x2="592.00" y2="576.00" />
<line x1="752.00" y1="576.00" x2="864.00" y2="576.00" />
<line x1="896.00" y1="576.00" x2="960.00" y2="576.00" />
<line x1="976.00" y1="576.00" x2="1008.00" y2="576.00" />
<line x1="1024.00" y1="576.00" x2="1168.00" y2="576.00" />
<line x1="288.00" y1="592.00" x2="480.00" y2="592.00" />
<line x1="544.00" y1="592.00" x2="592.00" y2="592.00" />
<line x1="752.00" y1="592.00" x2="880.00" y2="592.00" />
<line x1="896.00" y1="592.00" x2="960.00" y2="592.00" />
<line x1="976.00" y1="592.00" x2="1008.00" y2="592.00" />
<line x1="1024.00" y1="592.00" x2="1152.00" y2="592.00" />
<line x1="32.00" y1="640.00" x2="48.00" y2="640.00" />
<line x1="176.00" y1="640.00" x2="192.00" y2="640.00" />
<line x1="544.00" y1="640.00" x2="608.00" y2="640.00" />
<line x1="736.00" y1="640.00" x2="752.00" y2="640.00" />
<line x1="544.00" y1="624.00" x2="592.00" y2="624.00" />
<line x1="48.00" y1="656.00" x2="64.00" y2="656.00" />
<line x1="160.00" y1="656.00" x2="176.00" y2="656.00" />
<line x1="608.00" y1="656.00" x2="624.00" y2="656.00" />
<line x1="720.00" y1="656.00" x2="736.00" y2="656.00" />
<line x1="928.00" y1="656.00" x2="960.00" y2="656.00" />
<line x1="976.00" y1="656.00" x2="1008.00" y2="656.00" />
<line x1="64.00" y1="672.00" x2="112.00" y2="672.00" />
<line x1="128.00" y1="672.00" x2="160.00" y2="672.00" />
<line x1="624.00" y1="672.00" x2="688.00" y2="672.00" />
<line x1="704.00" y1="672.00" x2="720.00" y2="672.00" />
<line x1="480.00" y1="704.00" x2="512.00" y2="704.00" />
<line x1="528.00" y1="704.00" x2="544.00" y2="704.00" />
<line x1="896.00" y1="704.00" x2="928.00" y2="704.00" />
<line x1="880.00" y1="720.00" x2="928.00" y2="720.00" />
<line x1="192.00" y1="736.00" x2="272.00" y2="736.00" />
<line x1="288.00" y1="736.00" x2="368.00" y2="736.00" />
<line x1="624.00" y1="736.00" x2="688.00" y2="736.00" />
<line x1="704.00" y1="736.00" x2="768.00" y2="736.00" />
<line x1="928.00" y1="768.00" x2="960.00" y2="768.00" />
<line x1="976.00" y1="768.00" x2="1008.00" y2="768.00" />
<line x1="1104.00" y1="784.00" x2="1152.00" y2="784.00" />
<line x1="1168.00" y1="784.00" x2="1200.00" y2="784.00" />
<line x1="48.00" y1="832.00" x2="112.00" y2="832.00" />
<line x1="128.00" y1="832.00" x2="144.00" y2="832.00" />
<line x1="192.00" y1="832.00" x2="256.00" y2="832.00" />
<line x1="272.00" y1="832.00" x2="336.00" y2="832.00" />
<line x1="352.00" y1="832.00" x2="368.00" y2="832.00" />
<line x1="1024.00" y1="832.00" x2="1104.00" y2="832.00" />
<line x1="864.00" y1="816.00" x2="960.00" y2="816.00" />
<line x1="976.00" y1="816.00" x2="1008.00" y2="816.00" />
<line x1="192.00" y1="848.00" x2="256.00" y2="848.00" />
<line x1="272.00" y1="848.00" x2="320.00" y2="848.00" />
<line x1="624.00" y1="848.00" x2="688.00" y2="848.00" />
<line x1="704.00" y1="848.00" x2="736.00" y2="848.00" />
<line x1="752.00" y1="848.00" x2="768.00" y2="848.00" />
<line x1="1040.00" y1="848.00" x2="1104.00" y2="848.00" />
<line x1="1008.00" y1="864.00" x2="1024.00" y2="864.00" />
<line x1="144.00" y1="880.00" x2="192.00" y2="880.00" />
<line x1="864.00" y1="880.00" x2="1008.00" y2="880.00" />
<line x1="1104.00" y1="880.00" x2="1152.00" y2="880.00" />
<line x1="1168.00" y1="880.00" x2="1200.00" y2="880.00" />
<line x1="144.00" y1="896.00" x2="192.00" y2="896.00" />
<line x1="320.00" y1="896.00" x2="336.00" y2="896.00" />
<line x1="352.00" y1="896.00" x2="400.00" y2="896.00" />
<line x1="528.00" y1="896.00" x2="656.00" y2="896.00" />
<line x1="320.00" y1="912.00" x2="336.00" y2="912.00" />
<line x1="352.00" y1="912.00" x2="384.00" y2="912.00" />
<line x1="48.00" y1="944.00" x2="144.00" y2="944.00" />
<line x1="656.00" y1="944.00" x2="704.00" y2="944.00" />
<line x1="656.00" y1="928.00" x2="688.00" y2="928.00" />
<line x1="192.00" y1="960.00" x2="320.00" y2="960.00" />
<line x1="528.00" y1="976.00" x2="576.00" y2="976.00" />
<line x1="592.00" y1="976.00" x2="656.00" y2="976.00" />
<line x1="144.00" y1="1008.00" x2="224.00" y2="1008.00" />
<line x1="352.00" y1="1008.00" x2="384.00" y2="1008.00" />
<line x1="400.00" y1="1008.00" x2="432.00" y2="1008.00" />
<line x1="528.00" y1="1024.00" x2="576.00" y2="1024.00" />
<line x1="592.00" y1="1024.00" x2="640.00" y2="1024.00" />
<line x1="224.00" y1="1040.00" x2="336.00" y2="1040.00" />
<line x1="640.00" y1="1040.00" x2="656.00" y2="1040.00" />
<line x1="224.00" y1="1056.00" x2="336.00" y2="1056.00" />
<line x1="496.00" y1="1056.00" x2="512.00" y2="1056.00" />
<line x1="656.00" y1="1056.00" x2="672.00" y2="1056.00" />
<line x1="688.00" y1="1056.00" x2="736.00" y2="1056.00" />
<line x1="752.00" y1="1056.00" x2="784.00" y2="1056.00" />
<line x1="352.00" y1="1088.00" x2="384.00" y2="1088.00" />
<line x1="400.00" y1="1088.00" x2="432.00" y2="1088.00" />
<line x1="672.00" y1="1088.00" x2="688.00" y2="1088.00" />
<line x1="784.00" y1="1088.00" x2="800.00" y2="1088.00" />
<line x1="400.00" y1="1104.00" x2="496.00" y2="1104.00" />
<line x1="672.00" y1="1104.00" x2="688.00" y2="1104.00" />
<line x1="992.00" y1="1104.00" x2="1024.00" y2="1104.00" />
<line x1="1040.00" y1="1104.00" x2="1072.00" y2="1104.00" />
<line x1="384.00" y1="1120.00" x2="496.00" y2="1120.00" />
<line x1="688.00" y1="1120.00" x2="736.00" y2="1120.00" />
<line x1="752.00" y1="1120.00" x2="784.00" y2="1120.00" />
<line x1="144.00" y1="1136.00" x2="176.00" y2="1136.00" />
<line x1="192.00" y1="1136.00" x2="224.00" y2="1136.00" />
<line x1="272.00" y1="1136.00" x2="336.00" y2="1136.00" />
<line x1="352.00" y1="1136.00" x2="416.00" y2="1136.00" />
<line x1="752.00" y1="1136.00" x2="784.00" y2="1136.00" />
<line x1="800.00" y1="1136.00" x2="992.00" y2="1136.00" />
<line x1="496.00" y1="1152.00" x2="512.00" y2="1152.00" />
<line x1="656.00" y1="1152.00" x2="672.00" y2="1152.00" />
<line x1="736.00" y1="1152.00" x2="784.00" y2="1152.00" />
<line x1="800.00" y1="1152.00" x2="992.00" y2="1152.00" />
<line x1="640.00" y1="1168.00" x2="656.00" y2="1168.00" />
<line x1="992.00" y1="1168.00" x2="1024.00" y2="1168.00" />
<line x1="1040.00" y1="1168.00" x2="1072.00" y2="1168.00" />
<line x1="416.00" y1="1184.00" x2="512.00" y2="1184.00" />
<line x1="528.00" y1="1184.00" x2="640.00" y2="1184.00" />
<line x1="416.00" y1="1200.00" x2="432.00" y2="1200.00" />
<line x1="448.00" y1="1200.00" x2="528.00" y2="1200.00" />
<line x1="752.00" y1="1200.00" x2="784.00" y2="1200.00" />
<line x1="800.00" y1="1200.00" x2="832.00" y2="1200.00" />
<line x1="80.00" y1="1216.00" x2="176.00" y2="1216.00" />
<line x1="272.00" y1="1232.00" x2="416.00" y2="1232.00" />
<line x1="1040.00" y1="1232.00" x2="1056.00" y2="1232.00" />
<line x1="992.00" y1="1248.00" x2="1024.00" y2="1248.00" />
<line x1="1056.00" y1="1248.00" x2="1088.00" y2="1248.00" />
<line x1="976.00" y1="1264.00" x2="992.00" y2="1264.00" />
<line x1="1088.00" y1="1264.00" x2="1104.00" y2="1264.00" />
<line x1="176.00" y1="1296.00" x2="192.00" y2="1296.00" />
<line x1="368.00" y1="1296.00" x2="432.00" y2="1296.00" />
<line x1="448.00" y1="1296.00" x2="496.00" y2="1296.00" />
<line x1="496.00" y1="1312.00" x2="752.00" y2="1312.00" />
<line x1="832.00" y1="1312.00" x2="976.00" y2="1312.00" />
<line x1="1104.00" y1="1312.00" x2="1152.00" y2="1312.00" />
<line x1="496.00" y1="1328.00" x2="560.00" y2="1328.00" />
<line x1="736.00" y1="1328.00" x2="784.00" y2="1328.00" />
<line x1="800.00" y1="1328.00" x2="976.00" y2="1328.00" />
<line x1="1104.00" y1="1328.00" x2="1168.00" y2="1328.00" />
<line x1="80.00" y1="1360.00" x2="176.00" y2="1360.00" />
<line x1="368.00" y1="1360.00" x2="496.00" y2="1360.00" />
<line x1="736.00" y1="1360.00" x2="784.00" y2="1360.00" />
<line x1="736.00" y1="1376.00" x2="800.00" y2="1376.00" />
<line x1="976.00" y1="1376.00" x2="992.00" y2="1376.00" />
<line x1="1088.00" y1="1376.00" x2="1104.00" y2="1376.00" />
<line x1="992.00" y1="1392.00" x2="1024.00" y2="1392.00" />
<line x1="1056.00" y1="1392.00" x2="1088.00" y2="1392.00" />
<line x1="560.00" y1="1408.00" x2="736.00" y2="1408.00" />
<line x1="1024.00" y1="1408.00" x2="1056.00" y2="1408.00" />
<line x1="576.00" y1="48.00" x2="576.00" y2="112.00" />
<line x1="576.00" y1="128.00" x2="576.00" y2="192.00" />
<line x1="576.00" y1="976.00" x2="576.00" y2="1024.00" />
<line x1="640.00" y1="48.00" x2="640.00" y2="96.00" />
<line x1="640.00" y1="112.00" x2="640.00" y2="192.00" />
<line x1="640.00" y1="1024.00" x2="640.00" y2="1040.00" />
<line x1="640.00" y1="1168.00" x2="640.00" y2="1184.00" />
<line x1="192.00" y1="64.00" x2="192.00" y2="112.00" />
<line x1="192.00" y1="128.00" x2="192.00" y2="160.00" />
<line x1="192.00" y1="576.00" x2="192.00" y2="640.00" />
<line x1="192.00" y1="736.00" x2="192.00" y2="832.00" />
<line x1="192.00" y1="848.00" x2="192.00" y2="880.00" />
<line x1="192.00" y1="896.00" x2="192.00" y2="960.00" />
<line x1="192.00" y1="1136.00" x2="192.00" y2="1296.00" />
<line x1="320.00" y1="64.00" x2="320.00" y2="112.00" />
<line x1="320.00" y1="128.00" x2="320.00" y2="160.00" />
<line x1="320.00" y1="848.00" x2="320.00" y2="896.00" />
<line x1="320.00" y1="912.00" x2="320.00" y2="960.00" />
<line x1="1040.00" y1="64.00" x2="1040.00" y2="96.00" />
<line x1="1040.00" y1="112.00" x2="1040.00" y2="144.00" />
<line x1="1040.00" y1="400.00" x2="1040.00" y2="448.00" />
<line x1="1040.00" y1="464.00" x2="1040.00" y2="496.00" />
<line x1="1040.00" y1="848.00" x2="1040.00" y2="1104.00" />
<line x1="1040.00" y1="1168.00" x2="1040.00" y2="1232.00" />
<line x1="1104.00" y1="64.00" x2="1104.00" y2="96.00" />
<line x1="1104.00" y1="112.00" x2="1104.00" y2="144.00" />
<line x1="1104.00" y1="288.00" x2="1104.00" y2="320.00" />
<line x1="1104.00" y1="368.00" x2="1104.00" y2="400.00" />
<line x1="1104.00" y1="784.00" x2="1104.00" y2="832.00" />
<line x1="1104.00" y1="848.00" x2="1104.00" y2="880.00" />
<line x1="1104.00" y1="1264.00" x2="1104.00" y2="1312.00" />
<line x1="1104.00" y1="1328.00" x2="1104.00" y2="1376.00" />
<line x1="1184.00" y1="96.00" x2="1184.00" y2="272.00" />
<line x1="1184.00" y1="416.00" x2="1184.00" y2="464.00" />
<line x1="80.00" y1="112.00" x2="80.00" y2="432.00" />
<line x1="80.00" y1="496.00" x2="80.00" y2="544.00" />
<line x1="80.00" y1="1216.00" x2="80.00" y2="1360.00" />
<line x1="1168.00" y1="112.00" x2="1168.00" y2="256.00" />
<line x1="1168.00" y1="432.00" x2="1168.00" y2="448.00" />
<line x1="1168.00" y1="576.00" x2="1168.00" y2="784.00" />
<line x1="1168.00" y1="880.00" x2="1168.00" y2="1328.00" />
<line x1="96.00" y1="128.00" x2="96.00" y2="432.00" />
<line x1="96.00" y1="496.00" x2="96.00" y2="544.00" />
<line x1="1072.00" y1="144.00" x2="1072.00" y2="448.00" />
<line x1="1072.00" y1="1104.00" x2="1072.00" y2="1168.00" />
<line x1="1088.00" y1="144.00" x2="1088.00" y2="320.00" />
<line x1="1088.00" y1="368.00" x2="1088.00" y2="448.00" />
<line x1="1088.00" y1="1248.00" x2="1088.00" y2="1264.00" />
<line x1="1088.00" y1="1376.00" x2="1088.00" y2="1392.00" />
<line x1="208.00" y1="160.00" x2="208.00" y2="192.00" />
<line x1="208.00" y1="336.00" x2="208.00" y2="464.00" />
<line x1="224.00" y1="160.00" x2="224.00" y2="192.00" />
<line x1="224.00" y1="336.00" x2="224.00" y2="480.00" />
<line x1="224.00" y1="1008.00" x2="224.00" y2="1040.00" />
<line x1="224.00" y1="1056.00" x2="224.00" y2="1136.00" />
<line x1="144.00" y1="192.00" x2="144.00" y2="336.00" />
<line x1="144.00" y1="832.00" x2="144.00" y2="880.00" />
<line x1="144.00" y1="896.00" x2="144.00" y2="944.00" />
<line x1="144.00" y1="1008.00" x2="144.00" y2="1136.00" />
<line x1="288.00" y1="192.00" x2="288.00" y2="256.00" />
<line x1="288.00" y1="272.00" x2="288.00" y2="336.00" />
<line x1="288.00" y1="592.00" x2="288.00" y2="736.00" />
<line x1="880.00" y1="208.00" x2="880.00" y2="336.00" />
<line x1="880.00" y1="592.00" x2="880.00" y2="720.00" />
<line x1="976.00" y1="208.00" x2="976.00" y2="272.00" />
<line x1="976.00" y1="288.00" x2="976.00" y2="400.00" />
<line x1="976.00" y1="496.00" x2="976.00" y2="576.00" />
<line x1="976.00" y1="592.00" x2="976.00" y2="656.00" />
<line x1="976.00" y1="768.00" x2="976.00" y2="816.00" />
<line x1="976.00" y1="1264.00" x2="976.00" y2="1312.00" />
<line x1="976.00" y1="1328.00" x2="976.00" y2="1376.00" />
<line x1="384.00" y1="240.00" x2="384.00" y2="256.00" />
<line x1="384.00" y1="336.00" x2="384.00" y2="352.00" />
<line x1="384.00" y1="912.00" x2="384.00" y2="1008.00" />
<line x1="384.00" y1="1088.00" x2="384.00" y2="1120.00" />
<line x1="480.00" y1="240.00" x2="480.00" y2="256.00" />
<line x1="480.00" y1="336.00" x2="480.00" y2="352.00" />
<line x1="480.00" y1="544.00" x2="480.00" y2="576.00" />
<line x1="480.00" y1="592.00" x2="480.00" y2="704.00" />
<line x1="496.00" y1="256.00" x2="496.00" y2="336.00" />
<line x1="496.00" y1="1056.00" x2="496.00" y2="1104.00" />
<line x1="496.00" y1="1120.00" x2="496.00" y2="1152.00" />
<line x1="496.00" y1="1296.00" x2="496.00" y2="1312.00" />
<line x1="496.00" y1="1328.00" x2="496.00" y2="1360.00" />
<line x1="1152.00" y1="256.00" x2="1152.00" y2="272.00" />
<line x1="1152.00" y1="416.00" x2="1152.00" y2="432.00" />
<line x1="1152.00" y1="592.00" x2="1152.00" y2="784.00" />
<line x1="1152.00" y1="880.00" x2="1152.00" y2="1312.00" />
<line x1="368.00" y1="272.00" x2="368.00" y2="336.00" />
<line x1="368.00" y1="736.00" x2="368.00" y2="832.00" />
<line x1="368.00" y1="1296.00" x2="368.00" y2="1360.00" />
<line x1="1024.00" y1="272.00" x2="1024.00" y2="400.00" />
<line x1="1024.00" y1="496.00" x2="1024.00" y2="576.00" />
<line x1="1024.00" y1="592.00" x2="1024.00" y2="832.00" />
<line x1="1024.00" y1="864.00" x2="1024.00" y2="1104.00" />
<line x1="1024.00" y1="1168.00" x2="1024.00" y2="1248.00" />
<line x1="1024.00" y1="1392.00" x2="1024.00" y2="1408.00" />
<line x1="1120.00" y1="272.00" x2="1120.00" y2="288.00" />
<line x1="1120.00" y1="400.00" x2="1120.00" y2="416.00" />
<line x1="1216.00" y1="272.00" x2="1216.00" y2="288.00" />
<line x1="1216.00" y1="400.00" x2="1216.00" y2="416.00" />
<line x1="1008.00" y1="288.00" x2="1008.00" y2="400.00" />
<line x1="1008.00" y1="496.00" x2="1008.00" y2="576.00" />
<line x1="1008.00" y1="592.00" x2="1008.00" y2="656.00" />
<line x1="1008.00" y1="768.00" x2="1008.00" y2="816.00" />
<line x1="1008.00" y1="864.00" x2="1008.00" y2="880.00" />
<line x1="1232.00" y1="288.00" x2="1232.00" y2="320.00" />
<line x1="1232.00" y1="368.00" x2="1232.00" y2="400.00" />
<line x1="1248.00" y1="320.00" x2="1248.00" y2="368.00" />
<line x1="960.00" y1="336.00" x2="960.00" y2="448.00" />
<line x1="960.00" y1="464.00" x2="960.00" y2="576.00" />
<line x1="960.00" y1="592.00" x2="960.00" y2="656.00" />
<line x1="960.00" y1="768.00" x2="960.00" y2="816.00" />
<line x1="32.00" y1="432.00" x2="32.00" y2="496.00" />
<line x1="32.00" y1="576.00" x2="32.00" y2="640.00" />
<line x1="128.00" y1="432.00" x2="128.00" y2="464.00" />
<line x1="128.00" y1="480.00" x2="128.00" y2="496.00" />
<line x1="128.00" y1="672.00" x2="128.00" y2="832.00" />
<line x1="864.00" y1="448.00" x2="864.00" y2="464.00" />
<line x1="864.00" y1="560.00" x2="864.00" y2="576.00" />
<line x1="864.00" y1="816.00" x2="864.00" y2="880.00" />
<line x1="832.00" y1="464.00" x2="832.00" y2="496.00" />
<line x1="832.00" y1="528.00" x2="832.00" y2="560.00" />
<line x1="832.00" y1="1200.00" x2="832.00" y2="1312.00" />
<line x1="928.00" y1="464.00" x2="928.00" y2="496.00" />
<line x1="928.00" y1="528.00" x2="928.00" y2="560.00" />
<line x1="928.00" y1="656.00" x2="928.00" y2="704.00" />
<line x1="928.00" y1="720.00" x2="928.00" y2="768.00" />
<line x1="624.00" y1="496.00" x2="624.00" y2="512.00" />
<line x1="624.00" y1="656.00" x2="624.00" y2="672.00" />
<line x1="624.00" y1="736.00" x2="624.00" y2="848.00" />
<line x1="720.00" y1="496.00" x2="720.00" y2="512.00" />
<line x1="720.00" y1="656.00" x2="720.00" y2="672.00" />
<line x1="816.00" y1="496.00" x2="816.00" y2="512.00" />
<line x1="944.00" y1="496.00" x2="944.00" y2="528.00" />
<line x1="608.00" y1="512.00" x2="608.00" y2="528.00" />
<line x1="608.00" y1="640.00" x2="608.00" y2="656.00" />
<line x1="592.00" y1="528.00" x2="592.00" y2="576.00" />
<line x1="592.00" y1="592.00" x2="592.00" y2="624.00" />
<line x1="592.00" y1="976.00" x2="592.00" y2="1024.00" />
<line x1="752.00" y1="528.00" x2="752.00" y2="576.00" />
<line x1="752.00" y1="592.00" x2="752.00" y2="640.00" />
<line x1="752.00" y1="848.00" x2="752.00" y2="1056.00" />
<line x1="752.00" y1="1120.00" x2="752.00" y2="1136.00" />
<line x1="752.00" y1="1200.00" x2="752.00" y2="1312.00" />
<line x1="64.00" y1="544.00" x2="64.00" y2="560.00" />
<line x1="64.00" y1="656.00" x2="64.00" y2="672.00" />
<line x1="160.00" y1="544.00" x2="160.00" y2="560.00" />
<line x1="160.00" y1="656.00" x2="160.00" y2="672.00" />
<line x1="544.00" y1="544.00" x2="544.00" y2="576.00" />
<line x1="544.00" y1="592.00" x2="544.00" y2="624.00" />
<line x1="544.00" y1="640.00" x2="544.00" y2="704.00" />
<line x1="48.00" y1="560.00" x2="48.00" y2="576.00" />
<line x1="48.00" y1="640.00" x2="48.00" y2="656.00" />
<line x1="48.00" y1="832.00" x2="48.00" y2="944.00" />
<line x1="176.00" y1="560.00" x2="176.00" y2="576.00" />
<line x1="176.00" y1="640.00" x2="176.00" y2="656.00" />
<line x1="176.00" y1="1136.00" x2="176.00" y2="1216.00" />
<line x1="176.00" y1="1296.00" x2="176.00" y2="1360.00" />
<line x1="896.00" y1="560.00" x2="896.00" y2="576.00" />
<line x1="896.00" y1="592.00" x2="896.00" y2="704.00" />
<line x1="272.00" y1="576.00" x2="272.00" y2="736.00" />
<line x1="272.00" y1="832.00" x2="272.00" y2="848.00" />
<line x1="272.00" y1="1136.00" x2="272.00" y2="1232.00" />
<line x1="736.00" y1="640.00" x2="736.00" y2="656.00" />
<line x1="736.00" y1="848.00" x2="736.00" y2="1056.00" />
<line x1="736.00" y1="1120.00" x2="736.00" y2="1152.00" />
<line x1="736.00" y1="1328.00" x2="736.00" y2="1360.00" />
<line x1="736.00" y1="1376.00" x2="736.00" y2="1408.00" />
<line x1="112.00" y1="672.00" x2="112.00" y2="832.00" />
<line x1="688.00" y1="672.00" x2="688.00" y2="736.00" />
<line x1="688.00" y1="848.00" x2="688.00" y2="928.00" />
<line x1="688.00" y1="1056.00" x2="688.00" y2="1088.00" />
<line x1="688.00" y1="1104.00" x2="688.00" y2="1120.00" />
<line x1="704.00" y1="672.00" x2="704.00" y2="736.00" />
<line x1="704.00" y1="848.00" x2="704.00" y2="944.00" />
<line x1="512.00" y1="704.00" x2="512.00" y2="1056.00" />
<line x1="512.00" y1="1152.00" x2="512.00" y2="1184.00" />
<line x1="528.00" y1="704.00" x2="528.00" y2="896.00" />
<line x1="528.00" y1="976.00" x2="528.00" y2="1024.00" />
<line x1="528.00" y1="1184.00" x2="528.00" y2="1200.00" />
<line x1="768.00" y1="736.00" x2="768.00" y2="848.00" />
<line x1="1200.00" y1="784.00" x2="1200.00" y2="880.00" />
<line x1="256.00" y1="832.00" x2="256.00" y2="848.00" />
<line x1="336.00" y1="832.00" x2="336.00" y2="896.00" />
<line x1="336.00" y1="912.00" x2="336.00" y2="1040.00" />
<line x1="336.00" y1="1056.00" x2="336.00" y2="1136.00" />
<line x1="352.00" y1="832.00" x2="352.00" y2="896.00" />
<line x1="352.00" y1="912.00" x2="352.00" y2="1008.00" />
<line x1="352.00" y1="1088.00" x2="352.00" y2="1136.00" />
<line x1="400.00" y1="896.00" x2="400.00" y2="1008.00" />
<line x1="400.00" y1="1088.00" x2="400.00" y2="1104.00" />
<line x1="656.00" y1="896.00" x2="656.00" y2="928.00" />
<line x1="656.00" y1="944.00" x2="656.00" y2="976.00" />
<line x1="656.00" y1="1040.00" x2="656.00" y2="1056.00" />
<line x1="656.00" y1="1152.00" x2="656.00" y2="1168.00" />
<line x1="432.00" y1="1008.00" x2="432.00" y2="1088.00" />
<line x1="432.00" y1="1200.00" x2="432.00" y2="1296.00" />
<line x1="672.00" y1="1056.00" x2="672.00" y2="1088.00" />
<line x1="672.00" y1="1104.00" x2="672.00" y2="1152.00" />
<line x1="784.00" y1="1056.00" x2="784.00" y2="1088.00" />
<line x1="784.00" y1="1120.00" x2="784.00" y2="1136.00" />
<line x1="784.00" y1="1152.00" x2="784.00" y2="1200.00" />
<line x1="784.00" y1="1328.00" x2="784.00" y2="1360.00" />
<line x1="800.00" y1="1088.00" x2="800.00" y2="1136.00" />
<line x1="800.00" y1="1152.00" x2="800.00" y2="1200.00" />
<line x1="800.00" y1="1328.00" x2="800.00" y2="1376.00" />
<line x1="992.00" y1="1104.00" x2="992.00" y2="1136.00" />
<line x1="992.00" y1="1152.00" x2="992.00" y2="1168.00" />
<line x1="992.00" y1="1248.00" x2="992.00" y2="1264.00" />
<line x1="992.00" y1="1376.00" x2="992.00" y2="1392.00" />
<line x1="416.00" y1="1136.00" x2="416.00" y2="1184.00" />
<line x1="416.00" y1="1200.00" x2="416.00" y2="1232.00" />
<line x1="448.00" y1="1200.00" x2="448.00" y2="1296.00" />
<line x1="1056.00" y1="1232.00" x2="1056.00" y2="1248.00" />
<line x1="1056.00" y1="1392.00" x2="1056.00" y2="1408.00" />
<line x1="560.00" y1="1328.00" x2="560.00" y2="1408.00" />
  </g>
  <g class="features">
<g data-feature-type="stairsDown"><line data-feature-type="stairsDown" x1="658.24" y1="563.36" x2="669.76" y2="563.36" /><line x1="658.65" y1="565.68" x2="669.35" y2="565.68" /><line x1="659.07" y1="568.00" x2="668.93" y2="568.00" /><line x1="659.48" y1="570.32" x2="668.52" y2="570.32" /><line x1="659.90" y1="572.64" x2="668.10" y2="572.64" /></g>
<g data-feature-type="stairsUp"><line data-feature-type="stairsUp" x1="579.90" y1="1091.36" x2="588.10" y2="1091.36" /><line x1="579.48" y1="1093.68" x2="588.52" y2="1093.68" /><line x1="579.07" y1="1096.00" x2="588.93" y2="1096.00" /><line x1="578.65" y1="1098.32" x2="589.35" y2="1098.32" /><line x1="578.24" y1="1100.64" x2="589.76" y2="1100.64" /></g>
<circle data-feature-type="pillar" cx="696.00" cy="584.00" r="3.68" fill="#4f89a8" stroke="none" />
<g data-feature-type="statue"><circle cx="680.00" cy="552.00" r="3.52" fill="none" /><line x1="677.76" y1="552.00" x2="682.24" y2="552.00" /><line x1="680.00" y1="549.76" x2="680.00" y2="554.24" /><line x1="678.39" y1="550.39" x2="681.61" y2="553.61" /><line x1="678.39" y1="553.61" x2="681.61" y2="550.39" /></g>
<circle data-feature-type="pillar" cx="696.00" cy="760.00" r="3.68" fill="#4f89a8" stroke="none" />
<circle data-feature-type="pillar" cx="696.00" cy="824.00" r="3.68" fill="#4f89a8" stroke="none" />
<g data-feature-type="trap"><rect x="708.64" y="756.64" width="6.72" height="6.72" fill="none" /><line x1="708.64" y1="756.64" x2="715.36" y2="763.36" /><line x1="708.64" y1="763.36" x2="715.36" y2="756.64" /></g>
<circle data-feature-type="pillar" cx="232.00" cy="264.00" r="3.68" fill="#4f89a8" stroke="none" />
<g data-feature-type="well"><circle cx="232.00" cy="216.00" r="4.00" fill="none" /><circle cx="232.00" cy="216.00" r="2.24" fill="none" /></g>
<circle data-feature-type="pillar" cx="536.00" cy="632.00" r="3.68" fill="#4f89a8" stroke="none" />
<circle data-feature-type="pillar" cx="952.00" cy="856.00" r="3.68" fill="#4f89a8" stroke="none" />
<g data-feature-type="statue"><circle cx="952.00" cy="840.00" r="3.52" fill="none" /><line x1="949.76" y1="840.00" x2="954.24" y2="840.00" /><line x1="952.00" y1="837.76" x2="952.00" y2="842.24" /><line x1="950.39" y1="838.39" x2="953.61" y2="841.61" /><line x1="950.39" y1="841.61" x2="953.61" y2="838.39" /></g>
<g data-feature-type="coffin"><rect x="981.60" y="836.32" width="4.80" height="7.36" rx="0.80" ry="0.80" fill="none" /><line x1="984.00" y1="837.94" x2="984.00" y2="842.06" /></g>
<circle data-feature-type="pillar" cx="1160.00" cy="360.00" r="3.68" fill="#4f89a8" stroke="none" />
<circle data-feature-type="pillar" cx="1192.00" cy="328.00" r="3.68" fill="#4f89a8" stroke="none" />
<circle data-feature-type="pillar" cx="1160.00" cy="328.00" r="3.68" fill="#4f89a8" stroke="none" />
<circle data-feature-type="pillar" cx="1144.00" cy="360.00" r="3.68" fill="#4f89a8" stroke="none" />
<g data-feature-type="statue"><circle cx="984.00" cy="1336.00" r="3.52" fill="none" /><line x1="981.76" y1="1336.00" x2="986.24" y2="1336.00" /><line x1="984.00" y1="1333.76" x2="984.00" y2="1338.24" /><line x1="982.39" y1="1334.39" x2="985.61" y2="1337.61" /><line x1="982.39" y1="1337.61" x2="985.61" y2="1334.39" /></g>
<circle data-feature-type="pillar" cx="296.00" cy="792.00" r="3.68" fill="#4f89a8" stroke="none" />
<g data-feature-type="statue"><circle cx="280.00" cy="808.00" r="3.52" fill="none" /><line x1="277.76" y1="808.00" x2="282.24" y2="808.00" /><line x1="280.00" y1="805.76" x2="280.00" y2="810.24" /><line x1="278.39" y1="806.39" x2="281.61" y2="809.61" /><line x1="278.39" y1="809.61" x2="281.61" y2="806.39" /></g>
<g data-feature-type="chest"><rect x="293.28" y="758.24" width="5.44" height="3.52" fill="none" /><line x1="293.28" y1="760.00" x2="298.72" y2="760.00" /><circle cx="296.00" cy="760.18" r="0.70" fill="#4f89a8" stroke="none" /></g>
<circle data-feature-type="pillar" cx="1176.00" cy="840.00" r="3.68" fill="#4f89a8" stroke="none" />
<circle data-feature-type="pillar" cx="408.00" cy="1048.00" r="3.68" fill="#4f89a8" stroke="none" />
<g data-feature-type="statue"><circle cx="360.00" cy="1064.00" r="3.52" fill="none" /><line x1="357.76" y1="1064.00" x2="362.24" y2="1064.00" /><line x1="360.00" y1="1061.76" x2="360.00" y2="1066.24" /><line x1="358.39" y1="1062.39" x2="361.61" y2="1065.61" /><line x1="358.39" y1="1065.61" x2="361.61" y2="1062.39" /></g>
<g data-feature-type="trap"><rect x="404.64" y="1028.64" width="6.72" height="6.72" fill="none" /><line x1="404.64" y1="1028.64" x2="411.36" y2="1035.36" /><line x1="404.64" y1="1035.36" x2="411.36" y2="1028.64" /></g>
<g data-feature-type="chest"><rect x="677.28" y="1382.24" width="5.44" height="3.52" fill="none" /><line x1="677.28" y1="1384.00" x2="682.72" y2="1384.00" /><circle cx="680.00" cy="1384.18" r="0.70" fill="#4f89a8" stroke="none" /></g>
<circle data-feature-type="pillar" cx="136.00" cy="1320.00" r="3.68" fill="#4f89a8" stroke="none" />
<circle data-feature-type="pillar" cx="136.00" cy="1304.00" r="3.68" fill="#4f89a8" stroke="none" />
<g data-feature-type="chest"><rect x="101.28" y="1302.24" width="5.44" height="3.52" fill="none" /><line x1="101.28" y1="1304.00" x2="106.72" y2="1304.00" /><circle cx="104.00" cy="1304.18" r="0.70" fill="#4f89a8" stroke="none" /></g>
<circle data-feature-type="pillar" cx="264.00" cy="88.00" r="3.68" fill="#4f89a8" stroke="none" />
<circle data-feature-type="pillar" cx="264.00" cy="152.00" r="3.68" fill="#4f89a8" stroke="none" />
<g data-feature-type="statue"><circle cx="296.00" cy="136.00" r="3.52" fill="none" /><line x1="293.76" y1="136.00" x2="298.24" y2="136.00" /><line x1="296.00" y1="133.76" x2="296.00" y2="138.24" /><line x1="294.39" y1="134.39" x2="297.61" y2="137.61" /><line x1="294.39" y1="137.61" x2="297.61" y2="134.39" /></g>
<g data-feature-type="coffin"><rect x="613.60" y="164.32" width="4.80" height="7.36" rx="0.80" ry="0.80" fill="none" /><line x1="616.00" y1="165.94" x2="616.00" y2="170.06" /></g>
<circle data-feature-type="pillar" cx="312.00" cy="1192.00" r="3.68" fill="#4f89a8" stroke="none" />
<circle data-feature-type="pillar" cx="328.00" cy="1192.00" r="3.68" fill="#4f89a8" stroke="none" />
<g data-feature-type="statue"><circle cx="296.00" cy="1192.00" r="3.52" fill="none" /><line x1="293.76" y1="1192.00" x2="298.24" y2="1192.00" /><line x1="296.00" y1="1189.76" x2="296.00" y2="1194.24" /><line x1="294.39" y1="1190.39" x2="297.61" y2="1193.61" /><line x1="294.39" y1="1193.61" x2="297.61" y2="1190.39" /></g>
<g data-feature-type="chest"><rect x="325.28" y="1158.24" width="5.44" height="3.52" fill="none" /><line x1="325.28" y1="1160.00" x2="330.72" y2="1160.00" /><circle cx="328.00" cy="1160.18" r="0.70" fill="#4f89a8" stroke="none" /></g>
<circle data-feature-type="pillar" cx="984.00" cy="712.00" r="3.68" fill="#4f89a8" stroke="none" />
<path data-feature-type="curtain" d="M 950.40 691.84 Q 952.00 694.34 950.40 696.00 Q 952.00 697.66 950.40 700.16" fill="none" /><path d="M 953.60 691.84 Q 952.00 694.34 953.60 696.00 Q 952.00 697.66 953.60 700.16" fill="none" />
<circle data-feature-type="pillar" cx="936.00" cy="248.00" r="3.68" fill="#4f89a8" stroke="none" />
<circle data-feature-type="pillar" cx="936.00" cy="296.00" r="3.68" fill="#4f89a8" stroke="none" />
<g data-feature-type="trap"><rect x="932.64" y="260.64" width="6.72" height="6.72" fill="none" /><line x1="932.64" y1="260.64" x2="939.36" y2="267.36" /><line x1="932.64" y1="267.36" x2="939.36" y2="260.64" /></g>
<g data-feature-type="coffin"><rect x="293.60" y="916.32" width="4.80" height="7.36" rx="0.80" ry="0.80" fill="none" /><line x1="296.00" y1="917.94" x2="296.00" y2="922.06" /></g>
<circle data-feature-type="pillar" cx="616.00" cy="936.00" r="3.68" fill="#4f89a8" stroke="none" />
<circle data-feature-type="pillar" cx="104.00" cy="472.00" r="3.68" fill="#4f89a8" stroke="none" />
<circle data-feature-type="pillar" cx="760.00" cy="1096.00" r="3.68" fill="#4f89a8" stroke="none" />
<g data-feature-type="trap"><rect x="756.64" y="1076.64" width="6.72" height="6.72" fill="none" /><line x1="756.64" y1="1076.64" x2="763.36" y2="1083.36" /><line x1="756.64" y1="1083.36" x2="763.36" y2="1076.64" /></g>
<g data-feature-type="coffin"><rect x="741.60" y="1076.32" width="4.80" height="7.36" rx="0.80" ry="0.80" fill="none" /><line x1="744.00" y1="1077.94" x2="744.00" y2="1082.06" /></g>
<circle data-feature-type="pillar" cx="200.00" cy="1080.00" r="3.68" fill="#4f89a8" stroke="none" />
<g data-feature-type="statue"><circle cx="184.00" cy="1048.00" r="3.52" fill="none" /><line x1="181.76" y1="1048.00" x2="186.24" y2="1048.00" /><line x1="184.00" y1="1045.76" x2="184.00" y2="1050.24" /><line x1="182.39" y1="1046.39" x2="185.61" y2="1049.61" /><line x1="182.39" y1="1049.61" x2="185.61" y2="1046.39" /></g>
<circle data-feature-type="pillar" cx="456.00" cy="296.00" r="3.68" fill="#4f89a8" stroke="none" />
<g data-feature-type="chest"><rect x="469.28" y="294.24" width="5.44" height="3.52" fill="none" /><line x1="469.28" y1="296.00" x2="474.72" y2="296.00" /><circle cx="472.00" cy="296.18" r="0.70" fill="#4f89a8" stroke="none" /></g>
<circle data-feature-type="pillar" cx="888.00" cy="536.00" r="3.68" fill="#4f89a8" stroke="none" />
<circle data-feature-type="pillar" cx="888.00" cy="488.00" r="3.68" fill="#4f89a8" stroke="none" />
<g data-feature-type="altar"><rect x="901.28" y="470.40" width="5.44" height="3.20" fill="none" /><line x1="904.00" y1="469.44" x2="904.00" y2="474.56" /><line x1="902.40" y1="472.00" x2="905.60" y2="472.00" /></g>
<g data-feature-type="chest"><rect x="853.28" y="470.24" width="5.44" height="3.52" fill="none" /><line x1="853.28" y1="472.00" x2="858.72" y2="472.00" /><circle cx="856.00" cy="472.18" r="0.70" fill="#4f89a8" stroke="none" /></g>
<circle data-feature-type="pillar" cx="808.00" cy="1256.00" r="3.68" fill="#4f89a8" stroke="none" />
<g data-feature-type="statue"><circle cx="808.00" cy="1224.00" r="3.52" fill="none" /><line x1="805.76" y1="1224.00" x2="810.24" y2="1224.00" /><line x1="808.00" y1="1221.76" x2="808.00" y2="1226.24" /><line x1="806.39" y1="1222.39" x2="809.61" y2="1225.61" /><line x1="806.39" y1="1225.61" x2="809.61" y2="1222.39" /></g>
<circle data-feature-type="pillar" cx="456.00" cy="1336.00" r="3.68" fill="#4f89a8" stroke="none" />
<g data-feature-type="statue"><circle cx="472.00" cy="1320.00" r="3.52" fill="none" /><line x1="469.76" y1="1320.00" x2="474.24" y2="1320.00" /><line x1="472.00" y1="1317.76" x2="472.00" y2="1322.24" /><line x1="470.39" y1="1318.39" x2="473.61" y2="1321.61" /><line x1="470.39" y1="1321.61" x2="473.61" y2="1318.39" /></g>
<circle data-feature-type="pillar" cx="120.00" cy="888.00" r="3.68" fill="#4f89a8" stroke="none" />
<g data-feature-type="chest"><rect x="101.28" y="918.24" width="5.44" height="3.52" fill="none" /><line x1="101.28" y1="920.00" x2="106.72" y2="920.00" /><circle cx="104.00" cy="920.18" r="0.70" fill="#4f89a8" stroke="none" /></g>
  </g>
  <g class="thresholds">
<rect data-threshold-type="door" x="739.52" y="581.76" width="8.96" height="4.48" fill="#ffffff" stroke="#4f89a8" stroke-width="1.52" />
<g data-threshold-type="locked" stroke="#4f89a8" fill="none" stroke-width="1.52"><rect x="691.52" y="837.76" width="8.96" height="4.48" fill="#ffffff" /><circle cx="696.00" cy="836.77" r="1.61" /></g>
<g data-threshold-type="secret"><line x1="275.52" y1="264.00" x2="284.48" y2="264.00" stroke="#4f89a8" stroke-width="1.31" stroke-dasharray="1.31 1.31" /><text x="285.56" y="263.10" font-size="5.44" fill="#4f89a8" font-family="Courier New, monospace" font-weight="700">S</text></g>
<rect data-threshold-type="door" x="515.52" y="1173.76" width="8.96" height="4.48" fill="#ffffff" stroke="#4f89a8" stroke-width="1.52" />
<rect data-threshold-type="door" x="531.52" y="581.76" width="8.96" height="4.48" fill="#ffffff" stroke="#4f89a8" stroke-width="1.52" />
<rect data-threshold-type="door" x="995.52" y="837.76" width="8.96" height="4.48" fill="#ffffff" stroke="#4f89a8" stroke-width="1.52" />
<g data-threshold-type="locked" stroke="#4f89a8" fill="none" stroke-width="1.52"><rect x="1091.52" y="293.76" width="8.96" height="4.48" fill="#ffffff" /><circle cx="1096.00" cy="292.77" r="1.61" /></g>
<rect data-threshold-type="door" x="1107.52" y="1317.76" width="8.96" height="4.48" fill="#ffffff" stroke="#4f89a8" stroke-width="1.52" />
<rect data-threshold-type="door" x="275.52" y="741.76" width="8.96" height="4.48" fill="#ffffff" stroke="#4f89a8" stroke-width="1.52" />
<rect data-threshold-type="door" x="1155.52" y="789.76" width="8.96" height="4.48" fill="#ffffff" stroke="#4f89a8" stroke-width="1.52" />
<rect data-threshold-type="door" x="339.52" y="1045.76" width="8.96" height="4.48" fill="#ffffff" stroke="#4f89a8" stroke-width="1.52" />
<g data-threshold-type="locked" stroke="#4f89a8" fill="none" stroke-width="1.52"><rect x="723.52" y="1365.76" width="8.96" height="4.48" fill="#ffffff" /><circle cx="728.00" cy="1364.77" r="1.61" /></g>
<rect data-threshold-type="door" x="1027.52" y="453.76" width="8.96" height="4.48" fill="#ffffff" stroke="#4f89a8" stroke-width="1.52" />
<rect data-threshold-type="door" x="163.52" y="1237.76" width="8.96" height="4.48" fill="#ffffff" stroke="#4f89a8" stroke-width="1.52" />
<rect data-threshold-type="door" x="83.52" y="549.76" width="8.96" height="4.48" fill="#ffffff" stroke="#4f89a8" stroke-width="1.52" />
<rect data-threshold-type="door" x="195.52" y="117.76" width="8.96" height="4.48" fill="#ffffff" stroke="#4f89a8" stroke-width="1.52" />
<rect data-threshold-type="door" x="627.52" y="101.76" width="8.96" height="4.48" fill="#ffffff" stroke="#4f89a8" stroke-width="1.52" />
<g data-threshold-type="locked" stroke="#4f89a8" fill="none" stroke-width="1.52"><rect x="403.52" y="1189.76" width="8.96" height="4.48" fill="#ffffff" /><circle cx="408.00" cy="1188.77" r="1.61" /></g>
<rect data-threshold-type="door" x="995.52" y="709.76" width="8.96" height="4.48" fill="#ffffff" stroke="#4f89a8" stroke-width="1.52" />
<rect data-threshold-type="door" x="963.52" y="325.76" width="8.96" height="4.48" fill="#ffffff" stroke="#4f89a8" stroke-width="1.52" />
<rect data-threshold-type="door" x="1027.52" y="1109.76" width="8.96" height="4.48" fill="#ffffff" stroke="#4f89a8" stroke-width="1.52" />
<g data-threshold-type="locked" stroke="#4f89a8" fill="none" stroke-width="1.52"><rect x="307.52" y="901.76" width="8.96" height="4.48" fill="#ffffff" /><circle cx="312.00" cy="900.77" r="1.61" /></g>
<rect data-threshold-type="door" x="531.52" y="901.76" width="8.96" height="4.48" fill="#ffffff" stroke="#4f89a8" stroke-width="1.52" />
<rect data-threshold-type="door" x="115.52" y="469.76" width="8.96" height="4.48" fill="#ffffff" stroke="#4f89a8" stroke-width="1.52" />
<g data-threshold-type="secret"><line x1="771.52" y1="1096.00" x2="780.48" y2="1096.00" stroke="#4f89a8" stroke-width="1.31" stroke-dasharray="1.31 1.31" /><text x="781.56" y="1095.10" font-size="5.44" fill="#4f89a8" font-family="Courier New, monospace" font-weight="700">S</text></g>
<rect data-threshold-type="door" x="211.52" y="1045.76" width="8.96" height="4.48" fill="#ffffff" stroke="#4f89a8" stroke-width="1.52" />
<rect data-threshold-type="door" x="371.52" y="261.76" width="8.96" height="4.48" fill="#ffffff" stroke="#4f89a8" stroke-width="1.52" />
<g data-threshold-type="secret"><line x1="899.52" y1="456.00" x2="908.48" y2="456.00" stroke="#4f89a8" stroke-width="1.31" stroke-dasharray="1.31 1.31" /><text x="909.56" y="455.10" font-size="5.44" fill="#4f89a8" font-family="Courier New, monospace" font-weight="700">S</text></g>
<rect data-threshold-type="door" x="755.52" y="1301.76" width="8.96" height="4.48" fill="#ffffff" stroke="#4f89a8" stroke-width="1.52" />
<rect data-threshold-type="door" x="1091.52" y="101.76" width="8.96" height="4.48" fill="#ffffff" stroke="#4f89a8" stroke-width="1.52" />
<rect data-threshold-type="door" x="483.52" y="1317.76" width="8.96" height="4.48" fill="#ffffff" stroke="#4f89a8" stroke-width="1.52" />
<rect data-threshold-type="door" x="115.52" y="837.76" width="8.96" height="4.48" fill="#ffffff" stroke="#4f89a8" stroke-width="1.52" />
  </g>
  <g class="labels">
<text x="680.00" y="585.92" text-anchor="middle">1</text>
<text x="696.00" y="793.92" text-anchor="middle">2</text>
<text x="216.00" y="265.92" text-anchor="middle">3</text>
<text x="584.00" y="1113.92" text-anchor="middle">4</text>
<text x="520.00" y="633.92" text-anchor="middle">5</text>
<text x="936.00" y="857.92" text-anchor="middle">6</text>
<text x="1176.00" y="345.92" text-anchor="middle">7</text>
<text x="1048.00" y="1321.92" text-anchor="middle">8</text>
<text x="280.00" y="793.92" text-anchor="middle">9</text>
<text x="1160.00" y="841.92" text-anchor="middle">10</text>
<text x="392.00" y="1049.92" text-anchor="middle">11</text>
<text x="648.00" y="1369.92" text-anchor="middle">12</text>
<text x="1016.00" y="457.92" text-anchor="middle">13</text>
<text x="136.00" y="1289.92" text-anchor="middle">14</text>
<text x="120.00" y="617.92" text-anchor="middle">15</text>
<text x="264.00" y="121.92" text-anchor="middle">16</text>
<text x="616.00" y="121.92" text-anchor="middle">17</text>
<text x="344.00" y="1193.92" text-anchor="middle">18</text>
<text x="968.00" y="713.92" text-anchor="middle">19</text>
<text x="936.00" y="281.92" text-anchor="middle">20</text>
<text x="1032.00" y="1145.92" text-anchor="middle">21</text>
<text x="264.00" y="905.92" text-anchor="middle">22</text>
<text x="600.00" y="937.92" text-anchor="middle">23</text>
<text x="88.00" y="473.92" text-anchor="middle">24</text>
<text x="744.00" y="1097.92" text-anchor="middle">25</text>
<text x="184.00" y="1081.92" text-anchor="middle">26</text>
<text x="440.00" y="297.92" text-anchor="middle">27</text>
<text x="888.00" y="521.92" text-anchor="middle">28</text>
<text x="792.00" y="1257.92" text-anchor="middle">29</text>
<text x="1080.00" y="105.92" text-anchor="middle">30</text>
<text x="440.00" y="1337.92" text-anchor="middle">31</text>
<text x="104.00" y="889.92" text-anchor="middle">32</text>
  </g>
</svg>