<?xml version="1.0" encoding="UTF-8"?>
<svg xmlns="http://www.w3.org/2000/svg" width="1504" height="1536" viewBox="0 0 1504.00 1536.00" role="img" aria-label="MapIR render: Learned Generated Map 3">
  <defs>
    <style>
      .grid { stroke: #cde2ec; stroke-width: 0.64; opacity: 0.72; }
      .walls { stroke: #6aa7c7; stroke-width: 1.92; fill: none; stroke-linecap: square; }
      .thresholds { fill: none; stroke-linecap: round; }
      .features { stroke: #4f89a8; fill: none; stroke-width: 1.60; stroke-linecap: round; stroke-linejoin: round; }
      .labels { fill: #4f89a8; font-size: 7.20px; font-family: "Courier New", monospace; font-weight: 600; }
    </style>
  </defs>
  <rect x="0" y="0" width="1504.00" height="1536.00" fill="#4393be" />
  <g class="floors">
<rect x="560.00" y="32.00" width="64.00" height="128.00" fill="#fcfdfe" />
<rect x="544.00" y="48.00" width="16.00" height="96.00" fill="#fcfdfe" />
<rect x="624.00" y="48.00" width="16.00" height="96.00" fill="#fcfdfe" />
<rect x="528.00" y="64.00" width="16.00" height="64.00" fill="#fcfdfe" />
<rect x="640.00" y="64.00" width="16.00" height="64.00" fill="#fcfdfe" />
<rect x="224.00" y="96.00" width="304.00" height="16.00" fill="#fcfdfe" />
<rect x="224.00" y="112.00" width="16.00" height="496.00" fill="#fcfdfe" />
<rect x="336.00" y="112.00" width="16.00" height="304.00" fill="#fcfdfe" />
<rect x="816.00" y="112.00" width="80.00" height="128.00" fill="#fcfdfe" />
<rect x="592.00" y="160.00" width="16.00" height="112.00" fill="#fcfdfe" />
<rect x="896.00" y="176.00" width="256.00" height="16.00" fill="#fcfdfe" />
<rect x="624.00" y="192.00" width="64.00" height="144.00" fill="#fcfdfe" />
<rect x="1040.00" y="192.00" width="128.00" height="64.00" fill="#fcfdfe" />
<rect x="1024.00" y="208.00" width="16.00" height="32.00" fill="#fcfdfe" />
<rect x="1168.00" y="208.00" width="16.00" height="32.00" fill="#fcfdfe" />
<rect x="928.00" y="224.00" width="96.00" height="16.00" fill="#fcfdfe" />
<rect x="848.00" y="240.00" width="16.00" height="32.00" fill="#fcfdfe" />
<rect x="928.00" y="240.00" width="16.00" height="448.00" fill="#fcfdfe" />
<rect x="288.00" y="256.00" width="48.00" height="80.00" fill="#fcfdfe" />
<rect x="352.00" y="256.00" width="48.00" height="80.00" fill="#fcfdfe" />
<rect x="608.00" y="256.00" width="16.00" height="16.00" fill="#fcfdfe" />
<rect x="688.00" y="256.00" width="160.00" height="16.00" fill="#fcfdfe" />
<rect x="1056.00" y="256.00" width="96.00" height="16.00" fill="#fcfdfe" />
<rect x="400.00" y="288.00" width="224.00" height="16.00" fill="#fcfdfe" />
<rect x="176.00" y="368.00" width="48.00" height="64.00" fill="#fcfdfe" />
<rect x="240.00" y="368.00" width="48.00" height="64.00" fill="#fcfdfe" />
<rect x="880.00" y="368.00" width="48.00" height="192.00" fill="#fcfdfe" />
<rect x="944.00" y="368.00" width="32.00" height="192.00" fill="#fcfdfe" />
<rect x="288.00" y="400.00" width="48.00" height="16.00" fill="#fcfdfe" />
<rect x="976.00" y="464.00" width="48.00" height="16.00" fill="#fcfdfe" />
<rect x="1008.00" y="480.00" width="16.00" height="704.00" fill="#fcfdfe" />
<rect x="1264.00" y="480.00" width="128.00" height="80.00" fill="#fcfdfe" />
<rect x="1152.00" y="512.00" width="112.00" height="16.00" fill="#fcfdfe" />
<rect x="48.00" y="528.00" width="128.00" height="144.00" fill="#fcfdfe" />
<rect x="1152.00" y="528.00" width="16.00" height="272.00" fill="#fcfdfe" />
<rect x="656.00" y="576.00" width="32.00" height="192.00" fill="#fcfdfe" />
<rect x="176.00" y="592.00" width="48.00" height="16.00" fill="#fcfdfe" />
<rect x="624.00" y="592.00" width="32.00" height="160.00" fill="#fcfdfe" />
<rect x="688.00" y="592.00" width="32.00" height="160.00" fill="#fcfdfe" />
<rect x="608.00" y="608.00" width="16.00" height="128.00" fill="#fcfdfe" />
<rect x="720.00" y="608.00" width="16.00" height="128.00" fill="#fcfdfe" />
<rect x="592.00" y="640.00" width="16.00" height="64.00" fill="#fcfdfe" />
<rect x="736.00" y="640.00" width="16.00" height="64.00" fill="#fcfdfe" />
<rect x="1056.00" y="640.00" width="96.00" height="48.00" fill="#fcfdfe" />
<rect x="1168.00" y="640.00" width="80.00" height="48.00" fill="#fcfdfe" />
<rect x="752.00" y="656.00" width="176.00" height="32.00" fill="#fcfdfe" />
<rect x="944.00" y="656.00" width="64.00" height="16.00" fill="#fcfdfe" />
<rect x="1024.00" y="656.00" width="32.00" height="16.00" fill="#fcfdfe" />
<rect x="368.00" y="672.00" width="224.00" height="16.00" fill="#fcfdfe" />
<rect x="1040.00" y="672.00" width="16.00" height="544.00" fill="#fcfdfe" />
<rect x="368.00" y="688.00" width="16.00" height="640.00" fill="#fcfdfe" />
<rect x="976.00" y="688.00" width="32.00" height="192.00" fill="#fcfdfe" />
<rect x="1024.00" y="688.00" width="16.00" height="192.00" fill="#fcfdfe" />
<rect x="672.00" y="768.00" width="16.00" height="592.00" fill="#fcfdfe" />
<rect x="688.00" y="784.00" width="288.00" height="16.00" fill="#fcfdfe" />
<rect x="1056.00" y="784.00" width="96.00" height="16.00" fill="#fcfdfe" />
<rect x="1328.00" y="928.00" width="80.00" height="144.00" fill="#fcfdfe" />
<rect x="784.00" y="960.00" width="112.00" height="192.00" fill="#fcfdfe" />
<rect x="768.00" y="976.00" width="16.00" height="160.00" fill="#fcfdfe" />
<rect x="896.00" y="976.00" width="16.00" height="160.00" fill="#fcfdfe" />
<rect x="752.00" y="992.00" width="16.00" height="128.00" fill="#fcfdfe" />
<rect x="912.00" y="992.00" width="16.00" height="144.00" fill="#fcfdfe" />
<rect x="128.00" y="1024.00" width="192.00" height="80.00" fill="#fcfdfe" />
<rect x="320.00" y="1056.00" width="48.00" height="16.00" fill="#fcfdfe" />
<rect x="608.00" y="1056.00" width="64.00" height="16.00" fill="#fcfdfe" />
<rect x="688.00" y="1056.00" width="64.00" height="16.00" fill="#fcfdfe" />
<rect x="608.00" y="1072.00" width="16.00" height="288.00" fill="#fcfdfe" />
<rect x="992.00" y="1072.00" width="16.00" height="112.00" fill="#fcfdfe" />
<rect x="1024.00" y="1072.00" width="16.00" height="112.00" fill="#fcfdfe" />
<rect x="1056.00" y="1072.00" width="32.00" height="112.00" fill="#fcfdfe" />
<rect x="1328.00" y="1072.00" width="16.00" height="320.00" fill="#fcfdfe" />
<rect x="928.00" y="1120.00" width="64.00" height="16.00" fill="#fcfdfe" />
<rect x="1312.00" y="1136.00" width="16.00" height="144.00" fill="#fcfdfe" />
<rect x="1344.00" y="1136.00" width="16.00" height="144.00" fill="#fcfdfe" />
<rect x="1296.00" y="1152.00" width="16.00" height="112.00" fill="#fcfdfe" />
<rect x="1360.00" y="1152.00" width="16.00" height="112.00" fill="#fcfdfe" />
<rect x="336.00" y="1168.00" width="32.00" height="160.00" fill="#fcfdfe" />
<rect x="384.00" y="1168.00" width="32.00" height="160.00" fill="#fcfdfe" />
<rect x="512.00" y="1168.00" width="96.00" height="192.00" fill="#fcfdfe" />
<rect x="624.00" y="1168.00" width="48.00" height="192.00" fill="#fcfdfe" />
<rect x="688.00" y="1168.00" width="16.00" height="192.00" fill="#fcfdfe" />
<rect x="1280.00" y="1168.00" width="16.00" height="80.00" fill="#fcfdfe" />
<rect x="1376.00" y="1168.00" width="16.00" height="80.00" fill="#fcfdfe" />
<rect x="1264.00" y="1184.00" width="16.00" height="48.00" fill="#fcfdfe" />
<rect x="1392.00" y="1184.00" width="16.00" height="48.00" fill="#fcfdfe" />
<rect x="1056.00" y="1200.00" width="208.00" height="16.00" fill="#fcfdfe" />
<rect x="416.00" y="1264.00" width="96.00" height="16.00" fill="#fcfdfe" />
<rect x="1136.00" y="1360.00" width="128.00" height="48.00" fill="#fcfdfe" />
<rect x="1264.00" y="1376.00" width="64.00" height="16.00" fill="#fcfdfe" />
  </g>
  <g class="grid">
<line x1="0.00" y1="0" x2="0.00" y2="1536.00" />
<line x1="16.00" y1="0" x2="16.00" y2="1536.00" />
<line x1="32.00" y1="0" x2="32.00" y2="1536.00" />
<line x1="48.00" y1="0" x2="48.00" y2="1536.00" />
<line x1="64.00" y1="0" x2="64.00" y2="1536.00" />
<line x1="80.00" y1="0" x2="80.00" y2="1536.00" />
<line x1="96.00" y1="0" x2="96.00" y2="1536.00" />
<line x1="112.00" y1="0" x2="112.00" y2="1536.00" />
<line x1="128.00" y1="0" x2="128.00" y2="1536.00" />
<line x1="144.00" y1="0" x2="144.00" y2="1536.00" />
<line x1="160.00" y1="0" x2="160.00" y2="1536.00" />
<line x1="176.00" y1="0" x2="176.00" y2="1536.00" />
<line x1="192.00" y1="0" x2="192.00" y2="1536.00" />
<line x1="208.00" y1="0" x2="208.00" y2="1536.00" />
<line x1="224.00" y1="0" x2="224.00" y2="1536.00" />
<line x1="240.00" y1="0" x2="240.00" y2="1536.00" />
<line x1="256.00" y1="0" x2="256.00" y2="1536.00" />
<line x1="272.00" y1="0" x2="272.00" y2="1536.00" />
<line x1="288.00" y1="0" x2="288.00" y2="1536.00" />
<line x1="304.00" y1="0" x2="304.00" y2="1536.00" />
<line x1="320.00" y1="0" x2="320.00" y2="1536.00" />
<line x1="336.00" y1="0" x2="336.00" y2="1536.00" />
<line x1="352.00" y1="0" x2="352.00" y2="1536.00" />
<line x1="368.00" y1="0" x2="368.00" y2="1536.00" />
<line x1="384.00" y1="0" x2="384.00" y2="1536.00" />
<line x1="400.00" y1="0" x2="400.00" y2="1536.00" />
<line x1="416.00" y1="0" x2="416.00" y2="1536.00" />
<line x1="432.00" y1="0" x2="432.00" y2="1536.00" />
<line x1="448.00" y1="0" x2="448.00" y2="1536.00" />
<line x1="464.00" y1="0" x2="464.00" y2="1536.00" />
<line x1="480.00" y1="0" x2="480.00" y2="1536.00" />
<line x1="496.00" y1="0" x2="496.00" y2="1536.00" />
<line x1="512.00" y1="0" x2="512.00" y2="1536.00" />
<line x1="528.00" y1="0" x2="528.00" y2="1536.00" />
<line x1="544.00" y1="0" x2="544.00" y2="1536.00" />
<line x1="560.00" y1="0" x2="560.00" y2="1536.00" />
<line x1="576.00" y1="0" x2="576.00" y2="1536.00" />
<line x1="592.00" y1="0" x2="592.00" y2="1536.00" />
<line x1="608.00" y1="0" x2="608.00" y2="1536.00" />
<line x1="624.00" y1="0" x2="624.00" y2="1536.00" />
<line x1="640.00" y1="0" x2="640.00" y2="1536.00" />
<line x1="656.00" y1="0" x2="656.00" y2="1536.00" />
<line x1="672.00" y1="0" x2="672.00" y2="1536.00" />
<line x1="688.00" y1="0" x2="688.00" y2="1536.00" />
<line x1="704.00" y1="0" x2="704.00" y2="1536.00" />
<line x1="720.00" y1="0" x2="720.00" y2="1536.00" />
<line x1="736.00" y1="0" x2="736.00" y2="1536.00" />
<line x1="752.00" y1="0" x2="752.00" y2="1536.00" />
<line x1="768.00" y1="0" x2="768.00" y2="1536.00" />
<line x1="784.00" y1="0" x2="784.00" y2="1536.00" />
<line x1="800.00" y1="0" x2="800.00" y2="1536.00" />
<line x1="816.00" y1="0" x2="816.00" y2="1536.00" />
<line x1="832.00" y1="0" x2="832.00" y2="1536.00" />
<line x1="848.00" y1="0" x2="848.00" y2="1536.00" />
<line x1="864.00" y1="0" x2="864.00" y2="1536.00" />
<line x1="880.00" y1="0" x2="880.00" y2="1536.00" />
<line x1="896.00" y1="0" x2="896.00" y2="1536.00" />
<line x1="912.00" y1="0" x2="912.00" y2="1536.00" />
<line x1="928.00" y1="0" x2="928.00" y2="1536.00" />
<line x1="944.00" y1="0" x2="944.00" y2="1536.00" />
<line x1="960.00" y1="0" x2="960.00" y2="1536.00" />
<line x1="976.00" y1="0" x2="976.00" y2="1536.00" />
<line x1="992.00" y1="0" x2="992.00" y2="1536.00" />
<line x1="1008.00" y1="0" x2="1008.00" y2="1536.00" />
<line x1="1024.00" y1="0" x2="1024.00" y2="1536.00" />
<line x1="1040.00" y1="0" x2="1040.00" y2="1536.00" />
<line x1="1056.00" y1="0" x2="1056.00" y2="1536.00" />
<line x1="1072.00" y1="0" x2="1072.00" y2="1536.00" />
<line x1="1088.00" y1="0" x2="1088.00" y2="1536.00" />
<line x1="1104.00" y1="0" x2="1104.00" y2="1536.00" />
<line x1="1120.00" y1="0" x2="1120.00" y2="1536.00" />
<line x1="1136.00" y1="0" x2="1136.00" y2="1536.00" />
<line x1="1152.00" y1="0" x2="1152.00" y2="1536.00" />
<line x1="1168.00" y1="0" x2="1168.00" y2="1536.00" />
<line x1="1184.00" y1="0" x2="1184.00" y2="1536.00" />
<line x1="1200.00" y1="0" x2="1200.00" y2="1536.00" />
<line x1="1216.00" y1="0" x2="1216.00" y2="1536.00" />
<line x1="1232.00" y1="0" x2="1232.00" y2="1536.00" />
<line x1="1248.00" y1="0" x2="1248.00" y2="1536.00" />
<line x1="1264.00" y1="0" x2="1264.00" y2="1536.00" />
<line x1="1280.00" y1="0" x2="1280.00" y2="1536.00" />
<line x1="1296.00" y1="0" x2="1296.00" y2="1536.00" />
<line x1="1312.00" y1="0" x2="1312.00" y2="1536.00" />
<line x1="1328.00" y1="0" x2="1328.00" y2="1536.00" />
<line x1="1344.00" y1="0" x2="1344.00" y2="1536.00" />
<line x1="1360.00" y1="0" x2="1360.00" y2="1536.00" />
<line x1="1376.00" y1="0" x2="1376.00" y2="1536.00" />
<line x1="1392.00" y1="0" x2="1392.00" y2="1536.00" />
<line x1="1408.00" y1="0" x2="1408.00" y2="1536.00" />
<line x1="1424.00" y1="0" x2="1424.00" y2="1536.00" />
<line x1="1440.00" y1="0" x2="1440.00" y2="1536.00" />
<line x1="1456.00" y1="0" x2="1456.00" y2="1536.00" />
<line x1="1472.00" y1="0" x2="1472.00" y2="1536.00" />
<line x1="1488.00" y1="0" x2="1488.00" y2="1536.00" />
<line x1="1504.00" y1="0" x2="1504.00" y2="1536.00" />
<line x1="0" y1="0.00" x2="1504.00" y2="0.00" />
<line x1="0" y1="16.00" x2="1504.00" y2="16.00" />
<line x1="0" y1="32.00" x2="1504.00" y2="32.00" />
<line x1="0" y1="48.00" x2="1504.00" y2="48.00" />
<line x1="0" y1="64.00" x2="1504.00" y2="64.00" />
<line x1="0" y1="80.00" x2="1504.00" y2="80.00" />
<line x1="0" y1="96.00" x2="1504.00" y2="96.00" />
<line x1="0" y1="112.00" x2="1504.00" y2="112.00" />
<line x1="0" y1="128.00" x2="1504.00" y2="128.00" />
<line x1="0" y1="144.00" x2="1504.00" y2="144.00" />
<line x1="0" y1="160.00" x2="1504.00" y2="160.00" />
<line x1="0" y1="176.00" x2="1504.00" y2="176.00" />
<line x1="0" y1="192.00" x2="1504.00" y2="192.00" />
<line x1="0" y1="208.00" x2="1504.00" y2="208.00" />
<line x1="0" y1="224.00" x2="1504.00" y2="224.00" />
<line x1="0" y1="240.00" x2="1504.00" y2="240.00" />
<line x1="0" y1="256.00" x2="1504.00" y2="256.00" />
<line x1="0" y1="272.00" x2="1504.00" y2="272.00" />
<line x1="0" y1="288.00" x2="1504.00" y2="288.00" />
<line x1="0" y1="304.00" x2="1504.00" y2="304.00" />
<line x1="0" y1="320.00" x2="1504.00" y2="320.00" />
<line x1="0" y1="336.00" x2="1504.00" y2="336.00" />
<line x1="0" y1="352.00" x2="1504.00" y2="352.00" />
<line x1="0" y1="368.00" x2="1504.00" y2="368.00" />
<line x1="0" y1="384.00" x2="1504.00" y2="384.00" />
<line x1="0" y1="400.00" x2="1504.00" y2="400.00" />
<line x1="0" y1="416.00" x2="1504.00" y2="416.00" />
<line x1="0" y1="432.00" x2="1504.00" y2="432.00" />
<line x1="0" y1="448.00" x2="1504.00" y2="448.00" />
<line x1="0" y1="464.00" x2="1504.00" y2="464.00" />
<line x1="0" y1="480.00" x2="1504.00" y2="480.00" />
<line x1="0" y1="496.00" x2="1504.00" y2="496.00" />
<line x1="0" y1="512.00" x2="1504.00" y2="512.00" />
<line x1="0" y1="528.00" x2="1504.00" y2="528.00" />
<line x1="0" y1="544.00" x2="1504.00" y2="544.00" />
<line x1="0" y1="560.00" x2="1504.00" y2="560.00" />
<line x1="0" y1="576.00" x2="1504.00" y2="576.00" />
<line x1="0" y1="592.00" x2="1504.00" y2="592.00" />
<line x1="0" y1="608.00" x2="1504.00" y2="608.00" />
<line x1="0" y1="624.00" x2="1504.00" y2="624.00" />
<line x1="0" y1="640.00" x2="1504.00" y2="640.00" />
<line x1="0" y1="656.00" x2="1504.00" y2="656.00" />
<line x1="0" y1="672.00" x2="1504.00" y2="672.00" />
<line x1="0" y1="688.00" x2="1504.00" y2="688.00" />
<line x1="0" y1="704.00" x2="1504.00" y2="704.00" />
<line x1="0" y1="720.00" x2="1504.00" y2="720.00" />
<line x1="0" y1="736.00" x2="1504.00" y2="736.00" />
<line x1="0" y1="752.00" x2="1504.00" y2="752.00" />
<line x1="0" y1="768.00" x2="1504.00" y2="768.00" />
<line x1="0" y1="784.00" x2="1504.00" y2="784.00" />
<line x1="0" y1="800.00" x2="1504.00" y2="800.00" />
<line x1="0" y1="816.00" x2="1504.00" y2="816.00" />
<line x1="0" y1="832.00" x2="1504.00" y2="832.00" />
<line x1="0" y1="848.00" x2="1504.00" y2="848.00" />
<line x1="0" y1="864.00" x2="1504.00" y2="864.00" />
<line x1="0" y1="880.00" x2="1504.00" y2="880.00" />
<line x1="0" y1="896.00" x2="1504.00" y2="896.00" />
<line x1="0" y1="912.00" x2="1504.00" y2="912.00" />
<line x1="0" y1="928.00" x2="1504.00" y2="928.00" />
<line x1="0" y1="944.00" x2="1504.00" y2="944.00" />
<line x1="0" y1="960.00" x2="1504.00" y2="960.00" />
<line x1="0" y1="976.00" x2="1504.00" y2="976.00" />
<line x1="0" y1="992.00" x2="1504.00" y2="992.00" />
<line x1="0" y1="1008.00" x2="1504.00" y2="1008.00" />
<line x1="0" y1="1024.00" x2="1504.00" y2="1024.00" />
<line x1="0" y1="1040.00" x2="1504.00" y2="1040.00" />
<line x1="0" y1="1056.00" x2="1504.00" y2="1056.00" />
<line x1="0" y1="1072.00" x2="1504.00" y2="1072.00" />
<line x1="0" y1="1088.00" x2="1504.00" y2="1088.00" />
<line x1="0" y1="1104.00" x2="1504.00" y2="1104.00" />
<line x1="0" y1="1120.00" x2="1504.00" y2="1120.00" />
<line x1="0" y1="1136.00" x2="1504.00" y2="1136.00" />
<line x1="0" y1="1152.00" x2="1504.00" y2="1152.00" />
<line x1="0" y1="1168.00" x2="1504.00" y2="1168.00" />
<line x1="0" y1="1184.00" x2="1504.00" y2="1184.00" />
<line x1="0" y1="1200.00" x2="1504.00" y2="1200.00" />
<line x1="0" y1="1216.00" x2="1504.00" y2="1216.00" />
<line x1="0" y1="1232.00" x2="1504.00" y2="1232.00" />
<line x1="0" y1="1248.00" x2="1504.00" y2="1248.00" />
<line x1="0" y1="1264.00" x2="1504.00" y2="1264.00" />
<line x1="0" y1="1280.00" x2="1504.00" y2="1280.00" />
<line x1="0" y1="1296.00" x2="1504.00" y2="1296.00" />
<line x1="0" y1="1312.00" x2="1504.00" y2="1312.00" />
<line x1="0" y1="1328.00" x2="1504.00" y2="1328.00" />
<line x1="0" y1="1344.00" x2="1504.00" y2="1344.00" />
<line x1="0" y1="1360.00" x2="1504.00" y2="1360.00" />
<line x1="0" y1="1376.00" x2="1504.00" y2="1376.00" />
<line x1="0" y1="1392.00" x2="1504.00" y2="1392.00" />
<line x1="0" y1="1408.00" x2="1504.00" y2="1408.00" />
<line x1="0" y1="1424.00" x2="1504.00" y2="1424.00" />
<line x1="0" y1="1440.00" x2="1504.00" y2="1440.00" />
<line x1="0" y1="1456.00" x2="1504.00" y2="1456.00" />
<line x1="0" y1="1472.00" x2="1504.00" y2="1472.00" />
<line x1="0" y1="1488.00" x2="1504.00" y2="1488.00" />
<line x1="0" y1="1504.00" x2="1504.00" y2="1504.00" />
<line x1="0" y1="1520.00" x2="1504.00" y2="1520.00" />
<line x1="0" y1="1536.00" x2="1504.00" y2="1536.00" />
  </g>
  <g class="walls">
<line x1="560.00" y1="32.00" x2="624.00" y2="32.00" />
<line x1="544.00" y1="48.00" x2="560.00" y2="48.00" />
<line x1="624.00" y1="48.00" x2="640.00" y2="48.00" />
<line x1="528.00" y1="64.00" x2="544.00" y2="64.00" />
<line x1="640.00" y1="64.00" x2="656.00" y2="64.00" />
<line x1="224.00" y1="96.00" x2="528.00" y2="96.00" />
<line x1="240.00" y1="112.00" x2="336.00" y2="112.00" />
<line x1="352.00" y1="112.00" x2="528.00" y2="112.00" />
<line x1="816.00" y1="112.00" x2="896.00" y2="112.00" />
<line x1="528.00" y1="128.00" x2="544.00" y2="128.00" />
<line x1="640.00" y1="128.00" x2="656.00" y2="128.00" />
<line x1="544.00" y1="144.00" x2="560.00" y2="144.00" />
<line x1="624.00" y1="144.00" x2="640.00" y2="144.00" />
<line x1="560.00" y1="160.00" x2="592.00" y2="160.00" />
<line x1="608.00" y1="160.00" x2="624.00" y2="160.00" />
<line x1="896.00" y1="176.00" x2="1152.00" y2="176.00" />
<line x1="624.00" y1="192.00" x2="688.00" y2="192.00" />
<line x1="896.00" y1="192.00" x2="1040.00" y2="192.00" />
<line x1="1152.00" y1="192.00" x2="1168.00" y2="192.00" />
<line x1="1024.00" y1="208.00" x2="1040.00" y2="208.00" />
<line x1="1168.00" y1="208.00" x2="1184.00" y2="208.00" />
<line x1="816.00" y1="240.00" x2="848.00" y2="240.00" />
<line x1="864.00" y1="240.00" x2="896.00" y2="240.00" />
<line x1="944.00" y1="240.00" x2="1040.00" y2="240.00" />
<line x1="1168.00" y1="240.00" x2="1184.00" y2="240.00" />
<line x1="928.00" y1="224.00" x2="1024.00" y2="224.00" />
<line x1="288.00" y1="256.00" x2="336.00" y2="256.00" />
<line x1="352.00" y1="256.00" x2="400.00" y2="256.00" />
<line x1="608.00" y1="256.00" x2="624.00" y2="256.00" />
<line x1="688.00" y1="256.00" x2="848.00" y2="256.00" />
<line x1="1040.00" y1="256.00" x2="1056.00" y2="256.00" />
<line x1="1152.00" y1="256.00" x2="1168.00" y2="256.00" />
<line x1="592.00" y1="272.00" x2="624.00" y2="272.00" />
<line x1="688.00" y1="272.00" x2="864.00" y2="272.00" />
<line x1="1056.00" y1="272.00" x2="1152.00" y2="272.00" />
<line x1="400.00" y1="288.00" x2="624.00" y2="288.00" />
<line x1="400.00" y1="304.00" x2="624.00" y2="304.00" />
<line x1="288.00" y1="336.00" x2="336.00" y2="336.00" />
<line x1="352.00" y1="336.00" x2="400.00" y2="336.00" />
<line x1="624.00" y1="336.00" x2="688.00" y2="336.00" />
<line x1="176.00" y1="368.00" x2="224.00" y2="368.00" />
<line x1="240.00" y1="368.00" x2="288.00" y2="368.00" />
<line x1="880.00" y1="368.00" x2="928.00" y2="368.00" />
<line x1="944.00" y1="368.00" x2="976.00" y2="368.00" />
<line x1="288.00" y1="400.00" x2="336.00" y2="400.00" />
<line x1="288.00" y1="416.00" x2="352.00" y2="416.00" />
<line x1="176.00" y1="432.00" x2="224.00" y2="432.00" />
<line x1="240.00" y1="432.00" x2="288.00" y2="432.00" />
<line x1="976.00" y1="464.00" x2="1024.00" y2="464.00" />
<line x1="976.00" y1="480.00" x2="1008.00" y2="480.00" />
<line x1="1264.00" y1="480.00" x2="1392.00" y2="480.00" />
<line x1="1152.00" y1="512.00" x2="1264.00" y2="512.00" />
<line x1="48.00" y1="528.00" x2="176.00" y2="528.00" />
<line x1="1168.00" y1="528.00" x2="1264.00" y2="528.00" />
<line x1="880.00" y1="560.00" x2="928.00" y2="560.00" />
<line x1="944.00" y1="560.00" x2="976.00" y2="560.00" />
<line x1="1264.00" y1="560.00" x2="1392.00" y2="560.00" />
<line x1="656.00" y1="576.00" x2="688.00" y2="576.00" />
<line x1="176.00" y1="592.00" x2="224.00" y2="592.00" />
<line x1="624.00" y1="592.00" x2="656.00" y2="592.00" />
<line x1="688.00" y1="592.00" x2="720.00" y2="592.00" />
<line x1="176.00" y1="608.00" x2="240.00" y2="608.00" />
<line x1="608.00" y1="608.00" x2="624.00" y2="608.00" />
<line x1="720.00" y1="608.00" x2="736.00" y2="608.00" />
<line x1="592.00" y1="640.00" x2="608.00" y2="640.00" />
<line x1="736.00" y1="640.00" x2="752.00" y2="640.00" />
<line x1="1056.00" y1="640.00" x2="1152.00" y2="640.00" />
<line x1="1168.00" y1="640.00" x2="1248.00" y2="640.00" />
<line x1="48.00" y1="672.00" x2="176.00" y2="672.00" />
<line x1="368.00" y1="672.00" x2="592.00" y2="672.00" />
<line x1="944.00" y1="672.00" x2="1008.00" y2="672.00" />
<line x1="1024.00" y1="672.00" x2="1040.00" y2="672.00" />
<line x1="752.00" y1="656.00" x2="928.00" y2="656.00" />
<line x1="944.00" y1="656.00" x2="1008.00" y2="656.00" />
<line x1="1024.00" y1="656.00" x2="1056.00" y2="656.00" />
<line x1="384.00" y1="688.00" x2="592.00" y2="688.00" />
<line x1="752.00" y1="688.00" x2="944.00" y2="688.00" />
<line x1="976.00" y1="688.00" x2="1008.00" y2="688.00" />
<line x1="1024.00" y1="688.00" x2="1040.00" y2="688.00" />
<line x1="1056.00" y1="688.00" x2="1152.00" y2="688.00" />
<line x1="1168.00" y1="688.00" x2="1248.00" y2="688.00" />
<line x1="592.00" y1="704.00" x2="608.00" y2="704.00" />
<line x1="736.00" y1="704.00" x2="752.00" y2="704.00" />
<line x1="608.00" y1="736.00" x2="624.00" y2="736.00" />
<line x1="720.00" y1="736.00" x2="736.00" y2="736.00" />
<line x1="624.00" y1="752.00" x2="656.00" y2="752.00" />
<line x1="688.00" y1="752.00" x2="720.00" y2="752.00" />
<line x1="656.00" y1="768.00" x2="672.00" y2="768.00" />
<line x1="688.00" y1="784.00" x2="976.00" y2="784.00" />
<line x1="1056.00" y1="784.00" x2="1152.00" y2="784.00" />
<line x1="688.00" y1="800.00" x2="976.00" y2="800.00" />
<line x1="1056.00" y1="800.00" x2="1168.00" y2="800.00" />
<line x1="976.00" y1="880.00" x2="1008.00" y2="880.00" />
<line x1="1024.00" y1="880.00" x2="1040.00" y2="880.00" />
<line x1="1328.00" y1="928.00" x2="1408.00" y2="928.00" />
<line x1="784.00" y1="960.00" x2="896.00" y2="960.00" />
<line x1="768.00" y1="976.00" x2="784.00" y2="976.00" />
<line x1="896.00" y1="976.00" x2="912.00" y2="976.00" />
<line x1="752.00" y1="992.00" x2="768.00" y2="992.00" />
<line x1="912.00" y1="992.00" x2="928.00" y2="992.00" />
<line x1="128.00" y1="1024.00" x2="320.00" y2="1024.00" />
<line x1="320.00" y1="1056.00" x2="368.00" y2="1056.00" />
<line x1="608.00" y1="1056.00" x2="672.00" y2="1056.00" />
<line x1="688.00" y1="1056.00" x2="752.00" y2="1056.00" />
<line x1="320.00" y1="1072.00" x2="368.00" y2="1072.00" />
<line x1="624.00" y1="1072.00" x2="672.00" y2="1072.00" />
<line x1="688.00" y1="1072.00" x2="752.00" y2="1072.00" />
<line x1="992.00" y1="1072.00" x2="1008.00" y2="1072.00" />
<line x1="1024.00" y1="1072.00" x2="1040.00" y2="1072.00" />
<line x1="1056.00" y1="1072.00" x2="1088.00" y2="1072.00" />
<line x1="1344.00" y1="1072.00" x2="1408.00" y2="1072.00" />
<line x1="128.00" y1="1104.00" x2="320.00" y2="1104.00" />
<line x1="752.00" y1="1120.00" x2="768.00" y2="1120.00" />
<line x1="928.00" y1="1120.00" x2="992.00" y2="1120.00" />
<line x1="768.00" y1="1136.00" x2="784.00" y2="1136.00" />
<line x1="896.00" y1="1136.00" x2="992.00" y2="1136.00" />
<line x1="1312.00" y1="1136.00" x2="1328.00" y2="1136.00" />
<line x1="1344.00" y1="1136.00" x2="1360.00" y2="1136.00" />
<line x1="784.00" y1="1152.00" x2="896.00" y2="1152.00" />
<line x1="1296.00" y1="1152.00" x2="1312.00" y2="1152.00" />
<line x1="1360.00" y1="1152.00" x2="1376.00" y2="1152.00" />
<line x1="336.00" y1="1168.00" x2="368.00" y2="1168.00" />
<line x1="384.00" y1="1168.00" x2="416.00" y2="1168.00" />
<line x1="512.00" y1="1168.00" x2="608.00" y2="1168.00" />
<line x1="624.00" y1="1168.00" x2="672.00" y2="1168.00" />
<line x1="688.00" y1="1168.00" x2="704.00" y2="1168.00" />
<line x1="1280.00" y1="1168.00" x2="1296.00" y2="1168.00" />
<line x1="1376.00" y1="1168.00" x2="1392.00" y2="1168.00" />
<line x1="992.00" y1="1184.00" x2="1040.00" y2="1184.00" />
<line x1="1056.00" y1="1184.00" x2="1088.00" y2="1184.00" />
<line x1="1264.00" y1="1184.00" x2="1280.00" y2="1184.00" />
<line x1="1392.00" y1="1184.00" x2="1408.00" y2="1184.00" />
<line x1="1040.00" y1="1216.00" x2="1264.00" y2="1216.00" />
<line x1="1056.00" y1="1200.00" x2="1264.00" y2="1200.00" />
<line x1="1264.00" y1="1232.00" x2="1280.00" y2="1232.00" />
<line x1="1392.00" y1="1232.00" x2="1408.00" y2="1232.00" />
<line x1="1280.00" y1="1248.00" x2="1296.00" y2="1248.00" />
<line x1="1376.00" y1="1248.00" x2="1392.00" y2="1248.00" />
<line x1="416.00" y1="1264.00" x2="512.00" y2="1264.00" />
<line x1="1296.00" y1="1264.00" x2="1312.00" y2="1264.00" />
<line x1="1360.00" y1="1264.00" x2="1376.00" y2="1264.00" />
<line x1="416.00" y1="1280.00" x2="512.00" y2="1280.00" />
<line x1="1312.00" y1="1280.00" x2="1328.00" y2="1280.00" />
<line x1="1344.00" y1="1280.00" x2="1360.00" y2="1280.00" />
<line x1="336.00" y1="1328.00" x2="416.00" y2="1328.00" />
<line x1="512.00" y1="1360.00" x2="704.00" y2="1360.00" />
<line x1="1136.00" y1="1360.00" x2="1264.00" y2="1360.00" />
<line x1="1264.00" y1="1376.00" x2="1328.00" y2="1376.00" />
<line x1="1264.00" y1="1392.00" x2="1344.00" y2="1392.00" />
<line x1="1136.00" y1="1408.00" x2="1264.00" y2="1408.00" />
<line x1="560.00" y1="32.00" x2="560.00" y2="48.00" />
<line x1="560.00" y1="144.00" x2="560.00" y2="160.00" />
<line x1="624.00" y1="32.00" x2="624.00" y2="48.00" />
<line x1="624.00" y1="144.00" x2="624.00" y2="160.00" />
<line x1="624.00" y1="192.00" x2="624.00" y2="256.00" />
<line x1="624.00" y1="272.00" x2="624.00" y2="288.00" />
<line x1="624.00" y1="304.00" x2="624.00" y2="336.00" />
<line x1="624.00" y1="592.00" x2="624.00" y2="608.00" />
<line x1="624.00" y1="736.00" x2="624.00" y2="752.00" />
<line x1="624.00" y1="1072.00" x2="624.00" y2="1168.00" />
<line x1="544.00" y1="48.00" x2="544.00" y2="64.00" />
<line x1="544.00" y1="128.00" x2="544.00" y2="144.00" />
<line x1="640.00" y1="48.00" x2="640.00" y2="64.00" />
<line x1="640.00" y1="128.00" x2="640.00" y2="144.00" />
<line x1="528.00" y1="64.00" x2="528.00" y2="96.00" />
<line x1="528.00" y1="112.00" x2="528.00" y2="128.00" />
<line x1="656.00" y1="64.00" x2="656.00" y2="128.00" />
<line x1="656.00" y1="576.00" x2="656.00" y2="592.00" />
<line x1="656.00" y1="752.00" x2="656.00" y2="768.00" />
<line x1="224.00" y1="96.00" x2="224.00" y2="368.00" />
<line x1="224.00" y1="432.00" x2="224.00" y2="592.00" />
<line x1="240.00" y1="112.00" x2="240.00" y2="368.00" />
<line x1="240.00" y1="432.00" x2="240.00" y2="608.00" />
<line x1="336.00" y1="112.00" x2="336.00" y2="256.00" />
<line x1="336.00" y1="336.00" x2="336.00" y2="400.00" />
<line x1="336.00" y1="1168.00" x2="336.00" y2="1328.00" />
<line x1="352.00" y1="112.00" x2="352.00" y2="256.00" />
<line x1="352.00" y1="336.00" x2="352.00" y2="416.00" />
<line x1="816.00" y1="112.00" x2="816.00" y2="240.00" />
<line x1="896.00" y1="112.00" x2="896.00" y2="176.00" />
<line x1="896.00" y1="192.00" x2="896.00" y2="240.00" />
<line x1="896.00" y1="960.00" x2="896.00" y2="976.00" />
<line x1="896.00" y1="1136.00" x2="896.00" y2="1152.00" />
<line x1="592.00" y1="160.00" x2="592.00" y2="272.00" />
<line x1="592.00" y1="640.00" x2="592.00" y2="672.00" />
<line x1="592.00" y1="688.00" x2="592.00" y2="704.00" />
<line x1="608.00" y1="160.00" x2="608.00" y2="256.00" />
<line x1="608.00" y1="608.00" x2="608.00" y2="640.00" />
<line x1="608.00" y1="704.00" x2="608.00" y2="736.00" />
<line x1="608.00" y1="1056.00" x2="608.00" y2="1168.00" />
<line x1="1152.00" y1="176.00" x2="1152.00" y2="192.00" />
<line x1="1152.00" y1="256.00" x2="1152.00" y2="272.00" />
<line x1="1152.00" y1="512.00" x2="1152.00" y2="640.00" />
<line x1="1152.00" y1="688.00" x2="1152.00" y2="784.00" />
<line x1="688.00" y1="192.00" x2="688.00" y2="256.00" />
<line x1="688.00" y1="272.00" x2="688.00" y2="336.00" />
<line x1="688.00" y1="576.00" x2="688.00" y2="592.00" />
<line x1="688.00" y1="752.00" x2="688.00" y2="784.00" />
<line x1="688.00" y1="800.00" x2="688.00" y2="1056.00" />
<line x1="688.00" y1="1072.00" x2="688.00" y2="1168.00" />
<line x1="1040.00" y1="192.00" x2="1040.00" y2="208.00" />
<line x1="1040.00" y1="240.00" x2="1040.00" y2="256.00" />
<line x1="1040.00" y1="672.00" x2="1040.00" y2="688.00" />
<line x1="1040.00" y1="880.00" x2="1040.00" y2="1072.00" />
<line x1="1040.00" y1="1184.00" x2="1040.00" y2="1216.00" />
<line x1="1168.00" y1="192.00" x2="1168.00" y2="208.00" />
<line x1="1168.00" y1="240.00" x2="1168.00" y2="256.00" />
<line x1="1168.00" y1="528.00" x2="1168.00" y2="640.00" />
<line x1="1168.00" y1="688.00" x2="1168.00" y2="800.00" />
<line x1="1024.00" y1="208.00" x2="1024.00" y2="224.00" />
<line x1="1024.00" y1="464.00" x2="1024.00" y2="656.00" />
<line x1="1024.00" y1="672.00" x2="1024.00" y2="688.00" />
<line x1="1024.00" y1="880.00" x2="1024.00" y2="1072.00" />
<line x1="1184.00" y1="208.00" x2="1184.00" y2="240.00" />
<line x1="928.00" y1="224.00" x2="928.00" y2="368.00" />
<line x1="928.00" y1="560.00" x2="928.00" y2="656.00" />
<line x1="928.00" y1="992.00" x2="928.00" y2="1120.00" />
<line x1="848.00" y1="240.00" x2="848.00" y2="256.00" />
<line x1="864.00" y1="240.00" x2="864.00" y2="272.00" />
<line x1="944.00" y1="240.00" x2="944.00" y2="368.00" />
<line x1="944.00" y1="560.00" x2="944.00" y2="656.00" />
<line x1="944.00" y1="672.00" x2="944.00" y2="688.00" />
<line x1="288.00" y1="256.00" x2="288.00" y2="336.00" />
<line x1="288.00" y1="368.00" x2="288.00" y2="400.00" />
<line x1="288.00" y1="416.00" x2="288.00" y2="432.00" />
<line x1="400.00" y1="256.00" x2="400.00" y2="288.00" />
<line x1="400.00" y1="304.00" x2="400.00" y2="336.00" />
<line x1="1056.00" y1="256.00" x2="1056.00" y2="272.00" />
<line x1="1056.00" y1="640.00" x2="1056.00" y2="656.00" />
<line x1="1056.00" y1="688.00" x2="1056.00" y2="784.00" />
<line x1="1056.00" y1="800.00" x2="1056.00" y2="1072.00" />
<line x1="1056.00" y1="1184.00" x2="1056.00" y2="1200.00" />
<line x1="176.00" y1="368.00" x2="176.00" y2="432.00" />
<line x1="176.00" y1="528.00" x2="176.00" y2="592.00" />
<line x1="176.00" y1="608.00" x2="176.00" y2="672.00" />
<line x1="880.00" y1="368.00" x2="880.00" y2="560.00" />
<line x1="976.00" y1="368.00" x2="976.00" y2="464.00" />
<line x1="976.00" y1="480.00" x2="976.00" y2="560.00" />
<line x1="976.00" y1="688.00" x2="976.00" y2="784.00" />
<line x1="976.00" y1="800.00" x2="976.00" y2="880.00" />
<line x1="1008.00" y1="480.00" x2="1008.00" y2="656.00" />
<line x1="1008.00" y1="672.00" x2="1008.00" y2="688.00" />
<line x1="1008.00" y1="880.00" x2="1008.00" y2="1072.00" />
<line x1="1264.00" y1="480.00" x2="1264.00" y2="512.00" />
<line x1="1264.00" y1="528.00" x2="1264.00" y2="560.00" />
<line x1="1264.00" y1="1184.00" x2="1264.00" y2="1200.00" />
<line x1="1264.00" y1="1216.00" x2="1264.00" y2="1232.00" />
<line x1="1264.00" y1="1360.00" x2="1264.00" y2="1376.00" />
<line x1="1264.00" y1="1392.00" x2="1264.00" y2="1408.00" />
<line x1="1392.00" y1="480.00" x2="1392.00" y2="560.00" />
<line x1="1392.00" y1="1168.00" x2="1392.00" y2="1184.00" />
<line x1="1392.00" y1="1232.00" x2="1392.00" y2="1248.00" />
<line x1="48.00" y1="528.00" x2="48.00" y2="672.00" />
<line x1="720.00" y1="592.00" x2="720.00" y2="608.00" />
<line x1="720.00" y1="736.00" x2="720.00" y2="752.00" />
<line x1="736.00" y1="608.00" x2="736.00" y2="640.00" />
<line x1="736.00" y1="704.00" x2="736.00" y2="736.00" />
<line x1="752.00" y1="640.00" x2="752.00" y2="656.00" />
<line x1="752.00" y1="688.00" x2="752.00" y2="704.00" />
<line x1="752.00" y1="992.00" x2="752.00" y2="1056.00" />
<line x1="752.00" y1="1072.00" x2="752.00" y2="1120.00" />
<line x1="1248.00" y1="640.00" x2="1248.00" y2="688.00" />
<line x1="368.00" y1="672.00" x2="368.00" y2="1056.00" />
<line x1="368.00" y1="1072.00" x2="368.00" y2="1168.00" />
<line x1="384.00" y1="688.00" x2="384.00" y2="1168.00" />
<line x1="672.00" y1="768.00" x2="672.00" y2="1056.00" />
<line x1="672.00" y1="1072.00" x2="672.00" y2="1168.00" />
<line x1="1328.00" y1="928.00" x2="1328.00" y2="1136.00" />
<line x1="1328.00" y1="1280.00" x2="1328.00" y2="1376.00" />
<line x1="1408.00" y1="928.00" x2="1408.00" y2="1072.00" />
<line x1="1408.00" y1="1184.00" x2="1408.00" y2="1232.00" />
<line x1="784.00" y1="960.00" x2="784.00" y2="976.00" />
<line x1="784.00" y1="1136.00" x2="784.00" y2="1152.00" />
<line x1="768.00" y1="976.00" x2="768.00" y2="992.00" />
<line x1="768.00" y1="1120.00" x2="768.00" y2="1136.00" />
<line x1="912.00" y1="976.00" x2="912.00" y2="992.00" />
<line x1="128.00" y1="1024.00" x2="128.00" y2="1104.00" />
<line x1="320.00" y1="1024.00" x2="320.00" y2="1056.00" />
<line x1="320.00" y1="1072.00" x2="320.00" y2="1104.00" />
<line x1="992.00" y1="1072.00" x2="992.00" y2="1120.00" />
<line x1="992.00" y1="1136.00" x2="992.00" y2="1184.00" />
<line x1="1088.00" y1="1072.00" x2="1088.00" y2="1184.00" />
<line x1="1344.00" y1="1072.00" x2="1344.00" y2="1136.00" />
<line x1="1344.00" y1="1280.00" x2="1344.00" y2="1392.00" />
<line x1="1312.00" y1="1136.00" x2="1312.00" y2="1152.00" />
<line x1="1312.00" y1="1264.00" x2="1312.00" y2="1280.00" />
<line x1="1360.00" y1="1136.00" x2="1360.00" y2="1152.00" />
<line x1="1360.00" y1="1264.00" x2="1360.00" y2="1280.00" />
<line x1="1296.00" y1="1152.00" x2="1296.00" y2="1168.00" />
<line x1="1296.00" y1="1248.00" x2="1296.00" y2="1264.00" />
<line x1="1376.00" y1="1152.00" x2="1376.00" y2="1168.00" />
<line x1="1376.00" y1="1248.00" x2="1376.00" y2="1264.00" />
<line x1="416.00" y1="1168.00" x2="416.00" y2="1264.00" />
<line x1="416.00" y1="1280.00" x2="416.00" y2="1328.00" />
<line x1="512.00" y1="1168.00" x2="512.00" y2="1264.00" />
<line x1="512.00" y1="1280.00" x2="512.00" y2="1360.00" />
<line x1="704.00" y1="1168.00" x2="704.00" y2="1360.00" />
<line x1="1280.00" y1="1168.00" x2="1280.00" y2="1184.00" />
<line x1="1280.00" y1="1232.00" x2="1280.00" y2="1248.00" />
<line x1="1136.00" y1="1360.00" x2="1136.00" y2="1408.00" />
  </g>
  <g class="features">
<g data-feature-type="stairsDown"><line data-feature-type="stairsDown" x1="610.24" y1="1235.36" x2="621.76" y2="1235.36" /><line x1="610.65" y1="1237.68" x2="621.35" y2="1237.68" /><line x1="611.07" y1="1240.00" x2="620.93" y2="1240.00" /><line x1="611.48" y1="1242.32" x2="620.52" y2="1242.32" /><line x1="611.90" y1="1244.64" x2="620.10" y2="1244.64" /></g>
<g data-feature-type="stairsUp"><line data-feature-type="stairsUp" x1="851.90" y1="1059.36" x2="860.10" y2="1059.36" /><line x1="851.48" y1="1061.68" x2="860.52" y2="1061.68" /><line x1="851.07" y1="1064.00" x2="860.93" y2="1064.00" /><line x1="850.65" y1="1066.32" x2="861.35" y2="1066.32" /><line x1="850.24" y1="1068.64" x2="861.76" y2="1068.64" /></g>
<circle data-feature-type="pillar" cx="936.00" cy="456.00" r="3.68" fill="#4f89a8" stroke="none" />
<circle data-feature-type="pillar" cx="936.00" cy="488.00" r="3.68" fill="#4f89a8" stroke="none" />
<circle data-feature-type="pillar" cx="1032.00" cy="792.00" r="3.68" fill="#4f89a8" stroke="none" />
<circle data-feature-type="pillar" cx="616.00" cy="104.00" r="3.68" fill="#4f89a8" stroke="none" />
<g data-feature-type="altar"><rect x="629.28" y="102.40" width="5.44" height="3.20" fill="none" /><line x1="632.00" y1="101.44" x2="632.00" y2="106.56" /><line x1="630.40" y1="104.00" x2="633.60" y2="104.00" /></g>
<g data-feature-type="trap"><rect x="596.64" y="132.64" width="6.72" height="6.72" fill="none" /><line x1="596.64" y1="132.64" x2="603.36" y2="139.36" /><line x1="596.64" y1="139.36" x2="603.36" y2="132.64" /></g>
<circle data-feature-type="pillar" cx="680.00" cy="264.00" r="3.68" fill="#4f89a8" stroke="none" />
<circle data-feature-type="pillar" cx="344.00" cy="1256.00" r="3.68" fill="#4f89a8" stroke="none" />
<circle data-feature-type="pillar" cx="360.00" cy="1256.00" r="3.68" fill="#4f89a8" stroke="none" />
<g data-feature-type="statue"><circle cx="392.00" cy="1272.00" r="3.52" fill="none" /><line x1="389.76" y1="1272.00" x2="394.24" y2="1272.00" /><line x1="392.00" y1="1269.76" x2="392.00" y2="1274.24" /><line x1="390.39" y1="1270.39" x2="393.61" y2="1273.61" /><line x1="390.39" y1="1273.61" x2="393.61" y2="1270.39" /></g>
<g data-feature-type="chest"><rect x="373.28" y="1302.24" width="5.44" height="3.52" fill="none" /><line x1="373.28" y1="1304.00" x2="378.72" y2="1304.00" /><circle cx="376.00" cy="1304.18" r="0.70" fill="#4f89a8" stroke="none" /></g>
<circle data-feature-type="pillar" cx="824.00" cy="1064.00" r="3.68" fill="#4f89a8" stroke="none" />
<g data-feature-type="statue"><circle cx="792.00" cy="1080.00" r="3.52" fill="none" /><line x1="789.76" y1="1080.00" x2="794.24" y2="1080.00" /><line x1="792.00" y1="1077.76" x2="792.00" y2="1082.24" /><line x1="790.39" y1="1078.39" x2="793.61" y2="1081.61" /><line x1="790.39" y1="1081.61" x2="793.61" y2="1078.39" /></g>
<path data-feature-type="curtain" d="M 774.40 1075.84 Q 776.00 1078.34 774.40 1080.00 Q 776.00 1081.66 774.40 1084.16" fill="none" /><path d="M 777.60 1075.84 Q 776.00 1078.34 777.60 1080.00 Q 776.00 1081.66 777.60 1084.16" fill="none" />
<circle data-feature-type="pillar" cx="200.00" cy="1064.00" r="3.68" fill="#4f89a8" stroke="none" />
<circle data-feature-type="pillar" cx="248.00" cy="1064.00" r="3.68" fill="#4f89a8" stroke="none" />
<g data-feature-type="statue"><circle cx="168.00" cy="1080.00" r="3.52" fill="none" /><line x1="165.76" y1="1080.00" x2="170.24" y2="1080.00" /><line x1="168.00" y1="1077.76" x2="168.00" y2="1082.24" /><line x1="166.39" y1="1078.39" x2="169.61" y2="1081.61" /><line x1="166.39" y1="1081.61" x2="169.61" y2="1078.39" /></g>
<g data-feature-type="chest"><rect x="245.28" y="1046.24" width="5.44" height="3.52" fill="none" /><line x1="245.28" y1="1048.00" x2="250.72" y2="1048.00" /><circle cx="248.00" cy="1048.18" r="0.70" fill="#4f89a8" stroke="none" /></g>
<circle data-feature-type="pillar" cx="1352.00" cy="1192.00" r="3.68" fill="#4f89a8" stroke="none" />
<circle data-feature-type="pillar" cx="1352.00" cy="1224.00" r="3.68" fill="#4f89a8" stroke="none" />
<circle data-feature-type="pillar" cx="1320.00" cy="1192.00" r="3.68" fill="#4f89a8" stroke="none" />
<g data-feature-type="well"><circle cx="1288.00" cy="1208.00" r="4.00" fill="none" /><circle cx="1288.00" cy="1208.00" r="2.24" fill="none" /></g>
<g data-feature-type="coffin"><rect x="1381.60" y="1220.32" width="4.80" height="7.36" rx="0.80" ry="0.80" fill="none" /><line x1="1384.00" y1="1221.94" x2="1384.00" y2="1226.06" /></g>
<circle data-feature-type="pillar" cx="664.00" cy="680.00" r="3.68" fill="#4f89a8" stroke="none" />
<circle data-feature-type="pillar" cx="696.00" cy="680.00" r="3.68" fill="#4f89a8" stroke="none" />
<g data-feature-type="statue"><circle cx="664.00" cy="712.00" r="3.52" fill="none" /><line x1="661.76" y1="712.00" x2="666.24" y2="712.00" /><line x1="664.00" y1="709.76" x2="664.00" y2="714.24" /><line x1="662.39" y1="710.39" x2="665.61" y2="713.61" /><line x1="662.39" y1="713.61" x2="665.61" y2="710.39" /></g>
<circle data-feature-type="pillar" cx="872.00" cy="184.00" r="3.68" fill="#4f89a8" stroke="none" />
<path data-feature-type="curtain" d="M 870.40 147.84 Q 872.00 150.34 870.40 152.00 Q 872.00 153.66 870.40 156.16" fill="none" /><path d="M 873.60 147.84 Q 872.00 150.34 873.60 152.00 Q 872.00 153.66 873.60 156.16" fill="none" />
<path data-feature-type="curtain" d="M 1190.40 659.84 Q 1192.00 662.34 1190.40 664.00 Q 1192.00 665.66 1190.40 668.16" fill="none" /><path d="M 1193.60 659.84 Q 1192.00 662.34 1193.60 664.00 Q 1192.00 665.66 1193.60 668.16" fill="none" />
<circle data-feature-type="pillar" cx="360.00" cy="296.00" r="3.68" fill="#4f89a8" stroke="none" />
<g data-feature-type="chest"><rect x="341.28" y="310.24" width="5.44" height="3.52" fill="none" /><line x1="341.28" y1="312.00" x2="346.72" y2="312.00" /><circle cx="344.00" cy="312.18" r="0.70" fill="#4f89a8" stroke="none" /></g>
<circle data-feature-type="pillar" cx="248.00" cy="408.00" r="3.68" fill="#4f89a8" stroke="none" />
<g data-feature-type="trap"><rect x="196.64" y="388.64" width="6.72" height="6.72" fill="none" /><line x1="196.64" y1="388.64" x2="203.36" y2="395.36" /><line x1="196.64" y1="395.36" x2="203.36" y2="388.64" /></g>
<g data-feature-type="trap"><rect x="1348.64" y="948.64" width="6.72" height="6.72" fill="none" /><line x1="1348.64" y1="948.64" x2="1355.36" y2="955.36" /><line x1="1348.64" y1="955.36" x2="1355.36" y2="948.64" /></g>
<circle data-feature-type="pillar" cx="1064.00" cy="1128.00" r="3.68" fill="#4f89a8" stroke="none" />
<circle data-feature-type="pillar" cx="1352.00" cy="520.00" r="3.68" fill="#4f89a8" stroke="none" />
<circle data-feature-type="pillar" cx="632.00" cy="1256.00" r="3.68" fill="#4f89a8" stroke="none" />
<circle data-feature-type="pillar" cx="600.00" cy="1288.00" r="3.68" fill="#4f89a8" stroke="none" />
<circle data-feature-type="pillar" cx="584.00" cy="1288.00" r="3.68" fill="#4f89a8" stroke="none" />
<circle data-feature-type="pillar" cx="648.00" cy="1256.00" r="3.68" fill="#4f89a8" stroke="none" />
<circle data-feature-type="pillar" cx="1224.00" cy="1384.00" r="3.68" fill="#4f89a8" stroke="none" />
  </g>
  <g class="thresholds">
<g data-threshold-type="locked" stroke="#4f89a8" fill="none" stroke-width="1.52"><rect x="963.52" y="469.76" width="8.96" height="4.48" fill="#ffffff" /><circle cx="968.00" cy="468.77" r="1.61" /></g>
<rect data-threshold-type="door" x="1027.52" y="757.76" width="8.96" height="4.48" fill="#ffffff" stroke="#4f89a8" stroke-width="1.52" />
<g data-threshold-type="locked" stroke="#4f89a8" fill="none" stroke-width="1.52"><rect x="595.52" y="149.76" width="8.96" height="4.48" fill="#ffffff" /><circle cx="600.00" cy="148.77" r="1.61" /></g>
<rect data-threshold-type="door" x="627.52" y="293.76" width="8.96" height="4.48" fill="#ffffff" stroke="#4f89a8" stroke-width="1.52" />
<rect data-threshold-type="door" x="371.52" y="1173.76" width="8.96" height="4.48" fill="#ffffff" stroke="#4f89a8" stroke-width="1.52" />
<rect data-threshold-type="door" x="915.52" y="1109.76" width="8.96" height="4.48" fill="#ffffff" stroke="#4f89a8" stroke-width="1.52" />
<rect data-threshold-type="door" x="1059.52" y="181.76" width="8.96" height="4.48" fill="#ffffff" stroke="#4f89a8" stroke-width="1.52" />
<rect data-threshold-type="door" x="307.52" y="1061.76" width="8.96" height="4.48" fill="#ffffff" stroke="#4f89a8" stroke-width="1.52" />
<g data-threshold-type="locked" stroke="#4f89a8" fill="none" stroke-width="1.52"><rect x="1331.52" y="1141.76" width="8.96" height="4.48" fill="#ffffff" /><circle cx="1336.00" cy="1140.77" r="1.61" /></g>
<rect data-threshold-type="door" x="739.52" y="677.76" width="8.96" height="4.48" fill="#ffffff" stroke="#4f89a8" stroke-width="1.52" />
<rect data-threshold-type="door" x="883.52" y="181.76" width="8.96" height="4.48" fill="#ffffff" stroke="#4f89a8" stroke-width="1.52" />
<rect data-threshold-type="door" x="1155.52" y="677.76" width="8.96" height="4.48" fill="#ffffff" stroke="#4f89a8" stroke-width="1.52" />
<rect data-threshold-type="door" x="387.52" y="293.76" width="8.96" height="4.48" fill="#ffffff" stroke="#4f89a8" stroke-width="1.52" />
<rect data-threshold-type="door" x="227.52" y="373.76" width="8.96" height="4.48" fill="#ffffff" stroke="#4f89a8" stroke-width="1.52" />
<rect data-threshold-type="door" x="163.52" y="597.76" width="8.96" height="4.48" fill="#ffffff" stroke="#4f89a8" stroke-width="1.52" />
<g data-threshold-type="secret"><line x1="1331.52" y1="1064.00" x2="1340.48" y2="1064.00" stroke="#4f89a8" stroke-width="1.31" stroke-dasharray="1.31 1.31" /><text x="1341.56" y="1063.10" font-size="5.44" fill="#4f89a8" font-family="Courier New, monospace" font-weight="700">S</text></g>
<g data-threshold-type="secret"><line x1="1043.52" y1="1176.00" x2="1052.48" y2="1176.00" stroke="#4f89a8" stroke-width="1.31" stroke-dasharray="1.31 1.31" /><text x="1053.56" y="1175.10" font-size="5.44" fill="#4f89a8" font-family="Courier New, monospace" font-weight="700">S</text></g>
<rect data-threshold-type="door" x="1267.52" y="517.76" width="8.96" height="4.48" fill="#ffffff" stroke="#4f89a8" stroke-width="1.52" />
<g data-threshold-type="locked" stroke="#4f89a8" fill="none" stroke-width="1.52"><rect x="675.52" y="1173.76" width="8.96" height="4.48" fill="#ffffff" /><circle cx="680.00" cy="1172.77" r="1.61" /></g>
<rect data-threshold-type="door" x="1251.52" y="1381.76" width="8.96" height="4.48" fill="#ffffff" stroke="#4f89a8" stroke-width="1.52" />
  </g>
  <g class="labels">
<text x="936.00" y="473.92" text-anchor="middle">1</text>
<text x="1016.00" y="793.92" text-anchor="middle">2</text>
<text x="600.00" y="105.92" text-anchor="middle">3</text>
<text x="664.00" y="265.92" text-anchor="middle">4</text>
<text x="376.00" y="1257.92" text-anchor="middle">5</text>
<text x="840.00" y="1065.92" text-anchor="middle">6</text>
<text x="1112.00" y="233.92" text-anchor="middle">7</text>
<text x="232.00" y="1065.92" text-anchor="middle">8</text>
<text x="1336.00" y="1209.92" text-anchor="middle">9</text>
<text x="680.00" y="681.92" text-anchor="middle">10</text>
<text x="856.00" y="185.92" text-anchor="middle">11</text>
<text x="1160.00" y="665.92" text-anchor="middle">12</text>
<text x="344.00" y="297.92" text-anchor="middle">13</text>
<text x="232.00" y="409.92" text-anchor="middle">14</text>
<text x="120.00" y="601.92" text-anchor="middle">15</text>
<text x="1368.00" y="1001.92" text-anchor="middle">16</text>
<text x="1048.00" y="1129.92" text-anchor="middle">17</text>
<text x="1336.00" y="521.92" text-anchor="middle">18</text>
<text x="616.00" y="1273.92" text-anchor="middle">19</text>
<text x="1208.00" y="1385.92" text-anchor="middle">20</text>
  </g>
</svg>