<?xml version="1.0" encoding="UTF-8"?>
<svg xmlns="http://www.w3.org/2000/svg" width="1536" height="1536" viewBox="0 0 1536.00 1536.00" role="img" aria-label="MapIR render: Learned Generated Map 6">
  <defs>
    <style>
      .grid { stroke: #cde2ec; stroke-width: 0.64; opacity: 0.72; }
      .walls { stroke: #6aa7c7; stroke-width: 1.92; fill: none; stroke-linecap: square; }
      .thresholds { fill: none; stroke-linecap: round; }
      .features { stroke: #4f89a8; fill: none; stroke-width: 1.60; stroke-linecap: round; stroke-linejoin: round; }
      .labels { fill: #4f89a8; font-size: 7.20px; font-family: "Courier New", monospace; font-weight: 600; }
    </style>
  </defs>
  <rect x="0" y="0" width="1536.00" height="1536.00" fill="#4393be" />
  <g class="floors">
<rect x="1120.00" y="48.00" width="128.00" height="96.00" fill="#fcfdfe" />
<rect x="496.00" y="64.00" width="32.00" height="144.00" fill="#fcfdfe" />
<rect x="1104.00" y="64.00" width="16.00" height="64.00" fill="#fcfdfe" />
<rect x="1248.00" y="64.00" width="16.00" height="64.00" fill="#fcfdfe" />
<rect x="288.00" y="80.00" width="48.00" height="128.00" fill="#fcfdfe" />
<rect x="464.00" y="80.00" width="32.00" height="112.00" fill="#fcfdfe" />
<rect x="528.00" y="80.00" width="32.00" height="112.00" fill="#fcfdfe" />
<rect x="1088.00" y="80.00" width="16.00" height="32.00" fill="#fcfdfe" />
<rect x="1264.00" y="80.00" width="16.00" height="32.00" fill="#fcfdfe" />
<rect x="256.00" y="96.00" width="32.00" height="96.00" fill="#fcfdfe" />
<rect x="336.00" y="96.00" width="32.00" height="96.00" fill="#fcfdfe" />
<rect x="448.00" y="96.00" width="16.00" height="80.00" fill="#fcfdfe" />
<rect x="560.00" y="96.00" width="16.00" height="80.00" fill="#fcfdfe" />
<rect x="1280.00" y="96.00" width="208.00" height="16.00" fill="#fcfdfe" />
<rect x="96.00" y="112.00" width="64.00" height="64.00" fill="#fcfdfe" />
<rect x="1376.00" y="112.00" width="112.00" height="144.00" fill="#fcfdfe" />
<rect x="240.00" y="128.00" width="16.00" height="32.00" fill="#fcfdfe" />
<rect x="368.00" y="128.00" width="80.00" height="16.00" fill="#fcfdfe" />
<rect x="576.00" y="128.00" width="16.00" height="16.00" fill="#fcfdfe" />
<rect x="160.00" y="144.00" width="80.00" height="16.00" fill="#fcfdfe" />
<rect x="368.00" y="144.00" width="16.00" height="16.00" fill="#fcfdfe" />
<rect x="1184.00" y="144.00" width="16.00" height="768.00" fill="#fcfdfe" />
<rect x="128.00" y="176.00" width="16.00" height="496.00" fill="#fcfdfe" />
<rect x="464.00" y="192.00" width="16.00" height="496.00" fill="#fcfdfe" />
<rect x="1104.00" y="192.00" width="80.00" height="80.00" fill="#fcfdfe" />
<rect x="1200.00" y="192.00" width="32.00" height="80.00" fill="#fcfdfe" />
<rect x="304.00" y="208.00" width="16.00" height="160.00" fill="#fcfdfe" />
<rect x="512.00" y="208.00" width="16.00" height="32.00" fill="#fcfdfe" />
<rect x="528.00" y="224.00" width="576.00" height="16.00" fill="#fcfdfe" />
<rect x="800.00" y="272.00" width="64.00" height="176.00" fill="#fcfdfe" />
<rect x="768.00" y="288.00" width="32.00" height="144.00" fill="#fcfdfe" />
<rect x="864.00" y="288.00" width="32.00" height="144.00" fill="#fcfdfe" />
<rect x="752.00" y="304.00" width="16.00" height="112.00" fill="#fcfdfe" />
<rect x="896.00" y="304.00" width="16.00" height="112.00" fill="#fcfdfe" />
<rect x="736.00" y="336.00" width="16.00" height="48.00" fill="#fcfdfe" />
<rect x="912.00" y="336.00" width="16.00" height="48.00" fill="#fcfdfe" />
<rect x="320.00" y="352.00" width="144.00" height="16.00" fill="#fcfdfe" />
<rect x="480.00" y="352.00" width="256.00" height="16.00" fill="#fcfdfe" />
<rect x="416.00" y="368.00" width="48.00" height="112.00" fill="#fcfdfe" />
<rect x="480.00" y="368.00" width="32.00" height="112.00" fill="#fcfdfe" />
<rect x="720.00" y="368.00" width="16.00" height="416.00" fill="#fcfdfe" />
<rect x="512.00" y="416.00" width="64.00" height="16.00" fill="#fcfdfe" />
<rect x="1344.00" y="416.00" width="144.00" height="128.00" fill="#fcfdfe" />
<rect x="560.00" y="432.00" width="16.00" height="592.00" fill="#fcfdfe" />
<rect x="1168.00" y="432.00" width="16.00" height="144.00" fill="#fcfdfe" />
<rect x="832.00" y="448.00" width="16.00" height="496.00" fill="#fcfdfe" />
<rect x="1136.00" y="448.00" width="32.00" height="112.00" fill="#fcfdfe" />
<rect x="1200.00" y="448.00" width="32.00" height="112.00" fill="#fcfdfe" />
<rect x="1120.00" y="464.00" width="16.00" height="80.00" fill="#fcfdfe" />
<rect x="1232.00" y="464.00" width="16.00" height="80.00" fill="#fcfdfe" />
<rect x="1248.00" y="480.00" width="96.00" height="16.00" fill="#fcfdfe" />
<rect x="576.00" y="496.00" width="144.00" height="16.00" fill="#fcfdfe" />
<rect x="736.00" y="496.00" width="96.00" height="16.00" fill="#fcfdfe" />
<rect x="848.00" y="496.00" width="272.00" height="16.00" fill="#fcfdfe" />
<rect x="1248.00" y="496.00" width="16.00" height="16.00" fill="#fcfdfe" />
<rect x="96.00" y="544.00" width="32.00" height="128.00" fill="#fcfdfe" />
<rect x="144.00" y="544.00" width="32.00" height="128.00" fill="#fcfdfe" />
<rect x="1408.00" y="544.00" width="16.00" height="224.00" fill="#fcfdfe" />
<rect x="688.00" y="624.00" width="32.00" height="96.00" fill="#fcfdfe" />
<rect x="736.00" y="624.00" width="16.00" height="96.00" fill="#fcfdfe" />
<rect x="480.00" y="672.00" width="80.00" height="16.00" fill="#fcfdfe" />
<rect x="576.00" y="672.00" width="112.00" height="16.00" fill="#fcfdfe" />
<rect x="1344.00" y="688.00" width="64.00" height="80.00" fill="#fcfdfe" />
<rect x="1424.00" y="688.00" width="16.00" height="80.00" fill="#fcfdfe" />
<rect x="1024.00" y="704.00" width="128.00" height="160.00" fill="#fcfdfe" />
<rect x="512.00" y="736.00" width="48.00" height="80.00" fill="#fcfdfe" />
<rect x="576.00" y="736.00" width="48.00" height="80.00" fill="#fcfdfe" />
<rect x="624.00" y="768.00" width="96.00" height="16.00" fill="#fcfdfe" />
<rect x="1392.00" y="768.00" width="16.00" height="176.00" fill="#fcfdfe" />
<rect x="1152.00" y="784.00" width="32.00" height="16.00" fill="#fcfdfe" />
<rect x="1200.00" y="784.00" width="128.00" height="16.00" fill="#fcfdfe" />
<rect x="1312.00" y="800.00" width="16.00" height="320.00" fill="#fcfdfe" />
<rect x="512.00" y="848.00" width="48.00" height="176.00" fill="#fcfdfe" />
<rect x="576.00" y="848.00" width="16.00" height="176.00" fill="#fcfdfe" />
<rect x="1216.00" y="848.00" width="96.00" height="96.00" fill="#fcfdfe" />
<rect x="1328.00" y="848.00" width="64.00" height="96.00" fill="#fcfdfe" />
<rect x="496.00" y="864.00" width="16.00" height="144.00" fill="#fcfdfe" />
<rect x="592.00" y="864.00" width="16.00" height="144.00" fill="#fcfdfe" />
<rect x="1088.00" y="864.00" width="16.00" height="144.00" fill="#fcfdfe" />
<rect x="336.00" y="880.00" width="64.00" height="160.00" fill="#fcfdfe" />
<rect x="480.00" y="880.00" width="16.00" height="112.00" fill="#fcfdfe" />
<rect x="608.00" y="880.00" width="16.00" height="112.00" fill="#fcfdfe" />
<rect x="960.00" y="896.00" width="128.00" height="16.00" fill="#fcfdfe" />
<rect x="1104.00" y="896.00" width="80.00" height="16.00" fill="#fcfdfe" />
<rect x="1200.00" y="896.00" width="16.00" height="16.00" fill="#fcfdfe" />
<rect x="960.00" y="912.00" width="16.00" height="160.00" fill="#fcfdfe" />
<rect x="400.00" y="928.00" width="80.00" height="16.00" fill="#fcfdfe" />
<rect x="624.00" y="928.00" width="208.00" height="16.00" fill="#fcfdfe" />
<rect x="928.00" y="928.00" width="32.00" height="144.00" fill="#fcfdfe" />
<rect x="976.00" y="928.00" width="32.00" height="144.00" fill="#fcfdfe" />
<rect x="1008.00" y="992.00" width="80.00" height="16.00" fill="#fcfdfe" />
<rect x="368.00" y="1040.00" width="16.00" height="368.00" fill="#fcfdfe" />
<rect x="1264.00" y="1056.00" width="48.00" height="64.00" fill="#fcfdfe" />
<rect x="1328.00" y="1056.00" width="128.00" height="64.00" fill="#fcfdfe" />
<rect x="336.00" y="1088.00" width="32.00" height="96.00" fill="#fcfdfe" />
<rect x="384.00" y="1088.00" width="16.00" height="96.00" fill="#fcfdfe" />
<rect x="320.00" y="1104.00" width="16.00" height="64.00" fill="#fcfdfe" />
<rect x="400.00" y="1104.00" width="16.00" height="64.00" fill="#fcfdfe" />
<rect x="304.00" y="1120.00" width="16.00" height="32.00" fill="#fcfdfe" />
<rect x="416.00" y="1120.00" width="16.00" height="32.00" fill="#fcfdfe" />
<rect x="1360.00" y="1120.00" width="16.00" height="256.00" fill="#fcfdfe" />
<rect x="640.00" y="1168.00" width="48.00" height="144.00" fill="#fcfdfe" />
<rect x="624.00" y="1184.00" width="16.00" height="112.00" fill="#fcfdfe" />
<rect x="688.00" y="1184.00" width="16.00" height="112.00" fill="#fcfdfe" />
<rect x="608.00" y="1200.00" width="16.00" height="80.00" fill="#fcfdfe" />
<rect x="704.00" y="1200.00" width="16.00" height="80.00" fill="#fcfdfe" />
<rect x="592.00" y="1216.00" width="16.00" height="48.00" fill="#fcfdfe" />
<rect x="720.00" y="1216.00" width="16.00" height="48.00" fill="#fcfdfe" />
<rect x="832.00" y="1216.00" width="176.00" height="192.00" fill="#fcfdfe" />
<rect x="736.00" y="1232.00" width="96.00" height="16.00" fill="#fcfdfe" />
<rect x="1344.00" y="1296.00" width="16.00" height="80.00" fill="#fcfdfe" />
<rect x="1376.00" y="1296.00" width="64.00" height="64.00" fill="#fcfdfe" />
<rect x="400.00" y="1312.00" width="96.00" height="176.00" fill="#fcfdfe" />
<rect x="656.00" y="1312.00" width="16.00" height="96.00" fill="#fcfdfe" />
<rect x="1008.00" y="1312.00" width="272.00" height="16.00" fill="#fcfdfe" />
<rect x="1088.00" y="1328.00" width="192.00" height="80.00" fill="#fcfdfe" />
<rect x="496.00" y="1360.00" width="160.00" height="16.00" fill="#fcfdfe" />
<rect x="672.00" y="1360.00" width="160.00" height="16.00" fill="#fcfdfe" />
<rect x="1008.00" y="1360.00" width="80.00" height="16.00" fill="#fcfdfe" />
<rect x="1280.00" y="1360.00" width="64.00" height="16.00" fill="#fcfdfe" />
<rect x="1376.00" y="1360.00" width="32.00" height="16.00" fill="#fcfdfe" />
<rect x="384.00" y="1392.00" width="16.00" height="16.00" fill="#fcfdfe" />
<rect x="496.00" y="1392.00" width="160.00" height="16.00" fill="#fcfdfe" />
  </g>
  <g class="grid">
<line x1="0.00" y1="0" x2="0.00" y2="1536.00" />
<line x1="16.00" y1="0" x2="16.00" y2="1536.00" />
<line x1="32.00" y1="0" x2="32.00" y2="1536.00" />
<line x1="48.00" y1="0" x2="48.00" y2="1536.00" />
<line x1="64.00" y1="0" x2="64.00" y2="1536.00" />
<line x1="80.00" y1="0" x2="80.00" y2="1536.00" />
<line x1="96.00" y1="0" x2="96.00" y2="1536.00" />
<line x1="112.00" y1="0" x2="112.00" y2="1536.00" />
<line x1="128.00" y1="0" x2="128.00" y2="1536.00" />
<line x1="144.00" y1="0" x2="144.00" y2="1536.00" />
<line x1="160.00" y1="0" x2="160.00" y2="1536.00" />
<line x1="176.00" y1="0" x2="176.00" y2="1536.00" />
<line x1="192.00" y1="0" x2="192.00" y2="1536.00" />
<line x1="208.00" y1="0" x2="208.00" y2="1536.00" />
<line x1="224.00" y1="0" x2="224.00" y2="1536.00" />
<line x1="240.00" y1="0" x2="240.00" y2="1536.00" />
<line x1="256.00" y1="0" x2="256.00" y2="1536.00" />
<line x1="272.00" y1="0" x2="272.00" y2="1536.00" />
<line x1="288.00" y1="0" x2="288.00" y2="1536.00" />
<line x1="304.00" y1="0" x2="304.00" y2="1536.00" />
<line x1="320.00" y1="0" x2="320.00" y2="1536.00" />
<line x1="336.00" y1="0" x2="336.00" y2="1536.00" />
<line x1="352.00" y1="0" x2="352.00" y2="1536.00" />
<line x1="368.00" y1="0" x2="368.00" y2="1536.00" />
<line x1="384.00" y1="0" x2="384.00" y2="1536.00" />
<line x1="400.00" y1="0" x2="400.00" y2="1536.00" />
<line x1="416.00" y1="0" x2="416.00" y2="1536.00" />
<line x1="432.00" y1="0" x2="432.00" y2="1536.00" />
<line x1="448.00" y1="0" x2="448.00" y2="1536.00" />
<line x1="464.00" y1="0" x2="464.00" y2="1536.00" />
<line x1="480.00" y1="0" x2="480.00" y2="1536.00" />
<line x1="496.00" y1="0" x2="496.00" y2="1536.00" />
<line x1="512.00" y1="0" x2="512.00" y2="1536.00" />
<line x1="528.00" y1="0" x2="528.00" y2="1536.00" />
<line x1="544.00" y1="0" x2="544.00" y2="1536.00" />
<line x1="560.00" y1="0" x2="560.00" y2="1536.00" />
<line x1="576.00" y1="0" x2="576.00" y2="1536.00" />
<line x1="592.00" y1="0" x2="592.00" y2="1536.00" />
<line x1="608.00" y1="0" x2="608.00" y2="1536.00" />
<line x1="624.00" y1="0" x2="624.00" y2="1536.00" />
<line x1="640.00" y1="0" x2="640.00" y2="1536.00" />
<line x1="656.00" y1="0" x2="656.00" y2="1536.00" />
<line x1="672.00" y1="0" x2="672.00" y2="1536.00" />
<line x1="688.00" y1="0" x2="688.00" y2="1536.00" />
<line x1="704.00" y1="0" x2="704.00" y2="1536.00" />
<line x1="720.00" y1="0" x2="720.00" y2="1536.00" />
<line x1="736.00" y1="0" x2="736.00" y2="1536.00" />
<line x1="752.00" y1="0" x2="752.00" y2="1536.00" />
<line x1="768.00" y1="0" x2="768.00" y2="1536.00" />
<line x1="784.00" y1="0" x2="784.00" y2="1536.00" />
<line x1="800.00" y1="0" x2="800.00" y2="1536.00" />
<line x1="816.00" y1="0" x2="816.00" y2="1536.00" />
<line x1="832.00" y1="0" x2="832.00" y2="1536.00" />
<line x1="848.00" y1="0" x2="848.00" y2="1536.00" />
<line x1="864.00" y1="0" x2="864.00" y2="1536.00" />
<line x1="880.00" y1="0" x2="880.00" y2="1536.00" />
<line x1="896.00" y1="0" x2="896.00" y2="1536.00" />
<line x1="912.00" y1="0" x2="912.00" y2="1536.00" />
<line x1="928.00" y1="0" x2="928.00" y2="1536.00" />
<line x1="944.00" y1="0" x2="944.00" y2="1536.00" />
<line x1="960.00" y1="0" x2="960.00" y2="1536.00" />
<line x1="976.00" y1="0" x2="976.00" y2="1536.00" />
<line x1="992.00" y1="0" x2="992.00" y2="1536.00" />
<line x1="1008.00" y1="0" x2="1008.00" y2="1536.00" />
<line x1="1024.00" y1="0" x2="1024.00" y2="1536.00" />
<line x1="1040.00" y1="0" x2="1040.00" y2="1536.00" />
<line x1="1056.00" y1="0" x2="1056.00" y2="1536.00" />
<line x1="1072.00" y1="0" x2="1072.00" y2="1536.00" />
<line x1="1088.00" y1="0" x2="1088.00" y2="1536.00" />
<line x1="1104.00" y1="0" x2="1104.00" y2="1536.00" />
<line x1="1120.00" y1="0" x2="1120.00" y2="1536.00" />
<line x1="1136.00" y1="0" x2="1136.00" y2="1536.00" />
<line x1="1152.00" y1="0" x2="1152.00" y2="1536.00" />
<line x1="1168.00" y1="0" x2="1168.00" y2="1536.00" />
<line x1="1184.00" y1="0" x2="1184.00" y2="1536.00" />
<line x1="1200.00" y1="0" x2="1200.00" y2="1536.00" />
<line x1="1216.00" y1="0" x2="1216.00" y2="1536.00" />
<line x1="1232.00" y1="0" x2="1232.00" y2="1536.00" />
<line x1="1248.00" y1="0" x2="1248.00" y2="1536.00" />
<line x1="1264.00" y1="0" x2="1264.00" y2="1536.00" />
<line x1="1280.00" y1="0" x2="1280.00" y2="1536.00" />
<line x1="1296.00" y1="0" x2="1296.00" y2="1536.00" />
<line x1="1312.00" y1="0" x2="1312.00" y2="1536.00" />
<line x1="1328.00" y1="0" x2="1328.00" y2="1536.00" />
<line x1="1344.00" y1="0" x2="1344.00" y2="1536.00" />
<line x1="1360.00" y1="0" x2="1360.00" y2="1536.00" />
<line x1="1376.00" y1="0" x2="1376.00" y2="1536.00" />
<line x1="1392.00" y1="0" x2="1392.00" y2="1536.00" />
<line x1="1408.00" y1="0" x2="1408.00" y2="1536.00" />
<line x1="1424.00" y1="0" x2="1424.00" y2="1536.00" />
<line x1="1440.00" y1="0" x2="1440.00" y2="1536.00" />
<line x1="1456.00" y1="0" x2="1456.00" y2="1536.00" />
<line x1="1472.00" y1="0" x2="1472.00" y2="1536.00" />
<line x1="1488.00" y1="0" x2="1488.00" y2="1536.00" />
<line x1="1504.00" y1="0" x2="1504.00" y2="1536.00" />
<line x1="1520.00" y1="0" x2="1520.00" y2="1536.00" />
<line x1="1536.00" y1="0" x2="1536.00" y2="1536.00" />
<line x1="0" y1="0.00" x2="1536.00" y2="0.00" />
<line x1="0" y1="16.00" x2="1536.00" y2="16.00" />
<line x1="0" y1="32.00" x2="1536.00" y2="32.00" />
<line x1="0" y1="48.00" x2="1536.00" y2="48.00" />
<line x1="0" y1="64.00" x2="1536.00" y2="64.00" />
<line x1="0" y1="80.00" x2="1536.00" y2="80.00" />
<line x1="0" y1="96.00" x2="1536.00" y2="96.00" />
<line x1="0" y1="112.00" x2="1536.00" y2="112.00" />
<line x1="0" y1="128.00" x2="1536.00" y2="128.00" />
<line x1="0" y1="144.00" x2="1536.00" y2="144.00" />
<line x1="0" y1="160.00" x2="1536.00" y2="160.00" />
<line x1="0" y1="176.00" x2="1536.00" y2="176.00" />
<line x1="0" y1="192.00" x2="1536.00" y2="192.00" />
<line x1="0" y1="208.00" x2="1536.00" y2="208.00" />
<line x1="0" y1="224.00" x2="1536.00" y2="224.00" />
<line x1="0" y1="240.00" x2="1536.00" y2="240.00" />
<line x1="0" y1="256.00" x2="1536.00" y2="256.00" />
<line x1="0" y1="272.00" x2="1536.00" y2="272.00" />
<line x1="0" y1="288.00" x2="1536.00" y2="288.00" />
<line x1="0" y1="304.00" x2="1536.00" y2="304.00" />
<line x1="0" y1="320.00" x2="1536.00" y2="320.00" />
<line x1="0" y1="336.00" x2="1536.00" y2="336.00" />
<line x1="0" y1="352.00" x2="1536.00" y2="352.00" />
<line x1="0" y1="368.00" x2="1536.00" y2="368.00" />
<line x1="0" y1="384.00" x2="1536.00" y2="384.00" />
<line x1="0" y1="400.00" x2="1536.00" y2="400.00" />
<line x1="0" y1="416.00" x2="1536.00" y2="416.00" />
<line x1="0" y1="432.00" x2="1536.00" y2="432.00" />
<line x1="0" y1="448.00" x2="1536.00" y2="448.00" />
<line x1="0" y1="464.00" x2="1536.00" y2="464.00" />
<line x1="0" y1="480.00" x2="1536.00" y2="480.00" />
<line x1="0" y1="496.00" x2="1536.00" y2="496.00" />
<line x1="0" y1="512.00" x2="1536.00" y2="512.00" />
<line x1="0" y1="528.00" x2="1536.00" y2="528.00" />
<line x1="0" y1="544.00" x2="1536.00" y2="544.00" />
<line x1="0" y1="560.00" x2="1536.00" y2="560.00" />
<line x1="0" y1="576.00" x2="1536.00" y2="576.00" />
<line x1="0" y1="592.00" x2="1536.00" y2="592.00" />
<line x1="0" y1="608.00" x2="1536.00" y2="608.00" />
<line x1="0" y1="624.00" x2="1536.00" y2="624.00" />
<line x1="0" y1="640.00" x2="1536.00" y2="640.00" />
<line x1="0" y1="656.00" x2="1536.00" y2="656.00" />
<line x1="0" y1="672.00" x2="1536.00" y2="672.00" />
<line x1="0" y1="688.00" x2="1536.00" y2="688.00" />
<line x1="0" y1="704.00" x2="1536.00" y2="704.00" />
<line x1="0" y1="720.00" x2="1536.00" y2="720.00" />
<line x1="0" y1="736.00" x2="1536.00" y2="736.00" />
<line x1="0" y1="752.00" x2="1536.00" y2="752.00" />
<line x1="0" y1="768.00" x2="1536.00" y2="768.00" />
<line x1="0" y1="784.00" x2="1536.00" y2="784.00" />
<line x1="0" y1="800.00" x2="1536.00" y2="800.00" />
<line x1="0" y1="816.00" x2="1536.00" y2="816.00" />
<line x1="0" y1="832.00" x2="1536.00" y2="832.00" />
<line x1="0" y1="848.00" x2="1536.00" y2="848.00" />
<line x1="0" y1="864.00" x2="1536.00" y2="864.00" />
<line x1="0" y1="880.00" x2="1536.00" y2="880.00" />
<line x1="0" y1="896.00" x2="1536.00" y2="896.00" />
<line x1="0" y1="912.00" x2="1536.00" y2="912.00" />
<line x1="0" y1="928.00" x2="1536.00" y2="928.00" />
<line x1="0" y1="944.00" x2="1536.00" y2="944.00" />
<line x1="0" y1="960.00" x2="1536.00" y2="960.00" />
<line x1="0" y1="976.00" x2="1536.00" y2="976.00" />
<line x1="0" y1="992.00" x2="1536.00" y2="992.00" />
<line x1="0" y1="1008.00" x2="1536.00" y2="1008.00" />
<line x1="0" y1="1024.00" x2="1536.00" y2="1024.00" />
<line x1="0" y1="1040.00" x2="1536.00" y2="1040.00" />
<line x1="0" y1="1056.00" x2="1536.00" y2="1056.00" />
<line x1="0" y1="1072.00" x2="1536.00" y2="1072.00" />
<line x1="0" y1="1088.00" x2="1536.00" y2="1088.00" />
<line x1="0" y1="1104.00" x2="1536.00" y2="1104.00" />
<line x1="0" y1="1120.00" x2="1536.00" y2="1120.00" />
<line x1="0" y1="1136.00" x2="1536.00" y2="1136.00" />
<line x1="0" y1="1152.00" x2="1536.00" y2="1152.00" />
<line x1="0" y1="1168.00" x2="1536.00" y2="1168.00" />
<line x1="0" y1="1184.00" x2="1536.00" y2="1184.00" />
<line x1="0" y1="1200.00" x2="1536.00" y2="1200.00" />
<line x1="0" y1="1216.00" x2="1536.00" y2="1216.00" />
<line x1="0" y1="1232.00" x2="1536.00" y2="1232.00" />
<line x1="0" y1="1248.00" x2="1536.00" y2="1248.00" />
<line x1="0" y1="1264.00" x2="1536.00" y2="1264.00" />
<line x1="0" y1="1280.00" x2="1536.00" y2="1280.00" />
<line x1="0" y1="1296.00" x2="1536.00" y2="1296.00" />
<line x1="0" y1="1312.00" x2="1536.00" y2="1312.00" />
<line x1="0" y1="1328.00" x2="1536.00" y2="1328.00" />
<line x1="0" y1="1344.00" x2="1536.00" y2="1344.00" />
<line x1="0" y1="1360.00" x2="1536.00" y2="1360.00" />
<line x1="0" y1="1376.00" x2="1536.00" y2="1376.00" />
<line x1="0" y1="1392.00" x2="1536.00" y2="1392.00" />
<line x1="0" y1="1408.00" x2="1536.00" y2="1408.00" />
<line x1="0" y1="1424.00" x2="1536.00" y2="1424.00" />
<line x1="0" y1="1440.00" x2="1536.00" y2="1440.00" />
<line x1="0" y1="1456.00" x2="1536.00" y2="1456.00" />
<line x1="0" y1="1472.00" x2="1536.00" y2="1472.00" />
<line x1="0" y1="1488.00" x2="1536.00" y2="1488.00" />
<line x1="0" y1="1504.00" x2="1536.00" y2="1504.00" />
<line x1="0" y1="1520.00" x2="1536.00" y2="1520.00" />
<line x1="0" y1="1536.00" x2="1536.00" y2="1536.00" />
  </g>
  <g class="walls">
<line x1="1120.00" y1="48.00" x2="1248.00" y2="48.00" />
<line x1="496.00" y1="64.00" x2="528.00" y2="64.00" />
<line x1="1104.00" y1="64.00" x2="1120.00" y2="64.00" />
<line x1="1248.00" y1="64.00" x2="1264.00" y2="64.00" />
<line x1="288.00" y1="80.00" x2="336.00" y2="80.00" />
<line x1="464.00" y1="80.00" x2="496.00" y2="80.00" />
<line x1="528.00" y1="80.00" x2="560.00" y2="80.00" />
<line x1="1088.00" y1="80.00" x2="1104.00" y2="80.00" />
<line x1="1264.00" y1="80.00" x2="1280.00" y2="80.00" />
<line x1="256.00" y1="96.00" x2="288.00" y2="96.00" />
<line x1="336.00" y1="96.00" x2="368.00" y2="96.00" />
<line x1="448.00" y1="96.00" x2="464.00" y2="96.00" />
<line x1="560.00" y1="96.00" x2="576.00" y2="96.00" />
<line x1="1280.00" y1="96.00" x2="1488.00" y2="96.00" />
<line x1="96.00" y1="112.00" x2="160.00" y2="112.00" />
<line x1="1088.00" y1="112.00" x2="1104.00" y2="112.00" />
<line x1="1264.00" y1="112.00" x2="1376.00" y2="112.00" />
<line x1="240.00" y1="128.00" x2="256.00" y2="128.00" />
<line x1="368.00" y1="128.00" x2="448.00" y2="128.00" />
<line x1="576.00" y1="128.00" x2="592.00" y2="128.00" />
<line x1="1104.00" y1="128.00" x2="1120.00" y2="128.00" />
<line x1="1248.00" y1="128.00" x2="1264.00" y2="128.00" />
<line x1="160.00" y1="144.00" x2="240.00" y2="144.00" />
<line x1="384.00" y1="144.00" x2="448.00" y2="144.00" />
<line x1="576.00" y1="144.00" x2="592.00" y2="144.00" />
<line x1="1120.00" y1="144.00" x2="1184.00" y2="144.00" />
<line x1="1200.00" y1="144.00" x2="1248.00" y2="144.00" />
<line x1="160.00" y1="160.00" x2="256.00" y2="160.00" />
<line x1="368.00" y1="160.00" x2="384.00" y2="160.00" />
<line x1="96.00" y1="176.00" x2="128.00" y2="176.00" />
<line x1="144.00" y1="176.00" x2="160.00" y2="176.00" />
<line x1="448.00" y1="176.00" x2="464.00" y2="176.00" />
<line x1="560.00" y1="176.00" x2="576.00" y2="176.00" />
<line x1="256.00" y1="192.00" x2="288.00" y2="192.00" />
<line x1="336.00" y1="192.00" x2="368.00" y2="192.00" />
<line x1="480.00" y1="192.00" x2="496.00" y2="192.00" />
<line x1="528.00" y1="192.00" x2="560.00" y2="192.00" />
<line x1="1104.00" y1="192.00" x2="1184.00" y2="192.00" />
<line x1="1200.00" y1="192.00" x2="1232.00" y2="192.00" />
<line x1="288.00" y1="208.00" x2="304.00" y2="208.00" />
<line x1="320.00" y1="208.00" x2="336.00" y2="208.00" />
<line x1="496.00" y1="208.00" x2="512.00" y2="208.00" />
<line x1="512.00" y1="240.00" x2="1104.00" y2="240.00" />
<line x1="528.00" y1="224.00" x2="1104.00" y2="224.00" />
<line x1="1376.00" y1="256.00" x2="1488.00" y2="256.00" />
<line x1="800.00" y1="272.00" x2="864.00" y2="272.00" />
<line x1="1104.00" y1="272.00" x2="1184.00" y2="272.00" />
<line x1="1200.00" y1="272.00" x2="1232.00" y2="272.00" />
<line x1="768.00" y1="288.00" x2="800.00" y2="288.00" />
<line x1="864.00" y1="288.00" x2="896.00" y2="288.00" />
<line x1="752.00" y1="304.00" x2="768.00" y2="304.00" />
<line x1="896.00" y1="304.00" x2="912.00" y2="304.00" />
<line x1="736.00" y1="336.00" x2="752.00" y2="336.00" />
<line x1="912.00" y1="336.00" x2="928.00" y2="336.00" />
<line x1="304.00" y1="368.00" x2="416.00" y2="368.00" />
<line x1="512.00" y1="368.00" x2="720.00" y2="368.00" />
<line x1="320.00" y1="352.00" x2="464.00" y2="352.00" />
<line x1="480.00" y1="352.00" x2="736.00" y2="352.00" />
<line x1="736.00" y1="384.00" x2="752.00" y2="384.00" />
<line x1="912.00" y1="384.00" x2="928.00" y2="384.00" />
<line x1="512.00" y1="416.00" x2="576.00" y2="416.00" />
<line x1="752.00" y1="416.00" x2="768.00" y2="416.00" />
<line x1="896.00" y1="416.00" x2="912.00" y2="416.00" />
<line x1="1344.00" y1="416.00" x2="1488.00" y2="416.00" />
<line x1="512.00" y1="432.00" x2="560.00" y2="432.00" />
<line x1="768.00" y1="432.00" x2="800.00" y2="432.00" />
<line x1="864.00" y1="432.00" x2="896.00" y2="432.00" />
<line x1="1168.00" y1="432.00" x2="1184.00" y2="432.00" />
<line x1="800.00" y1="448.00" x2="832.00" y2="448.00" />
<line x1="848.00" y1="448.00" x2="864.00" y2="448.00" />
<line x1="1136.00" y1="448.00" x2="1168.00" y2="448.00" />
<line x1="1200.00" y1="448.00" x2="1232.00" y2="448.00" />
<line x1="416.00" y1="480.00" x2="464.00" y2="480.00" />
<line x1="480.00" y1="480.00" x2="512.00" y2="480.00" />
<line x1="1248.00" y1="480.00" x2="1344.00" y2="480.00" />
<line x1="1120.00" y1="464.00" x2="1136.00" y2="464.00" />
<line x1="1232.00" y1="464.00" x2="1248.00" y2="464.00" />
<line x1="576.00" y1="496.00" x2="720.00" y2="496.00" />
<line x1="736.00" y1="496.00" x2="832.00" y2="496.00" />
<line x1="848.00" y1="496.00" x2="1120.00" y2="496.00" />
<line x1="1264.00" y1="496.00" x2="1344.00" y2="496.00" />
<line x1="576.00" y1="512.00" x2="720.00" y2="512.00" />
<line x1="736.00" y1="512.00" x2="832.00" y2="512.00" />
<line x1="848.00" y1="512.00" x2="1120.00" y2="512.00" />
<line x1="1248.00" y1="512.00" x2="1264.00" y2="512.00" />
<line x1="96.00" y1="544.00" x2="128.00" y2="544.00" />
<line x1="144.00" y1="544.00" x2="176.00" y2="544.00" />
<line x1="1120.00" y1="544.00" x2="1136.00" y2="544.00" />
<line x1="1232.00" y1="544.00" x2="1248.00" y2="544.00" />
<line x1="1344.00" y1="544.00" x2="1408.00" y2="544.00" />
<line x1="1424.00" y1="544.00" x2="1488.00" y2="544.00" />
<line x1="1136.00" y1="560.00" x2="1168.00" y2="560.00" />
<line x1="1200.00" y1="560.00" x2="1232.00" y2="560.00" />
<line x1="1168.00" y1="576.00" x2="1184.00" y2="576.00" />
<line x1="688.00" y1="624.00" x2="720.00" y2="624.00" />
<line x1="736.00" y1="624.00" x2="752.00" y2="624.00" />
<line x1="96.00" y1="672.00" x2="176.00" y2="672.00" />
<line x1="480.00" y1="672.00" x2="560.00" y2="672.00" />
<line x1="576.00" y1="672.00" x2="688.00" y2="672.00" />
<line x1="464.00" y1="688.00" x2="560.00" y2="688.00" />
<line x1="576.00" y1="688.00" x2="688.00" y2="688.00" />
<line x1="1344.00" y1="688.00" x2="1408.00" y2="688.00" />
<line x1="1424.00" y1="688.00" x2="1440.00" y2="688.00" />
<line x1="688.00" y1="720.00" x2="720.00" y2="720.00" />
<line x1="736.00" y1="720.00" x2="752.00" y2="720.00" />
<line x1="1024.00" y1="704.00" x2="1152.00" y2="704.00" />
<line x1="512.00" y1="736.00" x2="560.00" y2="736.00" />
<line x1="576.00" y1="736.00" x2="624.00" y2="736.00" />
<line x1="624.00" y1="768.00" x2="720.00" y2="768.00" />
<line x1="1344.00" y1="768.00" x2="1392.00" y2="768.00" />
<line x1="1408.00" y1="768.00" x2="1440.00" y2="768.00" />
<line x1="624.00" y1="784.00" x2="736.00" y2="784.00" />
<line x1="1152.00" y1="784.00" x2="1184.00" y2="784.00" />
<line x1="1200.00" y1="784.00" x2="1328.00" y2="784.00" />
<line x1="1152.00" y1="800.00" x2="1184.00" y2="800.00" />
<line x1="1200.00" y1="800.00" x2="1312.00" y2="800.00" />
<line x1="512.00" y1="816.00" x2="560.00" y2="816.00" />
<line x1="576.00" y1="816.00" x2="624.00" y2="816.00" />
<line x1="512.00" y1="848.00" x2="560.00" y2="848.00" />
<line x1="576.00" y1="848.00" x2="592.00" y2="848.00" />
<line x1="1216.00" y1="848.00" x2="1312.00" y2="848.00" />
<line x1="1328.00" y1="848.00" x2="1392.00" y2="848.00" />
<line x1="496.00" y1="864.00" x2="512.00" y2="864.00" />
<line x1="592.00" y1="864.00" x2="608.00" y2="864.00" />
<line x1="1024.00" y1="864.00" x2="1088.00" y2="864.00" />
<line x1="1104.00" y1="864.00" x2="1152.00" y2="864.00" />
<line x1="336.00" y1="880.00" x2="400.00" y2="880.00" />
<line x1="480.00" y1="880.00" x2="496.00" y2="880.00" />
<line x1="608.00" y1="880.00" x2="624.00" y2="880.00" />
<line x1="960.00" y1="896.00" x2="1088.00" y2="896.00" />
<line x1="1104.00" y1="896.00" x2="1184.00" y2="896.00" />
<line x1="1200.00" y1="896.00" x2="1216.00" y2="896.00" />
<line x1="976.00" y1="912.00" x2="1088.00" y2="912.00" />
<line x1="1104.00" y1="912.00" x2="1216.00" y2="912.00" />
<line x1="400.00" y1="928.00" x2="480.00" y2="928.00" />
<line x1="624.00" y1="928.00" x2="832.00" y2="928.00" />
<line x1="928.00" y1="928.00" x2="960.00" y2="928.00" />
<line x1="976.00" y1="928.00" x2="1008.00" y2="928.00" />
<line x1="400.00" y1="944.00" x2="480.00" y2="944.00" />
<line x1="624.00" y1="944.00" x2="848.00" y2="944.00" />
<line x1="1216.00" y1="944.00" x2="1312.00" y2="944.00" />
<line x1="1328.00" y1="944.00" x2="1408.00" y2="944.00" />
<line x1="480.00" y1="992.00" x2="496.00" y2="992.00" />
<line x1="608.00" y1="992.00" x2="624.00" y2="992.00" />
<line x1="1008.00" y1="992.00" x2="1088.00" y2="992.00" />
<line x1="496.00" y1="1008.00" x2="512.00" y2="1008.00" />
<line x1="592.00" y1="1008.00" x2="608.00" y2="1008.00" />
<line x1="1008.00" y1="1008.00" x2="1104.00" y2="1008.00" />
<line x1="512.00" y1="1024.00" x2="592.00" y2="1024.00" />
<line x1="336.00" y1="1040.00" x2="368.00" y2="1040.00" />
<line x1="384.00" y1="1040.00" x2="400.00" y2="1040.00" />
<line x1="928.00" y1="1072.00" x2="1008.00" y2="1072.00" />
<line x1="1264.00" y1="1056.00" x2="1312.00" y2="1056.00" />
<line x1="1328.00" y1="1056.00" x2="1456.00" y2="1056.00" />
<line x1="336.00" y1="1088.00" x2="368.00" y2="1088.00" />
<line x1="384.00" y1="1088.00" x2="400.00" y2="1088.00" />
<line x1="320.00" y1="1104.00" x2="336.00" y2="1104.00" />
<line x1="400.00" y1="1104.00" x2="416.00" y2="1104.00" />
<line x1="304.00" y1="1120.00" x2="320.00" y2="1120.00" />
<line x1="416.00" y1="1120.00" x2="432.00" y2="1120.00" />
<line x1="1264.00" y1="1120.00" x2="1360.00" y2="1120.00" />
<line x1="1376.00" y1="1120.00" x2="1456.00" y2="1120.00" />
<line x1="304.00" y1="1152.00" x2="320.00" y2="1152.00" />
<line x1="416.00" y1="1152.00" x2="432.00" y2="1152.00" />
<line x1="320.00" y1="1168.00" x2="336.00" y2="1168.00" />
<line x1="400.00" y1="1168.00" x2="416.00" y2="1168.00" />
<line x1="640.00" y1="1168.00" x2="688.00" y2="1168.00" />
<line x1="336.00" y1="1184.00" x2="368.00" y2="1184.00" />
<line x1="384.00" y1="1184.00" x2="400.00" y2="1184.00" />
<line x1="624.00" y1="1184.00" x2="640.00" y2="1184.00" />
<line x1="688.00" y1="1184.00" x2="704.00" y2="1184.00" />
<line x1="608.00" y1="1200.00" x2="624.00" y2="1200.00" />
<line x1="704.00" y1="1200.00" x2="720.00" y2="1200.00" />
<line x1="592.00" y1="1216.00" x2="608.00" y2="1216.00" />
<line x1="720.00" y1="1216.00" x2="736.00" y2="1216.00" />
<line x1="832.00" y1="1216.00" x2="1008.00" y2="1216.00" />
<line x1="736.00" y1="1232.00" x2="832.00" y2="1232.00" />
<line x1="736.00" y1="1248.00" x2="832.00" y2="1248.00" />
<line x1="592.00" y1="1264.00" x2="608.00" y2="1264.00" />
<line x1="720.00" y1="1264.00" x2="736.00" y2="1264.00" />
<line x1="608.00" y1="1280.00" x2="624.00" y2="1280.00" />
<line x1="704.00" y1="1280.00" x2="720.00" y2="1280.00" />
<line x1="624.00" y1="1296.00" x2="640.00" y2="1296.00" />
<line x1="688.00" y1="1296.00" x2="704.00" y2="1296.00" />
<line x1="1344.00" y1="1296.00" x2="1360.00" y2="1296.00" />
<line x1="1376.00" y1="1296.00" x2="1440.00" y2="1296.00" />
<line x1="400.00" y1="1312.00" x2="496.00" y2="1312.00" />
<line x1="640.00" y1="1312.00" x2="656.00" y2="1312.00" />
<line x1="672.00" y1="1312.00" x2="688.00" y2="1312.00" />
<line x1="1008.00" y1="1312.00" x2="1280.00" y2="1312.00" />
<line x1="1008.00" y1="1328.00" x2="1088.00" y2="1328.00" />
<line x1="496.00" y1="1360.00" x2="656.00" y2="1360.00" />
<line x1="672.00" y1="1360.00" x2="832.00" y2="1360.00" />
<line x1="1008.00" y1="1360.00" x2="1088.00" y2="1360.00" />
<line x1="1280.00" y1="1360.00" x2="1344.00" y2="1360.00" />
<line x1="1408.00" y1="1360.00" x2="1440.00" y2="1360.00" />
<line x1="496.00" y1="1376.00" x2="656.00" y2="1376.00" />
<line x1="672.00" y1="1376.00" x2="832.00" y2="1376.00" />
<line x1="1008.00" y1="1376.00" x2="1088.00" y2="1376.00" />
<line x1="1280.00" y1="1376.00" x2="1408.00" y2="1376.00" />
<line x1="368.00" y1="1408.00" x2="400.00" y2="1408.00" />
<line x1="496.00" y1="1408.00" x2="672.00" y2="1408.00" />
<line x1="832.00" y1="1408.00" x2="1008.00" y2="1408.00" />
<line x1="1088.00" y1="1408.00" x2="1280.00" y2="1408.00" />
<line x1="384.00" y1="1392.00" x2="400.00" y2="1392.00" />
<line x1="496.00" y1="1392.00" x2="656.00" y2="1392.00" />
<line x1="400.00" y1="1488.00" x2="496.00" y2="1488.00" />
<line x1="1120.00" y1="48.00" x2="1120.00" y2="64.00" />
<line x1="1120.00" y1="128.00" x2="1120.00" y2="144.00" />
<line x1="1120.00" y1="464.00" x2="1120.00" y2="496.00" />
<line x1="1120.00" y1="512.00" x2="1120.00" y2="544.00" />
<line x1="1248.00" y1="48.00" x2="1248.00" y2="64.00" />
<line x1="1248.00" y1="128.00" x2="1248.00" y2="144.00" />
<line x1="1248.00" y1="464.00" x2="1248.00" y2="480.00" />
<line x1="1248.00" y1="512.00" x2="1248.00" y2="544.00" />
<line x1="496.00" y1="64.00" x2="496.00" y2="80.00" />
<line x1="496.00" y1="192.00" x2="496.00" y2="208.00" />
<line x1="496.00" y1="864.00" x2="496.00" y2="880.00" />
<line x1="496.00" y1="992.00" x2="496.00" y2="1008.00" />
<line x1="496.00" y1="1312.00" x2="496.00" y2="1360.00" />
<line x1="496.00" y1="1376.00" x2="496.00" y2="1392.00" />
<line x1="496.00" y1="1408.00" x2="496.00" y2="1488.00" />
<line x1="528.00" y1="64.00" x2="528.00" y2="80.00" />
<line x1="528.00" y1="192.00" x2="528.00" y2="224.00" />
<line x1="1104.00" y1="64.00" x2="1104.00" y2="80.00" />
<line x1="1104.00" y1="112.00" x2="1104.00" y2="128.00" />
<line x1="1104.00" y1="192.00" x2="1104.00" y2="224.00" />
<line x1="1104.00" y1="240.00" x2="1104.00" y2="272.00" />
<line x1="1104.00" y1="864.00" x2="1104.00" y2="896.00" />
<line x1="1104.00" y1="912.00" x2="1104.00" y2="1008.00" />
<line x1="1264.00" y1="64.00" x2="1264.00" y2="80.00" />
<line x1="1264.00" y1="112.00" x2="1264.00" y2="128.00" />
<line x1="1264.00" y1="496.00" x2="1264.00" y2="512.00" />
<line x1="1264.00" y1="1056.00" x2="1264.00" y2="1120.00" />
<line x1="288.00" y1="80.00" x2="288.00" y2="96.00" />
<line x1="288.00" y1="192.00" x2="288.00" y2="208.00" />
<line x1="336.00" y1="80.00" x2="336.00" y2="96.00" />
<line x1="336.00" y1="192.00" x2="336.00" y2="208.00" />
<line x1="336.00" y1="880.00" x2="336.00" y2="1040.00" />
<line x1="336.00" y1="1088.00" x2="336.00" y2="1104.00" />
<line x1="336.00" y1="1168.00" x2="336.00" y2="1184.00" />
<line x1="464.00" y1="80.00" x2="464.00" y2="96.00" />
<line x1="464.00" y1="176.00" x2="464.00" y2="352.00" />
<line x1="464.00" y1="480.00" x2="464.00" y2="688.00" />
<line x1="560.00" y1="80.00" x2="560.00" y2="96.00" />
<line x1="560.00" y1="176.00" x2="560.00" y2="192.00" />
<line x1="560.00" y1="432.00" x2="560.00" y2="672.00" />
<line x1="560.00" y1="688.00" x2="560.00" y2="736.00" />
<line x1="560.00" y1="816.00" x2="560.00" y2="848.00" />
<line x1="1088.00" y1="80.00" x2="1088.00" y2="112.00" />
<line x1="1088.00" y1="864.00" x2="1088.00" y2="896.00" />
<line x1="1088.00" y1="912.00" x2="1088.00" y2="992.00" />
<line x1="1088.00" y1="1328.00" x2="1088.00" y2="1360.00" />
<line x1="1088.00" y1="1376.00" x2="1088.00" y2="1408.00" />
<line x1="1280.00" y1="80.00" x2="1280.00" y2="96.00" />
<line x1="1280.00" y1="1312.00" x2="1280.00" y2="1360.00" />
<line x1="1280.00" y1="1376.00" x2="1280.00" y2="1408.00" />
<line x1="256.00" y1="96.00" x2="256.00" y2="128.00" />
<line x1="256.00" y1="160.00" x2="256.00" y2="192.00" />
<line x1="368.00" y1="96.00" x2="368.00" y2="128.00" />
<line x1="368.00" y1="160.00" x2="368.00" y2="192.00" />
<line x1="368.00" y1="1040.00" x2="368.00" y2="1088.00" />
<line x1="368.00" y1="1184.00" x2="368.00" y2="1408.00" />
<line x1="448.00" y1="96.00" x2="448.00" y2="128.00" />
<line x1="448.00" y1="144.00" x2="448.00" y2="176.00" />
<line x1="576.00" y1="96.00" x2="576.00" y2="128.00" />
<line x1="576.00" y1="144.00" x2="576.00" y2="176.00" />
<line x1="576.00" y1="416.00" x2="576.00" y2="496.00" />
<line x1="576.00" y1="512.00" x2="576.00" y2="672.00" />
<line x1="576.00" y1="688.00" x2="576.00" y2="736.00" />
<line x1="576.00" y1="816.00" x2="576.00" y2="848.00" />
<line x1="1488.00" y1="96.00" x2="1488.00" y2="256.00" />
<line x1="1488.00" y1="416.00" x2="1488.00" y2="544.00" />
<line x1="96.00" y1="112.00" x2="96.00" y2="176.00" />
<line x1="96.00" y1="544.00" x2="96.00" y2="672.00" />
<line x1="160.00" y1="112.00" x2="160.00" y2="144.00" />
<line x1="160.00" y1="160.00" x2="160.00" y2="176.00" />
<line x1="1376.00" y1="112.00" x2="1376.00" y2="256.00" />
<line x1="1376.00" y1="1120.00" x2="1376.00" y2="1296.00" />
<line x1="240.00" y1="128.00" x2="240.00" y2="144.00" />
<line x1="592.00" y1="128.00" x2="592.00" y2="144.00" />
<line x1="592.00" y1="848.00" x2="592.00" y2="864.00" />
<line x1="592.00" y1="1008.00" x2="592.00" y2="1024.00" />
<line x1="592.00" y1="1216.00" x2="592.00" y2="1264.00" />
<line x1="384.00" y1="144.00" x2="384.00" y2="160.00" />
<line x1="384.00" y1="1040.00" x2="384.00" y2="1088.00" />
<line x1="384.00" y1="1184.00" x2="384.00" y2="1392.00" />
<line x1="1184.00" y1="144.00" x2="1184.00" y2="192.00" />
<line x1="1184.00" y1="272.00" x2="1184.00" y2="432.00" />
<line x1="1184.00" y1="576.00" x2="1184.00" y2="784.00" />
<line x1="1184.00" y1="800.00" x2="1184.00" y2="896.00" />
<line x1="1200.00" y1="144.00" x2="1200.00" y2="192.00" />
<line x1="1200.00" y1="272.00" x2="1200.00" y2="448.00" />
<line x1="1200.00" y1="560.00" x2="1200.00" y2="784.00" />
<line x1="1200.00" y1="800.00" x2="1200.00" y2="896.00" />
<line x1="128.00" y1="176.00" x2="128.00" y2="544.00" />
<line x1="144.00" y1="176.00" x2="144.00" y2="544.00" />
<line x1="480.00" y1="192.00" x2="480.00" y2="352.00" />
<line x1="480.00" y1="480.00" x2="480.00" y2="672.00" />
<line x1="480.00" y1="880.00" x2="480.00" y2="928.00" />
<line x1="480.00" y1="944.00" x2="480.00" y2="992.00" />
<line x1="1232.00" y1="192.00" x2="1232.00" y2="272.00" />
<line x1="1232.00" y1="448.00" x2="1232.00" y2="464.00" />
<line x1="1232.00" y1="544.00" x2="1232.00" y2="560.00" />
<line x1="304.00" y1="208.00" x2="304.00" y2="368.00" />
<line x1="304.00" y1="1120.00" x2="304.00" y2="1152.00" />
<line x1="320.00" y1="208.00" x2="320.00" y2="352.00" />
<line x1="320.00" y1="1104.00" x2="320.00" y2="1120.00" />
<line x1="320.00" y1="1152.00" x2="320.00" y2="1168.00" />
<line x1="512.00" y1="208.00" x2="512.00" y2="240.00" />
<line x1="512.00" y1="368.00" x2="512.00" y2="416.00" />
<line x1="512.00" y1="432.00" x2="512.00" y2="480.00" />
<line x1="512.00" y1="736.00" x2="512.00" y2="816.00" />
<line x1="512.00" y1="848.00" x2="512.00" y2="864.00" />
<line x1="512.00" y1="1008.00" x2="512.00" y2="1024.00" />
<line x1="800.00" y1="272.00" x2="800.00" y2="288.00" />
<line x1="800.00" y1="432.00" x2="800.00" y2="448.00" />
<line x1="864.00" y1="272.00" x2="864.00" y2="288.00" />
<line x1="864.00" y1="432.00" x2="864.00" y2="448.00" />
<line x1="768.00" y1="288.00" x2="768.00" y2="304.00" />
<line x1="768.00" y1="416.00" x2="768.00" y2="432.00" />
<line x1="896.00" y1="288.00" x2="896.00" y2="304.00" />
<line x1="896.00" y1="416.00" x2="896.00" y2="432.00" />
<line x1="752.00" y1="304.00" x2="752.00" y2="336.00" />
<line x1="752.00" y1="384.00" x2="752.00" y2="416.00" />
<line x1="752.00" y1="624.00" x2="752.00" y2="720.00" />
<line x1="912.00" y1="304.00" x2="912.00" y2="336.00" />
<line x1="912.00" y1="384.00" x2="912.00" y2="416.00" />
<line x1="736.00" y1="336.00" x2="736.00" y2="352.00" />
<line x1="736.00" y1="384.00" x2="736.00" y2="496.00" />
<line x1="736.00" y1="512.00" x2="736.00" y2="624.00" />
<line x1="736.00" y1="720.00" x2="736.00" y2="784.00" />
<line x1="736.00" y1="1216.00" x2="736.00" y2="1232.00" />
<line x1="736.00" y1="1248.00" x2="736.00" y2="1264.00" />
<line x1="928.00" y1="336.00" x2="928.00" y2="384.00" />
<line x1="928.00" y1="928.00" x2="928.00" y2="1072.00" />
<line x1="416.00" y1="368.00" x2="416.00" y2="480.00" />
<line x1="416.00" y1="1104.00" x2="416.00" y2="1120.00" />
<line x1="416.00" y1="1152.00" x2="416.00" y2="1168.00" />
<line x1="720.00" y1="368.00" x2="720.00" y2="496.00" />
<line x1="720.00" y1="512.00" x2="720.00" y2="624.00" />
<line x1="720.00" y1="720.00" x2="720.00" y2="768.00" />
<line x1="720.00" y1="1200.00" x2="720.00" y2="1216.00" />
<line x1="720.00" y1="1264.00" x2="720.00" y2="1280.00" />
<line x1="1344.00" y1="416.00" x2="1344.00" y2="480.00" />
<line x1="1344.00" y1="496.00" x2="1344.00" y2="544.00" />
<line x1="1344.00" y1="688.00" x2="1344.00" y2="768.00" />
<line x1="1344.00" y1="1296.00" x2="1344.00" y2="1360.00" />
<line x1="1168.00" y1="432.00" x2="1168.00" y2="448.00" />
<line x1="1168.00" y1="560.00" x2="1168.00" y2="576.00" />
<line x1="832.00" y1="448.00" x2="832.00" y2="496.00" />
<line x1="832.00" y1="512.00" x2="832.00" y2="928.00" />
<line x1="832.00" y1="1216.00" x2="832.00" y2="1232.00" />
<line x1="832.00" y1="1248.00" x2="832.00" y2="1360.00" />
<line x1="832.00" y1="1376.00" x2="832.00" y2="1408.00" />
<line x1="848.00" y1="448.00" x2="848.00" y2="496.00" />
<line x1="848.00" y1="512.00" x2="848.00" y2="944.00" />
<line x1="1136.00" y1="448.00" x2="1136.00" y2="464.00" />
<line x1="1136.00" y1="544.00" x2="1136.00" y2="560.00" />
<line x1="176.00" y1="544.00" x2="176.00" y2="672.00" />
<line x1="1408.00" y1="544.00" x2="1408.00" y2="688.00" />
<line x1="1408.00" y1="768.00" x2="1408.00" y2="944.00" />
<line x1="1408.00" y1="1360.00" x2="1408.00" y2="1376.00" />
<line x1="1424.00" y1="544.00" x2="1424.00" y2="688.00" />
<line x1="688.00" y1="624.00" x2="688.00" y2="672.00" />
<line x1="688.00" y1="688.00" x2="688.00" y2="720.00" />
<line x1="688.00" y1="1168.00" x2="688.00" y2="1184.00" />
<line x1="688.00" y1="1296.00" x2="688.00" y2="1312.00" />
<line x1="1440.00" y1="688.00" x2="1440.00" y2="768.00" />
<line x1="1440.00" y1="1296.00" x2="1440.00" y2="1360.00" />
<line x1="1024.00" y1="704.00" x2="1024.00" y2="864.00" />
<line x1="1152.00" y1="704.00" x2="1152.00" y2="784.00" />
<line x1="1152.00" y1="800.00" x2="1152.00" y2="864.00" />
<line x1="624.00" y1="736.00" x2="624.00" y2="768.00" />
<line x1="624.00" y1="784.00" x2="624.00" y2="816.00" />
<line x1="624.00" y1="880.00" x2="624.00" y2="928.00" />
<line x1="624.00" y1="944.00" x2="624.00" y2="992.00" />
<line x1="624.00" y1="1184.00" x2="624.00" y2="1200.00" />
<line x1="624.00" y1="1280.00" x2="624.00" y2="1296.00" />
<line x1="1392.00" y1="768.00" x2="1392.00" y2="848.00" />
<line x1="1328.00" y1="784.00" x2="1328.00" y2="848.00" />
<line x1="1328.00" y1="944.00" x2="1328.00" y2="1056.00" />
<line x1="1312.00" y1="800.00" x2="1312.00" y2="848.00" />
<line x1="1312.00" y1="944.00" x2="1312.00" y2="1056.00" />
<line x1="1216.00" y1="848.00" x2="1216.00" y2="896.00" />
<line x1="1216.00" y1="912.00" x2="1216.00" y2="944.00" />
<line x1="608.00" y1="864.00" x2="608.00" y2="880.00" />
<line x1="608.00" y1="992.00" x2="608.00" y2="1008.00" />
<line x1="608.00" y1="1200.00" x2="608.00" y2="1216.00" />
<line x1="608.00" y1="1264.00" x2="608.00" y2="1280.00" />
<line x1="400.00" y1="880.00" x2="400.00" y2="928.00" />
<line x1="400.00" y1="944.00" x2="400.00" y2="1040.00" />
<line x1="400.00" y1="1088.00" x2="400.00" y2="1104.00" />
<line x1="400.00" y1="1168.00" x2="400.00" y2="1184.00" />
<line x1="400.00" y1="1312.00" x2="400.00" y2="1392.00" />
<line x1="400.00" y1="1408.00" x2="400.00" y2="1488.00" />
<line x1="960.00" y1="896.00" x2="960.00" y2="928.00" />
<line x1="976.00" y1="912.00" x2="976.00" y2="928.00" />
<line x1="1008.00" y1="928.00" x2="1008.00" y2="992.00" />
<line x1="1008.00" y1="1008.00" x2="1008.00" y2="1072.00" />
<line x1="1008.00" y1="1216.00" x2="1008.00" y2="1312.00" />
<line x1="1008.00" y1="1328.00" x2="1008.00" y2="1360.00" />
<line x1="1008.00" y1="1376.00" x2="1008.00" y2="1408.00" />
<line x1="1456.00" y1="1056.00" x2="1456.00" y2="1120.00" />
<line x1="432.00" y1="1120.00" x2="432.00" y2="1152.00" />
<line x1="1360.00" y1="1120.00" x2="1360.00" y2="1296.00" />
<line x1="640.00" y1="1168.00" x2="640.00" y2="1184.00" />
<line x1="640.00" y1="1296.00" x2="640.00" y2="1312.00" />
<line x1="704.00" y1="1184.00" x2="704.00" y2="1200.00" />
<line x1="704.00" y1="1280.00" x2="704.00" y2="1296.00" />
<line x1="656.00" y1="1312.00" x2="656.00" y2="1360.00" />
<line x1="656.00" y1="1376.00" x2="656.00" y2="1392.00" />
<line x1="672.00" y1="1312.00" x2="672.00" y2="1360.00" />
<line x1="672.00" y1="1376.00" x2="672.00" y2="1408.00" />
  </g>
  <g class="features">
<g data-feature-type="stairsDown"><line data-feature-type="stairsDown" x1="930.24" y1="1315.36" x2="941.76" y2="1315.36" /><line x1="930.65" y1="1317.68" x2="941.35" y2="1317.68" /><line x1="931.07" y1="1320.00" x2="940.93" y2="1320.00" /><line x1="931.48" y1="1322.32" x2="940.52" y2="1322.32" /><line x1="931.90" y1="1324.64" x2="940.10" y2="1324.64" /></g>
<g data-feature-type="stairsUp"><line data-feature-type="stairsUp" x1="851.90" y1="355.36" x2="860.10" y2="355.36" /><line x1="851.48" y1="357.68" x2="860.52" y2="357.68" /><line x1="851.07" y1="360.00" x2="860.93" y2="360.00" /><line x1="850.65" y1="362.32" x2="861.35" y2="362.32" /><line x1="850.24" y1="364.64" x2="861.76" y2="364.64" /></g>
<circle data-feature-type="pillar" cx="1192.00" cy="72.00" r="3.68" fill="#4f89a8" stroke="none" />
<circle data-feature-type="pillar" cx="1192.00" cy="120.00" r="3.68" fill="#4f89a8" stroke="none" />
<circle data-feature-type="pillar" cx="584.00" cy="776.00" r="3.68" fill="#4f89a8" stroke="none" />
<g data-feature-type="statue"><circle cx="552.00" cy="776.00" r="3.52" fill="none" /><line x1="549.76" y1="776.00" x2="554.24" y2="776.00" /><line x1="552.00" y1="773.76" x2="552.00" y2="778.24" /><line x1="550.39" y1="774.39" x2="553.61" y2="777.61" /><line x1="550.39" y1="777.61" x2="553.61" y2="774.39" /></g>
<circle data-feature-type="pillar" cx="1112.00" cy="776.00" r="3.68" fill="#4f89a8" stroke="none" />
<circle data-feature-type="pillar" cx="1080.00" cy="776.00" r="3.68" fill="#4f89a8" stroke="none" />
<circle data-feature-type="pillar" cx="1128.00" cy="776.00" r="3.68" fill="#4f89a8" stroke="none" />
<g data-feature-type="statue"><circle cx="1048.00" cy="744.00" r="3.52" fill="none" /><line x1="1045.76" y1="744.00" x2="1050.24" y2="744.00" /><line x1="1048.00" y1="741.76" x2="1048.00" y2="746.24" /><line x1="1046.39" y1="742.39" x2="1049.61" y2="745.61" /><line x1="1046.39" y1="745.61" x2="1049.61" y2="742.39" /></g>
<path data-feature-type="curtain" d="M 1046.40 787.84 Q 1048.00 790.34 1046.40 792.00 Q 1048.00 793.66 1046.40 796.16" fill="none" /><path d="M 1049.60 787.84 Q 1048.00 790.34 1049.60 792.00 Q 1048.00 793.66 1049.60 796.16" fill="none" />
<circle data-feature-type="pillar" cx="584.00" cy="952.00" r="3.68" fill="#4f89a8" stroke="none" />
<circle data-feature-type="pillar" cx="536.00" cy="920.00" r="3.68" fill="#4f89a8" stroke="none" />
<circle data-feature-type="pillar" cx="536.00" cy="952.00" r="3.68" fill="#4f89a8" stroke="none" />
<circle data-feature-type="pillar" cx="392.00" cy="968.00" r="3.68" fill="#4f89a8" stroke="none" />
<g data-feature-type="statue"><circle cx="360.00" cy="984.00" r="3.52" fill="none" /><line x1="357.76" y1="984.00" x2="362.24" y2="984.00" /><line x1="360.00" y1="981.76" x2="360.00" y2="986.24" /><line x1="358.39" y1="982.39" x2="361.61" y2="985.61" /><line x1="358.39" y1="985.61" x2="361.61" y2="982.39" /></g>
<circle data-feature-type="pillar" cx="1384.00" cy="488.00" r="3.68" fill="#4f89a8" stroke="none" />
<circle data-feature-type="pillar" cx="1400.00" cy="488.00" r="3.68" fill="#4f89a8" stroke="none" />
<g data-feature-type="trap"><rect x="1460.64" y="484.64" width="6.72" height="6.72" fill="none" /><line x1="1460.64" y1="484.64" x2="1467.36" y2="491.36" /><line x1="1460.64" y1="491.36" x2="1467.36" y2="484.64" /></g>
<g data-feature-type="well"><circle cx="616.00" cy="1224.00" r="4.00" fill="none" /><circle cx="616.00" cy="1224.00" r="2.24" fill="none" /></g>
<circle data-feature-type="pillar" cx="1176.00" cy="1368.00" r="3.68" fill="#4f89a8" stroke="none" />
<circle data-feature-type="pillar" cx="1160.00" cy="1368.00" r="3.68" fill="#4f89a8" stroke="none" />
<g data-feature-type="statue"><circle cx="1192.00" cy="1384.00" r="3.52" fill="none" /><line x1="1189.76" y1="1384.00" x2="1194.24" y2="1384.00" /><line x1="1192.00" y1="1381.76" x2="1192.00" y2="1386.24" /><line x1="1190.39" y1="1382.39" x2="1193.61" y2="1385.61" /><line x1="1190.39" y1="1385.61" x2="1193.61" y2="1382.39" /></g>
<circle data-feature-type="pillar" cx="888.00" cy="1304.00" r="3.68" fill="#4f89a8" stroke="none" />
<circle data-feature-type="pillar" cx="904.00" cy="1336.00" r="3.68" fill="#4f89a8" stroke="none" />
<circle data-feature-type="pillar" cx="936.00" cy="1336.00" r="3.68" fill="#4f89a8" stroke="none" />
<circle data-feature-type="pillar" cx="952.00" cy="1336.00" r="3.68" fill="#4f89a8" stroke="none" />
<g data-feature-type="statue"><circle cx="968.00" cy="1352.00" r="3.52" fill="none" /><line x1="965.76" y1="1352.00" x2="970.24" y2="1352.00" /><line x1="968.00" y1="1349.76" x2="968.00" y2="1354.24" /><line x1="966.39" y1="1350.39" x2="969.61" y2="1353.61" /><line x1="966.39" y1="1353.61" x2="969.61" y2="1350.39" /></g>
<g data-feature-type="trap"><rect x="868.64" y="1268.64" width="6.72" height="6.72" fill="none" /><line x1="868.64" y1="1268.64" x2="875.36" y2="1275.36" /><line x1="868.64" y1="1275.36" x2="875.36" y2="1268.64" /></g>
<circle data-feature-type="pillar" cx="152.00" cy="616.00" r="3.68" fill="#4f89a8" stroke="none" />
<circle data-feature-type="pillar" cx="312.00" cy="168.00" r="3.68" fill="#4f89a8" stroke="none" />
<circle data-feature-type="pillar" cx="312.00" cy="120.00" r="3.68" fill="#4f89a8" stroke="none" />
<circle data-feature-type="pillar" cx="472.00" cy="1400.00" r="3.68" fill="#4f89a8" stroke="none" />
<g data-feature-type="altar"><rect x="453.28" y="1430.40" width="5.44" height="3.20" fill="none" /><line x1="456.00" y1="1429.44" x2="456.00" y2="1434.56" /><line x1="454.40" y1="1432.00" x2="457.60" y2="1432.00" /></g>
<g data-feature-type="trap"><rect x="836.64" y="372.64" width="6.72" height="6.72" fill="none" /><line x1="836.64" y1="372.64" x2="843.36" y2="379.36" /><line x1="836.64" y1="379.36" x2="843.36" y2="372.64" /></g>
<g data-feature-type="trap"><rect x="484.64" y="452.64" width="6.72" height="6.72" fill="none" /><line x1="484.64" y1="452.64" x2="491.36" y2="459.36" /><line x1="484.64" y1="459.36" x2="491.36" y2="452.64" /></g>
<circle data-feature-type="pillar" cx="1208.00" cy="520.00" r="3.68" fill="#4f89a8" stroke="none" />
<circle data-feature-type="pillar" cx="1208.00" cy="488.00" r="3.68" fill="#4f89a8" stroke="none" />
<circle data-feature-type="pillar" cx="1224.00" cy="488.00" r="3.68" fill="#4f89a8" stroke="none" />
<path data-feature-type="curtain" d="M 1190.40 547.84 Q 1192.00 550.34 1190.40 552.00 Q 1192.00 553.66 1190.40 556.16" fill="none" /><path d="M 1193.60 547.84 Q 1192.00 550.34 1193.60 552.00 Q 1192.00 553.66 1193.60 556.16" fill="none" />
<circle data-feature-type="pillar" cx="536.00" cy="136.00" r="3.68" fill="#4f89a8" stroke="none" />
<circle data-feature-type="pillar" cx="1400.00" cy="1096.00" r="3.68" fill="#4f89a8" stroke="none" />
<circle data-feature-type="pillar" cx="1336.00" cy="1096.00" r="3.68" fill="#4f89a8" stroke="none" />
<circle data-feature-type="pillar" cx="984.00" cy="1000.00" r="3.68" fill="#4f89a8" stroke="none" />
<circle data-feature-type="pillar" cx="1320.00" cy="872.00" r="3.68" fill="#4f89a8" stroke="none" />
<circle data-feature-type="pillar" cx="1320.00" cy="936.00" r="3.68" fill="#4f89a8" stroke="none" />
<g data-feature-type="trap"><rect x="1316.64" y="916.64" width="6.72" height="6.72" fill="none" /><line x1="1316.64" y1="916.64" x2="1323.36" y2="923.36" /><line x1="1316.64" y1="923.36" x2="1323.36" y2="916.64" /></g>
<g data-feature-type="chest"><rect x="1253.28" y="918.24" width="5.44" height="3.52" fill="none" /><line x1="1253.28" y1="920.00" x2="1258.72" y2="920.00" /><circle cx="1256.00" cy="920.18" r="0.70" fill="#4f89a8" stroke="none" /></g>
<circle data-feature-type="pillar" cx="744.00" cy="680.00" r="3.68" fill="#4f89a8" stroke="none" />
<g data-feature-type="trap"><rect x="708.64" y="692.64" width="6.72" height="6.72" fill="none" /><line x1="708.64" y1="692.64" x2="715.36" y2="699.36" /><line x1="708.64" y1="699.36" x2="715.36" y2="692.64" /></g>
<circle data-feature-type="pillar" cx="392.00" cy="1144.00" r="3.68" fill="#4f89a8" stroke="none" />
<g data-feature-type="altar"><rect x="341.28" y="1110.40" width="5.44" height="3.20" fill="none" /><line x1="344.00" y1="1109.44" x2="344.00" y2="1114.56" /><line x1="342.40" y1="1112.00" x2="345.60" y2="1112.00" /></g>
<g data-feature-type="trap"><rect x="356.64" y="1124.64" width="6.72" height="6.72" fill="none" /><line x1="356.64" y1="1124.64" x2="363.36" y2="1131.36" /><line x1="356.64" y1="1131.36" x2="363.36" y2="1124.64" /></g>
<circle data-feature-type="pillar" cx="1448.00" cy="184.00" r="3.68" fill="#4f89a8" stroke="none" />
<g data-feature-type="coffin"><rect x="1397.60" y="212.32" width="4.80" height="7.36" rx="0.80" ry="0.80" fill="none" /><line x1="1400.00" y1="213.94" x2="1400.00" y2="218.06" /></g>
<circle data-feature-type="pillar" cx="1192.00" cy="232.00" r="3.68" fill="#4f89a8" stroke="none" />
<g data-feature-type="trap"><rect x="1124.64" y="244.64" width="6.72" height="6.72" fill="none" /><line x1="1124.64" y1="244.64" x2="1131.36" y2="251.36" /><line x1="1124.64" y1="251.36" x2="1131.36" y2="244.64" /></g>
<circle data-feature-type="pillar" cx="1416.00" cy="1336.00" r="3.68" fill="#4f89a8" stroke="none" />
  </g>
  <g class="thresholds">
<rect data-threshold-type="door" x="1267.52" y="101.76" width="8.96" height="4.48" fill="#ffffff" stroke="#4f89a8" stroke-width="1.52" />
<rect data-threshold-type="door" x="563.52" y="805.76" width="8.96" height="4.48" fill="#ffffff" stroke="#4f89a8" stroke-width="1.52" />
<rect data-threshold-type="door" x="1091.52" y="853.76" width="8.96" height="4.48" fill="#ffffff" stroke="#4f89a8" stroke-width="1.52" />
<g data-threshold-type="locked" stroke="#4f89a8" fill="none" stroke-width="1.52"><rect x="483.52" y="933.76" width="8.96" height="4.48" fill="#ffffff" /><circle cx="488.00" cy="932.77" r="1.61" /></g>
<rect data-threshold-type="door" x="387.52" y="933.76" width="8.96" height="4.48" fill="#ffffff" stroke="#4f89a8" stroke-width="1.52" />
<rect data-threshold-type="door" x="1411.52" y="533.76" width="8.96" height="4.48" fill="#ffffff" stroke="#4f89a8" stroke-width="1.52" />
<g data-threshold-type="secret"><line x1="659.52" y1="1304.00" x2="668.48" y2="1304.00" stroke="#4f89a8" stroke-width="1.31" stroke-dasharray="1.31 1.31" /><text x="669.56" y="1303.10" font-size="5.44" fill="#4f89a8" font-family="Courier New, monospace" font-weight="700">S</text></g>
<rect data-threshold-type="door" x="1267.52" y="1365.76" width="8.96" height="4.48" fill="#ffffff" stroke="#4f89a8" stroke-width="1.52" />
<g data-threshold-type="locked" stroke="#4f89a8" fill="none" stroke-width="1.52"><rect x="835.52" y="1237.76" width="8.96" height="4.48" fill="#ffffff" /><circle cx="840.00" cy="1236.77" r="1.61" /></g>
<rect data-threshold-type="door" x="1411.52" y="693.76" width="8.96" height="4.48" fill="#ffffff" stroke="#4f89a8" stroke-width="1.52" />
<rect data-threshold-type="door" x="131.52" y="549.76" width="8.96" height="4.48" fill="#ffffff" stroke="#4f89a8" stroke-width="1.52" />
<rect data-threshold-type="door" x="243.52" y="149.76" width="8.96" height="4.48" fill="#ffffff" stroke="#4f89a8" stroke-width="1.52" />
<rect data-threshold-type="door" x="483.52" y="1397.76" width="8.96" height="4.48" fill="#ffffff" stroke="#4f89a8" stroke-width="1.52" />
<rect data-threshold-type="door" x="739.52" y="437.76" width="8.96" height="4.48" fill="#ffffff" stroke="#4f89a8" stroke-width="1.52" />
<rect data-threshold-type="door" x="419.52" y="357.76" width="8.96" height="4.48" fill="#ffffff" stroke="#4f89a8" stroke-width="1.52" />
<g data-threshold-type="locked" stroke="#4f89a8" fill="none" stroke-width="1.52"><rect x="1251.52" y="501.76" width="8.96" height="4.48" fill="#ffffff" /><circle cx="1256.00" cy="500.77" r="1.61" /></g>
<rect data-threshold-type="door" x="467.52" y="197.76" width="8.96" height="4.48" fill="#ffffff" stroke="#4f89a8" stroke-width="1.52" />
<rect data-threshold-type="door" x="147.52" y="149.76" width="8.96" height="4.48" fill="#ffffff" stroke="#4f89a8" stroke-width="1.52" />
<rect data-threshold-type="door" x="1363.52" y="1109.76" width="8.96" height="4.48" fill="#ffffff" stroke="#4f89a8" stroke-width="1.52" />
<rect data-threshold-type="door" x="995.52" y="997.76" width="8.96" height="4.48" fill="#ffffff" stroke="#4f89a8" stroke-width="1.52" />
<rect data-threshold-type="door" x="1315.52" y="853.76" width="8.96" height="4.48" fill="#ffffff" stroke="#4f89a8" stroke-width="1.52" />
<rect data-threshold-type="door" x="691.52" y="677.76" width="8.96" height="4.48" fill="#ffffff" stroke="#4f89a8" stroke-width="1.52" />
<g data-threshold-type="secret"><line x1="371.52" y1="1096.00" x2="380.48" y2="1096.00" stroke="#4f89a8" stroke-width="1.31" stroke-dasharray="1.31 1.31" /><text x="381.56" y="1095.10" font-size="5.44" fill="#4f89a8" font-family="Courier New, monospace" font-weight="700">S</text></g>
<rect data-threshold-type="door" x="1379.52" y="101.76" width="8.96" height="4.48" fill="#ffffff" stroke="#4f89a8" stroke-width="1.52" />
<rect data-threshold-type="door" x="1187.52" y="261.76" width="8.96" height="4.48" fill="#ffffff" stroke="#4f89a8" stroke-width="1.52" />
<rect data-threshold-type="door" x="1363.52" y="1301.76" width="8.96" height="4.48" fill="#ffffff" stroke="#4f89a8" stroke-width="1.52" />
  </g>
  <g class="labels">
<text x="1192.00" y="105.92" text-anchor="middle">1</text>
<text x="568.00" y="777.92" text-anchor="middle">2</text>
<text x="1096.00" y="793.92" text-anchor="middle">3</text>
<text x="552.00" y="937.92" text-anchor="middle">4</text>
<text x="376.00" y="969.92" text-anchor="middle">5</text>
<text x="1416.00" y="489.92" text-anchor="middle">6</text>
<text x="664.00" y="1241.92" text-anchor="middle">7</text>
<text x="1192.00" y="1369.92" text-anchor="middle">8</text>
<text x="920.00" y="1321.92" text-anchor="middle">9</text>
<text x="1400.00" y="729.92" text-anchor="middle">10</text>
<text x="136.00" y="617.92" text-anchor="middle">11</text>
<text x="312.00" y="153.92" text-anchor="middle">12</text>
<text x="456.00" y="1401.92" text-anchor="middle">13</text>
<text x="840.00" y="361.92" text-anchor="middle">14</text>
<text x="472.00" y="425.92" text-anchor="middle">15</text>
<text x="1192.00" y="505.92" text-anchor="middle">16</text>
<text x="520.00" y="137.92" text-anchor="middle">17</text>
<text x="136.00" y="153.92" text-anchor="middle">18</text>
<text x="1368.00" y="1097.92" text-anchor="middle">19</text>
<text x="968.00" y="1001.92" text-anchor="middle">20</text>
<text x="1320.00" y="905.92" text-anchor="middle">21</text>
<text x="728.00" y="681.92" text-anchor="middle">22</text>
<text x="376.00" y="1145.92" text-anchor="middle">23</text>
<text x="1432.00" y="185.92" text-anchor="middle">24</text>
<text x="1176.00" y="233.92" text-anchor="middle">25</text>
<text x="1400.00" y="1337.92" text-anchor="middle">26</text>
  </g>
</svg>