<?xml version="1.0" encoding="UTF-8"?>
<svg xmlns="http://www.w3.org/2000/svg" width="1504" height="1536" viewBox="0 0 1504.00 1536.00" role="img" aria-label="MapIR render: Learned Generated Map 4">
  <defs>
    <style>
      .grid { stroke: #cde2ec; stroke-width: 0.64; opacity: 0.72; }
      .walls { stroke: #6aa7c7; stroke-width: 1.92; fill: none; stroke-linecap: square; }
      .thresholds { fill: none; stroke-linecap: round; }
      .features { stroke: #4f89a8; fill: none; stroke-width: 1.12; stroke-linecap: round; stroke-linejoin: round; }
      .labels { fill: #4f89a8; font-size: 7.20px; font-family: "Courier New", monospace; font-weight: 600; }
    </style>
  </defs>
  <rect x="0" y="0" width="1504.00" height="1536.00" fill="#4393be" />
  <g class="floors">
<rect x="1200.00" y="32.00" width="160.00" height="160.00" fill="#fcfdfe" />
<rect x="1056.00" y="48.00" width="128.00" height="80.00" fill="#fcfdfe" />
<rect x="784.00" y="80.00" width="160.00" height="160.00" fill="#fcfdfe" />
<rect x="496.00" y="112.00" width="288.00" height="16.00" fill="#fcfdfe" />
<rect x="944.00" y="112.00" width="112.00" height="16.00" fill="#fcfdfe" />
<rect x="1184.00" y="112.00" width="16.00" height="16.00" fill="#fcfdfe" />
<rect x="496.00" y="128.00" width="16.00" height="784.00" fill="#fcfdfe" />
<rect x="1120.00" y="128.00" width="16.00" height="896.00" fill="#fcfdfe" />
<rect x="192.00" y="144.00" width="304.00" height="16.00" fill="#fcfdfe" />
<rect x="512.00" y="144.00" width="272.00" height="16.00" fill="#fcfdfe" />
<rect x="944.00" y="144.00" width="176.00" height="16.00" fill="#fcfdfe" />
<rect x="1136.00" y="144.00" width="64.00" height="16.00" fill="#fcfdfe" />
<rect x="1360.00" y="144.00" width="16.00" height="1120.00" fill="#fcfdfe" />
<rect x="64.00" y="160.00" width="64.00" height="144.00" fill="#fcfdfe" />
<rect x="192.00" y="160.00" width="16.00" height="896.00" fill="#fcfdfe" />
<rect x="304.00" y="160.00" width="16.00" height="544.00" fill="#fcfdfe" />
<rect x="624.00" y="160.00" width="16.00" height="928.00" fill="#fcfdfe" />
<rect x="1280.00" y="192.00" width="16.00" height="48.00" fill="#fcfdfe" />
<rect x="128.00" y="224.00" width="64.00" height="16.00" fill="#fcfdfe" />
<rect x="208.00" y="224.00" width="96.00" height="16.00" fill="#fcfdfe" />
<rect x="320.00" y="224.00" width="176.00" height="16.00" fill="#fcfdfe" />
<rect x="512.00" y="224.00" width="112.00" height="16.00" fill="#fcfdfe" />
<rect x="640.00" y="224.00" width="144.00" height="16.00" fill="#fcfdfe" />
<rect x="944.00" y="224.00" width="176.00" height="16.00" fill="#fcfdfe" />
<rect x="1136.00" y="224.00" width="144.00" height="16.00" fill="#fcfdfe" />
<rect x="704.00" y="240.00" width="192.00" height="144.00" fill="#fcfdfe" />
<rect x="1280.00" y="256.00" width="80.00" height="48.00" fill="#fcfdfe" />
<rect x="1376.00" y="256.00" width="80.00" height="48.00" fill="#fcfdfe" />
<rect x="128.00" y="272.00" width="64.00" height="16.00" fill="#fcfdfe" />
<rect x="208.00" y="272.00" width="96.00" height="16.00" fill="#fcfdfe" />
<rect x="320.00" y="272.00" width="176.00" height="16.00" fill="#fcfdfe" />
<rect x="512.00" y="272.00" width="112.00" height="16.00" fill="#fcfdfe" />
<rect x="640.00" y="272.00" width="64.00" height="16.00" fill="#fcfdfe" />
<rect x="896.00" y="272.00" width="224.00" height="16.00" fill="#fcfdfe" />
<rect x="1136.00" y="272.00" width="144.00" height="16.00" fill="#fcfdfe" />
<rect x="992.00" y="288.00" width="16.00" height="1152.00" fill="#fcfdfe" />
<rect x="896.00" y="304.00" width="96.00" height="16.00" fill="#fcfdfe" />
<rect x="1008.00" y="304.00" width="112.00" height="16.00" fill="#fcfdfe" />
<rect x="1376.00" y="304.00" width="16.00" height="960.00" fill="#fcfdfe" />
<rect x="864.00" y="384.00" width="16.00" height="1056.00" fill="#fcfdfe" />
<rect x="336.00" y="400.00" width="160.00" height="48.00" fill="#fcfdfe" />
<rect x="240.00" y="416.00" width="64.00" height="16.00" fill="#fcfdfe" />
<rect x="320.00" y="416.00" width="16.00" height="16.00" fill="#fcfdfe" />
<rect x="512.00" y="416.00" width="112.00" height="16.00" fill="#fcfdfe" />
<rect x="640.00" y="416.00" width="224.00" height="16.00" fill="#fcfdfe" />
<rect x="944.00" y="416.00" width="48.00" height="160.00" fill="#fcfdfe" />
<rect x="1008.00" y="416.00" width="48.00" height="160.00" fill="#fcfdfe" />
<rect x="240.00" y="432.00" width="16.00" height="1072.00" fill="#fcfdfe" />
<rect x="848.00" y="432.00" width="16.00" height="112.00" fill="#fcfdfe" />
<rect x="880.00" y="432.00" width="16.00" height="112.00" fill="#fcfdfe" />
<rect x="80.00" y="448.00" width="112.00" height="112.00" fill="#fcfdfe" />
<rect x="208.00" y="448.00" width="32.00" height="112.00" fill="#fcfdfe" />
<rect x="416.00" y="448.00" width="16.00" height="368.00" fill="#fcfdfe" />
<rect x="256.00" y="496.00" width="48.00" height="16.00" fill="#fcfdfe" />
<rect x="320.00" y="496.00" width="96.00" height="16.00" fill="#fcfdfe" />
<rect x="432.00" y="496.00" width="64.00" height="16.00" fill="#fcfdfe" />
<rect x="512.00" y="496.00" width="112.00" height="16.00" fill="#fcfdfe" />
<rect x="640.00" y="496.00" width="208.00" height="16.00" fill="#fcfdfe" />
<rect x="896.00" y="496.00" width="48.00" height="16.00" fill="#fcfdfe" />
<rect x="1056.00" y="496.00" width="64.00" height="16.00" fill="#fcfdfe" />
<rect x="1136.00" y="496.00" width="64.00" height="16.00" fill="#fcfdfe" />
<rect x="512.00" y="512.00" width="48.00" height="48.00" fill="#fcfdfe" />
<rect x="1184.00" y="512.00" width="16.00" height="512.00" fill="#fcfdfe" />
<rect x="560.00" y="528.00" width="64.00" height="16.00" fill="#fcfdfe" />
<rect x="640.00" y="528.00" width="208.00" height="16.00" fill="#fcfdfe" />
<rect x="592.00" y="544.00" width="32.00" height="160.00" fill="#fcfdfe" />
<rect x="640.00" y="544.00" width="144.00" height="160.00" fill="#fcfdfe" />
<rect x="160.00" y="560.00" width="16.00" height="704.00" fill="#fcfdfe" />
<rect x="528.00" y="560.00" width="16.00" height="432.00" fill="#fcfdfe" />
<rect x="256.00" y="624.00" width="48.00" height="80.00" fill="#fcfdfe" />
<rect x="320.00" y="624.00" width="48.00" height="80.00" fill="#fcfdfe" />
<rect x="784.00" y="624.00" width="80.00" height="16.00" fill="#fcfdfe" />
<rect x="880.00" y="624.00" width="112.00" height="16.00" fill="#fcfdfe" />
<rect x="1008.00" y="624.00" width="112.00" height="16.00" fill="#fcfdfe" />
<rect x="1136.00" y="624.00" width="48.00" height="16.00" fill="#fcfdfe" />
<rect x="1200.00" y="624.00" width="160.00" height="16.00" fill="#fcfdfe" />
<rect x="368.00" y="656.00" width="48.00" height="16.00" fill="#fcfdfe" />
<rect x="432.00" y="656.00" width="64.00" height="16.00" fill="#fcfdfe" />
<rect x="512.00" y="656.00" width="16.00" height="16.00" fill="#fcfdfe" />
<rect x="544.00" y="656.00" width="48.00" height="16.00" fill="#fcfdfe" />
<rect x="784.00" y="656.00" width="80.00" height="16.00" fill="#fcfdfe" />
<rect x="880.00" y="656.00" width="112.00" height="16.00" fill="#fcfdfe" />
<rect x="1200.00" y="688.00" width="112.00" height="176.00" fill="#fcfdfe" />
<rect x="432.00" y="752.00" width="64.00" height="112.00" fill="#fcfdfe" />
<rect x="512.00" y="752.00" width="16.00" height="112.00" fill="#fcfdfe" />
<rect x="544.00" y="752.00" width="16.00" height="112.00" fill="#fcfdfe" />
<rect x="1008.00" y="768.00" width="112.00" height="16.00" fill="#fcfdfe" />
<rect x="1136.00" y="768.00" width="48.00" height="16.00" fill="#fcfdfe" />
<rect x="640.00" y="864.00" width="48.00" height="80.00" fill="#fcfdfe" />
<rect x="176.00" y="880.00" width="16.00" height="176.00" fill="#fcfdfe" />
<rect x="208.00" y="880.00" width="32.00" height="176.00" fill="#fcfdfe" />
<rect x="512.00" y="896.00" width="16.00" height="16.00" fill="#fcfdfe" />
<rect x="544.00" y="896.00" width="80.00" height="16.00" fill="#fcfdfe" />
<rect x="688.00" y="896.00" width="176.00" height="16.00" fill="#fcfdfe" />
<rect x="880.00" y="896.00" width="112.00" height="16.00" fill="#fcfdfe" />
<rect x="1008.00" y="896.00" width="112.00" height="16.00" fill="#fcfdfe" />
<rect x="1136.00" y="896.00" width="48.00" height="128.00" fill="#fcfdfe" />
<rect x="1200.00" y="896.00" width="80.00" height="128.00" fill="#fcfdfe" />
<rect x="944.00" y="912.00" width="48.00" height="160.00" fill="#fcfdfe" />
<rect x="1008.00" y="912.00" width="48.00" height="160.00" fill="#fcfdfe" />
<rect x="1088.00" y="912.00" width="32.00" height="112.00" fill="#fcfdfe" />
<rect x="1344.00" y="912.00" width="16.00" height="64.00" fill="#fcfdfe" />
<rect x="1392.00" y="912.00" width="16.00" height="64.00" fill="#fcfdfe" />
<rect x="256.00" y="960.00" width="272.00" height="16.00" fill="#fcfdfe" />
<rect x="544.00" y="960.00" width="80.00" height="32.00" fill="#fcfdfe" />
<rect x="640.00" y="960.00" width="224.00" height="32.00" fill="#fcfdfe" />
<rect x="880.00" y="960.00" width="64.00" height="32.00" fill="#fcfdfe" />
<rect x="1056.00" y="960.00" width="32.00" height="16.00" fill="#fcfdfe" />
<rect x="560.00" y="992.00" width="64.00" height="96.00" fill="#fcfdfe" />
<rect x="640.00" y="992.00" width="64.00" height="96.00" fill="#fcfdfe" />
<rect x="1264.00" y="1072.00" width="64.00" height="144.00" fill="#fcfdfe" />
<rect x="256.00" y="1136.00" width="608.00" height="16.00" fill="#fcfdfe" />
<rect x="880.00" y="1136.00" width="112.00" height="16.00" fill="#fcfdfe" />
<rect x="1008.00" y="1136.00" width="256.00" height="16.00" fill="#fcfdfe" />
<rect x="1328.00" y="1136.00" width="32.00" height="16.00" fill="#fcfdfe" />
<rect x="592.00" y="1152.00" width="192.00" height="192.00" fill="#fcfdfe" />
<rect x="48.00" y="1184.00" width="80.00" height="96.00" fill="#fcfdfe" />
<rect x="128.00" y="1232.00" width="32.00" height="32.00" fill="#fcfdfe" />
<rect x="176.00" y="1232.00" width="64.00" height="32.00" fill="#fcfdfe" />
<rect x="256.00" y="1232.00" width="336.00" height="32.00" fill="#fcfdfe" />
<rect x="784.00" y="1232.00" width="80.00" height="32.00" fill="#fcfdfe" />
<rect x="880.00" y="1232.00" width="112.00" height="32.00" fill="#fcfdfe" />
<rect x="1008.00" y="1232.00" width="352.00" height="32.00" fill="#fcfdfe" />
<rect x="176.00" y="1328.00" width="64.00" height="176.00" fill="#fcfdfe" />
<rect x="256.00" y="1328.00" width="64.00" height="176.00" fill="#fcfdfe" />
<rect x="416.00" y="1392.00" width="128.00" height="64.00" fill="#fcfdfe" />
<rect x="544.00" y="1424.00" width="320.00" height="16.00" fill="#fcfdfe" />
<rect x="880.00" y="1424.00" width="112.00" height="16.00" fill="#fcfdfe" />
  </g>
  <g class="grid">
<line x1="0.00" y1="0" x2="0.00" y2="1536.00" />
<line x1="16.00" y1="0" x2="16.00" y2="1536.00" />
<line x1="32.00" y1="0" x2="32.00" y2="1536.00" />
<line x1="48.00" y1="0" x2="48.00" y2="1536.00" />
<line x1="64.00" y1="0" x2="64.00" y2="1536.00" />
<line x1="80.00" y1="0" x2="80.00" y2="1536.00" />
<line x1="96.00" y1="0" x2="96.00" y2="1536.00" />
<line x1="112.00" y1="0" x2="112.00" y2="1536.00" />
<line x1="128.00" y1="0" x2="128.00" y2="1536.00" />
<line x1="144.00" y1="0" x2="144.00" y2="1536.00" />
<line x1="160.00" y1="0" x2="160.00" y2="1536.00" />
<line x1="176.00" y1="0" x2="176.00" y2="1536.00" />
<line x1="192.00" y1="0" x2="192.00" y2="1536.00" />
<line x1="208.00" y1="0" x2="208.00" y2="1536.00" />
<line x1="224.00" y1="0" x2="224.00" y2="1536.00" />
<line x1="240.00" y1="0" x2="240.00" y2="1536.00" />
<line x1="256.00" y1="0" x2="256.00" y2="1536.00" />
<line x1="272.00" y1="0" x2="272.00" y2="1536.00" />
<line x1="288.00" y1="0" x2="288.00" y2="1536.00" />
<line x1="304.00" y1="0" x2="304.00" y2="1536.00" />
<line x1="320.00" y1="0" x2="320.00" y2="1536.00" />
<line x1="336.00" y1="0" x2="336.00" y2="1536.00" />
<line x1="352.00" y1="0" x2="352.00" y2="1536.00" />
<line x1="368.00" y1="0" x2="368.00" y2="1536.00" />
<line x1="384.00" y1="0" x2="384.00" y2="1536.00" />
<line x1="400.00" y1="0" x2="400.00" y2="1536.00" />
<line x1="416.00" y1="0" x2="416.00" y2="1536.00" />
<line x1="432.00" y1="0" x2="432.00" y2="1536.00" />
<line x1="448.00" y1="0" x2="448.00" y2="1536.00" />
<line x1="464.00" y1="0" x2="464.00" y2="1536.00" />
<line x1="480.00" y1="0" x2="480.00" y2="1536.00" />
<line x1="496.00" y1="0" x2="496.00" y2="1536.00" />
<line x1="512.00" y1="0" x2="512.00" y2="1536.00" />
<line x1="528.00" y1="0" x2="528.00" y2="1536.00" />
<line x1="544.00" y1="0" x2="544.00" y2="1536.00" />
<line x1="560.00" y1="0" x2="560.00" y2="1536.00" />
<line x1="576.00" y1="0" x2="576.00" y2="1536.00" />
<line x1="592.00" y1="0" x2="592.00" y2="1536.00" />
<line x1="608.00" y1="0" x2="608.00" y2="1536.00" />
<line x1="624.00" y1="0" x2="624.00" y2="1536.00" />
<line x1="640.00" y1="0" x2="640.00" y2="1536.00" />
<line x1="656.00" y1="0" x2="656.00" y2="1536.00" />
<line x1="672.00" y1="0" x2="672.00" y2="1536.00" />
<line x1="688.00" y1="0" x2="688.00" y2="1536.00" />
<line x1="704.00" y1="0" x2="704.00" y2="1536.00" />
<line x1="720.00" y1="0" x2="720.00" y2="1536.00" />
<line x1="736.00" y1="0" x2="736.00" y2="1536.00" />
<line x1="752.00" y1="0" x2="752.00" y2="1536.00" />
<line x1="768.00" y1="0" x2="768.00" y2="1536.00" />
<line x1="784.00" y1="0" x2="784.00" y2="1536.00" />
<line x1="800.00" y1="0" x2="800.00" y2="1536.00" />
<line x1="816.00" y1="0" x2="816.00" y2="1536.00" />
<line x1="832.00" y1="0" x2="832.00" y2="1536.00" />
<line x1="848.00" y1="0" x2="848.00" y2="1536.00" />
<line x1="864.00" y1="0" x2="864.00" y2="1536.00" />
<line x1="880.00" y1="0" x2="880.00" y2="1536.00" />
<line x1="896.00" y1="0" x2="896.00" y2="1536.00" />
<line x1="912.00" y1="0" x2="912.00" y2="1536.00" />
<line x1="928.00" y1="0" x2="928.00" y2="1536.00" />
<line x1="944.00" y1="0" x2="944.00" y2="1536.00" />
<line x1="960.00" y1="0" x2="960.00" y2="1536.00" />
<line x1="976.00" y1="0" x2="976.00" y2="1536.00" />
<line x1="992.00" y1="0" x2="992.00" y2="1536.00" />
<line x1="1008.00" y1="0" x2="1008.00" y2="1536.00" />
<line x1="1024.00" y1="0" x2="1024.00" y2="1536.00" />
<line x1="1040.00" y1="0" x2="1040.00" y2="1536.00" />
<line x1="1056.00" y1="0" x2="1056.00" y2="1536.00" />
<line x1="1072.00" y1="0" x2="1072.00" y2="1536.00" />
<line x1="1088.00" y1="0" x2="1088.00" y2="1536.00" />
<line x1="1104.00" y1="0" x2="1104.00" y2="1536.00" />
<line x1="1120.00" y1="0" x2="1120.00" y2="1536.00" />
<line x1="1136.00" y1="0" x2="1136.00" y2="1536.00" />
<line x1="1152.00" y1="0" x2="1152.00" y2="1536.00" />
<line x1="1168.00" y1="0" x2="1168.00" y2="1536.00" />
<line x1="1184.00" y1="0" x2="1184.00" y2="1536.00" />
<line x1="1200.00" y1="0" x2="1200.00" y2="1536.00" />
<line x1="1216.00" y1="0" x2="1216.00" y2="1536.00" />
<line x1="1232.00" y1="0" x2="1232.00" y2="1536.00" />
<line x1="1248.00" y1="0" x2="1248.00" y2="1536.00" />
<line x1="1264.00" y1="0" x2="1264.00" y2="1536.00" />
<line x1="1280.00" y1="0" x2="1280.00" y2="1536.00" />
<line x1="1296.00" y1="0" x2="1296.00" y2="1536.00" />
<line x1="1312.00" y1="0" x2="1312.00" y2="1536.00" />
<line x1="1328.00" y1="0" x2="1328.00" y2="1536.00" />
<line x1="1344.00" y1="0" x2="1344.00" y2="1536.00" />
<line x1="1360.00" y1="0" x2="1360.00" y2="1536.00" />
<line x1="1376.00" y1="0" x2="1376.00" y2="1536.00" />
<line x1="1392.00" y1="0" x2="1392.00" y2="1536.00" />
<line x1="1408.00" y1="0" x2="1408.00" y2="1536.00" />
<line x1="1424.00" y1="0" x2="1424.00" y2="1536.00" />
<line x1="1440.00" y1="0" x2="1440.00" y2="1536.00" />
<line x1="1456.00" y1="0" x2="1456.00" y2="1536.00" />
<line x1="1472.00" y1="0" x2="1472.00" y2="1536.00" />
<line x1="1488.00" y1="0" x2="1488.00" y2="1536.00" />
<line x1="1504.00" y1="0" x2="1504.00" y2="1536.00" />
<line x1="0" y1="0.00" x2="1504.00" y2="0.00" />
<line x1="0" y1="16.00" x2="1504.00" y2="16.00" />
<line x1="0" y1="32.00" x2="1504.00" y2="32.00" />
<line x1="0" y1="48.00" x2="1504.00" y2="48.00" />
<line x1="0" y1="64.00" x2="1504.00" y2="64.00" />
<line x1="0" y1="80.00" x2="1504.00" y2="80.00" />
<line x1="0" y1="96.00" x2="1504.00" y2="96.00" />
<line x1="0" y1="112.00" x2="1504.00" y2="112.00" />
<line x1="0" y1="128.00" x2="1504.00" y2="128.00" />
<line x1="0" y1="144.00" x2="1504.00" y2="144.00" />
<line x1="0" y1="160.00" x2="1504.00" y2="160.00" />
<line x1="0" y1="176.00" x2="1504.00" y2="176.00" />
<line x1="0" y1="192.00" x2="1504.00" y2="192.00" />
<line x1="0" y1="208.00" x2="1504.00" y2="208.00" />
<line x1="0" y1="224.00" x2="1504.00" y2="224.00" />
<line x1="0" y1="240.00" x2="1504.00" y2="240.00" />
<line x1="0" y1="256.00" x2="1504.00" y2="256.00" />
<line x1="0" y1="272.00" x2="1504.00" y2="272.00" />
<line x1="0" y1="288.00" x2="1504.00" y2="288.00" />
<line x1="0" y1="304.00" x2="1504.00" y2="304.00" />
<line x1="0" y1="320.00" x2="1504.00" y2="320.00" />
<line x1="0" y1="336.00" x2="1504.00" y2="336.00" />
<line x1="0" y1="352.00" x2="1504.00" y2="352.00" />
<line x1="0" y1="368.00" x2="1504.00" y2="368.00" />
<line x1="0" y1="384.00" x2="1504.00" y2="384.00" />
<line x1="0" y1="400.00" x2="1504.00" y2="400.00" />
<line x1="0" y1="416.00" x2="1504.00" y2="416.00" />
<line x1="0" y1="432.00" x2="1504.00" y2="432.00" />
<line x1="0" y1="448.00" x2="1504.00" y2="448.00" />
<line x1="0" y1="464.00" x2="1504.00" y2="464.00" />
<line x1="0" y1="480.00" x2="1504.00" y2="480.00" />
<line x1="0" y1="496.00" x2="1504.00" y2="496.00" />
<line x1="0" y1="512.00" x2="1504.00" y2="512.00" />
<line x1="0" y1="528.00" x2="1504.00" y2="528.00" />
<line x1="0" y1="544.00" x2="1504.00" y2="544.00" />
<line x1="0" y1="560.00" x2="1504.00" y2="560.00" />
<line x1="0" y1="576.00" x2="1504.00" y2="576.00" />
<line x1="0" y1="592.00" x2="1504.00" y2="592.00" />
<line x1="0" y1="608.00" x2="1504.00" y2="608.00" />
<line x1="0" y1="624.00" x2="1504.00" y2="624.00" />
<line x1="0" y1="640.00" x2="1504.00" y2="640.00" />
<line x1="0" y1="656.00" x2="1504.00" y2="656.00" />
<line x1="0" y1="672.00" x2="1504.00" y2="672.00" />
<line x1="0" y1="688.00" x2="1504.00" y2="688.00" />
<line x1="0" y1="704.00" x2="1504.00" y2="704.00" />
<line x1="0" y1="720.00" x2="1504.00" y2="720.00" />
<line x1="0" y1="736.00" x2="1504.00" y2="736.00" />
<line x1="0" y1="752.00" x2="1504.00" y2="752.00" />
<line x1="0" y1="768.00" x2="1504.00" y2="768.00" />
<line x1="0" y1="784.00" x2="1504.00" y2="784.00" />
<line x1="0" y1="800.00" x2="1504.00" y2="800.00" />
<line x1="0" y1="816.00" x2="1504.00" y2="816.00" />
<line x1="0" y1="832.00" x2="1504.00" y2="832.00" />
<line x1="0" y1="848.00" x2="1504.00" y2="848.00" />
<line x1="0" y1="864.00" x2="1504.00" y2="864.00" />
<line x1="0" y1="880.00" x2="1504.00" y2="880.00" />
<line x1="0" y1="896.00" x2="1504.00" y2="896.00" />
<line x1="0" y1="912.00" x2="1504.00" y2="912.00" />
<line x1="0" y1="928.00" x2="1504.00" y2="928.00" />
<line x1="0" y1="944.00" x2="1504.00" y2="944.00" />
<line x1="0" y1="960.00" x2="1504.00" y2="960.00" />
<line x1="0" y1="976.00" x2="1504.00" y2="976.00" />
<line x1="0" y1="992.00" x2="1504.00" y2="992.00" />
<line x1="0" y1="1008.00" x2="1504.00" y2="1008.00" />
<line x1="0" y1="1024.00" x2="1504.00" y2="1024.00" />
<line x1="0" y1="1040.00" x2="1504.00" y2="1040.00" />
<line x1="0" y1="1056.00" x2="1504.00" y2="1056.00" />
<line x1="0" y1="1072.00" x2="1504.00" y2="1072.00" />
<line x1="0" y1="1088.00" x2="1504.00" y2="1088.00" />
<line x1="0" y1="1104.00" x2="1504.00" y2="1104.00" />
<line x1="0" y1="1120.00" x2="1504.00" y2="1120.00" />
<line x1="0" y1="1136.00" x2="1504.00" y2="1136.00" />
<line x1="0" y1="1152.00" x2="1504.00" y2="1152.00" />
<line x1="0" y1="1168.00" x2="1504.00" y2="1168.00" />
<line x1="0" y1="1184.00" x2="1504.00" y2="1184.00" />
<line x1="0" y1="1200.00" x2="1504.00" y2="1200.00" />
<line x1="0" y1="1216.00" x2="1504.00" y2="1216.00" />
<line x1="0" y1="1232.00" x2="1504.00" y2="1232.00" />
<line x1="0" y1="1248.00" x2="1504.00" y2="1248.00" />
<line x1="0" y1="1264.00" x2="1504.00" y2="1264.00" />
<line x1="0" y1="1280.00" x2="1504.00" y2="1280.00" />
<line x1="0" y1="1296.00" x2="1504.00" y2="1296.00" />
<line x1="0" y1="1312.00" x2="1504.00" y2="1312.00" />
<line x1="0" y1="1328.00" x2="1504.00" y2="1328.00" />
<line x1="0" y1="1344.00" x2="1504.00" y2="1344.00" />
<line x1="0" y1="1360.00" x2="1504.00" y2="1360.00" />
<line x1="0" y1="1376.00" x2="1504.00" y2="1376.00" />
<line x1="0" y1="1392.00" x2="1504.00" y2="1392.00" />
<line x1="0" y1="1408.00" x2="1504.00" y2="1408.00" />
<line x1="0" y1="1424.00" x2="1504.00" y2="1424.00" />
<line x1="0" y1="1440.00" x2="1504.00" y2="1440.00" />
<line x1="0" y1="1456.00" x2="1504.00" y2="1456.00" />
<line x1="0" y1="1472.00" x2="1504.00" y2="1472.00" />
<line x1="0" y1="1488.00" x2="1504.00" y2="1488.00" />
<line x1="0" y1="1504.00" x2="1504.00" y2="1504.00" />
<line x1="0" y1="1520.00" x2="1504.00" y2="1520.00" />
<line x1="0" y1="1536.00" x2="1504.00" y2="1536.00" />
  </g>
  <g class="walls">
<line x1="1200.00" y1="32.00" x2="1360.00" y2="32.00" />
<line x1="1056.00" y1="48.00" x2="1184.00" y2="48.00" />
<line x1="784.00" y1="80.00" x2="944.00" y2="80.00" />
<line x1="496.00" y1="112.00" x2="784.00" y2="112.00" />
<line x1="944.00" y1="112.00" x2="1056.00" y2="112.00" />
<line x1="1184.00" y1="112.00" x2="1200.00" y2="112.00" />
<line x1="512.00" y1="128.00" x2="784.00" y2="128.00" />
<line x1="944.00" y1="128.00" x2="1120.00" y2="128.00" />
<line x1="1136.00" y1="128.00" x2="1200.00" y2="128.00" />
<line x1="192.00" y1="144.00" x2="496.00" y2="144.00" />
<line x1="512.00" y1="144.00" x2="784.00" y2="144.00" />
<line x1="944.00" y1="144.00" x2="1120.00" y2="144.00" />
<line x1="1136.00" y1="144.00" x2="1200.00" y2="144.00" />
<line x1="1360.00" y1="144.00" x2="1376.00" y2="144.00" />
<line x1="64.00" y1="160.00" x2="128.00" y2="160.00" />
<line x1="208.00" y1="160.00" x2="304.00" y2="160.00" />
<line x1="320.00" y1="160.00" x2="496.00" y2="160.00" />
<line x1="512.00" y1="160.00" x2="624.00" y2="160.00" />
<line x1="640.00" y1="160.00" x2="784.00" y2="160.00" />
<line x1="944.00" y1="160.00" x2="1120.00" y2="160.00" />
<line x1="1136.00" y1="160.00" x2="1200.00" y2="160.00" />
<line x1="1200.00" y1="192.00" x2="1280.00" y2="192.00" />
<line x1="1296.00" y1="192.00" x2="1360.00" y2="192.00" />
<line x1="128.00" y1="224.00" x2="192.00" y2="224.00" />
<line x1="208.00" y1="224.00" x2="304.00" y2="224.00" />
<line x1="320.00" y1="224.00" x2="496.00" y2="224.00" />
<line x1="512.00" y1="224.00" x2="624.00" y2="224.00" />
<line x1="640.00" y1="224.00" x2="784.00" y2="224.00" />
<line x1="944.00" y1="224.00" x2="1120.00" y2="224.00" />
<line x1="1136.00" y1="224.00" x2="1280.00" y2="224.00" />
<line x1="128.00" y1="240.00" x2="192.00" y2="240.00" />
<line x1="208.00" y1="240.00" x2="304.00" y2="240.00" />
<line x1="320.00" y1="240.00" x2="496.00" y2="240.00" />
<line x1="512.00" y1="240.00" x2="624.00" y2="240.00" />
<line x1="640.00" y1="240.00" x2="704.00" y2="240.00" />
<line x1="896.00" y1="240.00" x2="1120.00" y2="240.00" />
<line x1="1136.00" y1="240.00" x2="1296.00" y2="240.00" />
<line x1="1280.00" y1="256.00" x2="1360.00" y2="256.00" />
<line x1="1376.00" y1="256.00" x2="1456.00" y2="256.00" />
<line x1="128.00" y1="272.00" x2="192.00" y2="272.00" />
<line x1="208.00" y1="272.00" x2="304.00" y2="272.00" />
<line x1="320.00" y1="272.00" x2="496.00" y2="272.00" />
<line x1="512.00" y1="272.00" x2="624.00" y2="272.00" />
<line x1="640.00" y1="272.00" x2="704.00" y2="272.00" />
<line x1="896.00" y1="272.00" x2="1120.00" y2="272.00" />
<line x1="1136.00" y1="272.00" x2="1280.00" y2="272.00" />
<line x1="128.00" y1="288.00" x2="192.00" y2="288.00" />
<line x1="208.00" y1="288.00" x2="304.00" y2="288.00" />
<line x1="320.00" y1="288.00" x2="496.00" y2="288.00" />
<line x1="512.00" y1="288.00" x2="624.00" y2="288.00" />
<line x1="640.00" y1="288.00" x2="704.00" y2="288.00" />
<line x1="896.00" y1="288.00" x2="992.00" y2="288.00" />
<line x1="1008.00" y1="288.00" x2="1120.00" y2="288.00" />
<line x1="1136.00" y1="288.00" x2="1280.00" y2="288.00" />
<line x1="64.00" y1="304.00" x2="128.00" y2="304.00" />
<line x1="896.00" y1="304.00" x2="992.00" y2="304.00" />
<line x1="1008.00" y1="304.00" x2="1120.00" y2="304.00" />
<line x1="1280.00" y1="304.00" x2="1360.00" y2="304.00" />
<line x1="1392.00" y1="304.00" x2="1456.00" y2="304.00" />
<line x1="896.00" y1="320.00" x2="992.00" y2="320.00" />
<line x1="1008.00" y1="320.00" x2="1120.00" y2="320.00" />
<line x1="704.00" y1="384.00" x2="864.00" y2="384.00" />
<line x1="880.00" y1="384.00" x2="896.00" y2="384.00" />
<line x1="336.00" y1="400.00" x2="496.00" y2="400.00" />
<line x1="240.00" y1="416.00" x2="304.00" y2="416.00" />
<line x1="320.00" y1="416.00" x2="336.00" y2="416.00" />
<line x1="512.00" y1="416.00" x2="624.00" y2="416.00" />
<line x1="640.00" y1="416.00" x2="864.00" y2="416.00" />
<line x1="944.00" y1="416.00" x2="992.00" y2="416.00" />
<line x1="1008.00" y1="416.00" x2="1056.00" y2="416.00" />
<line x1="256.00" y1="432.00" x2="304.00" y2="432.00" />
<line x1="320.00" y1="432.00" x2="336.00" y2="432.00" />
<line x1="512.00" y1="432.00" x2="624.00" y2="432.00" />
<line x1="640.00" y1="432.00" x2="848.00" y2="432.00" />
<line x1="880.00" y1="432.00" x2="896.00" y2="432.00" />
<line x1="80.00" y1="448.00" x2="192.00" y2="448.00" />
<line x1="208.00" y1="448.00" x2="240.00" y2="448.00" />
<line x1="336.00" y1="448.00" x2="416.00" y2="448.00" />
<line x1="432.00" y1="448.00" x2="496.00" y2="448.00" />
<line x1="256.00" y1="496.00" x2="304.00" y2="496.00" />
<line x1="320.00" y1="496.00" x2="416.00" y2="496.00" />
<line x1="432.00" y1="496.00" x2="496.00" y2="496.00" />
<line x1="512.00" y1="496.00" x2="624.00" y2="496.00" />
<line x1="640.00" y1="496.00" x2="848.00" y2="496.00" />
<line x1="896.00" y1="496.00" x2="944.00" y2="496.00" />
<line x1="1056.00" y1="496.00" x2="1120.00" y2="496.00" />
<line x1="1136.00" y1="496.00" x2="1200.00" y2="496.00" />
<line x1="256.00" y1="512.00" x2="304.00" y2="512.00" />
<line x1="320.00" y1="512.00" x2="416.00" y2="512.00" />
<line x1="432.00" y1="512.00" x2="496.00" y2="512.00" />
<line x1="560.00" y1="512.00" x2="624.00" y2="512.00" />
<line x1="640.00" y1="512.00" x2="848.00" y2="512.00" />
<line x1="896.00" y1="512.00" x2="944.00" y2="512.00" />
<line x1="1056.00" y1="512.00" x2="1120.00" y2="512.00" />
<line x1="1136.00" y1="512.00" x2="1184.00" y2="512.00" />
<line x1="560.00" y1="528.00" x2="624.00" y2="528.00" />
<line x1="640.00" y1="528.00" x2="848.00" y2="528.00" />
<line x1="560.00" y1="544.00" x2="592.00" y2="544.00" />
<line x1="784.00" y1="544.00" x2="864.00" y2="544.00" />
<line x1="880.00" y1="544.00" x2="896.00" y2="544.00" />
<line x1="80.00" y1="560.00" x2="160.00" y2="560.00" />
<line x1="176.00" y1="560.00" x2="192.00" y2="560.00" />
<line x1="208.00" y1="560.00" x2="240.00" y2="560.00" />
<line x1="512.00" y1="560.00" x2="528.00" y2="560.00" />
<line x1="544.00" y1="560.00" x2="560.00" y2="560.00" />
<line x1="944.00" y1="576.00" x2="992.00" y2="576.00" />
<line x1="1008.00" y1="576.00" x2="1056.00" y2="576.00" />
<line x1="256.00" y1="624.00" x2="304.00" y2="624.00" />
<line x1="320.00" y1="624.00" x2="368.00" y2="624.00" />
<line x1="784.00" y1="624.00" x2="864.00" y2="624.00" />
<line x1="880.00" y1="624.00" x2="992.00" y2="624.00" />
<line x1="1008.00" y1="624.00" x2="1120.00" y2="624.00" />
<line x1="1136.00" y1="624.00" x2="1184.00" y2="624.00" />
<line x1="1200.00" y1="624.00" x2="1360.00" y2="624.00" />
<line x1="784.00" y1="640.00" x2="864.00" y2="640.00" />
<line x1="880.00" y1="640.00" x2="992.00" y2="640.00" />
<line x1="1008.00" y1="640.00" x2="1120.00" y2="640.00" />
<line x1="1136.00" y1="640.00" x2="1184.00" y2="640.00" />
<line x1="1200.00" y1="640.00" x2="1360.00" y2="640.00" />
<line x1="368.00" y1="656.00" x2="416.00" y2="656.00" />
<line x1="432.00" y1="656.00" x2="496.00" y2="656.00" />
<line x1="512.00" y1="656.00" x2="528.00" y2="656.00" />
<line x1="544.00" y1="656.00" x2="592.00" y2="656.00" />
<line x1="784.00" y1="656.00" x2="864.00" y2="656.00" />
<line x1="880.00" y1="656.00" x2="992.00" y2="656.00" />
<line x1="368.00" y1="672.00" x2="416.00" y2="672.00" />
<line x1="432.00" y1="672.00" x2="496.00" y2="672.00" />
<line x1="512.00" y1="672.00" x2="528.00" y2="672.00" />
<line x1="544.00" y1="672.00" x2="592.00" y2="672.00" />
<line x1="784.00" y1="672.00" x2="864.00" y2="672.00" />
<line x1="880.00" y1="672.00" x2="992.00" y2="672.00" />
<line x1="256.00" y1="704.00" x2="368.00" y2="704.00" />
<line x1="592.00" y1="704.00" x2="624.00" y2="704.00" />
<line x1="640.00" y1="704.00" x2="784.00" y2="704.00" />
<line x1="1200.00" y1="688.00" x2="1312.00" y2="688.00" />
<line x1="432.00" y1="752.00" x2="496.00" y2="752.00" />
<line x1="512.00" y1="752.00" x2="528.00" y2="752.00" />
<line x1="544.00" y1="752.00" x2="560.00" y2="752.00" />
<line x1="1008.00" y1="768.00" x2="1120.00" y2="768.00" />
<line x1="1136.00" y1="768.00" x2="1184.00" y2="768.00" />
<line x1="1008.00" y1="784.00" x2="1120.00" y2="784.00" />
<line x1="1136.00" y1="784.00" x2="1184.00" y2="784.00" />
<line x1="416.00" y1="816.00" x2="432.00" y2="816.00" />
<line x1="432.00" y1="864.00" x2="496.00" y2="864.00" />
<line x1="512.00" y1="864.00" x2="528.00" y2="864.00" />
<line x1="544.00" y1="864.00" x2="560.00" y2="864.00" />
<line x1="640.00" y1="864.00" x2="688.00" y2="864.00" />
<line x1="1200.00" y1="864.00" x2="1312.00" y2="864.00" />
<line x1="176.00" y1="880.00" x2="192.00" y2="880.00" />
<line x1="208.00" y1="880.00" x2="240.00" y2="880.00" />
<line x1="496.00" y1="912.00" x2="528.00" y2="912.00" />
<line x1="544.00" y1="912.00" x2="624.00" y2="912.00" />
<line x1="688.00" y1="912.00" x2="864.00" y2="912.00" />
<line x1="880.00" y1="912.00" x2="944.00" y2="912.00" />
<line x1="1056.00" y1="912.00" x2="1088.00" y2="912.00" />
<line x1="1344.00" y1="912.00" x2="1360.00" y2="912.00" />
<line x1="1392.00" y1="912.00" x2="1408.00" y2="912.00" />
<line x1="512.00" y1="896.00" x2="528.00" y2="896.00" />
<line x1="544.00" y1="896.00" x2="624.00" y2="896.00" />
<line x1="688.00" y1="896.00" x2="864.00" y2="896.00" />
<line x1="880.00" y1="896.00" x2="992.00" y2="896.00" />
<line x1="1008.00" y1="896.00" x2="1120.00" y2="896.00" />
<line x1="1136.00" y1="896.00" x2="1184.00" y2="896.00" />
<line x1="1200.00" y1="896.00" x2="1280.00" y2="896.00" />
<line x1="640.00" y1="944.00" x2="688.00" y2="944.00" />
<line x1="256.00" y1="960.00" x2="528.00" y2="960.00" />
<line x1="544.00" y1="960.00" x2="624.00" y2="960.00" />
<line x1="640.00" y1="960.00" x2="864.00" y2="960.00" />
<line x1="880.00" y1="960.00" x2="944.00" y2="960.00" />
<line x1="1056.00" y1="960.00" x2="1088.00" y2="960.00" />
<line x1="256.00" y1="976.00" x2="528.00" y2="976.00" />
<line x1="1056.00" y1="976.00" x2="1088.00" y2="976.00" />
<line x1="1344.00" y1="976.00" x2="1360.00" y2="976.00" />
<line x1="1392.00" y1="976.00" x2="1408.00" y2="976.00" />
<line x1="528.00" y1="992.00" x2="560.00" y2="992.00" />
<line x1="704.00" y1="992.00" x2="864.00" y2="992.00" />
<line x1="880.00" y1="992.00" x2="944.00" y2="992.00" />
<line x1="1088.00" y1="1024.00" x2="1280.00" y2="1024.00" />
<line x1="176.00" y1="1056.00" x2="240.00" y2="1056.00" />
<line x1="944.00" y1="1072.00" x2="992.00" y2="1072.00" />
<line x1="1008.00" y1="1072.00" x2="1056.00" y2="1072.00" />
<line x1="1264.00" y1="1072.00" x2="1328.00" y2="1072.00" />
<line x1="560.00" y1="1088.00" x2="704.00" y2="1088.00" />
<line x1="256.00" y1="1136.00" x2="864.00" y2="1136.00" />
<line x1="880.00" y1="1136.00" x2="992.00" y2="1136.00" />
<line x1="1008.00" y1="1136.00" x2="1264.00" y2="1136.00" />
<line x1="1328.00" y1="1136.00" x2="1360.00" y2="1136.00" />
<line x1="256.00" y1="1152.00" x2="592.00" y2="1152.00" />
<line x1="784.00" y1="1152.00" x2="864.00" y2="1152.00" />
<line x1="880.00" y1="1152.00" x2="992.00" y2="1152.00" />
<line x1="1008.00" y1="1152.00" x2="1264.00" y2="1152.00" />
<line x1="1328.00" y1="1152.00" x2="1360.00" y2="1152.00" />
<line x1="48.00" y1="1184.00" x2="128.00" y2="1184.00" />
<line x1="1264.00" y1="1216.00" x2="1328.00" y2="1216.00" />
<line x1="128.00" y1="1232.00" x2="160.00" y2="1232.00" />
<line x1="176.00" y1="1232.00" x2="240.00" y2="1232.00" />
<line x1="256.00" y1="1232.00" x2="592.00" y2="1232.00" />
<line x1="784.00" y1="1232.00" x2="864.00" y2="1232.00" />
<line x1="880.00" y1="1232.00" x2="992.00" y2="1232.00" />
<line x1="1008.00" y1="1232.00" x2="1360.00" y2="1232.00" />
<line x1="128.00" y1="1264.00" x2="240.00" y2="1264.00" />
<line x1="256.00" y1="1264.00" x2="592.00" y2="1264.00" />
<line x1="784.00" y1="1264.00" x2="864.00" y2="1264.00" />
<line x1="880.00" y1="1264.00" x2="992.00" y2="1264.00" />
<line x1="1008.00" y1="1264.00" x2="1392.00" y2="1264.00" />
<line x1="48.00" y1="1280.00" x2="128.00" y2="1280.00" />
<line x1="176.00" y1="1328.00" x2="240.00" y2="1328.00" />
<line x1="256.00" y1="1328.00" x2="320.00" y2="1328.00" />
<line x1="592.00" y1="1344.00" x2="784.00" y2="1344.00" />
<line x1="416.00" y1="1392.00" x2="544.00" y2="1392.00" />
<line x1="544.00" y1="1424.00" x2="864.00" y2="1424.00" />
<line x1="880.00" y1="1424.00" x2="992.00" y2="1424.00" />
<line x1="544.00" y1="1440.00" x2="1008.00" y2="1440.00" />
<line x1="416.00" y1="1456.00" x2="544.00" y2="1456.00" />
<line x1="176.00" y1="1504.00" x2="320.00" y2="1504.00" />
<line x1="1200.00" y1="32.00" x2="1200.00" y2="112.00" />
<line x1="1200.00" y1="128.00" x2="1200.00" y2="144.00" />
<line x1="1200.00" y1="160.00" x2="1200.00" y2="192.00" />
<line x1="1200.00" y1="496.00" x2="1200.00" y2="624.00" />
<line x1="1200.00" y1="640.00" x2="1200.00" y2="688.00" />
<line x1="1200.00" y1="864.00" x2="1200.00" y2="896.00" />
<line x1="1360.00" y1="32.00" x2="1360.00" y2="144.00" />
<line x1="1360.00" y1="192.00" x2="1360.00" y2="256.00" />
<line x1="1360.00" y1="304.00" x2="1360.00" y2="624.00" />
<line x1="1360.00" y1="640.00" x2="1360.00" y2="912.00" />
<line x1="1360.00" y1="976.00" x2="1360.00" y2="1136.00" />
<line x1="1360.00" y1="1152.00" x2="1360.00" y2="1232.00" />
<line x1="1056.00" y1="48.00" x2="1056.00" y2="112.00" />
<line x1="1056.00" y1="416.00" x2="1056.00" y2="496.00" />
<line x1="1056.00" y1="512.00" x2="1056.00" y2="576.00" />
<line x1="1056.00" y1="912.00" x2="1056.00" y2="960.00" />
<line x1="1056.00" y1="976.00" x2="1056.00" y2="1072.00" />
<line x1="1184.00" y1="48.00" x2="1184.00" y2="112.00" />
<line x1="1184.00" y1="512.00" x2="1184.00" y2="624.00" />
<line x1="1184.00" y1="640.00" x2="1184.00" y2="768.00" />
<line x1="1184.00" y1="784.00" x2="1184.00" y2="896.00" />
<line x1="784.00" y1="80.00" x2="784.00" y2="112.00" />
<line x1="784.00" y1="128.00" x2="784.00" y2="144.00" />
<line x1="784.00" y1="160.00" x2="784.00" y2="224.00" />
<line x1="784.00" y1="544.00" x2="784.00" y2="624.00" />
<line x1="784.00" y1="640.00" x2="784.00" y2="656.00" />
<line x1="784.00" y1="672.00" x2="784.00" y2="704.00" />
<line x1="784.00" y1="1152.00" x2="784.00" y2="1232.00" />
<line x1="784.00" y1="1264.00" x2="784.00" y2="1344.00" />
<line x1="944.00" y1="80.00" x2="944.00" y2="112.00" />
<line x1="944.00" y1="128.00" x2="944.00" y2="144.00" />
<line x1="944.00" y1="160.00" x2="944.00" y2="224.00" />
<line x1="944.00" y1="416.00" x2="944.00" y2="496.00" />
<line x1="944.00" y1="512.00" x2="944.00" y2="576.00" />
<line x1="944.00" y1="912.00" x2="944.00" y2="960.00" />
<line x1="944.00" y1="992.00" x2="944.00" y2="1072.00" />
<line x1="496.00" y1="112.00" x2="496.00" y2="144.00" />
<line x1="496.00" y1="160.00" x2="496.00" y2="224.00" />
<line x1="496.00" y1="240.00" x2="496.00" y2="272.00" />
<line x1="496.00" y1="288.00" x2="496.00" y2="400.00" />
<line x1="496.00" y1="448.00" x2="496.00" y2="496.00" />
<line x1="496.00" y1="512.00" x2="496.00" y2="656.00" />
<line x1="496.00" y1="672.00" x2="496.00" y2="752.00" />
<line x1="496.00" y1="864.00" x2="496.00" y2="912.00" />
<line x1="512.00" y1="128.00" x2="512.00" y2="144.00" />
<line x1="512.00" y1="160.00" x2="512.00" y2="224.00" />
<line x1="512.00" y1="240.00" x2="512.00" y2="272.00" />
<line x1="512.00" y1="288.00" x2="512.00" y2="416.00" />
<line x1="512.00" y1="432.00" x2="512.00" y2="496.00" />
<line x1="512.00" y1="560.00" x2="512.00" y2="656.00" />
<line x1="512.00" y1="672.00" x2="512.00" y2="752.00" />
<line x1="512.00" y1="864.00" x2="512.00" y2="896.00" />
<line x1="1120.00" y1="128.00" x2="1120.00" y2="144.00" />
<line x1="1120.00" y1="160.00" x2="1120.00" y2="224.00" />
<line x1="1120.00" y1="240.00" x2="1120.00" y2="272.00" />
<line x1="1120.00" y1="288.00" x2="1120.00" y2="304.00" />
<line x1="1120.00" y1="320.00" x2="1120.00" y2="496.00" />
<line x1="1120.00" y1="512.00" x2="1120.00" y2="624.00" />
<line x1="1120.00" y1="640.00" x2="1120.00" y2="768.00" />
<line x1="1120.00" y1="784.00" x2="1120.00" y2="896.00" />
<line x1="1136.00" y1="128.00" x2="1136.00" y2="144.00" />
<line x1="1136.00" y1="160.00" x2="1136.00" y2="224.00" />
<line x1="1136.00" y1="240.00" x2="1136.00" y2="272.00" />
<line x1="1136.00" y1="288.00" x2="1136.00" y2="496.00" />
<line x1="1136.00" y1="512.00" x2="1136.00" y2="624.00" />
<line x1="1136.00" y1="640.00" x2="1136.00" y2="768.00" />
<line x1="1136.00" y1="784.00" x2="1136.00" y2="896.00" />
<line x1="192.00" y1="144.00" x2="192.00" y2="224.00" />
<line x1="192.00" y1="240.00" x2="192.00" y2="272.00" />
<line x1="192.00" y1="288.00" x2="192.00" y2="448.00" />
<line x1="192.00" y1="560.00" x2="192.00" y2="880.00" />
<line x1="1376.00" y1="144.00" x2="1376.00" y2="256.00" />
<line x1="64.00" y1="160.00" x2="64.00" y2="304.00" />
<line x1="128.00" y1="160.00" x2="128.00" y2="224.00" />
<line x1="128.00" y1="240.00" x2="128.00" y2="272.00" />
<line x1="128.00" y1="288.00" x2="128.00" y2="304.00" />
<line x1="128.00" y1="1184.00" x2="128.00" y2="1232.00" />
<line x1="128.00" y1="1264.00" x2="128.00" y2="1280.00" />
<line x1="208.00" y1="160.00" x2="208.00" y2="224.00" />
<line x1="208.00" y1="240.00" x2="208.00" y2="272.00" />
<line x1="208.00" y1="288.00" x2="208.00" y2="448.00" />
<line x1="208.00" y1="560.00" x2="208.00" y2="880.00" />
<line x1="304.00" y1="160.00" x2="304.00" y2="224.00" />
<line x1="304.00" y1="240.00" x2="304.00" y2="272.00" />
<line x1="304.00" y1="288.00" x2="304.00" y2="416.00" />
<line x1="304.00" y1="432.00" x2="304.00" y2="496.00" />
<line x1="304.00" y1="512.00" x2="304.00" y2="624.00" />
<line x1="320.00" y1="160.00" x2="320.00" y2="224.00" />
<line x1="320.00" y1="240.00" x2="320.00" y2="272.00" />
<line x1="320.00" y1="288.00" x2="320.00" y2="416.00" />
<line x1="320.00" y1="432.00" x2="320.00" y2="496.00" />
<line x1="320.00" y1="512.00" x2="320.00" y2="624.00" />
<line x1="320.00" y1="1328.00" x2="320.00" y2="1504.00" />
<line x1="624.00" y1="160.00" x2="624.00" y2="224.00" />
<line x1="624.00" y1="240.00" x2="624.00" y2="272.00" />
<line x1="624.00" y1="288.00" x2="624.00" y2="416.00" />
<line x1="624.00" y1="432.00" x2="624.00" y2="496.00" />
<line x1="624.00" y1="512.00" x2="624.00" y2="528.00" />
<line x1="624.00" y1="704.00" x2="624.00" y2="896.00" />
<line x1="624.00" y1="912.00" x2="624.00" y2="960.00" />
<line x1="640.00" y1="160.00" x2="640.00" y2="224.00" />
<line x1="640.00" y1="240.00" x2="640.00" y2="272.00" />
<line x1="640.00" y1="288.00" x2="640.00" y2="416.00" />
<line x1="640.00" y1="432.00" x2="640.00" y2="496.00" />
<line x1="640.00" y1="512.00" x2="640.00" y2="528.00" />
<line x1="640.00" y1="704.00" x2="640.00" y2="864.00" />
<line x1="640.00" y1="944.00" x2="640.00" y2="960.00" />
<line x1="1280.00" y1="192.00" x2="1280.00" y2="224.00" />
<line x1="1280.00" y1="256.00" x2="1280.00" y2="272.00" />
<line x1="1280.00" y1="288.00" x2="1280.00" y2="304.00" />
<line x1="1280.00" y1="896.00" x2="1280.00" y2="1024.00" />
<line x1="1296.00" y1="192.00" x2="1296.00" y2="240.00" />
<line x1="704.00" y1="240.00" x2="704.00" y2="272.00" />
<line x1="704.00" y1="288.00" x2="704.00" y2="384.00" />
<line x1="704.00" y1="992.00" x2="704.00" y2="1088.00" />
<line x1="896.00" y1="240.00" x2="896.00" y2="272.00" />
<line x1="896.00" y1="288.00" x2="896.00" y2="304.00" />
<line x1="896.00" y1="320.00" x2="896.00" y2="384.00" />
<line x1="896.00" y1="432.00" x2="896.00" y2="496.00" />
<line x1="896.00" y1="512.00" x2="896.00" y2="544.00" />
<line x1="1456.00" y1="256.00" x2="1456.00" y2="304.00" />
<line x1="992.00" y1="288.00" x2="992.00" y2="304.00" />
<line x1="992.00" y1="320.00" x2="992.00" y2="416.00" />
<line x1="992.00" y1="576.00" x2="992.00" y2="624.00" />
<line x1="992.00" y1="640.00" x2="992.00" y2="656.00" />
<line x1="992.00" y1="672.00" x2="992.00" y2="896.00" />
<line x1="992.00" y1="1072.00" x2="992.00" y2="1136.00" />
<line x1="992.00" y1="1152.00" x2="992.00" y2="1232.00" />
<line x1="992.00" y1="1264.00" x2="992.00" y2="1424.00" />
<line x1="1008.00" y1="288.00" x2="1008.00" y2="304.00" />
<line x1="1008.00" y1="320.00" x2="1008.00" y2="416.00" />
<line x1="1008.00" y1="576.00" x2="1008.00" y2="624.00" />
<line x1="1008.00" y1="640.00" x2="1008.00" y2="768.00" />
<line x1="1008.00" y1="784.00" x2="1008.00" y2="896.00" />
<line x1="1008.00" y1="1072.00" x2="1008.00" y2="1136.00" />
<line x1="1008.00" y1="1152.00" x2="1008.00" y2="1232.00" />
<line x1="1008.00" y1="1264.00" x2="1008.00" y2="1440.00" />
<line x1="1392.00" y1="304.00" x2="1392.00" y2="912.00" />
<line x1="1392.00" y1="976.00" x2="1392.00" y2="1264.00" />
<line x1="864.00" y1="384.00" x2="864.00" y2="416.00" />
<line x1="864.00" y1="544.00" x2="864.00" y2="624.00" />
<line x1="864.00" y1="640.00" x2="864.00" y2="656.00" />
<line x1="864.00" y1="672.00" x2="864.00" y2="896.00" />
<line x1="864.00" y1="912.00" x2="864.00" y2="960.00" />
<line x1="864.00" y1="992.00" x2="864.00" y2="1136.00" />
<line x1="864.00" y1="1152.00" x2="864.00" y2="1232.00" />
<line x1="864.00" y1="1264.00" x2="864.00" y2="1424.00" />
<line x1="880.00" y1="384.00" x2="880.00" y2="432.00" />
<line x1="880.00" y1="544.00" x2="880.00" y2="624.00" />
<line x1="880.00" y1="640.00" x2="880.00" y2="656.00" />
<line x1="880.00" y1="672.00" x2="880.00" y2="896.00" />
<line x1="880.00" y1="912.00" x2="880.00" y2="960.00" />
<line x1="880.00" y1="992.00" x2="880.00" y2="1136.00" />
<line x1="880.00" y1="1152.00" x2="880.00" y2="1232.00" />
<line x1="880.00" y1="1264.00" x2="880.00" y2="1424.00" />
<line x1="336.00" y1="400.00" x2="336.00" y2="416.00" />
<line x1="336.00" y1="432.00" x2="336.00" y2="448.00" />
<line x1="240.00" y1="416.00" x2="240.00" y2="448.00" />
<line x1="240.00" y1="560.00" x2="240.00" y2="880.00" />
<line x1="240.00" y1="1056.00" x2="240.00" y2="1232.00" />
<line x1="240.00" y1="1264.00" x2="240.00" y2="1328.00" />
<line x1="256.00" y1="432.00" x2="256.00" y2="496.00" />
<line x1="256.00" y1="512.00" x2="256.00" y2="624.00" />
<line x1="256.00" y1="704.00" x2="256.00" y2="960.00" />
<line x1="256.00" y1="976.00" x2="256.00" y2="1136.00" />
<line x1="256.00" y1="1152.00" x2="256.00" y2="1232.00" />
<line x1="256.00" y1="1264.00" x2="256.00" y2="1328.00" />
<line x1="848.00" y1="432.00" x2="848.00" y2="496.00" />
<line x1="848.00" y1="512.00" x2="848.00" y2="528.00" />
<line x1="80.00" y1="448.00" x2="80.00" y2="560.00" />
<line x1="416.00" y1="448.00" x2="416.00" y2="496.00" />
<line x1="416.00" y1="512.00" x2="416.00" y2="656.00" />
<line x1="416.00" y1="672.00" x2="416.00" y2="816.00" />
<line x1="416.00" y1="1392.00" x2="416.00" y2="1456.00" />
<line x1="432.00" y1="448.00" x2="432.00" y2="496.00" />
<line x1="432.00" y1="512.00" x2="432.00" y2="656.00" />
<line x1="432.00" y1="672.00" x2="432.00" y2="752.00" />
<line x1="432.00" y1="816.00" x2="432.00" y2="864.00" />
<line x1="560.00" y1="512.00" x2="560.00" y2="528.00" />
<line x1="560.00" y1="544.00" x2="560.00" y2="560.00" />
<line x1="560.00" y1="752.00" x2="560.00" y2="864.00" />
<line x1="560.00" y1="992.00" x2="560.00" y2="1088.00" />
<line x1="592.00" y1="544.00" x2="592.00" y2="656.00" />
<line x1="592.00" y1="672.00" x2="592.00" y2="704.00" />
<line x1="592.00" y1="1152.00" x2="592.00" y2="1232.00" />
<line x1="592.00" y1="1264.00" x2="592.00" y2="1344.00" />
<line x1="160.00" y1="560.00" x2="160.00" y2="1232.00" />
<line x1="176.00" y1="560.00" x2="176.00" y2="880.00" />
<line x1="176.00" y1="1056.00" x2="176.00" y2="1232.00" />
<line x1="176.00" y1="1328.00" x2="176.00" y2="1504.00" />
<line x1="528.00" y1="560.00" x2="528.00" y2="656.00" />
<line x1="528.00" y1="672.00" x2="528.00" y2="752.00" />
<line x1="528.00" y1="864.00" x2="528.00" y2="896.00" />
<line x1="528.00" y1="912.00" x2="528.00" y2="960.00" />
<line x1="528.00" y1="976.00" x2="528.00" y2="992.00" />
<line x1="544.00" y1="560.00" x2="544.00" y2="656.00" />
<line x1="544.00" y1="672.00" x2="544.00" y2="752.00" />
<line x1="544.00" y1="864.00" x2="544.00" y2="896.00" />
<line x1="544.00" y1="912.00" x2="544.00" y2="960.00" />
<line x1="544.00" y1="1392.00" x2="544.00" y2="1424.00" />
<line x1="544.00" y1="1440.00" x2="544.00" y2="1456.00" />
<line x1="368.00" y1="624.00" x2="368.00" y2="656.00" />
<line x1="368.00" y1="672.00" x2="368.00" y2="704.00" />
<line x1="1312.00" y1="688.00" x2="1312.00" y2="864.00" />
<line x1="688.00" y1="864.00" x2="688.00" y2="896.00" />
<line x1="688.00" y1="912.00" x2="688.00" y2="944.00" />
<line x1="1088.00" y1="912.00" x2="1088.00" y2="960.00" />
<line x1="1088.00" y1="976.00" x2="1088.00" y2="1024.00" />
<line x1="1344.00" y1="912.00" x2="1344.00" y2="976.00" />
<line x1="1408.00" y1="912.00" x2="1408.00" y2="976.00" />
<line x1="1264.00" y1="1072.00" x2="1264.00" y2="1136.00" />
<line x1="1264.00" y1="1152.00" x2="1264.00" y2="1216.00" />
<line x1="1328.00" y1="1072.00" x2="1328.00" y2="1136.00" />
<line x1="1328.00" y1="1152.00" x2="1328.00" y2="1216.00" />
<line x1="48.00" y1="1184.00" x2="48.00" y2="1280.00" />
  </g>
  <g class="features">
<line data-feature-type="stairsDown" x1="691.60" y1="1252.96" x2="700.40" y2="1252.96" /><line x1="692.72" y1="1255.58" x2="699.28" y2="1255.58" /><line x1="693.84" y1="1259.04" x2="698.16" y2="1259.04" />
<line data-feature-type="stairsUp" x1="693.84" y1="628.96" x2="698.16" y2="628.96" /><line x1="692.72" y1="631.58" x2="699.28" y2="631.58" /><line x1="691.60" y1="635.04" x2="700.40" y2="635.04" />
<circle data-feature-type="pillar" cx="104.00" cy="232.00" r="3.52" />
<circle data-feature-type="pillar" cx="712.00" cy="1256.00" r="3.52" />
<circle data-feature-type="pillar" cx="712.00" cy="632.00" r="3.52" />
<circle data-feature-type="pillar" cx="696.00" cy="664.00" r="3.52" />
<g data-feature-type="statue"><rect x="677.76" y="632.45" width="4.48" height="2.24" /><circle cx="680.00" cy="631.42" r="1.44" /></g>
<g data-feature-type="trap"><line x1="692.80" y1="644.80" x2="699.20" y2="651.20" /><line x1="692.80" y1="651.20" x2="699.20" y2="644.80" /></g>
<circle data-feature-type="pillar" cx="1288.00" cy="120.00" r="3.52" />
<circle data-feature-type="pillar" cx="1320.00" cy="120.00" r="3.52" />
<g data-feature-type="trap"><line x1="1300.80" y1="116.80" x2="1307.20" y2="123.20" /><line x1="1300.80" y1="123.20" x2="1307.20" y2="116.80" /></g>
<circle data-feature-type="pillar" cx="88.00" cy="1240.00" r="3.52" />
<circle data-feature-type="pillar" cx="504.00" cy="808.00" r="3.52" />
<g data-feature-type="well"><circle cx="520.00" cy="808.00" r="3.52" /><circle cx="520.00" cy="808.00" r="1.92" /></g>
<circle data-feature-type="pillar" cx="168.00" cy="536.00" r="3.52" />
<g data-feature-type="trap"><line x1="1252.80" y1="772.80" x2="1259.20" y2="779.20" /><line x1="1252.80" y1="779.20" x2="1259.20" y2="772.80" /></g>
<circle data-feature-type="pillar" cx="200.00" cy="968.00" r="3.52" />
<circle data-feature-type="pillar" cx="488.00" cy="1432.00" r="3.52" />
<circle data-feature-type="pillar" cx="1192.00" cy="968.00" r="3.52" />
<circle data-feature-type="pillar" cx="1192.00" cy="1000.00" r="3.52" />
<circle data-feature-type="pillar" cx="1128.00" cy="88.00" r="3.52" />
<circle data-feature-type="pillar" cx="904.00" cy="152.00" r="3.52" />
<g data-feature-type="statue"><rect x="869.76" y="152.45" width="4.48" height="2.24" /><circle cx="872.00" cy="151.42" r="1.44" /></g>
<circle data-feature-type="pillar" cx="424.00" cy="424.00" r="3.52" />
<circle data-feature-type="pillar" cx="808.00" cy="312.00" r="3.52" />
<circle data-feature-type="pillar" cx="808.00" cy="344.00" r="3.52" />
<circle data-feature-type="pillar" cx="1000.00" cy="984.00" r="3.52" />
<g data-feature-type="well"><circle cx="1016.00" cy="984.00" r="3.52" /><circle cx="1016.00" cy="984.00" r="1.92" /></g>
<g data-feature-type="trap"><line x1="980.80" y1="980.80" x2="987.20" y2="987.20" /><line x1="980.80" y1="987.20" x2="987.20" y2="980.80" /></g>
  </g>
  <g class="thresholds">
<rect data-threshold-type="door" x="1380.00" y="294.00" width="8.00" height="4.00" fill="#ffffff" stroke="#4f89a8" stroke-width="1.28" />
<rect data-threshold-type="door" x="116.00" y="278.00" width="8.00" height="4.00" fill="#ffffff" stroke="#4f89a8" stroke-width="1.28" />
<rect data-threshold-type="door" x="596.00" y="1238.00" width="8.00" height="4.00" fill="#ffffff" stroke="#4f89a8" stroke-width="1.28" />
<rect data-threshold-type="door" x="740.00" y="550.00" width="8.00" height="4.00" fill="#ffffff" stroke="#4f89a8" stroke-width="1.28" />
<g data-threshold-type="locked" stroke="#4f89a8" fill="none" stroke-width="1.28"><rect x="1204.00" y="150.00" width="8.00" height="4.00" fill="#ffffff" /><circle cx="1208.00" cy="149.12" r="1.44" /></g>
<rect data-threshold-type="door" x="116.00" y="1254.00" width="8.00" height="4.00" fill="#ffffff" stroke="#4f89a8" stroke-width="1.28" />
<rect data-threshold-type="door" x="532.00" y="758.00" width="8.00" height="4.00" fill="#ffffff" stroke="#4f89a8" stroke-width="1.28" />
<rect data-threshold-type="door" x="1044.00" y="502.00" width="8.00" height="4.00" fill="#ffffff" stroke="#4f89a8" stroke-width="1.28" />
<rect data-threshold-type="door" x="228.00" y="550.00" width="8.00" height="4.00" fill="#ffffff" stroke="#4f89a8" stroke-width="1.28" />
<line data-threshold-type="secret" x1="868.00" y1="536.00" x2="876.00" y2="536.00" stroke="#4f89a8" stroke-width="1.92" stroke-dasharray="1.92 1.92" />
<rect data-threshold-type="door" x="1204.00" y="758.00" width="8.00" height="4.00" fill="#ffffff" stroke="#4f89a8" stroke-width="1.28" />
<g data-threshold-type="locked" stroke="#4f89a8" fill="none" stroke-width="1.28"><rect x="164.00" y="1046.00" width="8.00" height="4.00" fill="#ffffff" /><circle cx="168.00" cy="1045.12" r="1.44" /></g>
<rect data-threshold-type="door" x="532.00" y="1430.00" width="8.00" height="4.00" fill="#ffffff" stroke="#4f89a8" stroke-width="1.28" />
<rect data-threshold-type="door" x="1092.00" y="966.00" width="8.00" height="4.00" fill="#ffffff" stroke="#4f89a8" stroke-width="1.28" />
<line data-threshold-type="secret" x1="1172.00" y1="104.00" x2="1180.00" y2="104.00" stroke="#4f89a8" stroke-width="1.92" stroke-dasharray="1.92 1.92" />
<line data-threshold-type="secret" x1="788.00" y1="152.00" x2="796.00" y2="152.00" stroke="#4f89a8" stroke-width="1.92" stroke-dasharray="1.92 1.92" />
<rect data-threshold-type="door" x="500.00" y="438.00" width="8.00" height="4.00" fill="#ffffff" stroke="#4f89a8" stroke-width="1.28" />
<rect data-threshold-type="door" x="676.00" y="902.00" width="8.00" height="4.00" fill="#ffffff" stroke="#4f89a8" stroke-width="1.28" />
<rect data-threshold-type="door" x="1364.00" y="918.00" width="8.00" height="4.00" fill="#ffffff" stroke="#4f89a8" stroke-width="1.28" />
<g data-threshold-type="locked" stroke="#4f89a8" fill="none" stroke-width="1.28"><rect x="836.00" y="246.00" width="8.00" height="4.00" fill="#ffffff" /><circle cx="840.00" cy="245.12" r="1.44" /></g>
<rect data-threshold-type="door" x="628.00" y="966.00" width="8.00" height="4.00" fill="#ffffff" stroke="#4f89a8" stroke-width="1.28" />
<rect data-threshold-type="door" x="308.00" y="630.00" width="8.00" height="4.00" fill="#ffffff" stroke="#4f89a8" stroke-width="1.28" />
<rect data-threshold-type="door" x="1268.00" y="1142.00" width="8.00" height="4.00" fill="#ffffff" stroke="#4f89a8" stroke-width="1.28" />
<rect data-threshold-type="door" x="244.00" y="1334.00" width="8.00" height="4.00" fill="#ffffff" stroke="#4f89a8" stroke-width="1.28" />
<g data-threshold-type="locked" stroke="#4f89a8" fill="none" stroke-width="1.28"><rect x="1044.00" y="902.00" width="8.00" height="4.00" fill="#ffffff" /><circle cx="1048.00" cy="901.12" r="1.44" /></g>
<rect data-threshold-type="door" x="548.00" y="518.00" width="8.00" height="4.00" fill="#ffffff" stroke="#4f89a8" stroke-width="1.28" />
  </g>
  <g class="labels">
<text x="1368.00" y="281.92" text-anchor="middle">1</text>
<text x="104.00" y="233.92" text-anchor="middle">2</text>
<text x="696.00" y="1257.92" text-anchor="middle">3</text>
<text x="696.00" y="633.92" text-anchor="middle">4</text>
<text x="1288.00" y="121.92" text-anchor="middle">5</text>
<text x="88.00" y="1241.92" text-anchor="middle">6</text>
<text x="504.00" y="809.92" text-anchor="middle">7</text>
<text x="1000.00" y="505.92" text-anchor="middle">8</text>
<text x="168.00" y="505.92" text-anchor="middle">9</text>
<text x="872.00" y="489.92" text-anchor="middle">10</text>
<text x="1256.00" y="777.92" text-anchor="middle">11</text>
<text x="200.00" y="969.92" text-anchor="middle">12</text>
<text x="488.00" y="1433.92" text-anchor="middle">13</text>
<text x="1192.00" y="969.92" text-anchor="middle">14</text>
<text x="1128.00" y="89.92" text-anchor="middle">15</text>
<text x="872.00" y="153.92" text-anchor="middle">16</text>
<text x="424.00" y="425.92" text-anchor="middle">17</text>
<text x="664.00" y="905.92" text-anchor="middle">18</text>
<text x="1384.00" y="953.92" text-anchor="middle">19</text>
<text x="808.00" y="313.92" text-anchor="middle">20</text>
<text x="632.00" y="1033.92" text-anchor="middle">21</text>
<text x="312.00" y="665.92" text-anchor="middle">22</text>
<text x="1304.00" y="1145.92" text-anchor="middle">23</text>
<text x="248.00" y="1417.92" text-anchor="middle">24</text>
<text x="1000.00" y="985.92" text-anchor="middle">25</text>
<text x="536.00" y="537.92" text-anchor="middle">26</text>
  </g>
</svg>