<?xml version="1.0" encoding="UTF-8"?>
<svg xmlns="http://www.w3.org/2000/svg" width="1488" height="1536" viewBox="0 0 1488.00 1536.00" role="img" aria-label="MapIR render: Learned Generated Map 3">
  <defs>
    <style>
      .grid { stroke: #cde2ec; stroke-width: 0.64; opacity: 0.72; }
      .walls { stroke: #6aa7c7; stroke-width: 1.92; fill: none; stroke-linecap: square; }
      .thresholds { fill: none; stroke-linecap: round; }
      .features { stroke: #4f89a8; fill: none; stroke-width: 1.12; stroke-linecap: round; stroke-linejoin: round; }
      .labels { fill: #4f89a8; font-size: 7.20px; font-family: "Courier New", monospace; font-weight: 600; }
    </style>
  </defs>
  <rect x="0" y="0" width="1488.00" height="1536.00" fill="#4393be" />
  <g class="floors">
<rect x="320.00" y="64.00" width="96.00" height="176.00" fill="#fcfdfe" />
<rect x="1232.00" y="80.00" width="160.00" height="112.00" fill="#fcfdfe" />
<rect x="1216.00" y="128.00" width="16.00" height="1104.00" fill="#fcfdfe" />
<rect x="112.00" y="144.00" width="208.00" height="16.00" fill="#fcfdfe" />
<rect x="416.00" y="144.00" width="704.00" height="16.00" fill="#fcfdfe" />
<rect x="112.00" y="160.00" width="16.00" height="768.00" fill="#fcfdfe" />
<rect x="480.00" y="160.00" width="16.00" height="528.00" fill="#fcfdfe" />
<rect x="1104.00" y="160.00" width="16.00" height="336.00" fill="#fcfdfe" />
<rect x="1344.00" y="192.00" width="16.00" height="1168.00" fill="#fcfdfe" />
<rect x="448.00" y="224.00" width="32.00" height="112.00" fill="#fcfdfe" />
<rect x="496.00" y="224.00" width="32.00" height="112.00" fill="#fcfdfe" />
<rect x="368.00" y="240.00" width="16.00" height="1168.00" fill="#fcfdfe" />
<rect x="848.00" y="288.00" width="80.00" height="48.00" fill="#fcfdfe" />
<rect x="1072.00" y="288.00" width="32.00" height="80.00" fill="#fcfdfe" />
<rect x="1120.00" y="288.00" width="16.00" height="80.00" fill="#fcfdfe" />
<rect x="128.00" y="304.00" width="240.00" height="16.00" fill="#fcfdfe" />
<rect x="384.00" y="304.00" width="64.00" height="16.00" fill="#fcfdfe" />
<rect x="528.00" y="304.00" width="320.00" height="16.00" fill="#fcfdfe" />
<rect x="928.00" y="304.00" width="144.00" height="16.00" fill="#fcfdfe" />
<rect x="1136.00" y="304.00" width="80.00" height="16.00" fill="#fcfdfe" />
<rect x="1232.00" y="304.00" width="112.00" height="16.00" fill="#fcfdfe" />
<rect x="128.00" y="320.00" width="16.00" height="608.00" fill="#fcfdfe" />
<rect x="48.00" y="336.00" width="64.00" height="48.00" fill="#fcfdfe" />
<rect x="144.00" y="336.00" width="64.00" height="48.00" fill="#fcfdfe" />
<rect x="880.00" y="336.00" width="16.00" height="560.00" fill="#fcfdfe" />
<rect x="256.00" y="384.00" width="96.00" height="160.00" fill="#fcfdfe" />
<rect x="1232.00" y="400.00" width="112.00" height="160.00" fill="#fcfdfe" />
<rect x="1360.00" y="400.00" width="16.00" height="160.00" fill="#fcfdfe" />
<rect x="512.00" y="416.00" width="96.00" height="80.00" fill="#fcfdfe" />
<rect x="704.00" y="416.00" width="80.00" height="144.00" fill="#fcfdfe" />
<rect x="352.00" y="448.00" width="16.00" height="48.00" fill="#fcfdfe" />
<rect x="384.00" y="448.00" width="96.00" height="48.00" fill="#fcfdfe" />
<rect x="496.00" y="448.00" width="16.00" height="48.00" fill="#fcfdfe" />
<rect x="608.00" y="448.00" width="96.00" height="48.00" fill="#fcfdfe" />
<rect x="784.00" y="448.00" width="96.00" height="48.00" fill="#fcfdfe" />
<rect x="896.00" y="448.00" width="208.00" height="48.00" fill="#fcfdfe" />
<rect x="1120.00" y="464.00" width="96.00" height="32.00" fill="#fcfdfe" />
<rect x="592.00" y="496.00" width="16.00" height="944.00" fill="#fcfdfe" />
<rect x="864.00" y="496.00" width="16.00" height="816.00" fill="#fcfdfe" />
<rect x="944.00" y="496.00" width="16.00" height="336.00" fill="#fcfdfe" />
<rect x="432.00" y="512.00" width="48.00" height="176.00" fill="#fcfdfe" />
<rect x="496.00" y="512.00" width="32.00" height="176.00" fill="#fcfdfe" />
<rect x="288.00" y="544.00" width="32.00" height="272.00" fill="#fcfdfe" />
<rect x="736.00" y="560.00" width="16.00" height="656.00" fill="#fcfdfe" />
<rect x="1296.00" y="560.00" width="16.00" height="848.00" fill="#fcfdfe" />
<rect x="784.00" y="576.00" width="80.00" height="80.00" fill="#fcfdfe" />
<rect x="896.00" y="576.00" width="48.00" height="80.00" fill="#fcfdfe" />
<rect x="528.00" y="592.00" width="64.00" height="32.00" fill="#fcfdfe" />
<rect x="608.00" y="592.00" width="128.00" height="32.00" fill="#fcfdfe" />
<rect x="752.00" y="592.00" width="32.00" height="32.00" fill="#fcfdfe" />
<rect x="960.00" y="592.00" width="256.00" height="16.00" fill="#fcfdfe" />
<rect x="1232.00" y="592.00" width="64.00" height="16.00" fill="#fcfdfe" />
<rect x="1312.00" y="592.00" width="32.00" height="16.00" fill="#fcfdfe" />
<rect x="144.00" y="608.00" width="96.00" height="128.00" fill="#fcfdfe" />
<rect x="336.00" y="608.00" width="32.00" height="128.00" fill="#fcfdfe" />
<rect x="384.00" y="608.00" width="16.00" height="128.00" fill="#fcfdfe" />
<rect x="240.00" y="672.00" width="48.00" height="16.00" fill="#fcfdfe" />
<rect x="320.00" y="672.00" width="16.00" height="16.00" fill="#fcfdfe" />
<rect x="400.00" y="672.00" width="32.00" height="16.00" fill="#fcfdfe" />
<rect x="528.00" y="672.00" width="64.00" height="16.00" fill="#fcfdfe" />
<rect x="608.00" y="672.00" width="128.00" height="16.00" fill="#fcfdfe" />
<rect x="752.00" y="672.00" width="112.00" height="16.00" fill="#fcfdfe" />
<rect x="896.00" y="672.00" width="48.00" height="160.00" fill="#fcfdfe" />
<rect x="960.00" y="672.00" width="80.00" height="16.00" fill="#fcfdfe" />
<rect x="784.00" y="688.00" width="16.00" height="352.00" fill="#fcfdfe" />
<rect x="960.00" y="688.00" width="32.00" height="144.00" fill="#fcfdfe" />
<rect x="1024.00" y="688.00" width="16.00" height="784.00" fill="#fcfdfe" />
<rect x="672.00" y="720.00" width="64.00" height="144.00" fill="#fcfdfe" />
<rect x="752.00" y="720.00" width="16.00" height="144.00" fill="#fcfdfe" />
<rect x="176.00" y="736.00" width="16.00" height="192.00" fill="#fcfdfe" />
<rect x="1360.00" y="736.00" width="96.00" height="144.00" fill="#fcfdfe" />
<rect x="192.00" y="800.00" width="96.00" height="16.00" fill="#fcfdfe" />
<rect x="320.00" y="800.00" width="48.00" height="16.00" fill="#fcfdfe" />
<rect x="384.00" y="800.00" width="208.00" height="16.00" fill="#fcfdfe" />
<rect x="608.00" y="800.00" width="64.00" height="16.00" fill="#fcfdfe" />
<rect x="768.00" y="800.00" width="16.00" height="16.00" fill="#fcfdfe" />
<rect x="800.00" y="800.00" width="64.00" height="16.00" fill="#fcfdfe" />
<rect x="992.00" y="800.00" width="32.00" height="16.00" fill="#fcfdfe" />
<rect x="1040.00" y="800.00" width="176.00" height="16.00" fill="#fcfdfe" />
<rect x="1232.00" y="800.00" width="64.00" height="16.00" fill="#fcfdfe" />
<rect x="1312.00" y="800.00" width="32.00" height="16.00" fill="#fcfdfe" />
<rect x="288.00" y="816.00" width="16.00" height="496.00" fill="#fcfdfe" />
<rect x="32.00" y="848.00" width="80.00" height="80.00" fill="#fcfdfe" />
<rect x="144.00" y="848.00" width="32.00" height="80.00" fill="#fcfdfe" />
<rect x="1072.00" y="848.00" width="80.00" height="96.00" fill="#fcfdfe" />
<rect x="208.00" y="864.00" width="80.00" height="128.00" fill="#fcfdfe" />
<rect x="304.00" y="864.00" width="64.00" height="128.00" fill="#fcfdfe" />
<rect x="720.00" y="864.00" width="16.00" height="576.00" fill="#fcfdfe" />
<rect x="192.00" y="880.00" width="16.00" height="16.00" fill="#fcfdfe" />
<rect x="384.00" y="880.00" width="208.00" height="16.00" fill="#fcfdfe" />
<rect x="608.00" y="880.00" width="112.00" height="16.00" fill="#fcfdfe" />
<rect x="752.00" y="880.00" width="32.00" height="160.00" fill="#fcfdfe" />
<rect x="800.00" y="880.00" width="64.00" height="160.00" fill="#fcfdfe" />
<rect x="896.00" y="880.00" width="128.00" height="16.00" fill="#fcfdfe" />
<rect x="1040.00" y="880.00" width="32.00" height="16.00" fill="#fcfdfe" />
<rect x="1392.00" y="880.00" width="16.00" height="64.00" fill="#fcfdfe" />
<rect x="704.00" y="896.00" width="16.00" height="144.00" fill="#fcfdfe" />
<rect x="384.00" y="928.00" width="208.00" height="16.00" fill="#fcfdfe" />
<rect x="608.00" y="928.00" width="96.00" height="16.00" fill="#fcfdfe" />
<rect x="880.00" y="928.00" width="144.00" height="16.00" fill="#fcfdfe" />
<rect x="1040.00" y="928.00" width="32.00" height="16.00" fill="#fcfdfe" />
<rect x="1152.00" y="928.00" width="64.00" height="16.00" fill="#fcfdfe" />
<rect x="1232.00" y="928.00" width="64.00" height="16.00" fill="#fcfdfe" />
<rect x="1312.00" y="928.00" width="32.00" height="16.00" fill="#fcfdfe" />
<rect x="1360.00" y="928.00" width="32.00" height="16.00" fill="#fcfdfe" />
<rect x="944.00" y="976.00" width="80.00" height="48.00" fill="#fcfdfe" />
<rect x="1040.00" y="976.00" width="80.00" height="48.00" fill="#fcfdfe" />
<rect x="544.00" y="1008.00" width="48.00" height="160.00" fill="#fcfdfe" />
<rect x="608.00" y="1008.00" width="48.00" height="160.00" fill="#fcfdfe" />
<rect x="1184.00" y="1056.00" width="32.00" height="176.00" fill="#fcfdfe" />
<rect x="1232.00" y="1056.00" width="32.00" height="176.00" fill="#fcfdfe" />
<rect x="656.00" y="1088.00" width="64.00" height="16.00" fill="#fcfdfe" />
<rect x="752.00" y="1088.00" width="112.00" height="16.00" fill="#fcfdfe" />
<rect x="880.00" y="1088.00" width="144.00" height="16.00" fill="#fcfdfe" />
<rect x="1040.00" y="1088.00" width="144.00" height="16.00" fill="#fcfdfe" />
<rect x="1264.00" y="1088.00" width="32.00" height="16.00" fill="#fcfdfe" />
<rect x="1312.00" y="1088.00" width="32.00" height="16.00" fill="#fcfdfe" />
<rect x="400.00" y="1120.00" width="112.00" height="48.00" fill="#fcfdfe" />
<rect x="512.00" y="1136.00" width="32.00" height="32.00" fill="#fcfdfe" />
<rect x="656.00" y="1136.00" width="64.00" height="32.00" fill="#fcfdfe" />
<rect x="880.00" y="1136.00" width="144.00" height="48.00" fill="#fcfdfe" />
<rect x="112.00" y="1152.00" width="176.00" height="16.00" fill="#fcfdfe" />
<rect x="304.00" y="1152.00" width="64.00" height="16.00" fill="#fcfdfe" />
<rect x="384.00" y="1152.00" width="16.00" height="16.00" fill="#fcfdfe" />
<rect x="752.00" y="1152.00" width="112.00" height="16.00" fill="#fcfdfe" />
<rect x="112.00" y="1168.00" width="16.00" height="160.00" fill="#fcfdfe" />
<rect x="448.00" y="1168.00" width="16.00" height="48.00" fill="#fcfdfe" />
<rect x="1328.00" y="1168.00" width="16.00" height="64.00" fill="#fcfdfe" />
<rect x="1360.00" y="1168.00" width="64.00" height="64.00" fill="#fcfdfe" />
<rect x="304.00" y="1200.00" width="64.00" height="16.00" fill="#fcfdfe" />
<rect x="384.00" y="1200.00" width="64.00" height="16.00" fill="#fcfdfe" />
<rect x="464.00" y="1200.00" width="128.00" height="16.00" fill="#fcfdfe" />
<rect x="608.00" y="1200.00" width="112.00" height="16.00" fill="#fcfdfe" />
<rect x="752.00" y="1200.00" width="112.00" height="16.00" fill="#fcfdfe" />
<rect x="880.00" y="1200.00" width="144.00" height="16.00" fill="#fcfdfe" />
<rect x="1040.00" y="1200.00" width="144.00" height="16.00" fill="#fcfdfe" />
<rect x="1264.00" y="1200.00" width="32.00" height="16.00" fill="#fcfdfe" />
<rect x="1312.00" y="1200.00" width="16.00" height="16.00" fill="#fcfdfe" />
<rect x="80.00" y="1248.00" width="32.00" height="80.00" fill="#fcfdfe" />
<rect x="128.00" y="1248.00" width="16.00" height="80.00" fill="#fcfdfe" />
<rect x="1264.00" y="1248.00" width="32.00" height="112.00" fill="#fcfdfe" />
<rect x="1312.00" y="1248.00" width="32.00" height="112.00" fill="#fcfdfe" />
<rect x="1360.00" y="1248.00" width="80.00" height="112.00" fill="#fcfdfe" />
<rect x="144.00" y="1280.00" width="144.00" height="16.00" fill="#fcfdfe" />
<rect x="304.00" y="1280.00" width="64.00" height="32.00" fill="#fcfdfe" />
<rect x="384.00" y="1280.00" width="208.00" height="32.00" fill="#fcfdfe" />
<rect x="608.00" y="1280.00" width="112.00" height="32.00" fill="#fcfdfe" />
<rect x="736.00" y="1280.00" width="128.00" height="32.00" fill="#fcfdfe" />
<rect x="880.00" y="1280.00" width="144.00" height="32.00" fill="#fcfdfe" />
<rect x="1040.00" y="1280.00" width="224.00" height="32.00" fill="#fcfdfe" />
<rect x="608.00" y="1344.00" width="112.00" height="96.00" fill="#fcfdfe" />
<rect x="736.00" y="1344.00" width="32.00" height="96.00" fill="#fcfdfe" />
<rect x="944.00" y="1360.00" width="80.00" height="112.00" fill="#fcfdfe" />
<rect x="1040.00" y="1360.00" width="48.00" height="112.00" fill="#fcfdfe" />
<rect x="384.00" y="1392.00" width="208.00" height="16.00" fill="#fcfdfe" />
<rect x="768.00" y="1392.00" width="176.00" height="32.00" fill="#fcfdfe" />
<rect x="1088.00" y="1392.00" width="208.00" height="16.00" fill="#fcfdfe" />
  </g>
  <g class="grid">
<line x1="0.00" y1="0" x2="0.00" y2="1536.00" />
<line x1="16.00" y1="0" x2="16.00" y2="1536.00" />
<line x1="32.00" y1="0" x2="32.00" y2="1536.00" />
<line x1="48.00" y1="0" x2="48.00" y2="1536.00" />
<line x1="64.00" y1="0" x2="64.00" y2="1536.00" />
<line x1="80.00" y1="0" x2="80.00" y2="1536.00" />
<line x1="96.00" y1="0" x2="96.00" y2="1536.00" />
<line x1="112.00" y1="0" x2="112.00" y2="1536.00" />
<line x1="128.00" y1="0" x2="128.00" y2="1536.00" />
<line x1="144.00" y1="0" x2="144.00" y2="1536.00" />
<line x1="160.00" y1="0" x2="160.00" y2="1536.00" />
<line x1="176.00" y1="0" x2="176.00" y2="1536.00" />
<line x1="192.00" y1="0" x2="192.00" y2="1536.00" />
<line x1="208.00" y1="0" x2="208.00" y2="1536.00" />
<line x1="224.00" y1="0" x2="224.00" y2="1536.00" />
<line x1="240.00" y1="0" x2="240.00" y2="1536.00" />
<line x1="256.00" y1="0" x2="256.00" y2="1536.00" />
<line x1="272.00" y1="0" x2="272.00" y2="1536.00" />
<line x1="288.00" y1="0" x2="288.00" y2="1536.00" />
<line x1="304.00" y1="0" x2="304.00" y2="1536.00" />
<line x1="320.00" y1="0" x2="320.00" y2="1536.00" />
<line x1="336.00" y1="0" x2="336.00" y2="1536.00" />
<line x1="352.00" y1="0" x2="352.00" y2="1536.00" />
<line x1="368.00" y1="0" x2="368.00" y2="1536.00" />
<line x1="384.00" y1="0" x2="384.00" y2="1536.00" />
<line x1="400.00" y1="0" x2="400.00" y2="1536.00" />
<line x1="416.00" y1="0" x2="416.00" y2="1536.00" />
<line x1="432.00" y1="0" x2="432.00" y2="1536.00" />
<line x1="448.00" y1="0" x2="448.00" y2="1536.00" />
<line x1="464.00" y1="0" x2="464.00" y2="1536.00" />
<line x1="480.00" y1="0" x2="480.00" y2="1536.00" />
<line x1="496.00" y1="0" x2="496.00" y2="1536.00" />
<line x1="512.00" y1="0" x2="512.00" y2="1536.00" />
<line x1="528.00" y1="0" x2="528.00" y2="1536.00" />
<line x1="544.00" y1="0" x2="544.00" y2="1536.00" />
<line x1="560.00" y1="0" x2="560.00" y2="1536.00" />
<line x1="576.00" y1="0" x2="576.00" y2="1536.00" />
<line x1="592.00" y1="0" x2="592.00" y2="1536.00" />
<line x1="608.00" y1="0" x2="608.00" y2="1536.00" />
<line x1="624.00" y1="0" x2="624.00" y2="1536.00" />
<line x1="640.00" y1="0" x2="640.00" y2="1536.00" />
<line x1="656.00" y1="0" x2="656.00" y2="1536.00" />
<line x1="672.00" y1="0" x2="672.00" y2="1536.00" />
<line x1="688.00" y1="0" x2="688.00" y2="1536.00" />
<line x1="704.00" y1="0" x2="704.00" y2="1536.00" />
<line x1="720.00" y1="0" x2="720.00" y2="1536.00" />
<line x1="736.00" y1="0" x2="736.00" y2="1536.00" />
<line x1="752.00" y1="0" x2="752.00" y2="1536.00" />
<line x1="768.00" y1="0" x2="768.00" y2="1536.00" />
<line x1="784.00" y1="0" x2="784.00" y2="1536.00" />
<line x1="800.00" y1="0" x2="800.00" y2="1536.00" />
<line x1="816.00" y1="0" x2="816.00" y2="1536.00" />
<line x1="832.00" y1="0" x2="832.00" y2="1536.00" />
<line x1="848.00" y1="0" x2="848.00" y2="1536.00" />
<line x1="864.00" y1="0" x2="864.00" y2="1536.00" />
<line x1="880.00" y1="0" x2="880.00" y2="1536.00" />
<line x1="896.00" y1="0" x2="896.00" y2="1536.00" />
<line x1="912.00" y1="0" x2="912.00" y2="1536.00" />
<line x1="928.00" y1="0" x2="928.00" y2="1536.00" />
<line x1="944.00" y1="0" x2="944.00" y2="1536.00" />
<line x1="960.00" y1="0" x2="960.00" y2="1536.00" />
<line x1="976.00" y1="0" x2="976.00" y2="1536.00" />
<line x1="992.00" y1="0" x2="992.00" y2="1536.00" />
<line x1="1008.00" y1="0" x2="1008.00" y2="1536.00" />
<line x1="1024.00" y1="0" x2="1024.00" y2="1536.00" />
<line x1="1040.00" y1="0" x2="1040.00" y2="1536.00" />
<line x1="1056.00" y1="0" x2="1056.00" y2="1536.00" />
<line x1="1072.00" y1="0" x2="1072.00" y2="1536.00" />
<line x1="1088.00" y1="0" x2="1088.00" y2="1536.00" />
<line x1="1104.00" y1="0" x2="1104.00" y2="1536.00" />
<line x1="1120.00" y1="0" x2="1120.00" y2="1536.00" />
<line x1="1136.00" y1="0" x2="1136.00" y2="1536.00" />
<line x1="1152.00" y1="0" x2="1152.00" y2="1536.00" />
<line x1="1168.00" y1="0" x2="1168.00" y2="1536.00" />
<line x1="1184.00" y1="0" x2="1184.00" y2="1536.00" />
<line x1="1200.00" y1="0" x2="1200.00" y2="1536.00" />
<line x1="1216.00" y1="0" x2="1216.00" y2="1536.00" />
<line x1="1232.00" y1="0" x2="1232.00" y2="1536.00" />
<line x1="1248.00" y1="0" x2="1248.00" y2="1536.00" />
<line x1="1264.00" y1="0" x2="1264.00" y2="1536.00" />
<line x1="1280.00" y1="0" x2="1280.00" y2="1536.00" />
<line x1="1296.00" y1="0" x2="1296.00" y2="1536.00" />
<line x1="1312.00" y1="0" x2="1312.00" y2="1536.00" />
<line x1="1328.00" y1="0" x2="1328.00" y2="1536.00" />
<line x1="1344.00" y1="0" x2="1344.00" y2="1536.00" />
<line x1="1360.00" y1="0" x2="1360.00" y2="1536.00" />
<line x1="1376.00" y1="0" x2="1376.00" y2="1536.00" />
<line x1="1392.00" y1="0" x2="1392.00" y2="1536.00" />
<line x1="1408.00" y1="0" x2="1408.00" y2="1536.00" />
<line x1="1424.00" y1="0" x2="1424.00" y2="1536.00" />
<line x1="1440.00" y1="0" x2="1440.00" y2="1536.00" />
<line x1="1456.00" y1="0" x2="1456.00" y2="1536.00" />
<line x1="1472.00" y1="0" x2="1472.00" y2="1536.00" />
<line x1="1488.00" y1="0" x2="1488.00" y2="1536.00" />
<line x1="0" y1="0.00" x2="1488.00" y2="0.00" />
<line x1="0" y1="16.00" x2="1488.00" y2="16.00" />
<line x1="0" y1="32.00" x2="1488.00" y2="32.00" />
<line x1="0" y1="48.00" x2="1488.00" y2="48.00" />
<line x1="0" y1="64.00" x2="1488.00" y2="64.00" />
<line x1="0" y1="80.00" x2="1488.00" y2="80.00" />
<line x1="0" y1="96.00" x2="1488.00" y2="96.00" />
<line x1="0" y1="112.00" x2="1488.00" y2="112.00" />
<line x1="0" y1="128.00" x2="1488.00" y2="128.00" />
<line x1="0" y1="144.00" x2="1488.00" y2="144.00" />
<line x1="0" y1="160.00" x2="1488.00" y2="160.00" />
<line x1="0" y1="176.00" x2="1488.00" y2="176.00" />
<line x1="0" y1="192.00" x2="1488.00" y2="192.00" />
<line x1="0" y1="208.00" x2="1488.00" y2="208.00" />
<line x1="0" y1="224.00" x2="1488.00" y2="224.00" />
<line x1="0" y1="240.00" x2="1488.00" y2="240.00" />
<line x1="0" y1="256.00" x2="1488.00" y2="256.00" />
<line x1="0" y1="272.00" x2="1488.00" y2="272.00" />
<line x1="0" y1="288.00" x2="1488.00" y2="288.00" />
<line x1="0" y1="304.00" x2="1488.00" y2="304.00" />
<line x1="0" y1="320.00" x2="1488.00" y2="320.00" />
<line x1="0" y1="336.00" x2="1488.00" y2="336.00" />
<line x1="0" y1="352.00" x2="1488.00" y2="352.00" />
<line x1="0" y1="368.00" x2="1488.00" y2="368.00" />
<line x1="0" y1="384.00" x2="1488.00" y2="384.00" />
<line x1="0" y1="400.00" x2="1488.00" y2="400.00" />
<line x1="0" y1="416.00" x2="1488.00" y2="416.00" />
<line x1="0" y1="432.00" x2="1488.00" y2="432.00" />
<line x1="0" y1="448.00" x2="1488.00" y2="448.00" />
<line x1="0" y1="464.00" x2="1488.00" y2="464.00" />
<line x1="0" y1="480.00" x2="1488.00" y2="480.00" />
<line x1="0" y1="496.00" x2="1488.00" y2="496.00" />
<line x1="0" y1="512.00" x2="1488.00" y2="512.00" />
<line x1="0" y1="528.00" x2="1488.00" y2="528.00" />
<line x1="0" y1="544.00" x2="1488.00" y2="544.00" />
<line x1="0" y1="560.00" x2="1488.00" y2="560.00" />
<line x1="0" y1="576.00" x2="1488.00" y2="576.00" />
<line x1="0" y1="592.00" x2="1488.00" y2="592.00" />
<line x1="0" y1="608.00" x2="1488.00" y2="608.00" />
<line x1="0" y1="624.00" x2="1488.00" y2="624.00" />
<line x1="0" y1="640.00" x2="1488.00" y2="640.00" />
<line x1="0" y1="656.00" x2="1488.00" y2="656.00" />
<line x1="0" y1="672.00" x2="1488.00" y2="672.00" />
<line x1="0" y1="688.00" x2="1488.00" y2="688.00" />
<line x1="0" y1="704.00" x2="1488.00" y2="704.00" />
<line x1="0" y1="720.00" x2="1488.00" y2="720.00" />
<line x1="0" y1="736.00" x2="1488.00" y2="736.00" />
<line x1="0" y1="752.00" x2="1488.00" y2="752.00" />
<line x1="0" y1="768.00" x2="1488.00" y2="768.00" />
<line x1="0" y1="784.00" x2="1488.00" y2="784.00" />
<line x1="0" y1="800.00" x2="1488.00" y2="800.00" />
<line x1="0" y1="816.00" x2="1488.00" y2="816.00" />
<line x1="0" y1="832.00" x2="1488.00" y2="832.00" />
<line x1="0" y1="848.00" x2="1488.00" y2="848.00" />
<line x1="0" y1="864.00" x2="1488.00" y2="864.00" />
<line x1="0" y1="880.00" x2="1488.00" y2="880.00" />
<line x1="0" y1="896.00" x2="1488.00" y2="896.00" />
<line x1="0" y1="912.00" x2="1488.00" y2="912.00" />
<line x1="0" y1="928.00" x2="1488.00" y2="928.00" />
<line x1="0" y1="944.00" x2="1488.00" y2="944.00" />
<line x1="0" y1="960.00" x2="1488.00" y2="960.00" />
<line x1="0" y1="976.00" x2="1488.00" y2="976.00" />
<line x1="0" y1="992.00" x2="1488.00" y2="992.00" />
<line x1="0" y1="1008.00" x2="1488.00" y2="1008.00" />
<line x1="0" y1="1024.00" x2="1488.00" y2="1024.00" />
<line x1="0" y1="1040.00" x2="1488.00" y2="1040.00" />
<line x1="0" y1="1056.00" x2="1488.00" y2="1056.00" />
<line x1="0" y1="1072.00" x2="1488.00" y2="1072.00" />
<line x1="0" y1="1088.00" x2="1488.00" y2="1088.00" />
<line x1="0" y1="1104.00" x2="1488.00" y2="1104.00" />
<line x1="0" y1="1120.00" x2="1488.00" y2="1120.00" />
<line x1="0" y1="1136.00" x2="1488.00" y2="1136.00" />
<line x1="0" y1="1152.00" x2="1488.00" y2="1152.00" />
<line x1="0" y1="1168.00" x2="1488.00" y2="1168.00" />
<line x1="0" y1="1184.00" x2="1488.00" y2="1184.00" />
<line x1="0" y1="1200.00" x2="1488.00" y2="1200.00" />
<line x1="0" y1="1216.00" x2="1488.00" y2="1216.00" />
<line x1="0" y1="1232.00" x2="1488.00" y2="1232.00" />
<line x1="0" y1="1248.00" x2="1488.00" y2="1248.00" />
<line x1="0" y1="1264.00" x2="1488.00" y2="1264.00" />
<line x1="0" y1="1280.00" x2="1488.00" y2="1280.00" />
<line x1="0" y1="1296.00" x2="1488.00" y2="1296.00" />
<line x1="0" y1="1312.00" x2="1488.00" y2="1312.00" />
<line x1="0" y1="1328.00" x2="1488.00" y2="1328.00" />
<line x1="0" y1="1344.00" x2="1488.00" y2="1344.00" />
<line x1="0" y1="1360.00" x2="1488.00" y2="1360.00" />
<line x1="0" y1="1376.00" x2="1488.00" y2="1376.00" />
<line x1="0" y1="1392.00" x2="1488.00" y2="1392.00" />
<line x1="0" y1="1408.00" x2="1488.00" y2="1408.00" />
<line x1="0" y1="1424.00" x2="1488.00" y2="1424.00" />
<line x1="0" y1="1440.00" x2="1488.00" y2="1440.00" />
<line x1="0" y1="1456.00" x2="1488.00" y2="1456.00" />
<line x1="0" y1="1472.00" x2="1488.00" y2="1472.00" />
<line x1="0" y1="1488.00" x2="1488.00" y2="1488.00" />
<line x1="0" y1="1504.00" x2="1488.00" y2="1504.00" />
<line x1="0" y1="1520.00" x2="1488.00" y2="1520.00" />
<line x1="0" y1="1536.00" x2="1488.00" y2="1536.00" />
  </g>
  <g class="walls">
<line x1="320.00" y1="64.00" x2="416.00" y2="64.00" />
<line x1="1232.00" y1="80.00" x2="1392.00" y2="80.00" />
<line x1="1216.00" y1="128.00" x2="1232.00" y2="128.00" />
<line x1="112.00" y1="144.00" x2="320.00" y2="144.00" />
<line x1="416.00" y1="144.00" x2="1120.00" y2="144.00" />
<line x1="128.00" y1="160.00" x2="320.00" y2="160.00" />
<line x1="416.00" y1="160.00" x2="480.00" y2="160.00" />
<line x1="496.00" y1="160.00" x2="1104.00" y2="160.00" />
<line x1="1232.00" y1="192.00" x2="1344.00" y2="192.00" />
<line x1="1360.00" y1="192.00" x2="1392.00" y2="192.00" />
<line x1="320.00" y1="240.00" x2="368.00" y2="240.00" />
<line x1="384.00" y1="240.00" x2="416.00" y2="240.00" />
<line x1="448.00" y1="224.00" x2="480.00" y2="224.00" />
<line x1="496.00" y1="224.00" x2="528.00" y2="224.00" />
<line x1="848.00" y1="288.00" x2="928.00" y2="288.00" />
<line x1="1072.00" y1="288.00" x2="1104.00" y2="288.00" />
<line x1="1120.00" y1="288.00" x2="1136.00" y2="288.00" />
<line x1="128.00" y1="304.00" x2="368.00" y2="304.00" />
<line x1="384.00" y1="304.00" x2="448.00" y2="304.00" />
<line x1="528.00" y1="304.00" x2="848.00" y2="304.00" />
<line x1="928.00" y1="304.00" x2="1072.00" y2="304.00" />
<line x1="1136.00" y1="304.00" x2="1216.00" y2="304.00" />
<line x1="1232.00" y1="304.00" x2="1344.00" y2="304.00" />
<line x1="144.00" y1="320.00" x2="368.00" y2="320.00" />
<line x1="384.00" y1="320.00" x2="448.00" y2="320.00" />
<line x1="528.00" y1="320.00" x2="848.00" y2="320.00" />
<line x1="928.00" y1="320.00" x2="1072.00" y2="320.00" />
<line x1="1136.00" y1="320.00" x2="1216.00" y2="320.00" />
<line x1="1232.00" y1="320.00" x2="1344.00" y2="320.00" />
<line x1="48.00" y1="336.00" x2="112.00" y2="336.00" />
<line x1="144.00" y1="336.00" x2="208.00" y2="336.00" />
<line x1="448.00" y1="336.00" x2="480.00" y2="336.00" />
<line x1="496.00" y1="336.00" x2="528.00" y2="336.00" />
<line x1="848.00" y1="336.00" x2="880.00" y2="336.00" />
<line x1="896.00" y1="336.00" x2="928.00" y2="336.00" />
<line x1="1072.00" y1="368.00" x2="1104.00" y2="368.00" />
<line x1="1120.00" y1="368.00" x2="1136.00" y2="368.00" />
<line x1="48.00" y1="384.00" x2="112.00" y2="384.00" />
<line x1="144.00" y1="384.00" x2="208.00" y2="384.00" />
<line x1="256.00" y1="384.00" x2="352.00" y2="384.00" />
<line x1="1232.00" y1="400.00" x2="1344.00" y2="400.00" />
<line x1="1360.00" y1="400.00" x2="1376.00" y2="400.00" />
<line x1="512.00" y1="416.00" x2="608.00" y2="416.00" />
<line x1="704.00" y1="416.00" x2="784.00" y2="416.00" />
<line x1="352.00" y1="448.00" x2="368.00" y2="448.00" />
<line x1="384.00" y1="448.00" x2="480.00" y2="448.00" />
<line x1="496.00" y1="448.00" x2="512.00" y2="448.00" />
<line x1="608.00" y1="448.00" x2="704.00" y2="448.00" />
<line x1="784.00" y1="448.00" x2="880.00" y2="448.00" />
<line x1="896.00" y1="448.00" x2="1104.00" y2="448.00" />
<line x1="1120.00" y1="464.00" x2="1216.00" y2="464.00" />
<line x1="352.00" y1="496.00" x2="368.00" y2="496.00" />
<line x1="384.00" y1="496.00" x2="480.00" y2="496.00" />
<line x1="496.00" y1="496.00" x2="592.00" y2="496.00" />
<line x1="608.00" y1="496.00" x2="704.00" y2="496.00" />
<line x1="784.00" y1="496.00" x2="864.00" y2="496.00" />
<line x1="896.00" y1="496.00" x2="944.00" y2="496.00" />
<line x1="960.00" y1="496.00" x2="1216.00" y2="496.00" />
<line x1="432.00" y1="512.00" x2="480.00" y2="512.00" />
<line x1="496.00" y1="512.00" x2="528.00" y2="512.00" />
<line x1="256.00" y1="544.00" x2="288.00" y2="544.00" />
<line x1="320.00" y1="544.00" x2="352.00" y2="544.00" />
<line x1="704.00" y1="560.00" x2="736.00" y2="560.00" />
<line x1="752.00" y1="560.00" x2="784.00" y2="560.00" />
<line x1="1232.00" y1="560.00" x2="1296.00" y2="560.00" />
<line x1="1312.00" y1="560.00" x2="1344.00" y2="560.00" />
<line x1="1360.00" y1="560.00" x2="1376.00" y2="560.00" />
<line x1="784.00" y1="576.00" x2="864.00" y2="576.00" />
<line x1="896.00" y1="576.00" x2="944.00" y2="576.00" />
<line x1="528.00" y1="592.00" x2="592.00" y2="592.00" />
<line x1="608.00" y1="592.00" x2="736.00" y2="592.00" />
<line x1="752.00" y1="592.00" x2="784.00" y2="592.00" />
<line x1="960.00" y1="592.00" x2="1216.00" y2="592.00" />
<line x1="1232.00" y1="592.00" x2="1296.00" y2="592.00" />
<line x1="1312.00" y1="592.00" x2="1344.00" y2="592.00" />
<line x1="144.00" y1="608.00" x2="240.00" y2="608.00" />
<line x1="336.00" y1="608.00" x2="368.00" y2="608.00" />
<line x1="384.00" y1="608.00" x2="400.00" y2="608.00" />
<line x1="960.00" y1="608.00" x2="1216.00" y2="608.00" />
<line x1="1232.00" y1="608.00" x2="1296.00" y2="608.00" />
<line x1="1312.00" y1="608.00" x2="1344.00" y2="608.00" />
<line x1="528.00" y1="624.00" x2="592.00" y2="624.00" />
<line x1="608.00" y1="624.00" x2="736.00" y2="624.00" />
<line x1="752.00" y1="624.00" x2="784.00" y2="624.00" />
<line x1="784.00" y1="656.00" x2="864.00" y2="656.00" />
<line x1="896.00" y1="656.00" x2="944.00" y2="656.00" />
<line x1="240.00" y1="672.00" x2="288.00" y2="672.00" />
<line x1="320.00" y1="672.00" x2="336.00" y2="672.00" />
<line x1="400.00" y1="672.00" x2="432.00" y2="672.00" />
<line x1="528.00" y1="672.00" x2="592.00" y2="672.00" />
<line x1="608.00" y1="672.00" x2="736.00" y2="672.00" />
<line x1="752.00" y1="672.00" x2="864.00" y2="672.00" />
<line x1="896.00" y1="672.00" x2="944.00" y2="672.00" />
<line x1="960.00" y1="672.00" x2="1040.00" y2="672.00" />
<line x1="240.00" y1="688.00" x2="288.00" y2="688.00" />
<line x1="320.00" y1="688.00" x2="336.00" y2="688.00" />
<line x1="400.00" y1="688.00" x2="592.00" y2="688.00" />
<line x1="608.00" y1="688.00" x2="736.00" y2="688.00" />
<line x1="752.00" y1="688.00" x2="784.00" y2="688.00" />
<line x1="800.00" y1="688.00" x2="864.00" y2="688.00" />
<line x1="992.00" y1="688.00" x2="1024.00" y2="688.00" />
<line x1="144.00" y1="736.00" x2="176.00" y2="736.00" />
<line x1="192.00" y1="736.00" x2="240.00" y2="736.00" />
<line x1="336.00" y1="736.00" x2="368.00" y2="736.00" />
<line x1="384.00" y1="736.00" x2="400.00" y2="736.00" />
<line x1="1360.00" y1="736.00" x2="1456.00" y2="736.00" />
<line x1="672.00" y1="720.00" x2="736.00" y2="720.00" />
<line x1="752.00" y1="720.00" x2="768.00" y2="720.00" />
<line x1="192.00" y1="800.00" x2="288.00" y2="800.00" />
<line x1="320.00" y1="800.00" x2="368.00" y2="800.00" />
<line x1="384.00" y1="800.00" x2="592.00" y2="800.00" />
<line x1="608.00" y1="800.00" x2="672.00" y2="800.00" />
<line x1="768.00" y1="800.00" x2="784.00" y2="800.00" />
<line x1="800.00" y1="800.00" x2="864.00" y2="800.00" />
<line x1="992.00" y1="800.00" x2="1024.00" y2="800.00" />
<line x1="1040.00" y1="800.00" x2="1216.00" y2="800.00" />
<line x1="1232.00" y1="800.00" x2="1296.00" y2="800.00" />
<line x1="1312.00" y1="800.00" x2="1344.00" y2="800.00" />
<line x1="192.00" y1="816.00" x2="288.00" y2="816.00" />
<line x1="304.00" y1="816.00" x2="368.00" y2="816.00" />
<line x1="384.00" y1="816.00" x2="592.00" y2="816.00" />
<line x1="608.00" y1="816.00" x2="672.00" y2="816.00" />
<line x1="768.00" y1="816.00" x2="784.00" y2="816.00" />
<line x1="800.00" y1="816.00" x2="864.00" y2="816.00" />
<line x1="992.00" y1="816.00" x2="1024.00" y2="816.00" />
<line x1="1040.00" y1="816.00" x2="1216.00" y2="816.00" />
<line x1="1232.00" y1="816.00" x2="1296.00" y2="816.00" />
<line x1="1312.00" y1="816.00" x2="1344.00" y2="816.00" />
<line x1="896.00" y1="832.00" x2="992.00" y2="832.00" />
<line x1="32.00" y1="848.00" x2="112.00" y2="848.00" />
<line x1="144.00" y1="848.00" x2="176.00" y2="848.00" />
<line x1="1072.00" y1="848.00" x2="1152.00" y2="848.00" />
<line x1="208.00" y1="864.00" x2="288.00" y2="864.00" />
<line x1="304.00" y1="864.00" x2="368.00" y2="864.00" />
<line x1="672.00" y1="864.00" x2="720.00" y2="864.00" />
<line x1="752.00" y1="864.00" x2="768.00" y2="864.00" />
<line x1="192.00" y1="880.00" x2="208.00" y2="880.00" />
<line x1="384.00" y1="880.00" x2="592.00" y2="880.00" />
<line x1="608.00" y1="880.00" x2="720.00" y2="880.00" />
<line x1="752.00" y1="880.00" x2="784.00" y2="880.00" />
<line x1="800.00" y1="880.00" x2="864.00" y2="880.00" />
<line x1="896.00" y1="880.00" x2="1024.00" y2="880.00" />
<line x1="1040.00" y1="880.00" x2="1072.00" y2="880.00" />
<line x1="1360.00" y1="880.00" x2="1392.00" y2="880.00" />
<line x1="1408.00" y1="880.00" x2="1456.00" y2="880.00" />
<line x1="192.00" y1="896.00" x2="208.00" y2="896.00" />
<line x1="384.00" y1="896.00" x2="592.00" y2="896.00" />
<line x1="608.00" y1="896.00" x2="704.00" y2="896.00" />
<line x1="880.00" y1="896.00" x2="1024.00" y2="896.00" />
<line x1="1040.00" y1="896.00" x2="1072.00" y2="896.00" />
<line x1="32.00" y1="928.00" x2="192.00" y2="928.00" />
<line x1="384.00" y1="928.00" x2="592.00" y2="928.00" />
<line x1="608.00" y1="928.00" x2="704.00" y2="928.00" />
<line x1="880.00" y1="928.00" x2="1024.00" y2="928.00" />
<line x1="1040.00" y1="928.00" x2="1072.00" y2="928.00" />
<line x1="1152.00" y1="928.00" x2="1216.00" y2="928.00" />
<line x1="1232.00" y1="928.00" x2="1296.00" y2="928.00" />
<line x1="1312.00" y1="928.00" x2="1344.00" y2="928.00" />
<line x1="1360.00" y1="928.00" x2="1392.00" y2="928.00" />
<line x1="384.00" y1="944.00" x2="592.00" y2="944.00" />
<line x1="608.00" y1="944.00" x2="704.00" y2="944.00" />
<line x1="880.00" y1="944.00" x2="1024.00" y2="944.00" />
<line x1="1040.00" y1="944.00" x2="1216.00" y2="944.00" />
<line x1="1232.00" y1="944.00" x2="1296.00" y2="944.00" />
<line x1="1312.00" y1="944.00" x2="1344.00" y2="944.00" />
<line x1="1360.00" y1="944.00" x2="1408.00" y2="944.00" />
<line x1="208.00" y1="992.00" x2="288.00" y2="992.00" />
<line x1="304.00" y1="992.00" x2="368.00" y2="992.00" />
<line x1="944.00" y1="976.00" x2="1024.00" y2="976.00" />
<line x1="1040.00" y1="976.00" x2="1120.00" y2="976.00" />
<line x1="544.00" y1="1008.00" x2="592.00" y2="1008.00" />
<line x1="608.00" y1="1008.00" x2="656.00" y2="1008.00" />
<line x1="944.00" y1="1024.00" x2="1024.00" y2="1024.00" />
<line x1="1040.00" y1="1024.00" x2="1120.00" y2="1024.00" />
<line x1="704.00" y1="1040.00" x2="720.00" y2="1040.00" />
<line x1="752.00" y1="1040.00" x2="864.00" y2="1040.00" />
<line x1="1184.00" y1="1056.00" x2="1216.00" y2="1056.00" />
<line x1="1232.00" y1="1056.00" x2="1264.00" y2="1056.00" />
<line x1="656.00" y1="1088.00" x2="720.00" y2="1088.00" />
<line x1="752.00" y1="1088.00" x2="864.00" y2="1088.00" />
<line x1="880.00" y1="1088.00" x2="1024.00" y2="1088.00" />
<line x1="1040.00" y1="1088.00" x2="1184.00" y2="1088.00" />
<line x1="1264.00" y1="1088.00" x2="1296.00" y2="1088.00" />
<line x1="1312.00" y1="1088.00" x2="1344.00" y2="1088.00" />
<line x1="656.00" y1="1104.00" x2="720.00" y2="1104.00" />
<line x1="752.00" y1="1104.00" x2="864.00" y2="1104.00" />
<line x1="880.00" y1="1104.00" x2="1024.00" y2="1104.00" />
<line x1="1040.00" y1="1104.00" x2="1184.00" y2="1104.00" />
<line x1="1264.00" y1="1104.00" x2="1296.00" y2="1104.00" />
<line x1="1312.00" y1="1104.00" x2="1344.00" y2="1104.00" />
<line x1="400.00" y1="1120.00" x2="512.00" y2="1120.00" />
<line x1="512.00" y1="1136.00" x2="544.00" y2="1136.00" />
<line x1="656.00" y1="1136.00" x2="720.00" y2="1136.00" />
<line x1="880.00" y1="1136.00" x2="1024.00" y2="1136.00" />
<line x1="112.00" y1="1152.00" x2="288.00" y2="1152.00" />
<line x1="304.00" y1="1152.00" x2="368.00" y2="1152.00" />
<line x1="384.00" y1="1152.00" x2="400.00" y2="1152.00" />
<line x1="752.00" y1="1152.00" x2="864.00" y2="1152.00" />
<line x1="128.00" y1="1168.00" x2="288.00" y2="1168.00" />
<line x1="304.00" y1="1168.00" x2="368.00" y2="1168.00" />
<line x1="384.00" y1="1168.00" x2="448.00" y2="1168.00" />
<line x1="464.00" y1="1168.00" x2="592.00" y2="1168.00" />
<line x1="608.00" y1="1168.00" x2="720.00" y2="1168.00" />
<line x1="752.00" y1="1168.00" x2="864.00" y2="1168.00" />
<line x1="1328.00" y1="1168.00" x2="1344.00" y2="1168.00" />
<line x1="1360.00" y1="1168.00" x2="1424.00" y2="1168.00" />
<line x1="880.00" y1="1184.00" x2="1024.00" y2="1184.00" />
<line x1="304.00" y1="1200.00" x2="368.00" y2="1200.00" />
<line x1="384.00" y1="1200.00" x2="448.00" y2="1200.00" />
<line x1="464.00" y1="1200.00" x2="592.00" y2="1200.00" />
<line x1="608.00" y1="1200.00" x2="720.00" y2="1200.00" />
<line x1="752.00" y1="1200.00" x2="864.00" y2="1200.00" />
<line x1="880.00" y1="1200.00" x2="1024.00" y2="1200.00" />
<line x1="1040.00" y1="1200.00" x2="1184.00" y2="1200.00" />
<line x1="1264.00" y1="1200.00" x2="1296.00" y2="1200.00" />
<line x1="1312.00" y1="1200.00" x2="1328.00" y2="1200.00" />
<line x1="304.00" y1="1216.00" x2="368.00" y2="1216.00" />
<line x1="384.00" y1="1216.00" x2="592.00" y2="1216.00" />
<line x1="608.00" y1="1216.00" x2="720.00" y2="1216.00" />
<line x1="736.00" y1="1216.00" x2="864.00" y2="1216.00" />
<line x1="880.00" y1="1216.00" x2="1024.00" y2="1216.00" />
<line x1="1040.00" y1="1216.00" x2="1184.00" y2="1216.00" />
<line x1="1264.00" y1="1216.00" x2="1296.00" y2="1216.00" />
<line x1="1312.00" y1="1216.00" x2="1328.00" y2="1216.00" />
<line x1="1184.00" y1="1232.00" x2="1264.00" y2="1232.00" />
<line x1="1328.00" y1="1232.00" x2="1344.00" y2="1232.00" />
<line x1="1360.00" y1="1232.00" x2="1424.00" y2="1232.00" />
<line x1="80.00" y1="1248.00" x2="112.00" y2="1248.00" />
<line x1="128.00" y1="1248.00" x2="144.00" y2="1248.00" />
<line x1="1264.00" y1="1248.00" x2="1296.00" y2="1248.00" />
<line x1="1312.00" y1="1248.00" x2="1344.00" y2="1248.00" />
<line x1="1360.00" y1="1248.00" x2="1440.00" y2="1248.00" />
<line x1="144.00" y1="1280.00" x2="288.00" y2="1280.00" />
<line x1="304.00" y1="1280.00" x2="368.00" y2="1280.00" />
<line x1="384.00" y1="1280.00" x2="592.00" y2="1280.00" />
<line x1="608.00" y1="1280.00" x2="720.00" y2="1280.00" />
<line x1="736.00" y1="1280.00" x2="864.00" y2="1280.00" />
<line x1="880.00" y1="1280.00" x2="1024.00" y2="1280.00" />
<line x1="1040.00" y1="1280.00" x2="1264.00" y2="1280.00" />
<line x1="144.00" y1="1296.00" x2="288.00" y2="1296.00" />
<line x1="288.00" y1="1312.00" x2="368.00" y2="1312.00" />
<line x1="384.00" y1="1312.00" x2="592.00" y2="1312.00" />
<line x1="608.00" y1="1312.00" x2="720.00" y2="1312.00" />
<line x1="736.00" y1="1312.00" x2="1024.00" y2="1312.00" />
<line x1="1040.00" y1="1312.00" x2="1264.00" y2="1312.00" />
<line x1="80.00" y1="1328.00" x2="144.00" y2="1328.00" />
<line x1="608.00" y1="1344.00" x2="720.00" y2="1344.00" />
<line x1="736.00" y1="1344.00" x2="768.00" y2="1344.00" />
<line x1="944.00" y1="1360.00" x2="1024.00" y2="1360.00" />
<line x1="1040.00" y1="1360.00" x2="1088.00" y2="1360.00" />
<line x1="1264.00" y1="1360.00" x2="1296.00" y2="1360.00" />
<line x1="1312.00" y1="1360.00" x2="1440.00" y2="1360.00" />
<line x1="368.00" y1="1408.00" x2="592.00" y2="1408.00" />
<line x1="1088.00" y1="1408.00" x2="1312.00" y2="1408.00" />
<line x1="384.00" y1="1392.00" x2="592.00" y2="1392.00" />
<line x1="768.00" y1="1392.00" x2="944.00" y2="1392.00" />
<line x1="1088.00" y1="1392.00" x2="1296.00" y2="1392.00" />
<line x1="768.00" y1="1424.00" x2="944.00" y2="1424.00" />
<line x1="592.00" y1="1440.00" x2="768.00" y2="1440.00" />
<line x1="944.00" y1="1472.00" x2="1088.00" y2="1472.00" />
<line x1="320.00" y1="64.00" x2="320.00" y2="144.00" />
<line x1="320.00" y1="160.00" x2="320.00" y2="240.00" />
<line x1="320.00" y1="544.00" x2="320.00" y2="672.00" />
<line x1="320.00" y1="688.00" x2="320.00" y2="800.00" />
<line x1="416.00" y1="64.00" x2="416.00" y2="144.00" />
<line x1="416.00" y1="160.00" x2="416.00" y2="240.00" />
<line x1="1232.00" y1="80.00" x2="1232.00" y2="128.00" />
<line x1="1232.00" y1="192.00" x2="1232.00" y2="304.00" />
<line x1="1232.00" y1="320.00" x2="1232.00" y2="400.00" />
<line x1="1232.00" y1="560.00" x2="1232.00" y2="592.00" />
<line x1="1232.00" y1="608.00" x2="1232.00" y2="800.00" />
<line x1="1232.00" y1="816.00" x2="1232.00" y2="928.00" />
<line x1="1232.00" y1="944.00" x2="1232.00" y2="1056.00" />
<line x1="1392.00" y1="80.00" x2="1392.00" y2="192.00" />
<line x1="1392.00" y1="880.00" x2="1392.00" y2="928.00" />
<line x1="1216.00" y1="128.00" x2="1216.00" y2="304.00" />
<line x1="1216.00" y1="320.00" x2="1216.00" y2="464.00" />
<line x1="1216.00" y1="496.00" x2="1216.00" y2="592.00" />
<line x1="1216.00" y1="608.00" x2="1216.00" y2="800.00" />
<line x1="1216.00" y1="816.00" x2="1216.00" y2="928.00" />
<line x1="1216.00" y1="944.00" x2="1216.00" y2="1056.00" />
<line x1="112.00" y1="144.00" x2="112.00" y2="336.00" />
<line x1="112.00" y1="384.00" x2="112.00" y2="848.00" />
<line x1="112.00" y1="1152.00" x2="112.00" y2="1248.00" />
<line x1="1120.00" y1="144.00" x2="1120.00" y2="288.00" />
<line x1="1120.00" y1="368.00" x2="1120.00" y2="464.00" />
<line x1="1120.00" y1="976.00" x2="1120.00" y2="1024.00" />
<line x1="128.00" y1="160.00" x2="128.00" y2="304.00" />
<line x1="128.00" y1="1168.00" x2="128.00" y2="1248.00" />
<line x1="480.00" y1="160.00" x2="480.00" y2="224.00" />
<line x1="480.00" y1="336.00" x2="480.00" y2="448.00" />
<line x1="480.00" y1="496.00" x2="480.00" y2="512.00" />
<line x1="496.00" y1="160.00" x2="496.00" y2="224.00" />
<line x1="496.00" y1="336.00" x2="496.00" y2="448.00" />
<line x1="496.00" y1="496.00" x2="496.00" y2="512.00" />
<line x1="1104.00" y1="160.00" x2="1104.00" y2="288.00" />
<line x1="1104.00" y1="368.00" x2="1104.00" y2="448.00" />
<line x1="1344.00" y1="192.00" x2="1344.00" y2="304.00" />
<line x1="1344.00" y1="320.00" x2="1344.00" y2="400.00" />
<line x1="1344.00" y1="560.00" x2="1344.00" y2="592.00" />
<line x1="1344.00" y1="608.00" x2="1344.00" y2="800.00" />
<line x1="1344.00" y1="816.00" x2="1344.00" y2="928.00" />
<line x1="1344.00" y1="944.00" x2="1344.00" y2="1088.00" />
<line x1="1344.00" y1="1104.00" x2="1344.00" y2="1168.00" />
<line x1="1344.00" y1="1232.00" x2="1344.00" y2="1248.00" />
<line x1="1360.00" y1="192.00" x2="1360.00" y2="400.00" />
<line x1="1360.00" y1="560.00" x2="1360.00" y2="736.00" />
<line x1="1360.00" y1="880.00" x2="1360.00" y2="928.00" />
<line x1="1360.00" y1="944.00" x2="1360.00" y2="1168.00" />
<line x1="1360.00" y1="1232.00" x2="1360.00" y2="1248.00" />
<line x1="448.00" y1="224.00" x2="448.00" y2="304.00" />
<line x1="448.00" y1="320.00" x2="448.00" y2="336.00" />
<line x1="448.00" y1="1168.00" x2="448.00" y2="1200.00" />
<line x1="528.00" y1="224.00" x2="528.00" y2="304.00" />
<line x1="528.00" y1="320.00" x2="528.00" y2="336.00" />
<line x1="528.00" y1="512.00" x2="528.00" y2="592.00" />
<line x1="528.00" y1="624.00" x2="528.00" y2="672.00" />
<line x1="368.00" y1="240.00" x2="368.00" y2="304.00" />
<line x1="368.00" y1="320.00" x2="368.00" y2="448.00" />
<line x1="368.00" y1="496.00" x2="368.00" y2="608.00" />
<line x1="368.00" y1="736.00" x2="368.00" y2="800.00" />
<line x1="368.00" y1="816.00" x2="368.00" y2="864.00" />
<line x1="368.00" y1="992.00" x2="368.00" y2="1152.00" />
<line x1="368.00" y1="1168.00" x2="368.00" y2="1200.00" />
<line x1="368.00" y1="1216.00" x2="368.00" y2="1280.00" />
<line x1="368.00" y1="1312.00" x2="368.00" y2="1408.00" />
<line x1="384.00" y1="240.00" x2="384.00" y2="304.00" />
<line x1="384.00" y1="320.00" x2="384.00" y2="448.00" />
<line x1="384.00" y1="496.00" x2="384.00" y2="608.00" />
<line x1="384.00" y1="736.00" x2="384.00" y2="800.00" />
<line x1="384.00" y1="816.00" x2="384.00" y2="880.00" />
<line x1="384.00" y1="896.00" x2="384.00" y2="928.00" />
<line x1="384.00" y1="944.00" x2="384.00" y2="1152.00" />
<line x1="384.00" y1="1168.00" x2="384.00" y2="1200.00" />
<line x1="384.00" y1="1216.00" x2="384.00" y2="1280.00" />
<line x1="384.00" y1="1312.00" x2="384.00" y2="1392.00" />
<line x1="848.00" y1="288.00" x2="848.00" y2="304.00" />
<line x1="848.00" y1="320.00" x2="848.00" y2="336.00" />
<line x1="928.00" y1="288.00" x2="928.00" y2="304.00" />
<line x1="928.00" y1="320.00" x2="928.00" y2="336.00" />
<line x1="1072.00" y1="288.00" x2="1072.00" y2="304.00" />
<line x1="1072.00" y1="320.00" x2="1072.00" y2="368.00" />
<line x1="1072.00" y1="848.00" x2="1072.00" y2="880.00" />
<line x1="1072.00" y1="896.00" x2="1072.00" y2="928.00" />
<line x1="1136.00" y1="288.00" x2="1136.00" y2="304.00" />
<line x1="1136.00" y1="320.00" x2="1136.00" y2="368.00" />
<line x1="144.00" y1="320.00" x2="144.00" y2="336.00" />
<line x1="144.00" y1="384.00" x2="144.00" y2="608.00" />
<line x1="144.00" y1="736.00" x2="144.00" y2="848.00" />
<line x1="144.00" y1="1248.00" x2="144.00" y2="1280.00" />
<line x1="144.00" y1="1296.00" x2="144.00" y2="1328.00" />
<line x1="48.00" y1="336.00" x2="48.00" y2="384.00" />
<line x1="208.00" y1="336.00" x2="208.00" y2="384.00" />
<line x1="208.00" y1="864.00" x2="208.00" y2="880.00" />
<line x1="208.00" y1="896.00" x2="208.00" y2="992.00" />
<line x1="880.00" y1="336.00" x2="880.00" y2="448.00" />
<line x1="880.00" y1="896.00" x2="880.00" y2="928.00" />
<line x1="880.00" y1="944.00" x2="880.00" y2="1088.00" />
<line x1="880.00" y1="1104.00" x2="880.00" y2="1136.00" />
<line x1="880.00" y1="1184.00" x2="880.00" y2="1200.00" />
<line x1="880.00" y1="1216.00" x2="880.00" y2="1280.00" />
<line x1="896.00" y1="336.00" x2="896.00" y2="448.00" />
<line x1="896.00" y1="496.00" x2="896.00" y2="576.00" />
<line x1="896.00" y1="656.00" x2="896.00" y2="672.00" />
<line x1="896.00" y1="832.00" x2="896.00" y2="880.00" />
<line x1="256.00" y1="384.00" x2="256.00" y2="544.00" />
<line x1="352.00" y1="384.00" x2="352.00" y2="448.00" />
<line x1="352.00" y1="496.00" x2="352.00" y2="544.00" />
<line x1="1376.00" y1="400.00" x2="1376.00" y2="560.00" />
<line x1="512.00" y1="416.00" x2="512.00" y2="448.00" />
<line x1="512.00" y1="1120.00" x2="512.00" y2="1136.00" />
<line x1="608.00" y1="416.00" x2="608.00" y2="448.00" />
<line x1="608.00" y1="496.00" x2="608.00" y2="592.00" />
<line x1="608.00" y1="624.00" x2="608.00" y2="672.00" />
<line x1="608.00" y1="688.00" x2="608.00" y2="800.00" />
<line x1="608.00" y1="816.00" x2="608.00" y2="880.00" />
<line x1="608.00" y1="896.00" x2="608.00" y2="928.00" />
<line x1="608.00" y1="944.00" x2="608.00" y2="1008.00" />
<line x1="608.00" y1="1168.00" x2="608.00" y2="1200.00" />
<line x1="608.00" y1="1216.00" x2="608.00" y2="1280.00" />
<line x1="608.00" y1="1312.00" x2="608.00" y2="1344.00" />
<line x1="704.00" y1="416.00" x2="704.00" y2="448.00" />
<line x1="704.00" y1="496.00" x2="704.00" y2="560.00" />
<line x1="704.00" y1="896.00" x2="704.00" y2="928.00" />
<line x1="704.00" y1="944.00" x2="704.00" y2="1040.00" />
<line x1="784.00" y1="416.00" x2="784.00" y2="448.00" />
<line x1="784.00" y1="496.00" x2="784.00" y2="560.00" />
<line x1="784.00" y1="576.00" x2="784.00" y2="592.00" />
<line x1="784.00" y1="624.00" x2="784.00" y2="656.00" />
<line x1="784.00" y1="688.00" x2="784.00" y2="800.00" />
<line x1="784.00" y1="816.00" x2="784.00" y2="880.00" />
<line x1="592.00" y1="496.00" x2="592.00" y2="592.00" />
<line x1="592.00" y1="624.00" x2="592.00" y2="672.00" />
<line x1="592.00" y1="688.00" x2="592.00" y2="800.00" />
<line x1="592.00" y1="816.00" x2="592.00" y2="880.00" />
<line x1="592.00" y1="896.00" x2="592.00" y2="928.00" />
<line x1="592.00" y1="944.00" x2="592.00" y2="1008.00" />
<line x1="592.00" y1="1168.00" x2="592.00" y2="1200.00" />
<line x1="592.00" y1="1216.00" x2="592.00" y2="1280.00" />
<line x1="592.00" y1="1312.00" x2="592.00" y2="1392.00" />
<line x1="592.00" y1="1408.00" x2="592.00" y2="1440.00" />
<line x1="864.00" y1="496.00" x2="864.00" y2="576.00" />
<line x1="864.00" y1="656.00" x2="864.00" y2="672.00" />
<line x1="864.00" y1="688.00" x2="864.00" y2="800.00" />
<line x1="864.00" y1="816.00" x2="864.00" y2="880.00" />
<line x1="864.00" y1="1040.00" x2="864.00" y2="1088.00" />
<line x1="864.00" y1="1104.00" x2="864.00" y2="1152.00" />
<line x1="864.00" y1="1168.00" x2="864.00" y2="1200.00" />
<line x1="864.00" y1="1216.00" x2="864.00" y2="1280.00" />
<line x1="944.00" y1="496.00" x2="944.00" y2="576.00" />
<line x1="944.00" y1="656.00" x2="944.00" y2="672.00" />
<line x1="944.00" y1="976.00" x2="944.00" y2="1024.00" />
<line x1="944.00" y1="1360.00" x2="944.00" y2="1392.00" />
<line x1="944.00" y1="1424.00" x2="944.00" y2="1472.00" />
<line x1="960.00" y1="496.00" x2="960.00" y2="592.00" />
<line x1="960.00" y1="608.00" x2="960.00" y2="672.00" />
<line x1="432.00" y1="512.00" x2="432.00" y2="672.00" />
<line x1="288.00" y1="544.00" x2="288.00" y2="672.00" />
<line x1="288.00" y1="688.00" x2="288.00" y2="800.00" />
<line x1="288.00" y1="816.00" x2="288.00" y2="864.00" />
<line x1="288.00" y1="992.00" x2="288.00" y2="1152.00" />
<line x1="288.00" y1="1168.00" x2="288.00" y2="1280.00" />
<line x1="288.00" y1="1296.00" x2="288.00" y2="1312.00" />
<line x1="736.00" y1="560.00" x2="736.00" y2="592.00" />
<line x1="736.00" y1="624.00" x2="736.00" y2="672.00" />
<line x1="736.00" y1="688.00" x2="736.00" y2="720.00" />
<line x1="736.00" y1="1216.00" x2="736.00" y2="1280.00" />
<line x1="736.00" y1="1312.00" x2="736.00" y2="1344.00" />
<line x1="752.00" y1="560.00" x2="752.00" y2="592.00" />
<line x1="752.00" y1="624.00" x2="752.00" y2="672.00" />
<line x1="752.00" y1="688.00" x2="752.00" y2="720.00" />
<line x1="752.00" y1="864.00" x2="752.00" y2="880.00" />
<line x1="752.00" y1="1040.00" x2="752.00" y2="1088.00" />
<line x1="752.00" y1="1104.00" x2="752.00" y2="1152.00" />
<line x1="752.00" y1="1168.00" x2="752.00" y2="1200.00" />
<line x1="1296.00" y1="560.00" x2="1296.00" y2="592.00" />
<line x1="1296.00" y1="608.00" x2="1296.00" y2="800.00" />
<line x1="1296.00" y1="816.00" x2="1296.00" y2="928.00" />
<line x1="1296.00" y1="944.00" x2="1296.00" y2="1088.00" />
<line x1="1296.00" y1="1104.00" x2="1296.00" y2="1200.00" />
<line x1="1296.00" y1="1216.00" x2="1296.00" y2="1248.00" />
<line x1="1296.00" y1="1360.00" x2="1296.00" y2="1392.00" />
<line x1="1312.00" y1="560.00" x2="1312.00" y2="592.00" />
<line x1="1312.00" y1="608.00" x2="1312.00" y2="800.00" />
<line x1="1312.00" y1="816.00" x2="1312.00" y2="928.00" />
<line x1="1312.00" y1="944.00" x2="1312.00" y2="1088.00" />
<line x1="1312.00" y1="1104.00" x2="1312.00" y2="1200.00" />
<line x1="1312.00" y1="1216.00" x2="1312.00" y2="1248.00" />
<line x1="1312.00" y1="1360.00" x2="1312.00" y2="1408.00" />
<line x1="240.00" y1="608.00" x2="240.00" y2="672.00" />
<line x1="240.00" y1="688.00" x2="240.00" y2="736.00" />
<line x1="336.00" y1="608.00" x2="336.00" y2="672.00" />
<line x1="336.00" y1="688.00" x2="336.00" y2="736.00" />
<line x1="400.00" y1="608.00" x2="400.00" y2="672.00" />
<line x1="400.00" y1="688.00" x2="400.00" y2="736.00" />
<line x1="400.00" y1="1120.00" x2="400.00" y2="1152.00" />
<line x1="1040.00" y1="672.00" x2="1040.00" y2="800.00" />
<line x1="1040.00" y1="816.00" x2="1040.00" y2="880.00" />
<line x1="1040.00" y1="896.00" x2="1040.00" y2="928.00" />
<line x1="1040.00" y1="944.00" x2="1040.00" y2="976.00" />
<line x1="1040.00" y1="1024.00" x2="1040.00" y2="1088.00" />
<line x1="1040.00" y1="1104.00" x2="1040.00" y2="1200.00" />
<line x1="1040.00" y1="1216.00" x2="1040.00" y2="1280.00" />
<line x1="1040.00" y1="1312.00" x2="1040.00" y2="1360.00" />
<line x1="800.00" y1="688.00" x2="800.00" y2="800.00" />
<line x1="800.00" y1="816.00" x2="800.00" y2="880.00" />
<line x1="992.00" y1="688.00" x2="992.00" y2="800.00" />
<line x1="992.00" y1="816.00" x2="992.00" y2="832.00" />
<line x1="1024.00" y1="688.00" x2="1024.00" y2="800.00" />
<line x1="1024.00" y1="816.00" x2="1024.00" y2="880.00" />
<line x1="1024.00" y1="896.00" x2="1024.00" y2="928.00" />
<line x1="1024.00" y1="944.00" x2="1024.00" y2="976.00" />
<line x1="1024.00" y1="1024.00" x2="1024.00" y2="1088.00" />
<line x1="1024.00" y1="1104.00" x2="1024.00" y2="1136.00" />
<line x1="1024.00" y1="1184.00" x2="1024.00" y2="1200.00" />
<line x1="1024.00" y1="1216.00" x2="1024.00" y2="1280.00" />
<line x1="1024.00" y1="1312.00" x2="1024.00" y2="1360.00" />
<line x1="672.00" y1="720.00" x2="672.00" y2="800.00" />
<line x1="672.00" y1="816.00" x2="672.00" y2="864.00" />
<line x1="768.00" y1="720.00" x2="768.00" y2="800.00" />
<line x1="768.00" y1="816.00" x2="768.00" y2="864.00" />
<line x1="768.00" y1="1344.00" x2="768.00" y2="1392.00" />
<line x1="768.00" y1="1424.00" x2="768.00" y2="1440.00" />
<line x1="176.00" y1="736.00" x2="176.00" y2="848.00" />
<line x1="192.00" y1="736.00" x2="192.00" y2="800.00" />
<line x1="192.00" y1="816.00" x2="192.00" y2="880.00" />
<line x1="192.00" y1="896.00" x2="192.00" y2="928.00" />
<line x1="1456.00" y1="736.00" x2="1456.00" y2="880.00" />
<line x1="304.00" y1="816.00" x2="304.00" y2="864.00" />
<line x1="304.00" y1="992.00" x2="304.00" y2="1152.00" />
<line x1="304.00" y1="1168.00" x2="304.00" y2="1200.00" />
<line x1="304.00" y1="1216.00" x2="304.00" y2="1280.00" />
<line x1="32.00" y1="848.00" x2="32.00" y2="928.00" />
<line x1="1152.00" y1="848.00" x2="1152.00" y2="928.00" />
<line x1="720.00" y1="864.00" x2="720.00" y2="880.00" />
<line x1="720.00" y1="1040.00" x2="720.00" y2="1088.00" />
<line x1="720.00" y1="1104.00" x2="720.00" y2="1136.00" />
<line x1="720.00" y1="1168.00" x2="720.00" y2="1200.00" />
<line x1="720.00" y1="1216.00" x2="720.00" y2="1280.00" />
<line x1="720.00" y1="1312.00" x2="720.00" y2="1344.00" />
<line x1="1408.00" y1="880.00" x2="1408.00" y2="944.00" />
<line x1="544.00" y1="1008.00" x2="544.00" y2="1136.00" />
<line x1="656.00" y1="1008.00" x2="656.00" y2="1088.00" />
<line x1="656.00" y1="1104.00" x2="656.00" y2="1136.00" />
<line x1="1184.00" y1="1056.00" x2="1184.00" y2="1088.00" />
<line x1="1184.00" y1="1104.00" x2="1184.00" y2="1200.00" />
<line x1="1184.00" y1="1216.00" x2="1184.00" y2="1232.00" />
<line x1="1264.00" y1="1056.00" x2="1264.00" y2="1088.00" />
<line x1="1264.00" y1="1104.00" x2="1264.00" y2="1200.00" />
<line x1="1264.00" y1="1216.00" x2="1264.00" y2="1232.00" />
<line x1="1264.00" y1="1248.00" x2="1264.00" y2="1280.00" />
<line x1="1264.00" y1="1312.00" x2="1264.00" y2="1360.00" />
<line x1="464.00" y1="1168.00" x2="464.00" y2="1200.00" />
<line x1="1328.00" y1="1168.00" x2="1328.00" y2="1200.00" />
<line x1="1328.00" y1="1216.00" x2="1328.00" y2="1232.00" />
<line x1="1424.00" y1="1168.00" x2="1424.00" y2="1232.00" />
<line x1="80.00" y1="1248.00" x2="80.00" y2="1328.00" />
<line x1="1440.00" y1="1248.00" x2="1440.00" y2="1360.00" />
<line x1="1088.00" y1="1360.00" x2="1088.00" y2="1392.00" />
<line x1="1088.00" y1="1408.00" x2="1088.00" y2="1472.00" />
  </g>
  <g class="features">
<line data-feature-type="stairsDown" x1="1299.60" y1="484.96" x2="1308.40" y2="484.96" /><line x1="1300.72" y1="487.58" x2="1307.28" y2="487.58" /><line x1="1301.84" y1="491.04" x2="1306.16" y2="491.04" />
<line data-feature-type="stairsUp" x1="789.84" y1="964.96" x2="794.16" y2="964.96" /><line x1="788.72" y1="967.58" x2="795.28" y2="967.58" /><line x1="787.60" y1="971.04" x2="796.40" y2="971.04" />
<circle data-feature-type="pillar" cx="296.00" cy="936.00" r="3.52" />
<circle data-feature-type="pillar" cx="328.00" cy="936.00" r="3.52" />
<g data-feature-type="well"><circle cx="312.00" cy="936.00" r="3.52" /><circle cx="312.00" cy="936.00" r="1.92" /></g>
<circle data-feature-type="pillar" cx="1400.00" cy="808.00" r="3.52" />
<circle data-feature-type="pillar" cx="312.00" cy="472.00" r="3.52" />
<circle data-feature-type="pillar" cx="1352.00" cy="1304.00" r="3.52" />
<circle data-feature-type="pillar" cx="872.00" cy="616.00" r="3.52" />
<circle data-feature-type="pillar" cx="600.00" cy="1096.00" r="3.52" />
<circle data-feature-type="pillar" cx="632.00" cy="1096.00" r="3.52" />
<circle data-feature-type="pillar" cx="184.00" cy="680.00" r="3.52" />
<g data-feature-type="well"><circle cx="200.00" cy="680.00" r="3.52" /><circle cx="200.00" cy="680.00" r="1.92" /></g>
<g data-feature-type="trap"><line x1="164.80" y1="676.80" x2="171.20" y2="683.20" /><line x1="164.80" y1="683.20" x2="171.20" y2="676.80" /></g>
<circle data-feature-type="pillar" cx="376.00" cy="680.00" r="3.52" />
<circle data-feature-type="pillar" cx="1320.00" cy="136.00" r="3.52" />
<circle data-feature-type="pillar" cx="1320.00" cy="168.00" r="3.52" />
<circle data-feature-type="pillar" cx="952.00" cy="760.00" r="3.52" />
<circle data-feature-type="pillar" cx="488.00" cy="600.00" r="3.52" />
<g data-feature-type="well"><circle cx="504.00" cy="600.00" r="3.52" /><circle cx="504.00" cy="600.00" r="1.92" /></g>
<circle data-feature-type="pillar" cx="136.00" cy="360.00" r="3.52" />
<circle data-feature-type="pillar" cx="1112.00" cy="888.00" r="3.52" />
<circle data-feature-type="pillar" cx="1224.00" cy="1144.00" r="3.52" />
<circle data-feature-type="pillar" cx="120.00" cy="888.00" r="3.52" />
<circle data-feature-type="pillar" cx="728.00" cy="792.00" r="3.52" />
<circle data-feature-type="pillar" cx="1320.00" cy="488.00" r="3.52" />
<circle data-feature-type="pillar" cx="1304.00" cy="520.00" r="3.52" />
<g data-feature-type="statue"><rect x="1285.76" y="488.45" width="4.48" height="2.24" /><circle cx="1288.00" cy="487.42" r="1.44" /></g>
<circle data-feature-type="pillar" cx="808.00" cy="968.00" r="3.52" />
<g data-feature-type="well"><circle cx="776.00" cy="968.00" r="3.52" /><circle cx="776.00" cy="968.00" r="1.92" /></g>
<circle data-feature-type="pillar" cx="744.00" cy="488.00" r="3.52" />
<circle data-feature-type="pillar" cx="1016.00" cy="1416.00" r="3.52" />
<g data-feature-type="statue"><rect x="1029.76" y="1416.45" width="4.48" height="2.24" /><circle cx="1032.00" cy="1415.42" r="1.44" /></g>
<circle data-feature-type="pillar" cx="1032.00" cy="1000.00" r="3.52" />
  </g>
  <g class="thresholds">
<rect data-threshold-type="door" x="372.00" y="934.00" width="8.00" height="4.00" fill="#ffffff" stroke="#4f89a8" stroke-width="1.28" />
<rect data-threshold-type="door" x="1396.00" y="870.00" width="8.00" height="4.00" fill="#ffffff" stroke="#4f89a8" stroke-width="1.28" />
<line data-threshold-type="secret" x1="308.00" y1="536.00" x2="316.00" y2="536.00" stroke="#4f89a8" stroke-width="1.92" stroke-dasharray="1.92 1.92" />
<rect data-threshold-type="door" x="1268.00" y="1302.00" width="8.00" height="4.00" fill="#ffffff" stroke="#4f89a8" stroke-width="1.28" />
<rect data-threshold-type="door" x="868.00" y="582.00" width="8.00" height="4.00" fill="#ffffff" stroke="#4f89a8" stroke-width="1.28" />
<g data-threshold-type="locked" stroke="#4f89a8" fill="none" stroke-width="1.28"><rect x="596.00" y="1158.00" width="8.00" height="4.00" fill="#ffffff" /><circle cx="600.00" cy="1157.12" r="1.44" /></g>
<rect data-threshold-type="door" x="180.00" y="726.00" width="8.00" height="4.00" fill="#ffffff" stroke="#4f89a8" stroke-width="1.28" />
<rect data-threshold-type="door" x="852.00" y="310.00" width="8.00" height="4.00" fill="#ffffff" stroke="#4f89a8" stroke-width="1.28" />
<rect data-threshold-type="door" x="372.00" y="726.00" width="8.00" height="4.00" fill="#ffffff" stroke="#4f89a8" stroke-width="1.28" />
<rect data-threshold-type="door" x="1236.00" y="150.00" width="8.00" height="4.00" fill="#ffffff" stroke="#4f89a8" stroke-width="1.28" />
<rect data-threshold-type="door" x="132.00" y="1286.00" width="8.00" height="4.00" fill="#ffffff" stroke="#4f89a8" stroke-width="1.28" />
<rect data-threshold-type="door" x="916.00" y="694.00" width="8.00" height="4.00" fill="#ffffff" stroke="#4f89a8" stroke-width="1.28" />
<rect data-threshold-type="door" x="436.00" y="678.00" width="8.00" height="4.00" fill="#ffffff" stroke="#4f89a8" stroke-width="1.28" />
<line data-threshold-type="secret" x1="596.00" y1="472.00" x2="604.00" y2="472.00" stroke="#4f89a8" stroke-width="1.92" stroke-dasharray="1.92 1.92" />
<rect data-threshold-type="door" x="132.00" y="342.00" width="8.00" height="4.00" fill="#ffffff" stroke="#4f89a8" stroke-width="1.28" />
<line data-threshold-type="secret" x1="1092.00" y1="920.00" x2="1100.00" y2="920.00" stroke="#4f89a8" stroke-width="1.92" stroke-dasharray="1.92 1.92" />
<rect data-threshold-type="door" x="1220.00" y="1062.00" width="8.00" height="4.00" fill="#ffffff" stroke="#4f89a8" stroke-width="1.28" />
<rect data-threshold-type="door" x="180.00" y="886.00" width="8.00" height="4.00" fill="#ffffff" stroke="#4f89a8" stroke-width="1.28" />
<rect data-threshold-type="door" x="1348.00" y="1174.00" width="8.00" height="4.00" fill="#ffffff" stroke="#4f89a8" stroke-width="1.28" />
<rect data-threshold-type="door" x="868.00" y="1174.00" width="8.00" height="4.00" fill="#ffffff" stroke="#4f89a8" stroke-width="1.28" />
<line data-threshold-type="secret" x1="740.00" y1="856.00" x2="748.00" y2="856.00" stroke="#4f89a8" stroke-width="1.92" stroke-dasharray="1.92 1.92" />
<rect data-threshold-type="door" x="1220.00" y="550.00" width="8.00" height="4.00" fill="#ffffff" stroke="#4f89a8" stroke-width="1.28" />
<rect data-threshold-type="door" x="452.00" y="310.00" width="8.00" height="4.00" fill="#ffffff" stroke="#4f89a8" stroke-width="1.28" />
<g data-threshold-type="locked" stroke="#4f89a8" fill="none" stroke-width="1.28"><rect x="372.00" y="230.00" width="8.00" height="4.00" fill="#ffffff" /><circle cx="376.00" cy="229.12" r="1.44" /></g>
<rect data-threshold-type="door" x="740.00" y="902.00" width="8.00" height="4.00" fill="#ffffff" stroke="#4f89a8" stroke-width="1.28" />
<rect data-threshold-type="door" x="1124.00" y="310.00" width="8.00" height="4.00" fill="#ffffff" stroke="#4f89a8" stroke-width="1.28" />
<rect data-threshold-type="door" x="452.00" y="1158.00" width="8.00" height="4.00" fill="#ffffff" stroke="#4f89a8" stroke-width="1.28" />
<rect data-threshold-type="door" x="708.00" y="470.00" width="8.00" height="4.00" fill="#ffffff" stroke="#4f89a8" stroke-width="1.28" />
<rect data-threshold-type="door" x="756.00" y="1414.00" width="8.00" height="4.00" fill="#ffffff" stroke="#4f89a8" stroke-width="1.28" />
<rect data-threshold-type="door" x="948.00" y="1398.00" width="8.00" height="4.00" fill="#ffffff" stroke="#4f89a8" stroke-width="1.28" />
<rect data-threshold-type="door" x="1028.00" y="982.00" width="8.00" height="4.00" fill="#ffffff" stroke="#4f89a8" stroke-width="1.28" />
  </g>
  <g class="labels">
<text x="296.00" y="937.92" text-anchor="middle">1</text>
<text x="1400.00" y="809.92" text-anchor="middle">2</text>
<text x="312.00" y="473.92" text-anchor="middle">3</text>
<text x="1352.00" y="1305.92" text-anchor="middle">4</text>
<text x="872.00" y="617.92" text-anchor="middle">5</text>
<text x="600.00" y="1097.92" text-anchor="middle">6</text>
<text x="184.00" y="681.92" text-anchor="middle">7</text>
<text x="888.00" y="313.92" text-anchor="middle">8</text>
<text x="376.00" y="681.92" text-anchor="middle">9</text>
<text x="1320.00" y="137.92" text-anchor="middle">10</text>
<text x="120.00" y="1289.92" text-anchor="middle">11</text>
<text x="952.00" y="761.92" text-anchor="middle">12</text>
<text x="488.00" y="601.92" text-anchor="middle">13</text>
<text x="568.00" y="457.92" text-anchor="middle">14</text>
<text x="136.00" y="361.92" text-anchor="middle">15</text>
<text x="1112.00" y="889.92" text-anchor="middle">16</text>
<text x="1224.00" y="1145.92" text-anchor="middle">17</text>
<text x="120.00" y="889.92" text-anchor="middle">18</text>
<text x="1384.00" y="1209.92" text-anchor="middle">19</text>
<text x="952.00" y="1161.92" text-anchor="middle">20</text>
<text x="728.00" y="793.92" text-anchor="middle">21</text>
<text x="1304.00" y="489.92" text-anchor="middle">22</text>
<text x="488.00" y="281.92" text-anchor="middle">23</text>
<text x="376.00" y="153.92" text-anchor="middle">24</text>
<text x="792.00" y="969.92" text-anchor="middle">25</text>
<text x="1112.00" y="329.92" text-anchor="middle">26</text>
<text x="456.00" y="1145.92" text-anchor="middle">27</text>
<text x="744.00" y="489.92" text-anchor="middle">28</text>
<text x="680.00" y="1401.92" text-anchor="middle">29</text>
<text x="1016.00" y="1417.92" text-anchor="middle">30</text>
<text x="1032.00" y="1001.92" text-anchor="middle">31</text>
  </g>
</svg>