<?xml version="1.0" encoding="UTF-8"?>
<svg xmlns="http://www.w3.org/2000/svg" width="1488" height="1536" viewBox="0 0 1488.00 1536.00" role="img" aria-label="MapIR render: Learned Generated Map 2">
  <defs>
    <style>
      .grid { stroke: #d7e7ef; stroke-width: 0.64; opacity: 0.72; }
      .walls { stroke: #6fa8c1; stroke-width: 1.92; fill: none; stroke-linecap: square; }
      .thresholds { fill: none; stroke-linecap: round; }
      .features { stroke: #5c92ab; fill: none; stroke-width: 1.60; stroke-linecap: round; stroke-linejoin: round; }
      .labels { fill: #5c92ab; font-size: 7.20px; font-family: "Courier New", monospace; font-weight: 600; }
    </style>
  </defs>
  <rect x="0" y="0" width="1488.00" height="1536.00" fill="#5d9fbc" />
  <g class="texture" stroke="#9ec4d6" stroke-width="0.96" opacity="0.2" fill="none"><path d="M 1291.87 656.80 Q 1276.60 638.53 1268.52 628.23" /><path d="M 466.10 1258.71 Q 432.20 1251.68 390.92 1238.47" /><path d="M 1247.35 625.05 Q 1237.46 597.69 1239.28 560.37" /><path d="M 127.80 622.83 Q 157.44 620.60 175.58 599.51" /><path d="M 1348.67 1341.49 Q 1367.15 1316.95 1378.06 1284.69" /><path d="M 644.80 1270.68 Q 623.52 1232.18 608.54 1215.14" /><path d="M 55.76 1400.24 Q 73.03 1410.29 98.54 1405.59" /><path d="M 99.25 780.03 Q 133.98 779.01 160.87 801.89" /><path d="M 1445.74 805.02 Q 1457.22 829.63 1479.37 831.22" /><path d="M 1028.51 1136.21 Q 1054.16 1146.85 1052.75 1146.44" /><path d="M 1191.74 192.60 Q 1153.85 177.75 1110.31 152.77" /><path d="M 222.83 1127.82 Q 212.80 1135.10 194.28 1147.36" /><path d="M 376.43 850.68 Q 384.29 887.94 425.50 925.93" /><path d="M 541.22 443.70 Q 510.74 441.20 472.27 441.92" /><path d="M 335.99 1394.60 Q 313.69 1375.72 296.20 1384.05" /><path d="M 699.25 1150.05 Q 708.17 1184.52 696.67 1211.67" /><path d="M 1476.54 231.79 Q 1465.01 193.14 1468.43 134.16" /><path d="M 1116.00 842.17 Q 1103.42 832.12 1120.21 814.63" /><path d="M 1426.39 1279.39 Q 1413.75 1324.07 1412.08 1362.87" /><path d="M 1215.21 1073.18 Q 1215.80 1093.15 1228.02 1106.32" /><path d="M 598.14 797.36 Q 577.46 813.85 564.17 797.35" /><path d="M 243.31 771.49 Q 237.90 795.43 248.92 822.07" /><path d="M 823.93 818.50 Q 837.55 816.45 862.33 809.48" /><path d="M 1027.57 1316.57 Q 1005.04 1335.14 984.90 1379.97" /><path d="M 133.80 1449.10 Q 104.50 1458.34 81.79 1474.99" /><path d="M 905.20 1521.06 Q 878.19 1485.97 847.14 1469.99" /><path d="M 353.79 420.53 Q 327.01 399.26 303.03 381.87" /><path d="M 612.12 652.70 Q 628.71 643.45 621.58 620.67" /><path d="M 1328.59 1304.38 Q 1319.33 1275.84 1346.54 1252.64" /><path d="M 1447.57 424.15 Q 1462.72 397.24 1486.55 371.10" /><path d="M 820.21 1440.91 Q 779.73 1457.42 751.45 1475.87" /><path d="M 384.09 1305.72 Q 399.18 1332.93 408.57 1337.83" /><path d="M 1258.67 1424.89 Q 1209.48 1438.49 1185.50 1455.67" /><path d="M 667.03 1314.65 Q 665.91 1336.48 653.82 1352.85" /><path d="M 211.63 1159.31 Q 191.37 1131.65 186.53 1083.99" /><path d="M 23.75 1429.60 Q 9.88 1432.36 -12.57 1435.91" /></g>
  <g class="floors">
<rect x="480.00" y="48.00" width="112.00" height="112.00" fill="#fbfdfe" />
<rect x="672.00" y="64.00" width="144.00" height="64.00" fill="#fbfdfe" />
<rect x="928.00" y="80.00" width="80.00" height="64.00" fill="#fbfdfe" />
<rect x="592.00" y="96.00" width="80.00" height="32.00" fill="#fbfdfe" />
<rect x="96.00" y="112.00" width="384.00" height="16.00" fill="#fbfdfe" />
<rect x="816.00" y="112.00" width="112.00" height="16.00" fill="#fbfdfe" />
<rect x="96.00" y="128.00" width="16.00" height="1040.00" fill="#fbfdfe" />
<rect x="624.00" y="128.00" width="16.00" height="1344.00" fill="#fbfdfe" />
<rect x="736.00" y="128.00" width="16.00" height="1200.00" fill="#fbfdfe" />
<rect x="528.00" y="160.00" width="16.00" height="304.00" fill="#fbfdfe" />
<rect x="400.00" y="176.00" width="96.00" height="176.00" fill="#fbfdfe" />
<rect x="864.00" y="192.00" width="128.00" height="112.00" fill="#fbfdfe" />
<rect x="128.00" y="208.00" width="160.00" height="96.00" fill="#fbfdfe" />
<rect x="1264.00" y="208.00" width="128.00" height="64.00" fill="#fbfdfe" />
<rect x="752.00" y="240.00" width="112.00" height="32.00" fill="#fbfdfe" />
<rect x="1024.00" y="240.00" width="240.00" height="16.00" fill="#fbfdfe" />
<rect x="288.00" y="256.00" width="112.00" height="16.00" fill="#fbfdfe" />
<rect x="496.00" y="256.00" width="32.00" height="16.00" fill="#fbfdfe" />
<rect x="544.00" y="256.00" width="80.00" height="16.00" fill="#fbfdfe" />
<rect x="640.00" y="256.00" width="96.00" height="160.00" fill="#fbfdfe" />
<rect x="1024.00" y="256.00" width="80.00" height="96.00" fill="#fbfdfe" />
<rect x="384.00" y="272.00" width="16.00" height="80.00" fill="#fbfdfe" />
<rect x="752.00" y="272.00" width="32.00" height="144.00" fill="#fbfdfe" />
<rect x="1328.00" y="272.00" width="16.00" height="384.00" fill="#fbfdfe" />
<rect x="992.00" y="288.00" width="32.00" height="16.00" fill="#fbfdfe" />
<rect x="208.00" y="304.00" width="16.00" height="1104.00" fill="#fbfdfe" />
<rect x="864.00" y="304.00" width="32.00" height="752.00" fill="#fbfdfe" />
<rect x="928.00" y="304.00" width="16.00" height="256.00" fill="#fbfdfe" />
<rect x="160.00" y="336.00" width="48.00" height="176.00" fill="#fbfdfe" />
<rect x="224.00" y="336.00" width="48.00" height="176.00" fill="#fbfdfe" />
<rect x="784.00" y="336.00" width="80.00" height="16.00" fill="#fbfdfe" />
<rect x="896.00" y="336.00" width="32.00" height="16.00" fill="#fbfdfe" />
<rect x="944.00" y="336.00" width="80.00" height="16.00" fill="#fbfdfe" />
<rect x="1104.00" y="336.00" width="224.00" height="16.00" fill="#fbfdfe" />
<rect x="432.00" y="352.00" width="32.00" height="704.00" fill="#fbfdfe" />
<rect x="1088.00" y="352.00" width="16.00" height="1024.00" fill="#fbfdfe" />
<rect x="384.00" y="368.00" width="48.00" height="144.00" fill="#fbfdfe" />
<rect x="464.00" y="368.00" width="16.00" height="144.00" fill="#fbfdfe" />
<rect x="1056.00" y="368.00" width="32.00" height="192.00" fill="#fbfdfe" />
<rect x="1104.00" y="368.00" width="48.00" height="192.00" fill="#fbfdfe" />
<rect x="1168.00" y="384.00" width="160.00" height="64.00" fill="#fbfdfe" />
<rect x="272.00" y="416.00" width="112.00" height="16.00" fill="#fbfdfe" />
<rect x="480.00" y="416.00" width="48.00" height="32.00" fill="#fbfdfe" />
<rect x="544.00" y="416.00" width="48.00" height="48.00" fill="#fbfdfe" />
<rect x="368.00" y="432.00" width="16.00" height="1024.00" fill="#fbfdfe" />
<rect x="592.00" y="432.00" width="32.00" height="32.00" fill="#fbfdfe" />
<rect x="640.00" y="432.00" width="96.00" height="32.00" fill="#fbfdfe" />
<rect x="752.00" y="432.00" width="112.00" height="32.00" fill="#fbfdfe" />
<rect x="896.00" y="432.00" width="32.00" height="32.00" fill="#fbfdfe" />
<rect x="944.00" y="432.00" width="112.00" height="32.00" fill="#fbfdfe" />
<rect x="1152.00" y="432.00" width="16.00" height="16.00" fill="#fbfdfe" />
<rect x="1216.00" y="448.00" width="16.00" height="656.00" fill="#fbfdfe" />
<rect x="1248.00" y="448.00" width="16.00" height="1040.00" fill="#fbfdfe" />
<rect x="576.00" y="464.00" width="16.00" height="864.00" fill="#fbfdfe" />
<rect x="992.00" y="464.00" width="16.00" height="800.00" fill="#fbfdfe" />
<rect x="528.00" y="480.00" width="48.00" height="128.00" fill="#fbfdfe" />
<rect x="832.00" y="496.00" width="32.00" height="128.00" fill="#fbfdfe" />
<rect x="896.00" y="496.00" width="32.00" height="128.00" fill="#fbfdfe" />
<rect x="256.00" y="528.00" width="112.00" height="176.00" fill="#fbfdfe" />
<rect x="384.00" y="528.00" width="32.00" height="176.00" fill="#fbfdfe" />
<rect x="416.00" y="544.00" width="16.00" height="16.00" fill="#fbfdfe" />
<rect x="464.00" y="544.00" width="64.00" height="16.00" fill="#fbfdfe" />
<rect x="592.00" y="544.00" width="32.00" height="16.00" fill="#fbfdfe" />
<rect x="640.00" y="544.00" width="96.00" height="16.00" fill="#fbfdfe" />
<rect x="752.00" y="544.00" width="80.00" height="16.00" fill="#fbfdfe" />
<rect x="944.00" y="544.00" width="48.00" height="16.00" fill="#fbfdfe" />
<rect x="1008.00" y="544.00" width="48.00" height="16.00" fill="#fbfdfe" />
<rect x="1152.00" y="544.00" width="64.00" height="16.00" fill="#fbfdfe" />
<rect x="1232.00" y="544.00" width="16.00" height="16.00" fill="#fbfdfe" />
<rect x="1264.00" y="544.00" width="64.00" height="16.00" fill="#fbfdfe" />
<rect x="1344.00" y="544.00" width="112.00" height="112.00" fill="#fbfdfe" />
<rect x="704.00" y="560.00" width="16.00" height="192.00" fill="#fbfdfe" />
<rect x="1104.00" y="560.00" width="16.00" height="704.00" fill="#fbfdfe" />
<rect x="1296.00" y="560.00" width="32.00" height="96.00" fill="#fbfdfe" />
<rect x="1040.00" y="576.00" width="48.00" height="128.00" fill="#fbfdfe" />
<rect x="1120.00" y="576.00" width="16.00" height="128.00" fill="#fbfdfe" />
<rect x="816.00" y="592.00" width="16.00" height="880.00" fill="#fbfdfe" />
<rect x="928.00" y="592.00" width="64.00" height="16.00" fill="#fbfdfe" />
<rect x="1008.00" y="592.00" width="32.00" height="16.00" fill="#fbfdfe" />
<rect x="1136.00" y="592.00" width="80.00" height="16.00" fill="#fbfdfe" />
<rect x="1232.00" y="592.00" width="16.00" height="16.00" fill="#fbfdfe" />
<rect x="1264.00" y="592.00" width="32.00" height="16.00" fill="#fbfdfe" />
<rect x="560.00" y="608.00" width="16.00" height="512.00" fill="#fbfdfe" />
<rect x="32.00" y="624.00" width="64.00" height="128.00" fill="#fbfdfe" />
<rect x="112.00" y="624.00" width="64.00" height="128.00" fill="#fbfdfe" />
<rect x="656.00" y="624.00" width="48.00" height="128.00" fill="#fbfdfe" />
<rect x="720.00" y="624.00" width="16.00" height="128.00" fill="#fbfdfe" />
<rect x="1376.00" y="656.00" width="16.00" height="288.00" fill="#fbfdfe" />
<rect x="752.00" y="688.00" width="64.00" height="16.00" fill="#fbfdfe" />
<rect x="832.00" y="688.00" width="32.00" height="16.00" fill="#fbfdfe" />
<rect x="896.00" y="688.00" width="96.00" height="16.00" fill="#fbfdfe" />
<rect x="1008.00" y="688.00" width="32.00" height="16.00" fill="#fbfdfe" />
<rect x="1136.00" y="688.00" width="80.00" height="16.00" fill="#fbfdfe" />
<rect x="1232.00" y="688.00" width="16.00" height="16.00" fill="#fbfdfe" />
<rect x="1264.00" y="688.00" width="112.00" height="16.00" fill="#fbfdfe" />
<rect x="336.00" y="704.00" width="16.00" height="464.00" fill="#fbfdfe" />
<rect x="1360.00" y="704.00" width="16.00" height="240.00" fill="#fbfdfe" />
<rect x="1392.00" y="720.00" width="48.00" height="112.00" fill="#fbfdfe" />
<rect x="592.00" y="768.00" width="32.00" height="16.00" fill="#fbfdfe" />
<rect x="640.00" y="768.00" width="96.00" height="16.00" fill="#fbfdfe" />
<rect x="752.00" y="768.00" width="64.00" height="16.00" fill="#fbfdfe" />
<rect x="832.00" y="768.00" width="32.00" height="16.00" fill="#fbfdfe" />
<rect x="896.00" y="768.00" width="96.00" height="16.00" fill="#fbfdfe" />
<rect x="1008.00" y="768.00" width="80.00" height="16.00" fill="#fbfdfe" />
<rect x="1120.00" y="768.00" width="96.00" height="16.00" fill="#fbfdfe" />
<rect x="1232.00" y="768.00" width="16.00" height="16.00" fill="#fbfdfe" />
<rect x="1264.00" y="768.00" width="96.00" height="16.00" fill="#fbfdfe" />
<rect x="640.00" y="800.00" width="32.00" height="128.00" fill="#fbfdfe" />
<rect x="608.00" y="816.00" width="16.00" height="96.00" fill="#fbfdfe" />
<rect x="672.00" y="816.00" width="32.00" height="96.00" fill="#fbfdfe" />
<rect x="592.00" y="832.00" width="16.00" height="80.00" fill="#fbfdfe" />
<rect x="704.00" y="832.00" width="16.00" height="80.00" fill="#fbfdfe" />
<rect x="1184.00" y="832.00" width="32.00" height="112.00" fill="#fbfdfe" />
<rect x="1232.00" y="832.00" width="16.00" height="112.00" fill="#fbfdfe" />
<rect x="1264.00" y="832.00" width="16.00" height="112.00" fill="#fbfdfe" />
<rect x="720.00" y="848.00" width="16.00" height="32.00" fill="#fbfdfe" />
<rect x="1296.00" y="848.00" width="64.00" height="96.00" fill="#fbfdfe" />
<rect x="1392.00" y="848.00" width="48.00" height="96.00" fill="#fbfdfe" />
<rect x="320.00" y="864.00" width="16.00" height="192.00" fill="#fbfdfe" />
<rect x="416.00" y="864.00" width="16.00" height="192.00" fill="#fbfdfe" />
<rect x="464.00" y="864.00" width="16.00" height="192.00" fill="#fbfdfe" />
<rect x="752.00" y="864.00" width="64.00" height="16.00" fill="#fbfdfe" />
<rect x="832.00" y="864.00" width="32.00" height="16.00" fill="#fbfdfe" />
<rect x="896.00" y="864.00" width="96.00" height="16.00" fill="#fbfdfe" />
<rect x="1008.00" y="864.00" width="80.00" height="176.00" fill="#fbfdfe" />
<rect x="1120.00" y="864.00" width="64.00" height="16.00" fill="#fbfdfe" />
<rect x="1280.00" y="864.00" width="16.00" height="48.00" fill="#fbfdfe" />
<rect x="304.00" y="880.00" width="16.00" height="304.00" fill="#fbfdfe" />
<rect x="352.00" y="880.00" width="16.00" height="144.00" fill="#fbfdfe" />
<rect x="224.00" y="896.00" width="80.00" height="16.00" fill="#fbfdfe" />
<rect x="384.00" y="896.00" width="32.00" height="16.00" fill="#fbfdfe" />
<rect x="480.00" y="896.00" width="80.00" height="16.00" fill="#fbfdfe" />
<rect x="720.00" y="896.00" width="16.00" height="16.00" fill="#fbfdfe" />
<rect x="752.00" y="896.00" width="64.00" height="16.00" fill="#fbfdfe" />
<rect x="832.00" y="896.00" width="32.00" height="160.00" fill="#fbfdfe" />
<rect x="896.00" y="896.00" width="96.00" height="16.00" fill="#fbfdfe" />
<rect x="1120.00" y="896.00" width="64.00" height="16.00" fill="#fbfdfe" />
<rect x="288.00" y="912.00" width="16.00" height="96.00" fill="#fbfdfe" />
<rect x="272.00" y="944.00" width="16.00" height="16.00" fill="#fbfdfe" />
<rect x="384.00" y="944.00" width="16.00" height="16.00" fill="#fbfdfe" />
<rect x="1344.00" y="944.00" width="16.00" height="128.00" fill="#fbfdfe" />
<rect x="112.00" y="960.00" width="64.00" height="176.00" fill="#fbfdfe" />
<rect x="1312.00" y="960.00" width="32.00" height="112.00" fill="#fbfdfe" />
<rect x="1360.00" y="960.00" width="32.00" height="112.00" fill="#fbfdfe" />
<rect x="384.00" y="1008.00" width="32.00" height="16.00" fill="#fbfdfe" />
<rect x="480.00" y="1008.00" width="80.00" height="16.00" fill="#fbfdfe" />
<rect x="592.00" y="1008.00" width="32.00" height="16.00" fill="#fbfdfe" />
<rect x="640.00" y="1008.00" width="96.00" height="16.00" fill="#fbfdfe" />
<rect x="752.00" y="1008.00" width="64.00" height="16.00" fill="#fbfdfe" />
<rect x="896.00" y="1008.00" width="96.00" height="16.00" fill="#fbfdfe" />
<rect x="1120.00" y="1008.00" width="96.00" height="16.00" fill="#fbfdfe" />
<rect x="1232.00" y="1008.00" width="16.00" height="16.00" fill="#fbfdfe" />
<rect x="1264.00" y="1008.00" width="48.00" height="16.00" fill="#fbfdfe" />
<rect x="176.00" y="1040.00" width="32.00" height="16.00" fill="#fbfdfe" />
<rect x="224.00" y="1040.00" width="80.00" height="16.00" fill="#fbfdfe" />
<rect x="352.00" y="1040.00" width="16.00" height="16.00" fill="#fbfdfe" />
<rect x="384.00" y="1040.00" width="32.00" height="16.00" fill="#fbfdfe" />
<rect x="480.00" y="1040.00" width="80.00" height="16.00" fill="#fbfdfe" />
<rect x="1040.00" y="1040.00" width="16.00" height="416.00" fill="#fbfdfe" />
<rect x="1168.00" y="1040.00" width="48.00" height="64.00" fill="#fbfdfe" />
<rect x="1232.00" y="1040.00" width="16.00" height="64.00" fill="#fbfdfe" />
<rect x="432.00" y="1056.00" width="16.00" height="400.00" fill="#fbfdfe" />
<rect x="528.00" y="1056.00" width="32.00" height="64.00" fill="#fbfdfe" />
<rect x="592.00" y="1056.00" width="32.00" height="64.00" fill="#fbfdfe" />
<rect x="880.00" y="1056.00" width="16.00" height="128.00" fill="#fbfdfe" />
<rect x="640.00" y="1072.00" width="96.00" height="16.00" fill="#fbfdfe" />
<rect x="752.00" y="1072.00" width="64.00" height="16.00" fill="#fbfdfe" />
<rect x="832.00" y="1072.00" width="48.00" height="16.00" fill="#fbfdfe" />
<rect x="896.00" y="1072.00" width="96.00" height="16.00" fill="#fbfdfe" />
<rect x="1008.00" y="1072.00" width="32.00" height="192.00" fill="#fbfdfe" />
<rect x="1056.00" y="1072.00" width="32.00" height="192.00" fill="#fbfdfe" />
<rect x="1120.00" y="1072.00" width="48.00" height="16.00" fill="#fbfdfe" />
<rect x="912.00" y="1088.00" width="80.00" height="176.00" fill="#fbfdfe" />
<rect x="272.00" y="1120.00" width="32.00" height="64.00" fill="#fbfdfe" />
<rect x="320.00" y="1120.00" width="16.00" height="64.00" fill="#fbfdfe" />
<rect x="112.00" y="1152.00" width="96.00" height="16.00" fill="#fbfdfe" />
<rect x="224.00" y="1152.00" width="48.00" height="16.00" fill="#fbfdfe" />
<rect x="352.00" y="1152.00" width="16.00" height="16.00" fill="#fbfdfe" />
<rect x="384.00" y="1152.00" width="48.00" height="16.00" fill="#fbfdfe" />
<rect x="448.00" y="1152.00" width="128.00" height="16.00" fill="#fbfdfe" />
<rect x="592.00" y="1152.00" width="32.00" height="176.00" fill="#fbfdfe" />
<rect x="640.00" y="1152.00" width="96.00" height="32.00" fill="#fbfdfe" />
<rect x="752.00" y="1152.00" width="64.00" height="32.00" fill="#fbfdfe" />
<rect x="832.00" y="1152.00" width="48.00" height="32.00" fill="#fbfdfe" />
<rect x="896.00" y="1152.00" width="16.00" height="32.00" fill="#fbfdfe" />
<rect x="544.00" y="1168.00" width="32.00" height="160.00" fill="#fbfdfe" />
<rect x="1120.00" y="1168.00" width="128.00" height="16.00" fill="#fbfdfe" />
<rect x="528.00" y="1184.00" width="16.00" height="128.00" fill="#fbfdfe" />
<rect x="672.00" y="1184.00" width="64.00" height="144.00" fill="#fbfdfe" />
<rect x="752.00" y="1184.00" width="32.00" height="144.00" fill="#fbfdfe" />
<rect x="336.00" y="1200.00" width="32.00" height="128.00" fill="#fbfdfe" />
<rect x="384.00" y="1200.00" width="16.00" height="128.00" fill="#fbfdfe" />
<rect x="1280.00" y="1216.00" width="112.00" height="160.00" fill="#fbfdfe" />
<rect x="640.00" y="1248.00" width="32.00" height="16.00" fill="#fbfdfe" />
<rect x="784.00" y="1248.00" width="32.00" height="16.00" fill="#fbfdfe" />
<rect x="832.00" y="1248.00" width="80.00" height="16.00" fill="#fbfdfe" />
<rect x="224.00" y="1264.00" width="112.00" height="16.00" fill="#fbfdfe" />
<rect x="1056.00" y="1296.00" width="32.00" height="16.00" fill="#fbfdfe" />
<rect x="1104.00" y="1296.00" width="144.00" height="16.00" fill="#fbfdfe" />
<rect x="1264.00" y="1296.00" width="16.00" height="16.00" fill="#fbfdfe" />
<rect x="128.00" y="1312.00" width="80.00" height="96.00" fill="#fbfdfe" />
<rect x="224.00" y="1312.00" width="80.00" height="96.00" fill="#fbfdfe" />
<rect x="720.00" y="1328.00" width="16.00" height="48.00" fill="#fbfdfe" />
<rect x="304.00" y="1360.00" width="64.00" height="16.00" fill="#fbfdfe" />
<rect x="384.00" y="1360.00" width="48.00" height="16.00" fill="#fbfdfe" />
<rect x="448.00" y="1360.00" width="176.00" height="16.00" fill="#fbfdfe" />
<rect x="640.00" y="1360.00" width="80.00" height="16.00" fill="#fbfdfe" />
<rect x="736.00" y="1360.00" width="80.00" height="96.00" fill="#fbfdfe" />
<rect x="832.00" y="1360.00" width="208.00" height="16.00" fill="#fbfdfe" />
<rect x="1056.00" y="1360.00" width="32.00" height="16.00" fill="#fbfdfe" />
<rect x="1104.00" y="1360.00" width="144.00" height="16.00" fill="#fbfdfe" />
<rect x="832.00" y="1376.00" width="80.00" height="80.00" fill="#fbfdfe" />
<rect x="1184.00" y="1392.00" width="64.00" height="96.00" fill="#fbfdfe" />
<rect x="1264.00" y="1392.00" width="64.00" height="96.00" fill="#fbfdfe" />
<rect x="592.00" y="1408.00" width="32.00" height="64.00" fill="#fbfdfe" />
<rect x="640.00" y="1408.00" width="16.00" height="64.00" fill="#fbfdfe" />
<rect x="384.00" y="1440.00" width="48.00" height="16.00" fill="#fbfdfe" />
<rect x="448.00" y="1440.00" width="144.00" height="16.00" fill="#fbfdfe" />
<rect x="656.00" y="1440.00" width="80.00" height="16.00" fill="#fbfdfe" />
<rect x="912.00" y="1440.00" width="128.00" height="16.00" fill="#fbfdfe" />
<rect x="1056.00" y="1440.00" width="128.00" height="16.00" fill="#fbfdfe" />
<rect x="752.00" y="1456.00" width="64.00" height="16.00" fill="#fbfdfe" />
<rect x="832.00" y="1456.00" width="64.00" height="16.00" fill="#fbfdfe" />
  </g>
  <g class="grid">
<line x1="0.00" y1="0" x2="0.00" y2="1536.00" />
<line x1="16.00" y1="0" x2="16.00" y2="1536.00" />
<line x1="32.00" y1="0" x2="32.00" y2="1536.00" />
<line x1="48.00" y1="0" x2="48.00" y2="1536.00" />
<line x1="64.00" y1="0" x2="64.00" y2="1536.00" />
<line x1="80.00" y1="0" x2="80.00" y2="1536.00" />
<line x1="96.00" y1="0" x2="96.00" y2="1536.00" />
<line x1="112.00" y1="0" x2="112.00" y2="1536.00" />
<line x1="128.00" y1="0" x2="128.00" y2="1536.00" />
<line x1="144.00" y1="0" x2="144.00" y2="1536.00" />
<line x1="160.00" y1="0" x2="160.00" y2="1536.00" />
<line x1="176.00" y1="0" x2="176.00" y2="1536.00" />
<line x1="192.00" y1="0" x2="192.00" y2="1536.00" />
<line x1="208.00" y1="0" x2="208.00" y2="1536.00" />
<line x1="224.00" y1="0" x2="224.00" y2="1536.00" />
<line x1="240.00" y1="0" x2="240.00" y2="1536.00" />
<line x1="256.00" y1="0" x2="256.00" y2="1536.00" />
<line x1="272.00" y1="0" x2="272.00" y2="1536.00" />
<line x1="288.00" y1="0" x2="288.00" y2="1536.00" />
<line x1="304.00" y1="0" x2="304.00" y2="1536.00" />
<line x1="320.00" y1="0" x2="320.00" y2="1536.00" />
<line x1="336.00" y1="0" x2="336.00" y2="1536.00" />
<line x1="352.00" y1="0" x2="352.00" y2="1536.00" />
<line x1="368.00" y1="0" x2="368.00" y2="1536.00" />
<line x1="384.00" y1="0" x2="384.00" y2="1536.00" />
<line x1="400.00" y1="0" x2="400.00" y2="1536.00" />
<line x1="416.00" y1="0" x2="416.00" y2="1536.00" />
<line x1="432.00" y1="0" x2="432.00" y2="1536.00" />
<line x1="448.00" y1="0" x2="448.00" y2="1536.00" />
<line x1="464.00" y1="0" x2="464.00" y2="1536.00" />
<line x1="480.00" y1="0" x2="480.00" y2="1536.00" />
<line x1="496.00" y1="0" x2="496.00" y2="1536.00" />
<line x1="512.00" y1="0" x2="512.00" y2="1536.00" />
<line x1="528.00" y1="0" x2="528.00" y2="1536.00" />
<line x1="544.00" y1="0" x2="544.00" y2="1536.00" />
<line x1="560.00" y1="0" x2="560.00" y2="1536.00" />
<line x1="576.00" y1="0" x2="576.00" y2="1536.00" />
<line x1="592.00" y1="0" x2="592.00" y2="1536.00" />
<line x1="608.00" y1="0" x2="608.00" y2="1536.00" />
<line x1="624.00" y1="0" x2="624.00" y2="1536.00" />
<line x1="640.00" y1="0" x2="640.00" y2="1536.00" />
<line x1="656.00" y1="0" x2="656.00" y2="1536.00" />
<line x1="672.00" y1="0" x2="672.00" y2="1536.00" />
<line x1="688.00" y1="0" x2="688.00" y2="1536.00" />
<line x1="704.00" y1="0" x2="704.00" y2="1536.00" />
<line x1="720.00" y1="0" x2="720.00" y2="1536.00" />
<line x1="736.00" y1="0" x2="736.00" y2="1536.00" />
<line x1="752.00" y1="0" x2="752.00" y2="1536.00" />
<line x1="768.00" y1="0" x2="768.00" y2="1536.00" />
<line x1="784.00" y1="0" x2="784.00" y2="1536.00" />
<line x1="800.00" y1="0" x2="800.00" y2="1536.00" />
<line x1="816.00" y1="0" x2="816.00" y2="1536.00" />
<line x1="832.00" y1="0" x2="832.00" y2="1536.00" />
<line x1="848.00" y1="0" x2="848.00" y2="1536.00" />
<line x1="864.00" y1="0" x2="864.00" y2="1536.00" />
<line x1="880.00" y1="0" x2="880.00" y2="1536.00" />
<line x1="896.00" y1="0" x2="896.00" y2="1536.00" />
<line x1="912.00" y1="0" x2="912.00" y2="1536.00" />
<line x1="928.00" y1="0" x2="928.00" y2="1536.00" />
<line x1="944.00" y1="0" x2="944.00" y2="1536.00" />
<line x1="960.00" y1="0" x2="960.00" y2="1536.00" />
<line x1="976.00" y1="0" x2="976.00" y2="1536.00" />
<line x1="992.00" y1="0" x2="992.00" y2="1536.00" />
<line x1="1008.00" y1="0" x2="1008.00" y2="1536.00" />
<line x1="1024.00" y1="0" x2="1024.00" y2="1536.00" />
<line x1="1040.00" y1="0" x2="1040.00" y2="1536.00" />
<line x1="1056.00" y1="0" x2="1056.00" y2="1536.00" />
<line x1="1072.00" y1="0" x2="1072.00" y2="1536.00" />
<line x1="1088.00" y1="0" x2="1088.00" y2="1536.00" />
<line x1="1104.00" y1="0" x2="1104.00" y2="1536.00" />
<line x1="1120.00" y1="0" x2="1120.00" y2="1536.00" />
<line x1="1136.00" y1="0" x2="1136.00" y2="1536.00" />
<line x1="1152.00" y1="0" x2="1152.00" y2="1536.00" />
<line x1="1168.00" y1="0" x2="1168.00" y2="1536.00" />
<line x1="1184.00" y1="0" x2="1184.00" y2="1536.00" />
<line x1="1200.00" y1="0" x2="1200.00" y2="1536.00" />
<line x1="1216.00" y1="0" x2="1216.00" y2="1536.00" />
<line x1="1232.00" y1="0" x2="1232.00" y2="1536.00" />
<line x1="1248.00" y1="0" x2="1248.00" y2="1536.00" />
<line x1="1264.00" y1="0" x2="1264.00" y2="1536.00" />
<line x1="1280.00" y1="0" x2="1280.00" y2="1536.00" />
<line x1="1296.00" y1="0" x2="1296.00" y2="1536.00" />
<line x1="1312.00" y1="0" x2="1312.00" y2="1536.00" />
<line x1="1328.00" y1="0" x2="1328.00" y2="1536.00" />
<line x1="1344.00" y1="0" x2="1344.00" y2="1536.00" />
<line x1="1360.00" y1="0" x2="1360.00" y2="1536.00" />
<line x1="1376.00" y1="0" x2="1376.00" y2="1536.00" />
<line x1="1392.00" y1="0" x2="1392.00" y2="1536.00" />
<line x1="1408.00" y1="0" x2="1408.00" y2="1536.00" />
<line x1="1424.00" y1="0" x2="1424.00" y2="1536.00" />
<line x1="1440.00" y1="0" x2="1440.00" y2="1536.00" />
<line x1="1456.00" y1="0" x2="1456.00" y2="1536.00" />
<line x1="1472.00" y1="0" x2="1472.00" y2="1536.00" />
<line x1="1488.00" y1="0" x2="1488.00" y2="1536.00" />
<line x1="0" y1="0.00" x2="1488.00" y2="0.00" />
<line x1="0" y1="16.00" x2="1488.00" y2="16.00" />
<line x1="0" y1="32.00" x2="1488.00" y2="32.00" />
<line x1="0" y1="48.00" x2="1488.00" y2="48.00" />
<line x1="0" y1="64.00" x2="1488.00" y2="64.00" />
<line x1="0" y1="80.00" x2="1488.00" y2="80.00" />
<line x1="0" y1="96.00" x2="1488.00" y2="96.00" />
<line x1="0" y1="112.00" x2="1488.00" y2="112.00" />
<line x1="0" y1="128.00" x2="1488.00" y2="128.00" />
<line x1="0" y1="144.00" x2="1488.00" y2="144.00" />
<line x1="0" y1="160.00" x2="1488.00" y2="160.00" />
<line x1="0" y1="176.00" x2="1488.00" y2="176.00" />
<line x1="0" y1="192.00" x2="1488.00" y2="192.00" />
<line x1="0" y1="208.00" x2="1488.00" y2="208.00" />
<line x1="0" y1="224.00" x2="1488.00" y2="224.00" />
<line x1="0" y1="240.00" x2="1488.00" y2="240.00" />
<line x1="0" y1="256.00" x2="1488.00" y2="256.00" />
<line x1="0" y1="272.00" x2="1488.00" y2="272.00" />
<line x1="0" y1="288.00" x2="1488.00" y2="288.00" />
<line x1="0" y1="304.00" x2="1488.00" y2="304.00" />
<line x1="0" y1="320.00" x2="1488.00" y2="320.00" />
<line x1="0" y1="336.00" x2="1488.00" y2="336.00" />
<line x1="0" y1="352.00" x2="1488.00" y2="352.00" />
<line x1="0" y1="368.00" x2="1488.00" y2="368.00" />
<line x1="0" y1="384.00" x2="1488.00" y2="384.00" />
<line x1="0" y1="400.00" x2="1488.00" y2="400.00" />
<line x1="0" y1="416.00" x2="1488.00" y2="416.00" />
<line x1="0" y1="432.00" x2="1488.00" y2="432.00" />
<line x1="0" y1="448.00" x2="1488.00" y2="448.00" />
<line x1="0" y1="464.00" x2="1488.00" y2="464.00" />
<line x1="0" y1="480.00" x2="1488.00" y2="480.00" />
<line x1="0" y1="496.00" x2="1488.00" y2="496.00" />
<line x1="0" y1="512.00" x2="1488.00" y2="512.00" />
<line x1="0" y1="528.00" x2="1488.00" y2="528.00" />
<line x1="0" y1="544.00" x2="1488.00" y2="544.00" />
<line x1="0" y1="560.00" x2="1488.00" y2="560.00" />
<line x1="0" y1="576.00" x2="1488.00" y2="576.00" />
<line x1="0" y1="592.00" x2="1488.00" y2="592.00" />
<line x1="0" y1="608.00" x2="1488.00" y2="608.00" />
<line x1="0" y1="624.00" x2="1488.00" y2="624.00" />
<line x1="0" y1="640.00" x2="1488.00" y2="640.00" />
<line x1="0" y1="656.00" x2="1488.00" y2="656.00" />
<line x1="0" y1="672.00" x2="1488.00" y2="672.00" />
<line x1="0" y1="688.00" x2="1488.00" y2="688.00" />
<line x1="0" y1="704.00" x2="1488.00" y2="704.00" />
<line x1="0" y1="720.00" x2="1488.00" y2="720.00" />
<line x1="0" y1="736.00" x2="1488.00" y2="736.00" />
<line x1="0" y1="752.00" x2="1488.00" y2="752.00" />
<line x1="0" y1="768.00" x2="1488.00" y2="768.00" />
<line x1="0" y1="784.00" x2="1488.00" y2="784.00" />
<line x1="0" y1="800.00" x2="1488.00" y2="800.00" />
<line x1="0" y1="816.00" x2="1488.00" y2="816.00" />
<line x1="0" y1="832.00" x2="1488.00" y2="832.00" />
<line x1="0" y1="848.00" x2="1488.00" y2="848.00" />
<line x1="0" y1="864.00" x2="1488.00" y2="864.00" />
<line x1="0" y1="880.00" x2="1488.00" y2="880.00" />
<line x1="0" y1="896.00" x2="1488.00" y2="896.00" />
<line x1="0" y1="912.00" x2="1488.00" y2="912.00" />
<line x1="0" y1="928.00" x2="1488.00" y2="928.00" />
<line x1="0" y1="944.00" x2="1488.00" y2="944.00" />
<line x1="0" y1="960.00" x2="1488.00" y2="960.00" />
<line x1="0" y1="976.00" x2="1488.00" y2="976.00" />
<line x1="0" y1="992.00" x2="1488.00" y2="992.00" />
<line x1="0" y1="1008.00" x2="1488.00" y2="1008.00" />
<line x1="0" y1="1024.00" x2="1488.00" y2="1024.00" />
<line x1="0" y1="1040.00" x2="1488.00" y2="1040.00" />
<line x1="0" y1="1056.00" x2="1488.00" y2="1056.00" />
<line x1="0" y1="1072.00" x2="1488.00" y2="1072.00" />
<line x1="0" y1="1088.00" x2="1488.00" y2="1088.00" />
<line x1="0" y1="1104.00" x2="1488.00" y2="1104.00" />
<line x1="0" y1="1120.00" x2="1488.00" y2="1120.00" />
<line x1="0" y1="1136.00" x2="1488.00" y2="1136.00" />
<line x1="0" y1="1152.00" x2="1488.00" y2="1152.00" />
<line x1="0" y1="1168.00" x2="1488.00" y2="1168.00" />
<line x1="0" y1="1184.00" x2="1488.00" y2="1184.00" />
<line x1="0" y1="1200.00" x2="1488.00" y2="1200.00" />
<line x1="0" y1="1216.00" x2="1488.00" y2="1216.00" />
<line x1="0" y1="1232.00" x2="1488.00" y2="1232.00" />
<line x1="0" y1="1248.00" x2="1488.00" y2="1248.00" />
<line x1="0" y1="1264.00" x2="1488.00" y2="1264.00" />
<line x1="0" y1="1280.00" x2="1488.00" y2="1280.00" />
<line x1="0" y1="1296.00" x2="1488.00" y2="1296.00" />
<line x1="0" y1="1312.00" x2="1488.00" y2="1312.00" />
<line x1="0" y1="1328.00" x2="1488.00" y2="1328.00" />
<line x1="0" y1="1344.00" x2="1488.00" y2="1344.00" />
<line x1="0" y1="1360.00" x2="1488.00" y2="1360.00" />
<line x1="0" y1="1376.00" x2="1488.00" y2="1376.00" />
<line x1="0" y1="1392.00" x2="1488.00" y2="1392.00" />
<line x1="0" y1="1408.00" x2="1488.00" y2="1408.00" />
<line x1="0" y1="1424.00" x2="1488.00" y2="1424.00" />
<line x1="0" y1="1440.00" x2="1488.00" y2="1440.00" />
<line x1="0" y1="1456.00" x2="1488.00" y2="1456.00" />
<line x1="0" y1="1472.00" x2="1488.00" y2="1472.00" />
<line x1="0" y1="1488.00" x2="1488.00" y2="1488.00" />
<line x1="0" y1="1504.00" x2="1488.00" y2="1504.00" />
<line x1="0" y1="1520.00" x2="1488.00" y2="1520.00" />
<line x1="0" y1="1536.00" x2="1488.00" y2="1536.00" />
  </g>
  <g class="walls">
<line x1="480.00" y1="48.00" x2="592.00" y2="48.00" />
<line x1="672.00" y1="64.00" x2="816.00" y2="64.00" />
<line x1="928.00" y1="80.00" x2="1008.00" y2="80.00" />
<line x1="592.00" y1="96.00" x2="672.00" y2="96.00" />
<line x1="96.00" y1="112.00" x2="480.00" y2="112.00" />
<line x1="816.00" y1="112.00" x2="928.00" y2="112.00" />
<line x1="112.00" y1="128.00" x2="480.00" y2="128.00" />
<line x1="592.00" y1="128.00" x2="624.00" y2="128.00" />
<line x1="640.00" y1="128.00" x2="736.00" y2="128.00" />
<line x1="752.00" y1="128.00" x2="928.00" y2="128.00" />
<line x1="928.00" y1="144.00" x2="1008.00" y2="144.00" />
<line x1="480.00" y1="160.00" x2="528.00" y2="160.00" />
<line x1="544.00" y1="160.00" x2="592.00" y2="160.00" />
<line x1="400.00" y1="176.00" x2="496.00" y2="176.00" />
<line x1="864.00" y1="192.00" x2="992.00" y2="192.00" />
<line x1="128.00" y1="208.00" x2="288.00" y2="208.00" />
<line x1="1264.00" y1="208.00" x2="1392.00" y2="208.00" />
<line x1="752.00" y1="240.00" x2="864.00" y2="240.00" />
<line x1="1024.00" y1="240.00" x2="1264.00" y2="240.00" />
<line x1="288.00" y1="256.00" x2="400.00" y2="256.00" />
<line x1="496.00" y1="256.00" x2="528.00" y2="256.00" />
<line x1="544.00" y1="256.00" x2="624.00" y2="256.00" />
<line x1="640.00" y1="256.00" x2="736.00" y2="256.00" />
<line x1="1104.00" y1="256.00" x2="1264.00" y2="256.00" />
<line x1="288.00" y1="272.00" x2="384.00" y2="272.00" />
<line x1="496.00" y1="272.00" x2="528.00" y2="272.00" />
<line x1="544.00" y1="272.00" x2="624.00" y2="272.00" />
<line x1="784.00" y1="272.00" x2="864.00" y2="272.00" />
<line x1="1264.00" y1="272.00" x2="1328.00" y2="272.00" />
<line x1="1344.00" y1="272.00" x2="1392.00" y2="272.00" />
<line x1="128.00" y1="304.00" x2="208.00" y2="304.00" />
<line x1="224.00" y1="304.00" x2="288.00" y2="304.00" />
<line x1="896.00" y1="304.00" x2="928.00" y2="304.00" />
<line x1="944.00" y1="304.00" x2="1024.00" y2="304.00" />
<line x1="992.00" y1="288.00" x2="1024.00" y2="288.00" />
<line x1="160.00" y1="336.00" x2="208.00" y2="336.00" />
<line x1="224.00" y1="336.00" x2="272.00" y2="336.00" />
<line x1="784.00" y1="336.00" x2="864.00" y2="336.00" />
<line x1="896.00" y1="336.00" x2="928.00" y2="336.00" />
<line x1="944.00" y1="336.00" x2="1024.00" y2="336.00" />
<line x1="1104.00" y1="336.00" x2="1328.00" y2="336.00" />
<line x1="384.00" y1="352.00" x2="432.00" y2="352.00" />
<line x1="464.00" y1="352.00" x2="496.00" y2="352.00" />
<line x1="784.00" y1="352.00" x2="864.00" y2="352.00" />
<line x1="896.00" y1="352.00" x2="928.00" y2="352.00" />
<line x1="944.00" y1="352.00" x2="1088.00" y2="352.00" />
<line x1="1104.00" y1="352.00" x2="1328.00" y2="352.00" />
<line x1="384.00" y1="368.00" x2="432.00" y2="368.00" />
<line x1="464.00" y1="368.00" x2="480.00" y2="368.00" />
<line x1="1056.00" y1="368.00" x2="1088.00" y2="368.00" />
<line x1="1104.00" y1="368.00" x2="1152.00" y2="368.00" />
<line x1="1168.00" y1="384.00" x2="1328.00" y2="384.00" />
<line x1="272.00" y1="416.00" x2="384.00" y2="416.00" />
<line x1="480.00" y1="416.00" x2="528.00" y2="416.00" />
<line x1="544.00" y1="416.00" x2="592.00" y2="416.00" />
<line x1="640.00" y1="416.00" x2="736.00" y2="416.00" />
<line x1="752.00" y1="416.00" x2="784.00" y2="416.00" />
<line x1="272.00" y1="432.00" x2="368.00" y2="432.00" />
<line x1="592.00" y1="432.00" x2="624.00" y2="432.00" />
<line x1="640.00" y1="432.00" x2="736.00" y2="432.00" />
<line x1="752.00" y1="432.00" x2="864.00" y2="432.00" />
<line x1="896.00" y1="432.00" x2="928.00" y2="432.00" />
<line x1="944.00" y1="432.00" x2="1056.00" y2="432.00" />
<line x1="1152.00" y1="432.00" x2="1168.00" y2="432.00" />
<line x1="480.00" y1="448.00" x2="528.00" y2="448.00" />
<line x1="1152.00" y1="448.00" x2="1216.00" y2="448.00" />
<line x1="1232.00" y1="448.00" x2="1248.00" y2="448.00" />
<line x1="1264.00" y1="448.00" x2="1328.00" y2="448.00" />
<line x1="528.00" y1="464.00" x2="576.00" y2="464.00" />
<line x1="592.00" y1="464.00" x2="624.00" y2="464.00" />
<line x1="640.00" y1="464.00" x2="736.00" y2="464.00" />
<line x1="752.00" y1="464.00" x2="864.00" y2="464.00" />
<line x1="896.00" y1="464.00" x2="928.00" y2="464.00" />
<line x1="944.00" y1="464.00" x2="992.00" y2="464.00" />
<line x1="1008.00" y1="464.00" x2="1056.00" y2="464.00" />
<line x1="528.00" y1="480.00" x2="576.00" y2="480.00" />
<line x1="160.00" y1="512.00" x2="208.00" y2="512.00" />
<line x1="224.00" y1="512.00" x2="272.00" y2="512.00" />
<line x1="384.00" y1="512.00" x2="432.00" y2="512.00" />
<line x1="464.00" y1="512.00" x2="480.00" y2="512.00" />
<line x1="832.00" y1="496.00" x2="864.00" y2="496.00" />
<line x1="896.00" y1="496.00" x2="928.00" y2="496.00" />
<line x1="256.00" y1="528.00" x2="368.00" y2="528.00" />
<line x1="384.00" y1="528.00" x2="416.00" y2="528.00" />
<line x1="416.00" y1="544.00" x2="432.00" y2="544.00" />
<line x1="464.00" y1="544.00" x2="528.00" y2="544.00" />
<line x1="592.00" y1="544.00" x2="624.00" y2="544.00" />
<line x1="640.00" y1="544.00" x2="736.00" y2="544.00" />
<line x1="752.00" y1="544.00" x2="832.00" y2="544.00" />
<line x1="944.00" y1="544.00" x2="992.00" y2="544.00" />
<line x1="1008.00" y1="544.00" x2="1056.00" y2="544.00" />
<line x1="1152.00" y1="544.00" x2="1216.00" y2="544.00" />
<line x1="1232.00" y1="544.00" x2="1248.00" y2="544.00" />
<line x1="1264.00" y1="544.00" x2="1328.00" y2="544.00" />
<line x1="1344.00" y1="544.00" x2="1456.00" y2="544.00" />
<line x1="416.00" y1="560.00" x2="432.00" y2="560.00" />
<line x1="464.00" y1="560.00" x2="528.00" y2="560.00" />
<line x1="592.00" y1="560.00" x2="624.00" y2="560.00" />
<line x1="640.00" y1="560.00" x2="704.00" y2="560.00" />
<line x1="720.00" y1="560.00" x2="736.00" y2="560.00" />
<line x1="752.00" y1="560.00" x2="832.00" y2="560.00" />
<line x1="928.00" y1="560.00" x2="992.00" y2="560.00" />
<line x1="1008.00" y1="560.00" x2="1088.00" y2="560.00" />
<line x1="1120.00" y1="560.00" x2="1216.00" y2="560.00" />
<line x1="1232.00" y1="560.00" x2="1248.00" y2="560.00" />
<line x1="1264.00" y1="560.00" x2="1296.00" y2="560.00" />
<line x1="1040.00" y1="576.00" x2="1088.00" y2="576.00" />
<line x1="1120.00" y1="576.00" x2="1136.00" y2="576.00" />
<line x1="528.00" y1="608.00" x2="560.00" y2="608.00" />
<line x1="928.00" y1="608.00" x2="992.00" y2="608.00" />
<line x1="1008.00" y1="608.00" x2="1040.00" y2="608.00" />
<line x1="1136.00" y1="608.00" x2="1216.00" y2="608.00" />
<line x1="1232.00" y1="608.00" x2="1248.00" y2="608.00" />
<line x1="1264.00" y1="608.00" x2="1296.00" y2="608.00" />
<line x1="816.00" y1="592.00" x2="832.00" y2="592.00" />
<line x1="928.00" y1="592.00" x2="992.00" y2="592.00" />
<line x1="1008.00" y1="592.00" x2="1040.00" y2="592.00" />
<line x1="1136.00" y1="592.00" x2="1216.00" y2="592.00" />
<line x1="1232.00" y1="592.00" x2="1248.00" y2="592.00" />
<line x1="1264.00" y1="592.00" x2="1296.00" y2="592.00" />
<line x1="32.00" y1="624.00" x2="96.00" y2="624.00" />
<line x1="112.00" y1="624.00" x2="176.00" y2="624.00" />
<line x1="656.00" y1="624.00" x2="704.00" y2="624.00" />
<line x1="720.00" y1="624.00" x2="736.00" y2="624.00" />
<line x1="832.00" y1="624.00" x2="864.00" y2="624.00" />
<line x1="896.00" y1="624.00" x2="928.00" y2="624.00" />
<line x1="1296.00" y1="656.00" x2="1376.00" y2="656.00" />
<line x1="1392.00" y1="656.00" x2="1456.00" y2="656.00" />
<line x1="256.00" y1="704.00" x2="336.00" y2="704.00" />
<line x1="352.00" y1="704.00" x2="368.00" y2="704.00" />
<line x1="384.00" y1="704.00" x2="416.00" y2="704.00" />
<line x1="752.00" y1="704.00" x2="816.00" y2="704.00" />
<line x1="832.00" y1="704.00" x2="864.00" y2="704.00" />
<line x1="896.00" y1="704.00" x2="992.00" y2="704.00" />
<line x1="1008.00" y1="704.00" x2="1088.00" y2="704.00" />
<line x1="1120.00" y1="704.00" x2="1216.00" y2="704.00" />
<line x1="1232.00" y1="704.00" x2="1248.00" y2="704.00" />
<line x1="1264.00" y1="704.00" x2="1360.00" y2="704.00" />
<line x1="752.00" y1="688.00" x2="816.00" y2="688.00" />
<line x1="832.00" y1="688.00" x2="864.00" y2="688.00" />
<line x1="896.00" y1="688.00" x2="992.00" y2="688.00" />
<line x1="1008.00" y1="688.00" x2="1040.00" y2="688.00" />
<line x1="1136.00" y1="688.00" x2="1216.00" y2="688.00" />
<line x1="1232.00" y1="688.00" x2="1248.00" y2="688.00" />
<line x1="1264.00" y1="688.00" x2="1376.00" y2="688.00" />
<line x1="1392.00" y1="720.00" x2="1440.00" y2="720.00" />
<line x1="32.00" y1="752.00" x2="96.00" y2="752.00" />
<line x1="112.00" y1="752.00" x2="176.00" y2="752.00" />
<line x1="656.00" y1="752.00" x2="736.00" y2="752.00" />
<line x1="592.00" y1="768.00" x2="624.00" y2="768.00" />
<line x1="640.00" y1="768.00" x2="736.00" y2="768.00" />
<line x1="752.00" y1="768.00" x2="816.00" y2="768.00" />
<line x1="832.00" y1="768.00" x2="864.00" y2="768.00" />
<line x1="896.00" y1="768.00" x2="992.00" y2="768.00" />
<line x1="1008.00" y1="768.00" x2="1088.00" y2="768.00" />
<line x1="1120.00" y1="768.00" x2="1216.00" y2="768.00" />
<line x1="1232.00" y1="768.00" x2="1248.00" y2="768.00" />
<line x1="1264.00" y1="768.00" x2="1360.00" y2="768.00" />
<line x1="592.00" y1="784.00" x2="624.00" y2="784.00" />
<line x1="640.00" y1="784.00" x2="736.00" y2="784.00" />
<line x1="752.00" y1="784.00" x2="816.00" y2="784.00" />
<line x1="832.00" y1="784.00" x2="864.00" y2="784.00" />
<line x1="896.00" y1="784.00" x2="992.00" y2="784.00" />
<line x1="1008.00" y1="784.00" x2="1088.00" y2="784.00" />
<line x1="1120.00" y1="784.00" x2="1216.00" y2="784.00" />
<line x1="1232.00" y1="784.00" x2="1248.00" y2="784.00" />
<line x1="1264.00" y1="784.00" x2="1360.00" y2="784.00" />
<line x1="640.00" y1="800.00" x2="672.00" y2="800.00" />
<line x1="608.00" y1="816.00" x2="624.00" y2="816.00" />
<line x1="672.00" y1="816.00" x2="704.00" y2="816.00" />
<line x1="592.00" y1="832.00" x2="608.00" y2="832.00" />
<line x1="704.00" y1="832.00" x2="720.00" y2="832.00" />
<line x1="1184.00" y1="832.00" x2="1216.00" y2="832.00" />
<line x1="1232.00" y1="832.00" x2="1248.00" y2="832.00" />
<line x1="1264.00" y1="832.00" x2="1280.00" y2="832.00" />
<line x1="1392.00" y1="832.00" x2="1440.00" y2="832.00" />
<line x1="720.00" y1="848.00" x2="736.00" y2="848.00" />
<line x1="1296.00" y1="848.00" x2="1360.00" y2="848.00" />
<line x1="1392.00" y1="848.00" x2="1440.00" y2="848.00" />
<line x1="320.00" y1="864.00" x2="336.00" y2="864.00" />
<line x1="416.00" y1="864.00" x2="432.00" y2="864.00" />
<line x1="464.00" y1="864.00" x2="480.00" y2="864.00" />
<line x1="752.00" y1="864.00" x2="816.00" y2="864.00" />
<line x1="832.00" y1="864.00" x2="864.00" y2="864.00" />
<line x1="896.00" y1="864.00" x2="992.00" y2="864.00" />
<line x1="1008.00" y1="864.00" x2="1088.00" y2="864.00" />
<line x1="1120.00" y1="864.00" x2="1184.00" y2="864.00" />
<line x1="1280.00" y1="864.00" x2="1296.00" y2="864.00" />
<line x1="304.00" y1="880.00" x2="320.00" y2="880.00" />
<line x1="352.00" y1="880.00" x2="368.00" y2="880.00" />
<line x1="720.00" y1="880.00" x2="736.00" y2="880.00" />
<line x1="752.00" y1="880.00" x2="816.00" y2="880.00" />
<line x1="832.00" y1="880.00" x2="864.00" y2="880.00" />
<line x1="896.00" y1="880.00" x2="992.00" y2="880.00" />
<line x1="1120.00" y1="880.00" x2="1184.00" y2="880.00" />
<line x1="224.00" y1="896.00" x2="304.00" y2="896.00" />
<line x1="384.00" y1="896.00" x2="416.00" y2="896.00" />
<line x1="480.00" y1="896.00" x2="560.00" y2="896.00" />
<line x1="720.00" y1="896.00" x2="736.00" y2="896.00" />
<line x1="752.00" y1="896.00" x2="816.00" y2="896.00" />
<line x1="832.00" y1="896.00" x2="864.00" y2="896.00" />
<line x1="896.00" y1="896.00" x2="992.00" y2="896.00" />
<line x1="1120.00" y1="896.00" x2="1184.00" y2="896.00" />
<line x1="224.00" y1="912.00" x2="288.00" y2="912.00" />
<line x1="384.00" y1="912.00" x2="416.00" y2="912.00" />
<line x1="480.00" y1="912.00" x2="560.00" y2="912.00" />
<line x1="592.00" y1="912.00" x2="624.00" y2="912.00" />
<line x1="672.00" y1="912.00" x2="736.00" y2="912.00" />
<line x1="752.00" y1="912.00" x2="816.00" y2="912.00" />
<line x1="896.00" y1="912.00" x2="992.00" y2="912.00" />
<line x1="1120.00" y1="912.00" x2="1184.00" y2="912.00" />
<line x1="1280.00" y1="912.00" x2="1296.00" y2="912.00" />
<line x1="640.00" y1="928.00" x2="672.00" y2="928.00" />
<line x1="272.00" y1="944.00" x2="288.00" y2="944.00" />
<line x1="384.00" y1="944.00" x2="400.00" y2="944.00" />
<line x1="1184.00" y1="944.00" x2="1216.00" y2="944.00" />
<line x1="1232.00" y1="944.00" x2="1248.00" y2="944.00" />
<line x1="1264.00" y1="944.00" x2="1280.00" y2="944.00" />
<line x1="1296.00" y1="944.00" x2="1344.00" y2="944.00" />
<line x1="1360.00" y1="944.00" x2="1440.00" y2="944.00" />
<line x1="112.00" y1="960.00" x2="176.00" y2="960.00" />
<line x1="272.00" y1="960.00" x2="288.00" y2="960.00" />
<line x1="384.00" y1="960.00" x2="400.00" y2="960.00" />
<line x1="1312.00" y1="960.00" x2="1344.00" y2="960.00" />
<line x1="1360.00" y1="960.00" x2="1392.00" y2="960.00" />
<line x1="288.00" y1="1008.00" x2="304.00" y2="1008.00" />
<line x1="384.00" y1="1008.00" x2="416.00" y2="1008.00" />
<line x1="480.00" y1="1008.00" x2="560.00" y2="1008.00" />
<line x1="592.00" y1="1008.00" x2="624.00" y2="1008.00" />
<line x1="640.00" y1="1008.00" x2="736.00" y2="1008.00" />
<line x1="752.00" y1="1008.00" x2="816.00" y2="1008.00" />
<line x1="896.00" y1="1008.00" x2="992.00" y2="1008.00" />
<line x1="1120.00" y1="1008.00" x2="1216.00" y2="1008.00" />
<line x1="1232.00" y1="1008.00" x2="1248.00" y2="1008.00" />
<line x1="1264.00" y1="1008.00" x2="1312.00" y2="1008.00" />
<line x1="352.00" y1="1024.00" x2="368.00" y2="1024.00" />
<line x1="384.00" y1="1024.00" x2="416.00" y2="1024.00" />
<line x1="480.00" y1="1024.00" x2="560.00" y2="1024.00" />
<line x1="592.00" y1="1024.00" x2="624.00" y2="1024.00" />
<line x1="640.00" y1="1024.00" x2="736.00" y2="1024.00" />
<line x1="752.00" y1="1024.00" x2="816.00" y2="1024.00" />
<line x1="896.00" y1="1024.00" x2="992.00" y2="1024.00" />
<line x1="1120.00" y1="1024.00" x2="1216.00" y2="1024.00" />
<line x1="1232.00" y1="1024.00" x2="1248.00" y2="1024.00" />
<line x1="1264.00" y1="1024.00" x2="1312.00" y2="1024.00" />
<line x1="176.00" y1="1040.00" x2="208.00" y2="1040.00" />
<line x1="224.00" y1="1040.00" x2="304.00" y2="1040.00" />
<line x1="352.00" y1="1040.00" x2="368.00" y2="1040.00" />
<line x1="384.00" y1="1040.00" x2="416.00" y2="1040.00" />
<line x1="480.00" y1="1040.00" x2="560.00" y2="1040.00" />
<line x1="1008.00" y1="1040.00" x2="1040.00" y2="1040.00" />
<line x1="1056.00" y1="1040.00" x2="1088.00" y2="1040.00" />
<line x1="1168.00" y1="1040.00" x2="1216.00" y2="1040.00" />
<line x1="1232.00" y1="1040.00" x2="1248.00" y2="1040.00" />
<line x1="176.00" y1="1056.00" x2="208.00" y2="1056.00" />
<line x1="224.00" y1="1056.00" x2="304.00" y2="1056.00" />
<line x1="320.00" y1="1056.00" x2="336.00" y2="1056.00" />
<line x1="352.00" y1="1056.00" x2="368.00" y2="1056.00" />
<line x1="384.00" y1="1056.00" x2="432.00" y2="1056.00" />
<line x1="448.00" y1="1056.00" x2="528.00" y2="1056.00" />
<line x1="592.00" y1="1056.00" x2="624.00" y2="1056.00" />
<line x1="832.00" y1="1056.00" x2="880.00" y2="1056.00" />
<line x1="640.00" y1="1072.00" x2="736.00" y2="1072.00" />
<line x1="752.00" y1="1072.00" x2="816.00" y2="1072.00" />
<line x1="832.00" y1="1072.00" x2="880.00" y2="1072.00" />
<line x1="896.00" y1="1072.00" x2="992.00" y2="1072.00" />
<line x1="1008.00" y1="1072.00" x2="1040.00" y2="1072.00" />
<line x1="1056.00" y1="1072.00" x2="1088.00" y2="1072.00" />
<line x1="1120.00" y1="1072.00" x2="1168.00" y2="1072.00" />
<line x1="1312.00" y1="1072.00" x2="1392.00" y2="1072.00" />
<line x1="640.00" y1="1088.00" x2="736.00" y2="1088.00" />
<line x1="752.00" y1="1088.00" x2="816.00" y2="1088.00" />
<line x1="832.00" y1="1088.00" x2="880.00" y2="1088.00" />
<line x1="896.00" y1="1088.00" x2="912.00" y2="1088.00" />
<line x1="1120.00" y1="1088.00" x2="1168.00" y2="1088.00" />
<line x1="1168.00" y1="1104.00" x2="1248.00" y2="1104.00" />
<line x1="272.00" y1="1120.00" x2="304.00" y2="1120.00" />
<line x1="320.00" y1="1120.00" x2="336.00" y2="1120.00" />
<line x1="528.00" y1="1120.00" x2="576.00" y2="1120.00" />
<line x1="592.00" y1="1120.00" x2="624.00" y2="1120.00" />
<line x1="112.00" y1="1136.00" x2="176.00" y2="1136.00" />
<line x1="96.00" y1="1168.00" x2="208.00" y2="1168.00" />
<line x1="224.00" y1="1168.00" x2="272.00" y2="1168.00" />
<line x1="336.00" y1="1168.00" x2="368.00" y2="1168.00" />
<line x1="384.00" y1="1168.00" x2="432.00" y2="1168.00" />
<line x1="448.00" y1="1168.00" x2="544.00" y2="1168.00" />
<line x1="1120.00" y1="1168.00" x2="1248.00" y2="1168.00" />
<line x1="112.00" y1="1152.00" x2="208.00" y2="1152.00" />
<line x1="224.00" y1="1152.00" x2="272.00" y2="1152.00" />
<line x1="352.00" y1="1152.00" x2="368.00" y2="1152.00" />
<line x1="384.00" y1="1152.00" x2="432.00" y2="1152.00" />
<line x1="448.00" y1="1152.00" x2="576.00" y2="1152.00" />
<line x1="592.00" y1="1152.00" x2="624.00" y2="1152.00" />
<line x1="640.00" y1="1152.00" x2="736.00" y2="1152.00" />
<line x1="752.00" y1="1152.00" x2="816.00" y2="1152.00" />
<line x1="832.00" y1="1152.00" x2="880.00" y2="1152.00" />
<line x1="896.00" y1="1152.00" x2="912.00" y2="1152.00" />
<line x1="272.00" y1="1184.00" x2="336.00" y2="1184.00" />
<line x1="528.00" y1="1184.00" x2="544.00" y2="1184.00" />
<line x1="640.00" y1="1184.00" x2="672.00" y2="1184.00" />
<line x1="784.00" y1="1184.00" x2="816.00" y2="1184.00" />
<line x1="832.00" y1="1184.00" x2="912.00" y2="1184.00" />
<line x1="1120.00" y1="1184.00" x2="1248.00" y2="1184.00" />
<line x1="336.00" y1="1200.00" x2="368.00" y2="1200.00" />
<line x1="384.00" y1="1200.00" x2="400.00" y2="1200.00" />
<line x1="1280.00" y1="1216.00" x2="1392.00" y2="1216.00" />
<line x1="640.00" y1="1248.00" x2="672.00" y2="1248.00" />
<line x1="784.00" y1="1248.00" x2="816.00" y2="1248.00" />
<line x1="832.00" y1="1248.00" x2="912.00" y2="1248.00" />
<line x1="224.00" y1="1264.00" x2="336.00" y2="1264.00" />
<line x1="640.00" y1="1264.00" x2="672.00" y2="1264.00" />
<line x1="784.00" y1="1264.00" x2="816.00" y2="1264.00" />
<line x1="832.00" y1="1264.00" x2="1040.00" y2="1264.00" />
<line x1="1056.00" y1="1264.00" x2="1088.00" y2="1264.00" />
<line x1="1104.00" y1="1264.00" x2="1120.00" y2="1264.00" />
<line x1="224.00" y1="1280.00" x2="336.00" y2="1280.00" />
<line x1="128.00" y1="1312.00" x2="208.00" y2="1312.00" />
<line x1="224.00" y1="1312.00" x2="304.00" y2="1312.00" />
<line x1="528.00" y1="1312.00" x2="544.00" y2="1312.00" />
<line x1="1056.00" y1="1312.00" x2="1088.00" y2="1312.00" />
<line x1="1104.00" y1="1312.00" x2="1248.00" y2="1312.00" />
<line x1="1264.00" y1="1312.00" x2="1280.00" y2="1312.00" />
<line x1="1056.00" y1="1296.00" x2="1088.00" y2="1296.00" />
<line x1="1104.00" y1="1296.00" x2="1248.00" y2="1296.00" />
<line x1="1264.00" y1="1296.00" x2="1280.00" y2="1296.00" />
<line x1="336.00" y1="1328.00" x2="368.00" y2="1328.00" />
<line x1="384.00" y1="1328.00" x2="400.00" y2="1328.00" />
<line x1="544.00" y1="1328.00" x2="624.00" y2="1328.00" />
<line x1="672.00" y1="1328.00" x2="720.00" y2="1328.00" />
<line x1="736.00" y1="1328.00" x2="784.00" y2="1328.00" />
<line x1="304.00" y1="1360.00" x2="368.00" y2="1360.00" />
<line x1="384.00" y1="1360.00" x2="432.00" y2="1360.00" />
<line x1="448.00" y1="1360.00" x2="624.00" y2="1360.00" />
<line x1="640.00" y1="1360.00" x2="720.00" y2="1360.00" />
<line x1="736.00" y1="1360.00" x2="816.00" y2="1360.00" />
<line x1="832.00" y1="1360.00" x2="1040.00" y2="1360.00" />
<line x1="1056.00" y1="1360.00" x2="1088.00" y2="1360.00" />
<line x1="1104.00" y1="1360.00" x2="1248.00" y2="1360.00" />
<line x1="304.00" y1="1376.00" x2="368.00" y2="1376.00" />
<line x1="384.00" y1="1376.00" x2="432.00" y2="1376.00" />
<line x1="448.00" y1="1376.00" x2="624.00" y2="1376.00" />
<line x1="640.00" y1="1376.00" x2="736.00" y2="1376.00" />
<line x1="912.00" y1="1376.00" x2="1040.00" y2="1376.00" />
<line x1="1056.00" y1="1376.00" x2="1248.00" y2="1376.00" />
<line x1="1280.00" y1="1376.00" x2="1392.00" y2="1376.00" />
<line x1="128.00" y1="1408.00" x2="304.00" y2="1408.00" />
<line x1="592.00" y1="1408.00" x2="624.00" y2="1408.00" />
<line x1="640.00" y1="1408.00" x2="656.00" y2="1408.00" />
<line x1="1184.00" y1="1392.00" x2="1248.00" y2="1392.00" />
<line x1="1264.00" y1="1392.00" x2="1328.00" y2="1392.00" />
<line x1="368.00" y1="1456.00" x2="592.00" y2="1456.00" />
<line x1="656.00" y1="1456.00" x2="752.00" y2="1456.00" />
<line x1="896.00" y1="1456.00" x2="1184.00" y2="1456.00" />
<line x1="384.00" y1="1440.00" x2="432.00" y2="1440.00" />
<line x1="448.00" y1="1440.00" x2="592.00" y2="1440.00" />
<line x1="656.00" y1="1440.00" x2="736.00" y2="1440.00" />
<line x1="912.00" y1="1440.00" x2="1040.00" y2="1440.00" />
<line x1="1056.00" y1="1440.00" x2="1184.00" y2="1440.00" />
<line x1="592.00" y1="1472.00" x2="656.00" y2="1472.00" />
<line x1="752.00" y1="1472.00" x2="896.00" y2="1472.00" />
<line x1="1184.00" y1="1488.00" x2="1328.00" y2="1488.00" />
<line x1="480.00" y1="48.00" x2="480.00" y2="112.00" />
<line x1="480.00" y1="128.00" x2="480.00" y2="160.00" />
<line x1="480.00" y1="368.00" x2="480.00" y2="416.00" />
<line x1="480.00" y1="448.00" x2="480.00" y2="512.00" />
<line x1="480.00" y1="864.00" x2="480.00" y2="896.00" />
<line x1="480.00" y1="912.00" x2="480.00" y2="1008.00" />
<line x1="480.00" y1="1024.00" x2="480.00" y2="1040.00" />
<line x1="592.00" y1="48.00" x2="592.00" y2="96.00" />
<line x1="592.00" y1="128.00" x2="592.00" y2="160.00" />
<line x1="592.00" y1="416.00" x2="592.00" y2="432.00" />
<line x1="592.00" y1="464.00" x2="592.00" y2="544.00" />
<line x1="592.00" y1="560.00" x2="592.00" y2="768.00" />
<line x1="592.00" y1="784.00" x2="592.00" y2="832.00" />
<line x1="592.00" y1="912.00" x2="592.00" y2="1008.00" />
<line x1="592.00" y1="1024.00" x2="592.00" y2="1056.00" />
<line x1="592.00" y1="1120.00" x2="592.00" y2="1152.00" />
<line x1="592.00" y1="1408.00" x2="592.00" y2="1440.00" />
<line x1="592.00" y1="1456.00" x2="592.00" y2="1472.00" />
<line x1="672.00" y1="64.00" x2="672.00" y2="96.00" />
<line x1="672.00" y1="800.00" x2="672.00" y2="816.00" />
<line x1="672.00" y1="912.00" x2="672.00" y2="928.00" />
<line x1="672.00" y1="1184.00" x2="672.00" y2="1248.00" />
<line x1="672.00" y1="1264.00" x2="672.00" y2="1328.00" />
<line x1="816.00" y1="64.00" x2="816.00" y2="112.00" />
<line x1="816.00" y1="592.00" x2="816.00" y2="688.00" />
<line x1="816.00" y1="704.00" x2="816.00" y2="768.00" />
<line x1="816.00" y1="784.00" x2="816.00" y2="864.00" />
<line x1="816.00" y1="880.00" x2="816.00" y2="896.00" />
<line x1="816.00" y1="912.00" x2="816.00" y2="1008.00" />
<line x1="816.00" y1="1024.00" x2="816.00" y2="1072.00" />
<line x1="816.00" y1="1088.00" x2="816.00" y2="1152.00" />
<line x1="816.00" y1="1184.00" x2="816.00" y2="1248.00" />
<line x1="816.00" y1="1264.00" x2="816.00" y2="1360.00" />
<line x1="928.00" y1="80.00" x2="928.00" y2="112.00" />
<line x1="928.00" y1="128.00" x2="928.00" y2="144.00" />
<line x1="928.00" y1="304.00" x2="928.00" y2="336.00" />
<line x1="928.00" y1="352.00" x2="928.00" y2="432.00" />
<line x1="928.00" y1="464.00" x2="928.00" y2="496.00" />
<line x1="928.00" y1="560.00" x2="928.00" y2="592.00" />
<line x1="928.00" y1="608.00" x2="928.00" y2="624.00" />
<line x1="1008.00" y1="80.00" x2="1008.00" y2="144.00" />
<line x1="1008.00" y1="464.00" x2="1008.00" y2="544.00" />
<line x1="1008.00" y1="560.00" x2="1008.00" y2="592.00" />
<line x1="1008.00" y1="608.00" x2="1008.00" y2="688.00" />
<line x1="1008.00" y1="704.00" x2="1008.00" y2="768.00" />
<line x1="1008.00" y1="784.00" x2="1008.00" y2="864.00" />
<line x1="1008.00" y1="1040.00" x2="1008.00" y2="1072.00" />
<line x1="96.00" y1="112.00" x2="96.00" y2="624.00" />
<line x1="96.00" y1="752.00" x2="96.00" y2="1168.00" />
<line x1="112.00" y1="128.00" x2="112.00" y2="624.00" />
<line x1="112.00" y1="752.00" x2="112.00" y2="960.00" />
<line x1="112.00" y1="1136.00" x2="112.00" y2="1152.00" />
<line x1="624.00" y1="128.00" x2="624.00" y2="256.00" />
<line x1="624.00" y1="272.00" x2="624.00" y2="432.00" />
<line x1="624.00" y1="464.00" x2="624.00" y2="544.00" />
<line x1="624.00" y1="560.00" x2="624.00" y2="768.00" />
<line x1="624.00" y1="784.00" x2="624.00" y2="816.00" />
<line x1="624.00" y1="912.00" x2="624.00" y2="1008.00" />
<line x1="624.00" y1="1024.00" x2="624.00" y2="1056.00" />
<line x1="624.00" y1="1120.00" x2="624.00" y2="1152.00" />
<line x1="624.00" y1="1328.00" x2="624.00" y2="1360.00" />
<line x1="624.00" y1="1376.00" x2="624.00" y2="1408.00" />
<line x1="640.00" y1="128.00" x2="640.00" y2="256.00" />
<line x1="640.00" y1="416.00" x2="640.00" y2="432.00" />
<line x1="640.00" y1="464.00" x2="640.00" y2="544.00" />
<line x1="640.00" y1="560.00" x2="640.00" y2="768.00" />
<line x1="640.00" y1="784.00" x2="640.00" y2="800.00" />
<line x1="640.00" y1="928.00" x2="640.00" y2="1008.00" />
<line x1="640.00" y1="1024.00" x2="640.00" y2="1072.00" />
<line x1="640.00" y1="1088.00" x2="640.00" y2="1152.00" />
<line x1="640.00" y1="1184.00" x2="640.00" y2="1248.00" />
<line x1="640.00" y1="1264.00" x2="640.00" y2="1360.00" />
<line x1="640.00" y1="1376.00" x2="640.00" y2="1408.00" />
<line x1="736.00" y1="128.00" x2="736.00" y2="256.00" />
<line x1="736.00" y1="416.00" x2="736.00" y2="432.00" />
<line x1="736.00" y1="464.00" x2="736.00" y2="544.00" />
<line x1="736.00" y1="560.00" x2="736.00" y2="624.00" />
<line x1="736.00" y1="752.00" x2="736.00" y2="768.00" />
<line x1="736.00" y1="784.00" x2="736.00" y2="848.00" />
<line x1="736.00" y1="880.00" x2="736.00" y2="896.00" />
<line x1="736.00" y1="912.00" x2="736.00" y2="1008.00" />
<line x1="736.00" y1="1024.00" x2="736.00" y2="1072.00" />
<line x1="736.00" y1="1088.00" x2="736.00" y2="1152.00" />
<line x1="736.00" y1="1328.00" x2="736.00" y2="1360.00" />
<line x1="736.00" y1="1376.00" x2="736.00" y2="1440.00" />
<line x1="752.00" y1="128.00" x2="752.00" y2="240.00" />
<line x1="752.00" y1="416.00" x2="752.00" y2="432.00" />
<line x1="752.00" y1="464.00" x2="752.00" y2="544.00" />
<line x1="752.00" y1="560.00" x2="752.00" y2="688.00" />
<line x1="752.00" y1="704.00" x2="752.00" y2="768.00" />
<line x1="752.00" y1="784.00" x2="752.00" y2="864.00" />
<line x1="752.00" y1="880.00" x2="752.00" y2="896.00" />
<line x1="752.00" y1="912.00" x2="752.00" y2="1008.00" />
<line x1="752.00" y1="1024.00" x2="752.00" y2="1072.00" />
<line x1="752.00" y1="1088.00" x2="752.00" y2="1152.00" />
<line x1="752.00" y1="1456.00" x2="752.00" y2="1472.00" />
<line x1="528.00" y1="160.00" x2="528.00" y2="256.00" />
<line x1="528.00" y1="272.00" x2="528.00" y2="416.00" />
<line x1="528.00" y1="448.00" x2="528.00" y2="464.00" />
<line x1="528.00" y1="480.00" x2="528.00" y2="544.00" />
<line x1="528.00" y1="560.00" x2="528.00" y2="608.00" />
<line x1="528.00" y1="1056.00" x2="528.00" y2="1120.00" />
<line x1="528.00" y1="1184.00" x2="528.00" y2="1312.00" />
<line x1="544.00" y1="160.00" x2="544.00" y2="256.00" />
<line x1="544.00" y1="272.00" x2="544.00" y2="416.00" />
<line x1="544.00" y1="1168.00" x2="544.00" y2="1184.00" />
<line x1="544.00" y1="1312.00" x2="544.00" y2="1328.00" />
<line x1="400.00" y1="176.00" x2="400.00" y2="256.00" />
<line x1="400.00" y1="944.00" x2="400.00" y2="960.00" />
<line x1="400.00" y1="1200.00" x2="400.00" y2="1328.00" />
<line x1="496.00" y1="176.00" x2="496.00" y2="256.00" />
<line x1="496.00" y1="272.00" x2="496.00" y2="352.00" />
<line x1="864.00" y1="192.00" x2="864.00" y2="240.00" />
<line x1="864.00" y1="272.00" x2="864.00" y2="336.00" />
<line x1="864.00" y1="352.00" x2="864.00" y2="432.00" />
<line x1="864.00" y1="464.00" x2="864.00" y2="496.00" />
<line x1="864.00" y1="624.00" x2="864.00" y2="688.00" />
<line x1="864.00" y1="704.00" x2="864.00" y2="768.00" />
<line x1="864.00" y1="784.00" x2="864.00" y2="864.00" />
<line x1="864.00" y1="880.00" x2="864.00" y2="896.00" />
<line x1="992.00" y1="192.00" x2="992.00" y2="288.00" />
<line x1="992.00" y1="464.00" x2="992.00" y2="544.00" />
<line x1="992.00" y1="560.00" x2="992.00" y2="592.00" />
<line x1="992.00" y1="608.00" x2="992.00" y2="688.00" />
<line x1="992.00" y1="704.00" x2="992.00" y2="768.00" />
<line x1="992.00" y1="784.00" x2="992.00" y2="864.00" />
<line x1="992.00" y1="880.00" x2="992.00" y2="896.00" />
<line x1="992.00" y1="912.00" x2="992.00" y2="1008.00" />
<line x1="992.00" y1="1024.00" x2="992.00" y2="1072.00" />
<line x1="128.00" y1="208.00" x2="128.00" y2="304.00" />
<line x1="128.00" y1="1312.00" x2="128.00" y2="1408.00" />
<line x1="288.00" y1="208.00" x2="288.00" y2="256.00" />
<line x1="288.00" y1="272.00" x2="288.00" y2="304.00" />
<line x1="288.00" y1="912.00" x2="288.00" y2="944.00" />
<line x1="288.00" y1="960.00" x2="288.00" y2="1008.00" />
<line x1="1264.00" y1="208.00" x2="1264.00" y2="240.00" />
<line x1="1264.00" y1="256.00" x2="1264.00" y2="272.00" />
<line x1="1264.00" y1="448.00" x2="1264.00" y2="544.00" />
<line x1="1264.00" y1="560.00" x2="1264.00" y2="592.00" />
<line x1="1264.00" y1="608.00" x2="1264.00" y2="688.00" />
<line x1="1264.00" y1="704.00" x2="1264.00" y2="768.00" />
<line x1="1264.00" y1="784.00" x2="1264.00" y2="832.00" />
<line x1="1264.00" y1="944.00" x2="1264.00" y2="1008.00" />
<line x1="1264.00" y1="1024.00" x2="1264.00" y2="1296.00" />
<line x1="1264.00" y1="1312.00" x2="1264.00" y2="1392.00" />
<line x1="1392.00" y1="208.00" x2="1392.00" y2="272.00" />
<line x1="1392.00" y1="656.00" x2="1392.00" y2="720.00" />
<line x1="1392.00" y1="832.00" x2="1392.00" y2="848.00" />
<line x1="1392.00" y1="960.00" x2="1392.00" y2="1072.00" />
<line x1="1392.00" y1="1216.00" x2="1392.00" y2="1376.00" />
<line x1="1024.00" y1="240.00" x2="1024.00" y2="288.00" />
<line x1="1024.00" y1="304.00" x2="1024.00" y2="336.00" />
<line x1="1104.00" y1="256.00" x2="1104.00" y2="336.00" />
<line x1="1104.00" y1="352.00" x2="1104.00" y2="368.00" />
<line x1="1104.00" y1="1264.00" x2="1104.00" y2="1296.00" />
<line x1="1104.00" y1="1312.00" x2="1104.00" y2="1360.00" />
<line x1="384.00" y1="272.00" x2="384.00" y2="352.00" />
<line x1="384.00" y1="368.00" x2="384.00" y2="416.00" />
<line x1="384.00" y1="512.00" x2="384.00" y2="528.00" />
<line x1="384.00" y1="704.00" x2="384.00" y2="896.00" />
<line x1="384.00" y1="912.00" x2="384.00" y2="944.00" />
<line x1="384.00" y1="960.00" x2="384.00" y2="1008.00" />
<line x1="384.00" y1="1024.00" x2="384.00" y2="1040.00" />
<line x1="384.00" y1="1056.00" x2="384.00" y2="1152.00" />
<line x1="384.00" y1="1168.00" x2="384.00" y2="1200.00" />
<line x1="384.00" y1="1328.00" x2="384.00" y2="1360.00" />
<line x1="384.00" y1="1376.00" x2="384.00" y2="1440.00" />
<line x1="784.00" y1="272.00" x2="784.00" y2="336.00" />
<line x1="784.00" y1="352.00" x2="784.00" y2="416.00" />
<line x1="784.00" y1="1184.00" x2="784.00" y2="1248.00" />
<line x1="784.00" y1="1264.00" x2="784.00" y2="1328.00" />
<line x1="1328.00" y1="272.00" x2="1328.00" y2="336.00" />
<line x1="1328.00" y1="352.00" x2="1328.00" y2="384.00" />
<line x1="1328.00" y1="448.00" x2="1328.00" y2="544.00" />
<line x1="1328.00" y1="1392.00" x2="1328.00" y2="1488.00" />
<line x1="1344.00" y1="272.00" x2="1344.00" y2="544.00" />
<line x1="1344.00" y1="944.00" x2="1344.00" y2="960.00" />
<line x1="208.00" y1="304.00" x2="208.00" y2="336.00" />
<line x1="208.00" y1="512.00" x2="208.00" y2="1040.00" />
<line x1="208.00" y1="1056.00" x2="208.00" y2="1152.00" />
<line x1="208.00" y1="1168.00" x2="208.00" y2="1312.00" />
<line x1="224.00" y1="304.00" x2="224.00" y2="336.00" />
<line x1="224.00" y1="512.00" x2="224.00" y2="896.00" />
<line x1="224.00" y1="912.00" x2="224.00" y2="1040.00" />
<line x1="224.00" y1="1056.00" x2="224.00" y2="1152.00" />
<line x1="224.00" y1="1168.00" x2="224.00" y2="1264.00" />
<line x1="224.00" y1="1280.00" x2="224.00" y2="1312.00" />
<line x1="896.00" y1="304.00" x2="896.00" y2="336.00" />
<line x1="896.00" y1="352.00" x2="896.00" y2="432.00" />
<line x1="896.00" y1="464.00" x2="896.00" y2="496.00" />
<line x1="896.00" y1="624.00" x2="896.00" y2="688.00" />
<line x1="896.00" y1="704.00" x2="896.00" y2="768.00" />
<line x1="896.00" y1="784.00" x2="896.00" y2="864.00" />
<line x1="896.00" y1="880.00" x2="896.00" y2="896.00" />
<line x1="896.00" y1="912.00" x2="896.00" y2="1008.00" />
<line x1="896.00" y1="1024.00" x2="896.00" y2="1072.00" />
<line x1="896.00" y1="1088.00" x2="896.00" y2="1152.00" />
<line x1="896.00" y1="1456.00" x2="896.00" y2="1472.00" />
<line x1="944.00" y1="304.00" x2="944.00" y2="336.00" />
<line x1="944.00" y1="352.00" x2="944.00" y2="432.00" />
<line x1="944.00" y1="464.00" x2="944.00" y2="544.00" />
<line x1="160.00" y1="336.00" x2="160.00" y2="512.00" />
<line x1="272.00" y1="336.00" x2="272.00" y2="416.00" />
<line x1="272.00" y1="432.00" x2="272.00" y2="512.00" />
<line x1="272.00" y1="944.00" x2="272.00" y2="960.00" />
<line x1="272.00" y1="1120.00" x2="272.00" y2="1152.00" />
<line x1="272.00" y1="1168.00" x2="272.00" y2="1184.00" />
<line x1="432.00" y1="352.00" x2="432.00" y2="368.00" />
<line x1="432.00" y1="512.00" x2="432.00" y2="544.00" />
<line x1="432.00" y1="560.00" x2="432.00" y2="864.00" />
<line x1="432.00" y1="1056.00" x2="432.00" y2="1152.00" />
<line x1="432.00" y1="1168.00" x2="432.00" y2="1360.00" />
<line x1="432.00" y1="1376.00" x2="432.00" y2="1440.00" />
<line x1="464.00" y1="352.00" x2="464.00" y2="368.00" />
<line x1="464.00" y1="512.00" x2="464.00" y2="544.00" />
<line x1="464.00" y1="560.00" x2="464.00" y2="864.00" />
<line x1="1088.00" y1="352.00" x2="1088.00" y2="368.00" />
<line x1="1088.00" y1="560.00" x2="1088.00" y2="576.00" />
<line x1="1088.00" y1="704.00" x2="1088.00" y2="768.00" />
<line x1="1088.00" y1="784.00" x2="1088.00" y2="864.00" />
<line x1="1088.00" y1="1040.00" x2="1088.00" y2="1072.00" />
<line x1="1088.00" y1="1264.00" x2="1088.00" y2="1296.00" />
<line x1="1088.00" y1="1312.00" x2="1088.00" y2="1360.00" />
<line x1="1056.00" y1="368.00" x2="1056.00" y2="432.00" />
<line x1="1056.00" y1="464.00" x2="1056.00" y2="544.00" />
<line x1="1056.00" y1="1040.00" x2="1056.00" y2="1072.00" />
<line x1="1056.00" y1="1264.00" x2="1056.00" y2="1296.00" />
<line x1="1056.00" y1="1312.00" x2="1056.00" y2="1360.00" />
<line x1="1056.00" y1="1376.00" x2="1056.00" y2="1440.00" />
<line x1="1152.00" y1="368.00" x2="1152.00" y2="432.00" />
<line x1="1152.00" y1="448.00" x2="1152.00" y2="544.00" />
<line x1="1168.00" y1="384.00" x2="1168.00" y2="432.00" />
<line x1="1168.00" y1="1040.00" x2="1168.00" y2="1072.00" />
<line x1="1168.00" y1="1088.00" x2="1168.00" y2="1104.00" />
<line x1="368.00" y1="432.00" x2="368.00" y2="528.00" />
<line x1="368.00" y1="704.00" x2="368.00" y2="880.00" />
<line x1="368.00" y1="1024.00" x2="368.00" y2="1040.00" />
<line x1="368.00" y1="1056.00" x2="368.00" y2="1152.00" />
<line x1="368.00" y1="1168.00" x2="368.00" y2="1200.00" />
<line x1="368.00" y1="1328.00" x2="368.00" y2="1360.00" />
<line x1="368.00" y1="1376.00" x2="368.00" y2="1456.00" />
<line x1="1216.00" y1="448.00" x2="1216.00" y2="544.00" />
<line x1="1216.00" y1="560.00" x2="1216.00" y2="592.00" />
<line x1="1216.00" y1="608.00" x2="1216.00" y2="688.00" />
<line x1="1216.00" y1="704.00" x2="1216.00" y2="768.00" />
<line x1="1216.00" y1="784.00" x2="1216.00" y2="832.00" />
<line x1="1216.00" y1="944.00" x2="1216.00" y2="1008.00" />
<line x1="1216.00" y1="1024.00" x2="1216.00" y2="1040.00" />
<line x1="1232.00" y1="448.00" x2="1232.00" y2="544.00" />
<line x1="1232.00" y1="560.00" x2="1232.00" y2="592.00" />
<line x1="1232.00" y1="608.00" x2="1232.00" y2="688.00" />
<line x1="1232.00" y1="704.00" x2="1232.00" y2="768.00" />
<line x1="1232.00" y1="784.00" x2="1232.00" y2="832.00" />
<line x1="1232.00" y1="944.00" x2="1232.00" y2="1008.00" />
<line x1="1232.00" y1="1024.00" x2="1232.00" y2="1040.00" />
<line x1="1248.00" y1="448.00" x2="1248.00" y2="544.00" />
<line x1="1248.00" y1="560.00" x2="1248.00" y2="592.00" />
<line x1="1248.00" y1="608.00" x2="1248.00" y2="688.00" />
<line x1="1248.00" y1="704.00" x2="1248.00" y2="768.00" />
<line x1="1248.00" y1="784.00" x2="1248.00" y2="832.00" />
<line x1="1248.00" y1="944.00" x2="1248.00" y2="1008.00" />
<line x1="1248.00" y1="1024.00" x2="1248.00" y2="1040.00" />
<line x1="1248.00" y1="1104.00" x2="1248.00" y2="1168.00" />
<line x1="1248.00" y1="1184.00" x2="1248.00" y2="1296.00" />
<line x1="1248.00" y1="1312.00" x2="1248.00" y2="1360.00" />
<line x1="1248.00" y1="1376.00" x2="1248.00" y2="1392.00" />
<line x1="576.00" y1="464.00" x2="576.00" y2="480.00" />
<line x1="576.00" y1="1120.00" x2="576.00" y2="1152.00" />
<line x1="832.00" y1="496.00" x2="832.00" y2="544.00" />
<line x1="832.00" y1="560.00" x2="832.00" y2="592.00" />
<line x1="832.00" y1="624.00" x2="832.00" y2="688.00" />
<line x1="832.00" y1="704.00" x2="832.00" y2="768.00" />
<line x1="832.00" y1="784.00" x2="832.00" y2="864.00" />
<line x1="832.00" y1="880.00" x2="832.00" y2="896.00" />
<line x1="832.00" y1="1056.00" x2="832.00" y2="1072.00" />
<line x1="832.00" y1="1088.00" x2="832.00" y2="1152.00" />
<line x1="832.00" y1="1184.00" x2="832.00" y2="1248.00" />
<line x1="832.00" y1="1264.00" x2="832.00" y2="1360.00" />
<line x1="256.00" y1="528.00" x2="256.00" y2="704.00" />
<line x1="416.00" y1="528.00" x2="416.00" y2="544.00" />
<line x1="416.00" y1="560.00" x2="416.00" y2="704.00" />
<line x1="416.00" y1="864.00" x2="416.00" y2="896.00" />
<line x1="416.00" y1="912.00" x2="416.00" y2="1008.00" />
<line x1="416.00" y1="1024.00" x2="416.00" y2="1040.00" />
<line x1="1456.00" y1="544.00" x2="1456.00" y2="656.00" />
<line x1="704.00" y1="560.00" x2="704.00" y2="624.00" />
<line x1="704.00" y1="816.00" x2="704.00" y2="832.00" />
<line x1="720.00" y1="560.00" x2="720.00" y2="624.00" />
<line x1="720.00" y1="832.00" x2="720.00" y2="848.00" />
<line x1="720.00" y1="880.00" x2="720.00" y2="896.00" />
<line x1="720.00" y1="1328.00" x2="720.00" y2="1360.00" />
<line x1="1120.00" y1="560.00" x2="1120.00" y2="576.00" />
<line x1="1120.00" y1="704.00" x2="1120.00" y2="768.00" />
<line x1="1120.00" y1="784.00" x2="1120.00" y2="864.00" />
<line x1="1120.00" y1="880.00" x2="1120.00" y2="896.00" />
<line x1="1120.00" y1="912.00" x2="1120.00" y2="1008.00" />
<line x1="1120.00" y1="1024.00" x2="1120.00" y2="1072.00" />
<line x1="1120.00" y1="1088.00" x2="1120.00" y2="1168.00" />
<line x1="1120.00" y1="1184.00" x2="1120.00" y2="1264.00" />
<line x1="1296.00" y1="560.00" x2="1296.00" y2="592.00" />
<line x1="1296.00" y1="608.00" x2="1296.00" y2="656.00" />
<line x1="1296.00" y1="848.00" x2="1296.00" y2="864.00" />
<line x1="1296.00" y1="912.00" x2="1296.00" y2="944.00" />
<line x1="1040.00" y1="576.00" x2="1040.00" y2="592.00" />
<line x1="1040.00" y1="608.00" x2="1040.00" y2="688.00" />
<line x1="1040.00" y1="1040.00" x2="1040.00" y2="1072.00" />
<line x1="1040.00" y1="1264.00" x2="1040.00" y2="1360.00" />
<line x1="1040.00" y1="1376.00" x2="1040.00" y2="1440.00" />
<line x1="1136.00" y1="576.00" x2="1136.00" y2="592.00" />
<line x1="1136.00" y1="608.00" x2="1136.00" y2="688.00" />
<line x1="560.00" y1="608.00" x2="560.00" y2="896.00" />
<line x1="560.00" y1="912.00" x2="560.00" y2="1008.00" />
<line x1="560.00" y1="1024.00" x2="560.00" y2="1040.00" />
<line x1="32.00" y1="624.00" x2="32.00" y2="752.00" />
<line x1="176.00" y1="624.00" x2="176.00" y2="752.00" />
<line x1="176.00" y1="960.00" x2="176.00" y2="1040.00" />
<line x1="176.00" y1="1056.00" x2="176.00" y2="1136.00" />
<line x1="656.00" y1="624.00" x2="656.00" y2="752.00" />
<line x1="656.00" y1="1408.00" x2="656.00" y2="1440.00" />
<line x1="656.00" y1="1456.00" x2="656.00" y2="1472.00" />
<line x1="1376.00" y1="656.00" x2="1376.00" y2="688.00" />
<line x1="336.00" y1="704.00" x2="336.00" y2="864.00" />
<line x1="336.00" y1="1056.00" x2="336.00" y2="1120.00" />
<line x1="336.00" y1="1168.00" x2="336.00" y2="1184.00" />
<line x1="336.00" y1="1200.00" x2="336.00" y2="1264.00" />
<line x1="336.00" y1="1280.00" x2="336.00" y2="1328.00" />
<line x1="352.00" y1="704.00" x2="352.00" y2="880.00" />
<line x1="352.00" y1="1024.00" x2="352.00" y2="1040.00" />
<line x1="352.00" y1="1056.00" x2="352.00" y2="1152.00" />
<line x1="1360.00" y1="704.00" x2="1360.00" y2="768.00" />
<line x1="1360.00" y1="784.00" x2="1360.00" y2="848.00" />
<line x1="1360.00" y1="944.00" x2="1360.00" y2="960.00" />
<line x1="1440.00" y1="720.00" x2="1440.00" y2="832.00" />
<line x1="1440.00" y1="848.00" x2="1440.00" y2="944.00" />
<line x1="608.00" y1="816.00" x2="608.00" y2="832.00" />
<line x1="1184.00" y1="832.00" x2="1184.00" y2="864.00" />
<line x1="1184.00" y1="880.00" x2="1184.00" y2="896.00" />
<line x1="1184.00" y1="912.00" x2="1184.00" y2="944.00" />
<line x1="1184.00" y1="1392.00" x2="1184.00" y2="1440.00" />
<line x1="1184.00" y1="1456.00" x2="1184.00" y2="1488.00" />
<line x1="1280.00" y1="832.00" x2="1280.00" y2="864.00" />
<line x1="1280.00" y1="912.00" x2="1280.00" y2="944.00" />
<line x1="1280.00" y1="1216.00" x2="1280.00" y2="1296.00" />
<line x1="1280.00" y1="1312.00" x2="1280.00" y2="1376.00" />
<line x1="320.00" y1="864.00" x2="320.00" y2="880.00" />
<line x1="320.00" y1="1056.00" x2="320.00" y2="1120.00" />
<line x1="304.00" y1="880.00" x2="304.00" y2="896.00" />
<line x1="304.00" y1="1008.00" x2="304.00" y2="1040.00" />
<line x1="304.00" y1="1056.00" x2="304.00" y2="1120.00" />
<line x1="304.00" y1="1312.00" x2="304.00" y2="1360.00" />
<line x1="304.00" y1="1376.00" x2="304.00" y2="1408.00" />
<line x1="1312.00" y1="960.00" x2="1312.00" y2="1008.00" />
<line x1="1312.00" y1="1024.00" x2="1312.00" y2="1072.00" />
<line x1="448.00" y1="1056.00" x2="448.00" y2="1152.00" />
<line x1="448.00" y1="1168.00" x2="448.00" y2="1360.00" />
<line x1="448.00" y1="1376.00" x2="448.00" y2="1440.00" />
<line x1="880.00" y1="1056.00" x2="880.00" y2="1072.00" />
<line x1="880.00" y1="1088.00" x2="880.00" y2="1152.00" />
<line x1="912.00" y1="1088.00" x2="912.00" y2="1152.00" />
<line x1="912.00" y1="1184.00" x2="912.00" y2="1248.00" />
<line x1="912.00" y1="1376.00" x2="912.00" y2="1440.00" />
  </g>
  <g class="features">
<g data-feature-type="stairsDown"><line data-feature-type="stairsDown" x1="994.24" y1="1203.36" x2="1005.76" y2="1203.36" /><line x1="994.65" y1="1205.68" x2="1005.35" y2="1205.68" /><line x1="995.07" y1="1208.00" x2="1004.93" y2="1208.00" /><line x1="995.48" y1="1210.32" x2="1004.52" y2="1210.32" /><line x1="995.90" y1="1212.64" x2="1004.10" y2="1212.64" /></g>
<g data-feature-type="stairsUp"><line data-feature-type="stairsUp" x1="355.90" y1="595.36" x2="364.10" y2="595.36" /><line x1="355.48" y1="597.68" x2="364.52" y2="597.68" /><line x1="355.07" y1="600.00" x2="364.93" y2="600.00" /><line x1="354.65" y1="602.32" x2="365.35" y2="602.32" /><line x1="354.24" y1="604.64" x2="365.76" y2="604.64" /></g>
<circle data-feature-type="pillar" cx="1032.00" cy="1192.00" r="3.68" fill="#5c92ab" stroke="none" />
<circle data-feature-type="pillar" cx="968.00" cy="1160.00" r="3.68" fill="#5c92ab" stroke="none" />
<circle data-feature-type="pillar" cx="984.00" cy="1160.00" r="3.68" fill="#5c92ab" stroke="none" />
<circle data-feature-type="pillar" cx="1032.00" cy="1160.00" r="3.68" fill="#5c92ab" stroke="none" />
<g data-feature-type="trap"><rect x="932.64" y="1204.64" width="6.72" height="6.72" fill="none" /><line x1="932.64" y1="1204.64" x2="939.36" y2="1211.36" /><line x1="932.64" y1="1211.36" x2="939.36" y2="1204.64" /></g>
<circle data-feature-type="pillar" cx="1272.00" cy="1448.00" r="3.68" fill="#5c92ab" stroke="none" />
<circle data-feature-type="pillar" cx="1384.00" cy="568.00" r="3.68" fill="#5c92ab" stroke="none" />
<circle data-feature-type="pillar" cx="1384.00" cy="584.00" r="3.68" fill="#5c92ab" stroke="none" />
<g data-feature-type="statue"><circle cx="1352.00" cy="568.00" r="3.52" fill="none" /><line x1="1349.76" y1="568.00" x2="1354.24" y2="568.00" /><line x1="1352.00" y1="565.76" x2="1352.00" y2="570.24" /><line x1="1350.39" y1="566.39" x2="1353.61" y2="569.61" /><line x1="1350.39" y1="569.61" x2="1353.61" y2="566.39" /></g>
<g data-feature-type="altar"><rect x="773.28" y="1382.40" width="5.44" height="3.20" fill="none" /><line x1="776.00" y1="1381.44" x2="776.00" y2="1386.56" /><line x1="774.40" y1="1384.00" x2="777.60" y2="1384.00" /></g>
<path data-feature-type="curtain" d="M 870.40 1443.84 Q 872.00 1446.34 870.40 1448.00 Q 872.00 1449.66 870.40 1452.16" fill="none" /><path d="M 873.60 1443.84 Q 872.00 1446.34 873.60 1448.00 Q 872.00 1449.66 873.60 1452.16" fill="none" />
<circle data-feature-type="pillar" cx="216.00" cy="456.00" r="3.68" fill="#5c92ab" stroke="none" />
<circle data-feature-type="pillar" cx="216.00" cy="392.00" r="3.68" fill="#5c92ab" stroke="none" />
<circle data-feature-type="pillar" cx="552.00" cy="552.00" r="3.68" fill="#5c92ab" stroke="none" />
<circle data-feature-type="pillar" cx="1368.00" cy="1016.00" r="3.68" fill="#5c92ab" stroke="none" />
<circle data-feature-type="pillar" cx="232.00" cy="264.00" r="3.68" fill="#5c92ab" stroke="none" />
<g data-feature-type="trap"><rect x="180.64" y="260.64" width="6.72" height="6.72" fill="none" /><line x1="180.64" y1="260.64" x2="187.36" y2="267.36" /><line x1="180.64" y1="267.36" x2="187.36" y2="260.64" /></g>
<path data-feature-type="curtain" d="M 230.40 275.84 Q 232.00 278.34 230.40 280.00 Q 232.00 281.66 230.40 284.16" fill="none" /><path d="M 233.60 275.84 Q 232.00 278.34 233.60 280.00 Q 232.00 281.66 233.60 284.16" fill="none" />
<circle data-feature-type="pillar" cx="920.00" cy="568.00" r="3.68" fill="#5c92ab" stroke="none" />
<circle data-feature-type="pillar" cx="872.00" cy="568.00" r="3.68" fill="#5c92ab" stroke="none" />
<circle data-feature-type="pillar" cx="568.00" cy="1256.00" r="3.68" fill="#5c92ab" stroke="none" />
<circle data-feature-type="pillar" cx="616.00" cy="1256.00" r="3.68" fill="#5c92ab" stroke="none" />
<g data-feature-type="well"><circle cx="568.00" cy="1304.00" r="4.00" fill="none" /><circle cx="568.00" cy="1304.00" r="2.24" fill="none" /></g>
<circle data-feature-type="pillar" cx="1240.00" cy="1080.00" r="3.68" fill="#5c92ab" stroke="none" />
<circle data-feature-type="pillar" cx="232.00" cy="1368.00" r="3.68" fill="#5c92ab" stroke="none" />
<g data-feature-type="altar"><rect x="197.28" y="1350.40" width="5.44" height="3.20" fill="none" /><line x1="200.00" y1="1349.44" x2="200.00" y2="1354.56" /><line x1="198.40" y1="1352.00" x2="201.60" y2="1352.00" /></g>
<circle data-feature-type="pillar" cx="744.00" cy="1256.00" r="3.68" fill="#5c92ab" stroke="none" />
<g data-feature-type="statue"><circle cx="744.00" cy="1208.00" r="3.52" fill="none" /><line x1="741.76" y1="1208.00" x2="746.24" y2="1208.00" /><line x1="744.00" y1="1205.76" x2="744.00" y2="1210.24" /><line x1="742.39" y1="1206.39" x2="745.61" y2="1209.61" /><line x1="742.39" y1="1209.61" x2="745.61" y2="1206.39" /></g>
<circle data-feature-type="pillar" cx="408.00" cy="440.00" r="3.68" fill="#5c92ab" stroke="none" />
<circle data-feature-type="pillar" cx="472.00" cy="440.00" r="3.68" fill="#5c92ab" stroke="none" />
<circle data-feature-type="pillar" cx="1080.00" cy="296.00" r="3.68" fill="#5c92ab" stroke="none" />
<circle data-feature-type="pillar" cx="696.00" cy="360.00" r="3.68" fill="#5c92ab" stroke="none" />
<circle data-feature-type="pillar" cx="728.00" cy="360.00" r="3.68" fill="#5c92ab" stroke="none" />
<circle data-feature-type="pillar" cx="744.00" cy="328.00" r="3.68" fill="#5c92ab" stroke="none" />
<g data-feature-type="statue"><circle cx="744.00" cy="376.00" r="3.52" fill="none" /><line x1="741.76" y1="376.00" x2="746.24" y2="376.00" /><line x1="744.00" y1="373.76" x2="744.00" y2="378.24" /><line x1="742.39" y1="374.39" x2="745.61" y2="377.61" /><line x1="742.39" y1="377.61" x2="745.61" y2="374.39" /></g>
<circle data-feature-type="pillar" cx="952.00" cy="248.00" r="3.68" fill="#5c92ab" stroke="none" />
<circle data-feature-type="pillar" cx="968.00" cy="248.00" r="3.68" fill="#5c92ab" stroke="none" />
<circle data-feature-type="pillar" cx="1384.00" cy="904.00" r="3.68" fill="#5c92ab" stroke="none" />
<circle data-feature-type="pillar" cx="376.00" cy="600.00" r="3.68" fill="#5c92ab" stroke="none" />
<circle data-feature-type="pillar" cx="312.00" cy="600.00" r="3.68" fill="#5c92ab" stroke="none" />
<circle data-feature-type="pillar" cx="360.00" cy="632.00" r="3.68" fill="#5c92ab" stroke="none" />
<circle data-feature-type="pillar" cx="328.00" cy="600.00" r="3.68" fill="#5c92ab" stroke="none" />
<g data-feature-type="trap"><rect x="340.64" y="628.64" width="6.72" height="6.72" fill="none" /><line x1="340.64" y1="628.64" x2="347.36" y2="635.36" /><line x1="340.64" y1="635.36" x2="347.36" y2="628.64" /></g>
<circle data-feature-type="pillar" cx="696.00" cy="856.00" r="3.68" fill="#5c92ab" stroke="none" />
<circle data-feature-type="pillar" cx="680.00" cy="888.00" r="3.68" fill="#5c92ab" stroke="none" />
<circle data-feature-type="pillar" cx="632.00" cy="856.00" r="3.68" fill="#5c92ab" stroke="none" />
<circle data-feature-type="pillar" cx="760.00" cy="104.00" r="3.68" fill="#5c92ab" stroke="none" />
<circle data-feature-type="pillar" cx="152.00" cy="1048.00" r="3.68" fill="#5c92ab" stroke="none" />
<g data-feature-type="coffin"><rect x="117.60" y="1108.32" width="4.80" height="7.36" rx="0.80" ry="0.80" fill="none" /><line x1="120.00" y1="1109.94" x2="120.00" y2="1114.06" /></g>
<g data-feature-type="statue"><circle cx="152.00" cy="680.00" r="3.52" fill="none" /><line x1="149.76" y1="680.00" x2="154.24" y2="680.00" /><line x1="152.00" y1="677.76" x2="152.00" y2="682.24" /><line x1="150.39" y1="678.39" x2="153.61" y2="681.61" /><line x1="150.39" y1="681.61" x2="153.61" y2="678.39" /></g>
<circle data-feature-type="pillar" cx="376.00" cy="936.00" r="3.68" fill="#5c92ab" stroke="none" />
<circle data-feature-type="pillar" cx="328.00" cy="936.00" r="3.68" fill="#5c92ab" stroke="none" />
<circle data-feature-type="pillar" cx="376.00" cy="968.00" r="3.68" fill="#5c92ab" stroke="none" />
<g data-feature-type="altar"><rect x="357.28" y="998.40" width="5.44" height="3.20" fill="none" /><line x1="360.00" y1="997.44" x2="360.00" y2="1002.56" /><line x1="358.40" y1="1000.00" x2="361.60" y2="1000.00" /></g>
<g data-feature-type="statue"><circle cx="1368.00" cy="1352.00" r="3.52" fill="none" /><line x1="1365.76" y1="1352.00" x2="1370.24" y2="1352.00" /><line x1="1368.00" y1="1349.76" x2="1368.00" y2="1354.24" /><line x1="1366.39" y1="1350.39" x2="1369.61" y2="1353.61" /><line x1="1366.39" y1="1353.61" x2="1369.61" y2="1350.39" /></g>
<circle data-feature-type="pillar" cx="472.00" cy="952.00" r="3.68" fill="#5c92ab" stroke="none" />
<circle data-feature-type="pillar" cx="1272.00" cy="424.00" r="3.68" fill="#5c92ab" stroke="none" />
<g data-feature-type="statue"><circle cx="1192.00" cy="424.00" r="3.52" fill="none" /><line x1="1189.76" y1="424.00" x2="1194.24" y2="424.00" /><line x1="1192.00" y1="421.76" x2="1192.00" y2="426.24" /><line x1="1190.39" y1="422.39" x2="1193.61" y2="425.61" /><line x1="1190.39" y1="425.61" x2="1193.61" y2="422.39" /></g>
<g data-feature-type="trap"><rect x="1284.64" y="420.64" width="6.72" height="6.72" fill="none" /><line x1="1284.64" y1="420.64" x2="1291.36" y2="427.36" /><line x1="1284.64" y1="427.36" x2="1291.36" y2="420.64" /></g>
<circle data-feature-type="pillar" cx="1256.00" cy="888.00" r="3.68" fill="#5c92ab" stroke="none" />
<g data-feature-type="trap"><rect x="1252.64" y="916.64" width="6.72" height="6.72" fill="none" /><line x1="1252.64" y1="916.64" x2="1259.36" y2="923.36" /><line x1="1252.64" y1="923.36" x2="1259.36" y2="916.64" /></g>
<path data-feature-type="curtain" d="M 1254.40 851.84 Q 1256.00 854.34 1254.40 856.00 Q 1256.00 857.66 1254.40 860.16" fill="none" /><path d="M 1257.60 851.84 Q 1256.00 854.34 1257.60 856.00 Q 1256.00 857.66 1257.60 860.16" fill="none" />
<g data-feature-type="chest"><rect x="853.28" y="982.24" width="5.44" height="3.52" fill="none" /><line x1="853.28" y1="984.00" x2="858.72" y2="984.00" /><circle cx="856.00" cy="984.18" r="0.70" fill="#5c92ab" stroke="none" /></g>
<circle data-feature-type="pillar" cx="728.00" cy="696.00" r="3.68" fill="#5c92ab" stroke="none" />
<circle data-feature-type="pillar" cx="680.00" cy="696.00" r="3.68" fill="#5c92ab" stroke="none" />
<path data-feature-type="curtain" d="M 678.40 675.84 Q 680.00 678.34 678.40 680.00 Q 680.00 681.66 678.40 684.16" fill="none" /><path d="M 681.60 675.84 Q 680.00 678.34 681.60 680.00 Q 680.00 681.66 681.60 684.16" fill="none" />
<g data-feature-type="statue"><circle cx="1400.00" cy="808.00" r="3.52" fill="none" /><line x1="1397.76" y1="808.00" x2="1402.24" y2="808.00" /><line x1="1400.00" y1="805.76" x2="1400.00" y2="810.24" /><line x1="1398.39" y1="806.39" x2="1401.61" y2="809.61" /><line x1="1398.39" y1="809.61" x2="1401.61" y2="806.39" /></g>
<g data-feature-type="trap"><rect x="1412.64" y="788.64" width="6.72" height="6.72" fill="none" /><line x1="1412.64" y1="788.64" x2="1419.36" y2="795.36" /><line x1="1412.64" y1="795.36" x2="1419.36" y2="788.64" /></g>
<g data-feature-type="coffin"><rect x="1413.60" y="740.32" width="4.80" height="7.36" rx="0.80" ry="0.80" fill="none" /><line x1="1416.00" y1="741.94" x2="1416.00" y2="746.06" /></g>
<circle data-feature-type="pillar" cx="552.00" cy="104.00" r="3.68" fill="#5c92ab" stroke="none" />
  </g>
  <g class="thresholds">
<g data-threshold-type="locked" stroke="#5c92ab" fill="none" stroke-width="1.52"><rect x="1075.52" y="1109.76" width="8.96" height="4.48" fill="#ffffff" /><circle cx="1080.00" cy="1108.77" r="1.61" /></g>
<rect data-threshold-type="door" x="1187.52" y="1445.76" width="8.96" height="4.48" fill="#ffffff" stroke="#5c92ab" stroke-width="1.52" />
<rect data-threshold-type="door" x="339.52" y="1269.76" width="8.96" height="4.48" fill="#ffffff" stroke="#5c92ab" stroke-width="1.52" />
<rect data-threshold-type="door" x="1299.52" y="549.76" width="8.96" height="4.48" fill="#ffffff" stroke="#5c92ab" stroke-width="1.52" />
<g data-threshold-type="locked" stroke="#5c92ab" fill="none" stroke-width="1.52"><rect x="739.52" y="1445.76" width="8.96" height="4.48" fill="#ffffff" /><circle cx="744.00" cy="1444.77" r="1.61" /></g>
<rect data-threshold-type="door" x="211.52" y="501.76" width="8.96" height="4.48" fill="#ffffff" stroke="#5c92ab" stroke-width="1.52" />
<rect data-threshold-type="door" x="579.52" y="549.76" width="8.96" height="4.48" fill="#ffffff" stroke="#5c92ab" stroke-width="1.52" />
<g data-threshold-type="locked" stroke="#5c92ab" fill="none" stroke-width="1.52"><rect x="1011.52" y="1013.76" width="8.96" height="4.48" fill="#ffffff" /><circle cx="1016.00" cy="1012.77" r="1.61" /></g>
<rect data-threshold-type="door" x="1267.52" y="245.76" width="8.96" height="4.48" fill="#ffffff" stroke="#5c92ab" stroke-width="1.52" />
<rect data-threshold-type="door" x="1315.52" y="1013.76" width="8.96" height="4.48" fill="#ffffff" stroke="#5c92ab" stroke-width="1.52" />
<rect data-threshold-type="door" x="307.52" y="1125.76" width="8.96" height="4.48" fill="#ffffff" stroke="#5c92ab" stroke-width="1.52" />
<rect data-threshold-type="door" x="275.52" y="261.76" width="8.96" height="4.48" fill="#ffffff" stroke="#5c92ab" stroke-width="1.52" />
<rect data-threshold-type="door" x="1059.52" y="533.76" width="8.96" height="4.48" fill="#ffffff" stroke="#5c92ab" stroke-width="1.52" />
<rect data-threshold-type="door" x="883.52" y="613.76" width="8.96" height="4.48" fill="#ffffff" stroke="#5c92ab" stroke-width="1.52" />
<rect data-threshold-type="door" x="595.52" y="1173.76" width="8.96" height="4.48" fill="#ffffff" stroke="#5c92ab" stroke-width="1.52" />
<rect data-threshold-type="door" x="1251.52" y="1093.76" width="8.96" height="4.48" fill="#ffffff" stroke="#5c92ab" stroke-width="1.52" />
<rect data-threshold-type="door" x="211.52" y="1317.76" width="8.96" height="4.48" fill="#ffffff" stroke="#5c92ab" stroke-width="1.52" />
<g data-threshold-type="secret"><line x1="419.52" y1="248.00" x2="428.48" y2="248.00" stroke="#5c92ab" stroke-width="1.31" stroke-dasharray="1.31 1.31" /><text x="429.56" y="247.10" font-size="5.44" fill="#5c92ab" font-family="Courier New, monospace" font-weight="700">S</text></g>
<rect data-threshold-type="door" x="723.52" y="1317.76" width="8.96" height="4.48" fill="#ffffff" stroke="#5c92ab" stroke-width="1.52" />
<rect data-threshold-type="door" x="387.52" y="469.76" width="8.96" height="4.48" fill="#ffffff" stroke="#5c92ab" stroke-width="1.52" />
<rect data-threshold-type="door" x="1091.52" y="245.76" width="8.96" height="4.48" fill="#ffffff" stroke="#5c92ab" stroke-width="1.52" />
<rect data-threshold-type="door" x="771.52" y="341.76" width="8.96" height="4.48" fill="#ffffff" stroke="#5c92ab" stroke-width="1.52" />
<rect data-threshold-type="door" x="867.52" y="261.76" width="8.96" height="4.48" fill="#ffffff" stroke="#5c92ab" stroke-width="1.52" />
<rect data-threshold-type="door" x="1107.52" y="693.76" width="8.96" height="4.48" fill="#ffffff" stroke="#5c92ab" stroke-width="1.52" />
<rect data-threshold-type="door" x="1299.52" y="869.76" width="8.96" height="4.48" fill="#ffffff" stroke="#5c92ab" stroke-width="1.52" />
<rect data-threshold-type="door" x="371.52" y="533.76" width="8.96" height="4.48" fill="#ffffff" stroke="#5c92ab" stroke-width="1.52" />
<rect data-threshold-type="door" x="723.52" y="869.76" width="8.96" height="4.48" fill="#ffffff" stroke="#5c92ab" stroke-width="1.52" />
<rect data-threshold-type="door" x="803.52" y="117.76" width="8.96" height="4.48" fill="#ffffff" stroke="#5c92ab" stroke-width="1.52" />
<g data-threshold-type="secret"><line x1="163.52" y1="1048.00" x2="172.48" y2="1048.00" stroke="#5c92ab" stroke-width="1.31" stroke-dasharray="1.31 1.31" /><text x="173.56" y="1047.10" font-size="5.44" fill="#5c92ab" font-family="Courier New, monospace" font-weight="700">S</text></g>
<rect data-threshold-type="door" x="99.52" y="741.76" width="8.96" height="4.48" fill="#ffffff" stroke="#5c92ab" stroke-width="1.52" />
<rect data-threshold-type="door" x="307.52" y="1013.76" width="8.96" height="4.48" fill="#ffffff" stroke="#5c92ab" stroke-width="1.52" />
<g data-threshold-type="locked" stroke="#5c92ab" fill="none" stroke-width="1.52"><rect x="1283.52" y="1301.76" width="8.96" height="4.48" fill="#ffffff" /><circle cx="1288.00" cy="1300.77" r="1.61" /></g>
<rect data-threshold-type="door" x="643.52" y="1445.76" width="8.96" height="4.48" fill="#ffffff" stroke="#5c92ab" stroke-width="1.52" />
<rect data-threshold-type="door" x="467.52" y="277.76" width="8.96" height="4.48" fill="#ffffff" stroke="#5c92ab" stroke-width="1.52" />
<rect data-threshold-type="door" x="467.52" y="901.76" width="8.96" height="4.48" fill="#ffffff" stroke="#5c92ab" stroke-width="1.52" />
<rect data-threshold-type="door" x="1315.52" y="389.76" width="8.96" height="4.48" fill="#ffffff" stroke="#5c92ab" stroke-width="1.52" />
<rect data-threshold-type="door" x="931.52" y="117.76" width="8.96" height="4.48" fill="#ffffff" stroke="#5c92ab" stroke-width="1.52" />
<rect data-threshold-type="door" x="1219.52" y="933.76" width="8.96" height="4.48" fill="#ffffff" stroke="#5c92ab" stroke-width="1.52" />
<rect data-threshold-type="door" x="835.52" y="933.76" width="8.96" height="4.48" fill="#ffffff" stroke="#5c92ab" stroke-width="1.52" />
<rect data-threshold-type="door" x="739.52" y="741.76" width="8.96" height="4.48" fill="#ffffff" stroke="#5c92ab" stroke-width="1.52" />
<rect data-threshold-type="door" x="1379.52" y="821.76" width="8.96" height="4.48" fill="#ffffff" stroke="#5c92ab" stroke-width="1.52" />
<rect data-threshold-type="door" x="579.52" y="101.76" width="8.96" height="4.48" fill="#ffffff" stroke="#5c92ab" stroke-width="1.52" />
<rect data-threshold-type="door" x="547.52" y="1061.76" width="8.96" height="4.48" fill="#ffffff" stroke="#5c92ab" stroke-width="1.52" />
  </g>
  <g class="labels">
<text x="1000.00" y="1177.92" text-anchor="middle">1</text>
<text x="1256.00" y="1449.92" text-anchor="middle">2</text>
<text x="376.00" y="1273.92" text-anchor="middle">3</text>
<text x="1384.00" y="601.92" text-anchor="middle">4</text>
<text x="824.00" y="1417.92" text-anchor="middle">5</text>
<text x="216.00" y="425.92" text-anchor="middle">6</text>
<text x="568.00" y="553.92" text-anchor="middle">7</text>
<text x="1048.00" y="953.92" text-anchor="middle">8</text>
<text x="1336.00" y="249.92" text-anchor="middle">9</text>
<text x="1352.00" y="1017.92" text-anchor="middle">10</text>
<text x="312.00" y="1161.92" text-anchor="middle">11</text>
<text x="216.00" y="265.92" text-anchor="middle">12</text>
<text x="1112.00" y="457.92" text-anchor="middle">13</text>
<text x="888.00" y="569.92" text-anchor="middle">14</text>
<text x="584.00" y="1257.92" text-anchor="middle">15</text>
<text x="1224.00" y="1081.92" text-anchor="middle">16</text>
<text x="216.00" y="1369.92" text-anchor="middle">17</text>
<text x="456.00" y="217.92" text-anchor="middle">18</text>
<text x="728.00" y="1257.92" text-anchor="middle">19</text>
<text x="440.00" y="441.92" text-anchor="middle">20</text>
<text x="1064.00" y="297.92" text-anchor="middle">21</text>
<text x="712.00" y="345.92" text-anchor="middle">22</text>
<text x="936.00" y="249.92" text-anchor="middle">23</text>
<text x="1096.00" y="649.92" text-anchor="middle">24</text>
<text x="1368.00" y="905.92" text-anchor="middle">25</text>
<text x="344.00" y="617.92" text-anchor="middle">26</text>
<text x="664.00" y="873.92" text-anchor="middle">27</text>
<text x="744.00" y="105.92" text-anchor="middle">28</text>
<text x="136.00" y="1049.92" text-anchor="middle">29</text>
<text x="104.00" y="697.92" text-anchor="middle">30</text>
<text x="344.00" y="953.92" text-anchor="middle">31</text>
<text x="1336.00" y="1305.92" text-anchor="middle">32</text>
<text x="632.00" y="1449.92" text-anchor="middle">33</text>
<text x="440.00" y="313.92" text-anchor="middle">34</text>
<text x="456.00" y="953.92" text-anchor="middle">35</text>
<text x="1256.00" y="425.92" text-anchor="middle">36</text>
<text x="968.00" y="121.92" text-anchor="middle">37</text>
<text x="1240.00" y="889.92" text-anchor="middle">38</text>
<text x="872.00" y="985.92" text-anchor="middle">39</text>
<text x="712.00" y="697.92" text-anchor="middle">40</text>
<text x="1416.00" y="777.92" text-anchor="middle">41</text>
<text x="536.00" y="105.92" text-anchor="middle">42</text>
<text x="584.00" y="1097.92" text-anchor="middle">43</text>
  </g>
</svg>