<?xml version="1.0" encoding="UTF-8"?>
<svg xmlns="http://www.w3.org/2000/svg" width="1280" height="1536" viewBox="0 0 1280.00 1536.00" role="img" aria-label="MapIR render: Learned Generated Map 6">
  <defs>
    <style>
      .grid { stroke: #d7e7ef; stroke-width: 0.64; opacity: 0.72; }
      .walls { stroke: #6fa8c1; stroke-width: 1.92; fill: none; stroke-linecap: square; }
      .thresholds { fill: none; stroke-linecap: round; }
      .features { stroke: #5c92ab; fill: none; stroke-width: 1.60; stroke-linecap: round; stroke-linejoin: round; }
      .labels { fill: #5c92ab; font-size: 7.20px; font-family: "Courier New", monospace; font-weight: 600; }
    </style>
  </defs>
  <rect x="0" y="0" width="1280.00" height="1536.00" fill="#5d9fbc" />
  <g class="texture" stroke="#9ec4d6" stroke-width="0.96" opacity="0.2" fill="none"><path d="M 580.79 1045.54 Q 544.75 1047.58 512.76 1043.06" /><path d="M 253.81 153.51 Q 280.45 150.73 321.99 148.91" /><path d="M 181.88 1485.87 Q 174.05 1469.96 192.06 1442.94" /><path d="M 276.10 971.97 Q 283.39 1018.89 286.60 1065.59" /><path d="M 1006.82 1032.25 Q 1001.58 1006.90 986.22 983.03" /><path d="M 812.96 895.24 Q 829.77 878.84 844.63 830.32" /><path d="M 1014.19 861.97 Q 1033.70 843.88 1079.21 858.72" /><path d="M 435.77 277.88 Q 424.80 310.06 418.76 319.75" /><path d="M 892.82 74.64 Q 859.90 88.72 827.22 112.70" /><path d="M 831.78 157.60 Q 860.64 181.78 900.65 173.37" /><path d="M 525.20 651.86 Q 552.97 650.81 581.92 677.22" /><path d="M 553.68 154.15 Q 512.85 190.37 496.78 219.56" /><path d="M 1020.62 1192.87 Q 998.27 1201.61 982.34 1204.96" /><path d="M 729.37 408.11 Q 714.47 412.97 689.42 416.59" /><path d="M 1179.67 91.61 Q 1169.85 107.52 1172.46 134.21" /><path d="M 267.04 1521.79 Q 247.01 1543.66 244.55 1583.25" /><path d="M 582.97 126.24 Q 556.33 165.12 529.58 202.90" /><path d="M 1020.27 322.60 Q 1043.32 342.33 1050.09 344.96" /><path d="M 609.67 354.74 Q 577.79 351.07 568.39 373.03" /><path d="M 592.13 802.66 Q 532.08 792.42 500.79 782.14" /><path d="M 204.30 361.19 Q 248.05 403.82 254.37 434.86" /><path d="M 1193.43 1124.95 Q 1208.55 1122.02 1224.76 1131.79" /><path d="M 185.99 30.01 Q 205.86 9.35 189.06 -11.95" /><path d="M 1080.78 848.05 Q 1098.63 825.26 1090.12 796.01" /><path d="M 494.92 1456.90 Q 445.89 1432.84 416.41 1419.12" /><path d="M 888.38 61.41 Q 893.07 84.60 875.51 93.67" /><path d="M 507.48 33.61 Q 450.63 42.15 408.69 35.03" /><path d="M 76.65 1157.82 Q 97.70 1184.46 114.89 1228.78" /><path d="M 374.88 1418.18 Q 382.01 1426.86 357.42 1444.55" /><path d="M 905.19 1113.73 Q 937.38 1098.58 950.31 1092.80" /><path d="M 339.15 417.35 Q 321.25 378.94 327.81 355.04" /></g>
  <g class="floors">
<rect x="1056.00" y="64.00" width="112.00" height="96.00" fill="#fbfdfe" />
<rect x="896.00" y="96.00" width="64.00" height="144.00" fill="#fbfdfe" />
<rect x="352.00" y="112.00" width="544.00" height="16.00" fill="#fbfdfe" />
<rect x="960.00" y="112.00" width="96.00" height="16.00" fill="#fbfdfe" />
<rect x="352.00" y="128.00" width="16.00" height="1296.00" fill="#fbfdfe" />
<rect x="160.00" y="160.00" width="192.00" height="16.00" fill="#fbfdfe" />
<rect x="368.00" y="160.00" width="528.00" height="16.00" fill="#fbfdfe" />
<rect x="1104.00" y="160.00" width="16.00" height="288.00" fill="#fbfdfe" />
<rect x="160.00" y="176.00" width="16.00" height="352.00" fill="#fbfdfe" />
<rect x="656.00" y="176.00" width="160.00" height="96.00" fill="#fbfdfe" />
<rect x="1120.00" y="176.00" width="80.00" height="160.00" fill="#fbfdfe" />
<rect x="320.00" y="224.00" width="32.00" height="80.00" fill="#fbfdfe" />
<rect x="368.00" y="224.00" width="32.00" height="80.00" fill="#fbfdfe" />
<rect x="400.00" y="256.00" width="256.00" height="16.00" fill="#fbfdfe" />
<rect x="816.00" y="256.00" width="288.00" height="16.00" fill="#fbfdfe" />
<rect x="736.00" y="272.00" width="16.00" height="928.00" fill="#fbfdfe" />
<rect x="320.00" y="304.00" width="16.00" height="960.00" fill="#fbfdfe" />
<rect x="368.00" y="304.00" width="16.00" height="512.00" fill="#fbfdfe" />
<rect x="384.00" y="320.00" width="96.00" height="160.00" fill="#fbfdfe" />
<rect x="976.00" y="320.00" width="64.00" height="96.00" fill="#fbfdfe" />
<rect x="1152.00" y="336.00" width="16.00" height="992.00" fill="#fbfdfe" />
<rect x="544.00" y="352.00" width="192.00" height="16.00" fill="#fbfdfe" />
<rect x="752.00" y="352.00" width="224.00" height="16.00" fill="#fbfdfe" />
<rect x="544.00" y="368.00" width="16.00" height="992.00" fill="#fbfdfe" />
<rect x="672.00" y="368.00" width="64.00" height="160.00" fill="#fbfdfe" />
<rect x="752.00" y="368.00" width="80.00" height="160.00" fill="#fbfdfe" />
<rect x="112.00" y="384.00" width="48.00" height="144.00" fill="#fbfdfe" />
<rect x="176.00" y="384.00" width="32.00" height="144.00" fill="#fbfdfe" />
<rect x="480.00" y="400.00" width="64.00" height="16.00" fill="#fbfdfe" />
<rect x="560.00" y="400.00" width="112.00" height="16.00" fill="#fbfdfe" />
<rect x="832.00" y="400.00" width="144.00" height="16.00" fill="#fbfdfe" />
<rect x="1040.00" y="400.00" width="64.00" height="16.00" fill="#fbfdfe" />
<rect x="1120.00" y="400.00" width="32.00" height="16.00" fill="#fbfdfe" />
<rect x="1168.00" y="400.00" width="16.00" height="928.00" fill="#fbfdfe" />
<rect x="608.00" y="416.00" width="16.00" height="992.00" fill="#fbfdfe" />
<rect x="832.00" y="432.00" width="272.00" height="16.00" fill="#fbfdfe" />
<rect x="208.00" y="448.00" width="112.00" height="16.00" fill="#fbfdfe" />
<rect x="336.00" y="448.00" width="16.00" height="16.00" fill="#fbfdfe" />
<rect x="1056.00" y="448.00" width="16.00" height="800.00" fill="#fbfdfe" />
<rect x="416.00" y="480.00" width="16.00" height="176.00" fill="#fbfdfe" />
<rect x="448.00" y="480.00" width="16.00" height="768.00" fill="#fbfdfe" />
<rect x="1024.00" y="480.00" width="32.00" height="128.00" fill="#fbfdfe" />
<rect x="1072.00" y="480.00" width="32.00" height="128.00" fill="#fbfdfe" />
<rect x="1008.00" y="496.00" width="16.00" height="96.00" fill="#fbfdfe" />
<rect x="1104.00" y="496.00" width="16.00" height="96.00" fill="#fbfdfe" />
<rect x="992.00" y="512.00" width="16.00" height="64.00" fill="#fbfdfe" />
<rect x="1120.00" y="512.00" width="16.00" height="64.00" fill="#fbfdfe" />
<rect x="688.00" y="528.00" width="16.00" height="720.00" fill="#fbfdfe" />
<rect x="752.00" y="528.00" width="16.00" height="672.00" fill="#fbfdfe" />
<rect x="496.00" y="576.00" width="48.00" height="144.00" fill="#fbfdfe" />
<rect x="560.00" y="576.00" width="48.00" height="144.00" fill="#fbfdfe" />
<rect x="768.00" y="576.00" width="16.00" height="176.00" fill="#fbfdfe" />
<rect x="480.00" y="592.00" width="16.00" height="112.00" fill="#fbfdfe" />
<rect x="784.00" y="592.00" width="16.00" height="144.00" fill="#fbfdfe" />
<rect x="720.00" y="608.00" width="16.00" height="112.00" fill="#fbfdfe" />
<rect x="800.00" y="608.00" width="16.00" height="112.00" fill="#fbfdfe" />
<rect x="384.00" y="640.00" width="32.00" height="16.00" fill="#fbfdfe" />
<rect x="432.00" y="640.00" width="16.00" height="16.00" fill="#fbfdfe" />
<rect x="464.00" y="640.00" width="16.00" height="16.00" fill="#fbfdfe" />
<rect x="624.00" y="640.00" width="16.00" height="32.00" fill="#fbfdfe" />
<rect x="992.00" y="640.00" width="64.00" height="128.00" fill="#fbfdfe" />
<rect x="640.00" y="656.00" width="48.00" height="16.00" fill="#fbfdfe" />
<rect x="704.00" y="656.00" width="16.00" height="16.00" fill="#fbfdfe" />
<rect x="816.00" y="656.00" width="16.00" height="16.00" fill="#fbfdfe" />
<rect x="96.00" y="688.00" width="64.00" height="128.00" fill="#fbfdfe" />
<rect x="336.00" y="752.00" width="16.00" height="64.00" fill="#fbfdfe" />
<rect x="384.00" y="752.00" width="32.00" height="64.00" fill="#fbfdfe" />
<rect x="1024.00" y="768.00" width="16.00" height="592.00" fill="#fbfdfe" />
<rect x="416.00" y="784.00" width="32.00" height="16.00" fill="#fbfdfe" />
<rect x="464.00" y="784.00" width="80.00" height="16.00" fill="#fbfdfe" />
<rect x="560.00" y="784.00" width="48.00" height="144.00" fill="#fbfdfe" />
<rect x="624.00" y="784.00" width="64.00" height="128.00" fill="#fbfdfe" />
<rect x="704.00" y="784.00" width="32.00" height="16.00" fill="#fbfdfe" />
<rect x="768.00" y="784.00" width="256.00" height="16.00" fill="#fbfdfe" />
<rect x="1040.00" y="784.00" width="16.00" height="16.00" fill="#fbfdfe" />
<rect x="1072.00" y="784.00" width="80.00" height="16.00" fill="#fbfdfe" />
<rect x="944.00" y="800.00" width="16.00" height="496.00" fill="#fbfdfe" />
<rect x="128.00" y="816.00" width="16.00" height="544.00" fill="#fbfdfe" />
<rect x="336.00" y="848.00" width="16.00" height="16.00" fill="#fbfdfe" />
<rect x="368.00" y="848.00" width="80.00" height="16.00" fill="#fbfdfe" />
<rect x="464.00" y="848.00" width="80.00" height="16.00" fill="#fbfdfe" />
<rect x="384.00" y="864.00" width="64.00" height="64.00" fill="#fbfdfe" />
<rect x="464.00" y="864.00" width="48.00" height="64.00" fill="#fbfdfe" />
<rect x="512.00" y="880.00" width="32.00" height="16.00" fill="#fbfdfe" />
<rect x="704.00" y="880.00" width="32.00" height="16.00" fill="#fbfdfe" />
<rect x="624.00" y="912.00" width="48.00" height="16.00" fill="#fbfdfe" />
<rect x="624.00" y="976.00" width="64.00" height="128.00" fill="#fbfdfe" />
<rect x="704.00" y="976.00" width="32.00" height="128.00" fill="#fbfdfe" />
<rect x="768.00" y="976.00" width="16.00" height="128.00" fill="#fbfdfe" />
<rect x="288.00" y="992.00" width="32.00" height="176.00" fill="#fbfdfe" />
<rect x="336.00" y="992.00" width="16.00" height="176.00" fill="#fbfdfe" />
<rect x="368.00" y="992.00" width="48.00" height="176.00" fill="#fbfdfe" />
<rect x="144.00" y="1040.00" width="144.00" height="16.00" fill="#fbfdfe" />
<rect x="416.00" y="1040.00" width="32.00" height="16.00" fill="#fbfdfe" />
<rect x="464.00" y="1040.00" width="80.00" height="16.00" fill="#fbfdfe" />
<rect x="560.00" y="1040.00" width="48.00" height="16.00" fill="#fbfdfe" />
<rect x="416.00" y="1072.00" width="32.00" height="16.00" fill="#fbfdfe" />
<rect x="464.00" y="1072.00" width="80.00" height="16.00" fill="#fbfdfe" />
<rect x="560.00" y="1072.00" width="48.00" height="16.00" fill="#fbfdfe" />
<rect x="784.00" y="1072.00" width="160.00" height="16.00" fill="#fbfdfe" />
<rect x="960.00" y="1072.00" width="64.00" height="16.00" fill="#fbfdfe" />
<rect x="1040.00" y="1072.00" width="16.00" height="16.00" fill="#fbfdfe" />
<rect x="1072.00" y="1072.00" width="80.00" height="16.00" fill="#fbfdfe" />
<rect x="80.00" y="1136.00" width="48.00" height="96.00" fill="#fbfdfe" />
<rect x="144.00" y="1136.00" width="64.00" height="96.00" fill="#fbfdfe" />
<rect x="528.00" y="1152.00" width="16.00" height="96.00" fill="#fbfdfe" />
<rect x="560.00" y="1152.00" width="48.00" height="96.00" fill="#fbfdfe" />
<rect x="1088.00" y="1152.00" width="64.00" height="176.00" fill="#fbfdfe" />
<rect x="1184.00" y="1152.00" width="64.00" height="176.00" fill="#fbfdfe" />
<rect x="896.00" y="1168.00" width="48.00" height="128.00" fill="#fbfdfe" />
<rect x="960.00" y="1168.00" width="32.00" height="128.00" fill="#fbfdfe" />
<rect x="208.00" y="1184.00" width="112.00" height="16.00" fill="#fbfdfe" />
<rect x="336.00" y="1184.00" width="16.00" height="80.00" fill="#fbfdfe" />
<rect x="368.00" y="1184.00" width="80.00" height="16.00" fill="#fbfdfe" />
<rect x="464.00" y="1184.00" width="64.00" height="16.00" fill="#fbfdfe" />
<rect x="624.00" y="1184.00" width="64.00" height="16.00" fill="#fbfdfe" />
<rect x="704.00" y="1184.00" width="32.00" height="16.00" fill="#fbfdfe" />
<rect x="768.00" y="1184.00" width="128.00" height="16.00" fill="#fbfdfe" />
<rect x="992.00" y="1184.00" width="32.00" height="16.00" fill="#fbfdfe" />
<rect x="1040.00" y="1184.00" width="16.00" height="16.00" fill="#fbfdfe" />
<rect x="272.00" y="1200.00" width="48.00" height="64.00" fill="#fbfdfe" />
<rect x="368.00" y="1216.00" width="80.00" height="16.00" fill="#fbfdfe" />
<rect x="464.00" y="1216.00" width="64.00" height="32.00" fill="#fbfdfe" />
<rect x="624.00" y="1216.00" width="64.00" height="32.00" fill="#fbfdfe" />
<rect x="704.00" y="1216.00" width="192.00" height="32.00" fill="#fbfdfe" />
<rect x="992.00" y="1216.00" width="32.00" height="32.00" fill="#fbfdfe" />
<rect x="1040.00" y="1216.00" width="16.00" height="32.00" fill="#fbfdfe" />
<rect x="384.00" y="1232.00" width="16.00" height="192.00" fill="#fbfdfe" />
<rect x="1072.00" y="1232.00" width="16.00" height="16.00" fill="#fbfdfe" />
<rect x="752.00" y="1248.00" width="64.00" height="160.00" fill="#fbfdfe" />
<rect x="144.00" y="1280.00" width="160.00" height="144.00" fill="#fbfdfe" />
<rect x="560.00" y="1280.00" width="48.00" height="128.00" fill="#fbfdfe" />
<rect x="624.00" y="1280.00" width="32.00" height="128.00" fill="#fbfdfe" />
<rect x="320.00" y="1296.00" width="32.00" height="128.00" fill="#fbfdfe" />
<rect x="368.00" y="1296.00" width="16.00" height="128.00" fill="#fbfdfe" />
<rect x="400.00" y="1296.00" width="48.00" height="128.00" fill="#fbfdfe" />
<rect x="656.00" y="1328.00" width="96.00" height="32.00" fill="#fbfdfe" />
<rect x="816.00" y="1328.00" width="208.00" height="32.00" fill="#fbfdfe" />
<rect x="304.00" y="1344.00" width="16.00" height="16.00" fill="#fbfdfe" />
<rect x="448.00" y="1344.00" width="96.00" height="16.00" fill="#fbfdfe" />
  </g>
  <g class="grid">
<line x1="0.00" y1="0" x2="0.00" y2="1536.00" />
<line x1="16.00" y1="0" x2="16.00" y2="1536.00" />
<line x1="32.00" y1="0" x2="32.00" y2="1536.00" />
<line x1="48.00" y1="0" x2="48.00" y2="1536.00" />
<line x1="64.00" y1="0" x2="64.00" y2="1536.00" />
<line x1="80.00" y1="0" x2="80.00" y2="1536.00" />
<line x1="96.00" y1="0" x2="96.00" y2="1536.00" />
<line x1="112.00" y1="0" x2="112.00" y2="1536.00" />
<line x1="128.00" y1="0" x2="128.00" y2="1536.00" />
<line x1="144.00" y1="0" x2="144.00" y2="1536.00" />
<line x1="160.00" y1="0" x2="160.00" y2="1536.00" />
<line x1="176.00" y1="0" x2="176.00" y2="1536.00" />
<line x1="192.00" y1="0" x2="192.00" y2="1536.00" />
<line x1="208.00" y1="0" x2="208.00" y2="1536.00" />
<line x1="224.00" y1="0" x2="224.00" y2="1536.00" />
<line x1="240.00" y1="0" x2="240.00" y2="1536.00" />
<line x1="256.00" y1="0" x2="256.00" y2="1536.00" />
<line x1="272.00" y1="0" x2="272.00" y2="1536.00" />
<line x1="288.00" y1="0" x2="288.00" y2="1536.00" />
<line x1="304.00" y1="0" x2="304.00" y2="1536.00" />
<line x1="320.00" y1="0" x2="320.00" y2="1536.00" />
<line x1="336.00" y1="0" x2="336.00" y2="1536.00" />
<line x1="352.00" y1="0" x2="352.00" y2="1536.00" />
<line x1="368.00" y1="0" x2="368.00" y2="1536.00" />
<line x1="384.00" y1="0" x2="384.00" y2="1536.00" />
<line x1="400.00" y1="0" x2="400.00" y2="1536.00" />
<line x1="416.00" y1="0" x2="416.00" y2="1536.00" />
<line x1="432.00" y1="0" x2="432.00" y2="1536.00" />
<line x1="448.00" y1="0" x2="448.00" y2="1536.00" />
<line x1="464.00" y1="0" x2="464.00" y2="1536.00" />
<line x1="480.00" y1="0" x2="480.00" y2="1536.00" />
<line x1="496.00" y1="0" x2="496.00" y2="1536.00" />
<line x1="512.00" y1="0" x2="512.00" y2="1536.00" />
<line x1="528.00" y1="0" x2="528.00" y2="1536.00" />
<line x1="544.00" y1="0" x2="544.00" y2="1536.00" />
<line x1="560.00" y1="0" x2="560.00" y2="1536.00" />
<line x1="576.00" y1="0" x2="576.00" y2="1536.00" />
<line x1="592.00" y1="0" x2="592.00" y2="1536.00" />
<line x1="608.00" y1="0" x2="608.00" y2="1536.00" />
<line x1="624.00" y1="0" x2="624.00" y2="1536.00" />
<line x1="640.00" y1="0" x2="640.00" y2="1536.00" />
<line x1="656.00" y1="0" x2="656.00" y2="1536.00" />
<line x1="672.00" y1="0" x2="672.00" y2="1536.00" />
<line x1="688.00" y1="0" x2="688.00" y2="1536.00" />
<line x1="704.00" y1="0" x2="704.00" y2="1536.00" />
<line x1="720.00" y1="0" x2="720.00" y2="1536.00" />
<line x1="736.00" y1="0" x2="736.00" y2="1536.00" />
<line x1="752.00" y1="0" x2="752.00" y2="1536.00" />
<line x1="768.00" y1="0" x2="768.00" y2="1536.00" />
<line x1="784.00" y1="0" x2="784.00" y2="1536.00" />
<line x1="800.00" y1="0" x2="800.00" y2="1536.00" />
<line x1="816.00" y1="0" x2="816.00" y2="1536.00" />
<line x1="832.00" y1="0" x2="832.00" y2="1536.00" />
<line x1="848.00" y1="0" x2="848.00" y2="1536.00" />
<line x1="864.00" y1="0" x2="864.00" y2="1536.00" />
<line x1="880.00" y1="0" x2="880.00" y2="1536.00" />
<line x1="896.00" y1="0" x2="896.00" y2="1536.00" />
<line x1="912.00" y1="0" x2="912.00" y2="1536.00" />
<line x1="928.00" y1="0" x2="928.00" y2="1536.00" />
<line x1="944.00" y1="0" x2="944.00" y2="1536.00" />
<line x1="960.00" y1="0" x2="960.00" y2="1536.00" />
<line x1="976.00" y1="0" x2="976.00" y2="1536.00" />
<line x1="992.00" y1="0" x2="992.00" y2="1536.00" />
<line x1="1008.00" y1="0" x2="1008.00" y2="1536.00" />
<line x1="1024.00" y1="0" x2="1024.00" y2="1536.00" />
<line x1="1040.00" y1="0" x2="1040.00" y2="1536.00" />
<line x1="1056.00" y1="0" x2="1056.00" y2="1536.00" />
<line x1="1072.00" y1="0" x2="1072.00" y2="1536.00" />
<line x1="1088.00" y1="0" x2="1088.00" y2="1536.00" />
<line x1="1104.00" y1="0" x2="1104.00" y2="1536.00" />
<line x1="1120.00" y1="0" x2="1120.00" y2="1536.00" />
<line x1="1136.00" y1="0" x2="1136.00" y2="1536.00" />
<line x1="1152.00" y1="0" x2="1152.00" y2="1536.00" />
<line x1="1168.00" y1="0" x2="1168.00" y2="1536.00" />
<line x1="1184.00" y1="0" x2="1184.00" y2="1536.00" />
<line x1="1200.00" y1="0" x2="1200.00" y2="1536.00" />
<line x1="1216.00" y1="0" x2="1216.00" y2="1536.00" />
<line x1="1232.00" y1="0" x2="1232.00" y2="1536.00" />
<line x1="1248.00" y1="0" x2="1248.00" y2="1536.00" />
<line x1="1264.00" y1="0" x2="1264.00" y2="1536.00" />
<line x1="1280.00" y1="0" x2="1280.00" y2="1536.00" />
<line x1="0" y1="0.00" x2="1280.00" y2="0.00" />
<line x1="0" y1="16.00" x2="1280.00" y2="16.00" />
<line x1="0" y1="32.00" x2="1280.00" y2="32.00" />
<line x1="0" y1="48.00" x2="1280.00" y2="48.00" />
<line x1="0" y1="64.00" x2="1280.00" y2="64.00" />
<line x1="0" y1="80.00" x2="1280.00" y2="80.00" />
<line x1="0" y1="96.00" x2="1280.00" y2="96.00" />
<line x1="0" y1="112.00" x2="1280.00" y2="112.00" />
<line x1="0" y1="128.00" x2="1280.00" y2="128.00" />
<line x1="0" y1="144.00" x2="1280.00" y2="144.00" />
<line x1="0" y1="160.00" x2="1280.00" y2="160.00" />
<line x1="0" y1="176.00" x2="1280.00" y2="176.00" />
<line x1="0" y1="192.00" x2="1280.00" y2="192.00" />
<line x1="0" y1="208.00" x2="1280.00" y2="208.00" />
<line x1="0" y1="224.00" x2="1280.00" y2="224.00" />
<line x1="0" y1="240.00" x2="1280.00" y2="240.00" />
<line x1="0" y1="256.00" x2="1280.00" y2="256.00" />
<line x1="0" y1="272.00" x2="1280.00" y2="272.00" />
<line x1="0" y1="288.00" x2="1280.00" y2="288.00" />
<line x1="0" y1="304.00" x2="1280.00" y2="304.00" />
<line x1="0" y1="320.00" x2="1280.00" y2="320.00" />
<line x1="0" y1="336.00" x2="1280.00" y2="336.00" />
<line x1="0" y1="352.00" x2="1280.00" y2="352.00" />
<line x1="0" y1="368.00" x2="1280.00" y2="368.00" />
<line x1="0" y1="384.00" x2="1280.00" y2="384.00" />
<line x1="0" y1="400.00" x2="1280.00" y2="400.00" />
<line x1="0" y1="416.00" x2="1280.00" y2="416.00" />
<line x1="0" y1="432.00" x2="1280.00" y2="432.00" />
<line x1="0" y1="448.00" x2="1280.00" y2="448.00" />
<line x1="0" y1="464.00" x2="1280.00" y2="464.00" />
<line x1="0" y1="480.00" x2="1280.00" y2="480.00" />
<line x1="0" y1="496.00" x2="1280.00" y2="496.00" />
<line x1="0" y1="512.00" x2="1280.00" y2="512.00" />
<line x1="0" y1="528.00" x2="1280.00" y2="528.00" />
<line x1="0" y1="544.00" x2="1280.00" y2="544.00" />
<line x1="0" y1="560.00" x2="1280.00" y2="560.00" />
<line x1="0" y1="576.00" x2="1280.00" y2="576.00" />
<line x1="0" y1="592.00" x2="1280.00" y2="592.00" />
<line x1="0" y1="608.00" x2="1280.00" y2="608.00" />
<line x1="0" y1="624.00" x2="1280.00" y2="624.00" />
<line x1="0" y1="640.00" x2="1280.00" y2="640.00" />
<line x1="0" y1="656.00" x2="1280.00" y2="656.00" />
<line x1="0" y1="672.00" x2="1280.00" y2="672.00" />
<line x1="0" y1="688.00" x2="1280.00" y2="688.00" />
<line x1="0" y1="704.00" x2="1280.00" y2="704.00" />
<line x1="0" y1="720.00" x2="1280.00" y2="720.00" />
<line x1="0" y1="736.00" x2="1280.00" y2="736.00" />
<line x1="0" y1="752.00" x2="1280.00" y2="752.00" />
<line x1="0" y1="768.00" x2="1280.00" y2="768.00" />
<line x1="0" y1="784.00" x2="1280.00" y2="784.00" />
<line x1="0" y1="800.00" x2="1280.00" y2="800.00" />
<line x1="0" y1="816.00" x2="1280.00" y2="816.00" />
<line x1="0" y1="832.00" x2="1280.00" y2="832.00" />
<line x1="0" y1="848.00" x2="1280.00" y2="848.00" />
<line x1="0" y1="864.00" x2="1280.00" y2="864.00" />
<line x1="0" y1="880.00" x2="1280.00" y2="880.00" />
<line x1="0" y1="896.00" x2="1280.00" y2="896.00" />
<line x1="0" y1="912.00" x2="1280.00" y2="912.00" />
<line x1="0" y1="928.00" x2="1280.00" y2="928.00" />
<line x1="0" y1="944.00" x2="1280.00" y2="944.00" />
<line x1="0" y1="960.00" x2="1280.00" y2="960.00" />
<line x1="0" y1="976.00" x2="1280.00" y2="976.00" />
<line x1="0" y1="992.00" x2="1280.00" y2="992.00" />
<line x1="0" y1="1008.00" x2="1280.00" y2="1008.00" />
<line x1="0" y1="1024.00" x2="1280.00" y2="1024.00" />
<line x1="0" y1="1040.00" x2="1280.00" y2="1040.00" />
<line x1="0" y1="1056.00" x2="1280.00" y2="1056.00" />
<line x1="0" y1="1072.00" x2="1280.00" y2="1072.00" />
<line x1="0" y1="1088.00" x2="1280.00" y2="1088.00" />
<line x1="0" y1="1104.00" x2="1280.00" y2="1104.00" />
<line x1="0" y1="1120.00" x2="1280.00" y2="1120.00" />
<line x1="0" y1="1136.00" x2="1280.00" y2="1136.00" />
<line x1="0" y1="1152.00" x2="1280.00" y2="1152.00" />
<line x1="0" y1="1168.00" x2="1280.00" y2="1168.00" />
<line x1="0" y1="1184.00" x2="1280.00" y2="1184.00" />
<line x1="0" y1="1200.00" x2="1280.00" y2="1200.00" />
<line x1="0" y1="1216.00" x2="1280.00" y2="1216.00" />
<line x1="0" y1="1232.00" x2="1280.00" y2="1232.00" />
<line x1="0" y1="1248.00" x2="1280.00" y2="1248.00" />
<line x1="0" y1="1264.00" x2="1280.00" y2="1264.00" />
<line x1="0" y1="1280.00" x2="1280.00" y2="1280.00" />
<line x1="0" y1="1296.00" x2="1280.00" y2="1296.00" />
<line x1="0" y1="1312.00" x2="1280.00" y2="1312.00" />
<line x1="0" y1="1328.00" x2="1280.00" y2="1328.00" />
<line x1="0" y1="1344.00" x2="1280.00" y2="1344.00" />
<line x1="0" y1="1360.00" x2="1280.00" y2="1360.00" />
<line x1="0" y1="1376.00" x2="1280.00" y2="1376.00" />
<line x1="0" y1="1392.00" x2="1280.00" y2="1392.00" />
<line x1="0" y1="1408.00" x2="1280.00" y2="1408.00" />
<line x1="0" y1="1424.00" x2="1280.00" y2="1424.00" />
<line x1="0" y1="1440.00" x2="1280.00" y2="1440.00" />
<line x1="0" y1="1456.00" x2="1280.00" y2="1456.00" />
<line x1="0" y1="1472.00" x2="1280.00" y2="1472.00" />
<line x1="0" y1="1488.00" x2="1280.00" y2="1488.00" />
<line x1="0" y1="1504.00" x2="1280.00" y2="1504.00" />
<line x1="0" y1="1520.00" x2="1280.00" y2="1520.00" />
<line x1="0" y1="1536.00" x2="1280.00" y2="1536.00" />
  </g>
  <g class="walls">
<line x1="1056.00" y1="64.00" x2="1168.00" y2="64.00" />
<line x1="896.00" y1="96.00" x2="960.00" y2="96.00" />
<line x1="352.00" y1="112.00" x2="896.00" y2="112.00" />
<line x1="960.00" y1="112.00" x2="1056.00" y2="112.00" />
<line x1="368.00" y1="128.00" x2="896.00" y2="128.00" />
<line x1="960.00" y1="128.00" x2="1056.00" y2="128.00" />
<line x1="160.00" y1="160.00" x2="352.00" y2="160.00" />
<line x1="368.00" y1="160.00" x2="896.00" y2="160.00" />
<line x1="1056.00" y1="160.00" x2="1104.00" y2="160.00" />
<line x1="1120.00" y1="160.00" x2="1168.00" y2="160.00" />
<line x1="176.00" y1="176.00" x2="352.00" y2="176.00" />
<line x1="368.00" y1="176.00" x2="656.00" y2="176.00" />
<line x1="816.00" y1="176.00" x2="896.00" y2="176.00" />
<line x1="1120.00" y1="176.00" x2="1200.00" y2="176.00" />
<line x1="320.00" y1="224.00" x2="352.00" y2="224.00" />
<line x1="368.00" y1="224.00" x2="400.00" y2="224.00" />
<line x1="896.00" y1="240.00" x2="960.00" y2="240.00" />
<line x1="400.00" y1="256.00" x2="656.00" y2="256.00" />
<line x1="816.00" y1="256.00" x2="1104.00" y2="256.00" />
<line x1="400.00" y1="272.00" x2="736.00" y2="272.00" />
<line x1="752.00" y1="272.00" x2="1104.00" y2="272.00" />
<line x1="336.00" y1="304.00" x2="352.00" y2="304.00" />
<line x1="384.00" y1="304.00" x2="400.00" y2="304.00" />
<line x1="384.00" y1="320.00" x2="480.00" y2="320.00" />
<line x1="976.00" y1="320.00" x2="1040.00" y2="320.00" />
<line x1="1120.00" y1="336.00" x2="1152.00" y2="336.00" />
<line x1="1168.00" y1="336.00" x2="1200.00" y2="336.00" />
<line x1="544.00" y1="352.00" x2="736.00" y2="352.00" />
<line x1="752.00" y1="352.00" x2="976.00" y2="352.00" />
<line x1="560.00" y1="368.00" x2="672.00" y2="368.00" />
<line x1="832.00" y1="368.00" x2="976.00" y2="368.00" />
<line x1="112.00" y1="384.00" x2="160.00" y2="384.00" />
<line x1="176.00" y1="384.00" x2="208.00" y2="384.00" />
<line x1="480.00" y1="400.00" x2="544.00" y2="400.00" />
<line x1="560.00" y1="400.00" x2="672.00" y2="400.00" />
<line x1="832.00" y1="400.00" x2="976.00" y2="400.00" />
<line x1="1040.00" y1="400.00" x2="1104.00" y2="400.00" />
<line x1="1120.00" y1="400.00" x2="1152.00" y2="400.00" />
<line x1="1168.00" y1="400.00" x2="1184.00" y2="400.00" />
<line x1="480.00" y1="416.00" x2="544.00" y2="416.00" />
<line x1="560.00" y1="416.00" x2="608.00" y2="416.00" />
<line x1="624.00" y1="416.00" x2="672.00" y2="416.00" />
<line x1="832.00" y1="416.00" x2="1104.00" y2="416.00" />
<line x1="1120.00" y1="416.00" x2="1152.00" y2="416.00" />
<line x1="832.00" y1="432.00" x2="1104.00" y2="432.00" />
<line x1="208.00" y1="448.00" x2="320.00" y2="448.00" />
<line x1="336.00" y1="448.00" x2="352.00" y2="448.00" />
<line x1="832.00" y1="448.00" x2="1056.00" y2="448.00" />
<line x1="1072.00" y1="448.00" x2="1120.00" y2="448.00" />
<line x1="208.00" y1="464.00" x2="320.00" y2="464.00" />
<line x1="336.00" y1="464.00" x2="352.00" y2="464.00" />
<line x1="384.00" y1="480.00" x2="416.00" y2="480.00" />
<line x1="432.00" y1="480.00" x2="448.00" y2="480.00" />
<line x1="464.00" y1="480.00" x2="480.00" y2="480.00" />
<line x1="1024.00" y1="480.00" x2="1056.00" y2="480.00" />
<line x1="1072.00" y1="480.00" x2="1104.00" y2="480.00" />
<line x1="1008.00" y1="496.00" x2="1024.00" y2="496.00" />
<line x1="1104.00" y1="496.00" x2="1120.00" y2="496.00" />
<line x1="112.00" y1="528.00" x2="208.00" y2="528.00" />
<line x1="672.00" y1="528.00" x2="688.00" y2="528.00" />
<line x1="704.00" y1="528.00" x2="736.00" y2="528.00" />
<line x1="768.00" y1="528.00" x2="832.00" y2="528.00" />
<line x1="992.00" y1="512.00" x2="1008.00" y2="512.00" />
<line x1="1120.00" y1="512.00" x2="1136.00" y2="512.00" />
<line x1="496.00" y1="576.00" x2="544.00" y2="576.00" />
<line x1="560.00" y1="576.00" x2="608.00" y2="576.00" />
<line x1="768.00" y1="576.00" x2="784.00" y2="576.00" />
<line x1="992.00" y1="576.00" x2="1008.00" y2="576.00" />
<line x1="1120.00" y1="576.00" x2="1136.00" y2="576.00" />
<line x1="480.00" y1="592.00" x2="496.00" y2="592.00" />
<line x1="784.00" y1="592.00" x2="800.00" y2="592.00" />
<line x1="1008.00" y1="592.00" x2="1024.00" y2="592.00" />
<line x1="1104.00" y1="592.00" x2="1120.00" y2="592.00" />
<line x1="720.00" y1="608.00" x2="736.00" y2="608.00" />
<line x1="800.00" y1="608.00" x2="816.00" y2="608.00" />
<line x1="1024.00" y1="608.00" x2="1056.00" y2="608.00" />
<line x1="1072.00" y1="608.00" x2="1104.00" y2="608.00" />
<line x1="384.00" y1="640.00" x2="416.00" y2="640.00" />
<line x1="432.00" y1="640.00" x2="448.00" y2="640.00" />
<line x1="464.00" y1="640.00" x2="480.00" y2="640.00" />
<line x1="624.00" y1="640.00" x2="640.00" y2="640.00" />
<line x1="992.00" y1="640.00" x2="1056.00" y2="640.00" />
<line x1="384.00" y1="656.00" x2="448.00" y2="656.00" />
<line x1="464.00" y1="656.00" x2="480.00" y2="656.00" />
<line x1="640.00" y1="656.00" x2="688.00" y2="656.00" />
<line x1="704.00" y1="656.00" x2="720.00" y2="656.00" />
<line x1="816.00" y1="656.00" x2="832.00" y2="656.00" />
<line x1="624.00" y1="672.00" x2="688.00" y2="672.00" />
<line x1="704.00" y1="672.00" x2="720.00" y2="672.00" />
<line x1="816.00" y1="672.00" x2="832.00" y2="672.00" />
<line x1="96.00" y1="688.00" x2="160.00" y2="688.00" />
<line x1="480.00" y1="704.00" x2="496.00" y2="704.00" />
<line x1="496.00" y1="720.00" x2="544.00" y2="720.00" />
<line x1="560.00" y1="720.00" x2="608.00" y2="720.00" />
<line x1="720.00" y1="720.00" x2="736.00" y2="720.00" />
<line x1="800.00" y1="720.00" x2="816.00" y2="720.00" />
<line x1="784.00" y1="736.00" x2="800.00" y2="736.00" />
<line x1="336.00" y1="752.00" x2="352.00" y2="752.00" />
<line x1="384.00" y1="752.00" x2="416.00" y2="752.00" />
<line x1="768.00" y1="752.00" x2="784.00" y2="752.00" />
<line x1="992.00" y1="768.00" x2="1024.00" y2="768.00" />
<line x1="1040.00" y1="768.00" x2="1056.00" y2="768.00" />
<line x1="416.00" y1="784.00" x2="448.00" y2="784.00" />
<line x1="464.00" y1="784.00" x2="544.00" y2="784.00" />
<line x1="560.00" y1="784.00" x2="608.00" y2="784.00" />
<line x1="624.00" y1="784.00" x2="688.00" y2="784.00" />
<line x1="704.00" y1="784.00" x2="736.00" y2="784.00" />
<line x1="768.00" y1="784.00" x2="1024.00" y2="784.00" />
<line x1="1040.00" y1="784.00" x2="1056.00" y2="784.00" />
<line x1="1072.00" y1="784.00" x2="1152.00" y2="784.00" />
<line x1="416.00" y1="800.00" x2="448.00" y2="800.00" />
<line x1="464.00" y1="800.00" x2="544.00" y2="800.00" />
<line x1="704.00" y1="800.00" x2="736.00" y2="800.00" />
<line x1="768.00" y1="800.00" x2="944.00" y2="800.00" />
<line x1="960.00" y1="800.00" x2="1024.00" y2="800.00" />
<line x1="1040.00" y1="800.00" x2="1056.00" y2="800.00" />
<line x1="1072.00" y1="800.00" x2="1152.00" y2="800.00" />
<line x1="96.00" y1="816.00" x2="128.00" y2="816.00" />
<line x1="144.00" y1="816.00" x2="160.00" y2="816.00" />
<line x1="336.00" y1="816.00" x2="352.00" y2="816.00" />
<line x1="368.00" y1="816.00" x2="416.00" y2="816.00" />
<line x1="336.00" y1="848.00" x2="352.00" y2="848.00" />
<line x1="368.00" y1="848.00" x2="448.00" y2="848.00" />
<line x1="464.00" y1="848.00" x2="544.00" y2="848.00" />
<line x1="336.00" y1="864.00" x2="352.00" y2="864.00" />
<line x1="368.00" y1="864.00" x2="384.00" y2="864.00" />
<line x1="512.00" y1="864.00" x2="544.00" y2="864.00" />
<line x1="512.00" y1="880.00" x2="544.00" y2="880.00" />
<line x1="704.00" y1="880.00" x2="736.00" y2="880.00" />
<line x1="512.00" y1="896.00" x2="544.00" y2="896.00" />
<line x1="704.00" y1="896.00" x2="736.00" y2="896.00" />
<line x1="672.00" y1="912.00" x2="688.00" y2="912.00" />
<line x1="384.00" y1="928.00" x2="448.00" y2="928.00" />
<line x1="464.00" y1="928.00" x2="512.00" y2="928.00" />
<line x1="560.00" y1="928.00" x2="608.00" y2="928.00" />
<line x1="624.00" y1="928.00" x2="672.00" y2="928.00" />
<line x1="624.00" y1="976.00" x2="688.00" y2="976.00" />
<line x1="704.00" y1="976.00" x2="736.00" y2="976.00" />
<line x1="768.00" y1="976.00" x2="784.00" y2="976.00" />
<line x1="288.00" y1="992.00" x2="320.00" y2="992.00" />
<line x1="336.00" y1="992.00" x2="352.00" y2="992.00" />
<line x1="368.00" y1="992.00" x2="416.00" y2="992.00" />
<line x1="144.00" y1="1040.00" x2="288.00" y2="1040.00" />
<line x1="416.00" y1="1040.00" x2="448.00" y2="1040.00" />
<line x1="464.00" y1="1040.00" x2="544.00" y2="1040.00" />
<line x1="560.00" y1="1040.00" x2="608.00" y2="1040.00" />
<line x1="144.00" y1="1056.00" x2="288.00" y2="1056.00" />
<line x1="416.00" y1="1056.00" x2="448.00" y2="1056.00" />
<line x1="464.00" y1="1056.00" x2="544.00" y2="1056.00" />
<line x1="560.00" y1="1056.00" x2="608.00" y2="1056.00" />
<line x1="416.00" y1="1072.00" x2="448.00" y2="1072.00" />
<line x1="464.00" y1="1072.00" x2="544.00" y2="1072.00" />
<line x1="560.00" y1="1072.00" x2="608.00" y2="1072.00" />
<line x1="784.00" y1="1072.00" x2="944.00" y2="1072.00" />
<line x1="960.00" y1="1072.00" x2="1024.00" y2="1072.00" />
<line x1="1040.00" y1="1072.00" x2="1056.00" y2="1072.00" />
<line x1="1072.00" y1="1072.00" x2="1152.00" y2="1072.00" />
<line x1="416.00" y1="1088.00" x2="448.00" y2="1088.00" />
<line x1="464.00" y1="1088.00" x2="544.00" y2="1088.00" />
<line x1="560.00" y1="1088.00" x2="608.00" y2="1088.00" />
<line x1="784.00" y1="1088.00" x2="944.00" y2="1088.00" />
<line x1="960.00" y1="1088.00" x2="1024.00" y2="1088.00" />
<line x1="1040.00" y1="1088.00" x2="1056.00" y2="1088.00" />
<line x1="1072.00" y1="1088.00" x2="1152.00" y2="1088.00" />
<line x1="624.00" y1="1104.00" x2="688.00" y2="1104.00" />
<line x1="704.00" y1="1104.00" x2="736.00" y2="1104.00" />
<line x1="768.00" y1="1104.00" x2="784.00" y2="1104.00" />
<line x1="80.00" y1="1136.00" x2="128.00" y2="1136.00" />
<line x1="144.00" y1="1136.00" x2="208.00" y2="1136.00" />
<line x1="288.00" y1="1168.00" x2="320.00" y2="1168.00" />
<line x1="336.00" y1="1168.00" x2="352.00" y2="1168.00" />
<line x1="368.00" y1="1168.00" x2="416.00" y2="1168.00" />
<line x1="896.00" y1="1168.00" x2="944.00" y2="1168.00" />
<line x1="960.00" y1="1168.00" x2="992.00" y2="1168.00" />
<line x1="528.00" y1="1152.00" x2="544.00" y2="1152.00" />
<line x1="560.00" y1="1152.00" x2="608.00" y2="1152.00" />
<line x1="1088.00" y1="1152.00" x2="1152.00" y2="1152.00" />
<line x1="1184.00" y1="1152.00" x2="1248.00" y2="1152.00" />
<line x1="208.00" y1="1184.00" x2="320.00" y2="1184.00" />
<line x1="336.00" y1="1184.00" x2="352.00" y2="1184.00" />
<line x1="368.00" y1="1184.00" x2="448.00" y2="1184.00" />
<line x1="464.00" y1="1184.00" x2="528.00" y2="1184.00" />
<line x1="624.00" y1="1184.00" x2="688.00" y2="1184.00" />
<line x1="704.00" y1="1184.00" x2="736.00" y2="1184.00" />
<line x1="768.00" y1="1184.00" x2="896.00" y2="1184.00" />
<line x1="992.00" y1="1184.00" x2="1024.00" y2="1184.00" />
<line x1="1040.00" y1="1184.00" x2="1056.00" y2="1184.00" />
<line x1="208.00" y1="1200.00" x2="272.00" y2="1200.00" />
<line x1="368.00" y1="1200.00" x2="448.00" y2="1200.00" />
<line x1="464.00" y1="1200.00" x2="528.00" y2="1200.00" />
<line x1="624.00" y1="1200.00" x2="688.00" y2="1200.00" />
<line x1="704.00" y1="1200.00" x2="896.00" y2="1200.00" />
<line x1="992.00" y1="1200.00" x2="1024.00" y2="1200.00" />
<line x1="1040.00" y1="1200.00" x2="1056.00" y2="1200.00" />
<line x1="80.00" y1="1232.00" x2="128.00" y2="1232.00" />
<line x1="144.00" y1="1232.00" x2="208.00" y2="1232.00" />
<line x1="368.00" y1="1232.00" x2="384.00" y2="1232.00" />
<line x1="400.00" y1="1232.00" x2="448.00" y2="1232.00" />
<line x1="1072.00" y1="1232.00" x2="1088.00" y2="1232.00" />
<line x1="368.00" y1="1216.00" x2="448.00" y2="1216.00" />
<line x1="464.00" y1="1216.00" x2="528.00" y2="1216.00" />
<line x1="624.00" y1="1216.00" x2="688.00" y2="1216.00" />
<line x1="704.00" y1="1216.00" x2="896.00" y2="1216.00" />
<line x1="992.00" y1="1216.00" x2="1024.00" y2="1216.00" />
<line x1="1040.00" y1="1216.00" x2="1056.00" y2="1216.00" />
<line x1="448.00" y1="1248.00" x2="544.00" y2="1248.00" />
<line x1="560.00" y1="1248.00" x2="608.00" y2="1248.00" />
<line x1="624.00" y1="1248.00" x2="752.00" y2="1248.00" />
<line x1="816.00" y1="1248.00" x2="896.00" y2="1248.00" />
<line x1="992.00" y1="1248.00" x2="1024.00" y2="1248.00" />
<line x1="1040.00" y1="1248.00" x2="1088.00" y2="1248.00" />
<line x1="272.00" y1="1264.00" x2="352.00" y2="1264.00" />
<line x1="144.00" y1="1280.00" x2="304.00" y2="1280.00" />
<line x1="560.00" y1="1280.00" x2="608.00" y2="1280.00" />
<line x1="624.00" y1="1280.00" x2="656.00" y2="1280.00" />
<line x1="320.00" y1="1296.00" x2="352.00" y2="1296.00" />
<line x1="368.00" y1="1296.00" x2="384.00" y2="1296.00" />
<line x1="400.00" y1="1296.00" x2="448.00" y2="1296.00" />
<line x1="896.00" y1="1296.00" x2="992.00" y2="1296.00" />
<line x1="656.00" y1="1328.00" x2="752.00" y2="1328.00" />
<line x1="816.00" y1="1328.00" x2="1024.00" y2="1328.00" />
<line x1="1088.00" y1="1328.00" x2="1248.00" y2="1328.00" />
<line x1="128.00" y1="1360.00" x2="144.00" y2="1360.00" />
<line x1="304.00" y1="1360.00" x2="320.00" y2="1360.00" />
<line x1="448.00" y1="1360.00" x2="560.00" y2="1360.00" />
<line x1="656.00" y1="1360.00" x2="752.00" y2="1360.00" />
<line x1="816.00" y1="1360.00" x2="1040.00" y2="1360.00" />
<line x1="304.00" y1="1344.00" x2="320.00" y2="1344.00" />
<line x1="448.00" y1="1344.00" x2="544.00" y2="1344.00" />
<line x1="560.00" y1="1408.00" x2="656.00" y2="1408.00" />
<line x1="752.00" y1="1408.00" x2="816.00" y2="1408.00" />
<line x1="144.00" y1="1424.00" x2="304.00" y2="1424.00" />
<line x1="320.00" y1="1424.00" x2="448.00" y2="1424.00" />
<line x1="1056.00" y1="64.00" x2="1056.00" y2="112.00" />
<line x1="1056.00" y1="128.00" x2="1056.00" y2="160.00" />
<line x1="1056.00" y1="448.00" x2="1056.00" y2="480.00" />
<line x1="1056.00" y1="608.00" x2="1056.00" y2="640.00" />
<line x1="1056.00" y1="768.00" x2="1056.00" y2="784.00" />
<line x1="1056.00" y1="800.00" x2="1056.00" y2="1072.00" />
<line x1="1056.00" y1="1088.00" x2="1056.00" y2="1184.00" />
<line x1="1056.00" y1="1200.00" x2="1056.00" y2="1216.00" />
<line x1="1168.00" y1="64.00" x2="1168.00" y2="160.00" />
<line x1="1168.00" y1="336.00" x2="1168.00" y2="400.00" />
<line x1="896.00" y1="96.00" x2="896.00" y2="112.00" />
<line x1="896.00" y1="128.00" x2="896.00" y2="160.00" />
<line x1="896.00" y1="176.00" x2="896.00" y2="240.00" />
<line x1="896.00" y1="1168.00" x2="896.00" y2="1184.00" />
<line x1="896.00" y1="1200.00" x2="896.00" y2="1216.00" />
<line x1="896.00" y1="1248.00" x2="896.00" y2="1296.00" />
<line x1="960.00" y1="96.00" x2="960.00" y2="112.00" />
<line x1="960.00" y1="128.00" x2="960.00" y2="240.00" />
<line x1="960.00" y1="800.00" x2="960.00" y2="1072.00" />
<line x1="960.00" y1="1088.00" x2="960.00" y2="1168.00" />
<line x1="352.00" y1="112.00" x2="352.00" y2="160.00" />
<line x1="352.00" y1="176.00" x2="352.00" y2="224.00" />
<line x1="352.00" y1="304.00" x2="352.00" y2="448.00" />
<line x1="352.00" y1="464.00" x2="352.00" y2="752.00" />
<line x1="352.00" y1="816.00" x2="352.00" y2="848.00" />
<line x1="352.00" y1="864.00" x2="352.00" y2="992.00" />
<line x1="352.00" y1="1168.00" x2="352.00" y2="1184.00" />
<line x1="352.00" y1="1264.00" x2="352.00" y2="1296.00" />
<line x1="368.00" y1="128.00" x2="368.00" y2="160.00" />
<line x1="368.00" y1="176.00" x2="368.00" y2="224.00" />
<line x1="368.00" y1="816.00" x2="368.00" y2="848.00" />
<line x1="368.00" y1="864.00" x2="368.00" y2="992.00" />
<line x1="368.00" y1="1168.00" x2="368.00" y2="1184.00" />
<line x1="368.00" y1="1200.00" x2="368.00" y2="1216.00" />
<line x1="368.00" y1="1232.00" x2="368.00" y2="1296.00" />
<line x1="160.00" y1="160.00" x2="160.00" y2="384.00" />
<line x1="160.00" y1="688.00" x2="160.00" y2="816.00" />
<line x1="1104.00" y1="160.00" x2="1104.00" y2="256.00" />
<line x1="1104.00" y1="272.00" x2="1104.00" y2="400.00" />
<line x1="1104.00" y1="416.00" x2="1104.00" y2="432.00" />
<line x1="1104.00" y1="480.00" x2="1104.00" y2="496.00" />
<line x1="1104.00" y1="592.00" x2="1104.00" y2="608.00" />
<line x1="1120.00" y1="160.00" x2="1120.00" y2="176.00" />
<line x1="1120.00" y1="336.00" x2="1120.00" y2="400.00" />
<line x1="1120.00" y1="416.00" x2="1120.00" y2="448.00" />
<line x1="1120.00" y1="496.00" x2="1120.00" y2="512.00" />
<line x1="1120.00" y1="576.00" x2="1120.00" y2="592.00" />
<line x1="176.00" y1="176.00" x2="176.00" y2="384.00" />
<line x1="656.00" y1="176.00" x2="656.00" y2="256.00" />
<line x1="656.00" y1="1280.00" x2="656.00" y2="1328.00" />
<line x1="656.00" y1="1360.00" x2="656.00" y2="1408.00" />
<line x1="816.00" y1="176.00" x2="816.00" y2="256.00" />
<line x1="816.00" y1="608.00" x2="816.00" y2="656.00" />
<line x1="816.00" y1="672.00" x2="816.00" y2="720.00" />
<line x1="816.00" y1="1248.00" x2="816.00" y2="1328.00" />
<line x1="816.00" y1="1360.00" x2="816.00" y2="1408.00" />
<line x1="1200.00" y1="176.00" x2="1200.00" y2="336.00" />
<line x1="320.00" y1="224.00" x2="320.00" y2="448.00" />
<line x1="320.00" y1="464.00" x2="320.00" y2="992.00" />
<line x1="320.00" y1="1168.00" x2="320.00" y2="1184.00" />
<line x1="320.00" y1="1296.00" x2="320.00" y2="1344.00" />
<line x1="320.00" y1="1360.00" x2="320.00" y2="1424.00" />
<line x1="400.00" y1="224.00" x2="400.00" y2="256.00" />
<line x1="400.00" y1="272.00" x2="400.00" y2="304.00" />
<line x1="400.00" y1="1232.00" x2="400.00" y2="1296.00" />
<line x1="736.00" y1="272.00" x2="736.00" y2="352.00" />
<line x1="736.00" y1="528.00" x2="736.00" y2="608.00" />
<line x1="736.00" y1="720.00" x2="736.00" y2="784.00" />
<line x1="736.00" y1="800.00" x2="736.00" y2="880.00" />
<line x1="736.00" y1="896.00" x2="736.00" y2="976.00" />
<line x1="736.00" y1="1104.00" x2="736.00" y2="1184.00" />
<line x1="752.00" y1="272.00" x2="752.00" y2="352.00" />
<line x1="752.00" y1="1248.00" x2="752.00" y2="1328.00" />
<line x1="752.00" y1="1360.00" x2="752.00" y2="1408.00" />
<line x1="336.00" y1="304.00" x2="336.00" y2="448.00" />
<line x1="336.00" y1="464.00" x2="336.00" y2="752.00" />
<line x1="336.00" y1="816.00" x2="336.00" y2="848.00" />
<line x1="336.00" y1="864.00" x2="336.00" y2="992.00" />
<line x1="336.00" y1="1168.00" x2="336.00" y2="1184.00" />
<line x1="384.00" y1="304.00" x2="384.00" y2="320.00" />
<line x1="384.00" y1="480.00" x2="384.00" y2="640.00" />
<line x1="384.00" y1="656.00" x2="384.00" y2="752.00" />
<line x1="384.00" y1="864.00" x2="384.00" y2="928.00" />
<line x1="384.00" y1="1232.00" x2="384.00" y2="1296.00" />
<line x1="480.00" y1="320.00" x2="480.00" y2="400.00" />
<line x1="480.00" y1="416.00" x2="480.00" y2="480.00" />
<line x1="480.00" y1="592.00" x2="480.00" y2="640.00" />
<line x1="480.00" y1="656.00" x2="480.00" y2="704.00" />
<line x1="976.00" y1="320.00" x2="976.00" y2="352.00" />
<line x1="976.00" y1="368.00" x2="976.00" y2="400.00" />
<line x1="1040.00" y1="320.00" x2="1040.00" y2="400.00" />
<line x1="1040.00" y1="768.00" x2="1040.00" y2="784.00" />
<line x1="1040.00" y1="800.00" x2="1040.00" y2="1072.00" />
<line x1="1040.00" y1="1088.00" x2="1040.00" y2="1184.00" />
<line x1="1040.00" y1="1200.00" x2="1040.00" y2="1216.00" />
<line x1="1040.00" y1="1248.00" x2="1040.00" y2="1360.00" />
<line x1="1152.00" y1="336.00" x2="1152.00" y2="400.00" />
<line x1="1152.00" y1="416.00" x2="1152.00" y2="784.00" />
<line x1="1152.00" y1="800.00" x2="1152.00" y2="1072.00" />
<line x1="1152.00" y1="1088.00" x2="1152.00" y2="1152.00" />
<line x1="544.00" y1="352.00" x2="544.00" y2="400.00" />
<line x1="544.00" y1="416.00" x2="544.00" y2="576.00" />
<line x1="544.00" y1="720.00" x2="544.00" y2="784.00" />
<line x1="544.00" y1="800.00" x2="544.00" y2="848.00" />
<line x1="544.00" y1="864.00" x2="544.00" y2="880.00" />
<line x1="544.00" y1="896.00" x2="544.00" y2="1040.00" />
<line x1="544.00" y1="1056.00" x2="544.00" y2="1072.00" />
<line x1="544.00" y1="1088.00" x2="544.00" y2="1152.00" />
<line x1="544.00" y1="1248.00" x2="544.00" y2="1344.00" />
<line x1="560.00" y1="368.00" x2="560.00" y2="400.00" />
<line x1="560.00" y1="416.00" x2="560.00" y2="576.00" />
<line x1="560.00" y1="720.00" x2="560.00" y2="784.00" />
<line x1="560.00" y1="928.00" x2="560.00" y2="1040.00" />
<line x1="560.00" y1="1056.00" x2="560.00" y2="1072.00" />
<line x1="560.00" y1="1088.00" x2="560.00" y2="1152.00" />
<line x1="560.00" y1="1248.00" x2="560.00" y2="1280.00" />
<line x1="560.00" y1="1360.00" x2="560.00" y2="1408.00" />
<line x1="672.00" y1="368.00" x2="672.00" y2="400.00" />
<line x1="672.00" y1="416.00" x2="672.00" y2="528.00" />
<line x1="672.00" y1="912.00" x2="672.00" y2="928.00" />
<line x1="832.00" y1="368.00" x2="832.00" y2="400.00" />
<line x1="832.00" y1="416.00" x2="832.00" y2="432.00" />
<line x1="832.00" y1="448.00" x2="832.00" y2="528.00" />
<line x1="832.00" y1="656.00" x2="832.00" y2="672.00" />
<line x1="112.00" y1="384.00" x2="112.00" y2="528.00" />
<line x1="208.00" y1="384.00" x2="208.00" y2="448.00" />
<line x1="208.00" y1="464.00" x2="208.00" y2="528.00" />
<line x1="208.00" y1="1136.00" x2="208.00" y2="1184.00" />
<line x1="208.00" y1="1200.00" x2="208.00" y2="1232.00" />
<line x1="1184.00" y1="400.00" x2="1184.00" y2="1152.00" />
<line x1="608.00" y1="416.00" x2="608.00" y2="576.00" />
<line x1="608.00" y1="720.00" x2="608.00" y2="784.00" />
<line x1="608.00" y1="928.00" x2="608.00" y2="1040.00" />
<line x1="608.00" y1="1056.00" x2="608.00" y2="1072.00" />
<line x1="608.00" y1="1088.00" x2="608.00" y2="1152.00" />
<line x1="608.00" y1="1248.00" x2="608.00" y2="1280.00" />
<line x1="624.00" y1="416.00" x2="624.00" y2="640.00" />
<line x1="624.00" y1="672.00" x2="624.00" y2="784.00" />
<line x1="624.00" y1="928.00" x2="624.00" y2="976.00" />
<line x1="624.00" y1="1104.00" x2="624.00" y2="1184.00" />
<line x1="624.00" y1="1200.00" x2="624.00" y2="1216.00" />
<line x1="624.00" y1="1248.00" x2="624.00" y2="1280.00" />
<line x1="1072.00" y1="448.00" x2="1072.00" y2="480.00" />
<line x1="1072.00" y1="608.00" x2="1072.00" y2="784.00" />
<line x1="1072.00" y1="800.00" x2="1072.00" y2="1072.00" />
<line x1="1072.00" y1="1088.00" x2="1072.00" y2="1232.00" />
<line x1="416.00" y1="480.00" x2="416.00" y2="640.00" />
<line x1="416.00" y1="752.00" x2="416.00" y2="784.00" />
<line x1="416.00" y1="800.00" x2="416.00" y2="816.00" />
<line x1="416.00" y1="992.00" x2="416.00" y2="1040.00" />
<line x1="416.00" y1="1056.00" x2="416.00" y2="1072.00" />
<line x1="416.00" y1="1088.00" x2="416.00" y2="1168.00" />
<line x1="432.00" y1="480.00" x2="432.00" y2="640.00" />
<line x1="448.00" y1="480.00" x2="448.00" y2="640.00" />
<line x1="448.00" y1="656.00" x2="448.00" y2="784.00" />
<line x1="448.00" y1="800.00" x2="448.00" y2="848.00" />
<line x1="448.00" y1="928.00" x2="448.00" y2="1040.00" />
<line x1="448.00" y1="1056.00" x2="448.00" y2="1072.00" />
<line x1="448.00" y1="1088.00" x2="448.00" y2="1184.00" />
<line x1="448.00" y1="1200.00" x2="448.00" y2="1216.00" />
<line x1="448.00" y1="1232.00" x2="448.00" y2="1248.00" />
<line x1="448.00" y1="1296.00" x2="448.00" y2="1344.00" />
<line x1="448.00" y1="1360.00" x2="448.00" y2="1424.00" />
<line x1="464.00" y1="480.00" x2="464.00" y2="640.00" />
<line x1="464.00" y1="656.00" x2="464.00" y2="784.00" />
<line x1="464.00" y1="800.00" x2="464.00" y2="848.00" />
<line x1="464.00" y1="928.00" x2="464.00" y2="1040.00" />
<line x1="464.00" y1="1056.00" x2="464.00" y2="1072.00" />
<line x1="464.00" y1="1088.00" x2="464.00" y2="1184.00" />
<line x1="464.00" y1="1200.00" x2="464.00" y2="1216.00" />
<line x1="1024.00" y1="480.00" x2="1024.00" y2="496.00" />
<line x1="1024.00" y1="592.00" x2="1024.00" y2="608.00" />
<line x1="1024.00" y1="768.00" x2="1024.00" y2="784.00" />
<line x1="1024.00" y1="800.00" x2="1024.00" y2="1072.00" />
<line x1="1024.00" y1="1088.00" x2="1024.00" y2="1184.00" />
<line x1="1024.00" y1="1200.00" x2="1024.00" y2="1216.00" />
<line x1="1024.00" y1="1248.00" x2="1024.00" y2="1328.00" />
<line x1="1008.00" y1="496.00" x2="1008.00" y2="512.00" />
<line x1="1008.00" y1="576.00" x2="1008.00" y2="592.00" />
<line x1="992.00" y1="512.00" x2="992.00" y2="576.00" />
<line x1="992.00" y1="640.00" x2="992.00" y2="768.00" />
<line x1="992.00" y1="1168.00" x2="992.00" y2="1184.00" />
<line x1="992.00" y1="1200.00" x2="992.00" y2="1216.00" />
<line x1="992.00" y1="1248.00" x2="992.00" y2="1296.00" />
<line x1="1136.00" y1="512.00" x2="1136.00" y2="576.00" />
<line x1="688.00" y1="528.00" x2="688.00" y2="656.00" />
<line x1="688.00" y1="672.00" x2="688.00" y2="784.00" />
<line x1="688.00" y1="912.00" x2="688.00" y2="976.00" />
<line x1="688.00" y1="1104.00" x2="688.00" y2="1184.00" />
<line x1="688.00" y1="1200.00" x2="688.00" y2="1216.00" />
<line x1="704.00" y1="528.00" x2="704.00" y2="656.00" />
<line x1="704.00" y1="672.00" x2="704.00" y2="784.00" />
<line x1="704.00" y1="800.00" x2="704.00" y2="880.00" />
<line x1="704.00" y1="896.00" x2="704.00" y2="976.00" />
<line x1="704.00" y1="1104.00" x2="704.00" y2="1184.00" />
<line x1="704.00" y1="1200.00" x2="704.00" y2="1216.00" />
<line x1="768.00" y1="528.00" x2="768.00" y2="576.00" />
<line x1="768.00" y1="752.00" x2="768.00" y2="784.00" />
<line x1="768.00" y1="800.00" x2="768.00" y2="976.00" />
<line x1="768.00" y1="1104.00" x2="768.00" y2="1184.00" />
<line x1="496.00" y1="576.00" x2="496.00" y2="592.00" />
<line x1="496.00" y1="704.00" x2="496.00" y2="720.00" />
<line x1="784.00" y1="576.00" x2="784.00" y2="592.00" />
<line x1="784.00" y1="736.00" x2="784.00" y2="752.00" />
<line x1="784.00" y1="976.00" x2="784.00" y2="1072.00" />
<line x1="784.00" y1="1088.00" x2="784.00" y2="1104.00" />
<line x1="800.00" y1="592.00" x2="800.00" y2="608.00" />
<line x1="800.00" y1="720.00" x2="800.00" y2="736.00" />
<line x1="720.00" y1="608.00" x2="720.00" y2="656.00" />
<line x1="720.00" y1="672.00" x2="720.00" y2="720.00" />
<line x1="640.00" y1="640.00" x2="640.00" y2="656.00" />
<line x1="96.00" y1="688.00" x2="96.00" y2="816.00" />
<line x1="944.00" y1="800.00" x2="944.00" y2="1072.00" />
<line x1="944.00" y1="1088.00" x2="944.00" y2="1168.00" />
<line x1="128.00" y1="816.00" x2="128.00" y2="1136.00" />
<line x1="128.00" y1="1232.00" x2="128.00" y2="1360.00" />
<line x1="144.00" y1="816.00" x2="144.00" y2="1040.00" />
<line x1="144.00" y1="1056.00" x2="144.00" y2="1136.00" />
<line x1="144.00" y1="1232.00" x2="144.00" y2="1280.00" />
<line x1="144.00" y1="1360.00" x2="144.00" y2="1424.00" />
<line x1="512.00" y1="864.00" x2="512.00" y2="880.00" />
<line x1="512.00" y1="896.00" x2="512.00" y2="928.00" />
<line x1="288.00" y1="992.00" x2="288.00" y2="1040.00" />
<line x1="288.00" y1="1056.00" x2="288.00" y2="1168.00" />
<line x1="80.00" y1="1136.00" x2="80.00" y2="1232.00" />
<line x1="528.00" y1="1152.00" x2="528.00" y2="1184.00" />
<line x1="528.00" y1="1200.00" x2="528.00" y2="1216.00" />
<line x1="1088.00" y1="1152.00" x2="1088.00" y2="1232.00" />
<line x1="1088.00" y1="1248.00" x2="1088.00" y2="1328.00" />
<line x1="1248.00" y1="1152.00" x2="1248.00" y2="1328.00" />
<line x1="272.00" y1="1200.00" x2="272.00" y2="1264.00" />
<line x1="304.00" y1="1280.00" x2="304.00" y2="1344.00" />
<line x1="304.00" y1="1360.00" x2="304.00" y2="1424.00" />
  </g>
  <g class="features">
<g data-feature-type="stairsDown"><line data-feature-type="stairsDown" x1="610.24" y1="819.36" x2="621.76" y2="819.36" /><line x1="610.65" y1="821.68" x2="621.35" y2="821.68" /><line x1="611.07" y1="824.00" x2="620.93" y2="824.00" /><line x1="611.48" y1="826.32" x2="620.52" y2="826.32" /><line x1="611.90" y1="828.64" x2="620.10" y2="828.64" /></g>
<g data-feature-type="stairsUp"><line data-feature-type="stairsUp" x1="563.90" y1="659.36" x2="572.10" y2="659.36" /><line x1="563.48" y1="661.68" x2="572.52" y2="661.68" /><line x1="563.07" y1="664.00" x2="572.93" y2="664.00" /><line x1="562.65" y1="666.32" x2="573.35" y2="666.32" /><line x1="562.24" y1="668.64" x2="573.76" y2="668.64" /></g>
<circle data-feature-type="pillar" cx="424.00" cy="376.00" r="3.68" fill="#5c92ab" stroke="none" />
<circle data-feature-type="pillar" cx="424.00" cy="392.00" r="3.68" fill="#5c92ab" stroke="none" />
<g data-feature-type="statue"><circle cx="376.00" cy="376.00" r="3.52" fill="none" /><line x1="373.76" y1="376.00" x2="378.24" y2="376.00" /><line x1="376.00" y1="373.76" x2="376.00" y2="378.24" /><line x1="374.39" y1="374.39" x2="377.61" y2="377.61" /><line x1="374.39" y1="377.61" x2="377.61" y2="374.39" /></g>
<g data-feature-type="trap"><rect x="388.64" y="420.64" width="6.72" height="6.72" fill="none" /><line x1="388.64" y1="420.64" x2="395.36" y2="427.36" /><line x1="388.64" y1="427.36" x2="395.36" y2="420.64" /></g>
<circle data-feature-type="pillar" cx="1192.00" cy="1240.00" r="3.68" fill="#5c92ab" stroke="none" />
<circle data-feature-type="pillar" cx="680.00" cy="1064.00" r="3.68" fill="#5c92ab" stroke="none" />
<circle data-feature-type="pillar" cx="728.00" cy="1064.00" r="3.68" fill="#5c92ab" stroke="none" />
<circle data-feature-type="pillar" cx="664.00" cy="1064.00" r="3.68" fill="#5c92ab" stroke="none" />
<circle data-feature-type="pillar" cx="344.00" cy="1224.00" r="3.68" fill="#5c92ab" stroke="none" />
<g data-feature-type="statue"><circle cx="328.00" cy="1208.00" r="3.52" fill="none" /><line x1="325.76" y1="1208.00" x2="330.24" y2="1208.00" /><line x1="328.00" y1="1205.76" x2="328.00" y2="1210.24" /><line x1="326.39" y1="1206.39" x2="329.61" y2="1209.61" /><line x1="326.39" y1="1209.61" x2="329.61" y2="1206.39" /></g>
<g data-feature-type="coffin"><rect x="309.60" y="1204.32" width="4.80" height="7.36" rx="0.80" ry="0.80" fill="none" /><line x1="312.00" y1="1205.94" x2="312.00" y2="1210.06" /></g>
<g data-feature-type="chest"><rect x="469.28" y="902.24" width="5.44" height="3.52" fill="none" /><line x1="469.28" y1="904.00" x2="474.72" y2="904.00" /><circle cx="472.00" cy="904.18" r="0.70" fill="#5c92ab" stroke="none" /></g>
<circle data-feature-type="pillar" cx="392.00" cy="792.00" r="3.68" fill="#5c92ab" stroke="none" />
<g data-feature-type="chest"><rect x="357.28" y="790.24" width="5.44" height="3.52" fill="none" /><line x1="357.28" y1="792.00" x2="362.72" y2="792.00" /><circle cx="360.00" cy="792.18" r="0.70" fill="#5c92ab" stroke="none" /></g>
<circle data-feature-type="pillar" cx="136.00" cy="456.00" r="3.68" fill="#5c92ab" stroke="none" />
<circle data-feature-type="pillar" cx="184.00" cy="456.00" r="3.68" fill="#5c92ab" stroke="none" />
<g data-feature-type="statue"><circle cx="152.00" cy="424.00" r="3.52" fill="none" /><line x1="149.76" y1="424.00" x2="154.24" y2="424.00" /><line x1="152.00" y1="421.76" x2="152.00" y2="426.24" /><line x1="150.39" y1="422.39" x2="153.61" y2="425.61" /><line x1="150.39" y1="425.61" x2="153.61" y2="422.39" /></g>
<g data-feature-type="trap"><rect x="164.64" y="484.64" width="6.72" height="6.72" fill="none" /><line x1="164.64" y1="484.64" x2="171.36" y2="491.36" /><line x1="164.64" y1="491.36" x2="171.36" y2="484.64" /></g>
<circle data-feature-type="pillar" cx="568.00" cy="648.00" r="3.68" fill="#5c92ab" stroke="none" />
<g data-feature-type="altar"><rect x="565.28" y="678.40" width="5.44" height="3.20" fill="none" /><line x1="568.00" y1="677.44" x2="568.00" y2="682.56" /><line x1="566.40" y1="680.00" x2="569.60" y2="680.00" /></g>
<g data-feature-type="trap"><rect x="484.64" y="692.64" width="6.72" height="6.72" fill="none" /><line x1="484.64" y1="692.64" x2="491.36" y2="699.36" /><line x1="484.64" y1="699.36" x2="491.36" y2="692.64" /></g>
<circle data-feature-type="pillar" cx="808.00" cy="1336.00" r="3.68" fill="#5c92ab" stroke="none" />
<g data-feature-type="trap"><rect x="740.64" y="708.64" width="6.72" height="6.72" fill="none" /><line x1="740.64" y1="708.64" x2="747.36" y2="715.36" /><line x1="740.64" y1="715.36" x2="747.36" y2="708.64" /></g>
<circle data-feature-type="pillar" cx="776.00" cy="440.00" r="3.68" fill="#5c92ab" stroke="none" />
<g data-feature-type="well"><circle cx="616.00" cy="1384.00" r="4.00" fill="none" /><circle cx="616.00" cy="1384.00" r="2.24" fill="none" /></g>
<circle data-feature-type="pillar" cx="952.00" cy="168.00" r="3.68" fill="#5c92ab" stroke="none" />
<g data-feature-type="trap"><rect x="932.64" y="180.64" width="6.72" height="6.72" fill="none" /><line x1="932.64" y1="180.64" x2="939.36" y2="187.36" /><line x1="932.64" y1="187.36" x2="939.36" y2="180.64" /></g>
<g data-feature-type="trap"><rect x="1108.64" y="548.64" width="6.72" height="6.72" fill="none" /><line x1="1108.64" y1="548.64" x2="1115.36" y2="555.36" /><line x1="1108.64" y1="555.36" x2="1115.36" y2="548.64" /></g>
<circle data-feature-type="pillar" cx="1128.00" cy="120.00" r="3.68" fill="#5c92ab" stroke="none" />
<g data-feature-type="coffin"><rect x="1077.60" y="132.32" width="4.80" height="7.36" rx="0.80" ry="0.80" fill="none" /><line x1="1080.00" y1="133.94" x2="1080.00" y2="138.06" /></g>
<circle data-feature-type="pillar" cx="344.00" cy="1064.00" r="3.68" fill="#5c92ab" stroke="none" />
<circle data-feature-type="pillar" cx="376.00" cy="1064.00" r="3.68" fill="#5c92ab" stroke="none" />
<circle data-feature-type="pillar" cx="328.00" cy="1064.00" r="3.68" fill="#5c92ab" stroke="none" />
<g data-feature-type="trap"><rect x="372.64" y="1108.64" width="6.72" height="6.72" fill="none" /><line x1="372.64" y1="1108.64" x2="379.36" y2="1115.36" /><line x1="372.64" y1="1115.36" x2="379.36" y2="1108.64" /></g>
<circle data-feature-type="pillar" cx="152.00" cy="760.00" r="3.68" fill="#5c92ab" stroke="none" />
<circle data-feature-type="pillar" cx="168.00" cy="1192.00" r="3.68" fill="#5c92ab" stroke="none" />
<circle data-feature-type="pillar" cx="184.00" cy="1192.00" r="3.68" fill="#5c92ab" stroke="none" />
<circle data-feature-type="pillar" cx="376.00" cy="264.00" r="3.68" fill="#5c92ab" stroke="none" />
<circle data-feature-type="pillar" cx="712.00" cy="216.00" r="3.68" fill="#5c92ab" stroke="none" />
<circle data-feature-type="pillar" cx="776.00" cy="216.00" r="3.68" fill="#5c92ab" stroke="none" />
<circle data-feature-type="pillar" cx="1160.00" cy="296.00" r="3.68" fill="#5c92ab" stroke="none" />
<circle data-feature-type="pillar" cx="1160.00" cy="248.00" r="3.68" fill="#5c92ab" stroke="none" />
<g data-feature-type="statue"><circle cx="1176.00" cy="296.00" r="3.52" fill="none" /><line x1="1173.76" y1="296.00" x2="1178.24" y2="296.00" /><line x1="1176.00" y1="293.76" x2="1176.00" y2="298.24" /><line x1="1174.39" y1="294.39" x2="1177.61" y2="297.61" /><line x1="1174.39" y1="297.61" x2="1177.61" y2="294.39" /></g>
<g data-feature-type="trap"><rect x="1156.64" y="228.64" width="6.72" height="6.72" fill="none" /><line x1="1156.64" y1="228.64" x2="1163.36" y2="235.36" /><line x1="1156.64" y1="235.36" x2="1163.36" y2="228.64" /></g>
<g data-feature-type="coffin"><rect x="581.60" y="1172.32" width="4.80" height="7.36" rx="0.80" ry="0.80" fill="none" /><line x1="584.00" y1="1173.94" x2="584.00" y2="1178.06" /></g>
<circle data-feature-type="pillar" cx="1048.00" cy="712.00" r="3.68" fill="#5c92ab" stroke="none" />
<g data-feature-type="statue"><circle cx="1032.00" cy="744.00" r="3.52" fill="none" /><line x1="1029.76" y1="744.00" x2="1034.24" y2="744.00" /><line x1="1032.00" y1="741.76" x2="1032.00" y2="746.24" /><line x1="1030.39" y1="742.39" x2="1033.61" y2="745.61" /><line x1="1030.39" y1="745.61" x2="1033.61" y2="742.39" /></g>
<g data-feature-type="trap"><rect x="1044.64" y="676.64" width="6.72" height="6.72" fill="none" /><line x1="1044.64" y1="676.64" x2="1051.36" y2="683.36" /><line x1="1044.64" y1="683.36" x2="1051.36" y2="676.64" /></g>
<g data-feature-type="chest"><rect x="1029.28" y="662.24" width="5.44" height="3.52" fill="none" /><line x1="1029.28" y1="664.00" x2="1034.72" y2="664.00" /><circle cx="1032.00" cy="664.18" r="0.70" fill="#5c92ab" stroke="none" /></g>
<circle data-feature-type="pillar" cx="408.00" cy="1368.00" r="3.68" fill="#5c92ab" stroke="none" />
<circle data-feature-type="pillar" cx="264.00" cy="1336.00" r="3.68" fill="#5c92ab" stroke="none" />
<circle data-feature-type="pillar" cx="216.00" cy="1368.00" r="3.68" fill="#5c92ab" stroke="none" />
<circle data-feature-type="pillar" cx="248.00" cy="1368.00" r="3.68" fill="#5c92ab" stroke="none" />
<circle data-feature-type="pillar" cx="936.00" cy="1240.00" r="3.68" fill="#5c92ab" stroke="none" />
<circle data-feature-type="pillar" cx="920.00" cy="1240.00" r="3.68" fill="#5c92ab" stroke="none" />
<g data-feature-type="trap"><rect x="964.64" y="1268.64" width="6.72" height="6.72" fill="none" /><line x1="964.64" y1="1268.64" x2="971.36" y2="1275.36" /><line x1="964.64" y1="1275.36" x2="971.36" y2="1268.64" /></g>
  </g>
  <g class="thresholds">
<rect data-threshold-type="door" x="355.52" y="453.76" width="8.96" height="4.48" fill="#ffffff" stroke="#5c92ab" stroke-width="1.52" />
<rect data-threshold-type="door" x="1171.52" y="1157.76" width="8.96" height="4.48" fill="#ffffff" stroke="#5c92ab" stroke-width="1.52" />
<rect data-threshold-type="door" x="771.52" y="1077.76" width="8.96" height="4.48" fill="#ffffff" stroke="#5c92ab" stroke-width="1.52" />
<rect data-threshold-type="door" x="355.52" y="1189.76" width="8.96" height="4.48" fill="#ffffff" stroke="#5c92ab" stroke-width="1.52" />
<rect data-threshold-type="door" x="451.52" y="917.76" width="8.96" height="4.48" fill="#ffffff" stroke="#5c92ab" stroke-width="1.52" />
<rect data-threshold-type="door" x="323.52" y="757.76" width="8.96" height="4.48" fill="#ffffff" stroke="#5c92ab" stroke-width="1.52" />
<rect data-threshold-type="door" x="195.52" y="453.76" width="8.96" height="4.48" fill="#ffffff" stroke="#5c92ab" stroke-width="1.52" />
<g data-threshold-type="locked" stroke="#5c92ab" fill="none" stroke-width="1.52"><rect x="531.52" y="933.76" width="8.96" height="4.48" fill="#ffffff" /><circle cx="536.00" cy="932.77" r="1.61" /></g>
<g data-threshold-type="secret"><line x1="611.52" y1="712.00" x2="620.48" y2="712.00" stroke="#5c92ab" stroke-width="1.31" stroke-dasharray="1.31 1.31" /><text x="621.56" y="711.10" font-size="5.44" fill="#5c92ab" font-family="Courier New, monospace" font-weight="700">S</text></g>
<rect data-threshold-type="door" x="803.52" y="1253.76" width="8.96" height="4.48" fill="#ffffff" stroke="#5c92ab" stroke-width="1.52" />
<g data-threshold-type="locked" stroke="#5c92ab" fill="none" stroke-width="1.52"><rect x="707.52" y="645.76" width="8.96" height="4.48" fill="#ffffff" /><circle cx="712.00" cy="644.77" r="1.61" /></g>
<rect data-threshold-type="door" x="1027.52" y="389.76" width="8.96" height="4.48" fill="#ffffff" stroke="#5c92ab" stroke-width="1.52" />
<rect data-threshold-type="door" x="819.52" y="357.76" width="8.96" height="4.48" fill="#ffffff" stroke="#5c92ab" stroke-width="1.52" />
<rect data-threshold-type="door" x="563.52" y="1301.76" width="8.96" height="4.48" fill="#ffffff" stroke="#5c92ab" stroke-width="1.52" />
<rect data-threshold-type="door" x="899.52" y="117.76" width="8.96" height="4.48" fill="#ffffff" stroke="#5c92ab" stroke-width="1.52" />
<g data-threshold-type="secret"><line x1="1059.52" y1="488.00" x2="1068.48" y2="488.00" stroke="#5c92ab" stroke-width="1.31" stroke-dasharray="1.31 1.31" /><text x="1069.56" y="487.10" font-size="5.44" fill="#5c92ab" font-family="Courier New, monospace" font-weight="700">S</text></g>
<rect data-threshold-type="door" x="1107.52" y="149.76" width="8.96" height="4.48" fill="#ffffff" stroke="#5c92ab" stroke-width="1.52" />
<g data-threshold-type="locked" stroke="#5c92ab" fill="none" stroke-width="1.52"><rect x="355.52" y="1157.76" width="8.96" height="4.48" fill="#ffffff" /><circle cx="360.00" cy="1156.77" r="1.61" /></g>
<rect data-threshold-type="door" x="131.52" y="805.76" width="8.96" height="4.48" fill="#ffffff" stroke="#5c92ab" stroke-width="1.52" />
<rect data-threshold-type="door" x="131.52" y="1221.76" width="8.96" height="4.48" fill="#ffffff" stroke="#5c92ab" stroke-width="1.52" />
<rect data-threshold-type="door" x="355.52" y="229.76" width="8.96" height="4.48" fill="#ffffff" stroke="#5c92ab" stroke-width="1.52" />
<g data-threshold-type="secret"><line x1="787.52" y1="248.00" x2="796.48" y2="248.00" stroke="#5c92ab" stroke-width="1.31" stroke-dasharray="1.31 1.31" /><text x="797.56" y="247.10" font-size="5.44" fill="#5c92ab" font-family="Courier New, monospace" font-weight="700">S</text></g>
<rect data-threshold-type="door" x="1107.52" y="325.76" width="8.96" height="4.48" fill="#ffffff" stroke="#5c92ab" stroke-width="1.52" />
<rect data-threshold-type="door" x="579.52" y="1205.76" width="8.96" height="4.48" fill="#ffffff" stroke="#5c92ab" stroke-width="1.52" />
<rect data-threshold-type="door" x="1027.52" y="757.76" width="8.96" height="4.48" fill="#ffffff" stroke="#5c92ab" stroke-width="1.52" />
<g data-threshold-type="secret"><line x1="355.52" y1="1304.00" x2="364.48" y2="1304.00" stroke="#5c92ab" stroke-width="1.31" stroke-dasharray="1.31 1.31" /><text x="365.56" y="1303.10" font-size="5.44" fill="#5c92ab" font-family="Courier New, monospace" font-weight="700">S</text></g>
<rect data-threshold-type="door" x="147.52" y="1317.76" width="8.96" height="4.48" fill="#ffffff" stroke="#5c92ab" stroke-width="1.52" />
<rect data-threshold-type="door" x="947.52" y="1173.76" width="8.96" height="4.48" fill="#ffffff" stroke="#5c92ab" stroke-width="1.52" />
  </g>
  <g class="labels">
<text x="424.00" y="409.92" text-anchor="middle">1</text>
<text x="1176.00" y="1241.92" text-anchor="middle">2</text>
<text x="696.00" y="1049.92" text-anchor="middle">3</text>
<text x="328.00" y="1225.92" text-anchor="middle">4</text>
<text x="456.00" y="889.92" text-anchor="middle">5</text>
<text x="376.00" y="793.92" text-anchor="middle">6</text>
<text x="168.00" y="457.92" text-anchor="middle">7</text>
<text x="616.00" y="857.92" text-anchor="middle">8</text>
<text x="552.00" y="649.92" text-anchor="middle">9</text>
<text x="792.00" y="1337.92" text-anchor="middle">10</text>
<text x="776.00" y="665.92" text-anchor="middle">11</text>
<text x="1016.00" y="361.92" text-anchor="middle">12</text>
<text x="760.00" y="441.92" text-anchor="middle">13</text>
<text x="616.00" y="1353.92" text-anchor="middle">14</text>
<text x="936.00" y="169.92" text-anchor="middle">15</text>
<text x="1064.00" y="553.92" text-anchor="middle">16</text>
<text x="1112.00" y="121.92" text-anchor="middle">17</text>
<text x="360.00" y="1081.92" text-anchor="middle">18</text>
<text x="136.00" y="761.92" text-anchor="middle">19</text>
<text x="152.00" y="1193.92" text-anchor="middle">20</text>
<text x="360.00" y="265.92" text-anchor="middle">21</text>
<text x="744.00" y="217.92" text-anchor="middle">22</text>
<text x="1160.00" y="265.92" text-anchor="middle">23</text>
<text x="568.00" y="1193.92" text-anchor="middle">24</text>
<text x="1032.00" y="713.92" text-anchor="middle">25</text>
<text x="392.00" y="1369.92" text-anchor="middle">26</text>
<text x="232.00" y="1353.92" text-anchor="middle">27</text>
<text x="952.00" y="1241.92" text-anchor="middle">28</text>
  </g>
</svg>