<?xml version="1.0" encoding="UTF-8"?>
<svg xmlns="http://www.w3.org/2000/svg" width="1440" height="1536" viewBox="0 0 1440.00 1536.00" role="img" aria-label="MapIR render: Learned Generated Map 8">
  <defs>
    <style>
      .grid { stroke: #d7e7ef; stroke-width: 0.64; opacity: 0.72; }
      .walls { stroke: #6fa8c1; stroke-width: 1.92; fill: none; stroke-linecap: square; }
      .thresholds { fill: none; stroke-linecap: round; }
      .features { stroke: #5c92ab; fill: none; stroke-width: 1.60; stroke-linecap: round; stroke-linejoin: round; }
      .labels { fill: #5c92ab; font-size: 7.20px; font-family: "Courier New", monospace; font-weight: 600; }
    </style>
  </defs>
  <rect x="0" y="0" width="1440.00" height="1536.00" fill="#5d9fbc" />
  <g class="texture" stroke="#9ec4d6" stroke-width="0.96" opacity="0.2" fill="none"><path d="M 781.86 387.19 Q 767.92 394.39 746.45 390.64" /><path d="M 59.77 842.57 Q 41.92 823.15 37.51 795.28" /><path d="M 1153.38 756.37 Q 1163.86 790.05 1164.87 838.48" /><path d="M 760.57 296.23 Q 774.11 313.06 771.78 324.41" /><path d="M 939.07 21.46 Q 958.17 25.90 997.85 28.54" /><path d="M 691.78 992.92 Q 700.32 1026.86 710.89 1067.49" /><path d="M 523.51 1100.69 Q 523.64 1076.59 493.62 1055.09" /><path d="M 90.81 1222.62 Q 89.06 1234.50 118.03 1244.12" /><path d="M 356.52 1005.68 Q 344.36 1030.48 337.77 1044.76" /><path d="M 598.81 1411.47 Q 647.38 1409.09 688.70 1394.54" /><path d="M 1383.39 862.64 Q 1380.95 844.89 1369.67 824.56" /><path d="M 1323.43 907.19 Q 1359.77 886.09 1380.96 865.12" /><path d="M 569.22 662.00 Q 543.18 668.55 509.42 714.35" /><path d="M 480.22 1512.96 Q 489.52 1555.02 486.93 1601.08" /><path d="M 599.03 613.72 Q 583.36 634.37 554.71 626.50" /><path d="M 1023.25 1300.82 Q 994.27 1303.78 954.29 1326.95" /><path d="M 69.23 17.46 Q 116.45 26.79 145.76 47.90" /><path d="M 1317.69 1252.24 Q 1323.37 1223.79 1337.11 1198.97" /><path d="M 1344.13 893.82 Q 1359.55 915.25 1369.67 923.88" /><path d="M 865.24 1386.43 Q 861.91 1402.34 888.94 1412.52" /><path d="M 273.22 1491.05 Q 268.20 1532.67 275.91 1561.33" /><path d="M 586.66 1113.84 Q 599.81 1112.31 628.00 1096.32" /><path d="M 1357.38 430.76 Q 1345.71 464.99 1341.08 466.60" /><path d="M 1203.30 645.96 Q 1240.86 668.47 1268.20 708.60" /><path d="M 267.59 1453.91 Q 231.84 1448.52 189.79 1434.26" /><path d="M 518.32 1444.52 Q 501.20 1462.47 496.43 1498.16" /><path d="M 623.74 314.50 Q 592.12 336.11 590.08 356.77" /><path d="M 51.79 251.61 Q 2.38 252.91 -23.12 248.06" /><path d="M 580.05 1092.26 Q 586.27 1100.39 603.13 1113.18" /><path d="M 1199.21 607.68 Q 1211.63 563.71 1241.49 531.47" /><path d="M 1426.27 552.07 Q 1463.32 542.44 1484.80 521.64" /><path d="M 939.35 1334.77 Q 898.77 1318.75 871.44 1300.60" /><path d="M 785.38 1066.17 Q 821.22 1065.43 869.35 1056.38" /><path d="M 913.57 164.65 Q 865.61 166.44 828.48 173.63" /><path d="M 720.06 1333.56 Q 704.27 1300.79 670.65 1272.17" /></g>
  <g class="floors">
<rect x="96.00" y="48.00" width="64.00" height="176.00" fill="#fbfdfe" />
<rect x="656.00" y="112.00" width="192.00" height="160.00" fill="#fbfdfe" />
<rect x="160.00" y="128.00" width="496.00" height="16.00" fill="#fbfdfe" />
<rect x="560.00" y="144.00" width="16.00" height="1168.00" fill="#fbfdfe" />
<rect x="912.00" y="160.00" width="48.00" height="48.00" fill="#fbfdfe" />
<rect x="64.00" y="176.00" width="32.00" height="16.00" fill="#fbfdfe" />
<rect x="160.00" y="176.00" width="400.00" height="16.00" fill="#fbfdfe" />
<rect x="576.00" y="176.00" width="80.00" height="16.00" fill="#fbfdfe" />
<rect x="848.00" y="176.00" width="64.00" height="16.00" fill="#fbfdfe" />
<rect x="1296.00" y="176.00" width="32.00" height="208.00" fill="#fbfdfe" />
<rect x="64.00" y="192.00" width="16.00" height="272.00" fill="#fbfdfe" />
<rect x="1264.00" y="192.00" width="32.00" height="160.00" fill="#fbfdfe" />
<rect x="1328.00" y="192.00" width="32.00" height="160.00" fill="#fbfdfe" />
<rect x="928.00" y="208.00" width="16.00" height="448.00" fill="#fbfdfe" />
<rect x="1056.00" y="208.00" width="64.00" height="208.00" fill="#fbfdfe" />
<rect x="128.00" y="224.00" width="16.00" height="288.00" fill="#fbfdfe" />
<rect x="1248.00" y="224.00" width="16.00" height="96.00" fill="#fbfdfe" />
<rect x="1360.00" y="224.00" width="16.00" height="96.00" fill="#fbfdfe" />
<rect x="752.00" y="272.00" width="16.00" height="1168.00" fill="#fbfdfe" />
<rect x="608.00" y="288.00" width="144.00" height="160.00" fill="#fbfdfe" />
<rect x="864.00" y="288.00" width="64.00" height="144.00" fill="#fbfdfe" />
<rect x="944.00" y="288.00" width="48.00" height="144.00" fill="#fbfdfe" />
<rect x="768.00" y="304.00" width="96.00" height="16.00" fill="#fbfdfe" />
<rect x="992.00" y="304.00" width="64.00" height="16.00" fill="#fbfdfe" />
<rect x="1120.00" y="304.00" width="128.00" height="16.00" fill="#fbfdfe" />
<rect x="48.00" y="352.00" width="16.00" height="112.00" fill="#fbfdfe" />
<rect x="80.00" y="352.00" width="48.00" height="16.00" fill="#fbfdfe" />
<rect x="144.00" y="352.00" width="416.00" height="16.00" fill="#fbfdfe" />
<rect x="576.00" y="352.00" width="32.00" height="16.00" fill="#fbfdfe" />
<rect x="768.00" y="352.00" width="96.00" height="32.00" fill="#fbfdfe" />
<rect x="80.00" y="368.00" width="32.00" height="96.00" fill="#fbfdfe" />
<rect x="208.00" y="368.00" width="16.00" height="320.00" fill="#fbfdfe" />
<rect x="992.00" y="368.00" width="64.00" height="16.00" fill="#fbfdfe" />
<rect x="1120.00" y="368.00" width="176.00" height="16.00" fill="#fbfdfe" />
<rect x="1152.00" y="384.00" width="144.00" height="48.00" fill="#fbfdfe" />
<rect x="1312.00" y="384.00" width="16.00" height="1040.00" fill="#fbfdfe" />
<rect x="112.00" y="400.00" width="16.00" height="16.00" fill="#fbfdfe" />
<rect x="144.00" y="400.00" width="64.00" height="16.00" fill="#fbfdfe" />
<rect x="224.00" y="400.00" width="336.00" height="16.00" fill="#fbfdfe" />
<rect x="576.00" y="400.00" width="32.00" height="16.00" fill="#fbfdfe" />
<rect x="768.00" y="400.00" width="96.00" height="16.00" fill="#fbfdfe" />
<rect x="992.00" y="400.00" width="64.00" height="16.00" fill="#fbfdfe" />
<rect x="1120.00" y="400.00" width="16.00" height="912.00" fill="#fbfdfe" />
<rect x="256.00" y="416.00" width="80.00" height="176.00" fill="#fbfdfe" />
<rect x="496.00" y="416.00" width="16.00" height="352.00" fill="#fbfdfe" />
<rect x="1088.00" y="416.00" width="16.00" height="240.00" fill="#fbfdfe" />
<rect x="1168.00" y="432.00" width="16.00" height="160.00" fill="#fbfdfe" />
<rect x="1216.00" y="432.00" width="16.00" height="224.00" fill="#fbfdfe" />
<rect x="656.00" y="448.00" width="16.00" height="624.00" fill="#fbfdfe" />
<rect x="688.00" y="448.00" width="16.00" height="464.00" fill="#fbfdfe" />
<rect x="96.00" y="464.00" width="16.00" height="976.00" fill="#fbfdfe" />
<rect x="144.00" y="496.00" width="64.00" height="16.00" fill="#fbfdfe" />
<rect x="224.00" y="496.00" width="32.00" height="16.00" fill="#fbfdfe" />
<rect x="336.00" y="496.00" width="160.00" height="16.00" fill="#fbfdfe" />
<rect x="512.00" y="496.00" width="48.00" height="16.00" fill="#fbfdfe" />
<rect x="576.00" y="496.00" width="80.00" height="16.00" fill="#fbfdfe" />
<rect x="672.00" y="496.00" width="16.00" height="16.00" fill="#fbfdfe" />
<rect x="704.00" y="496.00" width="48.00" height="16.00" fill="#fbfdfe" />
<rect x="768.00" y="496.00" width="160.00" height="16.00" fill="#fbfdfe" />
<rect x="944.00" y="496.00" width="144.00" height="16.00" fill="#fbfdfe" />
<rect x="1104.00" y="496.00" width="16.00" height="16.00" fill="#fbfdfe" />
<rect x="1136.00" y="496.00" width="32.00" height="16.00" fill="#fbfdfe" />
<rect x="1184.00" y="496.00" width="32.00" height="16.00" fill="#fbfdfe" />
<rect x="1232.00" y="496.00" width="80.00" height="16.00" fill="#fbfdfe" />
<rect x="1328.00" y="496.00" width="16.00" height="928.00" fill="#fbfdfe" />
<rect x="1152.00" y="528.00" width="16.00" height="64.00" fill="#fbfdfe" />
<rect x="1184.00" y="528.00" width="16.00" height="64.00" fill="#fbfdfe" />
<rect x="576.00" y="560.00" width="80.00" height="16.00" fill="#fbfdfe" />
<rect x="672.00" y="560.00" width="16.00" height="16.00" fill="#fbfdfe" />
<rect x="704.00" y="560.00" width="48.00" height="16.00" fill="#fbfdfe" />
<rect x="768.00" y="560.00" width="160.00" height="16.00" fill="#fbfdfe" />
<rect x="944.00" y="560.00" width="144.00" height="16.00" fill="#fbfdfe" />
<rect x="1104.00" y="560.00" width="16.00" height="16.00" fill="#fbfdfe" />
<rect x="1136.00" y="560.00" width="16.00" height="16.00" fill="#fbfdfe" />
<rect x="288.00" y="592.00" width="16.00" height="480.00" fill="#fbfdfe" />
<rect x="1264.00" y="592.00" width="48.00" height="80.00" fill="#fbfdfe" />
<rect x="1344.00" y="592.00" width="64.00" height="80.00" fill="#fbfdfe" />
<rect x="144.00" y="608.00" width="64.00" height="80.00" fill="#fbfdfe" />
<rect x="224.00" y="608.00" width="48.00" height="80.00" fill="#fbfdfe" />
<rect x="432.00" y="608.00" width="64.00" height="160.00" fill="#fbfdfe" />
<rect x="512.00" y="608.00" width="48.00" height="160.00" fill="#fbfdfe" />
<rect x="944.00" y="624.00" width="144.00" height="32.00" fill="#fbfdfe" />
<rect x="1104.00" y="624.00" width="16.00" height="32.00" fill="#fbfdfe" />
<rect x="1136.00" y="624.00" width="80.00" height="32.00" fill="#fbfdfe" />
<rect x="1232.00" y="624.00" width="32.00" height="16.00" fill="#fbfdfe" />
<rect x="272.00" y="640.00" width="16.00" height="16.00" fill="#fbfdfe" />
<rect x="304.00" y="640.00" width="128.00" height="16.00" fill="#fbfdfe" />
<rect x="576.00" y="640.00" width="80.00" height="16.00" fill="#fbfdfe" />
<rect x="672.00" y="640.00" width="16.00" height="16.00" fill="#fbfdfe" />
<rect x="704.00" y="640.00" width="48.00" height="16.00" fill="#fbfdfe" />
<rect x="768.00" y="640.00" width="160.00" height="16.00" fill="#fbfdfe" />
<rect x="704.00" y="672.00" width="48.00" height="64.00" fill="#fbfdfe" />
<rect x="768.00" y="672.00" width="144.00" height="64.00" fill="#fbfdfe" />
<rect x="576.00" y="688.00" width="80.00" height="32.00" fill="#fbfdfe" />
<rect x="672.00" y="688.00" width="16.00" height="32.00" fill="#fbfdfe" />
<rect x="112.00" y="704.00" width="176.00" height="16.00" fill="#fbfdfe" />
<rect x="304.00" y="704.00" width="128.00" height="16.00" fill="#fbfdfe" />
<rect x="912.00" y="704.00" width="208.00" height="16.00" fill="#fbfdfe" />
<rect x="1136.00" y="704.00" width="176.00" height="16.00" fill="#fbfdfe" />
<rect x="800.00" y="736.00" width="16.00" height="688.00" fill="#fbfdfe" />
<rect x="1232.00" y="752.00" width="80.00" height="176.00" fill="#fbfdfe" />
<rect x="1344.00" y="752.00" width="64.00" height="176.00" fill="#fbfdfe" />
<rect x="576.00" y="784.00" width="80.00" height="128.00" fill="#fbfdfe" />
<rect x="672.00" y="784.00" width="16.00" height="128.00" fill="#fbfdfe" />
<rect x="704.00" y="784.00" width="48.00" height="128.00" fill="#fbfdfe" />
<rect x="416.00" y="832.00" width="144.00" height="16.00" fill="#fbfdfe" />
<rect x="768.00" y="832.00" width="32.00" height="16.00" fill="#fbfdfe" />
<rect x="816.00" y="832.00" width="304.00" height="16.00" fill="#fbfdfe" />
<rect x="1136.00" y="832.00" width="96.00" height="16.00" fill="#fbfdfe" />
<rect x="416.00" y="848.00" width="16.00" height="512.00" fill="#fbfdfe" />
<rect x="384.00" y="880.00" width="32.00" height="128.00" fill="#fbfdfe" />
<rect x="432.00" y="880.00" width="16.00" height="128.00" fill="#fbfdfe" />
<rect x="368.00" y="896.00" width="16.00" height="96.00" fill="#fbfdfe" />
<rect x="448.00" y="896.00" width="16.00" height="96.00" fill="#fbfdfe" />
<rect x="352.00" y="912.00" width="16.00" height="64.00" fill="#fbfdfe" />
<rect x="464.00" y="912.00" width="16.00" height="64.00" fill="#fbfdfe" />
<rect x="768.00" y="944.00" width="32.00" height="192.00" fill="#fbfdfe" />
<rect x="816.00" y="944.00" width="32.00" height="192.00" fill="#fbfdfe" />
<rect x="736.00" y="960.00" width="16.00" height="160.00" fill="#fbfdfe" />
<rect x="848.00" y="960.00" width="16.00" height="160.00" fill="#fbfdfe" />
<rect x="720.00" y="976.00" width="16.00" height="128.00" fill="#fbfdfe" />
<rect x="864.00" y="976.00" width="16.00" height="128.00" fill="#fbfdfe" />
<rect x="704.00" y="992.00" width="16.00" height="96.00" fill="#fbfdfe" />
<rect x="880.00" y="992.00" width="16.00" height="96.00" fill="#fbfdfe" />
<rect x="320.00" y="1024.00" width="96.00" height="80.00" fill="#fbfdfe" />
<rect x="432.00" y="1024.00" width="80.00" height="80.00" fill="#fbfdfe" />
<rect x="1344.00" y="1024.00" width="64.00" height="192.00" fill="#fbfdfe" />
<rect x="304.00" y="1056.00" width="16.00" height="16.00" fill="#fbfdfe" />
<rect x="512.00" y="1056.00" width="48.00" height="16.00" fill="#fbfdfe" />
<rect x="576.00" y="1056.00" width="80.00" height="16.00" fill="#fbfdfe" />
<rect x="672.00" y="1056.00" width="32.00" height="16.00" fill="#fbfdfe" />
<rect x="896.00" y="1056.00" width="224.00" height="16.00" fill="#fbfdfe" />
<rect x="1136.00" y="1056.00" width="176.00" height="16.00" fill="#fbfdfe" />
<rect x="1040.00" y="1072.00" width="16.00" height="304.00" fill="#fbfdfe" />
<rect x="1072.00" y="1104.00" width="48.00" height="208.00" fill="#fbfdfe" />
<rect x="1136.00" y="1104.00" width="32.00" height="208.00" fill="#fbfdfe" />
<rect x="1056.00" y="1120.00" width="16.00" height="176.00" fill="#fbfdfe" />
<rect x="1168.00" y="1120.00" width="16.00" height="176.00" fill="#fbfdfe" />
<rect x="1184.00" y="1136.00" width="16.00" height="144.00" fill="#fbfdfe" />
<rect x="496.00" y="1184.00" width="64.00" height="128.00" fill="#fbfdfe" />
<rect x="576.00" y="1184.00" width="48.00" height="128.00" fill="#fbfdfe" />
<rect x="1200.00" y="1200.00" width="112.00" height="16.00" fill="#fbfdfe" />
<rect x="48.00" y="1232.00" width="48.00" height="208.00" fill="#fbfdfe" />
<rect x="112.00" y="1232.00" width="48.00" height="208.00" fill="#fbfdfe" />
<rect x="720.00" y="1264.00" width="32.00" height="176.00" fill="#fbfdfe" />
<rect x="768.00" y="1264.00" width="32.00" height="176.00" fill="#fbfdfe" />
<rect x="704.00" y="1280.00" width="16.00" height="144.00" fill="#fbfdfe" />
<rect x="1280.00" y="1280.00" width="32.00" height="144.00" fill="#fbfdfe" />
<rect x="1344.00" y="1280.00" width="32.00" height="144.00" fill="#fbfdfe" />
<rect x="688.00" y="1296.00" width="16.00" height="112.00" fill="#fbfdfe" />
<rect x="816.00" y="1296.00" width="16.00" height="112.00" fill="#fbfdfe" />
<rect x="1264.00" y="1296.00" width="16.00" height="112.00" fill="#fbfdfe" />
<rect x="1376.00" y="1296.00" width="16.00" height="112.00" fill="#fbfdfe" />
<rect x="1248.00" y="1312.00" width="16.00" height="80.00" fill="#fbfdfe" />
<rect x="1392.00" y="1312.00" width="16.00" height="80.00" fill="#fbfdfe" />
<rect x="944.00" y="1328.00" width="96.00" height="48.00" fill="#fbfdfe" />
<rect x="1056.00" y="1328.00" width="80.00" height="48.00" fill="#fbfdfe" />
<rect x="432.00" y="1344.00" width="256.00" height="16.00" fill="#fbfdfe" />
<rect x="832.00" y="1344.00" width="112.00" height="16.00" fill="#fbfdfe" />
<rect x="1136.00" y="1344.00" width="112.00" height="16.00" fill="#fbfdfe" />
  </g>
  <g class="grid">
<line x1="0.00" y1="0" x2="0.00" y2="1536.00" />
<line x1="16.00" y1="0" x2="16.00" y2="1536.00" />
<line x1="32.00" y1="0" x2="32.00" y2="1536.00" />
<line x1="48.00" y1="0" x2="48.00" y2="1536.00" />
<line x1="64.00" y1="0" x2="64.00" y2="1536.00" />
<line x1="80.00" y1="0" x2="80.00" y2="1536.00" />
<line x1="96.00" y1="0" x2="96.00" y2="1536.00" />
<line x1="112.00" y1="0" x2="112.00" y2="1536.00" />
<line x1="128.00" y1="0" x2="128.00" y2="1536.00" />
<line x1="144.00" y1="0" x2="144.00" y2="1536.00" />
<line x1="160.00" y1="0" x2="160.00" y2="1536.00" />
<line x1="176.00" y1="0" x2="176.00" y2="1536.00" />
<line x1="192.00" y1="0" x2="192.00" y2="1536.00" />
<line x1="208.00" y1="0" x2="208.00" y2="1536.00" />
<line x1="224.00" y1="0" x2="224.00" y2="1536.00" />
<line x1="240.00" y1="0" x2="240.00" y2="1536.00" />
<line x1="256.00" y1="0" x2="256.00" y2="1536.00" />
<line x1="272.00" y1="0" x2="272.00" y2="1536.00" />
<line x1="288.00" y1="0" x2="288.00" y2="1536.00" />
<line x1="304.00" y1="0" x2="304.00" y2="1536.00" />
<line x1="320.00" y1="0" x2="320.00" y2="1536.00" />
<line x1="336.00" y1="0" x2="336.00" y2="1536.00" />
<line x1="352.00" y1="0" x2="352.00" y2="1536.00" />
<line x1="368.00" y1="0" x2="368.00" y2="1536.00" />
<line x1="384.00" y1="0" x2="384.00" y2="1536.00" />
<line x1="400.00" y1="0" x2="400.00" y2="1536.00" />
<line x1="416.00" y1="0" x2="416.00" y2="1536.00" />
<line x1="432.00" y1="0" x2="432.00" y2="1536.00" />
<line x1="448.00" y1="0" x2="448.00" y2="1536.00" />
<line x1="464.00" y1="0" x2="464.00" y2="1536.00" />
<line x1="480.00" y1="0" x2="480.00" y2="1536.00" />
<line x1="496.00" y1="0" x2="496.00" y2="1536.00" />
<line x1="512.00" y1="0" x2="512.00" y2="1536.00" />
<line x1="528.00" y1="0" x2="528.00" y2="1536.00" />
<line x1="544.00" y1="0" x2="544.00" y2="1536.00" />
<line x1="560.00" y1="0" x2="560.00" y2="1536.00" />
<line x1="576.00" y1="0" x2="576.00" y2="1536.00" />
<line x1="592.00" y1="0" x2="592.00" y2="1536.00" />
<line x1="608.00" y1="0" x2="608.00" y2="1536.00" />
<line x1="624.00" y1="0" x2="624.00" y2="1536.00" />
<line x1="640.00" y1="0" x2="640.00" y2="1536.00" />
<line x1="656.00" y1="0" x2="656.00" y2="1536.00" />
<line x1="672.00" y1="0" x2="672.00" y2="1536.00" />
<line x1="688.00" y1="0" x2="688.00" y2="1536.00" />
<line x1="704.00" y1="0" x2="704.00" y2="1536.00" />
<line x1="720.00" y1="0" x2="720.00" y2="1536.00" />
<line x1="736.00" y1="0" x2="736.00" y2="1536.00" />
<line x1="752.00" y1="0" x2="752.00" y2="1536.00" />
<line x1="768.00" y1="0" x2="768.00" y2="1536.00" />
<line x1="784.00" y1="0" x2="784.00" y2="1536.00" />
<line x1="800.00" y1="0" x2="800.00" y2="1536.00" />
<line x1="816.00" y1="0" x2="816.00" y2="1536.00" />
<line x1="832.00" y1="0" x2="832.00" y2="1536.00" />
<line x1="848.00" y1="0" x2="848.00" y2="1536.00" />
<line x1="864.00" y1="0" x2="864.00" y2="1536.00" />
<line x1="880.00" y1="0" x2="880.00" y2="1536.00" />
<line x1="896.00" y1="0" x2="896.00" y2="1536.00" />
<line x1="912.00" y1="0" x2="912.00" y2="1536.00" />
<line x1="928.00" y1="0" x2="928.00" y2="1536.00" />
<line x1="944.00" y1="0" x2="944.00" y2="1536.00" />
<line x1="960.00" y1="0" x2="960.00" y2="1536.00" />
<line x1="976.00" y1="0" x2="976.00" y2="1536.00" />
<line x1="992.00" y1="0" x2="992.00" y2="1536.00" />
<line x1="1008.00" y1="0" x2="1008.00" y2="1536.00" />
<line x1="1024.00" y1="0" x2="1024.00" y2="1536.00" />
<line x1="1040.00" y1="0" x2="1040.00" y2="1536.00" />
<line x1="1056.00" y1="0" x2="1056.00" y2="1536.00" />
<line x1="1072.00" y1="0" x2="1072.00" y2="1536.00" />
<line x1="1088.00" y1="0" x2="1088.00" y2="1536.00" />
<line x1="1104.00" y1="0" x2="1104.00" y2="1536.00" />
<line x1="1120.00" y1="0" x2="1120.00" y2="1536.00" />
<line x1="1136.00" y1="0" x2="1136.00" y2="1536.00" />
<line x1="1152.00" y1="0" x2="1152.00" y2="1536.00" />
<line x1="1168.00" y1="0" x2="1168.00" y2="1536.00" />
<line x1="1184.00" y1="0" x2="1184.00" y2="1536.00" />
<line x1="1200.00" y1="0" x2="1200.00" y2="1536.00" />
<line x1="1216.00" y1="0" x2="1216.00" y2="1536.00" />
<line x1="1232.00" y1="0" x2="1232.00" y2="1536.00" />
<line x1="1248.00" y1="0" x2="1248.00" y2="1536.00" />
<line x1="1264.00" y1="0" x2="1264.00" y2="1536.00" />
<line x1="1280.00" y1="0" x2="1280.00" y2="1536.00" />
<line x1="1296.00" y1="0" x2="1296.00" y2="1536.00" />
<line x1="1312.00" y1="0" x2="1312.00" y2="1536.00" />
<line x1="1328.00" y1="0" x2="1328.00" y2="1536.00" />
<line x1="1344.00" y1="0" x2="1344.00" y2="1536.00" />
<line x1="1360.00" y1="0" x2="1360.00" y2="1536.00" />
<line x1="1376.00" y1="0" x2="1376.00" y2="1536.00" />
<line x1="1392.00" y1="0" x2="1392.00" y2="1536.00" />
<line x1="1408.00" y1="0" x2="1408.00" y2="1536.00" />
<line x1="1424.00" y1="0" x2="1424.00" y2="1536.00" />
<line x1="1440.00" y1="0" x2="1440.00" y2="1536.00" />
<line x1="0" y1="0.00" x2="1440.00" y2="0.00" />
<line x1="0" y1="16.00" x2="1440.00" y2="16.00" />
<line x1="0" y1="32.00" x2="1440.00" y2="32.00" />
<line x1="0" y1="48.00" x2="1440.00" y2="48.00" />
<line x1="0" y1="64.00" x2="1440.00" y2="64.00" />
<line x1="0" y1="80.00" x2="1440.00" y2="80.00" />
<line x1="0" y1="96.00" x2="1440.00" y2="96.00" />
<line x1="0" y1="112.00" x2="1440.00" y2="112.00" />
<line x1="0" y1="128.00" x2="1440.00" y2="128.00" />
<line x1="0" y1="144.00" x2="1440.00" y2="144.00" />
<line x1="0" y1="160.00" x2="1440.00" y2="160.00" />
<line x1="0" y1="176.00" x2="1440.00" y2="176.00" />
<line x1="0" y1="192.00" x2="1440.00" y2="192.00" />
<line x1="0" y1="208.00" x2="1440.00" y2="208.00" />
<line x1="0" y1="224.00" x2="1440.00" y2="224.00" />
<line x1="0" y1="240.00" x2="1440.00" y2="240.00" />
<line x1="0" y1="256.00" x2="1440.00" y2="256.00" />
<line x1="0" y1="272.00" x2="1440.00" y2="272.00" />
<line x1="0" y1="288.00" x2="1440.00" y2="288.00" />
<line x1="0" y1="304.00" x2="1440.00" y2="304.00" />
<line x1="0" y1="320.00" x2="1440.00" y2="320.00" />
<line x1="0" y1="336.00" x2="1440.00" y2="336.00" />
<line x1="0" y1="352.00" x2="1440.00" y2="352.00" />
<line x1="0" y1="368.00" x2="1440.00" y2="368.00" />
<line x1="0" y1="384.00" x2="1440.00" y2="384.00" />
<line x1="0" y1="400.00" x2="1440.00" y2="400.00" />
<line x1="0" y1="416.00" x2="1440.00" y2="416.00" />
<line x1="0" y1="432.00" x2="1440.00" y2="432.00" />
<line x1="0" y1="448.00" x2="1440.00" y2="448.00" />
<line x1="0" y1="464.00" x2="1440.00" y2="464.00" />
<line x1="0" y1="480.00" x2="1440.00" y2="480.00" />
<line x1="0" y1="496.00" x2="1440.00" y2="496.00" />
<line x1="0" y1="512.00" x2="1440.00" y2="512.00" />
<line x1="0" y1="528.00" x2="1440.00" y2="528.00" />
<line x1="0" y1="544.00" x2="1440.00" y2="544.00" />
<line x1="0" y1="560.00" x2="1440.00" y2="560.00" />
<line x1="0" y1="576.00" x2="1440.00" y2="576.00" />
<line x1="0" y1="592.00" x2="1440.00" y2="592.00" />
<line x1="0" y1="608.00" x2="1440.00" y2="608.00" />
<line x1="0" y1="624.00" x2="1440.00" y2="624.00" />
<line x1="0" y1="640.00" x2="1440.00" y2="640.00" />
<line x1="0" y1="656.00" x2="1440.00" y2="656.00" />
<line x1="0" y1="672.00" x2="1440.00" y2="672.00" />
<line x1="0" y1="688.00" x2="1440.00" y2="688.00" />
<line x1="0" y1="704.00" x2="1440.00" y2="704.00" />
<line x1="0" y1="720.00" x2="1440.00" y2="720.00" />
<line x1="0" y1="736.00" x2="1440.00" y2="736.00" />
<line x1="0" y1="752.00" x2="1440.00" y2="752.00" />
<line x1="0" y1="768.00" x2="1440.00" y2="768.00" />
<line x1="0" y1="784.00" x2="1440.00" y2="784.00" />
<line x1="0" y1="800.00" x2="1440.00" y2="800.00" />
<line x1="0" y1="816.00" x2="1440.00" y2="816.00" />
<line x1="0" y1="832.00" x2="1440.00" y2="832.00" />
<line x1="0" y1="848.00" x2="1440.00" y2="848.00" />
<line x1="0" y1="864.00" x2="1440.00" y2="864.00" />
<line x1="0" y1="880.00" x2="1440.00" y2="880.00" />
<line x1="0" y1="896.00" x2="1440.00" y2="896.00" />
<line x1="0" y1="912.00" x2="1440.00" y2="912.00" />
<line x1="0" y1="928.00" x2="1440.00" y2="928.00" />
<line x1="0" y1="944.00" x2="1440.00" y2="944.00" />
<line x1="0" y1="960.00" x2="1440.00" y2="960.00" />
<line x1="0" y1="976.00" x2="1440.00" y2="976.00" />
<line x1="0" y1="992.00" x2="1440.00" y2="992.00" />
<line x1="0" y1="1008.00" x2="1440.00" y2="1008.00" />
<line x1="0" y1="1024.00" x2="1440.00" y2="1024.00" />
<line x1="0" y1="1040.00" x2="1440.00" y2="1040.00" />
<line x1="0" y1="1056.00" x2="1440.00" y2="1056.00" />
<line x1="0" y1="1072.00" x2="1440.00" y2="1072.00" />
<line x1="0" y1="1088.00" x2="1440.00" y2="1088.00" />
<line x1="0" y1="1104.00" x2="1440.00" y2="1104.00" />
<line x1="0" y1="1120.00" x2="1440.00" y2="1120.00" />
<line x1="0" y1="1136.00" x2="1440.00" y2="1136.00" />
<line x1="0" y1="1152.00" x2="1440.00" y2="1152.00" />
<line x1="0" y1="1168.00" x2="1440.00" y2="1168.00" />
<line x1="0" y1="1184.00" x2="1440.00" y2="1184.00" />
<line x1="0" y1="1200.00" x2="1440.00" y2="1200.00" />
<line x1="0" y1="1216.00" x2="1440.00" y2="1216.00" />
<line x1="0" y1="1232.00" x2="1440.00" y2="1232.00" />
<line x1="0" y1="1248.00" x2="1440.00" y2="1248.00" />
<line x1="0" y1="1264.00" x2="1440.00" y2="1264.00" />
<line x1="0" y1="1280.00" x2="1440.00" y2="1280.00" />
<line x1="0" y1="1296.00" x2="1440.00" y2="1296.00" />
<line x1="0" y1="1312.00" x2="1440.00" y2="1312.00" />
<line x1="0" y1="1328.00" x2="1440.00" y2="1328.00" />
<line x1="0" y1="1344.00" x2="1440.00" y2="1344.00" />
<line x1="0" y1="1360.00" x2="1440.00" y2="1360.00" />
<line x1="0" y1="1376.00" x2="1440.00" y2="1376.00" />
<line x1="0" y1="1392.00" x2="1440.00" y2="1392.00" />
<line x1="0" y1="1408.00" x2="1440.00" y2="1408.00" />
<line x1="0" y1="1424.00" x2="1440.00" y2="1424.00" />
<line x1="0" y1="1440.00" x2="1440.00" y2="1440.00" />
<line x1="0" y1="1456.00" x2="1440.00" y2="1456.00" />
<line x1="0" y1="1472.00" x2="1440.00" y2="1472.00" />
<line x1="0" y1="1488.00" x2="1440.00" y2="1488.00" />
<line x1="0" y1="1504.00" x2="1440.00" y2="1504.00" />
<line x1="0" y1="1520.00" x2="1440.00" y2="1520.00" />
<line x1="0" y1="1536.00" x2="1440.00" y2="1536.00" />
  </g>
  <g class="walls">
<line x1="96.00" y1="48.00" x2="160.00" y2="48.00" />
<line x1="656.00" y1="112.00" x2="848.00" y2="112.00" />
<line x1="160.00" y1="128.00" x2="656.00" y2="128.00" />
<line x1="160.00" y1="144.00" x2="560.00" y2="144.00" />
<line x1="576.00" y1="144.00" x2="656.00" y2="144.00" />
<line x1="912.00" y1="160.00" x2="960.00" y2="160.00" />
<line x1="64.00" y1="176.00" x2="96.00" y2="176.00" />
<line x1="160.00" y1="176.00" x2="560.00" y2="176.00" />
<line x1="576.00" y1="176.00" x2="656.00" y2="176.00" />
<line x1="848.00" y1="176.00" x2="912.00" y2="176.00" />
<line x1="1296.00" y1="176.00" x2="1328.00" y2="176.00" />
<line x1="80.00" y1="192.00" x2="96.00" y2="192.00" />
<line x1="160.00" y1="192.00" x2="560.00" y2="192.00" />
<line x1="576.00" y1="192.00" x2="656.00" y2="192.00" />
<line x1="848.00" y1="192.00" x2="912.00" y2="192.00" />
<line x1="1264.00" y1="192.00" x2="1296.00" y2="192.00" />
<line x1="1328.00" y1="192.00" x2="1360.00" y2="192.00" />
<line x1="912.00" y1="208.00" x2="928.00" y2="208.00" />
<line x1="944.00" y1="208.00" x2="960.00" y2="208.00" />
<line x1="1056.00" y1="208.00" x2="1120.00" y2="208.00" />
<line x1="96.00" y1="224.00" x2="128.00" y2="224.00" />
<line x1="144.00" y1="224.00" x2="160.00" y2="224.00" />
<line x1="1248.00" y1="224.00" x2="1264.00" y2="224.00" />
<line x1="1360.00" y1="224.00" x2="1376.00" y2="224.00" />
<line x1="656.00" y1="272.00" x2="752.00" y2="272.00" />
<line x1="768.00" y1="272.00" x2="848.00" y2="272.00" />
<line x1="608.00" y1="288.00" x2="752.00" y2="288.00" />
<line x1="864.00" y1="288.00" x2="928.00" y2="288.00" />
<line x1="944.00" y1="288.00" x2="992.00" y2="288.00" />
<line x1="768.00" y1="304.00" x2="864.00" y2="304.00" />
<line x1="992.00" y1="304.00" x2="1056.00" y2="304.00" />
<line x1="1120.00" y1="304.00" x2="1248.00" y2="304.00" />
<line x1="768.00" y1="320.00" x2="864.00" y2="320.00" />
<line x1="992.00" y1="320.00" x2="1056.00" y2="320.00" />
<line x1="1120.00" y1="320.00" x2="1264.00" y2="320.00" />
<line x1="1360.00" y1="320.00" x2="1376.00" y2="320.00" />
<line x1="48.00" y1="352.00" x2="64.00" y2="352.00" />
<line x1="80.00" y1="352.00" x2="128.00" y2="352.00" />
<line x1="144.00" y1="352.00" x2="560.00" y2="352.00" />
<line x1="576.00" y1="352.00" x2="608.00" y2="352.00" />
<line x1="768.00" y1="352.00" x2="864.00" y2="352.00" />
<line x1="1264.00" y1="352.00" x2="1296.00" y2="352.00" />
<line x1="1328.00" y1="352.00" x2="1360.00" y2="352.00" />
<line x1="112.00" y1="368.00" x2="128.00" y2="368.00" />
<line x1="144.00" y1="368.00" x2="208.00" y2="368.00" />
<line x1="224.00" y1="368.00" x2="560.00" y2="368.00" />
<line x1="576.00" y1="368.00" x2="608.00" y2="368.00" />
<line x1="992.00" y1="368.00" x2="1056.00" y2="368.00" />
<line x1="1120.00" y1="368.00" x2="1296.00" y2="368.00" />
<line x1="768.00" y1="384.00" x2="864.00" y2="384.00" />
<line x1="992.00" y1="384.00" x2="1056.00" y2="384.00" />
<line x1="1120.00" y1="384.00" x2="1152.00" y2="384.00" />
<line x1="1296.00" y1="384.00" x2="1312.00" y2="384.00" />
<line x1="112.00" y1="400.00" x2="128.00" y2="400.00" />
<line x1="144.00" y1="400.00" x2="208.00" y2="400.00" />
<line x1="224.00" y1="400.00" x2="560.00" y2="400.00" />
<line x1="576.00" y1="400.00" x2="608.00" y2="400.00" />
<line x1="768.00" y1="400.00" x2="864.00" y2="400.00" />
<line x1="992.00" y1="400.00" x2="1056.00" y2="400.00" />
<line x1="1120.00" y1="400.00" x2="1136.00" y2="400.00" />
<line x1="112.00" y1="416.00" x2="128.00" y2="416.00" />
<line x1="144.00" y1="416.00" x2="208.00" y2="416.00" />
<line x1="224.00" y1="416.00" x2="256.00" y2="416.00" />
<line x1="336.00" y1="416.00" x2="496.00" y2="416.00" />
<line x1="512.00" y1="416.00" x2="560.00" y2="416.00" />
<line x1="576.00" y1="416.00" x2="608.00" y2="416.00" />
<line x1="768.00" y1="416.00" x2="864.00" y2="416.00" />
<line x1="992.00" y1="416.00" x2="1088.00" y2="416.00" />
<line x1="1104.00" y1="416.00" x2="1120.00" y2="416.00" />
<line x1="864.00" y1="432.00" x2="928.00" y2="432.00" />
<line x1="944.00" y1="432.00" x2="992.00" y2="432.00" />
<line x1="1152.00" y1="432.00" x2="1168.00" y2="432.00" />
<line x1="1184.00" y1="432.00" x2="1216.00" y2="432.00" />
<line x1="1232.00" y1="432.00" x2="1296.00" y2="432.00" />
<line x1="608.00" y1="448.00" x2="656.00" y2="448.00" />
<line x1="672.00" y1="448.00" x2="688.00" y2="448.00" />
<line x1="704.00" y1="448.00" x2="752.00" y2="448.00" />
<line x1="48.00" y1="464.00" x2="96.00" y2="464.00" />
<line x1="128.00" y1="512.00" x2="208.00" y2="512.00" />
<line x1="224.00" y1="512.00" x2="256.00" y2="512.00" />
<line x1="336.00" y1="512.00" x2="496.00" y2="512.00" />
<line x1="512.00" y1="512.00" x2="560.00" y2="512.00" />
<line x1="576.00" y1="512.00" x2="656.00" y2="512.00" />
<line x1="672.00" y1="512.00" x2="688.00" y2="512.00" />
<line x1="704.00" y1="512.00" x2="752.00" y2="512.00" />
<line x1="768.00" y1="512.00" x2="928.00" y2="512.00" />
<line x1="944.00" y1="512.00" x2="1088.00" y2="512.00" />
<line x1="1104.00" y1="512.00" x2="1120.00" y2="512.00" />
<line x1="1136.00" y1="512.00" x2="1168.00" y2="512.00" />
<line x1="1184.00" y1="512.00" x2="1216.00" y2="512.00" />
<line x1="1232.00" y1="512.00" x2="1312.00" y2="512.00" />
<line x1="144.00" y1="496.00" x2="208.00" y2="496.00" />
<line x1="224.00" y1="496.00" x2="256.00" y2="496.00" />
<line x1="336.00" y1="496.00" x2="496.00" y2="496.00" />
<line x1="512.00" y1="496.00" x2="560.00" y2="496.00" />
<line x1="576.00" y1="496.00" x2="656.00" y2="496.00" />
<line x1="672.00" y1="496.00" x2="688.00" y2="496.00" />
<line x1="704.00" y1="496.00" x2="752.00" y2="496.00" />
<line x1="768.00" y1="496.00" x2="928.00" y2="496.00" />
<line x1="944.00" y1="496.00" x2="1088.00" y2="496.00" />
<line x1="1104.00" y1="496.00" x2="1120.00" y2="496.00" />
<line x1="1136.00" y1="496.00" x2="1168.00" y2="496.00" />
<line x1="1184.00" y1="496.00" x2="1216.00" y2="496.00" />
<line x1="1232.00" y1="496.00" x2="1312.00" y2="496.00" />
<line x1="1328.00" y1="496.00" x2="1344.00" y2="496.00" />
<line x1="1152.00" y1="528.00" x2="1168.00" y2="528.00" />
<line x1="1184.00" y1="528.00" x2="1200.00" y2="528.00" />
<line x1="576.00" y1="560.00" x2="656.00" y2="560.00" />
<line x1="672.00" y1="560.00" x2="688.00" y2="560.00" />
<line x1="704.00" y1="560.00" x2="752.00" y2="560.00" />
<line x1="768.00" y1="560.00" x2="928.00" y2="560.00" />
<line x1="944.00" y1="560.00" x2="1088.00" y2="560.00" />
<line x1="1104.00" y1="560.00" x2="1120.00" y2="560.00" />
<line x1="1136.00" y1="560.00" x2="1152.00" y2="560.00" />
<line x1="576.00" y1="576.00" x2="656.00" y2="576.00" />
<line x1="672.00" y1="576.00" x2="688.00" y2="576.00" />
<line x1="704.00" y1="576.00" x2="752.00" y2="576.00" />
<line x1="768.00" y1="576.00" x2="928.00" y2="576.00" />
<line x1="944.00" y1="576.00" x2="1088.00" y2="576.00" />
<line x1="1104.00" y1="576.00" x2="1120.00" y2="576.00" />
<line x1="1136.00" y1="576.00" x2="1152.00" y2="576.00" />
<line x1="256.00" y1="592.00" x2="288.00" y2="592.00" />
<line x1="304.00" y1="592.00" x2="336.00" y2="592.00" />
<line x1="1152.00" y1="592.00" x2="1200.00" y2="592.00" />
<line x1="1264.00" y1="592.00" x2="1312.00" y2="592.00" />
<line x1="1344.00" y1="592.00" x2="1408.00" y2="592.00" />
<line x1="144.00" y1="608.00" x2="208.00" y2="608.00" />
<line x1="224.00" y1="608.00" x2="272.00" y2="608.00" />
<line x1="432.00" y1="608.00" x2="496.00" y2="608.00" />
<line x1="512.00" y1="608.00" x2="560.00" y2="608.00" />
<line x1="944.00" y1="624.00" x2="1088.00" y2="624.00" />
<line x1="1104.00" y1="624.00" x2="1120.00" y2="624.00" />
<line x1="1136.00" y1="624.00" x2="1216.00" y2="624.00" />
<line x1="1232.00" y1="624.00" x2="1264.00" y2="624.00" />
<line x1="272.00" y1="640.00" x2="288.00" y2="640.00" />
<line x1="304.00" y1="640.00" x2="432.00" y2="640.00" />
<line x1="576.00" y1="640.00" x2="656.00" y2="640.00" />
<line x1="672.00" y1="640.00" x2="688.00" y2="640.00" />
<line x1="704.00" y1="640.00" x2="752.00" y2="640.00" />
<line x1="768.00" y1="640.00" x2="928.00" y2="640.00" />
<line x1="1232.00" y1="640.00" x2="1264.00" y2="640.00" />
<line x1="272.00" y1="656.00" x2="288.00" y2="656.00" />
<line x1="304.00" y1="656.00" x2="432.00" y2="656.00" />
<line x1="576.00" y1="656.00" x2="656.00" y2="656.00" />
<line x1="672.00" y1="656.00" x2="688.00" y2="656.00" />
<line x1="704.00" y1="656.00" x2="752.00" y2="656.00" />
<line x1="768.00" y1="656.00" x2="1120.00" y2="656.00" />
<line x1="1136.00" y1="656.00" x2="1232.00" y2="656.00" />
<line x1="704.00" y1="672.00" x2="752.00" y2="672.00" />
<line x1="768.00" y1="672.00" x2="912.00" y2="672.00" />
<line x1="1264.00" y1="672.00" x2="1312.00" y2="672.00" />
<line x1="1344.00" y1="672.00" x2="1408.00" y2="672.00" />
<line x1="144.00" y1="688.00" x2="272.00" y2="688.00" />
<line x1="576.00" y1="688.00" x2="656.00" y2="688.00" />
<line x1="672.00" y1="688.00" x2="688.00" y2="688.00" />
<line x1="112.00" y1="704.00" x2="288.00" y2="704.00" />
<line x1="304.00" y1="704.00" x2="432.00" y2="704.00" />
<line x1="912.00" y1="704.00" x2="1120.00" y2="704.00" />
<line x1="1136.00" y1="704.00" x2="1312.00" y2="704.00" />
<line x1="112.00" y1="720.00" x2="288.00" y2="720.00" />
<line x1="304.00" y1="720.00" x2="432.00" y2="720.00" />
<line x1="576.00" y1="720.00" x2="656.00" y2="720.00" />
<line x1="672.00" y1="720.00" x2="688.00" y2="720.00" />
<line x1="912.00" y1="720.00" x2="1120.00" y2="720.00" />
<line x1="1136.00" y1="720.00" x2="1312.00" y2="720.00" />
<line x1="704.00" y1="736.00" x2="752.00" y2="736.00" />
<line x1="768.00" y1="736.00" x2="800.00" y2="736.00" />
<line x1="816.00" y1="736.00" x2="912.00" y2="736.00" />
<line x1="432.00" y1="768.00" x2="560.00" y2="768.00" />
<line x1="1232.00" y1="752.00" x2="1312.00" y2="752.00" />
<line x1="1344.00" y1="752.00" x2="1408.00" y2="752.00" />
<line x1="576.00" y1="784.00" x2="656.00" y2="784.00" />
<line x1="672.00" y1="784.00" x2="688.00" y2="784.00" />
<line x1="704.00" y1="784.00" x2="752.00" y2="784.00" />
<line x1="416.00" y1="832.00" x2="560.00" y2="832.00" />
<line x1="768.00" y1="832.00" x2="800.00" y2="832.00" />
<line x1="816.00" y1="832.00" x2="1120.00" y2="832.00" />
<line x1="1136.00" y1="832.00" x2="1232.00" y2="832.00" />
<line x1="432.00" y1="848.00" x2="560.00" y2="848.00" />
<line x1="768.00" y1="848.00" x2="800.00" y2="848.00" />
<line x1="816.00" y1="848.00" x2="1120.00" y2="848.00" />
<line x1="1136.00" y1="848.00" x2="1232.00" y2="848.00" />
<line x1="384.00" y1="880.00" x2="416.00" y2="880.00" />
<line x1="432.00" y1="880.00" x2="448.00" y2="880.00" />
<line x1="368.00" y1="896.00" x2="384.00" y2="896.00" />
<line x1="448.00" y1="896.00" x2="464.00" y2="896.00" />
<line x1="352.00" y1="912.00" x2="368.00" y2="912.00" />
<line x1="464.00" y1="912.00" x2="480.00" y2="912.00" />
<line x1="576.00" y1="912.00" x2="656.00" y2="912.00" />
<line x1="672.00" y1="912.00" x2="752.00" y2="912.00" />
<line x1="1232.00" y1="928.00" x2="1312.00" y2="928.00" />
<line x1="1344.00" y1="928.00" x2="1408.00" y2="928.00" />
<line x1="768.00" y1="944.00" x2="800.00" y2="944.00" />
<line x1="816.00" y1="944.00" x2="848.00" y2="944.00" />
<line x1="352.00" y1="976.00" x2="368.00" y2="976.00" />
<line x1="464.00" y1="976.00" x2="480.00" y2="976.00" />
<line x1="720.00" y1="976.00" x2="736.00" y2="976.00" />
<line x1="864.00" y1="976.00" x2="880.00" y2="976.00" />
<line x1="736.00" y1="960.00" x2="752.00" y2="960.00" />
<line x1="848.00" y1="960.00" x2="864.00" y2="960.00" />
<line x1="368.00" y1="992.00" x2="384.00" y2="992.00" />
<line x1="448.00" y1="992.00" x2="464.00" y2="992.00" />
<line x1="704.00" y1="992.00" x2="720.00" y2="992.00" />
<line x1="880.00" y1="992.00" x2="896.00" y2="992.00" />
<line x1="384.00" y1="1008.00" x2="416.00" y2="1008.00" />
<line x1="432.00" y1="1008.00" x2="448.00" y2="1008.00" />
<line x1="320.00" y1="1024.00" x2="416.00" y2="1024.00" />
<line x1="432.00" y1="1024.00" x2="512.00" y2="1024.00" />
<line x1="1344.00" y1="1024.00" x2="1408.00" y2="1024.00" />
<line x1="288.00" y1="1072.00" x2="320.00" y2="1072.00" />
<line x1="512.00" y1="1072.00" x2="560.00" y2="1072.00" />
<line x1="576.00" y1="1072.00" x2="704.00" y2="1072.00" />
<line x1="896.00" y1="1072.00" x2="1040.00" y2="1072.00" />
<line x1="1056.00" y1="1072.00" x2="1120.00" y2="1072.00" />
<line x1="1136.00" y1="1072.00" x2="1312.00" y2="1072.00" />
<line x1="304.00" y1="1056.00" x2="320.00" y2="1056.00" />
<line x1="512.00" y1="1056.00" x2="560.00" y2="1056.00" />
<line x1="576.00" y1="1056.00" x2="656.00" y2="1056.00" />
<line x1="672.00" y1="1056.00" x2="704.00" y2="1056.00" />
<line x1="896.00" y1="1056.00" x2="1120.00" y2="1056.00" />
<line x1="1136.00" y1="1056.00" x2="1312.00" y2="1056.00" />
<line x1="704.00" y1="1088.00" x2="720.00" y2="1088.00" />
<line x1="880.00" y1="1088.00" x2="896.00" y2="1088.00" />
<line x1="320.00" y1="1104.00" x2="416.00" y2="1104.00" />
<line x1="432.00" y1="1104.00" x2="512.00" y2="1104.00" />
<line x1="720.00" y1="1104.00" x2="736.00" y2="1104.00" />
<line x1="864.00" y1="1104.00" x2="880.00" y2="1104.00" />
<line x1="1072.00" y1="1104.00" x2="1120.00" y2="1104.00" />
<line x1="1136.00" y1="1104.00" x2="1168.00" y2="1104.00" />
<line x1="736.00" y1="1120.00" x2="752.00" y2="1120.00" />
<line x1="848.00" y1="1120.00" x2="864.00" y2="1120.00" />
<line x1="1056.00" y1="1120.00" x2="1072.00" y2="1120.00" />
<line x1="1168.00" y1="1120.00" x2="1184.00" y2="1120.00" />
<line x1="768.00" y1="1136.00" x2="800.00" y2="1136.00" />
<line x1="816.00" y1="1136.00" x2="848.00" y2="1136.00" />
<line x1="1184.00" y1="1136.00" x2="1200.00" y2="1136.00" />
<line x1="496.00" y1="1184.00" x2="560.00" y2="1184.00" />
<line x1="576.00" y1="1184.00" x2="624.00" y2="1184.00" />
<line x1="1200.00" y1="1200.00" x2="1312.00" y2="1200.00" />
<line x1="1200.00" y1="1216.00" x2="1312.00" y2="1216.00" />
<line x1="1344.00" y1="1216.00" x2="1408.00" y2="1216.00" />
<line x1="48.00" y1="1232.00" x2="96.00" y2="1232.00" />
<line x1="112.00" y1="1232.00" x2="160.00" y2="1232.00" />
<line x1="720.00" y1="1264.00" x2="752.00" y2="1264.00" />
<line x1="768.00" y1="1264.00" x2="800.00" y2="1264.00" />
<line x1="704.00" y1="1280.00" x2="720.00" y2="1280.00" />
<line x1="1184.00" y1="1280.00" x2="1200.00" y2="1280.00" />
<line x1="1280.00" y1="1280.00" x2="1312.00" y2="1280.00" />
<line x1="1344.00" y1="1280.00" x2="1376.00" y2="1280.00" />
<line x1="688.00" y1="1296.00" x2="704.00" y2="1296.00" />
<line x1="816.00" y1="1296.00" x2="832.00" y2="1296.00" />
<line x1="1056.00" y1="1296.00" x2="1072.00" y2="1296.00" />
<line x1="1168.00" y1="1296.00" x2="1184.00" y2="1296.00" />
<line x1="1264.00" y1="1296.00" x2="1280.00" y2="1296.00" />
<line x1="1376.00" y1="1296.00" x2="1392.00" y2="1296.00" />
<line x1="496.00" y1="1312.00" x2="624.00" y2="1312.00" />
<line x1="1072.00" y1="1312.00" x2="1168.00" y2="1312.00" />
<line x1="1248.00" y1="1312.00" x2="1264.00" y2="1312.00" />
<line x1="1392.00" y1="1312.00" x2="1408.00" y2="1312.00" />
<line x1="944.00" y1="1328.00" x2="1040.00" y2="1328.00" />
<line x1="1056.00" y1="1328.00" x2="1136.00" y2="1328.00" />
<line x1="416.00" y1="1360.00" x2="688.00" y2="1360.00" />
<line x1="832.00" y1="1360.00" x2="944.00" y2="1360.00" />
<line x1="1136.00" y1="1360.00" x2="1248.00" y2="1360.00" />
<line x1="432.00" y1="1344.00" x2="688.00" y2="1344.00" />
<line x1="832.00" y1="1344.00" x2="944.00" y2="1344.00" />
<line x1="1136.00" y1="1344.00" x2="1248.00" y2="1344.00" />
<line x1="944.00" y1="1376.00" x2="1136.00" y2="1376.00" />
<line x1="1248.00" y1="1392.00" x2="1264.00" y2="1392.00" />
<line x1="1392.00" y1="1392.00" x2="1408.00" y2="1392.00" />
<line x1="688.00" y1="1408.00" x2="704.00" y2="1408.00" />
<line x1="816.00" y1="1408.00" x2="832.00" y2="1408.00" />
<line x1="1264.00" y1="1408.00" x2="1280.00" y2="1408.00" />
<line x1="1376.00" y1="1408.00" x2="1392.00" y2="1408.00" />
<line x1="704.00" y1="1424.00" x2="720.00" y2="1424.00" />
<line x1="800.00" y1="1424.00" x2="816.00" y2="1424.00" />
<line x1="1280.00" y1="1424.00" x2="1376.00" y2="1424.00" />
<line x1="48.00" y1="1440.00" x2="160.00" y2="1440.00" />
<line x1="720.00" y1="1440.00" x2="800.00" y2="1440.00" />
<line x1="96.00" y1="48.00" x2="96.00" y2="176.00" />
<line x1="96.00" y1="192.00" x2="96.00" y2="224.00" />
<line x1="96.00" y1="464.00" x2="96.00" y2="1232.00" />
<line x1="160.00" y1="48.00" x2="160.00" y2="128.00" />
<line x1="160.00" y1="144.00" x2="160.00" y2="176.00" />
<line x1="160.00" y1="192.00" x2="160.00" y2="224.00" />
<line x1="160.00" y1="1232.00" x2="160.00" y2="1440.00" />
<line x1="656.00" y1="112.00" x2="656.00" y2="128.00" />
<line x1="656.00" y1="144.00" x2="656.00" y2="176.00" />
<line x1="656.00" y1="192.00" x2="656.00" y2="272.00" />
<line x1="656.00" y1="448.00" x2="656.00" y2="496.00" />
<line x1="656.00" y1="512.00" x2="656.00" y2="560.00" />
<line x1="656.00" y1="576.00" x2="656.00" y2="640.00" />
<line x1="656.00" y1="656.00" x2="656.00" y2="688.00" />
<line x1="656.00" y1="720.00" x2="656.00" y2="784.00" />
<line x1="656.00" y1="912.00" x2="656.00" y2="1056.00" />
<line x1="848.00" y1="112.00" x2="848.00" y2="176.00" />
<line x1="848.00" y1="192.00" x2="848.00" y2="272.00" />
<line x1="848.00" y1="944.00" x2="848.00" y2="960.00" />
<line x1="848.00" y1="1120.00" x2="848.00" y2="1136.00" />
<line x1="560.00" y1="144.00" x2="560.00" y2="176.00" />
<line x1="560.00" y1="192.00" x2="560.00" y2="352.00" />
<line x1="560.00" y1="368.00" x2="560.00" y2="400.00" />
<line x1="560.00" y1="416.00" x2="560.00" y2="496.00" />
<line x1="560.00" y1="512.00" x2="560.00" y2="608.00" />
<line x1="560.00" y1="768.00" x2="560.00" y2="832.00" />
<line x1="560.00" y1="848.00" x2="560.00" y2="1056.00" />
<line x1="560.00" y1="1072.00" x2="560.00" y2="1184.00" />
<line x1="576.00" y1="144.00" x2="576.00" y2="176.00" />
<line x1="576.00" y1="192.00" x2="576.00" y2="352.00" />
<line x1="576.00" y1="368.00" x2="576.00" y2="400.00" />
<line x1="576.00" y1="416.00" x2="576.00" y2="496.00" />
<line x1="576.00" y1="512.00" x2="576.00" y2="560.00" />
<line x1="576.00" y1="576.00" x2="576.00" y2="640.00" />
<line x1="576.00" y1="656.00" x2="576.00" y2="688.00" />
<line x1="576.00" y1="720.00" x2="576.00" y2="784.00" />
<line x1="576.00" y1="912.00" x2="576.00" y2="1056.00" />
<line x1="576.00" y1="1072.00" x2="576.00" y2="1184.00" />
<line x1="912.00" y1="160.00" x2="912.00" y2="176.00" />
<line x1="912.00" y1="192.00" x2="912.00" y2="208.00" />
<line x1="912.00" y1="672.00" x2="912.00" y2="704.00" />
<line x1="912.00" y1="720.00" x2="912.00" y2="736.00" />
<line x1="960.00" y1="160.00" x2="960.00" y2="208.00" />
<line x1="64.00" y1="176.00" x2="64.00" y2="352.00" />
<line x1="1296.00" y1="176.00" x2="1296.00" y2="192.00" />
<line x1="1296.00" y1="352.00" x2="1296.00" y2="368.00" />
<line x1="1296.00" y1="384.00" x2="1296.00" y2="432.00" />
<line x1="1328.00" y1="176.00" x2="1328.00" y2="192.00" />
<line x1="1328.00" y1="352.00" x2="1328.00" y2="496.00" />
<line x1="80.00" y1="192.00" x2="80.00" y2="352.00" />
<line x1="1264.00" y1="192.00" x2="1264.00" y2="224.00" />
<line x1="1264.00" y1="320.00" x2="1264.00" y2="352.00" />
<line x1="1264.00" y1="592.00" x2="1264.00" y2="624.00" />
<line x1="1264.00" y1="640.00" x2="1264.00" y2="672.00" />
<line x1="1264.00" y1="1296.00" x2="1264.00" y2="1312.00" />
<line x1="1264.00" y1="1392.00" x2="1264.00" y2="1408.00" />
<line x1="1360.00" y1="192.00" x2="1360.00" y2="224.00" />
<line x1="1360.00" y1="320.00" x2="1360.00" y2="352.00" />
<line x1="928.00" y1="208.00" x2="928.00" y2="288.00" />
<line x1="928.00" y1="432.00" x2="928.00" y2="496.00" />
<line x1="928.00" y1="512.00" x2="928.00" y2="560.00" />
<line x1="928.00" y1="576.00" x2="928.00" y2="640.00" />
<line x1="944.00" y1="208.00" x2="944.00" y2="288.00" />
<line x1="944.00" y1="432.00" x2="944.00" y2="496.00" />
<line x1="944.00" y1="512.00" x2="944.00" y2="560.00" />
<line x1="944.00" y1="576.00" x2="944.00" y2="624.00" />
<line x1="944.00" y1="1328.00" x2="944.00" y2="1344.00" />
<line x1="944.00" y1="1360.00" x2="944.00" y2="1376.00" />
<line x1="1056.00" y1="208.00" x2="1056.00" y2="304.00" />
<line x1="1056.00" y1="320.00" x2="1056.00" y2="368.00" />
<line x1="1056.00" y1="384.00" x2="1056.00" y2="400.00" />
<line x1="1056.00" y1="1072.00" x2="1056.00" y2="1120.00" />
<line x1="1056.00" y1="1296.00" x2="1056.00" y2="1328.00" />
<line x1="1120.00" y1="208.00" x2="1120.00" y2="304.00" />
<line x1="1120.00" y1="320.00" x2="1120.00" y2="368.00" />
<line x1="1120.00" y1="384.00" x2="1120.00" y2="400.00" />
<line x1="1120.00" y1="416.00" x2="1120.00" y2="496.00" />
<line x1="1120.00" y1="512.00" x2="1120.00" y2="560.00" />
<line x1="1120.00" y1="576.00" x2="1120.00" y2="624.00" />
<line x1="1120.00" y1="656.00" x2="1120.00" y2="704.00" />
<line x1="1120.00" y1="720.00" x2="1120.00" y2="832.00" />
<line x1="1120.00" y1="848.00" x2="1120.00" y2="1056.00" />
<line x1="1120.00" y1="1072.00" x2="1120.00" y2="1104.00" />
<line x1="128.00" y1="224.00" x2="128.00" y2="352.00" />
<line x1="128.00" y1="368.00" x2="128.00" y2="400.00" />
<line x1="128.00" y1="416.00" x2="128.00" y2="512.00" />
<line x1="144.00" y1="224.00" x2="144.00" y2="352.00" />
<line x1="144.00" y1="368.00" x2="144.00" y2="400.00" />
<line x1="144.00" y1="416.00" x2="144.00" y2="496.00" />
<line x1="144.00" y1="608.00" x2="144.00" y2="688.00" />
<line x1="1248.00" y1="224.00" x2="1248.00" y2="304.00" />
<line x1="1248.00" y1="1312.00" x2="1248.00" y2="1344.00" />
<line x1="1248.00" y1="1360.00" x2="1248.00" y2="1392.00" />
<line x1="1376.00" y1="224.00" x2="1376.00" y2="320.00" />
<line x1="1376.00" y1="1280.00" x2="1376.00" y2="1296.00" />
<line x1="1376.00" y1="1408.00" x2="1376.00" y2="1424.00" />
<line x1="752.00" y1="272.00" x2="752.00" y2="288.00" />
<line x1="752.00" y1="448.00" x2="752.00" y2="496.00" />
<line x1="752.00" y1="512.00" x2="752.00" y2="560.00" />
<line x1="752.00" y1="576.00" x2="752.00" y2="640.00" />
<line x1="752.00" y1="656.00" x2="752.00" y2="672.00" />
<line x1="752.00" y1="736.00" x2="752.00" y2="784.00" />
<line x1="752.00" y1="912.00" x2="752.00" y2="960.00" />
<line x1="752.00" y1="1120.00" x2="752.00" y2="1264.00" />
<line x1="768.00" y1="272.00" x2="768.00" y2="304.00" />
<line x1="768.00" y1="320.00" x2="768.00" y2="352.00" />
<line x1="768.00" y1="384.00" x2="768.00" y2="400.00" />
<line x1="768.00" y1="416.00" x2="768.00" y2="496.00" />
<line x1="768.00" y1="512.00" x2="768.00" y2="560.00" />
<line x1="768.00" y1="576.00" x2="768.00" y2="640.00" />
<line x1="768.00" y1="656.00" x2="768.00" y2="672.00" />
<line x1="768.00" y1="736.00" x2="768.00" y2="832.00" />
<line x1="768.00" y1="848.00" x2="768.00" y2="944.00" />
<line x1="768.00" y1="1136.00" x2="768.00" y2="1264.00" />
<line x1="608.00" y1="288.00" x2="608.00" y2="352.00" />
<line x1="608.00" y1="368.00" x2="608.00" y2="400.00" />
<line x1="608.00" y1="416.00" x2="608.00" y2="448.00" />
<line x1="864.00" y1="288.00" x2="864.00" y2="304.00" />
<line x1="864.00" y1="320.00" x2="864.00" y2="352.00" />
<line x1="864.00" y1="384.00" x2="864.00" y2="400.00" />
<line x1="864.00" y1="416.00" x2="864.00" y2="432.00" />
<line x1="864.00" y1="960.00" x2="864.00" y2="976.00" />
<line x1="864.00" y1="1104.00" x2="864.00" y2="1120.00" />
<line x1="992.00" y1="288.00" x2="992.00" y2="304.00" />
<line x1="992.00" y1="320.00" x2="992.00" y2="368.00" />
<line x1="992.00" y1="384.00" x2="992.00" y2="400.00" />
<line x1="992.00" y1="416.00" x2="992.00" y2="432.00" />
<line x1="48.00" y1="352.00" x2="48.00" y2="464.00" />
<line x1="48.00" y1="1232.00" x2="48.00" y2="1440.00" />
<line x1="112.00" y1="368.00" x2="112.00" y2="400.00" />
<line x1="112.00" y1="416.00" x2="112.00" y2="704.00" />
<line x1="112.00" y1="720.00" x2="112.00" y2="1232.00" />
<line x1="208.00" y1="368.00" x2="208.00" y2="400.00" />
<line x1="208.00" y1="416.00" x2="208.00" y2="496.00" />
<line x1="208.00" y1="512.00" x2="208.00" y2="608.00" />
<line x1="224.00" y1="368.00" x2="224.00" y2="400.00" />
<line x1="224.00" y1="416.00" x2="224.00" y2="496.00" />
<line x1="224.00" y1="512.00" x2="224.00" y2="608.00" />
<line x1="1152.00" y1="384.00" x2="1152.00" y2="432.00" />
<line x1="1152.00" y1="528.00" x2="1152.00" y2="560.00" />
<line x1="1152.00" y1="576.00" x2="1152.00" y2="592.00" />
<line x1="1312.00" y1="384.00" x2="1312.00" y2="496.00" />
<line x1="1312.00" y1="512.00" x2="1312.00" y2="592.00" />
<line x1="1312.00" y1="672.00" x2="1312.00" y2="704.00" />
<line x1="1312.00" y1="720.00" x2="1312.00" y2="752.00" />
<line x1="1312.00" y1="928.00" x2="1312.00" y2="1056.00" />
<line x1="1312.00" y1="1072.00" x2="1312.00" y2="1200.00" />
<line x1="1312.00" y1="1216.00" x2="1312.00" y2="1280.00" />
<line x1="1136.00" y1="400.00" x2="1136.00" y2="496.00" />
<line x1="1136.00" y1="512.00" x2="1136.00" y2="560.00" />
<line x1="1136.00" y1="576.00" x2="1136.00" y2="624.00" />
<line x1="1136.00" y1="656.00" x2="1136.00" y2="704.00" />
<line x1="1136.00" y1="720.00" x2="1136.00" y2="832.00" />
<line x1="1136.00" y1="848.00" x2="1136.00" y2="1056.00" />
<line x1="1136.00" y1="1072.00" x2="1136.00" y2="1104.00" />
<line x1="1136.00" y1="1328.00" x2="1136.00" y2="1344.00" />
<line x1="1136.00" y1="1360.00" x2="1136.00" y2="1376.00" />
<line x1="256.00" y1="416.00" x2="256.00" y2="496.00" />
<line x1="256.00" y1="512.00" x2="256.00" y2="592.00" />
<line x1="336.00" y1="416.00" x2="336.00" y2="496.00" />
<line x1="336.00" y1="512.00" x2="336.00" y2="592.00" />
<line x1="496.00" y1="416.00" x2="496.00" y2="496.00" />
<line x1="496.00" y1="512.00" x2="496.00" y2="608.00" />
<line x1="496.00" y1="1184.00" x2="496.00" y2="1312.00" />
<line x1="512.00" y1="416.00" x2="512.00" y2="496.00" />
<line x1="512.00" y1="512.00" x2="512.00" y2="608.00" />
<line x1="512.00" y1="1024.00" x2="512.00" y2="1056.00" />
<line x1="512.00" y1="1072.00" x2="512.00" y2="1104.00" />
<line x1="1088.00" y1="416.00" x2="1088.00" y2="496.00" />
<line x1="1088.00" y1="512.00" x2="1088.00" y2="560.00" />
<line x1="1088.00" y1="576.00" x2="1088.00" y2="624.00" />
<line x1="1104.00" y1="416.00" x2="1104.00" y2="496.00" />
<line x1="1104.00" y1="512.00" x2="1104.00" y2="560.00" />
<line x1="1104.00" y1="576.00" x2="1104.00" y2="624.00" />
<line x1="1168.00" y1="432.00" x2="1168.00" y2="496.00" />
<line x1="1168.00" y1="512.00" x2="1168.00" y2="528.00" />
<line x1="1168.00" y1="1104.00" x2="1168.00" y2="1120.00" />
<line x1="1168.00" y1="1296.00" x2="1168.00" y2="1312.00" />
<line x1="1184.00" y1="432.00" x2="1184.00" y2="496.00" />
<line x1="1184.00" y1="512.00" x2="1184.00" y2="528.00" />
<line x1="1184.00" y1="1120.00" x2="1184.00" y2="1136.00" />
<line x1="1184.00" y1="1280.00" x2="1184.00" y2="1296.00" />
<line x1="1216.00" y1="432.00" x2="1216.00" y2="496.00" />
<line x1="1216.00" y1="512.00" x2="1216.00" y2="624.00" />
<line x1="1232.00" y1="432.00" x2="1232.00" y2="496.00" />
<line x1="1232.00" y1="512.00" x2="1232.00" y2="624.00" />
<line x1="1232.00" y1="640.00" x2="1232.00" y2="656.00" />
<line x1="1232.00" y1="752.00" x2="1232.00" y2="832.00" />
<line x1="1232.00" y1="848.00" x2="1232.00" y2="928.00" />
<line x1="672.00" y1="448.00" x2="672.00" y2="496.00" />
<line x1="672.00" y1="512.00" x2="672.00" y2="560.00" />
<line x1="672.00" y1="576.00" x2="672.00" y2="640.00" />
<line x1="672.00" y1="656.00" x2="672.00" y2="688.00" />
<line x1="672.00" y1="720.00" x2="672.00" y2="784.00" />
<line x1="672.00" y1="912.00" x2="672.00" y2="1056.00" />
<line x1="688.00" y1="448.00" x2="688.00" y2="496.00" />
<line x1="688.00" y1="512.00" x2="688.00" y2="560.00" />
<line x1="688.00" y1="576.00" x2="688.00" y2="640.00" />
<line x1="688.00" y1="656.00" x2="688.00" y2="688.00" />
<line x1="688.00" y1="720.00" x2="688.00" y2="784.00" />
<line x1="688.00" y1="1296.00" x2="688.00" y2="1344.00" />
<line x1="688.00" y1="1360.00" x2="688.00" y2="1408.00" />
<line x1="704.00" y1="448.00" x2="704.00" y2="496.00" />
<line x1="704.00" y1="512.00" x2="704.00" y2="560.00" />
<line x1="704.00" y1="576.00" x2="704.00" y2="640.00" />
<line x1="704.00" y1="656.00" x2="704.00" y2="672.00" />
<line x1="704.00" y1="736.00" x2="704.00" y2="784.00" />
<line x1="704.00" y1="992.00" x2="704.00" y2="1056.00" />
<line x1="704.00" y1="1072.00" x2="704.00" y2="1088.00" />
<line x1="704.00" y1="1280.00" x2="704.00" y2="1296.00" />
<line x1="704.00" y1="1408.00" x2="704.00" y2="1424.00" />
<line x1="1344.00" y1="496.00" x2="1344.00" y2="592.00" />
<line x1="1344.00" y1="672.00" x2="1344.00" y2="752.00" />
<line x1="1344.00" y1="928.00" x2="1344.00" y2="1024.00" />
<line x1="1344.00" y1="1216.00" x2="1344.00" y2="1280.00" />
<line x1="1200.00" y1="528.00" x2="1200.00" y2="592.00" />
<line x1="1200.00" y1="1136.00" x2="1200.00" y2="1200.00" />
<line x1="1200.00" y1="1216.00" x2="1200.00" y2="1280.00" />
<line x1="288.00" y1="592.00" x2="288.00" y2="640.00" />
<line x1="288.00" y1="656.00" x2="288.00" y2="704.00" />
<line x1="288.00" y1="720.00" x2="288.00" y2="1072.00" />
<line x1="304.00" y1="592.00" x2="304.00" y2="640.00" />
<line x1="304.00" y1="656.00" x2="304.00" y2="704.00" />
<line x1="304.00" y1="720.00" x2="304.00" y2="1056.00" />
<line x1="1408.00" y1="592.00" x2="1408.00" y2="672.00" />
<line x1="1408.00" y1="752.00" x2="1408.00" y2="928.00" />
<line x1="1408.00" y1="1024.00" x2="1408.00" y2="1216.00" />
<line x1="1408.00" y1="1312.00" x2="1408.00" y2="1392.00" />
<line x1="272.00" y1="608.00" x2="272.00" y2="640.00" />
<line x1="272.00" y1="656.00" x2="272.00" y2="688.00" />
<line x1="432.00" y1="608.00" x2="432.00" y2="640.00" />
<line x1="432.00" y1="656.00" x2="432.00" y2="704.00" />
<line x1="432.00" y1="720.00" x2="432.00" y2="768.00" />
<line x1="432.00" y1="848.00" x2="432.00" y2="880.00" />
<line x1="432.00" y1="1008.00" x2="432.00" y2="1024.00" />
<line x1="432.00" y1="1104.00" x2="432.00" y2="1344.00" />
<line x1="800.00" y1="736.00" x2="800.00" y2="832.00" />
<line x1="800.00" y1="848.00" x2="800.00" y2="944.00" />
<line x1="800.00" y1="1136.00" x2="800.00" y2="1264.00" />
<line x1="800.00" y1="1424.00" x2="800.00" y2="1440.00" />
<line x1="816.00" y1="736.00" x2="816.00" y2="832.00" />
<line x1="816.00" y1="848.00" x2="816.00" y2="944.00" />
<line x1="816.00" y1="1136.00" x2="816.00" y2="1296.00" />
<line x1="816.00" y1="1408.00" x2="816.00" y2="1424.00" />
<line x1="416.00" y1="832.00" x2="416.00" y2="880.00" />
<line x1="416.00" y1="1008.00" x2="416.00" y2="1024.00" />
<line x1="416.00" y1="1104.00" x2="416.00" y2="1360.00" />
<line x1="384.00" y1="880.00" x2="384.00" y2="896.00" />
<line x1="384.00" y1="992.00" x2="384.00" y2="1008.00" />
<line x1="448.00" y1="880.00" x2="448.00" y2="896.00" />
<line x1="448.00" y1="992.00" x2="448.00" y2="1008.00" />
<line x1="368.00" y1="896.00" x2="368.00" y2="912.00" />
<line x1="368.00" y1="976.00" x2="368.00" y2="992.00" />
<line x1="464.00" y1="896.00" x2="464.00" y2="912.00" />
<line x1="464.00" y1="976.00" x2="464.00" y2="992.00" />
<line x1="352.00" y1="912.00" x2="352.00" y2="976.00" />
<line x1="480.00" y1="912.00" x2="480.00" y2="976.00" />
<line x1="736.00" y1="960.00" x2="736.00" y2="976.00" />
<line x1="736.00" y1="1104.00" x2="736.00" y2="1120.00" />
<line x1="720.00" y1="976.00" x2="720.00" y2="992.00" />
<line x1="720.00" y1="1088.00" x2="720.00" y2="1104.00" />
<line x1="720.00" y1="1264.00" x2="720.00" y2="1280.00" />
<line x1="720.00" y1="1424.00" x2="720.00" y2="1440.00" />
<line x1="880.00" y1="976.00" x2="880.00" y2="992.00" />
<line x1="880.00" y1="1088.00" x2="880.00" y2="1104.00" />
<line x1="896.00" y1="992.00" x2="896.00" y2="1056.00" />
<line x1="896.00" y1="1072.00" x2="896.00" y2="1088.00" />
<line x1="320.00" y1="1024.00" x2="320.00" y2="1056.00" />
<line x1="320.00" y1="1072.00" x2="320.00" y2="1104.00" />
<line x1="1040.00" y1="1072.00" x2="1040.00" y2="1328.00" />
<line x1="1072.00" y1="1104.00" x2="1072.00" y2="1120.00" />
<line x1="1072.00" y1="1296.00" x2="1072.00" y2="1312.00" />
<line x1="624.00" y1="1184.00" x2="624.00" y2="1312.00" />
<line x1="1280.00" y1="1280.00" x2="1280.00" y2="1296.00" />
<line x1="1280.00" y1="1408.00" x2="1280.00" y2="1424.00" />
<line x1="832.00" y1="1296.00" x2="832.00" y2="1344.00" />
<line x1="832.00" y1="1360.00" x2="832.00" y2="1408.00" />
<line x1="1392.00" y1="1296.00" x2="1392.00" y2="1312.00" />
<line x1="1392.00" y1="1392.00" x2="1392.00" y2="1408.00" />
  </g>
  <g class="features">
<g data-feature-type="stairsDown"><line data-feature-type="stairsDown" x1="786.24" y1="1059.36" x2="797.76" y2="1059.36" /><line x1="786.65" y1="1061.68" x2="797.35" y2="1061.68" /><line x1="787.07" y1="1064.00" x2="796.93" y2="1064.00" /><line x1="787.48" y1="1066.32" x2="796.52" y2="1066.32" /><line x1="787.90" y1="1068.64" x2="796.10" y2="1068.64" /></g>
<g data-feature-type="stairsUp"><line data-feature-type="stairsUp" x1="1139.90" y1="1219.36" x2="1148.10" y2="1219.36" /><line x1="1139.48" y1="1221.68" x2="1148.52" y2="1221.68" /><line x1="1139.07" y1="1224.00" x2="1148.93" y2="1224.00" /><line x1="1138.65" y1="1226.32" x2="1149.35" y2="1226.32" /><line x1="1138.24" y1="1228.64" x2="1149.76" y2="1228.64" /></g>
<circle data-feature-type="pillar" cx="1096.00" cy="344.00" r="3.68" fill="#5c92ab" stroke="none" />
<circle data-feature-type="pillar" cx="1096.00" cy="296.00" r="3.68" fill="#5c92ab" stroke="none" />
<g data-feature-type="altar"><rect x="1093.28" y="358.40" width="5.44" height="3.20" fill="none" /><line x1="1096.00" y1="357.44" x2="1096.00" y2="362.56" /><line x1="1094.40" y1="360.00" x2="1097.60" y2="360.00" /></g>
<g data-feature-type="statue"><circle cx="1352.00" cy="648.00" r="3.52" fill="none" /><line x1="1349.76" y1="648.00" x2="1354.24" y2="648.00" /><line x1="1352.00" y1="645.76" x2="1352.00" y2="650.24" /><line x1="1350.39" y1="646.39" x2="1353.61" y2="649.61" /><line x1="1350.39" y1="649.61" x2="1353.61" y2="646.39" /></g>
<circle data-feature-type="pillar" cx="824.00" cy="712.00" r="3.68" fill="#5c92ab" stroke="none" />
<g data-feature-type="trap"><rect x="996.64" y="1348.64" width="6.72" height="6.72" fill="none" /><line x1="996.64" y1="1348.64" x2="1003.36" y2="1355.36" /><line x1="996.64" y1="1355.36" x2="1003.36" y2="1348.64" /></g>
<circle data-feature-type="pillar" cx="776.00" cy="1032.00" r="3.68" fill="#5c92ab" stroke="none" />
<circle data-feature-type="pillar" cx="792.00" cy="1032.00" r="3.68" fill="#5c92ab" stroke="none" />
<circle data-feature-type="pillar" cx="776.00" cy="1064.00" r="3.68" fill="#5c92ab" stroke="none" />
<circle data-feature-type="pillar" cx="840.00" cy="1064.00" r="3.68" fill="#5c92ab" stroke="none" />
<g data-feature-type="statue"><circle cx="808.00" cy="984.00" r="3.52" fill="none" /><line x1="805.76" y1="984.00" x2="810.24" y2="984.00" /><line x1="808.00" y1="981.76" x2="808.00" y2="986.24" /><line x1="806.39" y1="982.39" x2="809.61" y2="985.61" /><line x1="806.39" y1="985.61" x2="809.61" y2="982.39" /></g>
<g data-feature-type="trap"><rect x="68.64" y="372.64" width="6.72" height="6.72" fill="none" /><line x1="68.64" y1="372.64" x2="75.36" y2="379.36" /><line x1="68.64" y1="379.36" x2="75.36" y2="372.64" /></g>
<g data-feature-type="statue"><circle cx="1272.00" cy="264.00" r="3.52" fill="none" /><line x1="1269.76" y1="264.00" x2="1274.24" y2="264.00" /><line x1="1272.00" y1="261.76" x2="1272.00" y2="266.24" /><line x1="1270.39" y1="262.39" x2="1273.61" y2="265.61" /><line x1="1270.39" y1="265.61" x2="1273.61" y2="262.39" /></g>
<circle data-feature-type="pillar" cx="136.00" cy="1352.00" r="3.68" fill="#5c92ab" stroke="none" />
<circle data-feature-type="pillar" cx="88.00" cy="1320.00" r="3.68" fill="#5c92ab" stroke="none" />
<circle data-feature-type="pillar" cx="136.00" cy="1320.00" r="3.68" fill="#5c92ab" stroke="none" />
<g data-feature-type="altar"><rect x="101.28" y="1382.40" width="5.44" height="3.20" fill="none" /><line x1="104.00" y1="1381.44" x2="104.00" y2="1386.56" /><line x1="102.40" y1="1384.00" x2="105.60" y2="1384.00" /></g>
<circle data-feature-type="pillar" cx="680.00" cy="840.00" r="3.68" fill="#5c92ab" stroke="none" />
<circle data-feature-type="pillar" cx="696.00" cy="840.00" r="3.68" fill="#5c92ab" stroke="none" />
<circle data-feature-type="pillar" cx="632.00" cy="872.00" r="3.68" fill="#5c92ab" stroke="none" />
<circle data-feature-type="pillar" cx="1112.00" cy="1224.00" r="3.68" fill="#5c92ab" stroke="none" />
<circle data-feature-type="pillar" cx="1112.00" cy="1192.00" r="3.68" fill="#5c92ab" stroke="none" />
<circle data-feature-type="pillar" cx="1096.00" cy="1192.00" r="3.68" fill="#5c92ab" stroke="none" />
<circle data-feature-type="pillar" cx="1160.00" cy="1192.00" r="3.68" fill="#5c92ab" stroke="none" />
<circle data-feature-type="pillar" cx="152.00" cy="136.00" r="3.68" fill="#5c92ab" stroke="none" />
<g data-feature-type="statue"><circle cx="120.00" cy="184.00" r="3.52" fill="none" /><line x1="117.76" y1="184.00" x2="122.24" y2="184.00" /><line x1="120.00" y1="181.76" x2="120.00" y2="186.24" /><line x1="118.39" y1="182.39" x2="121.61" y2="185.61" /><line x1="118.39" y1="185.61" x2="121.61" y2="182.39" /></g>
<path data-feature-type="curtain" d="M 118.40 195.84 Q 120.00 198.34 118.40 200.00 Q 120.00 201.66 118.40 204.16" fill="none" /><path d="M 121.60 195.84 Q 120.00 198.34 121.60 200.00 Q 120.00 201.66 121.60 204.16" fill="none" />
<g data-feature-type="coffin"><rect x="309.60" y="532.32" width="4.80" height="7.36" rx="0.80" ry="0.80" fill="none" /><line x1="312.00" y1="533.94" x2="312.00" y2="538.06" /></g>
<circle data-feature-type="pillar" cx="1320.00" cy="1368.00" r="3.68" fill="#5c92ab" stroke="none" />
<circle data-feature-type="pillar" cx="1304.00" cy="1368.00" r="3.68" fill="#5c92ab" stroke="none" />
<circle data-feature-type="pillar" cx="1368.00" cy="1336.00" r="3.68" fill="#5c92ab" stroke="none" />
<g data-feature-type="chest"><rect x="1381.28" y="1318.24" width="5.44" height="3.52" fill="none" /><line x1="1381.28" y1="1320.00" x2="1386.72" y2="1320.00" /><circle cx="1384.00" cy="1320.18" r="0.70" fill="#5c92ab" stroke="none" /></g>
<circle data-feature-type="pillar" cx="1240.00" cy="408.00" r="3.68" fill="#5c92ab" stroke="none" />
<circle data-feature-type="pillar" cx="1384.00" cy="1128.00" r="3.68" fill="#5c92ab" stroke="none" />
<g data-feature-type="statue"><circle cx="1352.00" cy="1080.00" r="3.52" fill="none" /><line x1="1349.76" y1="1080.00" x2="1354.24" y2="1080.00" /><line x1="1352.00" y1="1077.76" x2="1352.00" y2="1082.24" /><line x1="1350.39" y1="1078.39" x2="1353.61" y2="1081.61" /><line x1="1350.39" y1="1081.61" x2="1353.61" y2="1078.39" /></g>
<g data-feature-type="coffin"><rect x="1381.60" y="1140.32" width="4.80" height="7.36" rx="0.80" ry="0.80" fill="none" /><line x1="1384.00" y1="1141.94" x2="1384.00" y2="1146.06" /></g>
<circle data-feature-type="pillar" cx="744.00" cy="1336.00" r="3.68" fill="#5c92ab" stroke="none" />
<circle data-feature-type="pillar" cx="792.00" cy="1368.00" r="3.68" fill="#5c92ab" stroke="none" />
<circle data-feature-type="pillar" cx="792.00" cy="1336.00" r="3.68" fill="#5c92ab" stroke="none" />
<g data-feature-type="trap"><rect x="740.64" y="1284.64" width="6.72" height="6.72" fill="none" /><line x1="740.64" y1="1284.64" x2="747.36" y2="1291.36" /><line x1="740.64" y1="1291.36" x2="747.36" y2="1284.64" /></g>
<circle data-feature-type="pillar" cx="424.00" cy="920.00" r="3.68" fill="#5c92ab" stroke="none" />
<circle data-feature-type="pillar" cx="424.00" cy="936.00" r="3.68" fill="#5c92ab" stroke="none" />
<g data-feature-type="trap"><rect x="436.64" y="980.64" width="6.72" height="6.72" fill="none" /><line x1="436.64" y1="980.64" x2="443.36" y2="987.36" /><line x1="436.64" y1="987.36" x2="443.36" y2="980.64" /></g>
<circle data-feature-type="pillar" cx="904.00" cy="360.00" r="3.68" fill="#5c92ab" stroke="none" />
<circle data-feature-type="pillar" cx="968.00" cy="360.00" r="3.68" fill="#5c92ab" stroke="none" />
  </g>
  <g class="thresholds">
<g data-threshold-type="locked" stroke="#5c92ab" fill="none" stroke-width="1.52"><rect x="1315.52" y="757.76" width="8.96" height="4.48" fill="#ffffff" /><circle cx="1320.00" cy="756.77" r="1.61" /></g>
<rect data-threshold-type="door" x="1107.52" y="405.76" width="8.96" height="4.48" fill="#ffffff" stroke="#5c92ab" stroke-width="1.52" />
<rect data-threshold-type="door" x="1331.52" y="597.76" width="8.96" height="4.48" fill="#ffffff" stroke="#5c92ab" stroke-width="1.52" />
<rect data-threshold-type="door" x="755.52" y="293.76" width="8.96" height="4.48" fill="#ffffff" stroke="#5c92ab" stroke-width="1.52" />
<rect data-threshold-type="door" x="915.52" y="181.76" width="8.96" height="4.48" fill="#ffffff" stroke="#5c92ab" stroke-width="1.52" />
<rect data-threshold-type="door" x="707.52" y="709.76" width="8.96" height="4.48" fill="#ffffff" stroke="#5c92ab" stroke-width="1.52" />
<g data-threshold-type="locked" stroke="#5c92ab" fill="none" stroke-width="1.52"><rect x="563.52" y="1189.76" width="8.96" height="4.48" fill="#ffffff" /><circle cx="568.00" cy="1188.77" r="1.61" /></g>
<rect data-threshold-type="door" x="1123.52" y="1349.76" width="8.96" height="4.48" fill="#ffffff" stroke="#5c92ab" stroke-width="1.52" />
<g data-threshold-type="locked" stroke="#5c92ab" fill="none" stroke-width="1.52"><rect x="323.52" y="1061.76" width="8.96" height="4.48" fill="#ffffff" /><circle cx="328.00" cy="1060.77" r="1.61" /></g>
<rect data-threshold-type="door" x="1155.52" y="565.76" width="8.96" height="4.48" fill="#ffffff" stroke="#5c92ab" stroke-width="1.52" />
<rect data-threshold-type="door" x="883.52" y="1061.76" width="8.96" height="4.48" fill="#ffffff" stroke="#5c92ab" stroke-width="1.52" />
<rect data-threshold-type="door" x="659.52" y="181.76" width="8.96" height="4.48" fill="#ffffff" stroke="#5c92ab" stroke-width="1.52" />
<rect data-threshold-type="door" x="547.52" y="629.76" width="8.96" height="4.48" fill="#ffffff" stroke="#5c92ab" stroke-width="1.52" />
<rect data-threshold-type="door" x="83.52" y="421.76" width="8.96" height="4.48" fill="#ffffff" stroke="#5c92ab" stroke-width="1.52" />
<g data-threshold-type="locked" stroke="#5c92ab" fill="none" stroke-width="1.52"><rect x="1315.52" y="357.76" width="8.96" height="4.48" fill="#ffffff" /><circle cx="1320.00" cy="356.77" r="1.61" /></g>
<rect data-threshold-type="door" x="99.52" y="1237.76" width="8.96" height="4.48" fill="#ffffff" stroke="#5c92ab" stroke-width="1.52" />
<rect data-threshold-type="door" x="659.52" y="901.76" width="8.96" height="4.48" fill="#ffffff" stroke="#5c92ab" stroke-width="1.52" />
<rect data-threshold-type="door" x="1059.52" y="1109.76" width="8.96" height="4.48" fill="#ffffff" stroke="#5c92ab" stroke-width="1.52" />
<rect data-threshold-type="door" x="99.52" y="181.76" width="8.96" height="4.48" fill="#ffffff" stroke="#5c92ab" stroke-width="1.52" />
<rect data-threshold-type="door" x="259.52" y="501.76" width="8.96" height="4.48" fill="#ffffff" stroke="#5c92ab" stroke-width="1.52" />
<rect data-threshold-type="door" x="1315.52" y="1285.76" width="8.96" height="4.48" fill="#ffffff" stroke="#5c92ab" stroke-width="1.52" />
<rect data-threshold-type="door" x="1267.52" y="389.76" width="8.96" height="4.48" fill="#ffffff" stroke="#5c92ab" stroke-width="1.52" />
<g data-threshold-type="locked" stroke="#5c92ab" fill="none" stroke-width="1.52"><rect x="1331.52" y="1205.76" width="8.96" height="4.48" fill="#ffffff" /><circle cx="1336.00" cy="1204.77" r="1.61" /></g>
<rect data-threshold-type="door" x="803.52" y="1269.76" width="8.96" height="4.48" fill="#ffffff" stroke="#5c92ab" stroke-width="1.52" />
<rect data-threshold-type="door" x="419.52" y="997.76" width="8.96" height="4.48" fill="#ffffff" stroke="#5c92ab" stroke-width="1.52" />
<rect data-threshold-type="door" x="979.52" y="373.76" width="8.96" height="4.48" fill="#ffffff" stroke="#5c92ab" stroke-width="1.52" />
<g data-threshold-type="secret"><line x1="211.52" y1="616.00" x2="220.48" y2="616.00" stroke="#5c92ab" stroke-width="1.31" stroke-dasharray="1.31 1.31" /><text x="221.56" y="615.10" font-size="5.44" fill="#5c92ab" font-family="Courier New, monospace" font-weight="700">S</text></g>
  </g>
  <g class="labels">
<text x="1320.00" y="841.92" text-anchor="middle">1</text>
<text x="1096.00" y="313.92" text-anchor="middle">2</text>
<text x="1336.00" y="633.92" text-anchor="middle">3</text>
<text x="696.00" y="377.92" text-anchor="middle">4</text>
<text x="936.00" y="185.92" text-anchor="middle">5</text>
<text x="808.00" y="713.92" text-anchor="middle">6</text>
<text x="568.00" y="1257.92" text-anchor="middle">7</text>
<text x="1048.00" y="1353.92" text-anchor="middle">8</text>
<text x="424.00" y="1065.92" text-anchor="middle">9</text>
<text x="1176.00" y="569.92" text-anchor="middle">10</text>
<text x="808.00" y="1049.92" text-anchor="middle">11</text>
<text x="760.00" y="201.92" text-anchor="middle">12</text>
<text x="504.00" y="697.92" text-anchor="middle">13</text>
<text x="72.00" y="409.92" text-anchor="middle">14</text>
<text x="1320.00" y="281.92" text-anchor="middle">15</text>
<text x="104.00" y="1337.92" text-anchor="middle">16</text>
<text x="664.00" y="857.92" text-anchor="middle">17</text>
<text x="1128.00" y="1209.92" text-anchor="middle">18</text>
<text x="136.00" y="137.92" text-anchor="middle">19</text>
<text x="296.00" y="505.92" text-anchor="middle">20</text>
<text x="1336.00" y="1353.92" text-anchor="middle">21</text>
<text x="1224.00" y="409.92" text-anchor="middle">22</text>
<text x="1368.00" y="1129.92" text-anchor="middle">23</text>
<text x="760.00" y="1353.92" text-anchor="middle">24</text>
<text x="424.00" y="953.92" text-anchor="middle">25</text>
<text x="936.00" y="361.92" text-anchor="middle">26</text>
<text x="216.00" y="649.92" text-anchor="middle">27</text>
  </g>
</svg>