<?xml version="1.0" encoding="UTF-8"?>
<svg xmlns="http://www.w3.org/2000/svg" width="1504" height="1536" viewBox="0 0 1504.00 1536.00" role="img" aria-label="MapIR render: Learned Generated Map 3">
  <defs>
    <style>
      .grid { stroke: #d7e7ef; stroke-width: 0.64; opacity: 0.72; }
      .walls { stroke: #6fa8c1; stroke-width: 1.92; fill: none; stroke-linecap: square; }
      .thresholds { fill: none; stroke-linecap: round; }
      .features { stroke: #5c92ab; fill: none; stroke-width: 1.60; stroke-linecap: round; stroke-linejoin: round; }
      .labels { fill: #5c92ab; font-size: 7.20px; font-family: "Courier New", monospace; font-weight: 600; }
    </style>
  </defs>
  <rect x="0" y="0" width="1504.00" height="1536.00" fill="#5d9fbc" />
  <g class="floors">
<rect x="1152.00" y="64.00" width="64.00" height="144.00" fill="#fbfdfe" />
<rect x="528.00" y="80.00" width="144.00" height="80.00" fill="#fbfdfe" />
<rect x="976.00" y="96.00" width="16.00" height="1216.00" fill="#fbfdfe" />
<rect x="160.00" y="112.00" width="368.00" height="16.00" fill="#fbfdfe" />
<rect x="928.00" y="112.00" width="48.00" height="112.00" fill="#fbfdfe" />
<rect x="992.00" y="112.00" width="48.00" height="112.00" fill="#fbfdfe" />
<rect x="160.00" y="128.00" width="16.00" height="608.00" fill="#fbfdfe" />
<rect x="480.00" y="128.00" width="48.00" height="16.00" fill="#fbfdfe" />
<rect x="672.00" y="128.00" width="256.00" height="16.00" fill="#fbfdfe" />
<rect x="1040.00" y="128.00" width="112.00" height="16.00" fill="#fbfdfe" />
<rect x="448.00" y="144.00" width="48.00" height="16.00" fill="#fbfdfe" />
<rect x="912.00" y="144.00" width="16.00" height="64.00" fill="#fbfdfe" />
<rect x="1040.00" y="144.00" width="16.00" height="64.00" fill="#fbfdfe" />
<rect x="448.00" y="160.00" width="16.00" height="32.00" fill="#fbfdfe" />
<rect x="592.00" y="160.00" width="16.00" height="1296.00" fill="#fbfdfe" />
<rect x="896.00" y="160.00" width="16.00" height="16.00" fill="#fbfdfe" />
<rect x="1056.00" y="160.00" width="16.00" height="16.00" fill="#fbfdfe" />
<rect x="416.00" y="176.00" width="32.00" height="16.00" fill="#fbfdfe" />
<rect x="416.00" y="192.00" width="16.00" height="32.00" fill="#fbfdfe" />
<rect x="400.00" y="208.00" width="16.00" height="32.00" fill="#fbfdfe" />
<rect x="1184.00" y="208.00" width="16.00" height="448.00" fill="#fbfdfe" />
<rect x="384.00" y="224.00" width="16.00" height="112.00" fill="#fbfdfe" />
<rect x="352.00" y="240.00" width="32.00" height="96.00" fill="#fbfdfe" />
<rect x="336.00" y="256.00" width="16.00" height="48.00" fill="#fbfdfe" />
<rect x="400.00" y="256.00" width="96.00" height="80.00" fill="#fbfdfe" />
<rect x="1136.00" y="256.00" width="48.00" height="144.00" fill="#fbfdfe" />
<rect x="1200.00" y="256.00" width="16.00" height="144.00" fill="#fbfdfe" />
<rect x="192.00" y="288.00" width="144.00" height="16.00" fill="#fbfdfe" />
<rect x="496.00" y="288.00" width="96.00" height="16.00" fill="#fbfdfe" />
<rect x="608.00" y="288.00" width="368.00" height="16.00" fill="#fbfdfe" />
<rect x="992.00" y="288.00" width="96.00" height="16.00" fill="#fbfdfe" />
<rect x="192.00" y="304.00" width="16.00" height="976.00" fill="#fbfdfe" />
<rect x="288.00" y="304.00" width="48.00" height="32.00" fill="#fbfdfe" />
<rect x="1072.00" y="304.00" width="16.00" height="800.00" fill="#fbfdfe" />
<rect x="272.00" y="320.00" width="16.00" height="48.00" fill="#fbfdfe" />
<rect x="336.00" y="320.00" width="16.00" height="16.00" fill="#fbfdfe" />
<rect x="496.00" y="320.00" width="96.00" height="16.00" fill="#fbfdfe" />
<rect x="608.00" y="320.00" width="368.00" height="16.00" fill="#fbfdfe" />
<rect x="992.00" y="320.00" width="80.00" height="16.00" fill="#fbfdfe" />
<rect x="1088.00" y="320.00" width="48.00" height="16.00" fill="#fbfdfe" />
<rect x="256.00" y="336.00" width="16.00" height="32.00" fill="#fbfdfe" />
<rect x="288.00" y="336.00" width="16.00" height="16.00" fill="#fbfdfe" />
<rect x="416.00" y="336.00" width="16.00" height="112.00" fill="#fbfdfe" />
<rect x="176.00" y="352.00" width="16.00" height="144.00" fill="#fbfdfe" />
<rect x="208.00" y="352.00" width="48.00" height="128.00" fill="#fbfdfe" />
<rect x="144.00" y="368.00" width="16.00" height="112.00" fill="#fbfdfe" />
<rect x="1232.00" y="368.00" width="160.00" height="128.00" fill="#fbfdfe" />
<rect x="1168.00" y="400.00" width="16.00" height="480.00" fill="#fbfdfe" />
<rect x="128.00" y="416.00" width="16.00" height="752.00" fill="#fbfdfe" />
<rect x="256.00" y="416.00" width="16.00" height="32.00" fill="#fbfdfe" />
<rect x="272.00" y="432.00" width="144.00" height="16.00" fill="#fbfdfe" />
<rect x="432.00" y="432.00" width="160.00" height="16.00" fill="#fbfdfe" />
<rect x="608.00" y="432.00" width="368.00" height="16.00" fill="#fbfdfe" />
<rect x="992.00" y="432.00" width="80.00" height="16.00" fill="#fbfdfe" />
<rect x="1088.00" y="432.00" width="80.00" height="16.00" fill="#fbfdfe" />
<rect x="1200.00" y="432.00" width="32.00" height="16.00" fill="#fbfdfe" />
<rect x="208.00" y="480.00" width="32.00" height="16.00" fill="#fbfdfe" />
<rect x="784.00" y="496.00" width="128.00" height="112.00" fill="#fbfdfe" />
<rect x="1312.00" y="496.00" width="16.00" height="960.00" fill="#fbfdfe" />
<rect x="544.00" y="512.00" width="48.00" height="112.00" fill="#fbfdfe" />
<rect x="608.00" y="512.00" width="16.00" height="112.00" fill="#fbfdfe" />
<rect x="768.00" y="512.00" width="16.00" height="80.00" fill="#fbfdfe" />
<rect x="912.00" y="512.00" width="16.00" height="80.00" fill="#fbfdfe" />
<rect x="1264.00" y="512.00" width="48.00" height="128.00" fill="#fbfdfe" />
<rect x="1328.00" y="512.00" width="16.00" height="128.00" fill="#fbfdfe" />
<rect x="624.00" y="544.00" width="144.00" height="48.00" fill="#fbfdfe" />
<rect x="928.00" y="544.00" width="48.00" height="48.00" fill="#fbfdfe" />
<rect x="992.00" y="544.00" width="80.00" height="16.00" fill="#fbfdfe" />
<rect x="1088.00" y="544.00" width="80.00" height="16.00" fill="#fbfdfe" />
<rect x="1200.00" y="544.00" width="64.00" height="16.00" fill="#fbfdfe" />
<rect x="144.00" y="560.00" width="16.00" height="80.00" fill="#fbfdfe" />
<rect x="176.00" y="560.00" width="16.00" height="80.00" fill="#fbfdfe" />
<rect x="208.00" y="560.00" width="64.00" height="80.00" fill="#fbfdfe" />
<rect x="432.00" y="576.00" width="112.00" height="16.00" fill="#fbfdfe" />
<rect x="992.00" y="576.00" width="80.00" height="16.00" fill="#fbfdfe" />
<rect x="1088.00" y="576.00" width="80.00" height="16.00" fill="#fbfdfe" />
<rect x="1200.00" y="576.00" width="64.00" height="16.00" fill="#fbfdfe" />
<rect x="416.00" y="592.00" width="96.00" height="112.00" fill="#fbfdfe" />
<rect x="656.00" y="592.00" width="16.00" height="32.00" fill="#fbfdfe" />
<rect x="400.00" y="608.00" width="16.00" height="64.00" fill="#fbfdfe" />
<rect x="512.00" y="608.00" width="16.00" height="96.00" fill="#fbfdfe" />
<rect x="672.00" y="608.00" width="16.00" height="48.00" fill="#fbfdfe" />
<rect x="560.00" y="624.00" width="32.00" height="656.00" fill="#fbfdfe" />
<rect x="688.00" y="624.00" width="32.00" height="32.00" fill="#fbfdfe" />
<rect x="208.00" y="640.00" width="16.00" height="640.00" fill="#fbfdfe" />
<rect x="528.00" y="640.00" width="32.00" height="16.00" fill="#fbfdfe" />
<rect x="608.00" y="640.00" width="64.00" height="16.00" fill="#fbfdfe" />
<rect x="720.00" y="640.00" width="256.00" height="16.00" fill="#fbfdfe" />
<rect x="992.00" y="640.00" width="80.00" height="16.00" fill="#fbfdfe" />
<rect x="1088.00" y="640.00" width="80.00" height="16.00" fill="#fbfdfe" />
<rect x="1296.00" y="640.00" width="16.00" height="432.00" fill="#fbfdfe" />
<rect x="112.00" y="656.00" width="16.00" height="80.00" fill="#fbfdfe" />
<rect x="144.00" y="656.00" width="16.00" height="80.00" fill="#fbfdfe" />
<rect x="176.00" y="656.00" width="16.00" height="80.00" fill="#fbfdfe" />
<rect x="720.00" y="656.00" width="32.00" height="16.00" fill="#fbfdfe" />
<rect x="816.00" y="656.00" width="80.00" height="112.00" fill="#fbfdfe" />
<rect x="912.00" y="656.00" width="32.00" height="16.00" fill="#fbfdfe" />
<rect x="736.00" y="672.00" width="32.00" height="16.00" fill="#fbfdfe" />
<rect x="800.00" y="672.00" width="16.00" height="80.00" fill="#fbfdfe" />
<rect x="896.00" y="672.00" width="16.00" height="96.00" fill="#fbfdfe" />
<rect x="928.00" y="672.00" width="32.00" height="16.00" fill="#fbfdfe" />
<rect x="224.00" y="688.00" width="192.00" height="16.00" fill="#fbfdfe" />
<rect x="528.00" y="688.00" width="32.00" height="32.00" fill="#fbfdfe" />
<rect x="608.00" y="688.00" width="112.00" height="16.00" fill="#fbfdfe" />
<rect x="752.00" y="688.00" width="32.00" height="16.00" fill="#fbfdfe" />
<rect x="944.00" y="688.00" width="16.00" height="32.00" fill="#fbfdfe" />
<rect x="448.00" y="704.00" width="32.00" height="176.00" fill="#fbfdfe" />
<rect x="704.00" y="704.00" width="16.00" height="800.00" fill="#fbfdfe" />
<rect x="768.00" y="704.00" width="16.00" height="32.00" fill="#fbfdfe" />
<rect x="960.00" y="704.00" width="16.00" height="16.00" fill="#fbfdfe" />
<rect x="784.00" y="720.00" width="16.00" height="32.00" fill="#fbfdfe" />
<rect x="992.00" y="736.00" width="32.00" height="16.00" fill="#fbfdfe" />
<rect x="608.00" y="752.00" width="16.00" height="48.00" fill="#fbfdfe" />
<rect x="912.00" y="752.00" width="16.00" height="48.00" fill="#fbfdfe" />
<rect x="1008.00" y="752.00" width="64.00" height="16.00" fill="#fbfdfe" />
<rect x="1088.00" y="752.00" width="16.00" height="144.00" fill="#fbfdfe" />
<rect x="832.00" y="768.00" width="32.00" height="16.00" fill="#fbfdfe" />
<rect x="1024.00" y="768.00" width="48.00" height="32.00" fill="#fbfdfe" />
<rect x="624.00" y="784.00" width="32.00" height="16.00" fill="#fbfdfe" />
<rect x="848.00" y="784.00" width="32.00" height="16.00" fill="#fbfdfe" />
<rect x="928.00" y="784.00" width="32.00" height="16.00" fill="#fbfdfe" />
<rect x="1328.00" y="784.00" width="80.00" height="144.00" fill="#fbfdfe" />
<rect x="640.00" y="800.00" width="16.00" height="32.00" fill="#fbfdfe" />
<rect x="864.00" y="800.00" width="32.00" height="16.00" fill="#fbfdfe" />
<rect x="944.00" y="800.00" width="32.00" height="16.00" fill="#fbfdfe" />
<rect x="1040.00" y="800.00" width="32.00" height="96.00" fill="#fbfdfe" />
<rect x="96.00" y="816.00" width="32.00" height="112.00" fill="#fbfdfe" />
<rect x="144.00" y="816.00" width="48.00" height="112.00" fill="#fbfdfe" />
<rect x="224.00" y="816.00" width="16.00" height="112.00" fill="#fbfdfe" />
<rect x="656.00" y="816.00" width="32.00" height="16.00" fill="#fbfdfe" />
<rect x="880.00" y="816.00" width="32.00" height="16.00" fill="#fbfdfe" />
<rect x="960.00" y="816.00" width="16.00" height="64.00" fill="#fbfdfe" />
<rect x="80.00" y="832.00" width="16.00" height="80.00" fill="#fbfdfe" />
<rect x="240.00" y="832.00" width="16.00" height="80.00" fill="#fbfdfe" />
<rect x="672.00" y="832.00" width="32.00" height="48.00" fill="#fbfdfe" />
<rect x="896.00" y="832.00" width="16.00" height="48.00" fill="#fbfdfe" />
<rect x="480.00" y="848.00" width="80.00" height="32.00" fill="#fbfdfe" />
<rect x="608.00" y="848.00" width="64.00" height="32.00" fill="#fbfdfe" />
<rect x="720.00" y="848.00" width="176.00" height="32.00" fill="#fbfdfe" />
<rect x="912.00" y="848.00" width="48.00" height="32.00" fill="#fbfdfe" />
<rect x="992.00" y="848.00" width="48.00" height="32.00" fill="#fbfdfe" />
<rect x="1104.00" y="848.00" width="64.00" height="32.00" fill="#fbfdfe" />
<rect x="1184.00" y="848.00" width="112.00" height="32.00" fill="#fbfdfe" />
<rect x="256.00" y="864.00" width="192.00" height="16.00" fill="#fbfdfe" />
<rect x="448.00" y="880.00" width="16.00" height="192.00" fill="#fbfdfe" />
<rect x="720.00" y="880.00" width="32.00" height="16.00" fill="#fbfdfe" />
<rect x="928.00" y="880.00" width="32.00" height="16.00" fill="#fbfdfe" />
<rect x="1008.00" y="880.00" width="32.00" height="16.00" fill="#fbfdfe" />
<rect x="400.00" y="896.00" width="48.00" height="176.00" fill="#fbfdfe" />
<rect x="464.00" y="896.00" width="32.00" height="176.00" fill="#fbfdfe" />
<rect x="736.00" y="896.00" width="32.00" height="16.00" fill="#fbfdfe" />
<rect x="944.00" y="896.00" width="32.00" height="16.00" fill="#fbfdfe" />
<rect x="1024.00" y="896.00" width="32.00" height="16.00" fill="#fbfdfe" />
<rect x="512.00" y="912.00" width="48.00" height="160.00" fill="#fbfdfe" />
<rect x="608.00" y="912.00" width="80.00" height="160.00" fill="#fbfdfe" />
<rect x="752.00" y="912.00" width="16.00" height="32.00" fill="#fbfdfe" />
<rect x="960.00" y="912.00" width="16.00" height="16.00" fill="#fbfdfe" />
<rect x="1040.00" y="912.00" width="16.00" height="480.00" fill="#fbfdfe" />
<rect x="160.00" y="928.00" width="16.00" height="352.00" fill="#fbfdfe" />
<rect x="768.00" y="928.00" width="32.00" height="16.00" fill="#fbfdfe" />
<rect x="992.00" y="928.00" width="48.00" height="176.00" fill="#fbfdfe" />
<rect x="1056.00" y="928.00" width="16.00" height="176.00" fill="#fbfdfe" />
<rect x="1088.00" y="928.00" width="80.00" height="176.00" fill="#fbfdfe" />
<rect x="1280.00" y="928.00" width="16.00" height="48.00" fill="#fbfdfe" />
<rect x="1360.00" y="928.00" width="16.00" height="512.00" fill="#fbfdfe" />
<rect x="784.00" y="944.00" width="16.00" height="32.00" fill="#fbfdfe" />
<rect x="800.00" y="960.00" width="16.00" height="32.00" fill="#fbfdfe" />
<rect x="1248.00" y="960.00" width="32.00" height="16.00" fill="#fbfdfe" />
<rect x="176.00" y="976.00" width="16.00" height="176.00" fill="#fbfdfe" />
<rect x="224.00" y="976.00" width="32.00" height="176.00" fill="#fbfdfe" />
<rect x="496.00" y="976.00" width="16.00" height="16.00" fill="#fbfdfe" />
<rect x="816.00" y="976.00" width="32.00" height="16.00" fill="#fbfdfe" />
<rect x="1248.00" y="976.00" width="16.00" height="48.00" fill="#fbfdfe" />
<rect x="1328.00" y="976.00" width="32.00" height="128.00" fill="#fbfdfe" />
<rect x="1376.00" y="976.00" width="16.00" height="128.00" fill="#fbfdfe" />
<rect x="96.00" y="992.00" width="32.00" height="176.00" fill="#fbfdfe" />
<rect x="144.00" y="992.00" width="16.00" height="176.00" fill="#fbfdfe" />
<rect x="832.00" y="992.00" width="16.00" height="96.00" fill="#fbfdfe" />
<rect x="1232.00" y="992.00" width="16.00" height="32.00" fill="#fbfdfe" />
<rect x="848.00" y="1008.00" width="32.00" height="80.00" fill="#fbfdfe" />
<rect x="1168.00" y="1008.00" width="64.00" height="16.00" fill="#fbfdfe" />
<rect x="1264.00" y="1008.00" width="32.00" height="16.00" fill="#fbfdfe" />
<rect x="880.00" y="1024.00" width="96.00" height="64.00" fill="#fbfdfe" />
<rect x="1184.00" y="1024.00" width="48.00" height="16.00" fill="#fbfdfe" />
<rect x="1184.00" y="1040.00" width="16.00" height="32.00" fill="#fbfdfe" />
<rect x="256.00" y="1056.00" width="144.00" height="16.00" fill="#fbfdfe" />
<rect x="496.00" y="1056.00" width="16.00" height="16.00" fill="#fbfdfe" />
<rect x="688.00" y="1056.00" width="16.00" height="16.00" fill="#fbfdfe" />
<rect x="720.00" y="1056.00" width="112.00" height="16.00" fill="#fbfdfe" />
<rect x="1168.00" y="1056.00" width="16.00" height="16.00" fill="#fbfdfe" />
<rect x="1200.00" y="1056.00" width="96.00" height="16.00" fill="#fbfdfe" />
<rect x="528.00" y="1072.00" width="32.00" height="208.00" fill="#fbfdfe" />
<rect x="1120.00" y="1104.00" width="16.00" height="32.00" fill="#fbfdfe" />
<rect x="1104.00" y="1120.00" width="16.00" height="48.00" fill="#fbfdfe" />
<rect x="1072.00" y="1136.00" width="32.00" height="32.00" fill="#fbfdfe" />
<rect x="336.00" y="1152.00" width="192.00" height="16.00" fill="#fbfdfe" />
<rect x="608.00" y="1152.00" width="96.00" height="16.00" fill="#fbfdfe" />
<rect x="720.00" y="1152.00" width="256.00" height="16.00" fill="#fbfdfe" />
<rect x="992.00" y="1152.00" width="48.00" height="16.00" fill="#fbfdfe" />
<rect x="1056.00" y="1152.00" width="16.00" height="48.00" fill="#fbfdfe" />
<rect x="1120.00" y="1152.00" width="144.00" height="16.00" fill="#fbfdfe" />
<rect x="336.00" y="1168.00" width="16.00" height="112.00" fill="#fbfdfe" />
<rect x="1248.00" y="1168.00" width="16.00" height="304.00" fill="#fbfdfe" />
<rect x="1024.00" y="1184.00" width="16.00" height="128.00" fill="#fbfdfe" />
<rect x="128.00" y="1200.00" width="32.00" height="80.00" fill="#fbfdfe" />
<rect x="176.00" y="1200.00" width="16.00" height="80.00" fill="#fbfdfe" />
<rect x="224.00" y="1200.00" width="48.00" height="80.00" fill="#fbfdfe" />
<rect x="288.00" y="1200.00" width="48.00" height="80.00" fill="#fbfdfe" />
<rect x="352.00" y="1200.00" width="32.00" height="80.00" fill="#fbfdfe" />
<rect x="640.00" y="1200.00" width="64.00" height="128.00" fill="#fbfdfe" />
<rect x="720.00" y="1200.00" width="48.00" height="128.00" fill="#fbfdfe" />
<rect x="928.00" y="1200.00" width="48.00" height="112.00" fill="#fbfdfe" />
<rect x="992.00" y="1200.00" width="32.00" height="112.00" fill="#fbfdfe" />
<rect x="912.00" y="1216.00" width="16.00" height="80.00" fill="#fbfdfe" />
<rect x="272.00" y="1232.00" width="16.00" height="48.00" fill="#fbfdfe" />
<rect x="896.00" y="1232.00" width="16.00" height="48.00" fill="#fbfdfe" />
<rect x="1056.00" y="1232.00" width="16.00" height="48.00" fill="#fbfdfe" />
<rect x="384.00" y="1248.00" width="144.00" height="32.00" fill="#fbfdfe" />
<rect x="608.00" y="1248.00" width="32.00" height="32.00" fill="#fbfdfe" />
<rect x="768.00" y="1248.00" width="128.00" height="16.00" fill="#fbfdfe" />
<rect x="992.00" y="1328.00" width="48.00" height="64.00" fill="#fbfdfe" />
<rect x="1056.00" y="1328.00" width="32.00" height="64.00" fill="#fbfdfe" />
<rect x="656.00" y="1360.00" width="48.00" height="144.00" fill="#fbfdfe" />
<rect x="720.00" y="1360.00" width="48.00" height="144.00" fill="#fbfdfe" />
<rect x="1200.00" y="1360.00" width="48.00" height="112.00" fill="#fbfdfe" />
<rect x="1264.00" y="1360.00" width="32.00" height="112.00" fill="#fbfdfe" />
<rect x="128.00" y="1392.00" width="144.00" height="96.00" fill="#fbfdfe" />
<rect x="768.00" y="1424.00" width="432.00" height="32.00" fill="#fbfdfe" />
<rect x="1296.00" y="1424.00" width="16.00" height="32.00" fill="#fbfdfe" />
<rect x="1328.00" y="1424.00" width="32.00" height="16.00" fill="#fbfdfe" />
<rect x="272.00" y="1440.00" width="320.00" height="16.00" fill="#fbfdfe" />
<rect x="608.00" y="1440.00" width="48.00" height="16.00" fill="#fbfdfe" />
  </g>
  <g class="grid">
<line x1="0.00" y1="0" x2="0.00" y2="1536.00" />
<line x1="16.00" y1="0" x2="16.00" y2="1536.00" />
<line x1="32.00" y1="0" x2="32.00" y2="1536.00" />
<line x1="48.00" y1="0" x2="48.00" y2="1536.00" />
<line x1="64.00" y1="0" x2="64.00" y2="1536.00" />
<line x1="80.00" y1="0" x2="80.00" y2="1536.00" />
<line x1="96.00" y1="0" x2="96.00" y2="1536.00" />
<line x1="112.00" y1="0" x2="112.00" y2="1536.00" />
<line x1="128.00" y1="0" x2="128.00" y2="1536.00" />
<line x1="144.00" y1="0" x2="144.00" y2="1536.00" />
<line x1="160.00" y1="0" x2="160.00" y2="1536.00" />
<line x1="176.00" y1="0" x2="176.00" y2="1536.00" />
<line x1="192.00" y1="0" x2="192.00" y2="1536.00" />
<line x1="208.00" y1="0" x2="208.00" y2="1536.00" />
<line x1="224.00" y1="0" x2="224.00" y2="1536.00" />
<line x1="240.00" y1="0" x2="240.00" y2="1536.00" />
<line x1="256.00" y1="0" x2="256.00" y2="1536.00" />
<line x1="272.00" y1="0" x2="272.00" y2="1536.00" />
<line x1="288.00" y1="0" x2="288.00" y2="1536.00" />
<line x1="304.00" y1="0" x2="304.00" y2="1536.00" />
<line x1="320.00" y1="0" x2="320.00" y2="1536.00" />
<line x1="336.00" y1="0" x2="336.00" y2="1536.00" />
<line x1="352.00" y1="0" x2="352.00" y2="1536.00" />
<line x1="368.00" y1="0" x2="368.00" y2="1536.00" />
<line x1="384.00" y1="0" x2="384.00" y2="1536.00" />
<line x1="400.00" y1="0" x2="400.00" y2="1536.00" />
<line x1="416.00" y1="0" x2="416.00" y2="1536.00" />
<line x1="432.00" y1="0" x2="432.00" y2="1536.00" />
<line x1="448.00" y1="0" x2="448.00" y2="1536.00" />
<line x1="464.00" y1="0" x2="464.00" y2="1536.00" />
<line x1="480.00" y1="0" x2="480.00" y2="1536.00" />
<line x1="496.00" y1="0" x2="496.00" y2="1536.00" />
<line x1="512.00" y1="0" x2="512.00" y2="1536.00" />
<line x1="528.00" y1="0" x2="528.00" y2="1536.00" />
<line x1="544.00" y1="0" x2="544.00" y2="1536.00" />
<line x1="560.00" y1="0" x2="560.00" y2="1536.00" />
<line x1="576.00" y1="0" x2="576.00" y2="1536.00" />
<line x1="592.00" y1="0" x2="592.00" y2="1536.00" />
<line x1="608.00" y1="0" x2="608.00" y2="1536.00" />
<line x1="624.00" y1="0" x2="624.00" y2="1536.00" />
<line x1="640.00" y1="0" x2="640.00" y2="1536.00" />
<line x1="656.00" y1="0" x2="656.00" y2="1536.00" />
<line x1="672.00" y1="0" x2="672.00" y2="1536.00" />
<line x1="688.00" y1="0" x2="688.00" y2="1536.00" />
<line x1="704.00" y1="0" x2="704.00" y2="1536.00" />
<line x1="720.00" y1="0" x2="720.00" y2="1536.00" />
<line x1="736.00" y1="0" x2="736.00" y2="1536.00" />
<line x1="752.00" y1="0" x2="752.00" y2="1536.00" />
<line x1="768.00" y1="0" x2="768.00" y2="1536.00" />
<line x1="784.00" y1="0" x2="784.00" y2="1536.00" />
<line x1="800.00" y1="0" x2="800.00" y2="1536.00" />
<line x1="816.00" y1="0" x2="816.00" y2="1536.00" />
<line x1="832.00" y1="0" x2="832.00" y2="1536.00" />
<line x1="848.00" y1="0" x2="848.00" y2="1536.00" />
<line x1="864.00" y1="0" x2="864.00" y2="1536.00" />
<line x1="880.00" y1="0" x2="880.00" y2="1536.00" />
<line x1="896.00" y1="0" x2="896.00" y2="1536.00" />
<line x1="912.00" y1="0" x2="912.00" y2="1536.00" />
<line x1="928.00" y1="0" x2="928.00" y2="1536.00" />
<line x1="944.00" y1="0" x2="944.00" y2="1536.00" />
<line x1="960.00" y1="0" x2="960.00" y2="1536.00" />
<line x1="976.00" y1="0" x2="976.00" y2="1536.00" />
<line x1="992.00" y1="0" x2="992.00" y2="1536.00" />
<line x1="1008.00" y1="0" x2="1008.00" y2="1536.00" />
<line x1="1024.00" y1="0" x2="1024.00" y2="1536.00" />
<line x1="1040.00" y1="0" x2="1040.00" y2="1536.00" />
<line x1="1056.00" y1="0" x2="1056.00" y2="1536.00" />
<line x1="1072.00" y1="0" x2="1072.00" y2="1536.00" />
<line x1="1088.00" y1="0" x2="1088.00" y2="1536.00" />
<line x1="1104.00" y1="0" x2="1104.00" y2="1536.00" />
<line x1="1120.00" y1="0" x2="1120.00" y2="1536.00" />
<line x1="1136.00" y1="0" x2="1136.00" y2="1536.00" />
<line x1="1152.00" y1="0" x2="1152.00" y2="1536.00" />
<line x1="1168.00" y1="0" x2="1168.00" y2="1536.00" />
<line x1="1184.00" y1="0" x2="1184.00" y2="1536.00" />
<line x1="1200.00" y1="0" x2="1200.00" y2="1536.00" />
<line x1="1216.00" y1="0" x2="1216.00" y2="1536.00" />
<line x1="1232.00" y1="0" x2="1232.00" y2="1536.00" />
<line x1="1248.00" y1="0" x2="1248.00" y2="1536.00" />
<line x1="1264.00" y1="0" x2="1264.00" y2="1536.00" />
<line x1="1280.00" y1="0" x2="1280.00" y2="1536.00" />
<line x1="1296.00" y1="0" x2="1296.00" y2="1536.00" />
<line x1="1312.00" y1="0" x2="1312.00" y2="1536.00" />
<line x1="1328.00" y1="0" x2="1328.00" y2="1536.00" />
<line x1="1344.00" y1="0" x2="1344.00" y2="1536.00" />
<line x1="1360.00" y1="0" x2="1360.00" y2="1536.00" />
<line x1="1376.00" y1="0" x2="1376.00" y2="1536.00" />
<line x1="1392.00" y1="0" x2="1392.00" y2="1536.00" />
<line x1="1408.00" y1="0" x2="1408.00" y2="1536.00" />
<line x1="1424.00" y1="0" x2="1424.00" y2="1536.00" />
<line x1="1440.00" y1="0" x2="1440.00" y2="1536.00" />
<line x1="1456.00" y1="0" x2="1456.00" y2="1536.00" />
<line x1="1472.00" y1="0" x2="1472.00" y2="1536.00" />
<line x1="1488.00" y1="0" x2="1488.00" y2="1536.00" />
<line x1="1504.00" y1="0" x2="1504.00" y2="1536.00" />
<line x1="0" y1="0.00" x2="1504.00" y2="0.00" />
<line x1="0" y1="16.00" x2="1504.00" y2="16.00" />
<line x1="0" y1="32.00" x2="1504.00" y2="32.00" />
<line x1="0" y1="48.00" x2="1504.00" y2="48.00" />
<line x1="0" y1="64.00" x2="1504.00" y2="64.00" />
<line x1="0" y1="80.00" x2="1504.00" y2="80.00" />
<line x1="0" y1="96.00" x2="1504.00" y2="96.00" />
<line x1="0" y1="112.00" x2="1504.00" y2="112.00" />
<line x1="0" y1="128.00" x2="1504.00" y2="128.00" />
<line x1="0" y1="144.00" x2="1504.00" y2="144.00" />
<line x1="0" y1="160.00" x2="1504.00" y2="160.00" />
<line x1="0" y1="176.00" x2="1504.00" y2="176.00" />
<line x1="0" y1="192.00" x2="1504.00" y2="192.00" />
<line x1="0" y1="208.00" x2="1504.00" y2="208.00" />
<line x1="0" y1="224.00" x2="1504.00" y2="224.00" />
<line x1="0" y1="240.00" x2="1504.00" y2="240.00" />
<line x1="0" y1="256.00" x2="1504.00" y2="256.00" />
<line x1="0" y1="272.00" x2="1504.00" y2="272.00" />
<line x1="0" y1="288.00" x2="1504.00" y2="288.00" />
<line x1="0" y1="304.00" x2="1504.00" y2="304.00" />
<line x1="0" y1="320.00" x2="1504.00" y2="320.00" />
<line x1="0" y1="336.00" x2="1504.00" y2="336.00" />
<line x1="0" y1="352.00" x2="1504.00" y2="352.00" />
<line x1="0" y1="368.00" x2="1504.00" y2="368.00" />
<line x1="0" y1="384.00" x2="1504.00" y2="384.00" />
<line x1="0" y1="400.00" x2="1504.00" y2="400.00" />
<line x1="0" y1="416.00" x2="1504.00" y2="416.00" />
<line x1="0" y1="432.00" x2="1504.00" y2="432.00" />
<line x1="0" y1="448.00" x2="1504.00" y2="448.00" />
<line x1="0" y1="464.00" x2="1504.00" y2="464.00" />
<line x1="0" y1="480.00" x2="1504.00" y2="480.00" />
<line x1="0" y1="496.00" x2="1504.00" y2="496.00" />
<line x1="0" y1="512.00" x2="1504.00" y2="512.00" />
<line x1="0" y1="528.00" x2="1504.00" y2="528.00" />
<line x1="0" y1="544.00" x2="1504.00" y2="544.00" />
<line x1="0" y1="560.00" x2="1504.00" y2="560.00" />
<line x1="0" y1="576.00" x2="1504.00" y2="576.00" />
<line x1="0" y1="592.00" x2="1504.00" y2="592.00" />
<line x1="0" y1="608.00" x2="1504.00" y2="608.00" />
<line x1="0" y1="624.00" x2="1504.00" y2="624.00" />
<line x1="0" y1="640.00" x2="1504.00" y2="640.00" />
<line x1="0" y1="656.00" x2="1504.00" y2="656.00" />
<line x1="0" y1="672.00" x2="1504.00" y2="672.00" />
<line x1="0" y1="688.00" x2="1504.00" y2="688.00" />
<line x1="0" y1="704.00" x2="1504.00" y2="704.00" />
<line x1="0" y1="720.00" x2="1504.00" y2="720.00" />
<line x1="0" y1="736.00" x2="1504.00" y2="736.00" />
<line x1="0" y1="752.00" x2="1504.00" y2="752.00" />
<line x1="0" y1="768.00" x2="1504.00" y2="768.00" />
<line x1="0" y1="784.00" x2="1504.00" y2="784.00" />
<line x1="0" y1="800.00" x2="1504.00" y2="800.00" />
<line x1="0" y1="816.00" x2="1504.00" y2="816.00" />
<line x1="0" y1="832.00" x2="1504.00" y2="832.00" />
<line x1="0" y1="848.00" x2="1504.00" y2="848.00" />
<line x1="0" y1="864.00" x2="1504.00" y2="864.00" />
<line x1="0" y1="880.00" x2="1504.00" y2="880.00" />
<line x1="0" y1="896.00" x2="1504.00" y2="896.00" />
<line x1="0" y1="912.00" x2="1504.00" y2="912.00" />
<line x1="0" y1="928.00" x2="1504.00" y2="928.00" />
<line x1="0" y1="944.00" x2="1504.00" y2="944.00" />
<line x1="0" y1="960.00" x2="1504.00" y2="960.00" />
<line x1="0" y1="976.00" x2="1504.00" y2="976.00" />
<line x1="0" y1="992.00" x2="1504.00" y2="992.00" />
<line x1="0" y1="1008.00" x2="1504.00" y2="1008.00" />
<line x1="0" y1="1024.00" x2="1504.00" y2="1024.00" />
<line x1="0" y1="1040.00" x2="1504.00" y2="1040.00" />
<line x1="0" y1="1056.00" x2="1504.00" y2="1056.00" />
<line x1="0" y1="1072.00" x2="1504.00" y2="1072.00" />
<line x1="0" y1="1088.00" x2="1504.00" y2="1088.00" />
<line x1="0" y1="1104.00" x2="1504.00" y2="1104.00" />
<line x1="0" y1="1120.00" x2="1504.00" y2="1120.00" />
<line x1="0" y1="1136.00" x2="1504.00" y2="1136.00" />
<line x1="0" y1="1152.00" x2="1504.00" y2="1152.00" />
<line x1="0" y1="1168.00" x2="1504.00" y2="1168.00" />
<line x1="0" y1="1184.00" x2="1504.00" y2="1184.00" />
<line x1="0" y1="1200.00" x2="1504.00" y2="1200.00" />
<line x1="0" y1="1216.00" x2="1504.00" y2="1216.00" />
<line x1="0" y1="1232.00" x2="1504.00" y2="1232.00" />
<line x1="0" y1="1248.00" x2="1504.00" y2="1248.00" />
<line x1="0" y1="1264.00" x2="1504.00" y2="1264.00" />
<line x1="0" y1="1280.00" x2="1504.00" y2="1280.00" />
<line x1="0" y1="1296.00" x2="1504.00" y2="1296.00" />
<line x1="0" y1="1312.00" x2="1504.00" y2="1312.00" />
<line x1="0" y1="1328.00" x2="1504.00" y2="1328.00" />
<line x1="0" y1="1344.00" x2="1504.00" y2="1344.00" />
<line x1="0" y1="1360.00" x2="1504.00" y2="1360.00" />
<line x1="0" y1="1376.00" x2="1504.00" y2="1376.00" />
<line x1="0" y1="1392.00" x2="1504.00" y2="1392.00" />
<line x1="0" y1="1408.00" x2="1504.00" y2="1408.00" />
<line x1="0" y1="1424.00" x2="1504.00" y2="1424.00" />
<line x1="0" y1="1440.00" x2="1504.00" y2="1440.00" />
<line x1="0" y1="1456.00" x2="1504.00" y2="1456.00" />
<line x1="0" y1="1472.00" x2="1504.00" y2="1472.00" />
<line x1="0" y1="1488.00" x2="1504.00" y2="1488.00" />
<line x1="0" y1="1504.00" x2="1504.00" y2="1504.00" />
<line x1="0" y1="1520.00" x2="1504.00" y2="1520.00" />
<line x1="0" y1="1536.00" x2="1504.00" y2="1536.00" />
  </g>
  <g class="walls">
<line x1="1152.00" y1="64.00" x2="1216.00" y2="64.00" />
<line x1="528.00" y1="80.00" x2="672.00" y2="80.00" />
<line x1="976.00" y1="96.00" x2="992.00" y2="96.00" />
<line x1="160.00" y1="112.00" x2="528.00" y2="112.00" />
<line x1="928.00" y1="112.00" x2="976.00" y2="112.00" />
<line x1="992.00" y1="112.00" x2="1040.00" y2="112.00" />
<line x1="176.00" y1="128.00" x2="480.00" y2="128.00" />
<line x1="672.00" y1="128.00" x2="928.00" y2="128.00" />
<line x1="1040.00" y1="128.00" x2="1152.00" y2="128.00" />
<line x1="448.00" y1="144.00" x2="480.00" y2="144.00" />
<line x1="496.00" y1="144.00" x2="528.00" y2="144.00" />
<line x1="672.00" y1="144.00" x2="912.00" y2="144.00" />
<line x1="1056.00" y1="144.00" x2="1152.00" y2="144.00" />
<line x1="464.00" y1="160.00" x2="496.00" y2="160.00" />
<line x1="528.00" y1="160.00" x2="592.00" y2="160.00" />
<line x1="608.00" y1="160.00" x2="672.00" y2="160.00" />
<line x1="896.00" y1="160.00" x2="912.00" y2="160.00" />
<line x1="1056.00" y1="160.00" x2="1072.00" y2="160.00" />
<line x1="416.00" y1="176.00" x2="448.00" y2="176.00" />
<line x1="896.00" y1="176.00" x2="912.00" y2="176.00" />
<line x1="1056.00" y1="176.00" x2="1072.00" y2="176.00" />
<line x1="432.00" y1="192.00" x2="464.00" y2="192.00" />
<line x1="400.00" y1="208.00" x2="416.00" y2="208.00" />
<line x1="912.00" y1="208.00" x2="928.00" y2="208.00" />
<line x1="1040.00" y1="208.00" x2="1056.00" y2="208.00" />
<line x1="1152.00" y1="208.00" x2="1184.00" y2="208.00" />
<line x1="1200.00" y1="208.00" x2="1216.00" y2="208.00" />
<line x1="384.00" y1="224.00" x2="400.00" y2="224.00" />
<line x1="416.00" y1="224.00" x2="432.00" y2="224.00" />
<line x1="928.00" y1="224.00" x2="976.00" y2="224.00" />
<line x1="992.00" y1="224.00" x2="1040.00" y2="224.00" />
<line x1="352.00" y1="240.00" x2="384.00" y2="240.00" />
<line x1="400.00" y1="240.00" x2="416.00" y2="240.00" />
<line x1="336.00" y1="256.00" x2="352.00" y2="256.00" />
<line x1="400.00" y1="256.00" x2="496.00" y2="256.00" />
<line x1="1136.00" y1="256.00" x2="1184.00" y2="256.00" />
<line x1="1200.00" y1="256.00" x2="1216.00" y2="256.00" />
<line x1="192.00" y1="288.00" x2="336.00" y2="288.00" />
<line x1="496.00" y1="288.00" x2="592.00" y2="288.00" />
<line x1="608.00" y1="288.00" x2="976.00" y2="288.00" />
<line x1="992.00" y1="288.00" x2="1088.00" y2="288.00" />
<line x1="208.00" y1="304.00" x2="288.00" y2="304.00" />
<line x1="336.00" y1="304.00" x2="352.00" y2="304.00" />
<line x1="496.00" y1="304.00" x2="592.00" y2="304.00" />
<line x1="608.00" y1="304.00" x2="976.00" y2="304.00" />
<line x1="992.00" y1="304.00" x2="1072.00" y2="304.00" />
<line x1="272.00" y1="320.00" x2="288.00" y2="320.00" />
<line x1="336.00" y1="320.00" x2="352.00" y2="320.00" />
<line x1="496.00" y1="320.00" x2="592.00" y2="320.00" />
<line x1="608.00" y1="320.00" x2="976.00" y2="320.00" />
<line x1="992.00" y1="320.00" x2="1072.00" y2="320.00" />
<line x1="1088.00" y1="320.00" x2="1136.00" y2="320.00" />
<line x1="256.00" y1="336.00" x2="272.00" y2="336.00" />
<line x1="304.00" y1="336.00" x2="416.00" y2="336.00" />
<line x1="432.00" y1="336.00" x2="592.00" y2="336.00" />
<line x1="608.00" y1="336.00" x2="976.00" y2="336.00" />
<line x1="992.00" y1="336.00" x2="1072.00" y2="336.00" />
<line x1="1088.00" y1="336.00" x2="1136.00" y2="336.00" />
<line x1="176.00" y1="352.00" x2="192.00" y2="352.00" />
<line x1="208.00" y1="352.00" x2="256.00" y2="352.00" />
<line x1="288.00" y1="352.00" x2="304.00" y2="352.00" />
<line x1="144.00" y1="368.00" x2="160.00" y2="368.00" />
<line x1="256.00" y1="368.00" x2="288.00" y2="368.00" />
<line x1="1232.00" y1="368.00" x2="1392.00" y2="368.00" />
<line x1="1136.00" y1="400.00" x2="1168.00" y2="400.00" />
<line x1="1200.00" y1="400.00" x2="1216.00" y2="400.00" />
<line x1="128.00" y1="416.00" x2="144.00" y2="416.00" />
<line x1="256.00" y1="416.00" x2="272.00" y2="416.00" />
<line x1="256.00" y1="448.00" x2="592.00" y2="448.00" />
<line x1="608.00" y1="448.00" x2="976.00" y2="448.00" />
<line x1="992.00" y1="448.00" x2="1072.00" y2="448.00" />
<line x1="1088.00" y1="448.00" x2="1168.00" y2="448.00" />
<line x1="1200.00" y1="448.00" x2="1232.00" y2="448.00" />
<line x1="272.00" y1="432.00" x2="416.00" y2="432.00" />
<line x1="432.00" y1="432.00" x2="592.00" y2="432.00" />
<line x1="608.00" y1="432.00" x2="976.00" y2="432.00" />
<line x1="992.00" y1="432.00" x2="1072.00" y2="432.00" />
<line x1="1088.00" y1="432.00" x2="1168.00" y2="432.00" />
<line x1="1200.00" y1="432.00" x2="1232.00" y2="432.00" />
<line x1="144.00" y1="480.00" x2="160.00" y2="480.00" />
<line x1="240.00" y1="480.00" x2="256.00" y2="480.00" />
<line x1="176.00" y1="496.00" x2="192.00" y2="496.00" />
<line x1="208.00" y1="496.00" x2="240.00" y2="496.00" />
<line x1="784.00" y1="496.00" x2="912.00" y2="496.00" />
<line x1="1232.00" y1="496.00" x2="1312.00" y2="496.00" />
<line x1="1328.00" y1="496.00" x2="1392.00" y2="496.00" />
<line x1="544.00" y1="512.00" x2="592.00" y2="512.00" />
<line x1="608.00" y1="512.00" x2="624.00" y2="512.00" />
<line x1="768.00" y1="512.00" x2="784.00" y2="512.00" />
<line x1="912.00" y1="512.00" x2="928.00" y2="512.00" />
<line x1="1264.00" y1="512.00" x2="1312.00" y2="512.00" />
<line x1="1328.00" y1="512.00" x2="1344.00" y2="512.00" />
<line x1="624.00" y1="544.00" x2="768.00" y2="544.00" />
<line x1="928.00" y1="544.00" x2="976.00" y2="544.00" />
<line x1="992.00" y1="544.00" x2="1072.00" y2="544.00" />
<line x1="1088.00" y1="544.00" x2="1168.00" y2="544.00" />
<line x1="1200.00" y1="544.00" x2="1264.00" y2="544.00" />
<line x1="144.00" y1="560.00" x2="160.00" y2="560.00" />
<line x1="176.00" y1="560.00" x2="192.00" y2="560.00" />
<line x1="208.00" y1="560.00" x2="272.00" y2="560.00" />
<line x1="992.00" y1="560.00" x2="1072.00" y2="560.00" />
<line x1="1088.00" y1="560.00" x2="1168.00" y2="560.00" />
<line x1="1200.00" y1="560.00" x2="1264.00" y2="560.00" />
<line x1="432.00" y1="576.00" x2="544.00" y2="576.00" />
<line x1="992.00" y1="576.00" x2="1072.00" y2="576.00" />
<line x1="1088.00" y1="576.00" x2="1168.00" y2="576.00" />
<line x1="1200.00" y1="576.00" x2="1264.00" y2="576.00" />
<line x1="416.00" y1="592.00" x2="432.00" y2="592.00" />
<line x1="512.00" y1="592.00" x2="544.00" y2="592.00" />
<line x1="624.00" y1="592.00" x2="656.00" y2="592.00" />
<line x1="672.00" y1="592.00" x2="784.00" y2="592.00" />
<line x1="912.00" y1="592.00" x2="976.00" y2="592.00" />
<line x1="992.00" y1="592.00" x2="1072.00" y2="592.00" />
<line x1="1088.00" y1="592.00" x2="1168.00" y2="592.00" />
<line x1="1200.00" y1="592.00" x2="1264.00" y2="592.00" />
<line x1="400.00" y1="608.00" x2="416.00" y2="608.00" />
<line x1="512.00" y1="608.00" x2="528.00" y2="608.00" />
<line x1="672.00" y1="608.00" x2="688.00" y2="608.00" />
<line x1="784.00" y1="608.00" x2="912.00" y2="608.00" />
<line x1="544.00" y1="624.00" x2="560.00" y2="624.00" />
<line x1="608.00" y1="624.00" x2="624.00" y2="624.00" />
<line x1="656.00" y1="624.00" x2="672.00" y2="624.00" />
<line x1="688.00" y1="624.00" x2="720.00" y2="624.00" />
<line x1="144.00" y1="640.00" x2="160.00" y2="640.00" />
<line x1="176.00" y1="640.00" x2="192.00" y2="640.00" />
<line x1="224.00" y1="640.00" x2="272.00" y2="640.00" />
<line x1="528.00" y1="640.00" x2="560.00" y2="640.00" />
<line x1="608.00" y1="640.00" x2="672.00" y2="640.00" />
<line x1="720.00" y1="640.00" x2="976.00" y2="640.00" />
<line x1="992.00" y1="640.00" x2="1072.00" y2="640.00" />
<line x1="1088.00" y1="640.00" x2="1168.00" y2="640.00" />
<line x1="1264.00" y1="640.00" x2="1296.00" y2="640.00" />
<line x1="1328.00" y1="640.00" x2="1344.00" y2="640.00" />
<line x1="112.00" y1="656.00" x2="128.00" y2="656.00" />
<line x1="144.00" y1="656.00" x2="160.00" y2="656.00" />
<line x1="176.00" y1="656.00" x2="192.00" y2="656.00" />
<line x1="528.00" y1="656.00" x2="560.00" y2="656.00" />
<line x1="608.00" y1="656.00" x2="720.00" y2="656.00" />
<line x1="752.00" y1="656.00" x2="816.00" y2="656.00" />
<line x1="896.00" y1="656.00" x2="912.00" y2="656.00" />
<line x1="944.00" y1="656.00" x2="976.00" y2="656.00" />
<line x1="992.00" y1="656.00" x2="1072.00" y2="656.00" />
<line x1="1088.00" y1="656.00" x2="1168.00" y2="656.00" />
<line x1="1184.00" y1="656.00" x2="1200.00" y2="656.00" />
<line x1="400.00" y1="672.00" x2="416.00" y2="672.00" />
<line x1="720.00" y1="672.00" x2="736.00" y2="672.00" />
<line x1="752.00" y1="672.00" x2="768.00" y2="672.00" />
<line x1="800.00" y1="672.00" x2="816.00" y2="672.00" />
<line x1="896.00" y1="672.00" x2="928.00" y2="672.00" />
<line x1="944.00" y1="672.00" x2="960.00" y2="672.00" />
<line x1="224.00" y1="688.00" x2="416.00" y2="688.00" />
<line x1="528.00" y1="688.00" x2="560.00" y2="688.00" />
<line x1="608.00" y1="688.00" x2="720.00" y2="688.00" />
<line x1="736.00" y1="688.00" x2="752.00" y2="688.00" />
<line x1="768.00" y1="688.00" x2="784.00" y2="688.00" />
<line x1="928.00" y1="688.00" x2="944.00" y2="688.00" />
<line x1="224.00" y1="704.00" x2="448.00" y2="704.00" />
<line x1="480.00" y1="704.00" x2="528.00" y2="704.00" />
<line x1="608.00" y1="704.00" x2="704.00" y2="704.00" />
<line x1="752.00" y1="704.00" x2="768.00" y2="704.00" />
<line x1="960.00" y1="704.00" x2="976.00" y2="704.00" />
<line x1="528.00" y1="720.00" x2="560.00" y2="720.00" />
<line x1="784.00" y1="720.00" x2="800.00" y2="720.00" />
<line x1="944.00" y1="720.00" x2="976.00" y2="720.00" />
<line x1="112.00" y1="736.00" x2="128.00" y2="736.00" />
<line x1="144.00" y1="736.00" x2="192.00" y2="736.00" />
<line x1="768.00" y1="736.00" x2="784.00" y2="736.00" />
<line x1="992.00" y1="736.00" x2="1024.00" y2="736.00" />
<line x1="608.00" y1="752.00" x2="624.00" y2="752.00" />
<line x1="784.00" y1="752.00" x2="816.00" y2="752.00" />
<line x1="912.00" y1="752.00" x2="928.00" y2="752.00" />
<line x1="992.00" y1="752.00" x2="1008.00" y2="752.00" />
<line x1="1024.00" y1="752.00" x2="1072.00" y2="752.00" />
<line x1="1088.00" y1="752.00" x2="1104.00" y2="752.00" />
<line x1="816.00" y1="768.00" x2="832.00" y2="768.00" />
<line x1="864.00" y1="768.00" x2="912.00" y2="768.00" />
<line x1="1008.00" y1="768.00" x2="1024.00" y2="768.00" />
<line x1="624.00" y1="784.00" x2="656.00" y2="784.00" />
<line x1="832.00" y1="784.00" x2="848.00" y2="784.00" />
<line x1="864.00" y1="784.00" x2="880.00" y2="784.00" />
<line x1="928.00" y1="784.00" x2="960.00" y2="784.00" />
<line x1="1328.00" y1="784.00" x2="1408.00" y2="784.00" />
<line x1="608.00" y1="800.00" x2="640.00" y2="800.00" />
<line x1="848.00" y1="800.00" x2="864.00" y2="800.00" />
<line x1="880.00" y1="800.00" x2="896.00" y2="800.00" />
<line x1="912.00" y1="800.00" x2="944.00" y2="800.00" />
<line x1="960.00" y1="800.00" x2="976.00" y2="800.00" />
<line x1="1024.00" y1="800.00" x2="1040.00" y2="800.00" />
<line x1="96.00" y1="816.00" x2="128.00" y2="816.00" />
<line x1="144.00" y1="816.00" x2="192.00" y2="816.00" />
<line x1="224.00" y1="816.00" x2="240.00" y2="816.00" />
<line x1="656.00" y1="816.00" x2="688.00" y2="816.00" />
<line x1="864.00" y1="816.00" x2="880.00" y2="816.00" />
<line x1="896.00" y1="816.00" x2="912.00" y2="816.00" />
<line x1="944.00" y1="816.00" x2="960.00" y2="816.00" />
<line x1="80.00" y1="832.00" x2="96.00" y2="832.00" />
<line x1="240.00" y1="832.00" x2="256.00" y2="832.00" />
<line x1="640.00" y1="832.00" x2="672.00" y2="832.00" />
<line x1="688.00" y1="832.00" x2="704.00" y2="832.00" />
<line x1="880.00" y1="832.00" x2="896.00" y2="832.00" />
<line x1="480.00" y1="848.00" x2="560.00" y2="848.00" />
<line x1="608.00" y1="848.00" x2="672.00" y2="848.00" />
<line x1="720.00" y1="848.00" x2="896.00" y2="848.00" />
<line x1="912.00" y1="848.00" x2="960.00" y2="848.00" />
<line x1="992.00" y1="848.00" x2="1040.00" y2="848.00" />
<line x1="1104.00" y1="848.00" x2="1168.00" y2="848.00" />
<line x1="1184.00" y1="848.00" x2="1296.00" y2="848.00" />
<line x1="256.00" y1="864.00" x2="448.00" y2="864.00" />
<line x1="256.00" y1="880.00" x2="448.00" y2="880.00" />
<line x1="464.00" y1="880.00" x2="560.00" y2="880.00" />
<line x1="608.00" y1="880.00" x2="704.00" y2="880.00" />
<line x1="752.00" y1="880.00" x2="928.00" y2="880.00" />
<line x1="960.00" y1="880.00" x2="976.00" y2="880.00" />
<line x1="992.00" y1="880.00" x2="1008.00" y2="880.00" />
<line x1="1104.00" y1="880.00" x2="1296.00" y2="880.00" />
<line x1="400.00" y1="896.00" x2="448.00" y2="896.00" />
<line x1="464.00" y1="896.00" x2="496.00" y2="896.00" />
<line x1="720.00" y1="896.00" x2="736.00" y2="896.00" />
<line x1="752.00" y1="896.00" x2="768.00" y2="896.00" />
<line x1="928.00" y1="896.00" x2="944.00" y2="896.00" />
<line x1="960.00" y1="896.00" x2="976.00" y2="896.00" />
<line x1="1008.00" y1="896.00" x2="1024.00" y2="896.00" />
<line x1="1056.00" y1="896.00" x2="1072.00" y2="896.00" />
<line x1="1088.00" y1="896.00" x2="1104.00" y2="896.00" />
<line x1="80.00" y1="912.00" x2="96.00" y2="912.00" />
<line x1="240.00" y1="912.00" x2="256.00" y2="912.00" />
<line x1="512.00" y1="912.00" x2="560.00" y2="912.00" />
<line x1="608.00" y1="912.00" x2="688.00" y2="912.00" />
<line x1="736.00" y1="912.00" x2="752.00" y2="912.00" />
<line x1="944.00" y1="912.00" x2="960.00" y2="912.00" />
<line x1="1024.00" y1="912.00" x2="1040.00" y2="912.00" />
<line x1="96.00" y1="928.00" x2="128.00" y2="928.00" />
<line x1="144.00" y1="928.00" x2="160.00" y2="928.00" />
<line x1="176.00" y1="928.00" x2="192.00" y2="928.00" />
<line x1="224.00" y1="928.00" x2="240.00" y2="928.00" />
<line x1="768.00" y1="928.00" x2="800.00" y2="928.00" />
<line x1="960.00" y1="928.00" x2="976.00" y2="928.00" />
<line x1="992.00" y1="928.00" x2="1040.00" y2="928.00" />
<line x1="1056.00" y1="928.00" x2="1072.00" y2="928.00" />
<line x1="1088.00" y1="928.00" x2="1168.00" y2="928.00" />
<line x1="1280.00" y1="928.00" x2="1296.00" y2="928.00" />
<line x1="1328.00" y1="928.00" x2="1360.00" y2="928.00" />
<line x1="1376.00" y1="928.00" x2="1408.00" y2="928.00" />
<line x1="752.00" y1="944.00" x2="784.00" y2="944.00" />
<line x1="176.00" y1="976.00" x2="192.00" y2="976.00" />
<line x1="224.00" y1="976.00" x2="256.00" y2="976.00" />
<line x1="496.00" y1="976.00" x2="512.00" y2="976.00" />
<line x1="784.00" y1="976.00" x2="800.00" y2="976.00" />
<line x1="816.00" y1="976.00" x2="848.00" y2="976.00" />
<line x1="1264.00" y1="976.00" x2="1296.00" y2="976.00" />
<line x1="1328.00" y1="976.00" x2="1360.00" y2="976.00" />
<line x1="1376.00" y1="976.00" x2="1392.00" y2="976.00" />
<line x1="800.00" y1="960.00" x2="816.00" y2="960.00" />
<line x1="1248.00" y1="960.00" x2="1280.00" y2="960.00" />
<line x1="96.00" y1="992.00" x2="128.00" y2="992.00" />
<line x1="144.00" y1="992.00" x2="160.00" y2="992.00" />
<line x1="496.00" y1="992.00" x2="512.00" y2="992.00" />
<line x1="800.00" y1="992.00" x2="832.00" y2="992.00" />
<line x1="1232.00" y1="992.00" x2="1248.00" y2="992.00" />
<line x1="848.00" y1="1008.00" x2="880.00" y2="1008.00" />
<line x1="1168.00" y1="1008.00" x2="1232.00" y2="1008.00" />
<line x1="1264.00" y1="1008.00" x2="1296.00" y2="1008.00" />
<line x1="880.00" y1="1024.00" x2="976.00" y2="1024.00" />
<line x1="1168.00" y1="1024.00" x2="1184.00" y2="1024.00" />
<line x1="1232.00" y1="1024.00" x2="1296.00" y2="1024.00" />
<line x1="1200.00" y1="1040.00" x2="1232.00" y2="1040.00" />
<line x1="256.00" y1="1056.00" x2="400.00" y2="1056.00" />
<line x1="496.00" y1="1056.00" x2="512.00" y2="1056.00" />
<line x1="688.00" y1="1056.00" x2="704.00" y2="1056.00" />
<line x1="720.00" y1="1056.00" x2="832.00" y2="1056.00" />
<line x1="1168.00" y1="1056.00" x2="1184.00" y2="1056.00" />
<line x1="1200.00" y1="1056.00" x2="1296.00" y2="1056.00" />
<line x1="256.00" y1="1072.00" x2="528.00" y2="1072.00" />
<line x1="608.00" y1="1072.00" x2="704.00" y2="1072.00" />
<line x1="720.00" y1="1072.00" x2="832.00" y2="1072.00" />
<line x1="1168.00" y1="1072.00" x2="1312.00" y2="1072.00" />
<line x1="832.00" y1="1088.00" x2="976.00" y2="1088.00" />
<line x1="992.00" y1="1104.00" x2="1040.00" y2="1104.00" />
<line x1="1056.00" y1="1104.00" x2="1120.00" y2="1104.00" />
<line x1="1136.00" y1="1104.00" x2="1168.00" y2="1104.00" />
<line x1="1328.00" y1="1104.00" x2="1360.00" y2="1104.00" />
<line x1="1376.00" y1="1104.00" x2="1392.00" y2="1104.00" />
<line x1="1104.00" y1="1120.00" x2="1120.00" y2="1120.00" />
<line x1="1072.00" y1="1136.00" x2="1104.00" y2="1136.00" />
<line x1="1120.00" y1="1136.00" x2="1136.00" y2="1136.00" />
<line x1="176.00" y1="1152.00" x2="192.00" y2="1152.00" />
<line x1="224.00" y1="1152.00" x2="256.00" y2="1152.00" />
<line x1="336.00" y1="1152.00" x2="528.00" y2="1152.00" />
<line x1="608.00" y1="1152.00" x2="704.00" y2="1152.00" />
<line x1="720.00" y1="1152.00" x2="976.00" y2="1152.00" />
<line x1="992.00" y1="1152.00" x2="1040.00" y2="1152.00" />
<line x1="1056.00" y1="1152.00" x2="1072.00" y2="1152.00" />
<line x1="1120.00" y1="1152.00" x2="1264.00" y2="1152.00" />
<line x1="96.00" y1="1168.00" x2="160.00" y2="1168.00" />
<line x1="352.00" y1="1168.00" x2="528.00" y2="1168.00" />
<line x1="608.00" y1="1168.00" x2="704.00" y2="1168.00" />
<line x1="720.00" y1="1168.00" x2="976.00" y2="1168.00" />
<line x1="992.00" y1="1168.00" x2="1040.00" y2="1168.00" />
<line x1="1072.00" y1="1168.00" x2="1248.00" y2="1168.00" />
<line x1="1024.00" y1="1184.00" x2="1040.00" y2="1184.00" />
<line x1="128.00" y1="1200.00" x2="160.00" y2="1200.00" />
<line x1="176.00" y1="1200.00" x2="192.00" y2="1200.00" />
<line x1="224.00" y1="1200.00" x2="272.00" y2="1200.00" />
<line x1="288.00" y1="1200.00" x2="336.00" y2="1200.00" />
<line x1="352.00" y1="1200.00" x2="384.00" y2="1200.00" />
<line x1="640.00" y1="1200.00" x2="704.00" y2="1200.00" />
<line x1="720.00" y1="1200.00" x2="768.00" y2="1200.00" />
<line x1="928.00" y1="1200.00" x2="976.00" y2="1200.00" />
<line x1="992.00" y1="1200.00" x2="1024.00" y2="1200.00" />
<line x1="1056.00" y1="1200.00" x2="1072.00" y2="1200.00" />
<line x1="912.00" y1="1216.00" x2="928.00" y2="1216.00" />
<line x1="272.00" y1="1232.00" x2="288.00" y2="1232.00" />
<line x1="896.00" y1="1232.00" x2="912.00" y2="1232.00" />
<line x1="1056.00" y1="1232.00" x2="1072.00" y2="1232.00" />
<line x1="384.00" y1="1248.00" x2="528.00" y2="1248.00" />
<line x1="608.00" y1="1248.00" x2="640.00" y2="1248.00" />
<line x1="768.00" y1="1248.00" x2="896.00" y2="1248.00" />
<line x1="768.00" y1="1264.00" x2="896.00" y2="1264.00" />
<line x1="128.00" y1="1280.00" x2="592.00" y2="1280.00" />
<line x1="608.00" y1="1280.00" x2="640.00" y2="1280.00" />
<line x1="896.00" y1="1280.00" x2="912.00" y2="1280.00" />
<line x1="1056.00" y1="1280.00" x2="1072.00" y2="1280.00" />
<line x1="912.00" y1="1296.00" x2="928.00" y2="1296.00" />
<line x1="928.00" y1="1312.00" x2="1040.00" y2="1312.00" />
<line x1="640.00" y1="1328.00" x2="704.00" y2="1328.00" />
<line x1="720.00" y1="1328.00" x2="768.00" y2="1328.00" />
<line x1="992.00" y1="1328.00" x2="1040.00" y2="1328.00" />
<line x1="1056.00" y1="1328.00" x2="1088.00" y2="1328.00" />
<line x1="656.00" y1="1360.00" x2="704.00" y2="1360.00" />
<line x1="720.00" y1="1360.00" x2="768.00" y2="1360.00" />
<line x1="1200.00" y1="1360.00" x2="1248.00" y2="1360.00" />
<line x1="1264.00" y1="1360.00" x2="1296.00" y2="1360.00" />
<line x1="128.00" y1="1392.00" x2="272.00" y2="1392.00" />
<line x1="992.00" y1="1392.00" x2="1088.00" y2="1392.00" />
<line x1="768.00" y1="1424.00" x2="1200.00" y2="1424.00" />
<line x1="1296.00" y1="1424.00" x2="1312.00" y2="1424.00" />
<line x1="1328.00" y1="1424.00" x2="1360.00" y2="1424.00" />
<line x1="272.00" y1="1440.00" x2="592.00" y2="1440.00" />
<line x1="608.00" y1="1440.00" x2="656.00" y2="1440.00" />
<line x1="1328.00" y1="1440.00" x2="1376.00" y2="1440.00" />
<line x1="272.00" y1="1456.00" x2="656.00" y2="1456.00" />
<line x1="768.00" y1="1456.00" x2="1200.00" y2="1456.00" />
<line x1="1296.00" y1="1456.00" x2="1328.00" y2="1456.00" />
<line x1="1200.00" y1="1472.00" x2="1296.00" y2="1472.00" />
<line x1="128.00" y1="1488.00" x2="272.00" y2="1488.00" />
<line x1="656.00" y1="1504.00" x2="768.00" y2="1504.00" />
<line x1="1152.00" y1="64.00" x2="1152.00" y2="128.00" />
<line x1="1152.00" y1="144.00" x2="1152.00" y2="208.00" />
<line x1="1216.00" y1="64.00" x2="1216.00" y2="208.00" />
<line x1="1216.00" y1="256.00" x2="1216.00" y2="400.00" />
<line x1="528.00" y1="80.00" x2="528.00" y2="112.00" />
<line x1="528.00" y1="144.00" x2="528.00" y2="160.00" />
<line x1="528.00" y1="608.00" x2="528.00" y2="640.00" />
<line x1="528.00" y1="656.00" x2="528.00" y2="688.00" />
<line x1="528.00" y1="704.00" x2="528.00" y2="720.00" />
<line x1="528.00" y1="1072.00" x2="528.00" y2="1152.00" />
<line x1="528.00" y1="1168.00" x2="528.00" y2="1248.00" />
<line x1="672.00" y1="80.00" x2="672.00" y2="128.00" />
<line x1="672.00" y1="144.00" x2="672.00" y2="160.00" />
<line x1="672.00" y1="592.00" x2="672.00" y2="608.00" />
<line x1="672.00" y1="624.00" x2="672.00" y2="640.00" />
<line x1="672.00" y1="832.00" x2="672.00" y2="848.00" />
<line x1="976.00" y1="96.00" x2="976.00" y2="112.00" />
<line x1="976.00" y1="224.00" x2="976.00" y2="288.00" />
<line x1="976.00" y1="304.00" x2="976.00" y2="320.00" />
<line x1="976.00" y1="336.00" x2="976.00" y2="432.00" />
<line x1="976.00" y1="448.00" x2="976.00" y2="544.00" />
<line x1="976.00" y1="592.00" x2="976.00" y2="640.00" />
<line x1="976.00" y1="656.00" x2="976.00" y2="704.00" />
<line x1="976.00" y1="720.00" x2="976.00" y2="800.00" />
<line x1="976.00" y1="880.00" x2="976.00" y2="896.00" />
<line x1="976.00" y1="928.00" x2="976.00" y2="1024.00" />
<line x1="976.00" y1="1088.00" x2="976.00" y2="1152.00" />
<line x1="976.00" y1="1168.00" x2="976.00" y2="1200.00" />
<line x1="992.00" y1="96.00" x2="992.00" y2="112.00" />
<line x1="992.00" y1="224.00" x2="992.00" y2="288.00" />
<line x1="992.00" y1="304.00" x2="992.00" y2="320.00" />
<line x1="992.00" y1="336.00" x2="992.00" y2="432.00" />
<line x1="992.00" y1="448.00" x2="992.00" y2="544.00" />
<line x1="992.00" y1="560.00" x2="992.00" y2="576.00" />
<line x1="992.00" y1="592.00" x2="992.00" y2="640.00" />
<line x1="992.00" y1="656.00" x2="992.00" y2="736.00" />
<line x1="992.00" y1="752.00" x2="992.00" y2="848.00" />
<line x1="992.00" y1="880.00" x2="992.00" y2="928.00" />
<line x1="992.00" y1="1104.00" x2="992.00" y2="1152.00" />
<line x1="992.00" y1="1168.00" x2="992.00" y2="1200.00" />
<line x1="992.00" y1="1328.00" x2="992.00" y2="1392.00" />
<line x1="160.00" y1="112.00" x2="160.00" y2="368.00" />
<line x1="160.00" y1="480.00" x2="160.00" y2="560.00" />
<line x1="160.00" y1="640.00" x2="160.00" y2="656.00" />
<line x1="160.00" y1="928.00" x2="160.00" y2="992.00" />
<line x1="160.00" y1="1168.00" x2="160.00" y2="1200.00" />
<line x1="928.00" y1="112.00" x2="928.00" y2="128.00" />
<line x1="928.00" y1="208.00" x2="928.00" y2="224.00" />
<line x1="928.00" y1="512.00" x2="928.00" y2="544.00" />
<line x1="928.00" y1="672.00" x2="928.00" y2="688.00" />
<line x1="928.00" y1="752.00" x2="928.00" y2="784.00" />
<line x1="928.00" y1="880.00" x2="928.00" y2="896.00" />
<line x1="928.00" y1="1200.00" x2="928.00" y2="1216.00" />
<line x1="928.00" y1="1296.00" x2="928.00" y2="1312.00" />
<line x1="1040.00" y1="112.00" x2="1040.00" y2="128.00" />
<line x1="1040.00" y1="208.00" x2="1040.00" y2="224.00" />
<line x1="1040.00" y1="800.00" x2="1040.00" y2="848.00" />
<line x1="1040.00" y1="912.00" x2="1040.00" y2="928.00" />
<line x1="1040.00" y1="1104.00" x2="1040.00" y2="1152.00" />
<line x1="1040.00" y1="1168.00" x2="1040.00" y2="1184.00" />
<line x1="1040.00" y1="1312.00" x2="1040.00" y2="1328.00" />
<line x1="176.00" y1="128.00" x2="176.00" y2="352.00" />
<line x1="176.00" y1="496.00" x2="176.00" y2="560.00" />
<line x1="176.00" y1="640.00" x2="176.00" y2="656.00" />
<line x1="176.00" y1="928.00" x2="176.00" y2="976.00" />
<line x1="176.00" y1="1152.00" x2="176.00" y2="1200.00" />
<line x1="480.00" y1="128.00" x2="480.00" y2="144.00" />
<line x1="480.00" y1="704.00" x2="480.00" y2="848.00" />
<line x1="448.00" y1="144.00" x2="448.00" y2="176.00" />
<line x1="448.00" y1="704.00" x2="448.00" y2="864.00" />
<line x1="448.00" y1="880.00" x2="448.00" y2="896.00" />
<line x1="496.00" y1="144.00" x2="496.00" y2="160.00" />
<line x1="496.00" y1="256.00" x2="496.00" y2="288.00" />
<line x1="496.00" y1="304.00" x2="496.00" y2="320.00" />
<line x1="496.00" y1="896.00" x2="496.00" y2="976.00" />
<line x1="496.00" y1="992.00" x2="496.00" y2="1056.00" />
<line x1="912.00" y1="144.00" x2="912.00" y2="160.00" />
<line x1="912.00" y1="176.00" x2="912.00" y2="208.00" />
<line x1="912.00" y1="496.00" x2="912.00" y2="512.00" />
<line x1="912.00" y1="592.00" x2="912.00" y2="608.00" />
<line x1="912.00" y1="656.00" x2="912.00" y2="752.00" />
<line x1="912.00" y1="768.00" x2="912.00" y2="800.00" />
<line x1="912.00" y1="816.00" x2="912.00" y2="848.00" />
<line x1="912.00" y1="1216.00" x2="912.00" y2="1232.00" />
<line x1="912.00" y1="1280.00" x2="912.00" y2="1296.00" />
<line x1="1056.00" y1="144.00" x2="1056.00" y2="160.00" />
<line x1="1056.00" y1="176.00" x2="1056.00" y2="208.00" />
<line x1="1056.00" y1="896.00" x2="1056.00" y2="928.00" />
<line x1="1056.00" y1="1104.00" x2="1056.00" y2="1152.00" />
<line x1="1056.00" y1="1200.00" x2="1056.00" y2="1232.00" />
<line x1="1056.00" y1="1280.00" x2="1056.00" y2="1328.00" />
<line x1="464.00" y1="160.00" x2="464.00" y2="192.00" />
<line x1="464.00" y1="880.00" x2="464.00" y2="896.00" />
<line x1="592.00" y1="160.00" x2="592.00" y2="288.00" />
<line x1="592.00" y1="304.00" x2="592.00" y2="320.00" />
<line x1="592.00" y1="336.00" x2="592.00" y2="432.00" />
<line x1="592.00" y1="448.00" x2="592.00" y2="512.00" />
<line x1="592.00" y1="1280.00" x2="592.00" y2="1440.00" />
<line x1="608.00" y1="160.00" x2="608.00" y2="288.00" />
<line x1="608.00" y1="304.00" x2="608.00" y2="320.00" />
<line x1="608.00" y1="336.00" x2="608.00" y2="432.00" />
<line x1="608.00" y1="448.00" x2="608.00" y2="512.00" />
<line x1="608.00" y1="624.00" x2="608.00" y2="640.00" />
<line x1="608.00" y1="656.00" x2="608.00" y2="688.00" />
<line x1="608.00" y1="704.00" x2="608.00" y2="752.00" />
<line x1="608.00" y1="800.00" x2="608.00" y2="848.00" />
<line x1="608.00" y1="880.00" x2="608.00" y2="912.00" />
<line x1="608.00" y1="1072.00" x2="608.00" y2="1152.00" />
<line x1="608.00" y1="1168.00" x2="608.00" y2="1248.00" />
<line x1="608.00" y1="1280.00" x2="608.00" y2="1440.00" />
<line x1="896.00" y1="160.00" x2="896.00" y2="176.00" />
<line x1="896.00" y1="656.00" x2="896.00" y2="672.00" />
<line x1="896.00" y1="800.00" x2="896.00" y2="816.00" />
<line x1="896.00" y1="832.00" x2="896.00" y2="848.00" />
<line x1="896.00" y1="1232.00" x2="896.00" y2="1248.00" />
<line x1="896.00" y1="1264.00" x2="896.00" y2="1280.00" />
<line x1="1072.00" y1="160.00" x2="1072.00" y2="176.00" />
<line x1="1072.00" y1="304.00" x2="1072.00" y2="320.00" />
<line x1="1072.00" y1="336.00" x2="1072.00" y2="432.00" />
<line x1="1072.00" y1="448.00" x2="1072.00" y2="544.00" />
<line x1="1072.00" y1="560.00" x2="1072.00" y2="576.00" />
<line x1="1072.00" y1="592.00" x2="1072.00" y2="640.00" />
<line x1="1072.00" y1="656.00" x2="1072.00" y2="752.00" />
<line x1="1072.00" y1="896.00" x2="1072.00" y2="928.00" />
<line x1="1072.00" y1="1136.00" x2="1072.00" y2="1152.00" />
<line x1="1072.00" y1="1168.00" x2="1072.00" y2="1200.00" />
<line x1="1072.00" y1="1232.00" x2="1072.00" y2="1280.00" />
<line x1="416.00" y1="176.00" x2="416.00" y2="208.00" />
<line x1="416.00" y1="224.00" x2="416.00" y2="240.00" />
<line x1="416.00" y1="336.00" x2="416.00" y2="432.00" />
<line x1="416.00" y1="592.00" x2="416.00" y2="608.00" />
<line x1="416.00" y1="672.00" x2="416.00" y2="688.00" />
<line x1="432.00" y1="192.00" x2="432.00" y2="224.00" />
<line x1="432.00" y1="336.00" x2="432.00" y2="432.00" />
<line x1="432.00" y1="576.00" x2="432.00" y2="592.00" />
<line x1="400.00" y1="208.00" x2="400.00" y2="224.00" />
<line x1="400.00" y1="240.00" x2="400.00" y2="256.00" />
<line x1="400.00" y1="608.00" x2="400.00" y2="672.00" />
<line x1="400.00" y1="896.00" x2="400.00" y2="1056.00" />
<line x1="1184.00" y1="208.00" x2="1184.00" y2="256.00" />
<line x1="1184.00" y1="656.00" x2="1184.00" y2="848.00" />
<line x1="1184.00" y1="1024.00" x2="1184.00" y2="1056.00" />
<line x1="1200.00" y1="208.00" x2="1200.00" y2="256.00" />
<line x1="1200.00" y1="400.00" x2="1200.00" y2="432.00" />
<line x1="1200.00" y1="448.00" x2="1200.00" y2="544.00" />
<line x1="1200.00" y1="560.00" x2="1200.00" y2="576.00" />
<line x1="1200.00" y1="592.00" x2="1200.00" y2="656.00" />
<line x1="1200.00" y1="1040.00" x2="1200.00" y2="1056.00" />
<line x1="1200.00" y1="1360.00" x2="1200.00" y2="1424.00" />
<line x1="1200.00" y1="1456.00" x2="1200.00" y2="1472.00" />
<line x1="384.00" y1="224.00" x2="384.00" y2="240.00" />
<line x1="384.00" y1="1200.00" x2="384.00" y2="1248.00" />
<line x1="352.00" y1="240.00" x2="352.00" y2="256.00" />
<line x1="352.00" y1="304.00" x2="352.00" y2="320.00" />
<line x1="352.00" y1="1168.00" x2="352.00" y2="1200.00" />
<line x1="336.00" y1="256.00" x2="336.00" y2="288.00" />
<line x1="336.00" y1="304.00" x2="336.00" y2="320.00" />
<line x1="336.00" y1="1152.00" x2="336.00" y2="1200.00" />
<line x1="1136.00" y1="256.00" x2="1136.00" y2="320.00" />
<line x1="1136.00" y1="336.00" x2="1136.00" y2="400.00" />
<line x1="1136.00" y1="1104.00" x2="1136.00" y2="1136.00" />
<line x1="192.00" y1="288.00" x2="192.00" y2="352.00" />
<line x1="192.00" y1="496.00" x2="192.00" y2="560.00" />
<line x1="192.00" y1="640.00" x2="192.00" y2="656.00" />
<line x1="192.00" y1="736.00" x2="192.00" y2="816.00" />
<line x1="192.00" y1="928.00" x2="192.00" y2="976.00" />
<line x1="192.00" y1="1152.00" x2="192.00" y2="1200.00" />
<line x1="1088.00" y1="288.00" x2="1088.00" y2="320.00" />
<line x1="1088.00" y1="336.00" x2="1088.00" y2="432.00" />
<line x1="1088.00" y1="448.00" x2="1088.00" y2="544.00" />
<line x1="1088.00" y1="560.00" x2="1088.00" y2="576.00" />
<line x1="1088.00" y1="592.00" x2="1088.00" y2="640.00" />
<line x1="1088.00" y1="656.00" x2="1088.00" y2="752.00" />
<line x1="1088.00" y1="896.00" x2="1088.00" y2="928.00" />
<line x1="1088.00" y1="1328.00" x2="1088.00" y2="1392.00" />
<line x1="208.00" y1="304.00" x2="208.00" y2="352.00" />
<line x1="208.00" y1="496.00" x2="208.00" y2="560.00" />
<line x1="288.00" y1="304.00" x2="288.00" y2="320.00" />
<line x1="288.00" y1="352.00" x2="288.00" y2="368.00" />
<line x1="288.00" y1="1200.00" x2="288.00" y2="1232.00" />
<line x1="272.00" y1="320.00" x2="272.00" y2="336.00" />
<line x1="272.00" y1="416.00" x2="272.00" y2="432.00" />
<line x1="272.00" y1="560.00" x2="272.00" y2="640.00" />
<line x1="272.00" y1="1200.00" x2="272.00" y2="1232.00" />
<line x1="272.00" y1="1392.00" x2="272.00" y2="1440.00" />
<line x1="272.00" y1="1456.00" x2="272.00" y2="1488.00" />
<line x1="256.00" y1="336.00" x2="256.00" y2="352.00" />
<line x1="256.00" y1="368.00" x2="256.00" y2="416.00" />
<line x1="256.00" y1="448.00" x2="256.00" y2="480.00" />
<line x1="256.00" y1="832.00" x2="256.00" y2="864.00" />
<line x1="256.00" y1="880.00" x2="256.00" y2="912.00" />
<line x1="256.00" y1="976.00" x2="256.00" y2="1056.00" />
<line x1="256.00" y1="1072.00" x2="256.00" y2="1152.00" />
<line x1="304.00" y1="336.00" x2="304.00" y2="352.00" />
<line x1="144.00" y1="368.00" x2="144.00" y2="416.00" />
<line x1="144.00" y1="480.00" x2="144.00" y2="560.00" />
<line x1="144.00" y1="640.00" x2="144.00" y2="656.00" />
<line x1="144.00" y1="736.00" x2="144.00" y2="816.00" />
<line x1="144.00" y1="928.00" x2="144.00" y2="992.00" />
<line x1="1232.00" y1="368.00" x2="1232.00" y2="432.00" />
<line x1="1232.00" y1="448.00" x2="1232.00" y2="496.00" />
<line x1="1232.00" y1="992.00" x2="1232.00" y2="1008.00" />
<line x1="1232.00" y1="1024.00" x2="1232.00" y2="1040.00" />
<line x1="1392.00" y1="368.00" x2="1392.00" y2="496.00" />
<line x1="1392.00" y1="976.00" x2="1392.00" y2="1104.00" />
<line x1="1168.00" y1="400.00" x2="1168.00" y2="432.00" />
<line x1="1168.00" y1="448.00" x2="1168.00" y2="544.00" />
<line x1="1168.00" y1="560.00" x2="1168.00" y2="576.00" />
<line x1="1168.00" y1="592.00" x2="1168.00" y2="640.00" />
<line x1="1168.00" y1="656.00" x2="1168.00" y2="848.00" />
<line x1="1168.00" y1="928.00" x2="1168.00" y2="1008.00" />
<line x1="1168.00" y1="1024.00" x2="1168.00" y2="1056.00" />
<line x1="1168.00" y1="1072.00" x2="1168.00" y2="1104.00" />
<line x1="128.00" y1="416.00" x2="128.00" y2="656.00" />
<line x1="128.00" y1="736.00" x2="128.00" y2="816.00" />
<line x1="128.00" y1="928.00" x2="128.00" y2="992.00" />
<line x1="128.00" y1="1200.00" x2="128.00" y2="1280.00" />
<line x1="128.00" y1="1392.00" x2="128.00" y2="1488.00" />
<line x1="240.00" y1="480.00" x2="240.00" y2="496.00" />
<line x1="240.00" y1="816.00" x2="240.00" y2="832.00" />
<line x1="240.00" y1="912.00" x2="240.00" y2="928.00" />
<line x1="784.00" y1="496.00" x2="784.00" y2="512.00" />
<line x1="784.00" y1="592.00" x2="784.00" y2="608.00" />
<line x1="784.00" y1="688.00" x2="784.00" y2="720.00" />
<line x1="784.00" y1="736.00" x2="784.00" y2="752.00" />
<line x1="784.00" y1="944.00" x2="784.00" y2="976.00" />
<line x1="1312.00" y1="496.00" x2="1312.00" y2="512.00" />
<line x1="1312.00" y1="1072.00" x2="1312.00" y2="1424.00" />
<line x1="1328.00" y1="496.00" x2="1328.00" y2="512.00" />
<line x1="1328.00" y1="640.00" x2="1328.00" y2="784.00" />
<line x1="1328.00" y1="928.00" x2="1328.00" y2="976.00" />
<line x1="1328.00" y1="1104.00" x2="1328.00" y2="1424.00" />
<line x1="1328.00" y1="1440.00" x2="1328.00" y2="1456.00" />
<line x1="544.00" y1="512.00" x2="544.00" y2="576.00" />
<line x1="544.00" y1="592.00" x2="544.00" y2="624.00" />
<line x1="624.00" y1="512.00" x2="624.00" y2="544.00" />
<line x1="624.00" y1="592.00" x2="624.00" y2="624.00" />
<line x1="624.00" y1="752.00" x2="624.00" y2="784.00" />
<line x1="768.00" y1="512.00" x2="768.00" y2="544.00" />
<line x1="768.00" y1="672.00" x2="768.00" y2="688.00" />
<line x1="768.00" y1="704.00" x2="768.00" y2="736.00" />
<line x1="768.00" y1="896.00" x2="768.00" y2="928.00" />
<line x1="768.00" y1="1200.00" x2="768.00" y2="1248.00" />
<line x1="768.00" y1="1264.00" x2="768.00" y2="1328.00" />
<line x1="768.00" y1="1360.00" x2="768.00" y2="1424.00" />
<line x1="768.00" y1="1456.00" x2="768.00" y2="1504.00" />
<line x1="1264.00" y1="512.00" x2="1264.00" y2="544.00" />
<line x1="1264.00" y1="560.00" x2="1264.00" y2="576.00" />
<line x1="1264.00" y1="592.00" x2="1264.00" y2="640.00" />
<line x1="1264.00" y1="976.00" x2="1264.00" y2="1008.00" />
<line x1="1264.00" y1="1152.00" x2="1264.00" y2="1360.00" />
<line x1="1344.00" y1="512.00" x2="1344.00" y2="640.00" />
<line x1="512.00" y1="592.00" x2="512.00" y2="608.00" />
<line x1="512.00" y1="912.00" x2="512.00" y2="976.00" />
<line x1="512.00" y1="992.00" x2="512.00" y2="1056.00" />
<line x1="656.00" y1="592.00" x2="656.00" y2="624.00" />
<line x1="656.00" y1="784.00" x2="656.00" y2="816.00" />
<line x1="656.00" y1="1360.00" x2="656.00" y2="1440.00" />
<line x1="656.00" y1="1456.00" x2="656.00" y2="1504.00" />
<line x1="688.00" y1="608.00" x2="688.00" y2="624.00" />
<line x1="688.00" y1="816.00" x2="688.00" y2="832.00" />
<line x1="688.00" y1="912.00" x2="688.00" y2="1056.00" />
<line x1="560.00" y1="624.00" x2="560.00" y2="640.00" />
<line x1="560.00" y1="656.00" x2="560.00" y2="688.00" />
<line x1="560.00" y1="720.00" x2="560.00" y2="848.00" />
<line x1="560.00" y1="880.00" x2="560.00" y2="912.00" />
<line x1="720.00" y1="624.00" x2="720.00" y2="640.00" />
<line x1="720.00" y1="656.00" x2="720.00" y2="672.00" />
<line x1="720.00" y1="688.00" x2="720.00" y2="848.00" />
<line x1="720.00" y1="896.00" x2="720.00" y2="1056.00" />
<line x1="720.00" y1="1072.00" x2="720.00" y2="1152.00" />
<line x1="720.00" y1="1168.00" x2="720.00" y2="1200.00" />
<line x1="720.00" y1="1328.00" x2="720.00" y2="1360.00" />
<line x1="224.00" y1="640.00" x2="224.00" y2="688.00" />
<line x1="224.00" y1="704.00" x2="224.00" y2="816.00" />
<line x1="224.00" y1="928.00" x2="224.00" y2="976.00" />
<line x1="224.00" y1="1152.00" x2="224.00" y2="1200.00" />
<line x1="1296.00" y1="640.00" x2="1296.00" y2="848.00" />
<line x1="1296.00" y1="880.00" x2="1296.00" y2="928.00" />
<line x1="1296.00" y1="976.00" x2="1296.00" y2="1008.00" />
<line x1="1296.00" y1="1024.00" x2="1296.00" y2="1056.00" />
<line x1="1296.00" y1="1360.00" x2="1296.00" y2="1424.00" />
<line x1="1296.00" y1="1456.00" x2="1296.00" y2="1472.00" />
<line x1="112.00" y1="656.00" x2="112.00" y2="736.00" />
<line x1="752.00" y1="656.00" x2="752.00" y2="672.00" />
<line x1="752.00" y1="688.00" x2="752.00" y2="704.00" />
<line x1="752.00" y1="880.00" x2="752.00" y2="896.00" />
<line x1="752.00" y1="912.00" x2="752.00" y2="944.00" />
<line x1="816.00" y1="656.00" x2="816.00" y2="672.00" />
<line x1="816.00" y1="752.00" x2="816.00" y2="768.00" />
<line x1="816.00" y1="960.00" x2="816.00" y2="976.00" />
<line x1="944.00" y1="656.00" x2="944.00" y2="672.00" />
<line x1="944.00" y1="688.00" x2="944.00" y2="720.00" />
<line x1="944.00" y1="800.00" x2="944.00" y2="816.00" />
<line x1="944.00" y1="896.00" x2="944.00" y2="912.00" />
<line x1="736.00" y1="672.00" x2="736.00" y2="688.00" />
<line x1="736.00" y1="896.00" x2="736.00" y2="912.00" />
<line x1="800.00" y1="672.00" x2="800.00" y2="720.00" />
<line x1="800.00" y1="928.00" x2="800.00" y2="960.00" />
<line x1="800.00" y1="976.00" x2="800.00" y2="992.00" />
<line x1="960.00" y1="672.00" x2="960.00" y2="704.00" />
<line x1="960.00" y1="784.00" x2="960.00" y2="800.00" />
<line x1="960.00" y1="816.00" x2="960.00" y2="848.00" />
<line x1="960.00" y1="880.00" x2="960.00" y2="896.00" />
<line x1="960.00" y1="912.00" x2="960.00" y2="928.00" />
<line x1="704.00" y1="704.00" x2="704.00" y2="832.00" />
<line x1="704.00" y1="880.00" x2="704.00" y2="1056.00" />
<line x1="704.00" y1="1072.00" x2="704.00" y2="1152.00" />
<line x1="704.00" y1="1168.00" x2="704.00" y2="1200.00" />
<line x1="704.00" y1="1328.00" x2="704.00" y2="1360.00" />
<line x1="1024.00" y1="736.00" x2="1024.00" y2="752.00" />
<line x1="1024.00" y1="768.00" x2="1024.00" y2="800.00" />
<line x1="1024.00" y1="896.00" x2="1024.00" y2="912.00" />
<line x1="1024.00" y1="1184.00" x2="1024.00" y2="1200.00" />
<line x1="1008.00" y1="752.00" x2="1008.00" y2="768.00" />
<line x1="1008.00" y1="880.00" x2="1008.00" y2="896.00" />
<line x1="1104.00" y1="752.00" x2="1104.00" y2="848.00" />
<line x1="1104.00" y1="880.00" x2="1104.00" y2="896.00" />
<line x1="1104.00" y1="1120.00" x2="1104.00" y2="1136.00" />
<line x1="832.00" y1="768.00" x2="832.00" y2="784.00" />
<line x1="832.00" y1="992.00" x2="832.00" y2="1056.00" />
<line x1="832.00" y1="1072.00" x2="832.00" y2="1088.00" />
<line x1="864.00" y1="768.00" x2="864.00" y2="784.00" />
<line x1="864.00" y1="800.00" x2="864.00" y2="816.00" />
<line x1="848.00" y1="784.00" x2="848.00" y2="800.00" />
<line x1="848.00" y1="976.00" x2="848.00" y2="1008.00" />
<line x1="880.00" y1="784.00" x2="880.00" y2="800.00" />
<line x1="880.00" y1="816.00" x2="880.00" y2="832.00" />
<line x1="880.00" y1="1008.00" x2="880.00" y2="1024.00" />
<line x1="1408.00" y1="784.00" x2="1408.00" y2="928.00" />
<line x1="640.00" y1="800.00" x2="640.00" y2="832.00" />
<line x1="640.00" y1="1200.00" x2="640.00" y2="1248.00" />
<line x1="640.00" y1="1280.00" x2="640.00" y2="1328.00" />
<line x1="96.00" y1="816.00" x2="96.00" y2="832.00" />
<line x1="96.00" y1="912.00" x2="96.00" y2="928.00" />
<line x1="96.00" y1="992.00" x2="96.00" y2="1168.00" />
<line x1="80.00" y1="832.00" x2="80.00" y2="912.00" />
<line x1="1280.00" y1="928.00" x2="1280.00" y2="960.00" />
<line x1="1360.00" y1="928.00" x2="1360.00" y2="976.00" />
<line x1="1360.00" y1="1104.00" x2="1360.00" y2="1424.00" />
<line x1="1376.00" y1="928.00" x2="1376.00" y2="976.00" />
<line x1="1376.00" y1="1104.00" x2="1376.00" y2="1440.00" />
<line x1="1248.00" y1="960.00" x2="1248.00" y2="992.00" />
<line x1="1248.00" y1="1168.00" x2="1248.00" y2="1360.00" />
<line x1="1120.00" y1="1104.00" x2="1120.00" y2="1120.00" />
<line x1="1120.00" y1="1136.00" x2="1120.00" y2="1152.00" />
  </g>
  <g class="features">
<g data-feature-type="stairsDown"><line data-feature-type="stairsDown" x1="1058.24" y1="1011.36" x2="1069.76" y2="1011.36" /><line x1="1058.65" y1="1013.68" x2="1069.35" y2="1013.68" /><line x1="1059.07" y1="1016.00" x2="1068.93" y2="1016.00" /><line x1="1059.48" y1="1018.32" x2="1068.52" y2="1018.32" /><line x1="1059.90" y1="1020.64" x2="1068.10" y2="1020.64" /></g>
<g data-feature-type="stairsUp"><line data-feature-type="stairsUp" x1="979.90" y1="147.36" x2="988.10" y2="147.36" /><line x1="979.48" y1="149.68" x2="988.52" y2="149.68" /><line x1="979.07" y1="152.00" x2="988.93" y2="152.00" /><line x1="978.65" y1="154.32" x2="989.35" y2="154.32" /><line x1="978.24" y1="156.64" x2="989.76" y2="156.64" /></g>
<g data-feature-type="trap"><rect x="468.64" y="676.64" width="6.72" height="6.72" fill="none" /><line x1="468.64" y1="676.64" x2="475.36" y2="683.36" /><line x1="468.64" y1="683.36" x2="475.36" y2="676.64" /></g>
<g data-feature-type="chest"><rect x="437.28" y="598.24" width="5.44" height="3.52" fill="none" /><line x1="437.28" y1="600.00" x2="442.72" y2="600.00" /><circle cx="440.00" cy="600.18" r="0.70" fill="#5c92ab" stroke="none" /></g>
<circle data-feature-type="pillar" cx="1384.00" cy="856.00" r="3.68" fill="#5c92ab" stroke="none" />
<circle data-feature-type="pillar" cx="1096.00" cy="1016.00" r="3.68" fill="#5c92ab" stroke="none" />
<circle data-feature-type="pillar" cx="584.00" cy="1160.00" r="3.68" fill="#5c92ab" stroke="none" />
<g data-feature-type="well"><circle cx="568.00" cy="1176.00" r="4.00" fill="none" /><circle cx="568.00" cy="1176.00" r="2.24" fill="none" /></g>
<circle data-feature-type="pillar" cx="440.00" cy="296.00" r="3.68" fill="#5c92ab" stroke="none" />
<circle data-feature-type="pillar" cx="1336.00" cy="424.00" r="3.68" fill="#5c92ab" stroke="none" />
<circle data-feature-type="pillar" cx="1352.00" cy="456.00" r="3.68" fill="#5c92ab" stroke="none" />
<circle data-feature-type="pillar" cx="1304.00" cy="456.00" r="3.68" fill="#5c92ab" stroke="none" />
<g data-feature-type="well"><circle cx="1272.00" cy="472.00" r="4.00" fill="none" /><circle cx="1272.00" cy="472.00" r="2.24" fill="none" /></g>
<circle data-feature-type="pillar" cx="216.00" cy="1240.00" r="3.68" fill="#5c92ab" stroke="none" />
<g data-feature-type="statue"><circle cx="184.00" cy="1224.00" r="3.52" fill="none" /><line x1="181.76" y1="1224.00" x2="186.24" y2="1224.00" /><line x1="184.00" y1="1221.76" x2="184.00" y2="1226.24" /><line x1="182.39" y1="1222.39" x2="185.61" y2="1225.61" /><line x1="182.39" y1="1225.61" x2="185.61" y2="1222.39" /></g>
<circle data-feature-type="pillar" cx="920.00" cy="1064.00" r="3.68" fill="#5c92ab" stroke="none" />
<g data-feature-type="statue"><circle cx="888.00" cy="1064.00" r="3.52" fill="none" /><line x1="885.76" y1="1064.00" x2="890.24" y2="1064.00" /><line x1="888.00" y1="1061.76" x2="888.00" y2="1066.24" /><line x1="886.39" y1="1062.39" x2="889.61" y2="1065.61" /><line x1="886.39" y1="1065.61" x2="889.61" y2="1062.39" /></g>
<g data-feature-type="trap"><rect x="884.64" y="1044.64" width="6.72" height="6.72" fill="none" /><line x1="884.64" y1="1044.64" x2="891.36" y2="1051.36" /><line x1="884.64" y1="1051.36" x2="891.36" y2="1044.64" /></g>
<circle data-feature-type="pillar" cx="728.00" cy="1432.00" r="3.68" fill="#5c92ab" stroke="none" />
<circle data-feature-type="pillar" cx="1000.00" cy="1256.00" r="3.68" fill="#5c92ab" stroke="none" />
<circle data-feature-type="pillar" cx="968.00" cy="1256.00" r="3.68" fill="#5c92ab" stroke="none" />
<g data-feature-type="trap"><rect x="1076.64" y="868.64" width="6.72" height="6.72" fill="none" /><line x1="1076.64" y1="868.64" x2="1083.36" y2="875.36" /><line x1="1076.64" y1="875.36" x2="1083.36" y2="868.64" /></g>
<circle data-feature-type="pillar" cx="952.00" cy="184.00" r="3.68" fill="#5c92ab" stroke="none" />
<circle data-feature-type="pillar" cx="1016.00" cy="152.00" r="3.68" fill="#5c92ab" stroke="none" />
<circle data-feature-type="pillar" cx="1016.00" cy="184.00" r="3.68" fill="#5c92ab" stroke="none" />
<g data-feature-type="statue"><circle cx="1016.00" cy="136.00" r="3.52" fill="none" /><line x1="1013.76" y1="136.00" x2="1018.24" y2="136.00" /><line x1="1016.00" y1="133.76" x2="1016.00" y2="138.24" /><line x1="1014.39" y1="134.39" x2="1017.61" y2="137.61" /><line x1="1014.39" y1="137.61" x2="1017.61" y2="134.39" /></g>
<g data-feature-type="altar"><rect x="229.28" y="1126.40" width="5.44" height="3.20" fill="none" /><line x1="232.00" y1="1125.44" x2="232.00" y2="1130.56" /><line x1="230.40" y1="1128.00" x2="233.60" y2="1128.00" /></g>
<circle data-feature-type="pillar" cx="1192.00" cy="328.00" r="3.68" fill="#5c92ab" stroke="none" />
<g data-feature-type="well"><circle cx="1176.00" cy="280.00" r="4.00" fill="none" /><circle cx="1176.00" cy="280.00" r="2.24" fill="none" /></g>
<path data-feature-type="curtain" d="M 1158.40 339.84 Q 1160.00 342.34 1158.40 344.00 Q 1160.00 345.66 1158.40 348.16" fill="none" /><path d="M 1161.60 339.84 Q 1160.00 342.34 1161.60 344.00 Q 1160.00 345.66 1161.60 348.16" fill="none" />
<circle data-feature-type="pillar" cx="1208.00" cy="136.00" r="3.68" fill="#5c92ab" stroke="none" />
<g data-feature-type="statue"><circle cx="168.00" cy="1448.00" r="3.52" fill="none" /><line x1="165.76" y1="1448.00" x2="170.24" y2="1448.00" /><line x1="168.00" y1="1445.76" x2="168.00" y2="1450.24" /><line x1="166.39" y1="1446.39" x2="169.61" y2="1449.61" /><line x1="166.39" y1="1449.61" x2="169.61" y2="1446.39" /></g>
<circle data-feature-type="pillar" cx="616.00" cy="120.00" r="3.68" fill="#5c92ab" stroke="none" />
<g data-feature-type="trap"><rect x="564.64" y="132.64" width="6.72" height="6.72" fill="none" /><line x1="564.64" y1="132.64" x2="571.36" y2="139.36" /><line x1="564.64" y1="139.36" x2="571.36" y2="132.64" /></g>
<g data-feature-type="coffin"><rect x="581.60" y="132.32" width="4.80" height="7.36" rx="0.80" ry="0.80" fill="none" /><line x1="584.00" y1="133.94" x2="584.00" y2="138.06" /></g>
<circle data-feature-type="pillar" cx="200.00" cy="440.00" r="3.68" fill="#5c92ab" stroke="none" />
<circle data-feature-type="pillar" cx="200.00" cy="392.00" r="3.68" fill="#5c92ab" stroke="none" />
<circle data-feature-type="pillar" cx="184.00" cy="696.00" r="3.68" fill="#5c92ab" stroke="none" />
<g data-feature-type="trap"><rect x="132.64" y="708.64" width="6.72" height="6.72" fill="none" /><line x1="132.64" y1="708.64" x2="139.36" y2="715.36" /><line x1="132.64" y1="715.36" x2="139.36" y2="708.64" /></g>
<circle data-feature-type="pillar" cx="472.00" cy="984.00" r="3.68" fill="#5c92ab" stroke="none" />
<circle data-feature-type="pillar" cx="424.00" cy="984.00" r="3.68" fill="#5c92ab" stroke="none" />
<g data-feature-type="trap"><rect x="420.64" y="964.64" width="6.72" height="6.72" fill="none" /><line x1="420.64" y1="964.64" x2="427.36" y2="971.36" /><line x1="420.64" y1="971.36" x2="427.36" y2="964.64" /></g>
<circle data-feature-type="pillar" cx="616.00" cy="984.00" r="3.68" fill="#5c92ab" stroke="none" />
<g data-feature-type="statue"><circle cx="632.00" cy="968.00" r="3.52" fill="none" /><line x1="629.76" y1="968.00" x2="634.24" y2="968.00" /><line x1="632.00" y1="965.76" x2="632.00" y2="970.24" /><line x1="630.39" y1="966.39" x2="633.61" y2="969.61" /><line x1="630.39" y1="969.61" x2="633.61" y2="966.39" /></g>
<g data-feature-type="trap"><rect x="612.64" y="1012.64" width="6.72" height="6.72" fill="none" /><line x1="612.64" y1="1012.64" x2="619.36" y2="1019.36" /><line x1="612.64" y1="1019.36" x2="619.36" y2="1012.64" /></g>
<circle data-feature-type="pillar" cx="120.00" cy="1080.00" r="3.68" fill="#5c92ab" stroke="none" />
<circle data-feature-type="pillar" cx="872.00" cy="552.00" r="3.68" fill="#5c92ab" stroke="none" />
<g data-feature-type="well"><circle cx="840.00" cy="552.00" r="4.00" fill="none" /><circle cx="840.00" cy="552.00" r="2.24" fill="none" /></g>
<circle data-feature-type="pillar" cx="232.00" cy="600.00" r="3.68" fill="#5c92ab" stroke="none" />
<circle data-feature-type="pillar" cx="600.00" cy="568.00" r="3.68" fill="#5c92ab" stroke="none" />
<g data-feature-type="statue"><circle cx="696.00" cy="1240.00" r="3.52" fill="none" /><line x1="693.76" y1="1240.00" x2="698.24" y2="1240.00" /><line x1="696.00" y1="1237.76" x2="696.00" y2="1242.24" /><line x1="694.39" y1="1238.39" x2="697.61" y2="1241.61" /><line x1="694.39" y1="1241.61" x2="697.61" y2="1238.39" /></g>
<circle data-feature-type="pillar" cx="360.00" cy="1240.00" r="3.68" fill="#5c92ab" stroke="none" />
<g data-feature-type="trap"><rect x="1300.64" y="548.64" width="6.72" height="6.72" fill="none" /><line x1="1300.64" y1="548.64" x2="1307.36" y2="555.36" /><line x1="1300.64" y1="555.36" x2="1307.36" y2="548.64" /></g>
<circle data-feature-type="pillar" cx="136.00" cy="872.00" r="3.68" fill="#5c92ab" stroke="none" />
<circle data-feature-type="pillar" cx="184.00" cy="872.00" r="3.68" fill="#5c92ab" stroke="none" />
<g data-feature-type="statue"><circle cx="120.00" cy="872.00" r="3.52" fill="none" /><line x1="117.76" y1="872.00" x2="122.24" y2="872.00" /><line x1="120.00" y1="869.76" x2="120.00" y2="874.24" /><line x1="118.39" y1="870.39" x2="121.61" y2="873.61" /><line x1="118.39" y1="873.61" x2="121.61" y2="870.39" /></g>
  </g>
  <g class="thresholds">
<g data-threshold-type="locked" stroke="#5c92ab" fill="none" stroke-width="1.52"><rect x="515.52" y="693.76" width="8.96" height="4.48" fill="#ffffff" /><circle cx="520.00" cy="692.77" r="1.61" /></g>
<g data-threshold-type="secret"><line x1="1315.52" y1="808.00" x2="1324.48" y2="808.00" stroke="#5c92ab" stroke-width="1.31" stroke-dasharray="1.31 1.31" /><text x="1325.56" y="807.10" font-size="5.44" fill="#5c92ab" font-family="Courier New, monospace" font-weight="700">S</text></g>
<rect data-threshold-type="door" x="1155.52" y="1013.76" width="8.96" height="4.48" fill="#ffffff" stroke="#5c92ab" stroke-width="1.52" />
<rect data-threshold-type="door" x="563.52" y="1077.76" width="8.96" height="4.48" fill="#ffffff" stroke="#5c92ab" stroke-width="1.52" />
<rect data-threshold-type="door" x="483.52" y="293.76" width="8.96" height="4.48" fill="#ffffff" stroke="#5c92ab" stroke-width="1.52" />
<rect data-threshold-type="door" x="1235.52" y="437.76" width="8.96" height="4.48" fill="#ffffff" stroke="#5c92ab" stroke-width="1.52" />
<rect data-threshold-type="door" x="259.52" y="1253.76" width="8.96" height="4.48" fill="#ffffff" stroke="#5c92ab" stroke-width="1.52" />
<rect data-threshold-type="door" x="963.52" y="1077.76" width="8.96" height="4.48" fill="#ffffff" stroke="#5c92ab" stroke-width="1.52" />
<rect data-threshold-type="door" x="659.52" y="1445.76" width="8.96" height="4.48" fill="#ffffff" stroke="#5c92ab" stroke-width="1.52" />
<rect data-threshold-type="door" x="1043.52" y="1333.76" width="8.96" height="4.48" fill="#ffffff" stroke="#5c92ab" stroke-width="1.52" />
<rect data-threshold-type="door" x="1043.52" y="1205.76" width="8.96" height="4.48" fill="#ffffff" stroke="#5c92ab" stroke-width="1.52" />
<rect data-threshold-type="door" x="1091.52" y="869.76" width="8.96" height="4.48" fill="#ffffff" stroke="#5c92ab" stroke-width="1.52" />
<rect data-threshold-type="door" x="899.52" y="117.76" width="8.96" height="4.48" fill="#ffffff" stroke="#5c92ab" stroke-width="1.52" />
<g data-threshold-type="secret"><line x1="179.52" y1="1080.00" x2="188.48" y2="1080.00" stroke="#5c92ab" stroke-width="1.31" stroke-dasharray="1.31 1.31" /><text x="189.56" y="1079.10" font-size="5.44" fill="#5c92ab" font-family="Courier New, monospace" font-weight="700">S</text></g>
<rect data-threshold-type="door" x="1171.52" y="389.76" width="8.96" height="4.48" fill="#ffffff" stroke="#5c92ab" stroke-width="1.52" />
<rect data-threshold-type="door" x="1187.52" y="197.76" width="8.96" height="4.48" fill="#ffffff" stroke="#5c92ab" stroke-width="1.52" />
<rect data-threshold-type="door" x="1283.52" y="1445.76" width="8.96" height="4.48" fill="#ffffff" stroke="#5c92ab" stroke-width="1.52" />
<rect data-threshold-type="door" x="259.52" y="1445.76" width="8.96" height="4.48" fill="#ffffff" stroke="#5c92ab" stroke-width="1.52" />
<rect data-threshold-type="door" x="531.52" y="117.76" width="8.96" height="4.48" fill="#ffffff" stroke="#5c92ab" stroke-width="1.52" />
<rect data-threshold-type="door" x="1315.52" y="1045.76" width="8.96" height="4.48" fill="#ffffff" stroke="#5c92ab" stroke-width="1.52" />
<g data-threshold-type="locked" stroke="#5c92ab" fill="none" stroke-width="1.52"><rect x="259.52" y="421.76" width="8.96" height="4.48" fill="#ffffff" /><circle cx="264.00" cy="420.77" r="1.61" /></g>
<rect data-threshold-type="door" x="899.52" y="741.76" width="8.96" height="4.48" fill="#ffffff" stroke="#5c92ab" stroke-width="1.52" />
<rect data-threshold-type="door" x="131.52" y="661.76" width="8.96" height="4.48" fill="#ffffff" stroke="#5c92ab" stroke-width="1.52" />
<rect data-threshold-type="door" x="483.52" y="981.76" width="8.96" height="4.48" fill="#ffffff" stroke="#5c92ab" stroke-width="1.52" />
<rect data-threshold-type="door" x="643.52" y="1045.76" width="8.96" height="4.48" fill="#ffffff" stroke="#5c92ab" stroke-width="1.52" />
<rect data-threshold-type="door" x="147.52" y="1077.76" width="8.96" height="4.48" fill="#ffffff" stroke="#5c92ab" stroke-width="1.52" />
<rect data-threshold-type="door" x="771.52" y="581.76" width="8.96" height="4.48" fill="#ffffff" stroke="#5c92ab" stroke-width="1.52" />
<rect data-threshold-type="door" x="163.52" y="565.76" width="8.96" height="4.48" fill="#ffffff" stroke="#5c92ab" stroke-width="1.52" />
<rect data-threshold-type="door" x="547.52" y="581.76" width="8.96" height="4.48" fill="#ffffff" stroke="#5c92ab" stroke-width="1.52" />
<g data-threshold-type="locked" stroke="#5c92ab" fill="none" stroke-width="1.52"><rect x="755.52" y="1253.76" width="8.96" height="4.48" fill="#ffffff" /><circle cx="760.00" cy="1252.77" r="1.61" /></g>
<rect data-threshold-type="door" x="339.52" y="1253.76" width="8.96" height="4.48" fill="#ffffff" stroke="#5c92ab" stroke-width="1.52" />
<rect data-threshold-type="door" x="1315.52" y="629.76" width="8.96" height="4.48" fill="#ffffff" stroke="#5c92ab" stroke-width="1.52" />
<rect data-threshold-type="door" x="211.52" y="821.76" width="8.96" height="4.48" fill="#ffffff" stroke="#5c92ab" stroke-width="1.52" />
  </g>
  <g class="labels">
<text x="472.00" y="649.92" text-anchor="middle">1</text>
<text x="1368.00" y="857.92" text-anchor="middle">2</text>
<text x="1080.00" y="1017.92" text-anchor="middle">3</text>
<text x="568.00" y="1161.92" text-anchor="middle">4</text>
<text x="424.00" y="297.92" text-anchor="middle">5</text>
<text x="1320.00" y="441.92" text-anchor="middle">6</text>
<text x="200.00" y="1241.92" text-anchor="middle">7</text>
<text x="904.00" y="1065.92" text-anchor="middle">8</text>
<text x="712.00" y="1433.92" text-anchor="middle">9</text>
<text x="1048.00" y="1369.92" text-anchor="middle">10</text>
<text x="984.00" y="1257.92" text-anchor="middle">11</text>
<text x="1080.00" y="825.92" text-anchor="middle">12</text>
<text x="984.00" y="169.92" text-anchor="middle">13</text>
<text x="216.00" y="1065.92" text-anchor="middle">14</text>
<text x="1176.00" y="329.92" text-anchor="middle">15</text>
<text x="1192.00" y="137.92" text-anchor="middle">16</text>
<text x="1256.00" y="1417.92" text-anchor="middle">17</text>
<text x="200.00" y="1449.92" text-anchor="middle">18</text>
<text x="600.00" y="121.92" text-anchor="middle">19</text>
<text x="1352.00" y="1049.92" text-anchor="middle">20</text>
<text x="200.00" y="425.92" text-anchor="middle">21</text>
<text x="856.00" y="713.92" text-anchor="middle">22</text>
<text x="168.00" y="697.92" text-anchor="middle">23</text>
<text x="456.00" y="985.92" text-anchor="middle">24</text>
<text x="600.00" y="985.92" text-anchor="middle">25</text>
<text x="136.00" y="1081.92" text-anchor="middle">26</text>
<text x="856.00" y="553.92" text-anchor="middle">27</text>
<text x="216.00" y="601.92" text-anchor="middle">28</text>
<text x="584.00" y="569.92" text-anchor="middle">29</text>
<text x="712.00" y="1273.92" text-anchor="middle">30</text>
<text x="344.00" y="1241.92" text-anchor="middle">31</text>
<text x="1304.00" y="585.92" text-anchor="middle">32</text>
<text x="168.00" y="873.92" text-anchor="middle">33</text>
  </g>
</svg>