<?xml version="1.0" encoding="UTF-8"?>
<svg xmlns="http://www.w3.org/2000/svg" width="1488" height="1536" viewBox="0 0 1488.00 1536.00" role="img" aria-label="MapIR render: Learned Generated Map 2">
  <defs>
    <style>
      .grid { stroke: #d7e7ef; stroke-width: 0.64; opacity: 0.72; }
      .walls { stroke: #6fa8c1; stroke-width: 1.92; fill: none; stroke-linecap: square; }
      .thresholds { fill: none; stroke-linecap: round; }
      .features { stroke: #5c92ab; fill: none; stroke-width: 1.60; stroke-linecap: round; stroke-linejoin: round; }
      .labels { fill: #5c92ab; font-size: 7.20px; font-family: "Courier New", monospace; font-weight: 600; }
    </style>
  </defs>
  <rect x="0" y="0" width="1488.00" height="1536.00" fill="#5d9fbc" />
  <g class="floors">
<rect x="512.00" y="32.00" width="176.00" height="112.00" fill="#fbfdfe" />
<rect x="1008.00" y="64.00" width="96.00" height="128.00" fill="#fbfdfe" />
<rect x="1168.00" y="64.00" width="112.00" height="192.00" fill="#fbfdfe" />
<rect x="256.00" y="112.00" width="160.00" height="144.00" fill="#fbfdfe" />
<rect x="176.00" y="128.00" width="80.00" height="16.00" fill="#fbfdfe" />
<rect x="416.00" y="128.00" width="96.00" height="16.00" fill="#fbfdfe" />
<rect x="688.00" y="128.00" width="320.00" height="16.00" fill="#fbfdfe" />
<rect x="80.00" y="144.00" width="48.00" height="128.00" fill="#fbfdfe" />
<rect x="160.00" y="144.00" width="32.00" height="16.00" fill="#fbfdfe" />
<rect x="592.00" y="144.00" width="16.00" height="208.00" fill="#fbfdfe" />
<rect x="144.00" y="160.00" width="32.00" height="16.00" fill="#fbfdfe" />
<rect x="960.00" y="160.00" width="48.00" height="16.00" fill="#fbfdfe" />
<rect x="1104.00" y="160.00" width="64.00" height="16.00" fill="#fbfdfe" />
<rect x="128.00" y="176.00" width="32.00" height="16.00" fill="#fbfdfe" />
<rect x="176.00" y="176.00" width="80.00" height="16.00" fill="#fbfdfe" />
<rect x="960.00" y="176.00" width="16.00" height="1216.00" fill="#fbfdfe" />
<rect x="128.00" y="192.00" width="16.00" height="16.00" fill="#fbfdfe" />
<rect x="176.00" y="192.00" width="16.00" height="1280.00" fill="#fbfdfe" />
<rect x="1056.00" y="192.00" width="16.00" height="912.00" fill="#fbfdfe" />
<rect x="336.00" y="256.00" width="16.00" height="544.00" fill="#fbfdfe" />
<rect x="608.00" y="272.00" width="48.00" height="80.00" fill="#fbfdfe" />
<rect x="144.00" y="288.00" width="32.00" height="112.00" fill="#fbfdfe" />
<rect x="192.00" y="288.00" width="96.00" height="112.00" fill="#fbfdfe" />
<rect x="480.00" y="304.00" width="112.00" height="16.00" fill="#fbfdfe" />
<rect x="656.00" y="304.00" width="224.00" height="16.00" fill="#fbfdfe" />
<rect x="480.00" y="320.00" width="16.00" height="304.00" fill="#fbfdfe" />
<rect x="720.00" y="320.00" width="16.00" height="656.00" fill="#fbfdfe" />
<rect x="864.00" y="320.00" width="16.00" height="576.00" fill="#fbfdfe" />
<rect x="288.00" y="336.00" width="48.00" height="16.00" fill="#fbfdfe" />
<rect x="352.00" y="336.00" width="128.00" height="16.00" fill="#fbfdfe" />
<rect x="496.00" y="336.00" width="96.00" height="16.00" fill="#fbfdfe" />
<rect x="352.00" y="352.00" width="16.00" height="48.00" fill="#fbfdfe" />
<rect x="624.00" y="352.00" width="16.00" height="688.00" fill="#fbfdfe" />
<rect x="1200.00" y="352.00" width="112.00" height="64.00" fill="#fbfdfe" />
<rect x="368.00" y="384.00" width="16.00" height="32.00" fill="#fbfdfe" />
<rect x="256.00" y="400.00" width="48.00" height="16.00" fill="#fbfdfe" />
<rect x="384.00" y="400.00" width="16.00" height="32.00" fill="#fbfdfe" />
<rect x="288.00" y="416.00" width="32.00" height="16.00" fill="#fbfdfe" />
<rect x="400.00" y="416.00" width="16.00" height="32.00" fill="#fbfdfe" />
<rect x="1200.00" y="416.00" width="64.00" height="16.00" fill="#fbfdfe" />
<rect x="304.00" y="432.00" width="32.00" height="16.00" fill="#fbfdfe" />
<rect x="416.00" y="432.00" width="16.00" height="32.00" fill="#fbfdfe" />
<rect x="448.00" y="432.00" width="32.00" height="160.00" fill="#fbfdfe" />
<rect x="496.00" y="432.00" width="16.00" height="160.00" fill="#fbfdfe" />
<rect x="1184.00" y="432.00" width="32.00" height="16.00" fill="#fbfdfe" />
<rect x="1248.00" y="432.00" width="16.00" height="672.00" fill="#fbfdfe" />
<rect x="320.00" y="448.00" width="16.00" height="16.00" fill="#fbfdfe" />
<rect x="432.00" y="448.00" width="16.00" height="16.00" fill="#fbfdfe" />
<rect x="1168.00" y="448.00" width="32.00" height="16.00" fill="#fbfdfe" />
<rect x="352.00" y="464.00" width="16.00" height="48.00" fill="#fbfdfe" />
<rect x="1168.00" y="464.00" width="16.00" height="32.00" fill="#fbfdfe" />
<rect x="1152.00" y="480.00" width="16.00" height="32.00" fill="#fbfdfe" />
<rect x="368.00" y="496.00" width="16.00" height="32.00" fill="#fbfdfe" />
<rect x="1120.00" y="496.00" width="32.00" height="16.00" fill="#fbfdfe" />
<rect x="1312.00" y="496.00" width="32.00" height="176.00" fill="#fbfdfe" />
<rect x="384.00" y="512.00" width="16.00" height="528.00" fill="#fbfdfe" />
<rect x="1104.00" y="512.00" width="32.00" height="16.00" fill="#fbfdfe" />
<rect x="1280.00" y="512.00" width="32.00" height="144.00" fill="#fbfdfe" />
<rect x="1344.00" y="512.00" width="32.00" height="144.00" fill="#fbfdfe" />
<rect x="192.00" y="528.00" width="144.00" height="80.00" fill="#fbfdfe" />
<rect x="400.00" y="528.00" width="16.00" height="64.00" fill="#fbfdfe" />
<rect x="1088.00" y="528.00" width="32.00" height="16.00" fill="#fbfdfe" />
<rect x="1264.00" y="528.00" width="16.00" height="112.00" fill="#fbfdfe" />
<rect x="1376.00" y="528.00" width="16.00" height="112.00" fill="#fbfdfe" />
<rect x="368.00" y="544.00" width="16.00" height="48.00" fill="#fbfdfe" />
<rect x="416.00" y="544.00" width="32.00" height="48.00" fill="#fbfdfe" />
<rect x="784.00" y="544.00" width="64.00" height="160.00" fill="#fbfdfe" />
<rect x="1072.00" y="544.00" width="32.00" height="16.00" fill="#fbfdfe" />
<rect x="512.00" y="560.00" width="112.00" height="32.00" fill="#fbfdfe" />
<rect x="1072.00" y="560.00" width="16.00" height="32.00" fill="#fbfdfe" />
<rect x="1392.00" y="560.00" width="16.00" height="48.00" fill="#fbfdfe" />
<rect x="640.00" y="576.00" width="80.00" height="16.00" fill="#fbfdfe" />
<rect x="736.00" y="576.00" width="48.00" height="16.00" fill="#fbfdfe" />
<rect x="848.00" y="576.00" width="16.00" height="16.00" fill="#fbfdfe" />
<rect x="880.00" y="576.00" width="80.00" height="16.00" fill="#fbfdfe" />
<rect x="976.00" y="576.00" width="80.00" height="16.00" fill="#fbfdfe" />
<rect x="1088.00" y="576.00" width="160.00" height="16.00" fill="#fbfdfe" />
<rect x="464.00" y="592.00" width="16.00" height="16.00" fill="#fbfdfe" />
<rect x="576.00" y="592.00" width="16.00" height="880.00" fill="#fbfdfe" />
<rect x="1040.00" y="592.00" width="16.00" height="32.00" fill="#fbfdfe" />
<rect x="304.00" y="608.00" width="16.00" height="32.00" fill="#fbfdfe" />
<rect x="496.00" y="608.00" width="16.00" height="32.00" fill="#fbfdfe" />
<rect x="608.00" y="608.00" width="16.00" height="96.00" fill="#fbfdfe" />
<rect x="640.00" y="608.00" width="32.00" height="96.00" fill="#fbfdfe" />
<rect x="1008.00" y="608.00" width="32.00" height="16.00" fill="#fbfdfe" />
<rect x="320.00" y="624.00" width="16.00" height="32.00" fill="#fbfdfe" />
<rect x="512.00" y="624.00" width="16.00" height="32.00" fill="#fbfdfe" />
<rect x="592.00" y="624.00" width="16.00" height="64.00" fill="#fbfdfe" />
<rect x="672.00" y="624.00" width="16.00" height="64.00" fill="#fbfdfe" />
<rect x="992.00" y="624.00" width="32.00" height="16.00" fill="#fbfdfe" />
<rect x="352.00" y="640.00" width="16.00" height="32.00" fill="#fbfdfe" />
<rect x="528.00" y="640.00" width="16.00" height="32.00" fill="#fbfdfe" />
<rect x="688.00" y="640.00" width="16.00" height="32.00" fill="#fbfdfe" />
<rect x="992.00" y="640.00" width="16.00" height="32.00" fill="#fbfdfe" />
<rect x="368.00" y="656.00" width="16.00" height="48.00" fill="#fbfdfe" />
<rect x="544.00" y="656.00" width="32.00" height="16.00" fill="#fbfdfe" />
<rect x="976.00" y="656.00" width="16.00" height="16.00" fill="#fbfdfe" />
<rect x="400.00" y="688.00" width="16.00" height="32.00" fill="#fbfdfe" />
<rect x="928.00" y="688.00" width="32.00" height="16.00" fill="#fbfdfe" />
<rect x="416.00" y="704.00" width="16.00" height="48.00" fill="#fbfdfe" />
<rect x="640.00" y="704.00" width="16.00" height="768.00" fill="#fbfdfe" />
<rect x="816.00" y="704.00" width="16.00" height="608.00" fill="#fbfdfe" />
<rect x="928.00" y="704.00" width="16.00" height="32.00" fill="#fbfdfe" />
<rect x="448.00" y="720.00" width="64.00" height="128.00" fill="#fbfdfe" />
<rect x="896.00" y="720.00" width="32.00" height="16.00" fill="#fbfdfe" />
<rect x="432.00" y="736.00" width="16.00" height="16.00" fill="#fbfdfe" />
<rect x="880.00" y="736.00" width="32.00" height="80.00" fill="#fbfdfe" />
<rect x="912.00" y="752.00" width="48.00" height="64.00" fill="#fbfdfe" />
<rect x="976.00" y="752.00" width="80.00" height="64.00" fill="#fbfdfe" />
<rect x="1312.00" y="752.00" width="144.00" height="96.00" fill="#fbfdfe" />
<rect x="848.00" y="768.00" width="16.00" height="48.00" fill="#fbfdfe" />
<rect x="192.00" y="784.00" width="144.00" height="16.00" fill="#fbfdfe" />
<rect x="352.00" y="784.00" width="32.00" height="16.00" fill="#fbfdfe" />
<rect x="400.00" y="784.00" width="48.00" height="16.00" fill="#fbfdfe" />
<rect x="512.00" y="784.00" width="64.00" height="32.00" fill="#fbfdfe" />
<rect x="592.00" y="784.00" width="32.00" height="32.00" fill="#fbfdfe" />
<rect x="656.00" y="784.00" width="64.00" height="32.00" fill="#fbfdfe" />
<rect x="736.00" y="784.00" width="80.00" height="32.00" fill="#fbfdfe" />
<rect x="832.00" y="784.00" width="16.00" height="48.00" fill="#fbfdfe" />
<rect x="1072.00" y="784.00" width="176.00" height="32.00" fill="#fbfdfe" />
<rect x="1264.00" y="784.00" width="48.00" height="32.00" fill="#fbfdfe" />
<rect x="512.00" y="816.00" width="32.00" height="16.00" fill="#fbfdfe" />
<rect x="704.00" y="816.00" width="16.00" height="160.00" fill="#fbfdfe" />
<rect x="736.00" y="816.00" width="16.00" height="160.00" fill="#fbfdfe" />
<rect x="528.00" y="832.00" width="16.00" height="32.00" fill="#fbfdfe" />
<rect x="784.00" y="832.00" width="32.00" height="64.00" fill="#fbfdfe" />
<rect x="544.00" y="848.00" width="16.00" height="32.00" fill="#fbfdfe" />
<rect x="768.00" y="848.00" width="16.00" height="48.00" fill="#fbfdfe" />
<rect x="832.00" y="848.00" width="32.00" height="48.00" fill="#fbfdfe" />
<rect x="880.00" y="848.00" width="80.00" height="48.00" fill="#fbfdfe" />
<rect x="1376.00" y="848.00" width="16.00" height="576.00" fill="#fbfdfe" />
<rect x="560.00" y="864.00" width="16.00" height="32.00" fill="#fbfdfe" />
<rect x="592.00" y="880.00" width="16.00" height="32.00" fill="#fbfdfe" />
<rect x="752.00" y="880.00" width="16.00" height="32.00" fill="#fbfdfe" />
<rect x="160.00" y="896.00" width="16.00" height="144.00" fill="#fbfdfe" />
<rect x="192.00" y="896.00" width="64.00" height="144.00" fill="#fbfdfe" />
<rect x="608.00" y="896.00" width="16.00" height="48.00" fill="#fbfdfe" />
<rect x="144.00" y="912.00" width="16.00" height="112.00" fill="#fbfdfe" />
<rect x="256.00" y="912.00" width="16.00" height="112.00" fill="#fbfdfe" />
<rect x="128.00" y="928.00" width="16.00" height="96.00" fill="#fbfdfe" />
<rect x="272.00" y="928.00" width="16.00" height="96.00" fill="#fbfdfe" />
<rect x="688.00" y="944.00" width="16.00" height="96.00" fill="#fbfdfe" />
<rect x="1024.00" y="944.00" width="32.00" height="160.00" fill="#fbfdfe" />
<rect x="1072.00" y="944.00" width="16.00" height="160.00" fill="#fbfdfe" />
<rect x="1280.00" y="944.00" width="96.00" height="176.00" fill="#fbfdfe" />
<rect x="1392.00" y="944.00" width="16.00" height="176.00" fill="#fbfdfe" />
<rect x="288.00" y="960.00" width="96.00" height="16.00" fill="#fbfdfe" />
<rect x="400.00" y="960.00" width="176.00" height="16.00" fill="#fbfdfe" />
<rect x="592.00" y="960.00" width="32.00" height="16.00" fill="#fbfdfe" />
<rect x="656.00" y="960.00" width="32.00" height="32.00" fill="#fbfdfe" />
<rect x="752.00" y="960.00" width="64.00" height="16.00" fill="#fbfdfe" />
<rect x="832.00" y="960.00" width="128.00" height="16.00" fill="#fbfdfe" />
<rect x="976.00" y="960.00" width="48.00" height="16.00" fill="#fbfdfe" />
<rect x="1088.00" y="960.00" width="160.00" height="16.00" fill="#fbfdfe" />
<rect x="1264.00" y="960.00" width="16.00" height="144.00" fill="#fbfdfe" />
<rect x="1408.00" y="960.00" width="16.00" height="144.00" fill="#fbfdfe" />
<rect x="1424.00" y="976.00" width="16.00" height="112.00" fill="#fbfdfe" />
<rect x="32.00" y="992.00" width="48.00" height="192.00" fill="#fbfdfe" />
<rect x="304.00" y="992.00" width="80.00" height="48.00" fill="#fbfdfe" />
<rect x="400.00" y="992.00" width="64.00" height="48.00" fill="#fbfdfe" />
<rect x="656.00" y="992.00" width="16.00" height="48.00" fill="#fbfdfe" />
<rect x="80.00" y="1008.00" width="48.00" height="16.00" fill="#fbfdfe" />
<rect x="288.00" y="1008.00" width="16.00" height="16.00" fill="#fbfdfe" />
<rect x="464.00" y="1008.00" width="112.00" height="16.00" fill="#fbfdfe" />
<rect x="592.00" y="1008.00" width="32.00" height="16.00" fill="#fbfdfe" />
<rect x="672.00" y="1008.00" width="16.00" height="32.00" fill="#fbfdfe" />
<rect x="704.00" y="1008.00" width="112.00" height="32.00" fill="#fbfdfe" />
<rect x="832.00" y="1008.00" width="128.00" height="32.00" fill="#fbfdfe" />
<rect x="976.00" y="1008.00" width="48.00" height="32.00" fill="#fbfdfe" />
<rect x="1232.00" y="1008.00" width="16.00" height="48.00" fill="#fbfdfe" />
<rect x="608.00" y="1024.00" width="16.00" height="32.00" fill="#fbfdfe" />
<rect x="1088.00" y="1024.00" width="144.00" height="16.00" fill="#fbfdfe" />
<rect x="592.00" y="1040.00" width="16.00" height="32.00" fill="#fbfdfe" />
<rect x="736.00" y="1040.00" width="32.00" height="16.00" fill="#fbfdfe" />
<rect x="848.00" y="1040.00" width="16.00" height="464.00" fill="#fbfdfe" />
<rect x="1216.00" y="1040.00" width="16.00" height="32.00" fill="#fbfdfe" />
<rect x="752.00" y="1056.00" width="32.00" height="16.00" fill="#fbfdfe" />
<rect x="1200.00" y="1056.00" width="16.00" height="48.00" fill="#fbfdfe" />
<rect x="768.00" y="1072.00" width="32.00" height="32.00" fill="#fbfdfe" />
<rect x="1184.00" y="1072.00" width="16.00" height="32.00" fill="#fbfdfe" />
<rect x="80.00" y="1088.00" width="96.00" height="16.00" fill="#fbfdfe" />
<rect x="192.00" y="1088.00" width="384.00" height="16.00" fill="#fbfdfe" />
<rect x="592.00" y="1088.00" width="48.00" height="16.00" fill="#fbfdfe" />
<rect x="656.00" y="1088.00" width="112.00" height="16.00" fill="#fbfdfe" />
<rect x="800.00" y="1088.00" width="16.00" height="48.00" fill="#fbfdfe" />
<rect x="832.00" y="1088.00" width="16.00" height="16.00" fill="#fbfdfe" />
<rect x="864.00" y="1088.00" width="96.00" height="16.00" fill="#fbfdfe" />
<rect x="976.00" y="1088.00" width="48.00" height="16.00" fill="#fbfdfe" />
<rect x="1088.00" y="1088.00" width="96.00" height="16.00" fill="#fbfdfe" />
<rect x="1216.00" y="1088.00" width="32.00" height="16.00" fill="#fbfdfe" />
<rect x="112.00" y="1104.00" width="64.00" height="144.00" fill="#fbfdfe" />
<rect x="192.00" y="1104.00" width="64.00" height="144.00" fill="#fbfdfe" />
<rect x="544.00" y="1104.00" width="32.00" height="160.00" fill="#fbfdfe" />
<rect x="592.00" y="1104.00" width="32.00" height="160.00" fill="#fbfdfe" />
<rect x="784.00" y="1104.00" width="16.00" height="16.00" fill="#fbfdfe" />
<rect x="1152.00" y="1104.00" width="32.00" height="16.00" fill="#fbfdfe" />
<rect x="528.00" y="1120.00" width="16.00" height="128.00" fill="#fbfdfe" />
<rect x="624.00" y="1120.00" width="16.00" height="128.00" fill="#fbfdfe" />
<rect x="832.00" y="1120.00" width="16.00" height="48.00" fill="#fbfdfe" />
<rect x="1120.00" y="1120.00" width="48.00" height="16.00" fill="#fbfdfe" />
<rect x="1104.00" y="1136.00" width="32.00" height="16.00" fill="#fbfdfe" />
<rect x="1392.00" y="1136.00" width="64.00" height="112.00" fill="#fbfdfe" />
<rect x="1104.00" y="1152.00" width="16.00" height="48.00" fill="#fbfdfe" />
<rect x="512.00" y="1168.00" width="16.00" height="32.00" fill="#fbfdfe" />
<rect x="864.00" y="1168.00" width="32.00" height="32.00" fill="#fbfdfe" />
<rect x="1072.00" y="1168.00" width="32.00" height="32.00" fill="#fbfdfe" />
<rect x="656.00" y="1184.00" width="160.00" height="16.00" fill="#fbfdfe" />
<rect x="832.00" y="1184.00" width="16.00" height="16.00" fill="#fbfdfe" />
<rect x="896.00" y="1184.00" width="64.00" height="32.00" fill="#fbfdfe" />
<rect x="976.00" y="1184.00" width="96.00" height="16.00" fill="#fbfdfe" />
<rect x="1120.00" y="1184.00" width="256.00" height="16.00" fill="#fbfdfe" />
<rect x="880.00" y="1200.00" width="16.00" height="16.00" fill="#fbfdfe" />
<rect x="976.00" y="1200.00" width="32.00" height="192.00" fill="#fbfdfe" />
<rect x="1056.00" y="1200.00" width="16.00" height="32.00" fill="#fbfdfe" />
<rect x="912.00" y="1216.00" width="48.00" height="160.00" fill="#fbfdfe" />
<rect x="1008.00" y="1216.00" width="16.00" height="160.00" fill="#fbfdfe" />
<rect x="1040.00" y="1216.00" width="16.00" height="32.00" fill="#fbfdfe" />
<rect x="896.00" y="1232.00" width="16.00" height="128.00" fill="#fbfdfe" />
<rect x="1024.00" y="1232.00" width="16.00" height="128.00" fill="#fbfdfe" />
<rect x="1344.00" y="1280.00" width="32.00" height="144.00" fill="#fbfdfe" />
<rect x="1392.00" y="1280.00" width="16.00" height="144.00" fill="#fbfdfe" />
<rect x="832.00" y="1296.00" width="16.00" height="16.00" fill="#fbfdfe" />
<rect x="864.00" y="1296.00" width="32.00" height="16.00" fill="#fbfdfe" />
<rect x="1040.00" y="1328.00" width="16.00" height="32.00" fill="#fbfdfe" />
<rect x="1056.00" y="1344.00" width="288.00" height="16.00" fill="#fbfdfe" />
<rect x="928.00" y="1376.00" width="32.00" height="16.00" fill="#fbfdfe" />
<rect x="768.00" y="1424.00" width="80.00" height="80.00" fill="#fbfdfe" />
<rect x="864.00" y="1424.00" width="64.00" height="80.00" fill="#fbfdfe" />
<rect x="192.00" y="1456.00" width="384.00" height="16.00" fill="#fbfdfe" />
<rect x="592.00" y="1456.00" width="48.00" height="16.00" fill="#fbfdfe" />
<rect x="656.00" y="1456.00" width="112.00" height="16.00" fill="#fbfdfe" />
  </g>
  <g class="grid">
<line x1="0.00" y1="0" x2="0.00" y2="1536.00" />
<line x1="16.00" y1="0" x2="16.00" y2="1536.00" />
<line x1="32.00" y1="0" x2="32.00" y2="1536.00" />
<line x1="48.00" y1="0" x2="48.00" y2="1536.00" />
<line x1="64.00" y1="0" x2="64.00" y2="1536.00" />
<line x1="80.00" y1="0" x2="80.00" y2="1536.00" />
<line x1="96.00" y1="0" x2="96.00" y2="1536.00" />
<line x1="112.00" y1="0" x2="112.00" y2="1536.00" />
<line x1="128.00" y1="0" x2="128.00" y2="1536.00" />
<line x1="144.00" y1="0" x2="144.00" y2="1536.00" />
<line x1="160.00" y1="0" x2="160.00" y2="1536.00" />
<line x1="176.00" y1="0" x2="176.00" y2="1536.00" />
<line x1="192.00" y1="0" x2="192.00" y2="1536.00" />
<line x1="208.00" y1="0" x2="208.00" y2="1536.00" />
<line x1="224.00" y1="0" x2="224.00" y2="1536.00" />
<line x1="240.00" y1="0" x2="240.00" y2="1536.00" />
<line x1="256.00" y1="0" x2="256.00" y2="1536.00" />
<line x1="272.00" y1="0" x2="272.00" y2="1536.00" />
<line x1="288.00" y1="0" x2="288.00" y2="1536.00" />
<line x1="304.00" y1="0" x2="304.00" y2="1536.00" />
<line x1="320.00" y1="0" x2="320.00" y2="1536.00" />
<line x1="336.00" y1="0" x2="336.00" y2="1536.00" />
<line x1="352.00" y1="0" x2="352.00" y2="1536.00" />
<line x1="368.00" y1="0" x2="368.00" y2="1536.00" />
<line x1="384.00" y1="0" x2="384.00" y2="1536.00" />
<line x1="400.00" y1="0" x2="400.00" y2="1536.00" />
<line x1="416.00" y1="0" x2="416.00" y2="1536.00" />
<line x1="432.00" y1="0" x2="432.00" y2="1536.00" />
<line x1="448.00" y1="0" x2="448.00" y2="1536.00" />
<line x1="464.00" y1="0" x2="464.00" y2="1536.00" />
<line x1="480.00" y1="0" x2="480.00" y2="1536.00" />
<line x1="496.00" y1="0" x2="496.00" y2="1536.00" />
<line x1="512.00" y1="0" x2="512.00" y2="1536.00" />
<line x1="528.00" y1="0" x2="528.00" y2="1536.00" />
<line x1="544.00" y1="0" x2="544.00" y2="1536.00" />
<line x1="560.00" y1="0" x2="560.00" y2="1536.00" />
<line x1="576.00" y1="0" x2="576.00" y2="1536.00" />
<line x1="592.00" y1="0" x2="592.00" y2="1536.00" />
<line x1="608.00" y1="0" x2="608.00" y2="1536.00" />
<line x1="624.00" y1="0" x2="624.00" y2="1536.00" />
<line x1="640.00" y1="0" x2="640.00" y2="1536.00" />
<line x1="656.00" y1="0" x2="656.00" y2="1536.00" />
<line x1="672.00" y1="0" x2="672.00" y2="1536.00" />
<line x1="688.00" y1="0" x2="688.00" y2="1536.00" />
<line x1="704.00" y1="0" x2="704.00" y2="1536.00" />
<line x1="720.00" y1="0" x2="720.00" y2="1536.00" />
<line x1="736.00" y1="0" x2="736.00" y2="1536.00" />
<line x1="752.00" y1="0" x2="752.00" y2="1536.00" />
<line x1="768.00" y1="0" x2="768.00" y2="1536.00" />
<line x1="784.00" y1="0" x2="784.00" y2="1536.00" />
<line x1="800.00" y1="0" x2="800.00" y2="1536.00" />
<line x1="816.00" y1="0" x2="816.00" y2="1536.00" />
<line x1="832.00" y1="0" x2="832.00" y2="1536.00" />
<line x1="848.00" y1="0" x2="848.00" y2="1536.00" />
<line x1="864.00" y1="0" x2="864.00" y2="1536.00" />
<line x1="880.00" y1="0" x2="880.00" y2="1536.00" />
<line x1="896.00" y1="0" x2="896.00" y2="1536.00" />
<line x1="912.00" y1="0" x2="912.00" y2="1536.00" />
<line x1="928.00" y1="0" x2="928.00" y2="1536.00" />
<line x1="944.00" y1="0" x2="944.00" y2="1536.00" />
<line x1="960.00" y1="0" x2="960.00" y2="1536.00" />
<line x1="976.00" y1="0" x2="976.00" y2="1536.00" />
<line x1="992.00" y1="0" x2="992.00" y2="1536.00" />
<line x1="1008.00" y1="0" x2="1008.00" y2="1536.00" />
<line x1="1024.00" y1="0" x2="1024.00" y2="1536.00" />
<line x1="1040.00" y1="0" x2="1040.00" y2="1536.00" />
<line x1="1056.00" y1="0" x2="1056.00" y2="1536.00" />
<line x1="1072.00" y1="0" x2="1072.00" y2="1536.00" />
<line x1="1088.00" y1="0" x2="1088.00" y2="1536.00" />
<line x1="1104.00" y1="0" x2="1104.00" y2="1536.00" />
<line x1="1120.00" y1="0" x2="1120.00" y2="1536.00" />
<line x1="1136.00" y1="0" x2="1136.00" y2="1536.00" />
<line x1="1152.00" y1="0" x2="1152.00" y2="1536.00" />
<line x1="1168.00" y1="0" x2="1168.00" y2="1536.00" />
<line x1="1184.00" y1="0" x2="1184.00" y2="1536.00" />
<line x1="1200.00" y1="0" x2="1200.00" y2="1536.00" />
<line x1="1216.00" y1="0" x2="1216.00" y2="1536.00" />
<line x1="1232.00" y1="0" x2="1232.00" y2="1536.00" />
<line x1="1248.00" y1="0" x2="1248.00" y2="1536.00" />
<line x1="1264.00" y1="0" x2="1264.00" y2="1536.00" />
<line x1="1280.00" y1="0" x2="1280.00" y2="1536.00" />
<line x1="1296.00" y1="0" x2="1296.00" y2="1536.00" />
<line x1="1312.00" y1="0" x2="1312.00" y2="1536.00" />
<line x1="1328.00" y1="0" x2="1328.00" y2="1536.00" />
<line x1="1344.00" y1="0" x2="1344.00" y2="1536.00" />
<line x1="1360.00" y1="0" x2="1360.00" y2="1536.00" />
<line x1="1376.00" y1="0" x2="1376.00" y2="1536.00" />
<line x1="1392.00" y1="0" x2="1392.00" y2="1536.00" />
<line x1="1408.00" y1="0" x2="1408.00" y2="1536.00" />
<line x1="1424.00" y1="0" x2="1424.00" y2="1536.00" />
<line x1="1440.00" y1="0" x2="1440.00" y2="1536.00" />
<line x1="1456.00" y1="0" x2="1456.00" y2="1536.00" />
<line x1="1472.00" y1="0" x2="1472.00" y2="1536.00" />
<line x1="1488.00" y1="0" x2="1488.00" y2="1536.00" />
<line x1="0" y1="0.00" x2="1488.00" y2="0.00" />
<line x1="0" y1="16.00" x2="1488.00" y2="16.00" />
<line x1="0" y1="32.00" x2="1488.00" y2="32.00" />
<line x1="0" y1="48.00" x2="1488.00" y2="48.00" />
<line x1="0" y1="64.00" x2="1488.00" y2="64.00" />
<line x1="0" y1="80.00" x2="1488.00" y2="80.00" />
<line x1="0" y1="96.00" x2="1488.00" y2="96.00" />
<line x1="0" y1="112.00" x2="1488.00" y2="112.00" />
<line x1="0" y1="128.00" x2="1488.00" y2="128.00" />
<line x1="0" y1="144.00" x2="1488.00" y2="144.00" />
<line x1="0" y1="160.00" x2="1488.00" y2="160.00" />
<line x1="0" y1="176.00" x2="1488.00" y2="176.00" />
<line x1="0" y1="192.00" x2="1488.00" y2="192.00" />
<line x1="0" y1="208.00" x2="1488.00" y2="208.00" />
<line x1="0" y1="224.00" x2="1488.00" y2="224.00" />
<line x1="0" y1="240.00" x2="1488.00" y2="240.00" />
<line x1="0" y1="256.00" x2="1488.00" y2="256.00" />
<line x1="0" y1="272.00" x2="1488.00" y2="272.00" />
<line x1="0" y1="288.00" x2="1488.00" y2="288.00" />
<line x1="0" y1="304.00" x2="1488.00" y2="304.00" />
<line x1="0" y1="320.00" x2="1488.00" y2="320.00" />
<line x1="0" y1="336.00" x2="1488.00" y2="336.00" />
<line x1="0" y1="352.00" x2="1488.00" y2="352.00" />
<line x1="0" y1="368.00" x2="1488.00" y2="368.00" />
<line x1="0" y1="384.00" x2="1488.00" y2="384.00" />
<line x1="0" y1="400.00" x2="1488.00" y2="400.00" />
<line x1="0" y1="416.00" x2="1488.00" y2="416.00" />
<line x1="0" y1="432.00" x2="1488.00" y2="432.00" />
<line x1="0" y1="448.00" x2="1488.00" y2="448.00" />
<line x1="0" y1="464.00" x2="1488.00" y2="464.00" />
<line x1="0" y1="480.00" x2="1488.00" y2="480.00" />
<line x1="0" y1="496.00" x2="1488.00" y2="496.00" />
<line x1="0" y1="512.00" x2="1488.00" y2="512.00" />
<line x1="0" y1="528.00" x2="1488.00" y2="528.00" />
<line x1="0" y1="544.00" x2="1488.00" y2="544.00" />
<line x1="0" y1="560.00" x2="1488.00" y2="560.00" />
<line x1="0" y1="576.00" x2="1488.00" y2="576.00" />
<line x1="0" y1="592.00" x2="1488.00" y2="592.00" />
<line x1="0" y1="608.00" x2="1488.00" y2="608.00" />
<line x1="0" y1="624.00" x2="1488.00" y2="624.00" />
<line x1="0" y1="640.00" x2="1488.00" y2="640.00" />
<line x1="0" y1="656.00" x2="1488.00" y2="656.00" />
<line x1="0" y1="672.00" x2="1488.00" y2="672.00" />
<line x1="0" y1="688.00" x2="1488.00" y2="688.00" />
<line x1="0" y1="704.00" x2="1488.00" y2="704.00" />
<line x1="0" y1="720.00" x2="1488.00" y2="720.00" />
<line x1="0" y1="736.00" x2="1488.00" y2="736.00" />
<line x1="0" y1="752.00" x2="1488.00" y2="752.00" />
<line x1="0" y1="768.00" x2="1488.00" y2="768.00" />
<line x1="0" y1="784.00" x2="1488.00" y2="784.00" />
<line x1="0" y1="800.00" x2="1488.00" y2="800.00" />
<line x1="0" y1="816.00" x2="1488.00" y2="816.00" />
<line x1="0" y1="832.00" x2="1488.00" y2="832.00" />
<line x1="0" y1="848.00" x2="1488.00" y2="848.00" />
<line x1="0" y1="864.00" x2="1488.00" y2="864.00" />
<line x1="0" y1="880.00" x2="1488.00" y2="880.00" />
<line x1="0" y1="896.00" x2="1488.00" y2="896.00" />
<line x1="0" y1="912.00" x2="1488.00" y2="912.00" />
<line x1="0" y1="928.00" x2="1488.00" y2="928.00" />
<line x1="0" y1="944.00" x2="1488.00" y2="944.00" />
<line x1="0" y1="960.00" x2="1488.00" y2="960.00" />
<line x1="0" y1="976.00" x2="1488.00" y2="976.00" />
<line x1="0" y1="992.00" x2="1488.00" y2="992.00" />
<line x1="0" y1="1008.00" x2="1488.00" y2="1008.00" />
<line x1="0" y1="1024.00" x2="1488.00" y2="1024.00" />
<line x1="0" y1="1040.00" x2="1488.00" y2="1040.00" />
<line x1="0" y1="1056.00" x2="1488.00" y2="1056.00" />
<line x1="0" y1="1072.00" x2="1488.00" y2="1072.00" />
<line x1="0" y1="1088.00" x2="1488.00" y2="1088.00" />
<line x1="0" y1="1104.00" x2="1488.00" y2="1104.00" />
<line x1="0" y1="1120.00" x2="1488.00" y2="1120.00" />
<line x1="0" y1="1136.00" x2="1488.00" y2="1136.00" />
<line x1="0" y1="1152.00" x2="1488.00" y2="1152.00" />
<line x1="0" y1="1168.00" x2="1488.00" y2="1168.00" />
<line x1="0" y1="1184.00" x2="1488.00" y2="1184.00" />
<line x1="0" y1="1200.00" x2="1488.00" y2="1200.00" />
<line x1="0" y1="1216.00" x2="1488.00" y2="1216.00" />
<line x1="0" y1="1232.00" x2="1488.00" y2="1232.00" />
<line x1="0" y1="1248.00" x2="1488.00" y2="1248.00" />
<line x1="0" y1="1264.00" x2="1488.00" y2="1264.00" />
<line x1="0" y1="1280.00" x2="1488.00" y2="1280.00" />
<line x1="0" y1="1296.00" x2="1488.00" y2="1296.00" />
<line x1="0" y1="1312.00" x2="1488.00" y2="1312.00" />
<line x1="0" y1="1328.00" x2="1488.00" y2="1328.00" />
<line x1="0" y1="1344.00" x2="1488.00" y2="1344.00" />
<line x1="0" y1="1360.00" x2="1488.00" y2="1360.00" />
<line x1="0" y1="1376.00" x2="1488.00" y2="1376.00" />
<line x1="0" y1="1392.00" x2="1488.00" y2="1392.00" />
<line x1="0" y1="1408.00" x2="1488.00" y2="1408.00" />
<line x1="0" y1="1424.00" x2="1488.00" y2="1424.00" />
<line x1="0" y1="1440.00" x2="1488.00" y2="1440.00" />
<line x1="0" y1="1456.00" x2="1488.00" y2="1456.00" />
<line x1="0" y1="1472.00" x2="1488.00" y2="1472.00" />
<line x1="0" y1="1488.00" x2="1488.00" y2="1488.00" />
<line x1="0" y1="1504.00" x2="1488.00" y2="1504.00" />
<line x1="0" y1="1520.00" x2="1488.00" y2="1520.00" />
<line x1="0" y1="1536.00" x2="1488.00" y2="1536.00" />
  </g>
  <g class="walls">
<line x1="512.00" y1="32.00" x2="688.00" y2="32.00" />
<line x1="1008.00" y1="64.00" x2="1104.00" y2="64.00" />
<line x1="1168.00" y1="64.00" x2="1280.00" y2="64.00" />
<line x1="256.00" y1="112.00" x2="416.00" y2="112.00" />
<line x1="176.00" y1="128.00" x2="256.00" y2="128.00" />
<line x1="416.00" y1="128.00" x2="512.00" y2="128.00" />
<line x1="688.00" y1="128.00" x2="1008.00" y2="128.00" />
<line x1="80.00" y1="144.00" x2="128.00" y2="144.00" />
<line x1="160.00" y1="144.00" x2="176.00" y2="144.00" />
<line x1="192.00" y1="144.00" x2="256.00" y2="144.00" />
<line x1="416.00" y1="144.00" x2="592.00" y2="144.00" />
<line x1="608.00" y1="144.00" x2="1008.00" y2="144.00" />
<line x1="144.00" y1="160.00" x2="160.00" y2="160.00" />
<line x1="176.00" y1="160.00" x2="192.00" y2="160.00" />
<line x1="960.00" y1="160.00" x2="1008.00" y2="160.00" />
<line x1="1104.00" y1="160.00" x2="1168.00" y2="160.00" />
<line x1="128.00" y1="176.00" x2="144.00" y2="176.00" />
<line x1="160.00" y1="176.00" x2="256.00" y2="176.00" />
<line x1="976.00" y1="176.00" x2="1008.00" y2="176.00" />
<line x1="1104.00" y1="176.00" x2="1168.00" y2="176.00" />
<line x1="144.00" y1="192.00" x2="160.00" y2="192.00" />
<line x1="192.00" y1="192.00" x2="256.00" y2="192.00" />
<line x1="1008.00" y1="192.00" x2="1056.00" y2="192.00" />
<line x1="1072.00" y1="192.00" x2="1104.00" y2="192.00" />
<line x1="128.00" y1="208.00" x2="144.00" y2="208.00" />
<line x1="256.00" y1="256.00" x2="336.00" y2="256.00" />
<line x1="352.00" y1="256.00" x2="416.00" y2="256.00" />
<line x1="1168.00" y1="256.00" x2="1280.00" y2="256.00" />
<line x1="80.00" y1="272.00" x2="128.00" y2="272.00" />
<line x1="608.00" y1="272.00" x2="656.00" y2="272.00" />
<line x1="144.00" y1="288.00" x2="176.00" y2="288.00" />
<line x1="192.00" y1="288.00" x2="288.00" y2="288.00" />
<line x1="480.00" y1="304.00" x2="592.00" y2="304.00" />
<line x1="656.00" y1="304.00" x2="880.00" y2="304.00" />
<line x1="496.00" y1="320.00" x2="592.00" y2="320.00" />
<line x1="656.00" y1="320.00" x2="720.00" y2="320.00" />
<line x1="736.00" y1="320.00" x2="864.00" y2="320.00" />
<line x1="288.00" y1="336.00" x2="336.00" y2="336.00" />
<line x1="352.00" y1="336.00" x2="480.00" y2="336.00" />
<line x1="496.00" y1="336.00" x2="592.00" y2="336.00" />
<line x1="288.00" y1="352.00" x2="336.00" y2="352.00" />
<line x1="368.00" y1="352.00" x2="480.00" y2="352.00" />
<line x1="496.00" y1="352.00" x2="624.00" y2="352.00" />
<line x1="640.00" y1="352.00" x2="656.00" y2="352.00" />
<line x1="1200.00" y1="352.00" x2="1312.00" y2="352.00" />
<line x1="144.00" y1="400.00" x2="176.00" y2="400.00" />
<line x1="192.00" y1="400.00" x2="256.00" y2="400.00" />
<line x1="288.00" y1="400.00" x2="304.00" y2="400.00" />
<line x1="352.00" y1="400.00" x2="368.00" y2="400.00" />
<line x1="384.00" y1="400.00" x2="400.00" y2="400.00" />
<line x1="368.00" y1="384.00" x2="384.00" y2="384.00" />
<line x1="256.00" y1="416.00" x2="288.00" y2="416.00" />
<line x1="304.00" y1="416.00" x2="320.00" y2="416.00" />
<line x1="368.00" y1="416.00" x2="384.00" y2="416.00" />
<line x1="400.00" y1="416.00" x2="416.00" y2="416.00" />
<line x1="1264.00" y1="416.00" x2="1312.00" y2="416.00" />
<line x1="288.00" y1="432.00" x2="304.00" y2="432.00" />
<line x1="320.00" y1="432.00" x2="336.00" y2="432.00" />
<line x1="384.00" y1="432.00" x2="400.00" y2="432.00" />
<line x1="416.00" y1="432.00" x2="432.00" y2="432.00" />
<line x1="448.00" y1="432.00" x2="480.00" y2="432.00" />
<line x1="496.00" y1="432.00" x2="512.00" y2="432.00" />
<line x1="1184.00" y1="432.00" x2="1200.00" y2="432.00" />
<line x1="1216.00" y1="432.00" x2="1248.00" y2="432.00" />
<line x1="304.00" y1="448.00" x2="320.00" y2="448.00" />
<line x1="400.00" y1="448.00" x2="416.00" y2="448.00" />
<line x1="432.00" y1="448.00" x2="448.00" y2="448.00" />
<line x1="1168.00" y1="448.00" x2="1184.00" y2="448.00" />
<line x1="1200.00" y1="448.00" x2="1216.00" y2="448.00" />
<line x1="320.00" y1="464.00" x2="336.00" y2="464.00" />
<line x1="352.00" y1="464.00" x2="368.00" y2="464.00" />
<line x1="416.00" y1="464.00" x2="448.00" y2="464.00" />
<line x1="1184.00" y1="464.00" x2="1200.00" y2="464.00" />
<line x1="1152.00" y1="480.00" x2="1168.00" y2="480.00" />
<line x1="368.00" y1="496.00" x2="384.00" y2="496.00" />
<line x1="1120.00" y1="496.00" x2="1152.00" y2="496.00" />
<line x1="1168.00" y1="496.00" x2="1184.00" y2="496.00" />
<line x1="1312.00" y1="496.00" x2="1344.00" y2="496.00" />
<line x1="352.00" y1="512.00" x2="368.00" y2="512.00" />
<line x1="384.00" y1="512.00" x2="400.00" y2="512.00" />
<line x1="1104.00" y1="512.00" x2="1120.00" y2="512.00" />
<line x1="1136.00" y1="512.00" x2="1168.00" y2="512.00" />
<line x1="1280.00" y1="512.00" x2="1312.00" y2="512.00" />
<line x1="1344.00" y1="512.00" x2="1376.00" y2="512.00" />
<line x1="192.00" y1="528.00" x2="336.00" y2="528.00" />
<line x1="368.00" y1="528.00" x2="384.00" y2="528.00" />
<line x1="400.00" y1="528.00" x2="416.00" y2="528.00" />
<line x1="1088.00" y1="528.00" x2="1104.00" y2="528.00" />
<line x1="1120.00" y1="528.00" x2="1136.00" y2="528.00" />
<line x1="1264.00" y1="528.00" x2="1280.00" y2="528.00" />
<line x1="1376.00" y1="528.00" x2="1392.00" y2="528.00" />
<line x1="368.00" y1="544.00" x2="384.00" y2="544.00" />
<line x1="416.00" y1="544.00" x2="448.00" y2="544.00" />
<line x1="784.00" y1="544.00" x2="848.00" y2="544.00" />
<line x1="1072.00" y1="544.00" x2="1088.00" y2="544.00" />
<line x1="1104.00" y1="544.00" x2="1120.00" y2="544.00" />
<line x1="512.00" y1="560.00" x2="624.00" y2="560.00" />
<line x1="1088.00" y1="560.00" x2="1104.00" y2="560.00" />
<line x1="1392.00" y1="560.00" x2="1408.00" y2="560.00" />
<line x1="368.00" y1="592.00" x2="384.00" y2="592.00" />
<line x1="400.00" y1="592.00" x2="464.00" y2="592.00" />
<line x1="496.00" y1="592.00" x2="576.00" y2="592.00" />
<line x1="592.00" y1="592.00" x2="624.00" y2="592.00" />
<line x1="640.00" y1="592.00" x2="720.00" y2="592.00" />
<line x1="736.00" y1="592.00" x2="784.00" y2="592.00" />
<line x1="848.00" y1="592.00" x2="864.00" y2="592.00" />
<line x1="880.00" y1="592.00" x2="960.00" y2="592.00" />
<line x1="976.00" y1="592.00" x2="1040.00" y2="592.00" />
<line x1="1072.00" y1="592.00" x2="1248.00" y2="592.00" />
<line x1="640.00" y1="576.00" x2="720.00" y2="576.00" />
<line x1="736.00" y1="576.00" x2="784.00" y2="576.00" />
<line x1="848.00" y1="576.00" x2="864.00" y2="576.00" />
<line x1="880.00" y1="576.00" x2="960.00" y2="576.00" />
<line x1="976.00" y1="576.00" x2="1056.00" y2="576.00" />
<line x1="1088.00" y1="576.00" x2="1248.00" y2="576.00" />
<line x1="192.00" y1="608.00" x2="304.00" y2="608.00" />
<line x1="320.00" y1="608.00" x2="336.00" y2="608.00" />
<line x1="464.00" y1="608.00" x2="480.00" y2="608.00" />
<line x1="496.00" y1="608.00" x2="512.00" y2="608.00" />
<line x1="608.00" y1="608.00" x2="624.00" y2="608.00" />
<line x1="640.00" y1="608.00" x2="672.00" y2="608.00" />
<line x1="1008.00" y1="608.00" x2="1040.00" y2="608.00" />
<line x1="1392.00" y1="608.00" x2="1408.00" y2="608.00" />
<line x1="320.00" y1="624.00" x2="336.00" y2="624.00" />
<line x1="480.00" y1="624.00" x2="496.00" y2="624.00" />
<line x1="512.00" y1="624.00" x2="528.00" y2="624.00" />
<line x1="592.00" y1="624.00" x2="608.00" y2="624.00" />
<line x1="672.00" y1="624.00" x2="688.00" y2="624.00" />
<line x1="992.00" y1="624.00" x2="1008.00" y2="624.00" />
<line x1="1024.00" y1="624.00" x2="1056.00" y2="624.00" />
<line x1="304.00" y1="640.00" x2="320.00" y2="640.00" />
<line x1="352.00" y1="640.00" x2="368.00" y2="640.00" />
<line x1="496.00" y1="640.00" x2="512.00" y2="640.00" />
<line x1="528.00" y1="640.00" x2="544.00" y2="640.00" />
<line x1="688.00" y1="640.00" x2="704.00" y2="640.00" />
<line x1="1008.00" y1="640.00" x2="1024.00" y2="640.00" />
<line x1="1264.00" y1="640.00" x2="1280.00" y2="640.00" />
<line x1="1376.00" y1="640.00" x2="1392.00" y2="640.00" />
<line x1="320.00" y1="656.00" x2="336.00" y2="656.00" />
<line x1="368.00" y1="656.00" x2="384.00" y2="656.00" />
<line x1="512.00" y1="656.00" x2="528.00" y2="656.00" />
<line x1="544.00" y1="656.00" x2="576.00" y2="656.00" />
<line x1="976.00" y1="656.00" x2="992.00" y2="656.00" />
<line x1="1280.00" y1="656.00" x2="1312.00" y2="656.00" />
<line x1="1344.00" y1="656.00" x2="1376.00" y2="656.00" />
<line x1="352.00" y1="672.00" x2="368.00" y2="672.00" />
<line x1="528.00" y1="672.00" x2="576.00" y2="672.00" />
<line x1="688.00" y1="672.00" x2="704.00" y2="672.00" />
<line x1="976.00" y1="672.00" x2="1008.00" y2="672.00" />
<line x1="1312.00" y1="672.00" x2="1344.00" y2="672.00" />
<line x1="400.00" y1="688.00" x2="416.00" y2="688.00" />
<line x1="592.00" y1="688.00" x2="608.00" y2="688.00" />
<line x1="672.00" y1="688.00" x2="688.00" y2="688.00" />
<line x1="928.00" y1="688.00" x2="960.00" y2="688.00" />
<line x1="368.00" y1="704.00" x2="384.00" y2="704.00" />
<line x1="416.00" y1="704.00" x2="432.00" y2="704.00" />
<line x1="608.00" y1="704.00" x2="624.00" y2="704.00" />
<line x1="656.00" y1="704.00" x2="672.00" y2="704.00" />
<line x1="784.00" y1="704.00" x2="816.00" y2="704.00" />
<line x1="832.00" y1="704.00" x2="848.00" y2="704.00" />
<line x1="944.00" y1="704.00" x2="960.00" y2="704.00" />
<line x1="400.00" y1="720.00" x2="416.00" y2="720.00" />
<line x1="448.00" y1="720.00" x2="512.00" y2="720.00" />
<line x1="896.00" y1="720.00" x2="928.00" y2="720.00" />
<line x1="432.00" y1="736.00" x2="448.00" y2="736.00" />
<line x1="880.00" y1="736.00" x2="896.00" y2="736.00" />
<line x1="912.00" y1="736.00" x2="944.00" y2="736.00" />
<line x1="416.00" y1="752.00" x2="448.00" y2="752.00" />
<line x1="912.00" y1="752.00" x2="960.00" y2="752.00" />
<line x1="976.00" y1="752.00" x2="1056.00" y2="752.00" />
<line x1="1312.00" y1="752.00" x2="1456.00" y2="752.00" />
<line x1="848.00" y1="768.00" x2="864.00" y2="768.00" />
<line x1="192.00" y1="784.00" x2="336.00" y2="784.00" />
<line x1="352.00" y1="784.00" x2="384.00" y2="784.00" />
<line x1="400.00" y1="784.00" x2="448.00" y2="784.00" />
<line x1="512.00" y1="784.00" x2="576.00" y2="784.00" />
<line x1="592.00" y1="784.00" x2="624.00" y2="784.00" />
<line x1="656.00" y1="784.00" x2="720.00" y2="784.00" />
<line x1="736.00" y1="784.00" x2="816.00" y2="784.00" />
<line x1="832.00" y1="784.00" x2="848.00" y2="784.00" />
<line x1="1072.00" y1="784.00" x2="1248.00" y2="784.00" />
<line x1="1264.00" y1="784.00" x2="1312.00" y2="784.00" />
<line x1="192.00" y1="800.00" x2="384.00" y2="800.00" />
<line x1="400.00" y1="800.00" x2="448.00" y2="800.00" />
<line x1="544.00" y1="816.00" x2="576.00" y2="816.00" />
<line x1="592.00" y1="816.00" x2="624.00" y2="816.00" />
<line x1="656.00" y1="816.00" x2="704.00" y2="816.00" />
<line x1="752.00" y1="816.00" x2="816.00" y2="816.00" />
<line x1="848.00" y1="816.00" x2="864.00" y2="816.00" />
<line x1="880.00" y1="816.00" x2="960.00" y2="816.00" />
<line x1="976.00" y1="816.00" x2="1056.00" y2="816.00" />
<line x1="1072.00" y1="816.00" x2="1248.00" y2="816.00" />
<line x1="1264.00" y1="816.00" x2="1312.00" y2="816.00" />
<line x1="512.00" y1="832.00" x2="528.00" y2="832.00" />
<line x1="784.00" y1="832.00" x2="816.00" y2="832.00" />
<line x1="832.00" y1="832.00" x2="848.00" y2="832.00" />
<line x1="448.00" y1="848.00" x2="512.00" y2="848.00" />
<line x1="544.00" y1="848.00" x2="560.00" y2="848.00" />
<line x1="768.00" y1="848.00" x2="784.00" y2="848.00" />
<line x1="832.00" y1="848.00" x2="864.00" y2="848.00" />
<line x1="880.00" y1="848.00" x2="960.00" y2="848.00" />
<line x1="1312.00" y1="848.00" x2="1376.00" y2="848.00" />
<line x1="1392.00" y1="848.00" x2="1456.00" y2="848.00" />
<line x1="528.00" y1="864.00" x2="544.00" y2="864.00" />
<line x1="560.00" y1="864.00" x2="576.00" y2="864.00" />
<line x1="544.00" y1="880.00" x2="560.00" y2="880.00" />
<line x1="592.00" y1="880.00" x2="608.00" y2="880.00" />
<line x1="752.00" y1="880.00" x2="768.00" y2="880.00" />
<line x1="160.00" y1="896.00" x2="176.00" y2="896.00" />
<line x1="192.00" y1="896.00" x2="256.00" y2="896.00" />
<line x1="560.00" y1="896.00" x2="576.00" y2="896.00" />
<line x1="608.00" y1="896.00" x2="624.00" y2="896.00" />
<line x1="768.00" y1="896.00" x2="816.00" y2="896.00" />
<line x1="832.00" y1="896.00" x2="960.00" y2="896.00" />
<line x1="144.00" y1="912.00" x2="160.00" y2="912.00" />
<line x1="256.00" y1="912.00" x2="272.00" y2="912.00" />
<line x1="592.00" y1="912.00" x2="608.00" y2="912.00" />
<line x1="752.00" y1="912.00" x2="768.00" y2="912.00" />
<line x1="128.00" y1="928.00" x2="144.00" y2="928.00" />
<line x1="272.00" y1="928.00" x2="288.00" y2="928.00" />
<line x1="608.00" y1="944.00" x2="624.00" y2="944.00" />
<line x1="688.00" y1="944.00" x2="704.00" y2="944.00" />
<line x1="1024.00" y1="944.00" x2="1056.00" y2="944.00" />
<line x1="1072.00" y1="944.00" x2="1088.00" y2="944.00" />
<line x1="1280.00" y1="944.00" x2="1376.00" y2="944.00" />
<line x1="1392.00" y1="944.00" x2="1408.00" y2="944.00" />
<line x1="288.00" y1="960.00" x2="384.00" y2="960.00" />
<line x1="400.00" y1="960.00" x2="576.00" y2="960.00" />
<line x1="592.00" y1="960.00" x2="624.00" y2="960.00" />
<line x1="656.00" y1="960.00" x2="688.00" y2="960.00" />
<line x1="752.00" y1="960.00" x2="816.00" y2="960.00" />
<line x1="832.00" y1="960.00" x2="960.00" y2="960.00" />
<line x1="976.00" y1="960.00" x2="1024.00" y2="960.00" />
<line x1="1088.00" y1="960.00" x2="1248.00" y2="960.00" />
<line x1="1264.00" y1="960.00" x2="1280.00" y2="960.00" />
<line x1="1408.00" y1="960.00" x2="1424.00" y2="960.00" />
<line x1="288.00" y1="976.00" x2="384.00" y2="976.00" />
<line x1="400.00" y1="976.00" x2="576.00" y2="976.00" />
<line x1="592.00" y1="976.00" x2="624.00" y2="976.00" />
<line x1="704.00" y1="976.00" x2="816.00" y2="976.00" />
<line x1="832.00" y1="976.00" x2="960.00" y2="976.00" />
<line x1="976.00" y1="976.00" x2="1024.00" y2="976.00" />
<line x1="1088.00" y1="976.00" x2="1248.00" y2="976.00" />
<line x1="1424.00" y1="976.00" x2="1440.00" y2="976.00" />
<line x1="32.00" y1="992.00" x2="80.00" y2="992.00" />
<line x1="304.00" y1="992.00" x2="384.00" y2="992.00" />
<line x1="400.00" y1="992.00" x2="464.00" y2="992.00" />
<line x1="672.00" y1="992.00" x2="688.00" y2="992.00" />
<line x1="80.00" y1="1008.00" x2="128.00" y2="1008.00" />
<line x1="288.00" y1="1008.00" x2="304.00" y2="1008.00" />
<line x1="464.00" y1="1008.00" x2="576.00" y2="1008.00" />
<line x1="592.00" y1="1008.00" x2="624.00" y2="1008.00" />
<line x1="672.00" y1="1008.00" x2="688.00" y2="1008.00" />
<line x1="704.00" y1="1008.00" x2="816.00" y2="1008.00" />
<line x1="832.00" y1="1008.00" x2="960.00" y2="1008.00" />
<line x1="976.00" y1="1008.00" x2="1024.00" y2="1008.00" />
<line x1="1232.00" y1="1008.00" x2="1248.00" y2="1008.00" />
<line x1="80.00" y1="1024.00" x2="160.00" y2="1024.00" />
<line x1="256.00" y1="1024.00" x2="304.00" y2="1024.00" />
<line x1="464.00" y1="1024.00" x2="576.00" y2="1024.00" />
<line x1="592.00" y1="1024.00" x2="608.00" y2="1024.00" />
<line x1="1088.00" y1="1024.00" x2="1232.00" y2="1024.00" />
<line x1="160.00" y1="1040.00" x2="176.00" y2="1040.00" />
<line x1="192.00" y1="1040.00" x2="256.00" y2="1040.00" />
<line x1="304.00" y1="1040.00" x2="464.00" y2="1040.00" />
<line x1="592.00" y1="1040.00" x2="608.00" y2="1040.00" />
<line x1="624.00" y1="1040.00" x2="640.00" y2="1040.00" />
<line x1="656.00" y1="1040.00" x2="736.00" y2="1040.00" />
<line x1="768.00" y1="1040.00" x2="816.00" y2="1040.00" />
<line x1="832.00" y1="1040.00" x2="848.00" y2="1040.00" />
<line x1="864.00" y1="1040.00" x2="960.00" y2="1040.00" />
<line x1="976.00" y1="1040.00" x2="1024.00" y2="1040.00" />
<line x1="1088.00" y1="1040.00" x2="1216.00" y2="1040.00" />
<line x1="608.00" y1="1056.00" x2="624.00" y2="1056.00" />
<line x1="736.00" y1="1056.00" x2="752.00" y2="1056.00" />
<line x1="768.00" y1="1056.00" x2="784.00" y2="1056.00" />
<line x1="1200.00" y1="1056.00" x2="1216.00" y2="1056.00" />
<line x1="1232.00" y1="1056.00" x2="1248.00" y2="1056.00" />
<line x1="592.00" y1="1072.00" x2="608.00" y2="1072.00" />
<line x1="752.00" y1="1072.00" x2="768.00" y2="1072.00" />
<line x1="784.00" y1="1072.00" x2="800.00" y2="1072.00" />
<line x1="1184.00" y1="1072.00" x2="1200.00" y2="1072.00" />
<line x1="1216.00" y1="1072.00" x2="1232.00" y2="1072.00" />
<line x1="80.00" y1="1088.00" x2="176.00" y2="1088.00" />
<line x1="192.00" y1="1088.00" x2="576.00" y2="1088.00" />
<line x1="592.00" y1="1088.00" x2="640.00" y2="1088.00" />
<line x1="656.00" y1="1088.00" x2="768.00" y2="1088.00" />
<line x1="800.00" y1="1088.00" x2="816.00" y2="1088.00" />
<line x1="832.00" y1="1088.00" x2="848.00" y2="1088.00" />
<line x1="864.00" y1="1088.00" x2="960.00" y2="1088.00" />
<line x1="976.00" y1="1088.00" x2="1024.00" y2="1088.00" />
<line x1="1088.00" y1="1088.00" x2="1184.00" y2="1088.00" />
<line x1="1216.00" y1="1088.00" x2="1248.00" y2="1088.00" />
<line x1="1424.00" y1="1088.00" x2="1440.00" y2="1088.00" />
<line x1="80.00" y1="1104.00" x2="112.00" y2="1104.00" />
<line x1="256.00" y1="1104.00" x2="544.00" y2="1104.00" />
<line x1="624.00" y1="1104.00" x2="640.00" y2="1104.00" />
<line x1="656.00" y1="1104.00" x2="784.00" y2="1104.00" />
<line x1="832.00" y1="1104.00" x2="848.00" y2="1104.00" />
<line x1="864.00" y1="1104.00" x2="960.00" y2="1104.00" />
<line x1="976.00" y1="1104.00" x2="1152.00" y2="1104.00" />
<line x1="1184.00" y1="1104.00" x2="1280.00" y2="1104.00" />
<line x1="1408.00" y1="1104.00" x2="1424.00" y2="1104.00" />
<line x1="528.00" y1="1120.00" x2="544.00" y2="1120.00" />
<line x1="624.00" y1="1120.00" x2="640.00" y2="1120.00" />
<line x1="784.00" y1="1120.00" x2="800.00" y2="1120.00" />
<line x1="832.00" y1="1120.00" x2="848.00" y2="1120.00" />
<line x1="1120.00" y1="1120.00" x2="1152.00" y2="1120.00" />
<line x1="1168.00" y1="1120.00" x2="1184.00" y2="1120.00" />
<line x1="1280.00" y1="1120.00" x2="1376.00" y2="1120.00" />
<line x1="1392.00" y1="1120.00" x2="1408.00" y2="1120.00" />
<line x1="800.00" y1="1136.00" x2="816.00" y2="1136.00" />
<line x1="1104.00" y1="1136.00" x2="1120.00" y2="1136.00" />
<line x1="1136.00" y1="1136.00" x2="1168.00" y2="1136.00" />
<line x1="1392.00" y1="1136.00" x2="1456.00" y2="1136.00" />
<line x1="1120.00" y1="1152.00" x2="1136.00" y2="1152.00" />
<line x1="512.00" y1="1168.00" x2="528.00" y2="1168.00" />
<line x1="832.00" y1="1168.00" x2="848.00" y2="1168.00" />
<line x1="864.00" y1="1168.00" x2="896.00" y2="1168.00" />
<line x1="1072.00" y1="1168.00" x2="1104.00" y2="1168.00" />
<line x1="32.00" y1="1184.00" x2="80.00" y2="1184.00" />
<line x1="656.00" y1="1184.00" x2="816.00" y2="1184.00" />
<line x1="832.00" y1="1184.00" x2="848.00" y2="1184.00" />
<line x1="896.00" y1="1184.00" x2="960.00" y2="1184.00" />
<line x1="976.00" y1="1184.00" x2="1072.00" y2="1184.00" />
<line x1="1120.00" y1="1184.00" x2="1376.00" y2="1184.00" />
<line x1="512.00" y1="1200.00" x2="528.00" y2="1200.00" />
<line x1="656.00" y1="1200.00" x2="816.00" y2="1200.00" />
<line x1="832.00" y1="1200.00" x2="848.00" y2="1200.00" />
<line x1="864.00" y1="1200.00" x2="880.00" y2="1200.00" />
<line x1="1008.00" y1="1200.00" x2="1056.00" y2="1200.00" />
<line x1="1072.00" y1="1200.00" x2="1376.00" y2="1200.00" />
<line x1="880.00" y1="1216.00" x2="912.00" y2="1216.00" />
<line x1="1008.00" y1="1216.00" x2="1024.00" y2="1216.00" />
<line x1="1040.00" y1="1216.00" x2="1056.00" y2="1216.00" />
<line x1="896.00" y1="1232.00" x2="912.00" y2="1232.00" />
<line x1="1024.00" y1="1232.00" x2="1040.00" y2="1232.00" />
<line x1="1056.00" y1="1232.00" x2="1072.00" y2="1232.00" />
<line x1="112.00" y1="1248.00" x2="176.00" y2="1248.00" />
<line x1="192.00" y1="1248.00" x2="256.00" y2="1248.00" />
<line x1="528.00" y1="1248.00" x2="544.00" y2="1248.00" />
<line x1="624.00" y1="1248.00" x2="640.00" y2="1248.00" />
<line x1="1040.00" y1="1248.00" x2="1056.00" y2="1248.00" />
<line x1="1392.00" y1="1248.00" x2="1456.00" y2="1248.00" />
<line x1="544.00" y1="1264.00" x2="576.00" y2="1264.00" />
<line x1="592.00" y1="1264.00" x2="624.00" y2="1264.00" />
<line x1="1344.00" y1="1280.00" x2="1376.00" y2="1280.00" />
<line x1="1392.00" y1="1280.00" x2="1408.00" y2="1280.00" />
<line x1="816.00" y1="1312.00" x2="848.00" y2="1312.00" />
<line x1="864.00" y1="1312.00" x2="896.00" y2="1312.00" />
<line x1="832.00" y1="1296.00" x2="848.00" y2="1296.00" />
<line x1="864.00" y1="1296.00" x2="896.00" y2="1296.00" />
<line x1="1040.00" y1="1328.00" x2="1056.00" y2="1328.00" />
<line x1="896.00" y1="1360.00" x2="912.00" y2="1360.00" />
<line x1="1024.00" y1="1360.00" x2="1344.00" y2="1360.00" />
<line x1="1056.00" y1="1344.00" x2="1344.00" y2="1344.00" />
<line x1="912.00" y1="1376.00" x2="928.00" y2="1376.00" />
<line x1="1008.00" y1="1376.00" x2="1024.00" y2="1376.00" />
<line x1="928.00" y1="1392.00" x2="1008.00" y2="1392.00" />
<line x1="768.00" y1="1424.00" x2="848.00" y2="1424.00" />
<line x1="864.00" y1="1424.00" x2="928.00" y2="1424.00" />
<line x1="1344.00" y1="1424.00" x2="1408.00" y2="1424.00" />
<line x1="176.00" y1="1472.00" x2="768.00" y2="1472.00" />
<line x1="192.00" y1="1456.00" x2="576.00" y2="1456.00" />
<line x1="592.00" y1="1456.00" x2="640.00" y2="1456.00" />
<line x1="656.00" y1="1456.00" x2="768.00" y2="1456.00" />
<line x1="768.00" y1="1504.00" x2="928.00" y2="1504.00" />
<line x1="512.00" y1="32.00" x2="512.00" y2="128.00" />
<line x1="512.00" y1="432.00" x2="512.00" y2="560.00" />
<line x1="512.00" y1="608.00" x2="512.00" y2="624.00" />
<line x1="512.00" y1="640.00" x2="512.00" y2="656.00" />
<line x1="512.00" y1="720.00" x2="512.00" y2="784.00" />
<line x1="512.00" y1="832.00" x2="512.00" y2="848.00" />
<line x1="512.00" y1="1168.00" x2="512.00" y2="1200.00" />
<line x1="688.00" y1="32.00" x2="688.00" y2="128.00" />
<line x1="688.00" y1="624.00" x2="688.00" y2="640.00" />
<line x1="688.00" y1="672.00" x2="688.00" y2="688.00" />
<line x1="688.00" y1="944.00" x2="688.00" y2="960.00" />
<line x1="688.00" y1="992.00" x2="688.00" y2="1008.00" />
<line x1="1008.00" y1="64.00" x2="1008.00" y2="128.00" />
<line x1="1008.00" y1="144.00" x2="1008.00" y2="160.00" />
<line x1="1008.00" y1="176.00" x2="1008.00" y2="192.00" />
<line x1="1008.00" y1="608.00" x2="1008.00" y2="624.00" />
<line x1="1008.00" y1="640.00" x2="1008.00" y2="672.00" />
<line x1="1008.00" y1="1200.00" x2="1008.00" y2="1216.00" />
<line x1="1008.00" y1="1376.00" x2="1008.00" y2="1392.00" />
<line x1="1104.00" y1="64.00" x2="1104.00" y2="160.00" />
<line x1="1104.00" y1="176.00" x2="1104.00" y2="192.00" />
<line x1="1104.00" y1="512.00" x2="1104.00" y2="528.00" />
<line x1="1104.00" y1="544.00" x2="1104.00" y2="560.00" />
<line x1="1104.00" y1="1136.00" x2="1104.00" y2="1168.00" />
<line x1="1168.00" y1="64.00" x2="1168.00" y2="160.00" />
<line x1="1168.00" y1="176.00" x2="1168.00" y2="256.00" />
<line x1="1168.00" y1="448.00" x2="1168.00" y2="480.00" />
<line x1="1168.00" y1="496.00" x2="1168.00" y2="512.00" />
<line x1="1168.00" y1="1120.00" x2="1168.00" y2="1136.00" />
<line x1="1280.00" y1="64.00" x2="1280.00" y2="256.00" />
<line x1="1280.00" y1="512.00" x2="1280.00" y2="528.00" />
<line x1="1280.00" y1="640.00" x2="1280.00" y2="656.00" />
<line x1="1280.00" y1="944.00" x2="1280.00" y2="960.00" />
<line x1="1280.00" y1="1104.00" x2="1280.00" y2="1120.00" />
<line x1="256.00" y1="112.00" x2="256.00" y2="128.00" />
<line x1="256.00" y1="144.00" x2="256.00" y2="176.00" />
<line x1="256.00" y1="192.00" x2="256.00" y2="256.00" />
<line x1="256.00" y1="400.00" x2="256.00" y2="416.00" />
<line x1="256.00" y1="896.00" x2="256.00" y2="912.00" />
<line x1="256.00" y1="1024.00" x2="256.00" y2="1040.00" />
<line x1="256.00" y1="1104.00" x2="256.00" y2="1248.00" />
<line x1="416.00" y1="112.00" x2="416.00" y2="128.00" />
<line x1="416.00" y1="144.00" x2="416.00" y2="256.00" />
<line x1="416.00" y1="416.00" x2="416.00" y2="432.00" />
<line x1="416.00" y1="448.00" x2="416.00" y2="464.00" />
<line x1="416.00" y1="528.00" x2="416.00" y2="544.00" />
<line x1="416.00" y1="688.00" x2="416.00" y2="704.00" />
<line x1="416.00" y1="720.00" x2="416.00" y2="752.00" />
<line x1="176.00" y1="128.00" x2="176.00" y2="144.00" />
<line x1="176.00" y1="160.00" x2="176.00" y2="288.00" />
<line x1="176.00" y1="400.00" x2="176.00" y2="896.00" />
<line x1="176.00" y1="1040.00" x2="176.00" y2="1088.00" />
<line x1="176.00" y1="1248.00" x2="176.00" y2="1472.00" />
<line x1="80.00" y1="144.00" x2="80.00" y2="272.00" />
<line x1="80.00" y1="992.00" x2="80.00" y2="1008.00" />
<line x1="80.00" y1="1024.00" x2="80.00" y2="1088.00" />
<line x1="80.00" y1="1104.00" x2="80.00" y2="1184.00" />
<line x1="128.00" y1="144.00" x2="128.00" y2="176.00" />
<line x1="128.00" y1="208.00" x2="128.00" y2="272.00" />
<line x1="128.00" y1="928.00" x2="128.00" y2="1008.00" />
<line x1="160.00" y1="144.00" x2="160.00" y2="160.00" />
<line x1="160.00" y1="176.00" x2="160.00" y2="192.00" />
<line x1="160.00" y1="896.00" x2="160.00" y2="912.00" />
<line x1="160.00" y1="1024.00" x2="160.00" y2="1040.00" />
<line x1="192.00" y1="144.00" x2="192.00" y2="160.00" />
<line x1="192.00" y1="192.00" x2="192.00" y2="288.00" />
<line x1="192.00" y1="400.00" x2="192.00" y2="528.00" />
<line x1="192.00" y1="608.00" x2="192.00" y2="784.00" />
<line x1="192.00" y1="800.00" x2="192.00" y2="896.00" />
<line x1="192.00" y1="1040.00" x2="192.00" y2="1088.00" />
<line x1="192.00" y1="1248.00" x2="192.00" y2="1456.00" />
<line x1="592.00" y1="144.00" x2="592.00" y2="304.00" />
<line x1="592.00" y1="320.00" x2="592.00" y2="336.00" />
<line x1="592.00" y1="592.00" x2="592.00" y2="624.00" />
<line x1="592.00" y1="688.00" x2="592.00" y2="784.00" />
<line x1="592.00" y1="816.00" x2="592.00" y2="880.00" />
<line x1="592.00" y1="912.00" x2="592.00" y2="960.00" />
<line x1="592.00" y1="976.00" x2="592.00" y2="1008.00" />
<line x1="592.00" y1="1024.00" x2="592.00" y2="1040.00" />
<line x1="592.00" y1="1072.00" x2="592.00" y2="1088.00" />
<line x1="592.00" y1="1264.00" x2="592.00" y2="1456.00" />
<line x1="608.00" y1="144.00" x2="608.00" y2="272.00" />
<line x1="608.00" y1="608.00" x2="608.00" y2="624.00" />
<line x1="608.00" y1="688.00" x2="608.00" y2="704.00" />
<line x1="608.00" y1="880.00" x2="608.00" y2="896.00" />
<line x1="608.00" y1="912.00" x2="608.00" y2="944.00" />
<line x1="608.00" y1="1024.00" x2="608.00" y2="1040.00" />
<line x1="608.00" y1="1056.00" x2="608.00" y2="1072.00" />
<line x1="144.00" y1="160.00" x2="144.00" y2="176.00" />
<line x1="144.00" y1="192.00" x2="144.00" y2="208.00" />
<line x1="144.00" y1="288.00" x2="144.00" y2="400.00" />
<line x1="144.00" y1="912.00" x2="144.00" y2="928.00" />
<line x1="960.00" y1="160.00" x2="960.00" y2="576.00" />
<line x1="960.00" y1="592.00" x2="960.00" y2="688.00" />
<line x1="960.00" y1="704.00" x2="960.00" y2="752.00" />
<line x1="960.00" y1="816.00" x2="960.00" y2="848.00" />
<line x1="960.00" y1="896.00" x2="960.00" y2="960.00" />
<line x1="960.00" y1="976.00" x2="960.00" y2="1008.00" />
<line x1="960.00" y1="1040.00" x2="960.00" y2="1088.00" />
<line x1="960.00" y1="1104.00" x2="960.00" y2="1184.00" />
<line x1="976.00" y1="176.00" x2="976.00" y2="576.00" />
<line x1="976.00" y1="592.00" x2="976.00" y2="656.00" />
<line x1="976.00" y1="672.00" x2="976.00" y2="752.00" />
<line x1="976.00" y1="816.00" x2="976.00" y2="960.00" />
<line x1="976.00" y1="976.00" x2="976.00" y2="1008.00" />
<line x1="976.00" y1="1040.00" x2="976.00" y2="1088.00" />
<line x1="976.00" y1="1104.00" x2="976.00" y2="1184.00" />
<line x1="1056.00" y1="192.00" x2="1056.00" y2="576.00" />
<line x1="1056.00" y1="624.00" x2="1056.00" y2="752.00" />
<line x1="1056.00" y1="816.00" x2="1056.00" y2="944.00" />
<line x1="1056.00" y1="1200.00" x2="1056.00" y2="1216.00" />
<line x1="1056.00" y1="1232.00" x2="1056.00" y2="1248.00" />
<line x1="1056.00" y1="1328.00" x2="1056.00" y2="1344.00" />
<line x1="1072.00" y1="192.00" x2="1072.00" y2="544.00" />
<line x1="1072.00" y1="592.00" x2="1072.00" y2="784.00" />
<line x1="1072.00" y1="816.00" x2="1072.00" y2="944.00" />
<line x1="1072.00" y1="1168.00" x2="1072.00" y2="1184.00" />
<line x1="1072.00" y1="1200.00" x2="1072.00" y2="1232.00" />
<line x1="336.00" y1="256.00" x2="336.00" y2="336.00" />
<line x1="336.00" y1="352.00" x2="336.00" y2="432.00" />
<line x1="336.00" y1="464.00" x2="336.00" y2="528.00" />
<line x1="336.00" y1="608.00" x2="336.00" y2="624.00" />
<line x1="336.00" y1="656.00" x2="336.00" y2="784.00" />
<line x1="352.00" y1="256.00" x2="352.00" y2="336.00" />
<line x1="352.00" y1="400.00" x2="352.00" y2="464.00" />
<line x1="352.00" y1="512.00" x2="352.00" y2="640.00" />
<line x1="352.00" y1="672.00" x2="352.00" y2="784.00" />
<line x1="656.00" y1="272.00" x2="656.00" y2="304.00" />
<line x1="656.00" y1="320.00" x2="656.00" y2="352.00" />
<line x1="656.00" y1="704.00" x2="656.00" y2="784.00" />
<line x1="656.00" y1="816.00" x2="656.00" y2="960.00" />
<line x1="656.00" y1="1040.00" x2="656.00" y2="1088.00" />
<line x1="656.00" y1="1104.00" x2="656.00" y2="1184.00" />
<line x1="656.00" y1="1200.00" x2="656.00" y2="1456.00" />
<line x1="288.00" y1="288.00" x2="288.00" y2="336.00" />
<line x1="288.00" y1="352.00" x2="288.00" y2="400.00" />
<line x1="288.00" y1="416.00" x2="288.00" y2="432.00" />
<line x1="288.00" y1="928.00" x2="288.00" y2="960.00" />
<line x1="288.00" y1="976.00" x2="288.00" y2="1008.00" />
<line x1="480.00" y1="304.00" x2="480.00" y2="336.00" />
<line x1="480.00" y1="352.00" x2="480.00" y2="432.00" />
<line x1="480.00" y1="608.00" x2="480.00" y2="624.00" />
<line x1="880.00" y1="304.00" x2="880.00" y2="576.00" />
<line x1="880.00" y1="592.00" x2="880.00" y2="736.00" />
<line x1="880.00" y1="816.00" x2="880.00" y2="848.00" />
<line x1="880.00" y1="1200.00" x2="880.00" y2="1216.00" />
<line x1="496.00" y1="320.00" x2="496.00" y2="336.00" />
<line x1="496.00" y1="352.00" x2="496.00" y2="432.00" />
<line x1="496.00" y1="592.00" x2="496.00" y2="608.00" />
<line x1="496.00" y1="624.00" x2="496.00" y2="640.00" />
<line x1="720.00" y1="320.00" x2="720.00" y2="576.00" />
<line x1="720.00" y1="592.00" x2="720.00" y2="784.00" />
<line x1="736.00" y1="320.00" x2="736.00" y2="576.00" />
<line x1="736.00" y1="592.00" x2="736.00" y2="784.00" />
<line x1="736.00" y1="1040.00" x2="736.00" y2="1056.00" />
<line x1="864.00" y1="320.00" x2="864.00" y2="576.00" />
<line x1="864.00" y1="592.00" x2="864.00" y2="768.00" />
<line x1="864.00" y1="816.00" x2="864.00" y2="848.00" />
<line x1="864.00" y1="1040.00" x2="864.00" y2="1088.00" />
<line x1="864.00" y1="1104.00" x2="864.00" y2="1168.00" />
<line x1="864.00" y1="1200.00" x2="864.00" y2="1296.00" />
<line x1="864.00" y1="1312.00" x2="864.00" y2="1424.00" />
<line x1="368.00" y1="352.00" x2="368.00" y2="384.00" />
<line x1="368.00" y1="400.00" x2="368.00" y2="416.00" />
<line x1="368.00" y1="464.00" x2="368.00" y2="496.00" />
<line x1="368.00" y1="512.00" x2="368.00" y2="528.00" />
<line x1="368.00" y1="544.00" x2="368.00" y2="592.00" />
<line x1="368.00" y1="640.00" x2="368.00" y2="656.00" />
<line x1="368.00" y1="672.00" x2="368.00" y2="704.00" />
<line x1="624.00" y1="352.00" x2="624.00" y2="560.00" />
<line x1="624.00" y1="592.00" x2="624.00" y2="608.00" />
<line x1="624.00" y1="704.00" x2="624.00" y2="784.00" />
<line x1="624.00" y1="816.00" x2="624.00" y2="896.00" />
<line x1="624.00" y1="944.00" x2="624.00" y2="960.00" />
<line x1="624.00" y1="976.00" x2="624.00" y2="1008.00" />
<line x1="624.00" y1="1040.00" x2="624.00" y2="1056.00" />
<line x1="624.00" y1="1104.00" x2="624.00" y2="1120.00" />
<line x1="624.00" y1="1248.00" x2="624.00" y2="1264.00" />
<line x1="640.00" y1="352.00" x2="640.00" y2="576.00" />
<line x1="640.00" y1="592.00" x2="640.00" y2="608.00" />
<line x1="640.00" y1="1040.00" x2="640.00" y2="1088.00" />
<line x1="640.00" y1="1104.00" x2="640.00" y2="1120.00" />
<line x1="640.00" y1="1248.00" x2="640.00" y2="1456.00" />
<line x1="1200.00" y1="352.00" x2="1200.00" y2="432.00" />
<line x1="1200.00" y1="448.00" x2="1200.00" y2="464.00" />
<line x1="1200.00" y1="1056.00" x2="1200.00" y2="1072.00" />
<line x1="1312.00" y1="352.00" x2="1312.00" y2="416.00" />
<line x1="1312.00" y1="496.00" x2="1312.00" y2="512.00" />
<line x1="1312.00" y1="656.00" x2="1312.00" y2="672.00" />
<line x1="1312.00" y1="752.00" x2="1312.00" y2="784.00" />
<line x1="1312.00" y1="816.00" x2="1312.00" y2="848.00" />
<line x1="384.00" y1="384.00" x2="384.00" y2="400.00" />
<line x1="384.00" y1="416.00" x2="384.00" y2="432.00" />
<line x1="384.00" y1="496.00" x2="384.00" y2="512.00" />
<line x1="384.00" y1="528.00" x2="384.00" y2="544.00" />
<line x1="384.00" y1="592.00" x2="384.00" y2="656.00" />
<line x1="384.00" y1="704.00" x2="384.00" y2="784.00" />
<line x1="384.00" y1="800.00" x2="384.00" y2="960.00" />
<line x1="384.00" y1="976.00" x2="384.00" y2="992.00" />
<line x1="304.00" y1="400.00" x2="304.00" y2="416.00" />
<line x1="304.00" y1="432.00" x2="304.00" y2="448.00" />
<line x1="304.00" y1="608.00" x2="304.00" y2="640.00" />
<line x1="304.00" y1="992.00" x2="304.00" y2="1008.00" />
<line x1="304.00" y1="1024.00" x2="304.00" y2="1040.00" />
<line x1="400.00" y1="400.00" x2="400.00" y2="416.00" />
<line x1="400.00" y1="432.00" x2="400.00" y2="448.00" />
<line x1="400.00" y1="512.00" x2="400.00" y2="528.00" />
<line x1="400.00" y1="592.00" x2="400.00" y2="688.00" />
<line x1="400.00" y1="720.00" x2="400.00" y2="784.00" />
<line x1="400.00" y1="800.00" x2="400.00" y2="960.00" />
<line x1="400.00" y1="976.00" x2="400.00" y2="992.00" />
<line x1="320.00" y1="416.00" x2="320.00" y2="432.00" />
<line x1="320.00" y1="448.00" x2="320.00" y2="464.00" />
<line x1="320.00" y1="608.00" x2="320.00" y2="624.00" />
<line x1="320.00" y1="640.00" x2="320.00" y2="656.00" />
<line x1="1264.00" y1="416.00" x2="1264.00" y2="528.00" />
<line x1="1264.00" y1="640.00" x2="1264.00" y2="784.00" />
<line x1="1264.00" y1="816.00" x2="1264.00" y2="960.00" />
<line x1="432.00" y1="432.00" x2="432.00" y2="448.00" />
<line x1="432.00" y1="704.00" x2="432.00" y2="736.00" />
<line x1="448.00" y1="432.00" x2="448.00" y2="448.00" />
<line x1="448.00" y1="464.00" x2="448.00" y2="544.00" />
<line x1="448.00" y1="720.00" x2="448.00" y2="736.00" />
<line x1="448.00" y1="752.00" x2="448.00" y2="784.00" />
<line x1="448.00" y1="800.00" x2="448.00" y2="848.00" />
<line x1="1184.00" y1="432.00" x2="1184.00" y2="448.00" />
<line x1="1184.00" y1="464.00" x2="1184.00" y2="496.00" />
<line x1="1184.00" y1="1072.00" x2="1184.00" y2="1088.00" />
<line x1="1184.00" y1="1104.00" x2="1184.00" y2="1120.00" />
<line x1="1216.00" y1="432.00" x2="1216.00" y2="448.00" />
<line x1="1216.00" y1="1040.00" x2="1216.00" y2="1056.00" />
<line x1="1216.00" y1="1072.00" x2="1216.00" y2="1088.00" />
<line x1="1248.00" y1="432.00" x2="1248.00" y2="576.00" />
<line x1="1248.00" y1="592.00" x2="1248.00" y2="784.00" />
<line x1="1248.00" y1="816.00" x2="1248.00" y2="960.00" />
<line x1="1248.00" y1="976.00" x2="1248.00" y2="1008.00" />
<line x1="1248.00" y1="1056.00" x2="1248.00" y2="1088.00" />
<line x1="1152.00" y1="480.00" x2="1152.00" y2="496.00" />
<line x1="1152.00" y1="1104.00" x2="1152.00" y2="1120.00" />
<line x1="1120.00" y1="496.00" x2="1120.00" y2="512.00" />
<line x1="1120.00" y1="528.00" x2="1120.00" y2="544.00" />
<line x1="1120.00" y1="1120.00" x2="1120.00" y2="1136.00" />
<line x1="1120.00" y1="1152.00" x2="1120.00" y2="1184.00" />
<line x1="1344.00" y1="496.00" x2="1344.00" y2="512.00" />
<line x1="1344.00" y1="656.00" x2="1344.00" y2="672.00" />
<line x1="1344.00" y1="1280.00" x2="1344.00" y2="1344.00" />
<line x1="1344.00" y1="1360.00" x2="1344.00" y2="1424.00" />
<line x1="1136.00" y1="512.00" x2="1136.00" y2="528.00" />
<line x1="1136.00" y1="1136.00" x2="1136.00" y2="1152.00" />
<line x1="1376.00" y1="512.00" x2="1376.00" y2="528.00" />
<line x1="1376.00" y1="640.00" x2="1376.00" y2="656.00" />
<line x1="1376.00" y1="848.00" x2="1376.00" y2="944.00" />
<line x1="1376.00" y1="1120.00" x2="1376.00" y2="1184.00" />
<line x1="1376.00" y1="1200.00" x2="1376.00" y2="1280.00" />
<line x1="1088.00" y1="528.00" x2="1088.00" y2="544.00" />
<line x1="1088.00" y1="560.00" x2="1088.00" y2="576.00" />
<line x1="1088.00" y1="944.00" x2="1088.00" y2="960.00" />
<line x1="1088.00" y1="976.00" x2="1088.00" y2="1024.00" />
<line x1="1088.00" y1="1040.00" x2="1088.00" y2="1088.00" />
<line x1="1392.00" y1="528.00" x2="1392.00" y2="560.00" />
<line x1="1392.00" y1="608.00" x2="1392.00" y2="640.00" />
<line x1="1392.00" y1="848.00" x2="1392.00" y2="944.00" />
<line x1="1392.00" y1="1120.00" x2="1392.00" y2="1136.00" />
<line x1="1392.00" y1="1248.00" x2="1392.00" y2="1280.00" />
<line x1="784.00" y1="544.00" x2="784.00" y2="576.00" />
<line x1="784.00" y1="592.00" x2="784.00" y2="704.00" />
<line x1="784.00" y1="832.00" x2="784.00" y2="848.00" />
<line x1="784.00" y1="1056.00" x2="784.00" y2="1072.00" />
<line x1="784.00" y1="1104.00" x2="784.00" y2="1120.00" />
<line x1="848.00" y1="544.00" x2="848.00" y2="576.00" />
<line x1="848.00" y1="592.00" x2="848.00" y2="704.00" />
<line x1="848.00" y1="768.00" x2="848.00" y2="784.00" />
<line x1="848.00" y1="816.00" x2="848.00" y2="832.00" />
<line x1="848.00" y1="1040.00" x2="848.00" y2="1088.00" />
<line x1="848.00" y1="1104.00" x2="848.00" y2="1120.00" />
<line x1="848.00" y1="1168.00" x2="848.00" y2="1184.00" />
<line x1="848.00" y1="1200.00" x2="848.00" y2="1296.00" />
<line x1="848.00" y1="1312.00" x2="848.00" y2="1424.00" />
<line x1="1408.00" y1="560.00" x2="1408.00" y2="608.00" />
<line x1="1408.00" y1="944.00" x2="1408.00" y2="960.00" />
<line x1="1408.00" y1="1104.00" x2="1408.00" y2="1120.00" />
<line x1="1408.00" y1="1280.00" x2="1408.00" y2="1424.00" />
<line x1="464.00" y1="592.00" x2="464.00" y2="608.00" />
<line x1="464.00" y1="992.00" x2="464.00" y2="1008.00" />
<line x1="464.00" y1="1024.00" x2="464.00" y2="1040.00" />
<line x1="576.00" y1="592.00" x2="576.00" y2="656.00" />
<line x1="576.00" y1="672.00" x2="576.00" y2="784.00" />
<line x1="576.00" y1="816.00" x2="576.00" y2="864.00" />
<line x1="576.00" y1="896.00" x2="576.00" y2="960.00" />
<line x1="576.00" y1="976.00" x2="576.00" y2="1008.00" />
<line x1="576.00" y1="1024.00" x2="576.00" y2="1088.00" />
<line x1="576.00" y1="1264.00" x2="576.00" y2="1456.00" />
<line x1="1040.00" y1="592.00" x2="1040.00" y2="608.00" />
<line x1="1040.00" y1="1216.00" x2="1040.00" y2="1232.00" />
<line x1="1040.00" y1="1248.00" x2="1040.00" y2="1328.00" />
<line x1="672.00" y1="608.00" x2="672.00" y2="624.00" />
<line x1="672.00" y1="688.00" x2="672.00" y2="704.00" />
<line x1="672.00" y1="992.00" x2="672.00" y2="1008.00" />
<line x1="528.00" y1="624.00" x2="528.00" y2="640.00" />
<line x1="528.00" y1="656.00" x2="528.00" y2="672.00" />
<line x1="528.00" y1="832.00" x2="528.00" y2="864.00" />
<line x1="528.00" y1="1120.00" x2="528.00" y2="1168.00" />
<line x1="528.00" y1="1200.00" x2="528.00" y2="1248.00" />
<line x1="992.00" y1="624.00" x2="992.00" y2="656.00" />
<line x1="1024.00" y1="624.00" x2="1024.00" y2="640.00" />
<line x1="1024.00" y1="944.00" x2="1024.00" y2="960.00" />
<line x1="1024.00" y1="976.00" x2="1024.00" y2="1008.00" />
<line x1="1024.00" y1="1040.00" x2="1024.00" y2="1088.00" />
<line x1="1024.00" y1="1216.00" x2="1024.00" y2="1232.00" />
<line x1="1024.00" y1="1360.00" x2="1024.00" y2="1376.00" />
<line x1="544.00" y1="640.00" x2="544.00" y2="656.00" />
<line x1="544.00" y1="816.00" x2="544.00" y2="848.00" />
<line x1="544.00" y1="864.00" x2="544.00" y2="880.00" />
<line x1="544.00" y1="1104.00" x2="544.00" y2="1120.00" />
<line x1="544.00" y1="1248.00" x2="544.00" y2="1264.00" />
<line x1="704.00" y1="640.00" x2="704.00" y2="672.00" />
<line x1="704.00" y1="816.00" x2="704.00" y2="944.00" />
<line x1="704.00" y1="976.00" x2="704.00" y2="1008.00" />
<line x1="928.00" y1="688.00" x2="928.00" y2="720.00" />
<line x1="928.00" y1="1376.00" x2="928.00" y2="1392.00" />
<line x1="928.00" y1="1424.00" x2="928.00" y2="1504.00" />
<line x1="816.00" y1="704.00" x2="816.00" y2="784.00" />
<line x1="816.00" y1="816.00" x2="816.00" y2="832.00" />
<line x1="816.00" y1="896.00" x2="816.00" y2="960.00" />
<line x1="816.00" y1="976.00" x2="816.00" y2="1008.00" />
<line x1="816.00" y1="1040.00" x2="816.00" y2="1088.00" />
<line x1="816.00" y1="1136.00" x2="816.00" y2="1184.00" />
<line x1="816.00" y1="1200.00" x2="816.00" y2="1312.00" />
<line x1="832.00" y1="704.00" x2="832.00" y2="784.00" />
<line x1="832.00" y1="832.00" x2="832.00" y2="848.00" />
<line x1="832.00" y1="896.00" x2="832.00" y2="960.00" />
<line x1="832.00" y1="976.00" x2="832.00" y2="1008.00" />
<line x1="832.00" y1="1040.00" x2="832.00" y2="1088.00" />
<line x1="832.00" y1="1104.00" x2="832.00" y2="1120.00" />
<line x1="832.00" y1="1168.00" x2="832.00" y2="1184.00" />
<line x1="832.00" y1="1200.00" x2="832.00" y2="1296.00" />
<line x1="944.00" y1="704.00" x2="944.00" y2="736.00" />
<line x1="896.00" y1="720.00" x2="896.00" y2="736.00" />
<line x1="896.00" y1="1168.00" x2="896.00" y2="1184.00" />
<line x1="896.00" y1="1232.00" x2="896.00" y2="1296.00" />
<line x1="896.00" y1="1312.00" x2="896.00" y2="1360.00" />
<line x1="912.00" y1="736.00" x2="912.00" y2="752.00" />
<line x1="912.00" y1="1216.00" x2="912.00" y2="1232.00" />
<line x1="912.00" y1="1360.00" x2="912.00" y2="1376.00" />
<line x1="1456.00" y1="752.00" x2="1456.00" y2="848.00" />
<line x1="1456.00" y1="1136.00" x2="1456.00" y2="1248.00" />
<line x1="752.00" y1="816.00" x2="752.00" y2="880.00" />
<line x1="752.00" y1="912.00" x2="752.00" y2="960.00" />
<line x1="752.00" y1="1056.00" x2="752.00" y2="1072.00" />
<line x1="560.00" y1="848.00" x2="560.00" y2="864.00" />
<line x1="560.00" y1="880.00" x2="560.00" y2="896.00" />
<line x1="768.00" y1="848.00" x2="768.00" y2="880.00" />
<line x1="768.00" y1="896.00" x2="768.00" y2="912.00" />
<line x1="768.00" y1="1040.00" x2="768.00" y2="1056.00" />
<line x1="768.00" y1="1072.00" x2="768.00" y2="1088.00" />
<line x1="768.00" y1="1424.00" x2="768.00" y2="1456.00" />
<line x1="768.00" y1="1472.00" x2="768.00" y2="1504.00" />
<line x1="272.00" y1="912.00" x2="272.00" y2="928.00" />
<line x1="1424.00" y1="960.00" x2="1424.00" y2="976.00" />
<line x1="1424.00" y1="1088.00" x2="1424.00" y2="1104.00" />
<line x1="1440.00" y1="976.00" x2="1440.00" y2="1088.00" />
<line x1="32.00" y1="992.00" x2="32.00" y2="1184.00" />
<line x1="1232.00" y1="1008.00" x2="1232.00" y2="1024.00" />
<line x1="1232.00" y1="1056.00" x2="1232.00" y2="1072.00" />
<line x1="800.00" y1="1072.00" x2="800.00" y2="1088.00" />
<line x1="800.00" y1="1120.00" x2="800.00" y2="1136.00" />
<line x1="112.00" y1="1104.00" x2="112.00" y2="1248.00" />
  </g>
  <g class="features">
<g data-feature-type="stairsDown"><line data-feature-type="stairsDown" x1="1346.24" y1="1043.36" x2="1357.76" y2="1043.36" /><line x1="1346.65" y1="1045.68" x2="1357.35" y2="1045.68" /><line x1="1347.07" y1="1048.00" x2="1356.93" y2="1048.00" /><line x1="1347.48" y1="1050.32" x2="1356.52" y2="1050.32" /><line x1="1347.90" y1="1052.64" x2="1356.10" y2="1052.64" /></g>
<g data-feature-type="stairsUp"><line data-feature-type="stairsUp" x1="1347.90" y1="579.36" x2="1356.10" y2="579.36" /><line x1="1347.48" y1="581.68" x2="1356.52" y2="581.68" /><line x1="1347.07" y1="584.00" x2="1356.93" y2="584.00" /><line x1="1346.65" y1="586.32" x2="1357.35" y2="586.32" /><line x1="1346.24" y1="588.64" x2="1357.76" y2="588.64" /></g>
<circle data-feature-type="pillar" cx="568.00" cy="1192.00" r="3.68" fill="#5c92ab" stroke="none" />
<circle data-feature-type="pillar" cx="616.00" cy="1192.00" r="3.68" fill="#5c92ab" stroke="none" />
<g data-feature-type="well"><circle cx="584.00" cy="1240.00" r="4.00" fill="none" /><circle cx="584.00" cy="1240.00" r="2.24" fill="none" /></g>
<g data-feature-type="trap"><rect x="596.64" y="1188.64" width="6.72" height="6.72" fill="none" /><line x1="596.64" y1="1188.64" x2="603.36" y2="1195.36" /><line x1="596.64" y1="1195.36" x2="603.36" y2="1188.64" /></g>
<circle data-feature-type="pillar" cx="872.00" cy="1464.00" r="3.68" fill="#5c92ab" stroke="none" />
<g data-feature-type="altar"><rect x="853.28" y="1446.40" width="5.44" height="3.20" fill="none" /><line x1="856.00" y1="1445.44" x2="856.00" y2="1450.56" /><line x1="854.40" y1="1448.00" x2="857.60" y2="1448.00" /></g>
<g data-feature-type="trap"><rect x="884.64" y="1444.64" width="6.72" height="6.72" fill="none" /><line x1="884.64" y1="1444.64" x2="891.36" y2="1451.36" /><line x1="884.64" y1="1451.36" x2="891.36" y2="1444.64" /></g>
<g data-feature-type="statue"><circle cx="1368.00" cy="584.00" r="3.52" fill="none" /><line x1="1365.76" y1="584.00" x2="1370.24" y2="584.00" /><line x1="1368.00" y1="581.76" x2="1368.00" y2="586.24" /><line x1="1366.39" y1="582.39" x2="1369.61" y2="585.61" /><line x1="1366.39" y1="585.61" x2="1369.61" y2="582.39" /></g>
<circle data-feature-type="pillar" cx="200.00" cy="1160.00" r="3.68" fill="#5c92ab" stroke="none" />
<circle data-feature-type="pillar" cx="200.00" cy="1192.00" r="3.68" fill="#5c92ab" stroke="none" />
<circle data-feature-type="pillar" cx="216.00" cy="1192.00" r="3.68" fill="#5c92ab" stroke="none" />
<circle data-feature-type="pillar" cx="1272.00" cy="392.00" r="3.68" fill="#5c92ab" stroke="none" />
<g data-feature-type="trap"><rect x="52.64" y="1028.64" width="6.72" height="6.72" fill="none" /><line x1="52.64" y1="1028.64" x2="59.36" y2="1035.36" /><line x1="52.64" y1="1035.36" x2="59.36" y2="1028.64" /></g>
<g data-feature-type="statue"><circle cx="328.00" cy="1016.00" r="3.52" fill="none" /><line x1="325.76" y1="1016.00" x2="330.24" y2="1016.00" /><line x1="328.00" y1="1013.76" x2="328.00" y2="1018.24" /><line x1="326.39" y1="1014.39" x2="329.61" y2="1017.61" /><line x1="326.39" y1="1017.61" x2="329.61" y2="1014.39" /></g>
<g data-feature-type="chest"><rect x="437.28" y="1014.24" width="5.44" height="3.52" fill="none" /><line x1="437.28" y1="1016.00" x2="442.72" y2="1016.00" /><circle cx="440.00" cy="1016.18" r="0.70" fill="#5c92ab" stroke="none" /></g>
<g data-feature-type="statue"><circle cx="824.00" cy="648.00" r="3.52" fill="none" /><line x1="821.76" y1="648.00" x2="826.24" y2="648.00" /><line x1="824.00" y1="645.76" x2="824.00" y2="650.24" /><line x1="822.39" y1="646.39" x2="825.61" y2="649.61" /><line x1="822.39" y1="649.61" x2="825.61" y2="646.39" /></g>
<g data-feature-type="trap"><rect x="820.64" y="564.64" width="6.72" height="6.72" fill="none" /><line x1="820.64" y1="564.64" x2="827.36" y2="571.36" /><line x1="820.64" y1="571.36" x2="827.36" y2="564.64" /></g>
<circle data-feature-type="pillar" cx="360.00" cy="200.00" r="3.68" fill="#5c92ab" stroke="none" />
<circle data-feature-type="pillar" cx="376.00" cy="200.00" r="3.68" fill="#5c92ab" stroke="none" />
<circle data-feature-type="pillar" cx="312.00" cy="168.00" r="3.68" fill="#5c92ab" stroke="none" />
<g data-feature-type="altar"><rect x="373.28" y="166.40" width="5.44" height="3.20" fill="none" /><line x1="376.00" y1="165.44" x2="376.00" y2="170.56" /><line x1="374.40" y1="168.00" x2="377.60" y2="168.00" /></g>
<path data-feature-type="curtain" d="M 326.40 227.84 Q 328.00 230.34 326.40 232.00 Q 328.00 233.66 326.40 236.16" fill="none" /><path d="M 329.60 227.84 Q 328.00 230.34 329.60 232.00 Q 328.00 233.66 329.60 236.16" fill="none" />
<circle data-feature-type="pillar" cx="1192.00" cy="152.00" r="3.68" fill="#5c92ab" stroke="none" />
<circle data-feature-type="pillar" cx="1240.00" cy="152.00" r="3.68" fill="#5c92ab" stroke="none" />
<circle data-feature-type="pillar" cx="1208.00" cy="152.00" r="3.68" fill="#5c92ab" stroke="none" />
<g data-feature-type="statue"><circle cx="1208.00" cy="88.00" r="3.52" fill="none" /><line x1="1205.76" y1="88.00" x2="1210.24" y2="88.00" /><line x1="1208.00" y1="85.76" x2="1208.00" y2="90.24" /><line x1="1206.39" y1="86.39" x2="1209.61" y2="89.61" /><line x1="1206.39" y1="89.61" x2="1209.61" y2="86.39" /></g>
<circle data-feature-type="pillar" cx="472.00" cy="792.00" r="3.68" fill="#5c92ab" stroke="none" />
<circle data-feature-type="pillar" cx="648.00" cy="648.00" r="3.68" fill="#5c92ab" stroke="none" />
<circle data-feature-type="pillar" cx="648.00" cy="696.00" r="3.68" fill="#5c92ab" stroke="none" />
<g data-feature-type="statue"><circle cx="664.00" cy="680.00" r="3.52" fill="none" /><line x1="661.76" y1="680.00" x2="666.24" y2="680.00" /><line x1="664.00" y1="677.76" x2="664.00" y2="682.24" /><line x1="662.39" y1="678.39" x2="665.61" y2="681.61" /><line x1="662.39" y1="681.61" x2="665.61" y2="678.39" /></g>
<g data-feature-type="trap"><rect x="628.64" y="660.64" width="6.72" height="6.72" fill="none" /><line x1="628.64" y1="660.64" x2="635.36" y2="667.36" /><line x1="628.64" y1="667.36" x2="635.36" y2="660.64" /></g>
<g data-feature-type="chest"><rect x="661.28" y="630.24" width="5.44" height="3.52" fill="none" /><line x1="661.28" y1="632.00" x2="666.72" y2="632.00" /><circle cx="664.00" cy="632.18" r="0.70" fill="#5c92ab" stroke="none" /></g>
<circle data-feature-type="pillar" cx="1080.00" cy="1016.00" r="3.68" fill="#5c92ab" stroke="none" />
<g data-feature-type="statue"><circle cx="1064.00" cy="1048.00" r="3.52" fill="none" /><line x1="1061.76" y1="1048.00" x2="1066.24" y2="1048.00" /><line x1="1064.00" y1="1045.76" x2="1064.00" y2="1050.24" /><line x1="1062.39" y1="1046.39" x2="1065.61" y2="1049.61" /><line x1="1062.39" y1="1049.61" x2="1065.61" y2="1046.39" /></g>
<circle data-feature-type="pillar" cx="1432.00" cy="1192.00" r="3.68" fill="#5c92ab" stroke="none" />
<circle data-feature-type="pillar" cx="184.00" cy="344.00" r="3.68" fill="#5c92ab" stroke="none" />
<circle data-feature-type="pillar" cx="232.00" cy="344.00" r="3.68" fill="#5c92ab" stroke="none" />
<circle data-feature-type="pillar" cx="1032.00" cy="136.00" r="3.68" fill="#5c92ab" stroke="none" />
<circle data-feature-type="pillar" cx="1080.00" cy="136.00" r="3.68" fill="#5c92ab" stroke="none" />
<g data-feature-type="statue"><circle cx="472.00" cy="552.00" r="3.52" fill="none" /><line x1="469.76" y1="552.00" x2="474.24" y2="552.00" /><line x1="472.00" y1="549.76" x2="472.00" y2="554.24" /><line x1="470.39" y1="550.39" x2="473.61" y2="553.61" /><line x1="470.39" y1="553.61" x2="473.61" y2="550.39" /></g>
<circle data-feature-type="pillar" cx="1000.00" cy="792.00" r="3.68" fill="#5c92ab" stroke="none" />
<g data-feature-type="trap"><rect x="964.64" y="788.64" width="6.72" height="6.72" fill="none" /><line x1="964.64" y1="788.64" x2="971.36" y2="795.36" /><line x1="964.64" y1="795.36" x2="971.36" y2="788.64" /></g>
<circle data-feature-type="pillar" cx="1400.00" cy="1352.00" r="3.68" fill="#5c92ab" stroke="none" />
<g data-feature-type="statue"><circle cx="1368.00" cy="1336.00" r="3.52" fill="none" /><line x1="1365.76" y1="1336.00" x2="1370.24" y2="1336.00" /><line x1="1368.00" y1="1333.76" x2="1368.00" y2="1338.24" /><line x1="1366.39" y1="1334.39" x2="1369.61" y2="1337.61" /><line x1="1366.39" y1="1337.61" x2="1369.61" y2="1334.39" /></g>
<circle data-feature-type="pillar" cx="1400.00" cy="808.00" r="3.68" fill="#5c92ab" stroke="none" />
<g data-feature-type="well"><circle cx="1384.00" cy="792.00" r="4.00" fill="none" /><circle cx="1384.00" cy="792.00" r="2.24" fill="none" /></g>
<g data-feature-type="trap"><rect x="1364.64" y="804.64" width="6.72" height="6.72" fill="none" /><line x1="1364.64" y1="804.64" x2="1371.36" y2="811.36" /><line x1="1364.64" y1="811.36" x2="1371.36" y2="804.64" /></g>
<g data-feature-type="chest"><rect x="1333.28" y="774.24" width="5.44" height="3.52" fill="none" /><line x1="1333.28" y1="776.00" x2="1338.72" y2="776.00" /><circle cx="1336.00" cy="776.18" r="0.70" fill="#5c92ab" stroke="none" /></g>
<circle data-feature-type="pillar" cx="1368.00" cy="1048.00" r="3.68" fill="#5c92ab" stroke="none" />
<circle data-feature-type="pillar" cx="1384.00" cy="1048.00" r="3.68" fill="#5c92ab" stroke="none" />
<circle data-feature-type="pillar" cx="1368.00" cy="1016.00" r="3.68" fill="#5c92ab" stroke="none" />
<circle data-feature-type="pillar" cx="1336.00" cy="1016.00" r="3.68" fill="#5c92ab" stroke="none" />
<circle data-feature-type="pillar" cx="744.00" cy="888.00" r="3.68" fill="#5c92ab" stroke="none" />
<path data-feature-type="curtain" d="M 726.40 835.84 Q 728.00 838.34 726.40 840.00 Q 728.00 841.66 726.40 844.16" fill="none" /><path d="M 729.60 835.84 Q 728.00 838.34 729.60 840.00 Q 728.00 841.66 729.60 844.16" fill="none" />
<circle data-feature-type="pillar" cx="120.00" cy="216.00" r="3.68" fill="#5c92ab" stroke="none" />
<circle data-feature-type="pillar" cx="280.00" cy="568.00" r="3.68" fill="#5c92ab" stroke="none" />
<circle data-feature-type="pillar" cx="200.00" cy="984.00" r="3.68" fill="#5c92ab" stroke="none" />
<circle data-feature-type="pillar" cx="248.00" cy="984.00" r="3.68" fill="#5c92ab" stroke="none" />
<circle data-feature-type="pillar" cx="232.00" cy="984.00" r="3.68" fill="#5c92ab" stroke="none" />
  </g>
  <g class="thresholds">
<rect data-threshold-type="door" x="643.52" y="1173.76" width="8.96" height="4.48" fill="#ffffff" stroke="#5c92ab" stroke-width="1.52" />
<rect data-threshold-type="door" x="851.52" y="1429.76" width="8.96" height="4.48" fill="#ffffff" stroke="#5c92ab" stroke-width="1.52" />
<rect data-threshold-type="door" x="419.52" y="549.76" width="8.96" height="4.48" fill="#ffffff" stroke="#5c92ab" stroke-width="1.52" />
<g data-threshold-type="locked" stroke="#5c92ab" fill="none" stroke-width="1.52"><rect x="1267.52" y="549.76" width="8.96" height="4.48" fill="#ffffff" /><circle cx="1272.00" cy="548.77" r="1.61" /></g>
<g data-threshold-type="locked" stroke="#5c92ab" fill="none" stroke-width="1.52"><rect x="115.52" y="1093.76" width="8.96" height="4.48" fill="#ffffff" /><circle cx="120.00" cy="1092.77" r="1.61" /></g>
<rect data-threshold-type="door" x="1251.52" y="405.76" width="8.96" height="4.48" fill="#ffffff" stroke="#5c92ab" stroke-width="1.52" />
<rect data-threshold-type="door" x="963.52" y="1205.76" width="8.96" height="4.48" fill="#ffffff" stroke="#5c92ab" stroke-width="1.52" />
<rect data-threshold-type="door" x="67.52" y="1093.76" width="8.96" height="4.48" fill="#ffffff" stroke="#5c92ab" stroke-width="1.52" />
<rect data-threshold-type="door" x="387.52" y="997.76" width="8.96" height="4.48" fill="#ffffff" stroke="#5c92ab" stroke-width="1.52" />
<rect data-threshold-type="door" x="835.52" y="581.76" width="8.96" height="4.48" fill="#ffffff" stroke="#5c92ab" stroke-width="1.52" />
<g data-threshold-type="locked" stroke="#5c92ab" fill="none" stroke-width="1.52"><rect x="403.52" y="133.76" width="8.96" height="4.48" fill="#ffffff" /><circle cx="408.00" cy="132.77" r="1.61" /></g>
<rect data-threshold-type="door" x="1171.52" y="165.76" width="8.96" height="4.48" fill="#ffffff" stroke="#5c92ab" stroke-width="1.52" />
<rect data-threshold-type="door" x="499.52" y="789.76" width="8.96" height="4.48" fill="#ffffff" stroke="#5c92ab" stroke-width="1.52" />
<rect data-threshold-type="door" x="595.52" y="677.76" width="8.96" height="4.48" fill="#ffffff" stroke="#5c92ab" stroke-width="1.52" />
<rect data-threshold-type="door" x="1027.52" y="1013.76" width="8.96" height="4.48" fill="#ffffff" stroke="#5c92ab" stroke-width="1.52" />
<rect data-threshold-type="door" x="1379.52" y="1237.76" width="8.96" height="4.48" fill="#ffffff" stroke="#5c92ab" stroke-width="1.52" />
<g data-threshold-type="locked" stroke="#5c92ab" fill="none" stroke-width="1.52"><rect x="179.52" y="293.76" width="8.96" height="4.48" fill="#ffffff" /><circle cx="184.00" cy="292.77" r="1.61" /></g>
<rect data-threshold-type="door" x="1091.52" y="165.76" width="8.96" height="4.48" fill="#ffffff" stroke="#5c92ab" stroke-width="1.52" />
<rect data-threshold-type="door" x="483.52" y="565.76" width="8.96" height="4.48" fill="#ffffff" stroke="#5c92ab" stroke-width="1.52" />
<rect data-threshold-type="door" x="963.52" y="757.76" width="8.96" height="4.48" fill="#ffffff" stroke="#5c92ab" stroke-width="1.52" />
<rect data-threshold-type="door" x="1379.52" y="1285.76" width="8.96" height="4.48" fill="#ffffff" stroke="#5c92ab" stroke-width="1.52" />
<rect data-threshold-type="door" x="1379.52" y="837.76" width="8.96" height="4.48" fill="#ffffff" stroke="#5c92ab" stroke-width="1.52" />
<rect data-threshold-type="door" x="595.52" y="309.76" width="8.96" height="4.48" fill="#ffffff" stroke="#5c92ab" stroke-width="1.52" />
<rect data-threshold-type="door" x="515.52" y="133.76" width="8.96" height="4.48" fill="#ffffff" stroke="#5c92ab" stroke-width="1.52" />
<rect data-threshold-type="door" x="1251.52" y="965.76" width="8.96" height="4.48" fill="#ffffff" stroke="#5c92ab" stroke-width="1.52" />
<rect data-threshold-type="door" x="947.52" y="853.76" width="8.96" height="4.48" fill="#ffffff" stroke="#5c92ab" stroke-width="1.52" />
<rect data-threshold-type="door" x="707.52" y="821.76" width="8.96" height="4.48" fill="#ffffff" stroke="#5c92ab" stroke-width="1.52" />
<rect data-threshold-type="door" x="115.52" y="197.76" width="8.96" height="4.48" fill="#ffffff" stroke="#5c92ab" stroke-width="1.52" />
<rect data-threshold-type="door" x="323.52" y="533.76" width="8.96" height="4.48" fill="#ffffff" stroke="#5c92ab" stroke-width="1.52" />
<rect data-threshold-type="door" x="179.52" y="1029.76" width="8.96" height="4.48" fill="#ffffff" stroke="#5c92ab" stroke-width="1.52" />
  </g>
  <g class="labels">
<text x="584.00" y="1193.92" text-anchor="middle">1</text>
<text x="856.00" y="1465.92" text-anchor="middle">2</text>
<text x="408.00" y="569.92" text-anchor="middle">3</text>
<text x="1336.00" y="585.92" text-anchor="middle">4</text>
<text x="184.00" y="1177.92" text-anchor="middle">5</text>
<text x="1256.00" y="393.92" text-anchor="middle">6</text>
<text x="968.00" y="1305.92" text-anchor="middle">7</text>
<text x="56.00" y="1097.92" text-anchor="middle">8</text>
<text x="392.00" y="1017.92" text-anchor="middle">9</text>
<text x="824.00" y="633.92" text-anchor="middle">10</text>
<text x="344.00" y="185.92" text-anchor="middle">11</text>
<text x="1224.00" y="169.92" text-anchor="middle">12</text>
<text x="488.00" y="793.92" text-anchor="middle">13</text>
<text x="648.00" y="665.92" text-anchor="middle">14</text>
<text x="1064.00" y="1017.92" text-anchor="middle">15</text>
<text x="1416.00" y="1193.92" text-anchor="middle">16</text>
<text x="216.00" y="345.92" text-anchor="middle">17</text>
<text x="1064.00" y="137.92" text-anchor="middle">18</text>
<text x="488.00" y="505.92" text-anchor="middle">19</text>
<text x="984.00" y="793.92" text-anchor="middle">20</text>
<text x="1384.00" y="1353.92" text-anchor="middle">21</text>
<text x="1384.00" y="809.92" text-anchor="middle">22</text>
<text x="632.00" y="313.92" text-anchor="middle">23</text>
<text x="600.00" y="89.92" text-anchor="middle">24</text>
<text x="1352.00" y="1033.92" text-anchor="middle">25</text>
<text x="872.00" y="873.92" text-anchor="middle">26</text>
<text x="728.00" y="889.92" text-anchor="middle">27</text>
<text x="104.00" y="217.92" text-anchor="middle">28</text>
<text x="264.00" y="569.92" text-anchor="middle">29</text>
<text x="216.00" y="969.92" text-anchor="middle">30</text>
  </g>
</svg>