<?xml version="1.0" encoding="UTF-8"?>
<svg xmlns="http://www.w3.org/2000/svg" width="1280" height="1536" viewBox="0 0 1280.00 1536.00" role="img" aria-label="MapIR render: Learned Generated Map 4">
  <defs>
    <style>
      .grid { stroke: #d7e7ef; stroke-width: 0.64; opacity: 0.72; }
      .walls { stroke: #6fa8c1; stroke-width: 1.92; fill: none; stroke-linecap: square; }
      .thresholds { fill: none; stroke-linecap: round; }
      .features { stroke: #5c92ab; fill: none; stroke-width: 1.60; stroke-linecap: round; stroke-linejoin: round; }
      .labels { fill: #5c92ab; font-size: 7.20px; font-family: "Courier New", monospace; font-weight: 600; }
    </style>
  </defs>
  <rect x="0" y="0" width="1280.00" height="1536.00" fill="#5d9fbc" />
  <g class="floors">
<rect x="224.00" y="64.00" width="96.00" height="80.00" fill="#fbfdfe" />
<rect x="1168.00" y="64.00" width="64.00" height="128.00" fill="#fbfdfe" />
<rect x="112.00" y="96.00" width="112.00" height="16.00" fill="#fbfdfe" />
<rect x="320.00" y="96.00" width="848.00" height="16.00" fill="#fbfdfe" />
<rect x="112.00" y="112.00" width="16.00" height="464.00" fill="#fbfdfe" />
<rect x="928.00" y="112.00" width="16.00" height="1312.00" fill="#fbfdfe" />
<rect x="976.00" y="112.00" width="112.00" height="96.00" fill="#fbfdfe" />
<rect x="1152.00" y="112.00" width="16.00" height="512.00" fill="#fbfdfe" />
<rect x="512.00" y="128.00" width="416.00" height="16.00" fill="#fbfdfe" />
<rect x="944.00" y="128.00" width="32.00" height="16.00" fill="#fbfdfe" />
<rect x="1088.00" y="128.00" width="64.00" height="16.00" fill="#fbfdfe" />
<rect x="512.00" y="144.00" width="16.00" height="864.00" fill="#fbfdfe" />
<rect x="960.00" y="144.00" width="16.00" height="48.00" fill="#fbfdfe" />
<rect x="1088.00" y="144.00" width="16.00" height="48.00" fill="#fbfdfe" />
<rect x="320.00" y="160.00" width="192.00" height="16.00" fill="#fbfdfe" />
<rect x="528.00" y="160.00" width="400.00" height="16.00" fill="#fbfdfe" />
<rect x="944.00" y="160.00" width="16.00" height="16.00" fill="#fbfdfe" />
<rect x="320.00" y="176.00" width="16.00" height="256.00" fill="#fbfdfe" />
<rect x="416.00" y="176.00" width="96.00" height="64.00" fill="#fbfdfe" />
<rect x="528.00" y="176.00" width="16.00" height="64.00" fill="#fbfdfe" />
<rect x="848.00" y="176.00" width="16.00" height="800.00" fill="#fbfdfe" />
<rect x="144.00" y="192.00" width="112.00" height="144.00" fill="#fbfdfe" />
<rect x="336.00" y="192.00" width="80.00" height="16.00" fill="#fbfdfe" />
<rect x="768.00" y="192.00" width="32.00" height="160.00" fill="#fbfdfe" />
<rect x="1200.00" y="192.00" width="16.00" height="160.00" fill="#fbfdfe" />
<rect x="336.00" y="208.00" width="16.00" height="1008.00" fill="#fbfdfe" />
<rect x="736.00" y="208.00" width="32.00" height="112.00" fill="#fbfdfe" />
<rect x="800.00" y="208.00" width="32.00" height="112.00" fill="#fbfdfe" />
<rect x="992.00" y="208.00" width="96.00" height="16.00" fill="#fbfdfe" />
<rect x="720.00" y="224.00" width="16.00" height="80.00" fill="#fbfdfe" />
<rect x="832.00" y="224.00" width="16.00" height="80.00" fill="#fbfdfe" />
<rect x="1008.00" y="224.00" width="32.00" height="848.00" fill="#fbfdfe" />
<rect x="1072.00" y="224.00" width="16.00" height="1248.00" fill="#fbfdfe" />
<rect x="480.00" y="240.00" width="16.00" height="832.00" fill="#fbfdfe" />
<rect x="128.00" y="256.00" width="16.00" height="16.00" fill="#fbfdfe" />
<rect x="256.00" y="256.00" width="64.00" height="16.00" fill="#fbfdfe" />
<rect x="352.00" y="256.00" width="64.00" height="16.00" fill="#fbfdfe" />
<rect x="496.00" y="256.00" width="16.00" height="16.00" fill="#fbfdfe" />
<rect x="528.00" y="256.00" width="192.00" height="16.00" fill="#fbfdfe" />
<rect x="944.00" y="256.00" width="64.00" height="160.00" fill="#fbfdfe" />
<rect x="400.00" y="272.00" width="16.00" height="1200.00" fill="#fbfdfe" />
<rect x="464.00" y="288.00" width="16.00" height="96.00" fill="#fbfdfe" />
<rect x="496.00" y="288.00" width="16.00" height="96.00" fill="#fbfdfe" />
<rect x="528.00" y="288.00" width="80.00" height="96.00" fill="#fbfdfe" />
<rect x="288.00" y="304.00" width="32.00" height="128.00" fill="#fbfdfe" />
<rect x="192.00" y="336.00" width="16.00" height="1088.00" fill="#fbfdfe" />
<rect x="352.00" y="336.00" width="48.00" height="16.00" fill="#fbfdfe" />
<rect x="416.00" y="336.00" width="48.00" height="16.00" fill="#fbfdfe" />
<rect x="608.00" y="336.00" width="160.00" height="16.00" fill="#fbfdfe" />
<rect x="800.00" y="336.00" width="48.00" height="16.00" fill="#fbfdfe" />
<rect x="864.00" y="336.00" width="64.00" height="16.00" fill="#fbfdfe" />
<rect x="1040.00" y="336.00" width="32.00" height="16.00" fill="#fbfdfe" />
<rect x="1088.00" y="336.00" width="64.00" height="16.00" fill="#fbfdfe" />
<rect x="1168.00" y="336.00" width="32.00" height="16.00" fill="#fbfdfe" />
<rect x="672.00" y="352.00" width="16.00" height="1040.00" fill="#fbfdfe" />
<rect x="784.00" y="352.00" width="16.00" height="688.00" fill="#fbfdfe" />
<rect x="1088.00" y="352.00" width="16.00" height="1120.00" fill="#fbfdfe" />
<rect x="688.00" y="368.00" width="96.00" height="96.00" fill="#fbfdfe" />
<rect x="800.00" y="368.00" width="48.00" height="96.00" fill="#fbfdfe" />
<rect x="528.00" y="384.00" width="16.00" height="1008.00" fill="#fbfdfe" />
<rect x="64.00" y="400.00" width="48.00" height="176.00" fill="#fbfdfe" />
<rect x="128.00" y="400.00" width="32.00" height="176.00" fill="#fbfdfe" />
<rect x="544.00" y="400.00" width="48.00" height="96.00" fill="#fbfdfe" />
<rect x="960.00" y="416.00" width="16.00" height="496.00" fill="#fbfdfe" />
<rect x="208.00" y="448.00" width="128.00" height="16.00" fill="#fbfdfe" />
<rect x="352.00" y="448.00" width="48.00" height="16.00" fill="#fbfdfe" />
<rect x="416.00" y="448.00" width="64.00" height="16.00" fill="#fbfdfe" />
<rect x="496.00" y="448.00" width="16.00" height="16.00" fill="#fbfdfe" />
<rect x="208.00" y="464.00" width="16.00" height="640.00" fill="#fbfdfe" />
<rect x="160.00" y="480.00" width="32.00" height="16.00" fill="#fbfdfe" />
<rect x="224.00" y="480.00" width="112.00" height="16.00" fill="#fbfdfe" />
<rect x="352.00" y="480.00" width="48.00" height="16.00" fill="#fbfdfe" />
<rect x="416.00" y="480.00" width="64.00" height="16.00" fill="#fbfdfe" />
<rect x="496.00" y="480.00" width="16.00" height="16.00" fill="#fbfdfe" />
<rect x="1120.00" y="512.00" width="32.00" height="112.00" fill="#fbfdfe" />
<rect x="1168.00" y="512.00" width="32.00" height="112.00" fill="#fbfdfe" />
<rect x="800.00" y="528.00" width="48.00" height="112.00" fill="#fbfdfe" />
<rect x="864.00" y="528.00" width="16.00" height="112.00" fill="#fbfdfe" />
<rect x="1104.00" y="528.00" width="16.00" height="80.00" fill="#fbfdfe" />
<rect x="1200.00" y="528.00" width="16.00" height="80.00" fill="#fbfdfe" />
<rect x="880.00" y="560.00" width="48.00" height="16.00" fill="#fbfdfe" />
<rect x="944.00" y="560.00" width="16.00" height="16.00" fill="#fbfdfe" />
<rect x="976.00" y="560.00" width="32.00" height="16.00" fill="#fbfdfe" />
<rect x="1040.00" y="560.00" width="32.00" height="16.00" fill="#fbfdfe" />
<rect x="896.00" y="576.00" width="16.00" height="736.00" fill="#fbfdfe" />
<rect x="832.00" y="640.00" width="16.00" height="752.00" fill="#fbfdfe" />
<rect x="976.00" y="640.00" width="32.00" height="128.00" fill="#fbfdfe" />
<rect x="1040.00" y="656.00" width="16.00" height="96.00" fill="#fbfdfe" />
<rect x="944.00" y="672.00" width="16.00" height="64.00" fill="#fbfdfe" />
<rect x="1056.00" y="672.00" width="16.00" height="64.00" fill="#fbfdfe" />
<rect x="464.00" y="800.00" width="16.00" height="64.00" fill="#fbfdfe" />
<rect x="496.00" y="800.00" width="16.00" height="64.00" fill="#fbfdfe" />
<rect x="544.00" y="800.00" width="96.00" height="64.00" fill="#fbfdfe" />
<rect x="144.00" y="864.00" width="48.00" height="64.00" fill="#fbfdfe" />
<rect x="224.00" y="864.00" width="64.00" height="64.00" fill="#fbfdfe" />
<rect x="544.00" y="864.00" width="16.00" height="528.00" fill="#fbfdfe" />
<rect x="288.00" y="896.00" width="48.00" height="16.00" fill="#fbfdfe" />
<rect x="352.00" y="896.00" width="48.00" height="16.00" fill="#fbfdfe" />
<rect x="416.00" y="896.00" width="64.00" height="16.00" fill="#fbfdfe" />
<rect x="496.00" y="896.00" width="16.00" height="112.00" fill="#fbfdfe" />
<rect x="560.00" y="896.00" width="112.00" height="16.00" fill="#fbfdfe" />
<rect x="688.00" y="896.00" width="96.00" height="16.00" fill="#fbfdfe" />
<rect x="800.00" y="896.00" width="32.00" height="80.00" fill="#fbfdfe" />
<rect x="864.00" y="896.00" width="32.00" height="80.00" fill="#fbfdfe" />
<rect x="912.00" y="896.00" width="16.00" height="80.00" fill="#fbfdfe" />
<rect x="944.00" y="896.00" width="16.00" height="16.00" fill="#fbfdfe" />
<rect x="464.00" y="912.00" width="16.00" height="96.00" fill="#fbfdfe" />
<rect x="768.00" y="912.00" width="16.00" height="64.00" fill="#fbfdfe" />
<rect x="944.00" y="928.00" width="64.00" height="16.00" fill="#fbfdfe" />
<rect x="1040.00" y="928.00" width="32.00" height="16.00" fill="#fbfdfe" />
<rect x="112.00" y="976.00" width="80.00" height="160.00" fill="#fbfdfe" />
<rect x="96.00" y="992.00" width="16.00" height="128.00" fill="#fbfdfe" />
<rect x="592.00" y="992.00" width="80.00" height="128.00" fill="#fbfdfe" />
<rect x="688.00" y="992.00" width="80.00" height="128.00" fill="#fbfdfe" />
<rect x="1040.00" y="992.00" width="32.00" height="80.00" fill="#fbfdfe" />
<rect x="80.00" y="1008.00" width="16.00" height="96.00" fill="#fbfdfe" />
<rect x="800.00" y="1024.00" width="32.00" height="16.00" fill="#fbfdfe" />
<rect x="848.00" y="1024.00" width="48.00" height="16.00" fill="#fbfdfe" />
<rect x="912.00" y="1024.00" width="16.00" height="16.00" fill="#fbfdfe" />
<rect x="944.00" y="1024.00" width="64.00" height="16.00" fill="#fbfdfe" />
<rect x="496.00" y="1056.00" width="32.00" height="16.00" fill="#fbfdfe" />
<rect x="560.00" y="1056.00" width="32.00" height="16.00" fill="#fbfdfe" />
<rect x="768.00" y="1056.00" width="64.00" height="16.00" fill="#fbfdfe" />
<rect x="848.00" y="1056.00" width="48.00" height="16.00" fill="#fbfdfe" />
<rect x="912.00" y="1056.00" width="16.00" height="16.00" fill="#fbfdfe" />
<rect x="944.00" y="1056.00" width="64.00" height="16.00" fill="#fbfdfe" />
<rect x="1024.00" y="1072.00" width="16.00" height="176.00" fill="#fbfdfe" />
<rect x="304.00" y="1088.00" width="32.00" height="128.00" fill="#fbfdfe" />
<rect x="352.00" y="1088.00" width="32.00" height="128.00" fill="#fbfdfe" />
<rect x="816.00" y="1088.00" width="16.00" height="112.00" fill="#fbfdfe" />
<rect x="848.00" y="1088.00" width="48.00" height="112.00" fill="#fbfdfe" />
<rect x="912.00" y="1088.00" width="16.00" height="112.00" fill="#fbfdfe" />
<rect x="944.00" y="1088.00" width="32.00" height="112.00" fill="#fbfdfe" />
<rect x="128.00" y="1168.00" width="32.00" height="160.00" fill="#fbfdfe" />
<rect x="96.00" y="1184.00" width="32.00" height="128.00" fill="#fbfdfe" />
<rect x="160.00" y="1184.00" width="32.00" height="128.00" fill="#fbfdfe" />
<rect x="1040.00" y="1200.00" width="32.00" height="64.00" fill="#fbfdfe" />
<rect x="1104.00" y="1200.00" width="16.00" height="64.00" fill="#fbfdfe" />
<rect x="80.00" y="1216.00" width="16.00" height="64.00" fill="#fbfdfe" />
<rect x="880.00" y="1232.00" width="16.00" height="80.00" fill="#fbfdfe" />
<rect x="912.00" y="1232.00" width="16.00" height="80.00" fill="#fbfdfe" />
<rect x="944.00" y="1232.00" width="80.00" height="16.00" fill="#fbfdfe" />
<rect x="944.00" y="1248.00" width="32.00" height="64.00" fill="#fbfdfe" />
<rect x="560.00" y="1264.00" width="112.00" height="16.00" fill="#fbfdfe" />
<rect x="688.00" y="1264.00" width="144.00" height="16.00" fill="#fbfdfe" />
<rect x="848.00" y="1264.00" width="32.00" height="16.00" fill="#fbfdfe" />
<rect x="368.00" y="1296.00" width="32.00" height="176.00" fill="#fbfdfe" />
<rect x="416.00" y="1296.00" width="16.00" height="176.00" fill="#fbfdfe" />
<rect x="864.00" y="1328.00" width="64.00" height="96.00" fill="#fbfdfe" />
<rect x="944.00" y="1328.00" width="64.00" height="96.00" fill="#fbfdfe" />
<rect x="560.00" y="1360.00" width="112.00" height="32.00" fill="#fbfdfe" />
<rect x="688.00" y="1360.00" width="144.00" height="32.00" fill="#fbfdfe" />
<rect x="848.00" y="1360.00" width="16.00" height="32.00" fill="#fbfdfe" />
<rect x="1008.00" y="1360.00" width="64.00" height="16.00" fill="#fbfdfe" />
<rect x="1104.00" y="1360.00" width="32.00" height="96.00" fill="#fbfdfe" />
<rect x="432.00" y="1376.00" width="96.00" height="16.00" fill="#fbfdfe" />
<rect x="1040.00" y="1376.00" width="32.00" height="80.00" fill="#fbfdfe" />
<rect x="1024.00" y="1392.00" width="16.00" height="32.00" fill="#fbfdfe" />
<rect x="1136.00" y="1392.00" width="16.00" height="32.00" fill="#fbfdfe" />
<rect x="208.00" y="1408.00" width="160.00" height="16.00" fill="#fbfdfe" />
<rect x="432.00" y="1408.00" width="432.00" height="16.00" fill="#fbfdfe" />
<rect x="1008.00" y="1408.00" width="16.00" height="16.00" fill="#fbfdfe" />
  </g>
  <g class="grid">
<line x1="0.00" y1="0" x2="0.00" y2="1536.00" />
<line x1="16.00" y1="0" x2="16.00" y2="1536.00" />
<line x1="32.00" y1="0" x2="32.00" y2="1536.00" />
<line x1="48.00" y1="0" x2="48.00" y2="1536.00" />
<line x1="64.00" y1="0" x2="64.00" y2="1536.00" />
<line x1="80.00" y1="0" x2="80.00" y2="1536.00" />
<line x1="96.00" y1="0" x2="96.00" y2="1536.00" />
<line x1="112.00" y1="0" x2="112.00" y2="1536.00" />
<line x1="128.00" y1="0" x2="128.00" y2="1536.00" />
<line x1="144.00" y1="0" x2="144.00" y2="1536.00" />
<line x1="160.00" y1="0" x2="160.00" y2="1536.00" />
<line x1="176.00" y1="0" x2="176.00" y2="1536.00" />
<line x1="192.00" y1="0" x2="192.00" y2="1536.00" />
<line x1="208.00" y1="0" x2="208.00" y2="1536.00" />
<line x1="224.00" y1="0" x2="224.00" y2="1536.00" />
<line x1="240.00" y1="0" x2="240.00" y2="1536.00" />
<line x1="256.00" y1="0" x2="256.00" y2="1536.00" />
<line x1="272.00" y1="0" x2="272.00" y2="1536.00" />
<line x1="288.00" y1="0" x2="288.00" y2="1536.00" />
<line x1="304.00" y1="0" x2="304.00" y2="1536.00" />
<line x1="320.00" y1="0" x2="320.00" y2="1536.00" />
<line x1="336.00" y1="0" x2="336.00" y2="1536.00" />
<line x1="352.00" y1="0" x2="352.00" y2="1536.00" />
<line x1="368.00" y1="0" x2="368.00" y2="1536.00" />
<line x1="384.00" y1="0" x2="384.00" y2="1536.00" />
<line x1="400.00" y1="0" x2="400.00" y2="1536.00" />
<line x1="416.00" y1="0" x2="416.00" y2="1536.00" />
<line x1="432.00" y1="0" x2="432.00" y2="1536.00" />
<line x1="448.00" y1="0" x2="448.00" y2="1536.00" />
<line x1="464.00" y1="0" x2="464.00" y2="1536.00" />
<line x1="480.00" y1="0" x2="480.00" y2="1536.00" />
<line x1="496.00" y1="0" x2="496.00" y2="1536.00" />
<line x1="512.00" y1="0" x2="512.00" y2="1536.00" />
<line x1="528.00" y1="0" x2="528.00" y2="1536.00" />
<line x1="544.00" y1="0" x2="544.00" y2="1536.00" />
<line x1="560.00" y1="0" x2="560.00" y2="1536.00" />
<line x1="576.00" y1="0" x2="576.00" y2="1536.00" />
<line x1="592.00" y1="0" x2="592.00" y2="1536.00" />
<line x1="608.00" y1="0" x2="608.00" y2="1536.00" />
<line x1="624.00" y1="0" x2="624.00" y2="1536.00" />
<line x1="640.00" y1="0" x2="640.00" y2="1536.00" />
<line x1="656.00" y1="0" x2="656.00" y2="1536.00" />
<line x1="672.00" y1="0" x2="672.00" y2="1536.00" />
<line x1="688.00" y1="0" x2="688.00" y2="1536.00" />
<line x1="704.00" y1="0" x2="704.00" y2="1536.00" />
<line x1="720.00" y1="0" x2="720.00" y2="1536.00" />
<line x1="736.00" y1="0" x2="736.00" y2="1536.00" />
<line x1="752.00" y1="0" x2="752.00" y2="1536.00" />
<line x1="768.00" y1="0" x2="768.00" y2="1536.00" />
<line x1="784.00" y1="0" x2="784.00" y2="1536.00" />
<line x1="800.00" y1="0" x2="800.00" y2="1536.00" />
<line x1="816.00" y1="0" x2="816.00" y2="1536.00" />
<line x1="832.00" y1="0" x2="832.00" y2="1536.00" />
<line x1="848.00" y1="0" x2="848.00" y2="1536.00" />
<line x1="864.00" y1="0" x2="864.00" y2="1536.00" />
<line x1="880.00" y1="0" x2="880.00" y2="1536.00" />
<line x1="896.00" y1="0" x2="896.00" y2="1536.00" />
<line x1="912.00" y1="0" x2="912.00" y2="1536.00" />
<line x1="928.00" y1="0" x2="928.00" y2="1536.00" />
<line x1="944.00" y1="0" x2="944.00" y2="1536.00" />
<line x1="960.00" y1="0" x2="960.00" y2="1536.00" />
<line x1="976.00" y1="0" x2="976.00" y2="1536.00" />
<line x1="992.00" y1="0" x2="992.00" y2="1536.00" />
<line x1="1008.00" y1="0" x2="1008.00" y2="1536.00" />
<line x1="1024.00" y1="0" x2="1024.00" y2="1536.00" />
<line x1="1040.00" y1="0" x2="1040.00" y2="1536.00" />
<line x1="1056.00" y1="0" x2="1056.00" y2="1536.00" />
<line x1="1072.00" y1="0" x2="1072.00" y2="1536.00" />
<line x1="1088.00" y1="0" x2="1088.00" y2="1536.00" />
<line x1="1104.00" y1="0" x2="1104.00" y2="1536.00" />
<line x1="1120.00" y1="0" x2="1120.00" y2="1536.00" />
<line x1="1136.00" y1="0" x2="1136.00" y2="1536.00" />
<line x1="1152.00" y1="0" x2="1152.00" y2="1536.00" />
<line x1="1168.00" y1="0" x2="1168.00" y2="1536.00" />
<line x1="1184.00" y1="0" x2="1184.00" y2="1536.00" />
<line x1="1200.00" y1="0" x2="1200.00" y2="1536.00" />
<line x1="1216.00" y1="0" x2="1216.00" y2="1536.00" />
<line x1="1232.00" y1="0" x2="1232.00" y2="1536.00" />
<line x1="1248.00" y1="0" x2="1248.00" y2="1536.00" />
<line x1="1264.00" y1="0" x2="1264.00" y2="1536.00" />
<line x1="1280.00" y1="0" x2="1280.00" y2="1536.00" />
<line x1="0" y1="0.00" x2="1280.00" y2="0.00" />
<line x1="0" y1="16.00" x2="1280.00" y2="16.00" />
<line x1="0" y1="32.00" x2="1280.00" y2="32.00" />
<line x1="0" y1="48.00" x2="1280.00" y2="48.00" />
<line x1="0" y1="64.00" x2="1280.00" y2="64.00" />
<line x1="0" y1="80.00" x2="1280.00" y2="80.00" />
<line x1="0" y1="96.00" x2="1280.00" y2="96.00" />
<line x1="0" y1="112.00" x2="1280.00" y2="112.00" />
<line x1="0" y1="128.00" x2="1280.00" y2="128.00" />
<line x1="0" y1="144.00" x2="1280.00" y2="144.00" />
<line x1="0" y1="160.00" x2="1280.00" y2="160.00" />
<line x1="0" y1="176.00" x2="1280.00" y2="176.00" />
<line x1="0" y1="192.00" x2="1280.00" y2="192.00" />
<line x1="0" y1="208.00" x2="1280.00" y2="208.00" />
<line x1="0" y1="224.00" x2="1280.00" y2="224.00" />
<line x1="0" y1="240.00" x2="1280.00" y2="240.00" />
<line x1="0" y1="256.00" x2="1280.00" y2="256.00" />
<line x1="0" y1="272.00" x2="1280.00" y2="272.00" />
<line x1="0" y1="288.00" x2="1280.00" y2="288.00" />
<line x1="0" y1="304.00" x2="1280.00" y2="304.00" />
<line x1="0" y1="320.00" x2="1280.00" y2="320.00" />
<line x1="0" y1="336.00" x2="1280.00" y2="336.00" />
<line x1="0" y1="352.00" x2="1280.00" y2="352.00" />
<line x1="0" y1="368.00" x2="1280.00" y2="368.00" />
<line x1="0" y1="384.00" x2="1280.00" y2="384.00" />
<line x1="0" y1="400.00" x2="1280.00" y2="400.00" />
<line x1="0" y1="416.00" x2="1280.00" y2="416.00" />
<line x1="0" y1="432.00" x2="1280.00" y2="432.00" />
<line x1="0" y1="448.00" x2="1280.00" y2="448.00" />
<line x1="0" y1="464.00" x2="1280.00" y2="464.00" />
<line x1="0" y1="480.00" x2="1280.00" y2="480.00" />
<line x1="0" y1="496.00" x2="1280.00" y2="496.00" />
<line x1="0" y1="512.00" x2="1280.00" y2="512.00" />
<line x1="0" y1="528.00" x2="1280.00" y2="528.00" />
<line x1="0" y1="544.00" x2="1280.00" y2="544.00" />
<line x1="0" y1="560.00" x2="1280.00" y2="560.00" />
<line x1="0" y1="576.00" x2="1280.00" y2="576.00" />
<line x1="0" y1="592.00" x2="1280.00" y2="592.00" />
<line x1="0" y1="608.00" x2="1280.00" y2="608.00" />
<line x1="0" y1="624.00" x2="1280.00" y2="624.00" />
<line x1="0" y1="640.00" x2="1280.00" y2="640.00" />
<line x1="0" y1="656.00" x2="1280.00" y2="656.00" />
<line x1="0" y1="672.00" x2="1280.00" y2="672.00" />
<line x1="0" y1="688.00" x2="1280.00" y2="688.00" />
<line x1="0" y1="704.00" x2="1280.00" y2="704.00" />
<line x1="0" y1="720.00" x2="1280.00" y2="720.00" />
<line x1="0" y1="736.00" x2="1280.00" y2="736.00" />
<line x1="0" y1="752.00" x2="1280.00" y2="752.00" />
<line x1="0" y1="768.00" x2="1280.00" y2="768.00" />
<line x1="0" y1="784.00" x2="1280.00" y2="784.00" />
<line x1="0" y1="800.00" x2="1280.00" y2="800.00" />
<line x1="0" y1="816.00" x2="1280.00" y2="816.00" />
<line x1="0" y1="832.00" x2="1280.00" y2="832.00" />
<line x1="0" y1="848.00" x2="1280.00" y2="848.00" />
<line x1="0" y1="864.00" x2="1280.00" y2="864.00" />
<line x1="0" y1="880.00" x2="1280.00" y2="880.00" />
<line x1="0" y1="896.00" x2="1280.00" y2="896.00" />
<line x1="0" y1="912.00" x2="1280.00" y2="912.00" />
<line x1="0" y1="928.00" x2="1280.00" y2="928.00" />
<line x1="0" y1="944.00" x2="1280.00" y2="944.00" />
<line x1="0" y1="960.00" x2="1280.00" y2="960.00" />
<line x1="0" y1="976.00" x2="1280.00" y2="976.00" />
<line x1="0" y1="992.00" x2="1280.00" y2="992.00" />
<line x1="0" y1="1008.00" x2="1280.00" y2="1008.00" />
<line x1="0" y1="1024.00" x2="1280.00" y2="1024.00" />
<line x1="0" y1="1040.00" x2="1280.00" y2="1040.00" />
<line x1="0" y1="1056.00" x2="1280.00" y2="1056.00" />
<line x1="0" y1="1072.00" x2="1280.00" y2="1072.00" />
<line x1="0" y1="1088.00" x2="1280.00" y2="1088.00" />
<line x1="0" y1="1104.00" x2="1280.00" y2="1104.00" />
<line x1="0" y1="1120.00" x2="1280.00" y2="1120.00" />
<line x1="0" y1="1136.00" x2="1280.00" y2="1136.00" />
<line x1="0" y1="1152.00" x2="1280.00" y2="1152.00" />
<line x1="0" y1="1168.00" x2="1280.00" y2="1168.00" />
<line x1="0" y1="1184.00" x2="1280.00" y2="1184.00" />
<line x1="0" y1="1200.00" x2="1280.00" y2="1200.00" />
<line x1="0" y1="1216.00" x2="1280.00" y2="1216.00" />
<line x1="0" y1="1232.00" x2="1280.00" y2="1232.00" />
<line x1="0" y1="1248.00" x2="1280.00" y2="1248.00" />
<line x1="0" y1="1264.00" x2="1280.00" y2="1264.00" />
<line x1="0" y1="1280.00" x2="1280.00" y2="1280.00" />
<line x1="0" y1="1296.00" x2="1280.00" y2="1296.00" />
<line x1="0" y1="1312.00" x2="1280.00" y2="1312.00" />
<line x1="0" y1="1328.00" x2="1280.00" y2="1328.00" />
<line x1="0" y1="1344.00" x2="1280.00" y2="1344.00" />
<line x1="0" y1="1360.00" x2="1280.00" y2="1360.00" />
<line x1="0" y1="1376.00" x2="1280.00" y2="1376.00" />
<line x1="0" y1="1392.00" x2="1280.00" y2="1392.00" />
<line x1="0" y1="1408.00" x2="1280.00" y2="1408.00" />
<line x1="0" y1="1424.00" x2="1280.00" y2="1424.00" />
<line x1="0" y1="1440.00" x2="1280.00" y2="1440.00" />
<line x1="0" y1="1456.00" x2="1280.00" y2="1456.00" />
<line x1="0" y1="1472.00" x2="1280.00" y2="1472.00" />
<line x1="0" y1="1488.00" x2="1280.00" y2="1488.00" />
<line x1="0" y1="1504.00" x2="1280.00" y2="1504.00" />
<line x1="0" y1="1520.00" x2="1280.00" y2="1520.00" />
<line x1="0" y1="1536.00" x2="1280.00" y2="1536.00" />
  </g>
  <g class="walls">
<line x1="224.00" y1="64.00" x2="320.00" y2="64.00" />
<line x1="1168.00" y1="64.00" x2="1232.00" y2="64.00" />
<line x1="112.00" y1="96.00" x2="224.00" y2="96.00" />
<line x1="320.00" y1="96.00" x2="1168.00" y2="96.00" />
<line x1="128.00" y1="112.00" x2="224.00" y2="112.00" />
<line x1="320.00" y1="112.00" x2="928.00" y2="112.00" />
<line x1="944.00" y1="112.00" x2="976.00" y2="112.00" />
<line x1="1088.00" y1="112.00" x2="1152.00" y2="112.00" />
<line x1="224.00" y1="144.00" x2="320.00" y2="144.00" />
<line x1="528.00" y1="144.00" x2="928.00" y2="144.00" />
<line x1="944.00" y1="144.00" x2="960.00" y2="144.00" />
<line x1="1104.00" y1="144.00" x2="1152.00" y2="144.00" />
<line x1="512.00" y1="128.00" x2="928.00" y2="128.00" />
<line x1="944.00" y1="128.00" x2="976.00" y2="128.00" />
<line x1="1088.00" y1="128.00" x2="1152.00" y2="128.00" />
<line x1="320.00" y1="160.00" x2="512.00" y2="160.00" />
<line x1="528.00" y1="160.00" x2="928.00" y2="160.00" />
<line x1="944.00" y1="160.00" x2="960.00" y2="160.00" />
<line x1="336.00" y1="176.00" x2="416.00" y2="176.00" />
<line x1="544.00" y1="176.00" x2="848.00" y2="176.00" />
<line x1="864.00" y1="176.00" x2="928.00" y2="176.00" />
<line x1="944.00" y1="176.00" x2="960.00" y2="176.00" />
<line x1="144.00" y1="192.00" x2="256.00" y2="192.00" />
<line x1="336.00" y1="192.00" x2="416.00" y2="192.00" />
<line x1="768.00" y1="192.00" x2="800.00" y2="192.00" />
<line x1="960.00" y1="192.00" x2="976.00" y2="192.00" />
<line x1="1088.00" y1="192.00" x2="1104.00" y2="192.00" />
<line x1="1168.00" y1="192.00" x2="1200.00" y2="192.00" />
<line x1="1216.00" y1="192.00" x2="1232.00" y2="192.00" />
<line x1="352.00" y1="208.00" x2="416.00" y2="208.00" />
<line x1="736.00" y1="208.00" x2="768.00" y2="208.00" />
<line x1="800.00" y1="208.00" x2="832.00" y2="208.00" />
<line x1="976.00" y1="208.00" x2="992.00" y2="208.00" />
<line x1="720.00" y1="224.00" x2="736.00" y2="224.00" />
<line x1="832.00" y1="224.00" x2="848.00" y2="224.00" />
<line x1="992.00" y1="224.00" x2="1008.00" y2="224.00" />
<line x1="1040.00" y1="224.00" x2="1072.00" y2="224.00" />
<line x1="416.00" y1="240.00" x2="480.00" y2="240.00" />
<line x1="496.00" y1="240.00" x2="512.00" y2="240.00" />
<line x1="528.00" y1="240.00" x2="544.00" y2="240.00" />
<line x1="128.00" y1="256.00" x2="144.00" y2="256.00" />
<line x1="256.00" y1="256.00" x2="320.00" y2="256.00" />
<line x1="352.00" y1="256.00" x2="416.00" y2="256.00" />
<line x1="496.00" y1="256.00" x2="512.00" y2="256.00" />
<line x1="528.00" y1="256.00" x2="720.00" y2="256.00" />
<line x1="944.00" y1="256.00" x2="1008.00" y2="256.00" />
<line x1="128.00" y1="272.00" x2="144.00" y2="272.00" />
<line x1="256.00" y1="272.00" x2="320.00" y2="272.00" />
<line x1="352.00" y1="272.00" x2="400.00" y2="272.00" />
<line x1="496.00" y1="272.00" x2="512.00" y2="272.00" />
<line x1="528.00" y1="272.00" x2="720.00" y2="272.00" />
<line x1="464.00" y1="288.00" x2="480.00" y2="288.00" />
<line x1="496.00" y1="288.00" x2="512.00" y2="288.00" />
<line x1="528.00" y1="288.00" x2="608.00" y2="288.00" />
<line x1="288.00" y1="304.00" x2="320.00" y2="304.00" />
<line x1="720.00" y1="304.00" x2="736.00" y2="304.00" />
<line x1="832.00" y1="304.00" x2="848.00" y2="304.00" />
<line x1="736.00" y1="320.00" x2="768.00" y2="320.00" />
<line x1="800.00" y1="320.00" x2="832.00" y2="320.00" />
<line x1="144.00" y1="336.00" x2="192.00" y2="336.00" />
<line x1="208.00" y1="336.00" x2="256.00" y2="336.00" />
<line x1="352.00" y1="336.00" x2="400.00" y2="336.00" />
<line x1="416.00" y1="336.00" x2="464.00" y2="336.00" />
<line x1="608.00" y1="336.00" x2="768.00" y2="336.00" />
<line x1="800.00" y1="336.00" x2="848.00" y2="336.00" />
<line x1="864.00" y1="336.00" x2="928.00" y2="336.00" />
<line x1="1040.00" y1="336.00" x2="1072.00" y2="336.00" />
<line x1="1088.00" y1="336.00" x2="1152.00" y2="336.00" />
<line x1="1168.00" y1="336.00" x2="1200.00" y2="336.00" />
<line x1="352.00" y1="352.00" x2="400.00" y2="352.00" />
<line x1="416.00" y1="352.00" x2="464.00" y2="352.00" />
<line x1="608.00" y1="352.00" x2="672.00" y2="352.00" />
<line x1="688.00" y1="352.00" x2="784.00" y2="352.00" />
<line x1="800.00" y1="352.00" x2="848.00" y2="352.00" />
<line x1="864.00" y1="352.00" x2="928.00" y2="352.00" />
<line x1="1040.00" y1="352.00" x2="1072.00" y2="352.00" />
<line x1="1104.00" y1="352.00" x2="1152.00" y2="352.00" />
<line x1="1168.00" y1="352.00" x2="1216.00" y2="352.00" />
<line x1="464.00" y1="384.00" x2="480.00" y2="384.00" />
<line x1="496.00" y1="384.00" x2="512.00" y2="384.00" />
<line x1="544.00" y1="384.00" x2="608.00" y2="384.00" />
<line x1="688.00" y1="368.00" x2="784.00" y2="368.00" />
<line x1="800.00" y1="368.00" x2="848.00" y2="368.00" />
<line x1="64.00" y1="400.00" x2="112.00" y2="400.00" />
<line x1="128.00" y1="400.00" x2="160.00" y2="400.00" />
<line x1="544.00" y1="400.00" x2="592.00" y2="400.00" />
<line x1="944.00" y1="416.00" x2="960.00" y2="416.00" />
<line x1="976.00" y1="416.00" x2="1008.00" y2="416.00" />
<line x1="288.00" y1="432.00" x2="336.00" y2="432.00" />
<line x1="208.00" y1="448.00" x2="336.00" y2="448.00" />
<line x1="352.00" y1="448.00" x2="400.00" y2="448.00" />
<line x1="416.00" y1="448.00" x2="480.00" y2="448.00" />
<line x1="496.00" y1="448.00" x2="512.00" y2="448.00" />
<line x1="224.00" y1="464.00" x2="336.00" y2="464.00" />
<line x1="352.00" y1="464.00" x2="400.00" y2="464.00" />
<line x1="416.00" y1="464.00" x2="480.00" y2="464.00" />
<line x1="496.00" y1="464.00" x2="512.00" y2="464.00" />
<line x1="688.00" y1="464.00" x2="784.00" y2="464.00" />
<line x1="800.00" y1="464.00" x2="848.00" y2="464.00" />
<line x1="160.00" y1="480.00" x2="192.00" y2="480.00" />
<line x1="224.00" y1="480.00" x2="336.00" y2="480.00" />
<line x1="352.00" y1="480.00" x2="400.00" y2="480.00" />
<line x1="416.00" y1="480.00" x2="480.00" y2="480.00" />
<line x1="496.00" y1="480.00" x2="512.00" y2="480.00" />
<line x1="160.00" y1="496.00" x2="192.00" y2="496.00" />
<line x1="224.00" y1="496.00" x2="336.00" y2="496.00" />
<line x1="352.00" y1="496.00" x2="400.00" y2="496.00" />
<line x1="416.00" y1="496.00" x2="480.00" y2="496.00" />
<line x1="496.00" y1="496.00" x2="512.00" y2="496.00" />
<line x1="544.00" y1="496.00" x2="592.00" y2="496.00" />
<line x1="1120.00" y1="512.00" x2="1152.00" y2="512.00" />
<line x1="1168.00" y1="512.00" x2="1200.00" y2="512.00" />
<line x1="800.00" y1="528.00" x2="848.00" y2="528.00" />
<line x1="864.00" y1="528.00" x2="880.00" y2="528.00" />
<line x1="1104.00" y1="528.00" x2="1120.00" y2="528.00" />
<line x1="1200.00" y1="528.00" x2="1216.00" y2="528.00" />
<line x1="64.00" y1="576.00" x2="160.00" y2="576.00" />
<line x1="880.00" y1="576.00" x2="896.00" y2="576.00" />
<line x1="912.00" y1="576.00" x2="928.00" y2="576.00" />
<line x1="944.00" y1="576.00" x2="960.00" y2="576.00" />
<line x1="976.00" y1="576.00" x2="1008.00" y2="576.00" />
<line x1="1040.00" y1="576.00" x2="1072.00" y2="576.00" />
<line x1="880.00" y1="560.00" x2="928.00" y2="560.00" />
<line x1="944.00" y1="560.00" x2="960.00" y2="560.00" />
<line x1="976.00" y1="560.00" x2="1008.00" y2="560.00" />
<line x1="1040.00" y1="560.00" x2="1072.00" y2="560.00" />
<line x1="1104.00" y1="608.00" x2="1120.00" y2="608.00" />
<line x1="1200.00" y1="608.00" x2="1216.00" y2="608.00" />
<line x1="1120.00" y1="624.00" x2="1200.00" y2="624.00" />
<line x1="800.00" y1="640.00" x2="832.00" y2="640.00" />
<line x1="864.00" y1="640.00" x2="880.00" y2="640.00" />
<line x1="976.00" y1="640.00" x2="1008.00" y2="640.00" />
<line x1="1040.00" y1="656.00" x2="1056.00" y2="656.00" />
<line x1="944.00" y1="672.00" x2="960.00" y2="672.00" />
<line x1="1056.00" y1="672.00" x2="1072.00" y2="672.00" />
<line x1="944.00" y1="736.00" x2="960.00" y2="736.00" />
<line x1="1056.00" y1="736.00" x2="1072.00" y2="736.00" />
<line x1="1040.00" y1="752.00" x2="1056.00" y2="752.00" />
<line x1="976.00" y1="768.00" x2="1008.00" y2="768.00" />
<line x1="464.00" y1="800.00" x2="480.00" y2="800.00" />
<line x1="496.00" y1="800.00" x2="512.00" y2="800.00" />
<line x1="544.00" y1="800.00" x2="640.00" y2="800.00" />
<line x1="144.00" y1="864.00" x2="192.00" y2="864.00" />
<line x1="224.00" y1="864.00" x2="288.00" y2="864.00" />
<line x1="464.00" y1="864.00" x2="480.00" y2="864.00" />
<line x1="496.00" y1="864.00" x2="512.00" y2="864.00" />
<line x1="560.00" y1="864.00" x2="640.00" y2="864.00" />
<line x1="288.00" y1="896.00" x2="336.00" y2="896.00" />
<line x1="352.00" y1="896.00" x2="400.00" y2="896.00" />
<line x1="416.00" y1="896.00" x2="480.00" y2="896.00" />
<line x1="496.00" y1="896.00" x2="512.00" y2="896.00" />
<line x1="560.00" y1="896.00" x2="672.00" y2="896.00" />
<line x1="688.00" y1="896.00" x2="784.00" y2="896.00" />
<line x1="800.00" y1="896.00" x2="832.00" y2="896.00" />
<line x1="864.00" y1="896.00" x2="896.00" y2="896.00" />
<line x1="912.00" y1="896.00" x2="928.00" y2="896.00" />
<line x1="944.00" y1="896.00" x2="960.00" y2="896.00" />
<line x1="288.00" y1="912.00" x2="336.00" y2="912.00" />
<line x1="352.00" y1="912.00" x2="400.00" y2="912.00" />
<line x1="416.00" y1="912.00" x2="464.00" y2="912.00" />
<line x1="560.00" y1="912.00" x2="672.00" y2="912.00" />
<line x1="688.00" y1="912.00" x2="768.00" y2="912.00" />
<line x1="944.00" y1="912.00" x2="976.00" y2="912.00" />
<line x1="144.00" y1="928.00" x2="192.00" y2="928.00" />
<line x1="224.00" y1="928.00" x2="288.00" y2="928.00" />
<line x1="944.00" y1="928.00" x2="1008.00" y2="928.00" />
<line x1="1040.00" y1="928.00" x2="1072.00" y2="928.00" />
<line x1="944.00" y1="944.00" x2="1008.00" y2="944.00" />
<line x1="1040.00" y1="944.00" x2="1072.00" y2="944.00" />
<line x1="112.00" y1="976.00" x2="192.00" y2="976.00" />
<line x1="768.00" y1="976.00" x2="784.00" y2="976.00" />
<line x1="800.00" y1="976.00" x2="832.00" y2="976.00" />
<line x1="848.00" y1="976.00" x2="896.00" y2="976.00" />
<line x1="912.00" y1="976.00" x2="928.00" y2="976.00" />
<line x1="96.00" y1="992.00" x2="112.00" y2="992.00" />
<line x1="592.00" y1="992.00" x2="672.00" y2="992.00" />
<line x1="688.00" y1="992.00" x2="768.00" y2="992.00" />
<line x1="1040.00" y1="992.00" x2="1072.00" y2="992.00" />
<line x1="80.00" y1="1008.00" x2="96.00" y2="1008.00" />
<line x1="464.00" y1="1008.00" x2="480.00" y2="1008.00" />
<line x1="496.00" y1="1008.00" x2="528.00" y2="1008.00" />
<line x1="784.00" y1="1040.00" x2="832.00" y2="1040.00" />
<line x1="848.00" y1="1040.00" x2="896.00" y2="1040.00" />
<line x1="912.00" y1="1040.00" x2="928.00" y2="1040.00" />
<line x1="944.00" y1="1040.00" x2="1008.00" y2="1040.00" />
<line x1="800.00" y1="1024.00" x2="832.00" y2="1024.00" />
<line x1="848.00" y1="1024.00" x2="896.00" y2="1024.00" />
<line x1="912.00" y1="1024.00" x2="928.00" y2="1024.00" />
<line x1="944.00" y1="1024.00" x2="1008.00" y2="1024.00" />
<line x1="480.00" y1="1072.00" x2="528.00" y2="1072.00" />
<line x1="560.00" y1="1072.00" x2="592.00" y2="1072.00" />
<line x1="768.00" y1="1072.00" x2="832.00" y2="1072.00" />
<line x1="848.00" y1="1072.00" x2="896.00" y2="1072.00" />
<line x1="912.00" y1="1072.00" x2="928.00" y2="1072.00" />
<line x1="944.00" y1="1072.00" x2="1024.00" y2="1072.00" />
<line x1="1040.00" y1="1072.00" x2="1072.00" y2="1072.00" />
<line x1="496.00" y1="1056.00" x2="528.00" y2="1056.00" />
<line x1="560.00" y1="1056.00" x2="592.00" y2="1056.00" />
<line x1="768.00" y1="1056.00" x2="832.00" y2="1056.00" />
<line x1="848.00" y1="1056.00" x2="896.00" y2="1056.00" />
<line x1="912.00" y1="1056.00" x2="928.00" y2="1056.00" />
<line x1="944.00" y1="1056.00" x2="1008.00" y2="1056.00" />
<line x1="80.00" y1="1104.00" x2="96.00" y2="1104.00" />
<line x1="208.00" y1="1104.00" x2="224.00" y2="1104.00" />
<line x1="304.00" y1="1088.00" x2="336.00" y2="1088.00" />
<line x1="352.00" y1="1088.00" x2="384.00" y2="1088.00" />
<line x1="816.00" y1="1088.00" x2="832.00" y2="1088.00" />
<line x1="848.00" y1="1088.00" x2="896.00" y2="1088.00" />
<line x1="912.00" y1="1088.00" x2="928.00" y2="1088.00" />
<line x1="944.00" y1="1088.00" x2="976.00" y2="1088.00" />
<line x1="96.00" y1="1120.00" x2="112.00" y2="1120.00" />
<line x1="592.00" y1="1120.00" x2="672.00" y2="1120.00" />
<line x1="688.00" y1="1120.00" x2="768.00" y2="1120.00" />
<line x1="112.00" y1="1136.00" x2="192.00" y2="1136.00" />
<line x1="128.00" y1="1168.00" x2="160.00" y2="1168.00" />
<line x1="96.00" y1="1184.00" x2="128.00" y2="1184.00" />
<line x1="160.00" y1="1184.00" x2="192.00" y2="1184.00" />
<line x1="816.00" y1="1200.00" x2="832.00" y2="1200.00" />
<line x1="848.00" y1="1200.00" x2="896.00" y2="1200.00" />
<line x1="912.00" y1="1200.00" x2="928.00" y2="1200.00" />
<line x1="944.00" y1="1200.00" x2="976.00" y2="1200.00" />
<line x1="1040.00" y1="1200.00" x2="1072.00" y2="1200.00" />
<line x1="1104.00" y1="1200.00" x2="1120.00" y2="1200.00" />
<line x1="80.00" y1="1216.00" x2="96.00" y2="1216.00" />
<line x1="304.00" y1="1216.00" x2="384.00" y2="1216.00" />
<line x1="880.00" y1="1232.00" x2="896.00" y2="1232.00" />
<line x1="912.00" y1="1232.00" x2="928.00" y2="1232.00" />
<line x1="944.00" y1="1232.00" x2="1024.00" y2="1232.00" />
<line x1="976.00" y1="1248.00" x2="1040.00" y2="1248.00" />
<line x1="560.00" y1="1264.00" x2="672.00" y2="1264.00" />
<line x1="688.00" y1="1264.00" x2="832.00" y2="1264.00" />
<line x1="848.00" y1="1264.00" x2="880.00" y2="1264.00" />
<line x1="1040.00" y1="1264.00" x2="1072.00" y2="1264.00" />
<line x1="1104.00" y1="1264.00" x2="1120.00" y2="1264.00" />
<line x1="80.00" y1="1280.00" x2="96.00" y2="1280.00" />
<line x1="560.00" y1="1280.00" x2="672.00" y2="1280.00" />
<line x1="688.00" y1="1280.00" x2="832.00" y2="1280.00" />
<line x1="848.00" y1="1280.00" x2="880.00" y2="1280.00" />
<line x1="96.00" y1="1312.00" x2="128.00" y2="1312.00" />
<line x1="160.00" y1="1312.00" x2="192.00" y2="1312.00" />
<line x1="880.00" y1="1312.00" x2="928.00" y2="1312.00" />
<line x1="944.00" y1="1312.00" x2="976.00" y2="1312.00" />
<line x1="368.00" y1="1296.00" x2="400.00" y2="1296.00" />
<line x1="416.00" y1="1296.00" x2="432.00" y2="1296.00" />
<line x1="128.00" y1="1328.00" x2="160.00" y2="1328.00" />
<line x1="864.00" y1="1328.00" x2="928.00" y2="1328.00" />
<line x1="944.00" y1="1328.00" x2="1008.00" y2="1328.00" />
<line x1="560.00" y1="1360.00" x2="672.00" y2="1360.00" />
<line x1="688.00" y1="1360.00" x2="832.00" y2="1360.00" />
<line x1="848.00" y1="1360.00" x2="864.00" y2="1360.00" />
<line x1="1008.00" y1="1360.00" x2="1072.00" y2="1360.00" />
<line x1="1104.00" y1="1360.00" x2="1136.00" y2="1360.00" />
<line x1="432.00" y1="1376.00" x2="528.00" y2="1376.00" />
<line x1="1008.00" y1="1376.00" x2="1040.00" y2="1376.00" />
<line x1="432.00" y1="1392.00" x2="864.00" y2="1392.00" />
<line x1="1024.00" y1="1392.00" x2="1040.00" y2="1392.00" />
<line x1="1136.00" y1="1392.00" x2="1152.00" y2="1392.00" />
<line x1="192.00" y1="1424.00" x2="368.00" y2="1424.00" />
<line x1="432.00" y1="1424.00" x2="1040.00" y2="1424.00" />
<line x1="1136.00" y1="1424.00" x2="1152.00" y2="1424.00" />
<line x1="208.00" y1="1408.00" x2="368.00" y2="1408.00" />
<line x1="432.00" y1="1408.00" x2="864.00" y2="1408.00" />
<line x1="1008.00" y1="1408.00" x2="1024.00" y2="1408.00" />
<line x1="1040.00" y1="1456.00" x2="1072.00" y2="1456.00" />
<line x1="1104.00" y1="1456.00" x2="1136.00" y2="1456.00" />
<line x1="368.00" y1="1472.00" x2="432.00" y2="1472.00" />
<line x1="1072.00" y1="1472.00" x2="1104.00" y2="1472.00" />
<line x1="224.00" y1="64.00" x2="224.00" y2="96.00" />
<line x1="224.00" y1="112.00" x2="224.00" y2="144.00" />
<line x1="224.00" y1="464.00" x2="224.00" y2="480.00" />
<line x1="224.00" y1="496.00" x2="224.00" y2="864.00" />
<line x1="224.00" y1="928.00" x2="224.00" y2="1104.00" />
<line x1="320.00" y1="64.00" x2="320.00" y2="96.00" />
<line x1="320.00" y1="112.00" x2="320.00" y2="144.00" />
<line x1="320.00" y1="160.00" x2="320.00" y2="256.00" />
<line x1="320.00" y1="272.00" x2="320.00" y2="304.00" />
<line x1="1168.00" y1="64.00" x2="1168.00" y2="96.00" />
<line x1="1168.00" y1="192.00" x2="1168.00" y2="336.00" />
<line x1="1168.00" y1="352.00" x2="1168.00" y2="512.00" />
<line x1="1232.00" y1="64.00" x2="1232.00" y2="192.00" />
<line x1="112.00" y1="96.00" x2="112.00" y2="400.00" />
<line x1="112.00" y1="976.00" x2="112.00" y2="992.00" />
<line x1="112.00" y1="1120.00" x2="112.00" y2="1136.00" />
<line x1="128.00" y1="112.00" x2="128.00" y2="256.00" />
<line x1="128.00" y1="272.00" x2="128.00" y2="400.00" />
<line x1="128.00" y1="1168.00" x2="128.00" y2="1184.00" />
<line x1="128.00" y1="1312.00" x2="128.00" y2="1328.00" />
<line x1="928.00" y1="112.00" x2="928.00" y2="128.00" />
<line x1="928.00" y1="144.00" x2="928.00" y2="160.00" />
<line x1="928.00" y1="176.00" x2="928.00" y2="336.00" />
<line x1="928.00" y1="352.00" x2="928.00" y2="560.00" />
<line x1="928.00" y1="576.00" x2="928.00" y2="896.00" />
<line x1="928.00" y1="976.00" x2="928.00" y2="1024.00" />
<line x1="928.00" y1="1040.00" x2="928.00" y2="1056.00" />
<line x1="928.00" y1="1072.00" x2="928.00" y2="1088.00" />
<line x1="928.00" y1="1200.00" x2="928.00" y2="1232.00" />
<line x1="928.00" y1="1312.00" x2="928.00" y2="1328.00" />
<line x1="944.00" y1="112.00" x2="944.00" y2="128.00" />
<line x1="944.00" y1="144.00" x2="944.00" y2="160.00" />
<line x1="944.00" y1="176.00" x2="944.00" y2="256.00" />
<line x1="944.00" y1="416.00" x2="944.00" y2="560.00" />
<line x1="944.00" y1="576.00" x2="944.00" y2="672.00" />
<line x1="944.00" y1="736.00" x2="944.00" y2="896.00" />
<line x1="944.00" y1="912.00" x2="944.00" y2="928.00" />
<line x1="944.00" y1="944.00" x2="944.00" y2="1024.00" />
<line x1="944.00" y1="1040.00" x2="944.00" y2="1056.00" />
<line x1="944.00" y1="1072.00" x2="944.00" y2="1088.00" />
<line x1="944.00" y1="1200.00" x2="944.00" y2="1232.00" />
<line x1="944.00" y1="1312.00" x2="944.00" y2="1328.00" />
<line x1="976.00" y1="112.00" x2="976.00" y2="128.00" />
<line x1="976.00" y1="192.00" x2="976.00" y2="208.00" />
<line x1="976.00" y1="416.00" x2="976.00" y2="560.00" />
<line x1="976.00" y1="576.00" x2="976.00" y2="640.00" />
<line x1="976.00" y1="768.00" x2="976.00" y2="912.00" />
<line x1="976.00" y1="1088.00" x2="976.00" y2="1200.00" />
<line x1="976.00" y1="1248.00" x2="976.00" y2="1312.00" />
<line x1="1088.00" y1="112.00" x2="1088.00" y2="128.00" />
<line x1="1088.00" y1="192.00" x2="1088.00" y2="336.00" />
<line x1="1152.00" y1="112.00" x2="1152.00" y2="128.00" />
<line x1="1152.00" y1="144.00" x2="1152.00" y2="336.00" />
<line x1="1152.00" y1="352.00" x2="1152.00" y2="512.00" />
<line x1="1152.00" y1="1392.00" x2="1152.00" y2="1424.00" />
<line x1="512.00" y1="128.00" x2="512.00" y2="160.00" />
<line x1="512.00" y1="240.00" x2="512.00" y2="256.00" />
<line x1="512.00" y1="272.00" x2="512.00" y2="288.00" />
<line x1="512.00" y1="384.00" x2="512.00" y2="448.00" />
<line x1="512.00" y1="464.00" x2="512.00" y2="480.00" />
<line x1="512.00" y1="496.00" x2="512.00" y2="800.00" />
<line x1="512.00" y1="864.00" x2="512.00" y2="896.00" />
<line x1="528.00" y1="144.00" x2="528.00" y2="160.00" />
<line x1="528.00" y1="240.00" x2="528.00" y2="256.00" />
<line x1="528.00" y1="272.00" x2="528.00" y2="288.00" />
<line x1="528.00" y1="1008.00" x2="528.00" y2="1056.00" />
<line x1="528.00" y1="1072.00" x2="528.00" y2="1376.00" />
<line x1="960.00" y1="144.00" x2="960.00" y2="160.00" />
<line x1="960.00" y1="176.00" x2="960.00" y2="192.00" />
<line x1="960.00" y1="416.00" x2="960.00" y2="560.00" />
<line x1="960.00" y1="576.00" x2="960.00" y2="672.00" />
<line x1="960.00" y1="736.00" x2="960.00" y2="896.00" />
<line x1="1104.00" y1="144.00" x2="1104.00" y2="192.00" />
<line x1="1104.00" y1="352.00" x2="1104.00" y2="528.00" />
<line x1="1104.00" y1="608.00" x2="1104.00" y2="1200.00" />
<line x1="1104.00" y1="1264.00" x2="1104.00" y2="1360.00" />
<line x1="1104.00" y1="1456.00" x2="1104.00" y2="1472.00" />
<line x1="336.00" y1="176.00" x2="336.00" y2="192.00" />
<line x1="336.00" y1="432.00" x2="336.00" y2="448.00" />
<line x1="336.00" y1="464.00" x2="336.00" y2="480.00" />
<line x1="336.00" y1="496.00" x2="336.00" y2="896.00" />
<line x1="336.00" y1="912.00" x2="336.00" y2="1088.00" />
<line x1="416.00" y1="176.00" x2="416.00" y2="192.00" />
<line x1="416.00" y1="208.00" x2="416.00" y2="240.00" />
<line x1="416.00" y1="256.00" x2="416.00" y2="336.00" />
<line x1="416.00" y1="352.00" x2="416.00" y2="448.00" />
<line x1="416.00" y1="464.00" x2="416.00" y2="480.00" />
<line x1="416.00" y1="496.00" x2="416.00" y2="896.00" />
<line x1="416.00" y1="912.00" x2="416.00" y2="1296.00" />
<line x1="544.00" y1="176.00" x2="544.00" y2="240.00" />
<line x1="544.00" y1="384.00" x2="544.00" y2="400.00" />
<line x1="544.00" y1="496.00" x2="544.00" y2="800.00" />
<line x1="848.00" y1="176.00" x2="848.00" y2="224.00" />
<line x1="848.00" y1="304.00" x2="848.00" y2="336.00" />
<line x1="848.00" y1="352.00" x2="848.00" y2="368.00" />
<line x1="848.00" y1="464.00" x2="848.00" y2="528.00" />
<line x1="848.00" y1="976.00" x2="848.00" y2="1024.00" />
<line x1="848.00" y1="1040.00" x2="848.00" y2="1056.00" />
<line x1="848.00" y1="1072.00" x2="848.00" y2="1088.00" />
<line x1="848.00" y1="1200.00" x2="848.00" y2="1264.00" />
<line x1="848.00" y1="1280.00" x2="848.00" y2="1360.00" />
<line x1="864.00" y1="176.00" x2="864.00" y2="336.00" />
<line x1="864.00" y1="352.00" x2="864.00" y2="528.00" />
<line x1="864.00" y1="640.00" x2="864.00" y2="896.00" />
<line x1="864.00" y1="1328.00" x2="864.00" y2="1360.00" />
<line x1="864.00" y1="1392.00" x2="864.00" y2="1408.00" />
<line x1="144.00" y1="192.00" x2="144.00" y2="256.00" />
<line x1="144.00" y1="272.00" x2="144.00" y2="336.00" />
<line x1="144.00" y1="864.00" x2="144.00" y2="928.00" />
<line x1="256.00" y1="192.00" x2="256.00" y2="256.00" />
<line x1="256.00" y1="272.00" x2="256.00" y2="336.00" />
<line x1="768.00" y1="192.00" x2="768.00" y2="208.00" />
<line x1="768.00" y1="320.00" x2="768.00" y2="336.00" />
<line x1="768.00" y1="912.00" x2="768.00" y2="976.00" />
<line x1="768.00" y1="992.00" x2="768.00" y2="1056.00" />
<line x1="768.00" y1="1072.00" x2="768.00" y2="1120.00" />
<line x1="800.00" y1="192.00" x2="800.00" y2="208.00" />
<line x1="800.00" y1="320.00" x2="800.00" y2="336.00" />
<line x1="800.00" y1="352.00" x2="800.00" y2="368.00" />
<line x1="800.00" y1="464.00" x2="800.00" y2="528.00" />
<line x1="800.00" y1="640.00" x2="800.00" y2="896.00" />
<line x1="800.00" y1="976.00" x2="800.00" y2="1024.00" />
<line x1="1200.00" y1="192.00" x2="1200.00" y2="336.00" />
<line x1="1200.00" y1="512.00" x2="1200.00" y2="528.00" />
<line x1="1200.00" y1="608.00" x2="1200.00" y2="624.00" />
<line x1="1216.00" y1="192.00" x2="1216.00" y2="352.00" />
<line x1="1216.00" y1="528.00" x2="1216.00" y2="608.00" />
<line x1="352.00" y1="208.00" x2="352.00" y2="256.00" />
<line x1="352.00" y1="272.00" x2="352.00" y2="336.00" />
<line x1="352.00" y1="352.00" x2="352.00" y2="448.00" />
<line x1="352.00" y1="464.00" x2="352.00" y2="480.00" />
<line x1="352.00" y1="496.00" x2="352.00" y2="896.00" />
<line x1="352.00" y1="912.00" x2="352.00" y2="1088.00" />
<line x1="736.00" y1="208.00" x2="736.00" y2="224.00" />
<line x1="736.00" y1="304.00" x2="736.00" y2="320.00" />
<line x1="832.00" y1="208.00" x2="832.00" y2="224.00" />
<line x1="832.00" y1="304.00" x2="832.00" y2="320.00" />
<line x1="832.00" y1="640.00" x2="832.00" y2="896.00" />
<line x1="832.00" y1="976.00" x2="832.00" y2="1024.00" />
<line x1="832.00" y1="1040.00" x2="832.00" y2="1056.00" />
<line x1="832.00" y1="1072.00" x2="832.00" y2="1088.00" />
<line x1="832.00" y1="1200.00" x2="832.00" y2="1264.00" />
<line x1="832.00" y1="1280.00" x2="832.00" y2="1360.00" />
<line x1="992.00" y1="208.00" x2="992.00" y2="224.00" />
<line x1="720.00" y1="224.00" x2="720.00" y2="256.00" />
<line x1="720.00" y1="272.00" x2="720.00" y2="304.00" />
<line x1="1008.00" y1="224.00" x2="1008.00" y2="256.00" />
<line x1="1008.00" y1="416.00" x2="1008.00" y2="560.00" />
<line x1="1008.00" y1="576.00" x2="1008.00" y2="640.00" />
<line x1="1008.00" y1="768.00" x2="1008.00" y2="928.00" />
<line x1="1008.00" y1="944.00" x2="1008.00" y2="1024.00" />
<line x1="1008.00" y1="1040.00" x2="1008.00" y2="1056.00" />
<line x1="1008.00" y1="1328.00" x2="1008.00" y2="1360.00" />
<line x1="1008.00" y1="1376.00" x2="1008.00" y2="1408.00" />
<line x1="1040.00" y1="224.00" x2="1040.00" y2="336.00" />
<line x1="1040.00" y1="352.00" x2="1040.00" y2="560.00" />
<line x1="1040.00" y1="576.00" x2="1040.00" y2="656.00" />
<line x1="1040.00" y1="752.00" x2="1040.00" y2="928.00" />
<line x1="1040.00" y1="944.00" x2="1040.00" y2="992.00" />
<line x1="1040.00" y1="1072.00" x2="1040.00" y2="1200.00" />
<line x1="1040.00" y1="1248.00" x2="1040.00" y2="1264.00" />
<line x1="1040.00" y1="1376.00" x2="1040.00" y2="1392.00" />
<line x1="1040.00" y1="1424.00" x2="1040.00" y2="1456.00" />
<line x1="1072.00" y1="224.00" x2="1072.00" y2="336.00" />
<line x1="1072.00" y1="352.00" x2="1072.00" y2="560.00" />
<line x1="1072.00" y1="576.00" x2="1072.00" y2="672.00" />
<line x1="1072.00" y1="736.00" x2="1072.00" y2="928.00" />
<line x1="1072.00" y1="944.00" x2="1072.00" y2="992.00" />
<line x1="1072.00" y1="1072.00" x2="1072.00" y2="1200.00" />
<line x1="1072.00" y1="1264.00" x2="1072.00" y2="1360.00" />
<line x1="1072.00" y1="1456.00" x2="1072.00" y2="1472.00" />
<line x1="480.00" y1="240.00" x2="480.00" y2="288.00" />
<line x1="480.00" y1="384.00" x2="480.00" y2="448.00" />
<line x1="480.00" y1="464.00" x2="480.00" y2="480.00" />
<line x1="480.00" y1="496.00" x2="480.00" y2="800.00" />
<line x1="480.00" y1="864.00" x2="480.00" y2="896.00" />
<line x1="480.00" y1="1008.00" x2="480.00" y2="1072.00" />
<line x1="496.00" y1="240.00" x2="496.00" y2="256.00" />
<line x1="496.00" y1="272.00" x2="496.00" y2="288.00" />
<line x1="496.00" y1="384.00" x2="496.00" y2="448.00" />
<line x1="496.00" y1="464.00" x2="496.00" y2="480.00" />
<line x1="496.00" y1="496.00" x2="496.00" y2="800.00" />
<line x1="496.00" y1="864.00" x2="496.00" y2="896.00" />
<line x1="496.00" y1="1008.00" x2="496.00" y2="1056.00" />
<line x1="400.00" y1="272.00" x2="400.00" y2="336.00" />
<line x1="400.00" y1="352.00" x2="400.00" y2="448.00" />
<line x1="400.00" y1="464.00" x2="400.00" y2="480.00" />
<line x1="400.00" y1="496.00" x2="400.00" y2="896.00" />
<line x1="400.00" y1="912.00" x2="400.00" y2="1296.00" />
<line x1="464.00" y1="288.00" x2="464.00" y2="336.00" />
<line x1="464.00" y1="352.00" x2="464.00" y2="384.00" />
<line x1="464.00" y1="800.00" x2="464.00" y2="864.00" />
<line x1="464.00" y1="912.00" x2="464.00" y2="1008.00" />
<line x1="608.00" y1="288.00" x2="608.00" y2="336.00" />
<line x1="608.00" y1="352.00" x2="608.00" y2="384.00" />
<line x1="288.00" y1="304.00" x2="288.00" y2="432.00" />
<line x1="288.00" y1="864.00" x2="288.00" y2="896.00" />
<line x1="288.00" y1="912.00" x2="288.00" y2="928.00" />
<line x1="192.00" y1="336.00" x2="192.00" y2="480.00" />
<line x1="192.00" y1="496.00" x2="192.00" y2="864.00" />
<line x1="192.00" y1="928.00" x2="192.00" y2="976.00" />
<line x1="192.00" y1="1136.00" x2="192.00" y2="1184.00" />
<line x1="192.00" y1="1312.00" x2="192.00" y2="1424.00" />
<line x1="208.00" y1="336.00" x2="208.00" y2="448.00" />
<line x1="208.00" y1="1104.00" x2="208.00" y2="1408.00" />
<line x1="672.00" y1="352.00" x2="672.00" y2="896.00" />
<line x1="672.00" y1="912.00" x2="672.00" y2="992.00" />
<line x1="672.00" y1="1120.00" x2="672.00" y2="1264.00" />
<line x1="672.00" y1="1280.00" x2="672.00" y2="1360.00" />
<line x1="688.00" y1="352.00" x2="688.00" y2="368.00" />
<line x1="688.00" y1="464.00" x2="688.00" y2="896.00" />
<line x1="688.00" y1="912.00" x2="688.00" y2="992.00" />
<line x1="688.00" y1="1120.00" x2="688.00" y2="1264.00" />
<line x1="688.00" y1="1280.00" x2="688.00" y2="1360.00" />
<line x1="784.00" y1="352.00" x2="784.00" y2="368.00" />
<line x1="784.00" y1="464.00" x2="784.00" y2="896.00" />
<line x1="784.00" y1="976.00" x2="784.00" y2="1040.00" />
<line x1="64.00" y1="400.00" x2="64.00" y2="576.00" />
<line x1="160.00" y1="400.00" x2="160.00" y2="480.00" />
<line x1="160.00" y1="496.00" x2="160.00" y2="576.00" />
<line x1="160.00" y1="1168.00" x2="160.00" y2="1184.00" />
<line x1="160.00" y1="1312.00" x2="160.00" y2="1328.00" />
<line x1="592.00" y1="400.00" x2="592.00" y2="496.00" />
<line x1="592.00" y1="992.00" x2="592.00" y2="1056.00" />
<line x1="592.00" y1="1072.00" x2="592.00" y2="1120.00" />
<line x1="1120.00" y1="512.00" x2="1120.00" y2="528.00" />
<line x1="1120.00" y1="608.00" x2="1120.00" y2="624.00" />
<line x1="1120.00" y1="1200.00" x2="1120.00" y2="1264.00" />
<line x1="880.00" y1="528.00" x2="880.00" y2="560.00" />
<line x1="880.00" y1="576.00" x2="880.00" y2="640.00" />
<line x1="880.00" y1="1232.00" x2="880.00" y2="1264.00" />
<line x1="880.00" y1="1280.00" x2="880.00" y2="1312.00" />
<line x1="896.00" y1="576.00" x2="896.00" y2="896.00" />
<line x1="896.00" y1="976.00" x2="896.00" y2="1024.00" />
<line x1="896.00" y1="1040.00" x2="896.00" y2="1056.00" />
<line x1="896.00" y1="1072.00" x2="896.00" y2="1088.00" />
<line x1="896.00" y1="1200.00" x2="896.00" y2="1232.00" />
<line x1="912.00" y1="576.00" x2="912.00" y2="896.00" />
<line x1="912.00" y1="976.00" x2="912.00" y2="1024.00" />
<line x1="912.00" y1="1040.00" x2="912.00" y2="1056.00" />
<line x1="912.00" y1="1072.00" x2="912.00" y2="1088.00" />
<line x1="912.00" y1="1200.00" x2="912.00" y2="1232.00" />
<line x1="1056.00" y1="656.00" x2="1056.00" y2="672.00" />
<line x1="1056.00" y1="736.00" x2="1056.00" y2="752.00" />
<line x1="640.00" y1="800.00" x2="640.00" y2="864.00" />
<line x1="560.00" y1="864.00" x2="560.00" y2="896.00" />
<line x1="560.00" y1="912.00" x2="560.00" y2="1056.00" />
<line x1="560.00" y1="1072.00" x2="560.00" y2="1264.00" />
<line x1="560.00" y1="1280.00" x2="560.00" y2="1360.00" />
<line x1="96.00" y1="992.00" x2="96.00" y2="1008.00" />
<line x1="96.00" y1="1104.00" x2="96.00" y2="1120.00" />
<line x1="96.00" y1="1184.00" x2="96.00" y2="1216.00" />
<line x1="96.00" y1="1280.00" x2="96.00" y2="1312.00" />
<line x1="80.00" y1="1008.00" x2="80.00" y2="1104.00" />
<line x1="80.00" y1="1216.00" x2="80.00" y2="1280.00" />
<line x1="1024.00" y1="1072.00" x2="1024.00" y2="1232.00" />
<line x1="1024.00" y1="1392.00" x2="1024.00" y2="1408.00" />
<line x1="304.00" y1="1088.00" x2="304.00" y2="1216.00" />
<line x1="384.00" y1="1088.00" x2="384.00" y2="1216.00" />
<line x1="816.00" y1="1088.00" x2="816.00" y2="1200.00" />
<line x1="368.00" y1="1296.00" x2="368.00" y2="1408.00" />
<line x1="368.00" y1="1424.00" x2="368.00" y2="1472.00" />
<line x1="432.00" y1="1296.00" x2="432.00" y2="1376.00" />
<line x1="432.00" y1="1392.00" x2="432.00" y2="1408.00" />
<line x1="432.00" y1="1424.00" x2="432.00" y2="1472.00" />
<line x1="1136.00" y1="1360.00" x2="1136.00" y2="1392.00" />
<line x1="1136.00" y1="1424.00" x2="1136.00" y2="1456.00" />
  </g>
  <g class="features">
<g data-feature-type="stairsDown"><line data-feature-type="stairsDown" x1="770.24" y1="259.36" x2="781.76" y2="259.36" /><line x1="770.65" y1="261.68" x2="781.35" y2="261.68" /><line x1="771.07" y1="264.00" x2="780.93" y2="264.00" /><line x1="771.48" y1="266.32" x2="780.52" y2="266.32" /><line x1="771.90" y1="268.64" x2="780.10" y2="268.64" /></g>
<g data-feature-type="stairsUp"><line data-feature-type="stairsUp" x1="147.90" y1="1043.36" x2="156.10" y2="1043.36" /><line x1="147.48" y1="1045.68" x2="156.52" y2="1045.68" /><line x1="147.07" y1="1048.00" x2="156.93" y2="1048.00" /><line x1="146.65" y1="1050.32" x2="157.35" y2="1050.32" /><line x1="146.24" y1="1052.64" x2="157.76" y2="1052.64" /></g>
<g data-feature-type="statue"><circle cx="520.00" cy="200.00" r="3.52" fill="none" /><line x1="517.76" y1="200.00" x2="522.24" y2="200.00" /><line x1="520.00" y1="197.76" x2="520.00" y2="202.24" /><line x1="518.39" y1="198.39" x2="521.61" y2="201.61" /><line x1="518.39" y1="201.61" x2="521.61" y2="198.39" /></g>
<circle data-feature-type="pillar" cx="648.00" cy="1064.00" r="3.68" fill="#5c92ab" stroke="none" />
<circle data-feature-type="pillar" cx="712.00" cy="1064.00" r="3.68" fill="#5c92ab" stroke="none" />
<circle data-feature-type="pillar" cx="424.00" cy="1384.00" r="3.68" fill="#5c92ab" stroke="none" />
<g data-feature-type="coffin"><rect x="405.60" y="1396.32" width="4.80" height="7.36" rx="0.80" ry="0.80" fill="none" /><line x1="408.00" y1="1397.94" x2="408.00" y2="1402.06" /></g>
<path data-feature-type="curtain" d="M 406.40 1331.84 Q 408.00 1334.34 406.40 1336.00 Q 408.00 1337.66 406.40 1340.16" fill="none" /><path d="M 409.60 1331.84 Q 408.00 1334.34 409.60 1336.00 Q 408.00 1337.66 409.60 1340.16" fill="none" />
<circle data-feature-type="pillar" cx="1048.00" cy="168.00" r="3.68" fill="#5c92ab" stroke="none" />
<g data-feature-type="coffin"><rect x="981.60" y="148.32" width="4.80" height="7.36" rx="0.80" ry="0.80" fill="none" /><line x1="984.00" y1="149.94" x2="984.00" y2="154.06" /></g>
<circle data-feature-type="pillar" cx="360.00" cy="1160.00" r="3.68" fill="#5c92ab" stroke="none" />
<circle data-feature-type="pillar" cx="568.00" cy="840.00" r="3.68" fill="#5c92ab" stroke="none" />
<g data-feature-type="statue"><circle cx="504.00" cy="824.00" r="3.52" fill="none" /><line x1="501.76" y1="824.00" x2="506.24" y2="824.00" /><line x1="504.00" y1="821.76" x2="504.00" y2="826.24" /><line x1="502.39" y1="822.39" x2="505.61" y2="825.61" /><line x1="502.39" y1="825.61" x2="505.61" y2="822.39" /></g>
<circle data-feature-type="pillar" cx="536.00" cy="360.00" r="3.68" fill="#5c92ab" stroke="none" />
<circle data-feature-type="pillar" cx="536.00" cy="376.00" r="3.68" fill="#5c92ab" stroke="none" />
<g data-feature-type="statue"><circle cx="504.00" cy="344.00" r="3.52" fill="none" /><line x1="501.76" y1="344.00" x2="506.24" y2="344.00" /><line x1="504.00" y1="341.76" x2="504.00" y2="346.24" /><line x1="502.39" y1="342.39" x2="505.61" y2="345.61" /><line x1="502.39" y1="345.61" x2="505.61" y2="342.39" /></g>
<circle data-feature-type="pillar" cx="856.00" cy="584.00" r="3.68" fill="#5c92ab" stroke="none" />
<g data-feature-type="statue"><circle cx="824.00" cy="616.00" r="3.52" fill="none" /><line x1="821.76" y1="616.00" x2="826.24" y2="616.00" /><line x1="824.00" y1="613.76" x2="824.00" y2="618.24" /><line x1="822.39" y1="614.39" x2="825.61" y2="617.61" /><line x1="822.39" y1="617.61" x2="825.61" y2="614.39" /></g>
<circle data-feature-type="pillar" cx="1000.00" cy="344.00" r="3.68" fill="#5c92ab" stroke="none" />
<circle data-feature-type="pillar" cx="952.00" cy="344.00" r="3.68" fill="#5c92ab" stroke="none" />
<g data-feature-type="altar"><rect x="965.28" y="326.40" width="5.44" height="3.20" fill="none" /><line x1="968.00" y1="325.44" x2="968.00" y2="330.56" /><line x1="966.40" y1="328.00" x2="969.60" y2="328.00" /></g>
<circle data-feature-type="pillar" cx="1112.00" cy="1416.00" r="3.68" fill="#5c92ab" stroke="none" />
<g data-feature-type="well"><circle cx="1112.00" cy="1432.00" r="4.00" fill="none" /><circle cx="1112.00" cy="1432.00" r="2.24" fill="none" /></g>
<path data-feature-type="curtain" d="M 198.40 307.84 Q 200.00 310.34 198.40 312.00 Q 200.00 313.66 198.40 316.16" fill="none" /><path d="M 201.60 307.84 Q 200.00 310.34 201.60 312.00 Q 200.00 313.66 201.60 316.16" fill="none" />
<circle data-feature-type="pillar" cx="808.00" cy="264.00" r="3.68" fill="#5c92ab" stroke="none" />
<circle data-feature-type="pillar" cx="760.00" cy="264.00" r="3.68" fill="#5c92ab" stroke="none" />
<g data-feature-type="statue"><circle cx="776.00" cy="312.00" r="3.52" fill="none" /><line x1="773.76" y1="312.00" x2="778.24" y2="312.00" /><line x1="776.00" y1="309.76" x2="776.00" y2="314.24" /><line x1="774.39" y1="310.39" x2="777.61" y2="313.61" /><line x1="774.39" y1="313.61" x2="777.61" y2="310.39" /></g>
<circle data-feature-type="pillar" cx="232.00" cy="904.00" r="3.68" fill="#5c92ab" stroke="none" />
<circle data-feature-type="pillar" cx="136.00" cy="1048.00" r="3.68" fill="#5c92ab" stroke="none" />
<circle data-feature-type="pillar" cx="184.00" cy="1048.00" r="3.68" fill="#5c92ab" stroke="none" />
<circle data-feature-type="pillar" cx="168.00" cy="1080.00" r="3.68" fill="#5c92ab" stroke="none" />
<g data-feature-type="trap"><rect x="164.64" y="1012.64" width="6.72" height="6.72" fill="none" /><line x1="164.64" y1="1012.64" x2="171.36" y2="1019.36" /><line x1="164.64" y1="1019.36" x2="171.36" y2="1012.64" /></g>
<path data-feature-type="curtain" d="M 886.40 1363.84 Q 888.00 1366.34 886.40 1368.00 Q 888.00 1369.66 886.40 1372.16" fill="none" /><path d="M 889.60 1363.84 Q 888.00 1366.34 889.60 1368.00 Q 888.00 1369.66 889.60 1372.16" fill="none" />
<circle data-feature-type="pillar" cx="1080.00" cy="1032.00" r="3.68" fill="#5c92ab" stroke="none" />
<g data-feature-type="trap"><rect x="1060.64" y="1012.64" width="6.72" height="6.72" fill="none" /><line x1="1060.64" y1="1012.64" x2="1067.36" y2="1019.36" /><line x1="1060.64" y1="1019.36" x2="1067.36" y2="1012.64" /></g>
<g data-feature-type="coffin"><rect x="1077.60" y="1012.32" width="4.80" height="7.36" rx="0.80" ry="0.80" fill="none" /><line x1="1080.00" y1="1013.94" x2="1080.00" y2="1018.06" /></g>
<circle data-feature-type="pillar" cx="1176.00" cy="568.00" r="3.68" fill="#5c92ab" stroke="none" />
<circle data-feature-type="pillar" cx="1144.00" cy="568.00" r="3.68" fill="#5c92ab" stroke="none" />
<circle data-feature-type="pillar" cx="920.00" cy="1144.00" r="3.68" fill="#5c92ab" stroke="none" />
<g data-feature-type="chest"><rect x="949.28" y="1174.24" width="5.44" height="3.52" fill="none" /><line x1="949.28" y1="1176.00" x2="954.72" y2="1176.00" /><circle cx="952.00" cy="1176.18" r="0.70" fill="#5c92ab" stroke="none" /></g>
<circle data-feature-type="pillar" cx="1224.00" cy="136.00" r="3.68" fill="#5c92ab" stroke="none" />
<circle data-feature-type="pillar" cx="120.00" cy="1256.00" r="3.68" fill="#5c92ab" stroke="none" />
<circle data-feature-type="pillar" cx="168.00" cy="1256.00" r="3.68" fill="#5c92ab" stroke="none" />
<g data-feature-type="altar"><rect x="117.28" y="1206.40" width="5.44" height="3.20" fill="none" /><line x1="120.00" y1="1205.44" x2="120.00" y2="1210.56" /><line x1="118.40" y1="1208.00" x2="121.60" y2="1208.00" /></g>
<circle data-feature-type="pillar" cx="872.00" cy="936.00" r="3.68" fill="#5c92ab" stroke="none" />
<circle data-feature-type="pillar" cx="824.00" cy="936.00" r="3.68" fill="#5c92ab" stroke="none" />
<g data-feature-type="well"><circle cx="792.00" cy="920.00" r="4.00" fill="none" /><circle cx="792.00" cy="920.00" r="2.24" fill="none" /></g>
<g data-feature-type="chest"><rect x="901.28" y="950.24" width="5.44" height="3.52" fill="none" /><line x1="901.28" y1="952.00" x2="906.72" y2="952.00" /><circle cx="904.00" cy="952.18" r="0.70" fill="#5c92ab" stroke="none" /></g>
<circle data-feature-type="pillar" cx="792.00" cy="424.00" r="3.68" fill="#5c92ab" stroke="none" />
<circle data-feature-type="pillar" cx="760.00" cy="424.00" r="3.68" fill="#5c92ab" stroke="none" />
<g data-feature-type="well"><circle cx="728.00" cy="408.00" r="4.00" fill="none" /><circle cx="728.00" cy="408.00" r="2.24" fill="none" /></g>
<circle data-feature-type="pillar" cx="1032.00" cy="712.00" r="3.68" fill="#5c92ab" stroke="none" />
<g data-feature-type="statue"><circle cx="1048.00" cy="664.00" r="3.52" fill="none" /><line x1="1045.76" y1="664.00" x2="1050.24" y2="664.00" /><line x1="1048.00" y1="661.76" x2="1048.00" y2="666.24" /><line x1="1046.39" y1="662.39" x2="1049.61" y2="665.61" /><line x1="1046.39" y1="665.61" x2="1049.61" y2="662.39" /></g>
<circle data-feature-type="pillar" cx="568.00" cy="456.00" r="3.68" fill="#5c92ab" stroke="none" />
<circle data-feature-type="pillar" cx="952.00" cy="1272.00" r="3.68" fill="#5c92ab" stroke="none" />
<circle data-feature-type="pillar" cx="536.00" cy="952.00" r="3.68" fill="#5c92ab" stroke="none" />
<g data-feature-type="trap"><rect x="484.64" y="932.64" width="6.72" height="6.72" fill="none" /><line x1="484.64" y1="932.64" x2="491.36" y2="939.36" /><line x1="484.64" y1="939.36" x2="491.36" y2="932.64" /></g>
<g data-feature-type="trap"><rect x="100.64" y="532.64" width="6.72" height="6.72" fill="none" /><line x1="100.64" y1="532.64" x2="107.36" y2="539.36" /><line x1="100.64" y1="539.36" x2="107.36" y2="532.64" /></g>
  </g>
  <g class="thresholds">
<rect data-threshold-type="door" x="323.52" y="309.76" width="8.96" height="4.48" fill="#ffffff" stroke="#5c92ab" stroke-width="1.52" />
<rect data-threshold-type="door" x="419.52" y="165.76" width="8.96" height="4.48" fill="#ffffff" stroke="#5c92ab" stroke-width="1.52" />
<rect data-threshold-type="door" x="595.52" y="1061.76" width="8.96" height="4.48" fill="#ffffff" stroke="#5c92ab" stroke-width="1.52" />
<rect data-threshold-type="door" x="403.52" y="1301.76" width="8.96" height="4.48" fill="#ffffff" stroke="#5c92ab" stroke-width="1.52" />
<rect data-threshold-type="door" x="1091.52" y="117.76" width="8.96" height="4.48" fill="#ffffff" stroke="#5c92ab" stroke-width="1.52" />
<rect data-threshold-type="door" x="339.52" y="1093.76" width="8.96" height="4.48" fill="#ffffff" stroke="#5c92ab" stroke-width="1.52" />
<rect data-threshold-type="door" x="531.52" y="805.76" width="8.96" height="4.48" fill="#ffffff" stroke="#5c92ab" stroke-width="1.52" />
<g data-threshold-type="secret"><line x1="1075.52" y1="1208.00" x2="1084.48" y2="1208.00" stroke="#5c92ab" stroke-width="1.31" stroke-dasharray="1.31 1.31" /><text x="1085.56" y="1207.10" font-size="5.44" fill="#5c92ab" font-family="Courier New, monospace" font-weight="700">S</text></g>
<rect data-threshold-type="door" x="515.52" y="293.76" width="8.96" height="4.48" fill="#ffffff" stroke="#5c92ab" stroke-width="1.52" />
<rect data-threshold-type="door" x="835.52" y="629.76" width="8.96" height="4.48" fill="#ffffff" stroke="#5c92ab" stroke-width="1.52" />
<rect data-threshold-type="door" x="931.52" y="341.76" width="8.96" height="4.48" fill="#ffffff" stroke="#5c92ab" stroke-width="1.52" />
<rect data-threshold-type="door" x="1027.52" y="1365.76" width="8.96" height="4.48" fill="#ffffff" stroke="#5c92ab" stroke-width="1.52" />
<rect data-threshold-type="door" x="147.52" y="261.76" width="8.96" height="4.48" fill="#ffffff" stroke="#5c92ab" stroke-width="1.52" />
<g data-threshold-type="locked" stroke="#5c92ab" fill="none" stroke-width="1.52"><rect x="835.52" y="309.76" width="8.96" height="4.48" fill="#ffffff" /><circle cx="840.00" cy="308.77" r="1.61" /></g>
<g data-threshold-type="secret"><line x1="211.52" y1="920.00" x2="220.48" y2="920.00" stroke="#5c92ab" stroke-width="1.31" stroke-dasharray="1.31 1.31" /><text x="221.56" y="919.10" font-size="5.44" fill="#5c92ab" font-family="Courier New, monospace" font-weight="700">S</text></g>
<rect data-threshold-type="door" x="195.52" y="997.76" width="8.96" height="4.48" fill="#ffffff" stroke="#5c92ab" stroke-width="1.52" />
<rect data-threshold-type="door" x="899.52" y="1397.76" width="8.96" height="4.48" fill="#ffffff" stroke="#5c92ab" stroke-width="1.52" />
<rect data-threshold-type="door" x="1075.52" y="1061.76" width="8.96" height="4.48" fill="#ffffff" stroke="#5c92ab" stroke-width="1.52" />
<rect data-threshold-type="door" x="1107.52" y="533.76" width="8.96" height="4.48" fill="#ffffff" stroke="#5c92ab" stroke-width="1.52" />
<rect data-threshold-type="door" x="899.52" y="1093.76" width="8.96" height="4.48" fill="#ffffff" stroke="#5c92ab" stroke-width="1.52" />
<rect data-threshold-type="door" x="1171.52" y="149.76" width="8.96" height="4.48" fill="#ffffff" stroke="#5c92ab" stroke-width="1.52" />
<g data-threshold-type="locked" stroke="#5c92ab" fill="none" stroke-width="1.52"><rect x="179.52" y="1317.76" width="8.96" height="4.48" fill="#ffffff" /><circle cx="184.00" cy="1316.77" r="1.61" /></g>
<rect data-threshold-type="door" x="915.52" y="917.76" width="8.96" height="4.48" fill="#ffffff" stroke="#5c92ab" stroke-width="1.52" />
<rect data-threshold-type="door" x="835.52" y="389.76" width="8.96" height="4.48" fill="#ffffff" stroke="#5c92ab" stroke-width="1.52" />
<g data-threshold-type="locked" stroke="#5c92ab" fill="none" stroke-width="1.52"><rect x="947.52" y="693.76" width="8.96" height="4.48" fill="#ffffff" /><circle cx="952.00" cy="692.77" r="1.61" /></g>
<g data-threshold-type="secret"><line x1="531.52" y1="408.00" x2="540.48" y2="408.00" stroke="#5c92ab" stroke-width="1.31" stroke-dasharray="1.31 1.31" /><text x="541.56" y="407.10" font-size="5.44" fill="#5c92ab" font-family="Courier New, monospace" font-weight="700">S</text></g>
<rect data-threshold-type="door" x="931.52" y="1301.76" width="8.96" height="4.48" fill="#ffffff" stroke="#5c92ab" stroke-width="1.52" />
<rect data-threshold-type="door" x="307.52" y="101.76" width="8.96" height="4.48" fill="#ffffff" stroke="#5c92ab" stroke-width="1.52" />
<rect data-threshold-type="door" x="483.52" y="901.76" width="8.96" height="4.48" fill="#ffffff" stroke="#5c92ab" stroke-width="1.52" />
<g data-threshold-type="locked" stroke="#5c92ab" fill="none" stroke-width="1.52"><rect x="147.52" y="485.76" width="8.96" height="4.48" fill="#ffffff" /><circle cx="152.00" cy="484.77" r="1.61" /></g>
  </g>
  <g class="labels">
<text x="328.00" y="377.92" text-anchor="middle">1</text>
<text x="488.00" y="201.92" text-anchor="middle">2</text>
<text x="680.00" y="1065.92" text-anchor="middle">3</text>
<text x="408.00" y="1385.92" text-anchor="middle">4</text>
<text x="1032.00" y="169.92" text-anchor="middle">5</text>
<text x="344.00" y="1161.92" text-anchor="middle">6</text>
<text x="552.00" y="841.92" text-anchor="middle">7</text>
<text x="1080.00" y="1241.92" text-anchor="middle">8</text>
<text x="536.00" y="345.92" text-anchor="middle">9</text>
<text x="840.00" y="585.92" text-anchor="middle">10</text>
<text x="968.00" y="345.92" text-anchor="middle">11</text>
<text x="1096.00" y="1417.92" text-anchor="middle">12</text>
<text x="200.00" y="265.92" text-anchor="middle">13</text>
<text x="792.00" y="265.92" text-anchor="middle">14</text>
<text x="216.00" y="905.92" text-anchor="middle">15</text>
<text x="152.00" y="1065.92" text-anchor="middle">16</text>
<text x="936.00" y="1369.92" text-anchor="middle">17</text>
<text x="1064.00" y="1033.92" text-anchor="middle">18</text>
<text x="1160.00" y="569.92" text-anchor="middle">19</text>
<text x="904.00" y="1145.92" text-anchor="middle">20</text>
<text x="1208.00" y="137.92" text-anchor="middle">21</text>
<text x="152.00" y="1257.92" text-anchor="middle">22</text>
<text x="856.00" y="937.92" text-anchor="middle">23</text>
<text x="776.00" y="425.92" text-anchor="middle">24</text>
<text x="1016.00" y="713.92" text-anchor="middle">25</text>
<text x="552.00" y="457.92" text-anchor="middle">26</text>
<text x="936.00" y="1273.92" text-anchor="middle">27</text>
<text x="280.00" y="105.92" text-anchor="middle">28</text>
<text x="520.00" y="953.92" text-anchor="middle">29</text>
<text x="120.00" y="489.92" text-anchor="middle">30</text>
  </g>
</svg>