<?xml version="1.0" encoding="UTF-8"?>
<svg xmlns="http://www.w3.org/2000/svg" width="1280" height="1536" viewBox="0 0 1280.00 1536.00" role="img" aria-label="MapIR render: Learned Generated Map 7">
  <defs>
    <style>
      .grid { stroke: #d7e7ef; stroke-width: 0.64; opacity: 0.72; }
      .walls { stroke: #6fa8c1; stroke-width: 1.92; fill: none; stroke-linecap: square; }
      .thresholds { fill: none; stroke-linecap: round; }
      .features { stroke: #5c92ab; fill: none; stroke-width: 1.60; stroke-linecap: round; stroke-linejoin: round; }
      .labels { fill: #5c92ab; font-size: 7.20px; font-family: "Courier New", monospace; font-weight: 600; }
    </style>
  </defs>
  <rect x="0" y="0" width="1280.00" height="1536.00" fill="#5d9fbc" />
  <g class="floors">
<rect x="672.00" y="32.00" width="64.00" height="128.00" fill="#fbfdfe" />
<rect x="432.00" y="80.00" width="240.00" height="16.00" fill="#fbfdfe" />
<rect x="736.00" y="80.00" width="416.00" height="16.00" fill="#fbfdfe" />
<rect x="432.00" y="96.00" width="128.00" height="112.00" fill="#fbfdfe" />
<rect x="976.00" y="96.00" width="176.00" height="112.00" fill="#fbfdfe" />
<rect x="560.00" y="144.00" width="112.00" height="16.00" fill="#fbfdfe" />
<rect x="736.00" y="144.00" width="144.00" height="16.00" fill="#fbfdfe" />
<rect x="704.00" y="160.00" width="16.00" height="1328.00" fill="#fbfdfe" />
<rect x="864.00" y="160.00" width="16.00" height="1264.00" fill="#fbfdfe" />
<rect x="256.00" y="192.00" width="32.00" height="144.00" fill="#fbfdfe" />
<rect x="224.00" y="208.00" width="32.00" height="112.00" fill="#fbfdfe" />
<rect x="288.00" y="208.00" width="32.00" height="112.00" fill="#fbfdfe" />
<rect x="496.00" y="208.00" width="16.00" height="1008.00" fill="#fbfdfe" />
<rect x="544.00" y="208.00" width="16.00" height="1216.00" fill="#fbfdfe" />
<rect x="976.00" y="208.00" width="16.00" height="1184.00" fill="#fbfdfe" />
<rect x="1072.00" y="208.00" width="16.00" height="832.00" fill="#fbfdfe" />
<rect x="1120.00" y="224.00" width="96.00" height="160.00" fill="#fbfdfe" />
<rect x="208.00" y="240.00" width="16.00" height="48.00" fill="#fbfdfe" />
<rect x="320.00" y="240.00" width="16.00" height="48.00" fill="#fbfdfe" />
<rect x="656.00" y="240.00" width="48.00" height="80.00" fill="#fbfdfe" />
<rect x="720.00" y="240.00" width="32.00" height="80.00" fill="#fbfdfe" />
<rect x="1104.00" y="240.00" width="16.00" height="320.00" fill="#fbfdfe" />
<rect x="1216.00" y="240.00" width="16.00" height="128.00" fill="#fbfdfe" />
<rect x="336.00" y="256.00" width="160.00" height="16.00" fill="#fbfdfe" />
<rect x="512.00" y="256.00" width="32.00" height="32.00" fill="#fbfdfe" />
<rect x="560.00" y="256.00" width="96.00" height="32.00" fill="#fbfdfe" />
<rect x="752.00" y="256.00" width="112.00" height="16.00" fill="#fbfdfe" />
<rect x="880.00" y="256.00" width="96.00" height="16.00" fill="#fbfdfe" />
<rect x="992.00" y="256.00" width="80.00" height="16.00" fill="#fbfdfe" />
<rect x="1088.00" y="256.00" width="16.00" height="96.00" fill="#fbfdfe" />
<rect x="1232.00" y="256.00" width="16.00" height="96.00" fill="#fbfdfe" />
<rect x="336.00" y="272.00" width="16.00" height="1024.00" fill="#fbfdfe" />
<rect x="400.00" y="272.00" width="96.00" height="16.00" fill="#fbfdfe" />
<rect x="400.00" y="288.00" width="16.00" height="192.00" fill="#fbfdfe" />
<rect x="560.00" y="288.00" width="48.00" height="48.00" fill="#fbfdfe" />
<rect x="608.00" y="304.00" width="48.00" height="16.00" fill="#fbfdfe" />
<rect x="752.00" y="304.00" width="112.00" height="16.00" fill="#fbfdfe" />
<rect x="880.00" y="304.00" width="96.00" height="16.00" fill="#fbfdfe" />
<rect x="992.00" y="304.00" width="80.00" height="16.00" fill="#fbfdfe" />
<rect x="928.00" y="320.00" width="48.00" height="96.00" fill="#fbfdfe" />
<rect x="992.00" y="320.00" width="32.00" height="96.00" fill="#fbfdfe" />
<rect x="272.00" y="336.00" width="16.00" height="912.00" fill="#fbfdfe" />
<rect x="576.00" y="336.00" width="16.00" height="960.00" fill="#fbfdfe" />
<rect x="736.00" y="336.00" width="112.00" height="128.00" fill="#fbfdfe" />
<rect x="368.00" y="400.00" width="32.00" height="80.00" fill="#fbfdfe" />
<rect x="416.00" y="400.00" width="16.00" height="80.00" fill="#fbfdfe" />
<rect x="848.00" y="400.00" width="16.00" height="16.00" fill="#fbfdfe" />
<rect x="880.00" y="400.00" width="48.00" height="16.00" fill="#fbfdfe" />
<rect x="1024.00" y="400.00" width="48.00" height="16.00" fill="#fbfdfe" />
<rect x="1088.00" y="400.00" width="16.00" height="16.00" fill="#fbfdfe" />
<rect x="1120.00" y="400.00" width="96.00" height="16.00" fill="#fbfdfe" />
<rect x="1200.00" y="416.00" width="16.00" height="832.00" fill="#fbfdfe" />
<rect x="1056.00" y="448.00" width="16.00" height="112.00" fill="#fbfdfe" />
<rect x="1088.00" y="448.00" width="16.00" height="112.00" fill="#fbfdfe" />
<rect x="1120.00" y="448.00" width="48.00" height="112.00" fill="#fbfdfe" />
<rect x="784.00" y="464.00" width="16.00" height="368.00" fill="#fbfdfe" />
<rect x="1040.00" y="464.00" width="16.00" height="80.00" fill="#fbfdfe" />
<rect x="1168.00" y="464.00" width="16.00" height="80.00" fill="#fbfdfe" />
<rect x="512.00" y="480.00" width="32.00" height="64.00" fill="#fbfdfe" />
<rect x="560.00" y="480.00" width="16.00" height="64.00" fill="#fbfdfe" />
<rect x="592.00" y="480.00" width="64.00" height="64.00" fill="#fbfdfe" />
<rect x="192.00" y="496.00" width="80.00" height="16.00" fill="#fbfdfe" />
<rect x="288.00" y="496.00" width="48.00" height="16.00" fill="#fbfdfe" />
<rect x="352.00" y="496.00" width="144.00" height="16.00" fill="#fbfdfe" />
<rect x="656.00" y="496.00" width="48.00" height="16.00" fill="#fbfdfe" />
<rect x="720.00" y="496.00" width="64.00" height="16.00" fill="#fbfdfe" />
<rect x="800.00" y="496.00" width="64.00" height="16.00" fill="#fbfdfe" />
<rect x="880.00" y="496.00" width="96.00" height="16.00" fill="#fbfdfe" />
<rect x="992.00" y="496.00" width="48.00" height="16.00" fill="#fbfdfe" />
<rect x="192.00" y="512.00" width="16.00" height="544.00" fill="#fbfdfe" />
<rect x="224.00" y="576.00" width="48.00" height="80.00" fill="#fbfdfe" />
<rect x="288.00" y="576.00" width="32.00" height="80.00" fill="#fbfdfe" />
<rect x="320.00" y="608.00" width="16.00" height="16.00" fill="#fbfdfe" />
<rect x="352.00" y="608.00" width="144.00" height="16.00" fill="#fbfdfe" />
<rect x="1104.00" y="608.00" width="80.00" height="112.00" fill="#fbfdfe" />
<rect x="480.00" y="624.00" width="16.00" height="448.00" fill="#fbfdfe" />
<rect x="560.00" y="624.00" width="16.00" height="112.00" fill="#fbfdfe" />
<rect x="592.00" y="624.00" width="80.00" height="112.00" fill="#fbfdfe" />
<rect x="512.00" y="656.00" width="32.00" height="32.00" fill="#fbfdfe" />
<rect x="672.00" y="656.00" width="32.00" height="16.00" fill="#fbfdfe" />
<rect x="720.00" y="656.00" width="64.00" height="16.00" fill="#fbfdfe" />
<rect x="800.00" y="656.00" width="64.00" height="128.00" fill="#fbfdfe" />
<rect x="880.00" y="656.00" width="96.00" height="16.00" fill="#fbfdfe" />
<rect x="992.00" y="656.00" width="80.00" height="16.00" fill="#fbfdfe" />
<rect x="1088.00" y="656.00" width="16.00" height="16.00" fill="#fbfdfe" />
<rect x="208.00" y="672.00" width="64.00" height="16.00" fill="#fbfdfe" />
<rect x="288.00" y="672.00" width="48.00" height="16.00" fill="#fbfdfe" />
<rect x="352.00" y="672.00" width="128.00" height="16.00" fill="#fbfdfe" />
<rect x="880.00" y="672.00" width="64.00" height="112.00" fill="#fbfdfe" />
<rect x="96.00" y="720.00" width="96.00" height="16.00" fill="#fbfdfe" />
<rect x="208.00" y="720.00" width="64.00" height="16.00" fill="#fbfdfe" />
<rect x="288.00" y="720.00" width="48.00" height="16.00" fill="#fbfdfe" />
<rect x="352.00" y="720.00" width="128.00" height="16.00" fill="#fbfdfe" />
<rect x="512.00" y="720.00" width="32.00" height="16.00" fill="#fbfdfe" />
<rect x="672.00" y="720.00" width="32.00" height="16.00" fill="#fbfdfe" />
<rect x="720.00" y="720.00" width="64.00" height="16.00" fill="#fbfdfe" />
<rect x="1136.00" y="720.00" width="16.00" height="704.00" fill="#fbfdfe" />
<rect x="96.00" y="736.00" width="16.00" height="544.00" fill="#fbfdfe" />
<rect x="608.00" y="736.00" width="16.00" height="512.00" fill="#fbfdfe" />
<rect x="224.00" y="752.00" width="48.00" height="96.00" fill="#fbfdfe" />
<rect x="288.00" y="752.00" width="48.00" height="96.00" fill="#fbfdfe" />
<rect x="1088.00" y="768.00" width="48.00" height="112.00" fill="#fbfdfe" />
<rect x="352.00" y="816.00" width="128.00" height="16.00" fill="#fbfdfe" />
<rect x="512.00" y="816.00" width="32.00" height="16.00" fill="#fbfdfe" />
<rect x="560.00" y="816.00" width="16.00" height="16.00" fill="#fbfdfe" />
<rect x="592.00" y="816.00" width="16.00" height="16.00" fill="#fbfdfe" />
<rect x="624.00" y="816.00" width="80.00" height="16.00" fill="#fbfdfe" />
<rect x="720.00" y="816.00" width="64.00" height="16.00" fill="#fbfdfe" />
<rect x="800.00" y="816.00" width="64.00" height="16.00" fill="#fbfdfe" />
<rect x="880.00" y="816.00" width="96.00" height="16.00" fill="#fbfdfe" />
<rect x="992.00" y="816.00" width="80.00" height="16.00" fill="#fbfdfe" />
<rect x="944.00" y="880.00" width="32.00" height="128.00" fill="#fbfdfe" />
<rect x="992.00" y="880.00" width="16.00" height="128.00" fill="#fbfdfe" />
<rect x="1088.00" y="896.00" width="48.00" height="144.00" fill="#fbfdfe" />
<rect x="208.00" y="944.00" width="64.00" height="16.00" fill="#fbfdfe" />
<rect x="288.00" y="944.00" width="48.00" height="16.00" fill="#fbfdfe" />
<rect x="352.00" y="944.00" width="128.00" height="16.00" fill="#fbfdfe" />
<rect x="512.00" y="944.00" width="32.00" height="16.00" fill="#fbfdfe" />
<rect x="560.00" y="944.00" width="16.00" height="16.00" fill="#fbfdfe" />
<rect x="592.00" y="944.00" width="16.00" height="16.00" fill="#fbfdfe" />
<rect x="624.00" y="944.00" width="80.00" height="16.00" fill="#fbfdfe" />
<rect x="720.00" y="944.00" width="144.00" height="16.00" fill="#fbfdfe" />
<rect x="880.00" y="944.00" width="64.00" height="16.00" fill="#fbfdfe" />
<rect x="1008.00" y="960.00" width="64.00" height="16.00" fill="#fbfdfe" />
<rect x="160.00" y="976.00" width="32.00" height="80.00" fill="#fbfdfe" />
<rect x="208.00" y="976.00" width="16.00" height="80.00" fill="#fbfdfe" />
<rect x="432.00" y="976.00" width="48.00" height="96.00" fill="#fbfdfe" />
<rect x="512.00" y="976.00" width="32.00" height="96.00" fill="#fbfdfe" />
<rect x="224.00" y="1008.00" width="48.00" height="16.00" fill="#fbfdfe" />
<rect x="288.00" y="1008.00" width="48.00" height="16.00" fill="#fbfdfe" />
<rect x="352.00" y="1008.00" width="80.00" height="16.00" fill="#fbfdfe" />
<rect x="560.00" y="1008.00" width="16.00" height="32.00" fill="#fbfdfe" />
<rect x="592.00" y="1008.00" width="16.00" height="32.00" fill="#fbfdfe" />
<rect x="624.00" y="1008.00" width="80.00" height="32.00" fill="#fbfdfe" />
<rect x="720.00" y="1008.00" width="144.00" height="32.00" fill="#fbfdfe" />
<rect x="880.00" y="1008.00" width="16.00" height="320.00" fill="#fbfdfe" />
<rect x="896.00" y="1024.00" width="80.00" height="16.00" fill="#fbfdfe" />
<rect x="992.00" y="1024.00" width="80.00" height="16.00" fill="#fbfdfe" />
<rect x="720.00" y="1152.00" width="48.00" height="144.00" fill="#fbfdfe" />
<rect x="64.00" y="1168.00" width="32.00" height="112.00" fill="#fbfdfe" />
<rect x="112.00" y="1168.00" width="32.00" height="112.00" fill="#fbfdfe" />
<rect x="288.00" y="1168.00" width="48.00" height="128.00" fill="#fbfdfe" />
<rect x="352.00" y="1168.00" width="48.00" height="128.00" fill="#fbfdfe" />
<rect x="1168.00" y="1168.00" width="32.00" height="80.00" fill="#fbfdfe" />
<rect x="1216.00" y="1168.00" width="16.00" height="80.00" fill="#fbfdfe" />
<rect x="512.00" y="1200.00" width="32.00" height="16.00" fill="#fbfdfe" />
<rect x="560.00" y="1200.00" width="16.00" height="16.00" fill="#fbfdfe" />
<rect x="592.00" y="1200.00" width="16.00" height="16.00" fill="#fbfdfe" />
<rect x="624.00" y="1200.00" width="80.00" height="16.00" fill="#fbfdfe" />
<rect x="768.00" y="1200.00" width="96.00" height="16.00" fill="#fbfdfe" />
<rect x="896.00" y="1200.00" width="80.00" height="16.00" fill="#fbfdfe" />
<rect x="992.00" y="1200.00" width="144.00" height="16.00" fill="#fbfdfe" />
<rect x="1152.00" y="1200.00" width="16.00" height="16.00" fill="#fbfdfe" />
<rect x="400.00" y="1232.00" width="144.00" height="16.00" fill="#fbfdfe" />
<rect x="560.00" y="1232.00" width="16.00" height="16.00" fill="#fbfdfe" />
<rect x="592.00" y="1232.00" width="16.00" height="16.00" fill="#fbfdfe" />
<rect x="816.00" y="1248.00" width="48.00" height="80.00" fill="#fbfdfe" />
<rect x="896.00" y="1248.00" width="64.00" height="80.00" fill="#fbfdfe" />
<rect x="592.00" y="1280.00" width="112.00" height="16.00" fill="#fbfdfe" />
<rect x="768.00" y="1280.00" width="48.00" height="16.00" fill="#fbfdfe" />
<rect x="736.00" y="1296.00" width="16.00" height="96.00" fill="#fbfdfe" />
<rect x="224.00" y="1328.00" width="144.00" height="160.00" fill="#fbfdfe" />
<rect x="480.00" y="1344.00" width="64.00" height="80.00" fill="#fbfdfe" />
<rect x="560.00" y="1344.00" width="64.00" height="80.00" fill="#fbfdfe" />
<rect x="128.00" y="1376.00" width="96.00" height="16.00" fill="#fbfdfe" />
<rect x="368.00" y="1376.00" width="112.00" height="16.00" fill="#fbfdfe" />
<rect x="624.00" y="1376.00" width="80.00" height="16.00" fill="#fbfdfe" />
<rect x="720.00" y="1376.00" width="16.00" height="16.00" fill="#fbfdfe" />
<rect x="752.00" y="1376.00" width="112.00" height="16.00" fill="#fbfdfe" />
<rect x="880.00" y="1376.00" width="96.00" height="16.00" fill="#fbfdfe" />
<rect x="128.00" y="1392.00" width="16.00" height="112.00" fill="#fbfdfe" />
<rect x="368.00" y="1408.00" width="112.00" height="16.00" fill="#fbfdfe" />
<rect x="624.00" y="1408.00" width="80.00" height="16.00" fill="#fbfdfe" />
<rect x="720.00" y="1408.00" width="144.00" height="16.00" fill="#fbfdfe" />
<rect x="880.00" y="1408.00" width="256.00" height="16.00" fill="#fbfdfe" />
<rect x="48.00" y="1440.00" width="80.00" height="64.00" fill="#fbfdfe" />
<rect x="144.00" y="1440.00" width="64.00" height="64.00" fill="#fbfdfe" />
<rect x="208.00" y="1472.00" width="16.00" height="16.00" fill="#fbfdfe" />
<rect x="368.00" y="1472.00" width="336.00" height="16.00" fill="#fbfdfe" />
  </g>
  <g class="grid">
<line x1="0.00" y1="0" x2="0.00" y2="1536.00" />
<line x1="16.00" y1="0" x2="16.00" y2="1536.00" />
<line x1="32.00" y1="0" x2="32.00" y2="1536.00" />
<line x1="48.00" y1="0" x2="48.00" y2="1536.00" />
<line x1="64.00" y1="0" x2="64.00" y2="1536.00" />
<line x1="80.00" y1="0" x2="80.00" y2="1536.00" />
<line x1="96.00" y1="0" x2="96.00" y2="1536.00" />
<line x1="112.00" y1="0" x2="112.00" y2="1536.00" />
<line x1="128.00" y1="0" x2="128.00" y2="1536.00" />
<line x1="144.00" y1="0" x2="144.00" y2="1536.00" />
<line x1="160.00" y1="0" x2="160.00" y2="1536.00" />
<line x1="176.00" y1="0" x2="176.00" y2="1536.00" />
<line x1="192.00" y1="0" x2="192.00" y2="1536.00" />
<line x1="208.00" y1="0" x2="208.00" y2="1536.00" />
<line x1="224.00" y1="0" x2="224.00" y2="1536.00" />
<line x1="240.00" y1="0" x2="240.00" y2="1536.00" />
<line x1="256.00" y1="0" x2="256.00" y2="1536.00" />
<line x1="272.00" y1="0" x2="272.00" y2="1536.00" />
<line x1="288.00" y1="0" x2="288.00" y2="1536.00" />
<line x1="304.00" y1="0" x2="304.00" y2="1536.00" />
<line x1="320.00" y1="0" x2="320.00" y2="1536.00" />
<line x1="336.00" y1="0" x2="336.00" y2="1536.00" />
<line x1="352.00" y1="0" x2="352.00" y2="1536.00" />
<line x1="368.00" y1="0" x2="368.00" y2="1536.00" />
<line x1="384.00" y1="0" x2="384.00" y2="1536.00" />
<line x1="400.00" y1="0" x2="400.00" y2="1536.00" />
<line x1="416.00" y1="0" x2="416.00" y2="1536.00" />
<line x1="432.00" y1="0" x2="432.00" y2="1536.00" />
<line x1="448.00" y1="0" x2="448.00" y2="1536.00" />
<line x1="464.00" y1="0" x2="464.00" y2="1536.00" />
<line x1="480.00" y1="0" x2="480.00" y2="1536.00" />
<line x1="496.00" y1="0" x2="496.00" y2="1536.00" />
<line x1="512.00" y1="0" x2="512.00" y2="1536.00" />
<line x1="528.00" y1="0" x2="528.00" y2="1536.00" />
<line x1="544.00" y1="0" x2="544.00" y2="1536.00" />
<line x1="560.00" y1="0" x2="560.00" y2="1536.00" />
<line x1="576.00" y1="0" x2="576.00" y2="1536.00" />
<line x1="592.00" y1="0" x2="592.00" y2="1536.00" />
<line x1="608.00" y1="0" x2="608.00" y2="1536.00" />
<line x1="624.00" y1="0" x2="624.00" y2="1536.00" />
<line x1="640.00" y1="0" x2="640.00" y2="1536.00" />
<line x1="656.00" y1="0" x2="656.00" y2="1536.00" />
<line x1="672.00" y1="0" x2="672.00" y2="1536.00" />
<line x1="688.00" y1="0" x2="688.00" y2="1536.00" />
<line x1="704.00" y1="0" x2="704.00" y2="1536.00" />
<line x1="720.00" y1="0" x2="720.00" y2="1536.00" />
<line x1="736.00" y1="0" x2="736.00" y2="1536.00" />
<line x1="752.00" y1="0" x2="752.00" y2="1536.00" />
<line x1="768.00" y1="0" x2="768.00" y2="1536.00" />
<line x1="784.00" y1="0" x2="784.00" y2="1536.00" />
<line x1="800.00" y1="0" x2="800.00" y2="1536.00" />
<line x1="816.00" y1="0" x2="816.00" y2="1536.00" />
<line x1="832.00" y1="0" x2="832.00" y2="1536.00" />
<line x1="848.00" y1="0" x2="848.00" y2="1536.00" />
<line x1="864.00" y1="0" x2="864.00" y2="1536.00" />
<line x1="880.00" y1="0" x2="880.00" y2="1536.00" />
<line x1="896.00" y1="0" x2="896.00" y2="1536.00" />
<line x1="912.00" y1="0" x2="912.00" y2="1536.00" />
<line x1="928.00" y1="0" x2="928.00" y2="1536.00" />
<line x1="944.00" y1="0" x2="944.00" y2="1536.00" />
<line x1="960.00" y1="0" x2="960.00" y2="1536.00" />
<line x1="976.00" y1="0" x2="976.00" y2="1536.00" />
<line x1="992.00" y1="0" x2="992.00" y2="1536.00" />
<line x1="1008.00" y1="0" x2="1008.00" y2="1536.00" />
<line x1="1024.00" y1="0" x2="1024.00" y2="1536.00" />
<line x1="1040.00" y1="0" x2="1040.00" y2="1536.00" />
<line x1="1056.00" y1="0" x2="1056.00" y2="1536.00" />
<line x1="1072.00" y1="0" x2="1072.00" y2="1536.00" />
<line x1="1088.00" y1="0" x2="1088.00" y2="1536.00" />
<line x1="1104.00" y1="0" x2="1104.00" y2="1536.00" />
<line x1="1120.00" y1="0" x2="1120.00" y2="1536.00" />
<line x1="1136.00" y1="0" x2="1136.00" y2="1536.00" />
<line x1="1152.00" y1="0" x2="1152.00" y2="1536.00" />
<line x1="1168.00" y1="0" x2="1168.00" y2="1536.00" />
<line x1="1184.00" y1="0" x2="1184.00" y2="1536.00" />
<line x1="1200.00" y1="0" x2="1200.00" y2="1536.00" />
<line x1="1216.00" y1="0" x2="1216.00" y2="1536.00" />
<line x1="1232.00" y1="0" x2="1232.00" y2="1536.00" />
<line x1="1248.00" y1="0" x2="1248.00" y2="1536.00" />
<line x1="1264.00" y1="0" x2="1264.00" y2="1536.00" />
<line x1="1280.00" y1="0" x2="1280.00" y2="1536.00" />
<line x1="0" y1="0.00" x2="1280.00" y2="0.00" />
<line x1="0" y1="16.00" x2="1280.00" y2="16.00" />
<line x1="0" y1="32.00" x2="1280.00" y2="32.00" />
<line x1="0" y1="48.00" x2="1280.00" y2="48.00" />
<line x1="0" y1="64.00" x2="1280.00" y2="64.00" />
<line x1="0" y1="80.00" x2="1280.00" y2="80.00" />
<line x1="0" y1="96.00" x2="1280.00" y2="96.00" />
<line x1="0" y1="112.00" x2="1280.00" y2="112.00" />
<line x1="0" y1="128.00" x2="1280.00" y2="128.00" />
<line x1="0" y1="144.00" x2="1280.00" y2="144.00" />
<line x1="0" y1="160.00" x2="1280.00" y2="160.00" />
<line x1="0" y1="176.00" x2="1280.00" y2="176.00" />
<line x1="0" y1="192.00" x2="1280.00" y2="192.00" />
<line x1="0" y1="208.00" x2="1280.00" y2="208.00" />
<line x1="0" y1="224.00" x2="1280.00" y2="224.00" />
<line x1="0" y1="240.00" x2="1280.00" y2="240.00" />
<line x1="0" y1="256.00" x2="1280.00" y2="256.00" />
<line x1="0" y1="272.00" x2="1280.00" y2="272.00" />
<line x1="0" y1="288.00" x2="1280.00" y2="288.00" />
<line x1="0" y1="304.00" x2="1280.00" y2="304.00" />
<line x1="0" y1="320.00" x2="1280.00" y2="320.00" />
<line x1="0" y1="336.00" x2="1280.00" y2="336.00" />
<line x1="0" y1="352.00" x2="1280.00" y2="352.00" />
<line x1="0" y1="368.00" x2="1280.00" y2="368.00" />
<line x1="0" y1="384.00" x2="1280.00" y2="384.00" />
<line x1="0" y1="400.00" x2="1280.00" y2="400.00" />
<line x1="0" y1="416.00" x2="1280.00" y2="416.00" />
<line x1="0" y1="432.00" x2="1280.00" y2="432.00" />
<line x1="0" y1="448.00" x2="1280.00" y2="448.00" />
<line x1="0" y1="464.00" x2="1280.00" y2="464.00" />
<line x1="0" y1="480.00" x2="1280.00" y2="480.00" />
<line x1="0" y1="496.00" x2="1280.00" y2="496.00" />
<line x1="0" y1="512.00" x2="1280.00" y2="512.00" />
<line x1="0" y1="528.00" x2="1280.00" y2="528.00" />
<line x1="0" y1="544.00" x2="1280.00" y2="544.00" />
<line x1="0" y1="560.00" x2="1280.00" y2="560.00" />
<line x1="0" y1="576.00" x2="1280.00" y2="576.00" />
<line x1="0" y1="592.00" x2="1280.00" y2="592.00" />
<line x1="0" y1="608.00" x2="1280.00" y2="608.00" />
<line x1="0" y1="624.00" x2="1280.00" y2="624.00" />
<line x1="0" y1="640.00" x2="1280.00" y2="640.00" />
<line x1="0" y1="656.00" x2="1280.00" y2="656.00" />
<line x1="0" y1="672.00" x2="1280.00" y2="672.00" />
<line x1="0" y1="688.00" x2="1280.00" y2="688.00" />
<line x1="0" y1="704.00" x2="1280.00" y2="704.00" />
<line x1="0" y1="720.00" x2="1280.00" y2="720.00" />
<line x1="0" y1="736.00" x2="1280.00" y2="736.00" />
<line x1="0" y1="752.00" x2="1280.00" y2="752.00" />
<line x1="0" y1="768.00" x2="1280.00" y2="768.00" />
<line x1="0" y1="784.00" x2="1280.00" y2="784.00" />
<line x1="0" y1="800.00" x2="1280.00" y2="800.00" />
<line x1="0" y1="816.00" x2="1280.00" y2="816.00" />
<line x1="0" y1="832.00" x2="1280.00" y2="832.00" />
<line x1="0" y1="848.00" x2="1280.00" y2="848.00" />
<line x1="0" y1="864.00" x2="1280.00" y2="864.00" />
<line x1="0" y1="880.00" x2="1280.00" y2="880.00" />
<line x1="0" y1="896.00" x2="1280.00" y2="896.00" />
<line x1="0" y1="912.00" x2="1280.00" y2="912.00" />
<line x1="0" y1="928.00" x2="1280.00" y2="928.00" />
<line x1="0" y1="944.00" x2="1280.00" y2="944.00" />
<line x1="0" y1="960.00" x2="1280.00" y2="960.00" />
<line x1="0" y1="976.00" x2="1280.00" y2="976.00" />
<line x1="0" y1="992.00" x2="1280.00" y2="992.00" />
<line x1="0" y1="1008.00" x2="1280.00" y2="1008.00" />
<line x1="0" y1="1024.00" x2="1280.00" y2="1024.00" />
<line x1="0" y1="1040.00" x2="1280.00" y2="1040.00" />
<line x1="0" y1="1056.00" x2="1280.00" y2="1056.00" />
<line x1="0" y1="1072.00" x2="1280.00" y2="1072.00" />
<line x1="0" y1="1088.00" x2="1280.00" y2="1088.00" />
<line x1="0" y1="1104.00" x2="1280.00" y2="1104.00" />
<line x1="0" y1="1120.00" x2="1280.00" y2="1120.00" />
<line x1="0" y1="1136.00" x2="1280.00" y2="1136.00" />
<line x1="0" y1="1152.00" x2="1280.00" y2="1152.00" />
<line x1="0" y1="1168.00" x2="1280.00" y2="1168.00" />
<line x1="0" y1="1184.00" x2="1280.00" y2="1184.00" />
<line x1="0" y1="1200.00" x2="1280.00" y2="1200.00" />
<line x1="0" y1="1216.00" x2="1280.00" y2="1216.00" />
<line x1="0" y1="1232.00" x2="1280.00" y2="1232.00" />
<line x1="0" y1="1248.00" x2="1280.00" y2="1248.00" />
<line x1="0" y1="1264.00" x2="1280.00" y2="1264.00" />
<line x1="0" y1="1280.00" x2="1280.00" y2="1280.00" />
<line x1="0" y1="1296.00" x2="1280.00" y2="1296.00" />
<line x1="0" y1="1312.00" x2="1280.00" y2="1312.00" />
<line x1="0" y1="1328.00" x2="1280.00" y2="1328.00" />
<line x1="0" y1="1344.00" x2="1280.00" y2="1344.00" />
<line x1="0" y1="1360.00" x2="1280.00" y2="1360.00" />
<line x1="0" y1="1376.00" x2="1280.00" y2="1376.00" />
<line x1="0" y1="1392.00" x2="1280.00" y2="1392.00" />
<line x1="0" y1="1408.00" x2="1280.00" y2="1408.00" />
<line x1="0" y1="1424.00" x2="1280.00" y2="1424.00" />
<line x1="0" y1="1440.00" x2="1280.00" y2="1440.00" />
<line x1="0" y1="1456.00" x2="1280.00" y2="1456.00" />
<line x1="0" y1="1472.00" x2="1280.00" y2="1472.00" />
<line x1="0" y1="1488.00" x2="1280.00" y2="1488.00" />
<line x1="0" y1="1504.00" x2="1280.00" y2="1504.00" />
<line x1="0" y1="1520.00" x2="1280.00" y2="1520.00" />
<line x1="0" y1="1536.00" x2="1280.00" y2="1536.00" />
  </g>
  <g class="walls">
<line x1="672.00" y1="32.00" x2="736.00" y2="32.00" />
<line x1="432.00" y1="80.00" x2="672.00" y2="80.00" />
<line x1="736.00" y1="80.00" x2="1152.00" y2="80.00" />
<line x1="560.00" y1="96.00" x2="672.00" y2="96.00" />
<line x1="736.00" y1="96.00" x2="976.00" y2="96.00" />
<line x1="560.00" y1="144.00" x2="672.00" y2="144.00" />
<line x1="736.00" y1="144.00" x2="880.00" y2="144.00" />
<line x1="560.00" y1="160.00" x2="704.00" y2="160.00" />
<line x1="720.00" y1="160.00" x2="864.00" y2="160.00" />
<line x1="256.00" y1="192.00" x2="288.00" y2="192.00" />
<line x1="224.00" y1="208.00" x2="256.00" y2="208.00" />
<line x1="288.00" y1="208.00" x2="320.00" y2="208.00" />
<line x1="432.00" y1="208.00" x2="496.00" y2="208.00" />
<line x1="512.00" y1="208.00" x2="544.00" y2="208.00" />
<line x1="992.00" y1="208.00" x2="1072.00" y2="208.00" />
<line x1="1088.00" y1="208.00" x2="1152.00" y2="208.00" />
<line x1="1120.00" y1="224.00" x2="1216.00" y2="224.00" />
<line x1="208.00" y1="240.00" x2="224.00" y2="240.00" />
<line x1="320.00" y1="240.00" x2="336.00" y2="240.00" />
<line x1="656.00" y1="240.00" x2="704.00" y2="240.00" />
<line x1="720.00" y1="240.00" x2="752.00" y2="240.00" />
<line x1="1104.00" y1="240.00" x2="1120.00" y2="240.00" />
<line x1="1216.00" y1="240.00" x2="1232.00" y2="240.00" />
<line x1="336.00" y1="256.00" x2="496.00" y2="256.00" />
<line x1="512.00" y1="256.00" x2="544.00" y2="256.00" />
<line x1="560.00" y1="256.00" x2="656.00" y2="256.00" />
<line x1="752.00" y1="256.00" x2="864.00" y2="256.00" />
<line x1="880.00" y1="256.00" x2="976.00" y2="256.00" />
<line x1="992.00" y1="256.00" x2="1072.00" y2="256.00" />
<line x1="1088.00" y1="256.00" x2="1104.00" y2="256.00" />
<line x1="1232.00" y1="256.00" x2="1248.00" y2="256.00" />
<line x1="352.00" y1="272.00" x2="400.00" y2="272.00" />
<line x1="752.00" y1="272.00" x2="864.00" y2="272.00" />
<line x1="880.00" y1="272.00" x2="976.00" y2="272.00" />
<line x1="992.00" y1="272.00" x2="1072.00" y2="272.00" />
<line x1="208.00" y1="288.00" x2="224.00" y2="288.00" />
<line x1="320.00" y1="288.00" x2="336.00" y2="288.00" />
<line x1="416.00" y1="288.00" x2="496.00" y2="288.00" />
<line x1="512.00" y1="288.00" x2="544.00" y2="288.00" />
<line x1="608.00" y1="288.00" x2="656.00" y2="288.00" />
<line x1="224.00" y1="320.00" x2="256.00" y2="320.00" />
<line x1="288.00" y1="320.00" x2="320.00" y2="320.00" />
<line x1="608.00" y1="320.00" x2="704.00" y2="320.00" />
<line x1="720.00" y1="320.00" x2="864.00" y2="320.00" />
<line x1="880.00" y1="320.00" x2="928.00" y2="320.00" />
<line x1="1024.00" y1="320.00" x2="1072.00" y2="320.00" />
<line x1="608.00" y1="304.00" x2="656.00" y2="304.00" />
<line x1="752.00" y1="304.00" x2="864.00" y2="304.00" />
<line x1="880.00" y1="304.00" x2="976.00" y2="304.00" />
<line x1="992.00" y1="304.00" x2="1072.00" y2="304.00" />
<line x1="256.00" y1="336.00" x2="272.00" y2="336.00" />
<line x1="560.00" y1="336.00" x2="576.00" y2="336.00" />
<line x1="592.00" y1="336.00" x2="608.00" y2="336.00" />
<line x1="736.00" y1="336.00" x2="848.00" y2="336.00" />
<line x1="1088.00" y1="352.00" x2="1104.00" y2="352.00" />
<line x1="1232.00" y1="352.00" x2="1248.00" y2="352.00" />
<line x1="1216.00" y1="368.00" x2="1232.00" y2="368.00" />
<line x1="1120.00" y1="384.00" x2="1216.00" y2="384.00" />
<line x1="368.00" y1="400.00" x2="400.00" y2="400.00" />
<line x1="416.00" y1="400.00" x2="432.00" y2="400.00" />
<line x1="848.00" y1="400.00" x2="864.00" y2="400.00" />
<line x1="880.00" y1="400.00" x2="928.00" y2="400.00" />
<line x1="1024.00" y1="400.00" x2="1072.00" y2="400.00" />
<line x1="1088.00" y1="400.00" x2="1104.00" y2="400.00" />
<line x1="1120.00" y1="400.00" x2="1216.00" y2="400.00" />
<line x1="848.00" y1="416.00" x2="864.00" y2="416.00" />
<line x1="880.00" y1="416.00" x2="976.00" y2="416.00" />
<line x1="992.00" y1="416.00" x2="1072.00" y2="416.00" />
<line x1="1088.00" y1="416.00" x2="1104.00" y2="416.00" />
<line x1="1120.00" y1="416.00" x2="1200.00" y2="416.00" />
<line x1="736.00" y1="464.00" x2="784.00" y2="464.00" />
<line x1="800.00" y1="464.00" x2="848.00" y2="464.00" />
<line x1="1040.00" y1="464.00" x2="1056.00" y2="464.00" />
<line x1="1168.00" y1="464.00" x2="1184.00" y2="464.00" />
<line x1="1056.00" y1="448.00" x2="1072.00" y2="448.00" />
<line x1="1088.00" y1="448.00" x2="1104.00" y2="448.00" />
<line x1="1120.00" y1="448.00" x2="1168.00" y2="448.00" />
<line x1="368.00" y1="480.00" x2="432.00" y2="480.00" />
<line x1="512.00" y1="480.00" x2="544.00" y2="480.00" />
<line x1="560.00" y1="480.00" x2="576.00" y2="480.00" />
<line x1="592.00" y1="480.00" x2="656.00" y2="480.00" />
<line x1="192.00" y1="496.00" x2="272.00" y2="496.00" />
<line x1="288.00" y1="496.00" x2="336.00" y2="496.00" />
<line x1="352.00" y1="496.00" x2="496.00" y2="496.00" />
<line x1="656.00" y1="496.00" x2="704.00" y2="496.00" />
<line x1="720.00" y1="496.00" x2="784.00" y2="496.00" />
<line x1="800.00" y1="496.00" x2="864.00" y2="496.00" />
<line x1="880.00" y1="496.00" x2="976.00" y2="496.00" />
<line x1="992.00" y1="496.00" x2="1040.00" y2="496.00" />
<line x1="208.00" y1="512.00" x2="272.00" y2="512.00" />
<line x1="288.00" y1="512.00" x2="336.00" y2="512.00" />
<line x1="352.00" y1="512.00" x2="496.00" y2="512.00" />
<line x1="656.00" y1="512.00" x2="704.00" y2="512.00" />
<line x1="720.00" y1="512.00" x2="784.00" y2="512.00" />
<line x1="800.00" y1="512.00" x2="864.00" y2="512.00" />
<line x1="880.00" y1="512.00" x2="976.00" y2="512.00" />
<line x1="992.00" y1="512.00" x2="1040.00" y2="512.00" />
<line x1="512.00" y1="544.00" x2="544.00" y2="544.00" />
<line x1="560.00" y1="544.00" x2="576.00" y2="544.00" />
<line x1="592.00" y1="544.00" x2="656.00" y2="544.00" />
<line x1="1040.00" y1="544.00" x2="1056.00" y2="544.00" />
<line x1="1168.00" y1="544.00" x2="1184.00" y2="544.00" />
<line x1="1056.00" y1="560.00" x2="1072.00" y2="560.00" />
<line x1="1088.00" y1="560.00" x2="1168.00" y2="560.00" />
<line x1="224.00" y1="576.00" x2="272.00" y2="576.00" />
<line x1="288.00" y1="576.00" x2="320.00" y2="576.00" />
<line x1="320.00" y1="608.00" x2="336.00" y2="608.00" />
<line x1="352.00" y1="608.00" x2="496.00" y2="608.00" />
<line x1="1104.00" y1="608.00" x2="1184.00" y2="608.00" />
<line x1="320.00" y1="624.00" x2="336.00" y2="624.00" />
<line x1="352.00" y1="624.00" x2="480.00" y2="624.00" />
<line x1="560.00" y1="624.00" x2="576.00" y2="624.00" />
<line x1="592.00" y1="624.00" x2="672.00" y2="624.00" />
<line x1="224.00" y1="656.00" x2="272.00" y2="656.00" />
<line x1="288.00" y1="656.00" x2="320.00" y2="656.00" />
<line x1="512.00" y1="656.00" x2="544.00" y2="656.00" />
<line x1="672.00" y1="656.00" x2="704.00" y2="656.00" />
<line x1="720.00" y1="656.00" x2="784.00" y2="656.00" />
<line x1="800.00" y1="656.00" x2="864.00" y2="656.00" />
<line x1="880.00" y1="656.00" x2="976.00" y2="656.00" />
<line x1="992.00" y1="656.00" x2="1072.00" y2="656.00" />
<line x1="1088.00" y1="656.00" x2="1104.00" y2="656.00" />
<line x1="208.00" y1="672.00" x2="272.00" y2="672.00" />
<line x1="288.00" y1="672.00" x2="336.00" y2="672.00" />
<line x1="352.00" y1="672.00" x2="480.00" y2="672.00" />
<line x1="672.00" y1="672.00" x2="704.00" y2="672.00" />
<line x1="720.00" y1="672.00" x2="784.00" y2="672.00" />
<line x1="944.00" y1="672.00" x2="976.00" y2="672.00" />
<line x1="992.00" y1="672.00" x2="1072.00" y2="672.00" />
<line x1="1088.00" y1="672.00" x2="1104.00" y2="672.00" />
<line x1="208.00" y1="688.00" x2="272.00" y2="688.00" />
<line x1="288.00" y1="688.00" x2="336.00" y2="688.00" />
<line x1="352.00" y1="688.00" x2="480.00" y2="688.00" />
<line x1="512.00" y1="688.00" x2="544.00" y2="688.00" />
<line x1="96.00" y1="720.00" x2="192.00" y2="720.00" />
<line x1="208.00" y1="720.00" x2="272.00" y2="720.00" />
<line x1="288.00" y1="720.00" x2="336.00" y2="720.00" />
<line x1="352.00" y1="720.00" x2="480.00" y2="720.00" />
<line x1="512.00" y1="720.00" x2="544.00" y2="720.00" />
<line x1="672.00" y1="720.00" x2="704.00" y2="720.00" />
<line x1="720.00" y1="720.00" x2="784.00" y2="720.00" />
<line x1="1104.00" y1="720.00" x2="1136.00" y2="720.00" />
<line x1="1152.00" y1="720.00" x2="1184.00" y2="720.00" />
<line x1="112.00" y1="736.00" x2="192.00" y2="736.00" />
<line x1="208.00" y1="736.00" x2="272.00" y2="736.00" />
<line x1="288.00" y1="736.00" x2="336.00" y2="736.00" />
<line x1="352.00" y1="736.00" x2="480.00" y2="736.00" />
<line x1="512.00" y1="736.00" x2="544.00" y2="736.00" />
<line x1="560.00" y1="736.00" x2="576.00" y2="736.00" />
<line x1="592.00" y1="736.00" x2="608.00" y2="736.00" />
<line x1="624.00" y1="736.00" x2="704.00" y2="736.00" />
<line x1="720.00" y1="736.00" x2="784.00" y2="736.00" />
<line x1="224.00" y1="752.00" x2="272.00" y2="752.00" />
<line x1="288.00" y1="752.00" x2="336.00" y2="752.00" />
<line x1="800.00" y1="784.00" x2="864.00" y2="784.00" />
<line x1="880.00" y1="784.00" x2="944.00" y2="784.00" />
<line x1="1088.00" y1="768.00" x2="1136.00" y2="768.00" />
<line x1="352.00" y1="816.00" x2="480.00" y2="816.00" />
<line x1="512.00" y1="816.00" x2="544.00" y2="816.00" />
<line x1="560.00" y1="816.00" x2="576.00" y2="816.00" />
<line x1="592.00" y1="816.00" x2="608.00" y2="816.00" />
<line x1="624.00" y1="816.00" x2="704.00" y2="816.00" />
<line x1="720.00" y1="816.00" x2="784.00" y2="816.00" />
<line x1="800.00" y1="816.00" x2="864.00" y2="816.00" />
<line x1="880.00" y1="816.00" x2="976.00" y2="816.00" />
<line x1="992.00" y1="816.00" x2="1072.00" y2="816.00" />
<line x1="352.00" y1="832.00" x2="480.00" y2="832.00" />
<line x1="512.00" y1="832.00" x2="544.00" y2="832.00" />
<line x1="560.00" y1="832.00" x2="576.00" y2="832.00" />
<line x1="592.00" y1="832.00" x2="608.00" y2="832.00" />
<line x1="624.00" y1="832.00" x2="704.00" y2="832.00" />
<line x1="720.00" y1="832.00" x2="864.00" y2="832.00" />
<line x1="880.00" y1="832.00" x2="976.00" y2="832.00" />
<line x1="992.00" y1="832.00" x2="1072.00" y2="832.00" />
<line x1="224.00" y1="848.00" x2="272.00" y2="848.00" />
<line x1="288.00" y1="848.00" x2="336.00" y2="848.00" />
<line x1="944.00" y1="880.00" x2="976.00" y2="880.00" />
<line x1="992.00" y1="880.00" x2="1008.00" y2="880.00" />
<line x1="1088.00" y1="880.00" x2="1136.00" y2="880.00" />
<line x1="1088.00" y1="896.00" x2="1136.00" y2="896.00" />
<line x1="208.00" y1="944.00" x2="272.00" y2="944.00" />
<line x1="288.00" y1="944.00" x2="336.00" y2="944.00" />
<line x1="352.00" y1="944.00" x2="480.00" y2="944.00" />
<line x1="512.00" y1="944.00" x2="544.00" y2="944.00" />
<line x1="560.00" y1="944.00" x2="576.00" y2="944.00" />
<line x1="592.00" y1="944.00" x2="608.00" y2="944.00" />
<line x1="624.00" y1="944.00" x2="704.00" y2="944.00" />
<line x1="720.00" y1="944.00" x2="864.00" y2="944.00" />
<line x1="880.00" y1="944.00" x2="944.00" y2="944.00" />
<line x1="208.00" y1="960.00" x2="272.00" y2="960.00" />
<line x1="288.00" y1="960.00" x2="336.00" y2="960.00" />
<line x1="352.00" y1="960.00" x2="480.00" y2="960.00" />
<line x1="512.00" y1="960.00" x2="544.00" y2="960.00" />
<line x1="560.00" y1="960.00" x2="576.00" y2="960.00" />
<line x1="592.00" y1="960.00" x2="608.00" y2="960.00" />
<line x1="624.00" y1="960.00" x2="704.00" y2="960.00" />
<line x1="720.00" y1="960.00" x2="864.00" y2="960.00" />
<line x1="880.00" y1="960.00" x2="944.00" y2="960.00" />
<line x1="1008.00" y1="960.00" x2="1072.00" y2="960.00" />
<line x1="160.00" y1="976.00" x2="192.00" y2="976.00" />
<line x1="208.00" y1="976.00" x2="224.00" y2="976.00" />
<line x1="432.00" y1="976.00" x2="480.00" y2="976.00" />
<line x1="512.00" y1="976.00" x2="544.00" y2="976.00" />
<line x1="1008.00" y1="976.00" x2="1072.00" y2="976.00" />
<line x1="224.00" y1="1008.00" x2="272.00" y2="1008.00" />
<line x1="288.00" y1="1008.00" x2="336.00" y2="1008.00" />
<line x1="352.00" y1="1008.00" x2="432.00" y2="1008.00" />
<line x1="560.00" y1="1008.00" x2="576.00" y2="1008.00" />
<line x1="592.00" y1="1008.00" x2="608.00" y2="1008.00" />
<line x1="624.00" y1="1008.00" x2="704.00" y2="1008.00" />
<line x1="720.00" y1="1008.00" x2="864.00" y2="1008.00" />
<line x1="880.00" y1="1008.00" x2="896.00" y2="1008.00" />
<line x1="944.00" y1="1008.00" x2="976.00" y2="1008.00" />
<line x1="992.00" y1="1008.00" x2="1008.00" y2="1008.00" />
<line x1="224.00" y1="1024.00" x2="272.00" y2="1024.00" />
<line x1="288.00" y1="1024.00" x2="336.00" y2="1024.00" />
<line x1="352.00" y1="1024.00" x2="432.00" y2="1024.00" />
<line x1="896.00" y1="1024.00" x2="976.00" y2="1024.00" />
<line x1="992.00" y1="1024.00" x2="1072.00" y2="1024.00" />
<line x1="560.00" y1="1040.00" x2="576.00" y2="1040.00" />
<line x1="592.00" y1="1040.00" x2="608.00" y2="1040.00" />
<line x1="624.00" y1="1040.00" x2="704.00" y2="1040.00" />
<line x1="720.00" y1="1040.00" x2="864.00" y2="1040.00" />
<line x1="896.00" y1="1040.00" x2="976.00" y2="1040.00" />
<line x1="992.00" y1="1040.00" x2="1136.00" y2="1040.00" />
<line x1="160.00" y1="1056.00" x2="224.00" y2="1056.00" />
<line x1="432.00" y1="1072.00" x2="496.00" y2="1072.00" />
<line x1="512.00" y1="1072.00" x2="544.00" y2="1072.00" />
<line x1="720.00" y1="1152.00" x2="768.00" y2="1152.00" />
<line x1="64.00" y1="1168.00" x2="96.00" y2="1168.00" />
<line x1="112.00" y1="1168.00" x2="144.00" y2="1168.00" />
<line x1="288.00" y1="1168.00" x2="336.00" y2="1168.00" />
<line x1="352.00" y1="1168.00" x2="400.00" y2="1168.00" />
<line x1="1168.00" y1="1168.00" x2="1200.00" y2="1168.00" />
<line x1="1216.00" y1="1168.00" x2="1232.00" y2="1168.00" />
<line x1="496.00" y1="1216.00" x2="544.00" y2="1216.00" />
<line x1="560.00" y1="1216.00" x2="576.00" y2="1216.00" />
<line x1="592.00" y1="1216.00" x2="608.00" y2="1216.00" />
<line x1="624.00" y1="1216.00" x2="704.00" y2="1216.00" />
<line x1="768.00" y1="1216.00" x2="864.00" y2="1216.00" />
<line x1="896.00" y1="1216.00" x2="976.00" y2="1216.00" />
<line x1="992.00" y1="1216.00" x2="1136.00" y2="1216.00" />
<line x1="1152.00" y1="1216.00" x2="1168.00" y2="1216.00" />
<line x1="512.00" y1="1200.00" x2="544.00" y2="1200.00" />
<line x1="560.00" y1="1200.00" x2="576.00" y2="1200.00" />
<line x1="592.00" y1="1200.00" x2="608.00" y2="1200.00" />
<line x1="624.00" y1="1200.00" x2="704.00" y2="1200.00" />
<line x1="768.00" y1="1200.00" x2="864.00" y2="1200.00" />
<line x1="896.00" y1="1200.00" x2="976.00" y2="1200.00" />
<line x1="992.00" y1="1200.00" x2="1136.00" y2="1200.00" />
<line x1="1152.00" y1="1200.00" x2="1168.00" y2="1200.00" />
<line x1="272.00" y1="1248.00" x2="288.00" y2="1248.00" />
<line x1="400.00" y1="1248.00" x2="544.00" y2="1248.00" />
<line x1="560.00" y1="1248.00" x2="576.00" y2="1248.00" />
<line x1="592.00" y1="1248.00" x2="624.00" y2="1248.00" />
<line x1="816.00" y1="1248.00" x2="864.00" y2="1248.00" />
<line x1="896.00" y1="1248.00" x2="960.00" y2="1248.00" />
<line x1="1168.00" y1="1248.00" x2="1232.00" y2="1248.00" />
<line x1="400.00" y1="1232.00" x2="544.00" y2="1232.00" />
<line x1="560.00" y1="1232.00" x2="576.00" y2="1232.00" />
<line x1="592.00" y1="1232.00" x2="608.00" y2="1232.00" />
<line x1="64.00" y1="1280.00" x2="144.00" y2="1280.00" />
<line x1="592.00" y1="1280.00" x2="704.00" y2="1280.00" />
<line x1="768.00" y1="1280.00" x2="816.00" y2="1280.00" />
<line x1="288.00" y1="1296.00" x2="400.00" y2="1296.00" />
<line x1="576.00" y1="1296.00" x2="704.00" y2="1296.00" />
<line x1="720.00" y1="1296.00" x2="736.00" y2="1296.00" />
<line x1="752.00" y1="1296.00" x2="816.00" y2="1296.00" />
<line x1="224.00" y1="1328.00" x2="368.00" y2="1328.00" />
<line x1="816.00" y1="1328.00" x2="864.00" y2="1328.00" />
<line x1="880.00" y1="1328.00" x2="960.00" y2="1328.00" />
<line x1="480.00" y1="1344.00" x2="544.00" y2="1344.00" />
<line x1="560.00" y1="1344.00" x2="624.00" y2="1344.00" />
<line x1="128.00" y1="1376.00" x2="224.00" y2="1376.00" />
<line x1="368.00" y1="1376.00" x2="480.00" y2="1376.00" />
<line x1="624.00" y1="1376.00" x2="704.00" y2="1376.00" />
<line x1="720.00" y1="1376.00" x2="736.00" y2="1376.00" />
<line x1="752.00" y1="1376.00" x2="864.00" y2="1376.00" />
<line x1="880.00" y1="1376.00" x2="976.00" y2="1376.00" />
<line x1="144.00" y1="1392.00" x2="224.00" y2="1392.00" />
<line x1="368.00" y1="1392.00" x2="480.00" y2="1392.00" />
<line x1="624.00" y1="1392.00" x2="704.00" y2="1392.00" />
<line x1="720.00" y1="1392.00" x2="864.00" y2="1392.00" />
<line x1="880.00" y1="1392.00" x2="992.00" y2="1392.00" />
<line x1="368.00" y1="1408.00" x2="480.00" y2="1408.00" />
<line x1="624.00" y1="1408.00" x2="704.00" y2="1408.00" />
<line x1="720.00" y1="1408.00" x2="864.00" y2="1408.00" />
<line x1="880.00" y1="1408.00" x2="1136.00" y2="1408.00" />
<line x1="368.00" y1="1424.00" x2="704.00" y2="1424.00" />
<line x1="720.00" y1="1424.00" x2="1152.00" y2="1424.00" />
<line x1="48.00" y1="1440.00" x2="128.00" y2="1440.00" />
<line x1="144.00" y1="1440.00" x2="208.00" y2="1440.00" />
<line x1="208.00" y1="1472.00" x2="224.00" y2="1472.00" />
<line x1="368.00" y1="1472.00" x2="704.00" y2="1472.00" />
<line x1="208.00" y1="1488.00" x2="720.00" y2="1488.00" />
<line x1="48.00" y1="1504.00" x2="208.00" y2="1504.00" />
<line x1="672.00" y1="32.00" x2="672.00" y2="80.00" />
<line x1="672.00" y1="96.00" x2="672.00" y2="144.00" />
<line x1="672.00" y1="624.00" x2="672.00" y2="656.00" />
<line x1="672.00" y1="672.00" x2="672.00" y2="720.00" />
<line x1="736.00" y1="32.00" x2="736.00" y2="80.00" />
<line x1="736.00" y1="96.00" x2="736.00" y2="144.00" />
<line x1="736.00" y1="336.00" x2="736.00" y2="464.00" />
<line x1="736.00" y1="1296.00" x2="736.00" y2="1376.00" />
<line x1="432.00" y1="80.00" x2="432.00" y2="208.00" />
<line x1="432.00" y1="400.00" x2="432.00" y2="480.00" />
<line x1="432.00" y1="976.00" x2="432.00" y2="1008.00" />
<line x1="432.00" y1="1024.00" x2="432.00" y2="1072.00" />
<line x1="1152.00" y1="80.00" x2="1152.00" y2="208.00" />
<line x1="1152.00" y1="720.00" x2="1152.00" y2="1200.00" />
<line x1="1152.00" y1="1216.00" x2="1152.00" y2="1424.00" />
<line x1="560.00" y1="96.00" x2="560.00" y2="144.00" />
<line x1="560.00" y1="160.00" x2="560.00" y2="256.00" />
<line x1="560.00" y1="336.00" x2="560.00" y2="480.00" />
<line x1="560.00" y1="544.00" x2="560.00" y2="624.00" />
<line x1="560.00" y1="736.00" x2="560.00" y2="816.00" />
<line x1="560.00" y1="832.00" x2="560.00" y2="944.00" />
<line x1="560.00" y1="960.00" x2="560.00" y2="1008.00" />
<line x1="560.00" y1="1040.00" x2="560.00" y2="1200.00" />
<line x1="560.00" y1="1216.00" x2="560.00" y2="1232.00" />
<line x1="560.00" y1="1248.00" x2="560.00" y2="1344.00" />
<line x1="976.00" y1="96.00" x2="976.00" y2="256.00" />
<line x1="976.00" y1="272.00" x2="976.00" y2="304.00" />
<line x1="976.00" y1="416.00" x2="976.00" y2="496.00" />
<line x1="976.00" y1="512.00" x2="976.00" y2="656.00" />
<line x1="976.00" y1="672.00" x2="976.00" y2="816.00" />
<line x1="976.00" y1="832.00" x2="976.00" y2="880.00" />
<line x1="976.00" y1="1008.00" x2="976.00" y2="1024.00" />
<line x1="976.00" y1="1040.00" x2="976.00" y2="1200.00" />
<line x1="976.00" y1="1216.00" x2="976.00" y2="1376.00" />
<line x1="880.00" y1="144.00" x2="880.00" y2="256.00" />
<line x1="880.00" y1="272.00" x2="880.00" y2="304.00" />
<line x1="880.00" y1="320.00" x2="880.00" y2="400.00" />
<line x1="880.00" y1="416.00" x2="880.00" y2="496.00" />
<line x1="880.00" y1="512.00" x2="880.00" y2="656.00" />
<line x1="880.00" y1="784.00" x2="880.00" y2="816.00" />
<line x1="880.00" y1="832.00" x2="880.00" y2="944.00" />
<line x1="880.00" y1="960.00" x2="880.00" y2="1008.00" />
<line x1="880.00" y1="1328.00" x2="880.00" y2="1376.00" />
<line x1="880.00" y1="1392.00" x2="880.00" y2="1408.00" />
<line x1="704.00" y1="160.00" x2="704.00" y2="240.00" />
<line x1="704.00" y1="320.00" x2="704.00" y2="496.00" />
<line x1="704.00" y1="512.00" x2="704.00" y2="656.00" />
<line x1="704.00" y1="672.00" x2="704.00" y2="720.00" />
<line x1="704.00" y1="736.00" x2="704.00" y2="816.00" />
<line x1="704.00" y1="832.00" x2="704.00" y2="944.00" />
<line x1="704.00" y1="960.00" x2="704.00" y2="1008.00" />
<line x1="704.00" y1="1040.00" x2="704.00" y2="1200.00" />
<line x1="704.00" y1="1216.00" x2="704.00" y2="1280.00" />
<line x1="704.00" y1="1296.00" x2="704.00" y2="1376.00" />
<line x1="704.00" y1="1392.00" x2="704.00" y2="1408.00" />
<line x1="704.00" y1="1424.00" x2="704.00" y2="1472.00" />
<line x1="720.00" y1="160.00" x2="720.00" y2="240.00" />
<line x1="720.00" y1="320.00" x2="720.00" y2="496.00" />
<line x1="720.00" y1="512.00" x2="720.00" y2="656.00" />
<line x1="720.00" y1="672.00" x2="720.00" y2="720.00" />
<line x1="720.00" y1="736.00" x2="720.00" y2="816.00" />
<line x1="720.00" y1="832.00" x2="720.00" y2="944.00" />
<line x1="720.00" y1="960.00" x2="720.00" y2="1008.00" />
<line x1="720.00" y1="1040.00" x2="720.00" y2="1152.00" />
<line x1="720.00" y1="1296.00" x2="720.00" y2="1376.00" />
<line x1="720.00" y1="1392.00" x2="720.00" y2="1408.00" />
<line x1="720.00" y1="1424.00" x2="720.00" y2="1488.00" />
<line x1="864.00" y1="160.00" x2="864.00" y2="256.00" />
<line x1="864.00" y1="272.00" x2="864.00" y2="304.00" />
<line x1="864.00" y1="320.00" x2="864.00" y2="400.00" />
<line x1="864.00" y1="416.00" x2="864.00" y2="496.00" />
<line x1="864.00" y1="512.00" x2="864.00" y2="656.00" />
<line x1="864.00" y1="784.00" x2="864.00" y2="816.00" />
<line x1="864.00" y1="832.00" x2="864.00" y2="944.00" />
<line x1="864.00" y1="960.00" x2="864.00" y2="1008.00" />
<line x1="864.00" y1="1040.00" x2="864.00" y2="1200.00" />
<line x1="864.00" y1="1216.00" x2="864.00" y2="1248.00" />
<line x1="864.00" y1="1328.00" x2="864.00" y2="1376.00" />
<line x1="864.00" y1="1392.00" x2="864.00" y2="1408.00" />
<line x1="256.00" y1="192.00" x2="256.00" y2="208.00" />
<line x1="256.00" y1="320.00" x2="256.00" y2="336.00" />
<line x1="288.00" y1="192.00" x2="288.00" y2="208.00" />
<line x1="288.00" y1="320.00" x2="288.00" y2="496.00" />
<line x1="288.00" y1="512.00" x2="288.00" y2="576.00" />
<line x1="288.00" y1="656.00" x2="288.00" y2="672.00" />
<line x1="288.00" y1="688.00" x2="288.00" y2="720.00" />
<line x1="288.00" y1="736.00" x2="288.00" y2="752.00" />
<line x1="288.00" y1="848.00" x2="288.00" y2="944.00" />
<line x1="288.00" y1="960.00" x2="288.00" y2="1008.00" />
<line x1="288.00" y1="1024.00" x2="288.00" y2="1168.00" />
<line x1="288.00" y1="1248.00" x2="288.00" y2="1296.00" />
<line x1="224.00" y1="208.00" x2="224.00" y2="240.00" />
<line x1="224.00" y1="288.00" x2="224.00" y2="320.00" />
<line x1="224.00" y1="576.00" x2="224.00" y2="656.00" />
<line x1="224.00" y1="752.00" x2="224.00" y2="848.00" />
<line x1="224.00" y1="976.00" x2="224.00" y2="1008.00" />
<line x1="224.00" y1="1024.00" x2="224.00" y2="1056.00" />
<line x1="224.00" y1="1328.00" x2="224.00" y2="1376.00" />
<line x1="224.00" y1="1392.00" x2="224.00" y2="1472.00" />
<line x1="320.00" y1="208.00" x2="320.00" y2="240.00" />
<line x1="320.00" y1="288.00" x2="320.00" y2="320.00" />
<line x1="320.00" y1="576.00" x2="320.00" y2="608.00" />
<line x1="320.00" y1="624.00" x2="320.00" y2="656.00" />
<line x1="496.00" y1="208.00" x2="496.00" y2="256.00" />
<line x1="496.00" y1="288.00" x2="496.00" y2="496.00" />
<line x1="496.00" y1="512.00" x2="496.00" y2="608.00" />
<line x1="496.00" y1="1072.00" x2="496.00" y2="1216.00" />
<line x1="512.00" y1="208.00" x2="512.00" y2="256.00" />
<line x1="512.00" y1="288.00" x2="512.00" y2="480.00" />
<line x1="512.00" y1="544.00" x2="512.00" y2="656.00" />
<line x1="512.00" y1="688.00" x2="512.00" y2="720.00" />
<line x1="512.00" y1="736.00" x2="512.00" y2="816.00" />
<line x1="512.00" y1="832.00" x2="512.00" y2="944.00" />
<line x1="512.00" y1="960.00" x2="512.00" y2="976.00" />
<line x1="512.00" y1="1072.00" x2="512.00" y2="1200.00" />
<line x1="544.00" y1="208.00" x2="544.00" y2="256.00" />
<line x1="544.00" y1="288.00" x2="544.00" y2="480.00" />
<line x1="544.00" y1="544.00" x2="544.00" y2="656.00" />
<line x1="544.00" y1="688.00" x2="544.00" y2="720.00" />
<line x1="544.00" y1="736.00" x2="544.00" y2="816.00" />
<line x1="544.00" y1="832.00" x2="544.00" y2="944.00" />
<line x1="544.00" y1="960.00" x2="544.00" y2="976.00" />
<line x1="544.00" y1="1072.00" x2="544.00" y2="1200.00" />
<line x1="544.00" y1="1216.00" x2="544.00" y2="1232.00" />
<line x1="544.00" y1="1248.00" x2="544.00" y2="1344.00" />
<line x1="992.00" y1="208.00" x2="992.00" y2="256.00" />
<line x1="992.00" y1="272.00" x2="992.00" y2="304.00" />
<line x1="992.00" y1="416.00" x2="992.00" y2="496.00" />
<line x1="992.00" y1="512.00" x2="992.00" y2="656.00" />
<line x1="992.00" y1="672.00" x2="992.00" y2="816.00" />
<line x1="992.00" y1="832.00" x2="992.00" y2="880.00" />
<line x1="992.00" y1="1008.00" x2="992.00" y2="1024.00" />
<line x1="992.00" y1="1040.00" x2="992.00" y2="1200.00" />
<line x1="992.00" y1="1216.00" x2="992.00" y2="1392.00" />
<line x1="1072.00" y1="208.00" x2="1072.00" y2="256.00" />
<line x1="1072.00" y1="272.00" x2="1072.00" y2="304.00" />
<line x1="1072.00" y1="320.00" x2="1072.00" y2="400.00" />
<line x1="1072.00" y1="416.00" x2="1072.00" y2="448.00" />
<line x1="1072.00" y1="560.00" x2="1072.00" y2="656.00" />
<line x1="1072.00" y1="672.00" x2="1072.00" y2="816.00" />
<line x1="1072.00" y1="832.00" x2="1072.00" y2="960.00" />
<line x1="1072.00" y1="976.00" x2="1072.00" y2="1024.00" />
<line x1="1088.00" y1="208.00" x2="1088.00" y2="256.00" />
<line x1="1088.00" y1="352.00" x2="1088.00" y2="400.00" />
<line x1="1088.00" y1="416.00" x2="1088.00" y2="448.00" />
<line x1="1088.00" y1="560.00" x2="1088.00" y2="656.00" />
<line x1="1088.00" y1="672.00" x2="1088.00" y2="768.00" />
<line x1="1088.00" y1="880.00" x2="1088.00" y2="896.00" />
<line x1="1120.00" y1="224.00" x2="1120.00" y2="240.00" />
<line x1="1120.00" y1="384.00" x2="1120.00" y2="400.00" />
<line x1="1120.00" y1="416.00" x2="1120.00" y2="448.00" />
<line x1="1216.00" y1="224.00" x2="1216.00" y2="240.00" />
<line x1="1216.00" y1="368.00" x2="1216.00" y2="384.00" />
<line x1="1216.00" y1="400.00" x2="1216.00" y2="1168.00" />
<line x1="208.00" y1="240.00" x2="208.00" y2="288.00" />
<line x1="208.00" y1="512.00" x2="208.00" y2="672.00" />
<line x1="208.00" y1="688.00" x2="208.00" y2="720.00" />
<line x1="208.00" y1="736.00" x2="208.00" y2="944.00" />
<line x1="208.00" y1="960.00" x2="208.00" y2="976.00" />
<line x1="208.00" y1="1440.00" x2="208.00" y2="1472.00" />
<line x1="208.00" y1="1488.00" x2="208.00" y2="1504.00" />
<line x1="336.00" y1="240.00" x2="336.00" y2="256.00" />
<line x1="336.00" y1="288.00" x2="336.00" y2="496.00" />
<line x1="336.00" y1="512.00" x2="336.00" y2="608.00" />
<line x1="336.00" y1="624.00" x2="336.00" y2="672.00" />
<line x1="336.00" y1="688.00" x2="336.00" y2="720.00" />
<line x1="336.00" y1="736.00" x2="336.00" y2="752.00" />
<line x1="336.00" y1="848.00" x2="336.00" y2="944.00" />
<line x1="336.00" y1="960.00" x2="336.00" y2="1008.00" />
<line x1="336.00" y1="1024.00" x2="336.00" y2="1168.00" />
<line x1="656.00" y1="240.00" x2="656.00" y2="256.00" />
<line x1="656.00" y1="288.00" x2="656.00" y2="304.00" />
<line x1="656.00" y1="480.00" x2="656.00" y2="496.00" />
<line x1="656.00" y1="512.00" x2="656.00" y2="544.00" />
<line x1="752.00" y1="240.00" x2="752.00" y2="256.00" />
<line x1="752.00" y1="272.00" x2="752.00" y2="304.00" />
<line x1="752.00" y1="1296.00" x2="752.00" y2="1376.00" />
<line x1="1104.00" y1="240.00" x2="1104.00" y2="256.00" />
<line x1="1104.00" y1="352.00" x2="1104.00" y2="400.00" />
<line x1="1104.00" y1="416.00" x2="1104.00" y2="448.00" />
<line x1="1104.00" y1="608.00" x2="1104.00" y2="656.00" />
<line x1="1104.00" y1="672.00" x2="1104.00" y2="720.00" />
<line x1="1232.00" y1="240.00" x2="1232.00" y2="256.00" />
<line x1="1232.00" y1="352.00" x2="1232.00" y2="368.00" />
<line x1="1232.00" y1="1168.00" x2="1232.00" y2="1248.00" />
<line x1="1248.00" y1="256.00" x2="1248.00" y2="352.00" />
<line x1="352.00" y1="272.00" x2="352.00" y2="496.00" />
<line x1="352.00" y1="512.00" x2="352.00" y2="608.00" />
<line x1="352.00" y1="624.00" x2="352.00" y2="672.00" />
<line x1="352.00" y1="688.00" x2="352.00" y2="720.00" />
<line x1="352.00" y1="736.00" x2="352.00" y2="816.00" />
<line x1="352.00" y1="832.00" x2="352.00" y2="944.00" />
<line x1="352.00" y1="960.00" x2="352.00" y2="1008.00" />
<line x1="352.00" y1="1024.00" x2="352.00" y2="1168.00" />
<line x1="400.00" y1="272.00" x2="400.00" y2="400.00" />
<line x1="400.00" y1="1168.00" x2="400.00" y2="1232.00" />
<line x1="400.00" y1="1248.00" x2="400.00" y2="1296.00" />
<line x1="416.00" y1="288.00" x2="416.00" y2="400.00" />
<line x1="608.00" y1="288.00" x2="608.00" y2="304.00" />
<line x1="608.00" y1="320.00" x2="608.00" y2="336.00" />
<line x1="608.00" y1="736.00" x2="608.00" y2="816.00" />
<line x1="608.00" y1="832.00" x2="608.00" y2="944.00" />
<line x1="608.00" y1="960.00" x2="608.00" y2="1008.00" />
<line x1="608.00" y1="1040.00" x2="608.00" y2="1200.00" />
<line x1="608.00" y1="1216.00" x2="608.00" y2="1232.00" />
<line x1="928.00" y1="320.00" x2="928.00" y2="400.00" />
<line x1="1024.00" y1="320.00" x2="1024.00" y2="400.00" />
<line x1="272.00" y1="336.00" x2="272.00" y2="496.00" />
<line x1="272.00" y1="512.00" x2="272.00" y2="576.00" />
<line x1="272.00" y1="656.00" x2="272.00" y2="672.00" />
<line x1="272.00" y1="688.00" x2="272.00" y2="720.00" />
<line x1="272.00" y1="736.00" x2="272.00" y2="752.00" />
<line x1="272.00" y1="848.00" x2="272.00" y2="944.00" />
<line x1="272.00" y1="960.00" x2="272.00" y2="1008.00" />
<line x1="272.00" y1="1024.00" x2="272.00" y2="1248.00" />
<line x1="576.00" y1="336.00" x2="576.00" y2="480.00" />
<line x1="576.00" y1="544.00" x2="576.00" y2="624.00" />
<line x1="576.00" y1="736.00" x2="576.00" y2="816.00" />
<line x1="576.00" y1="832.00" x2="576.00" y2="944.00" />
<line x1="576.00" y1="960.00" x2="576.00" y2="1008.00" />
<line x1="576.00" y1="1040.00" x2="576.00" y2="1200.00" />
<line x1="576.00" y1="1216.00" x2="576.00" y2="1232.00" />
<line x1="576.00" y1="1248.00" x2="576.00" y2="1296.00" />
<line x1="592.00" y1="336.00" x2="592.00" y2="480.00" />
<line x1="592.00" y1="544.00" x2="592.00" y2="624.00" />
<line x1="592.00" y1="736.00" x2="592.00" y2="816.00" />
<line x1="592.00" y1="832.00" x2="592.00" y2="944.00" />
<line x1="592.00" y1="960.00" x2="592.00" y2="1008.00" />
<line x1="592.00" y1="1040.00" x2="592.00" y2="1200.00" />
<line x1="592.00" y1="1216.00" x2="592.00" y2="1232.00" />
<line x1="592.00" y1="1248.00" x2="592.00" y2="1280.00" />
<line x1="848.00" y1="336.00" x2="848.00" y2="400.00" />
<line x1="848.00" y1="416.00" x2="848.00" y2="464.00" />
<line x1="368.00" y1="400.00" x2="368.00" y2="480.00" />
<line x1="368.00" y1="1328.00" x2="368.00" y2="1376.00" />
<line x1="368.00" y1="1392.00" x2="368.00" y2="1408.00" />
<line x1="368.00" y1="1424.00" x2="368.00" y2="1472.00" />
<line x1="1200.00" y1="416.00" x2="1200.00" y2="1168.00" />
<line x1="1056.00" y1="448.00" x2="1056.00" y2="464.00" />
<line x1="1056.00" y1="544.00" x2="1056.00" y2="560.00" />
<line x1="1168.00" y1="448.00" x2="1168.00" y2="464.00" />
<line x1="1168.00" y1="544.00" x2="1168.00" y2="560.00" />
<line x1="1168.00" y1="1168.00" x2="1168.00" y2="1200.00" />
<line x1="1168.00" y1="1216.00" x2="1168.00" y2="1248.00" />
<line x1="784.00" y1="464.00" x2="784.00" y2="496.00" />
<line x1="784.00" y1="512.00" x2="784.00" y2="656.00" />
<line x1="784.00" y1="672.00" x2="784.00" y2="720.00" />
<line x1="784.00" y1="736.00" x2="784.00" y2="816.00" />
<line x1="800.00" y1="464.00" x2="800.00" y2="496.00" />
<line x1="800.00" y1="512.00" x2="800.00" y2="656.00" />
<line x1="800.00" y1="784.00" x2="800.00" y2="816.00" />
<line x1="1040.00" y1="464.00" x2="1040.00" y2="496.00" />
<line x1="1040.00" y1="512.00" x2="1040.00" y2="544.00" />
<line x1="1184.00" y1="464.00" x2="1184.00" y2="544.00" />
<line x1="1184.00" y1="608.00" x2="1184.00" y2="720.00" />
<line x1="192.00" y1="496.00" x2="192.00" y2="720.00" />
<line x1="192.00" y1="736.00" x2="192.00" y2="976.00" />
<line x1="480.00" y1="624.00" x2="480.00" y2="672.00" />
<line x1="480.00" y1="688.00" x2="480.00" y2="720.00" />
<line x1="480.00" y1="736.00" x2="480.00" y2="816.00" />
<line x1="480.00" y1="832.00" x2="480.00" y2="944.00" />
<line x1="480.00" y1="960.00" x2="480.00" y2="976.00" />
<line x1="480.00" y1="1344.00" x2="480.00" y2="1376.00" />
<line x1="480.00" y1="1392.00" x2="480.00" y2="1408.00" />
<line x1="944.00" y1="672.00" x2="944.00" y2="784.00" />
<line x1="944.00" y1="880.00" x2="944.00" y2="944.00" />
<line x1="944.00" y1="960.00" x2="944.00" y2="1008.00" />
<line x1="96.00" y1="720.00" x2="96.00" y2="1168.00" />
<line x1="1136.00" y1="720.00" x2="1136.00" y2="768.00" />
<line x1="1136.00" y1="880.00" x2="1136.00" y2="896.00" />
<line x1="1136.00" y1="1040.00" x2="1136.00" y2="1200.00" />
<line x1="1136.00" y1="1216.00" x2="1136.00" y2="1408.00" />
<line x1="112.00" y1="736.00" x2="112.00" y2="1168.00" />
<line x1="624.00" y1="736.00" x2="624.00" y2="816.00" />
<line x1="624.00" y1="832.00" x2="624.00" y2="944.00" />
<line x1="624.00" y1="960.00" x2="624.00" y2="1008.00" />
<line x1="624.00" y1="1040.00" x2="624.00" y2="1200.00" />
<line x1="624.00" y1="1216.00" x2="624.00" y2="1248.00" />
<line x1="624.00" y1="1344.00" x2="624.00" y2="1376.00" />
<line x1="624.00" y1="1392.00" x2="624.00" y2="1408.00" />
<line x1="1008.00" y1="880.00" x2="1008.00" y2="960.00" />
<line x1="1008.00" y1="976.00" x2="1008.00" y2="1008.00" />
<line x1="160.00" y1="976.00" x2="160.00" y2="1056.00" />
<line x1="896.00" y1="1008.00" x2="896.00" y2="1024.00" />
<line x1="896.00" y1="1040.00" x2="896.00" y2="1200.00" />
<line x1="896.00" y1="1216.00" x2="896.00" y2="1248.00" />
<line x1="768.00" y1="1152.00" x2="768.00" y2="1200.00" />
<line x1="768.00" y1="1216.00" x2="768.00" y2="1280.00" />
<line x1="64.00" y1="1168.00" x2="64.00" y2="1280.00" />
<line x1="144.00" y1="1168.00" x2="144.00" y2="1280.00" />
<line x1="144.00" y1="1392.00" x2="144.00" y2="1440.00" />
<line x1="816.00" y1="1248.00" x2="816.00" y2="1280.00" />
<line x1="816.00" y1="1296.00" x2="816.00" y2="1328.00" />
<line x1="960.00" y1="1248.00" x2="960.00" y2="1328.00" />
<line x1="128.00" y1="1376.00" x2="128.00" y2="1440.00" />
<line x1="48.00" y1="1440.00" x2="48.00" y2="1504.00" />
  </g>
  <g class="features">
<g data-feature-type="stairsDown"><line data-feature-type="stairsDown" x1="1202.24" y1="307.36" x2="1213.76" y2="307.36" /><line x1="1202.65" y1="309.68" x2="1213.35" y2="309.68" /><line x1="1203.07" y1="312.00" x2="1212.93" y2="312.00" /><line x1="1203.48" y1="314.32" x2="1212.52" y2="314.32" /><line x1="1203.90" y1="316.64" x2="1212.10" y2="316.64" /></g>
<g data-feature-type="stairsUp"><line data-feature-type="stairsUp" x1="275.90" y1="1395.36" x2="284.10" y2="1395.36" /><line x1="275.48" y1="1397.68" x2="284.52" y2="1397.68" /><line x1="275.07" y1="1400.00" x2="284.93" y2="1400.00" /><line x1="274.65" y1="1402.32" x2="285.35" y2="1402.32" /><line x1="274.24" y1="1404.64" x2="285.76" y2="1404.64" /></g>
<g data-feature-type="trap"><rect x="180.64" y="1476.64" width="6.72" height="6.72" fill="none" /><line x1="180.64" y1="1476.64" x2="187.36" y2="1483.36" /><line x1="180.64" y1="1483.36" x2="187.36" y2="1476.64" /></g>
<circle data-feature-type="pillar" cx="728.00" cy="88.00" r="3.68" fill="#5c92ab" stroke="none" />
<circle data-feature-type="pillar" cx="504.00" cy="120.00" r="3.68" fill="#5c92ab" stroke="none" />
<circle data-feature-type="pillar" cx="504.00" cy="168.00" r="3.68" fill="#5c92ab" stroke="none" />
<circle data-feature-type="pillar" cx="296.00" cy="264.00" r="3.68" fill="#5c92ab" stroke="none" />
<circle data-feature-type="pillar" cx="296.00" cy="808.00" r="3.68" fill="#5c92ab" stroke="none" />
<g data-feature-type="statue"><circle cx="312.00" cy="776.00" r="3.52" fill="none" /><line x1="309.76" y1="776.00" x2="314.24" y2="776.00" /><line x1="312.00" y1="773.76" x2="312.00" y2="778.24" /><line x1="310.39" y1="774.39" x2="313.61" y2="777.61" /><line x1="310.39" y1="777.61" x2="313.61" y2="774.39" /></g>
<circle data-feature-type="pillar" cx="1000.00" cy="952.00" r="3.68" fill="#5c92ab" stroke="none" />
<g data-feature-type="statue"><circle cx="968.00" cy="920.00" r="3.52" fill="none" /><line x1="965.76" y1="920.00" x2="970.24" y2="920.00" /><line x1="968.00" y1="917.76" x2="968.00" y2="922.24" /><line x1="966.39" y1="918.39" x2="969.61" y2="921.61" /><line x1="966.39" y1="921.61" x2="969.61" y2="918.39" /></g>
<g data-feature-type="statue"><circle cx="920.00" cy="1272.00" r="3.52" fill="none" /><line x1="917.76" y1="1272.00" x2="922.24" y2="1272.00" /><line x1="920.00" y1="1269.76" x2="920.00" y2="1274.24" /><line x1="918.39" y1="1270.39" x2="921.61" y2="1273.61" /><line x1="918.39" y1="1273.61" x2="921.61" y2="1270.39" /></g>
<path data-feature-type="curtain" d="M 854.40 1299.84 Q 856.00 1302.34 854.40 1304.00 Q 856.00 1305.66 854.40 1308.16" fill="none" /><path d="M 857.60 1299.84 Q 856.00 1302.34 857.60 1304.00 Q 856.00 1305.66 857.60 1308.16" fill="none" />
<circle data-feature-type="pillar" cx="344.00" cy="1208.00" r="3.68" fill="#5c92ab" stroke="none" />
<circle data-feature-type="pillar" cx="344.00" cy="1224.00" r="3.68" fill="#5c92ab" stroke="none" />
<g data-feature-type="trap"><rect x="324.64" y="1236.64" width="6.72" height="6.72" fill="none" /><line x1="324.64" y1="1236.64" x2="331.36" y2="1243.36" /><line x1="324.64" y1="1243.36" x2="331.36" y2="1236.64" /></g>
<path data-feature-type="curtain" d="M 326.40 1187.84 Q 328.00 1190.34 326.40 1192.00 Q 328.00 1193.66 326.40 1196.16" fill="none" /><path d="M 329.60 1187.84 Q 328.00 1190.34 329.60 1192.00 Q 328.00 1193.66 329.60 1196.16" fill="none" />
<circle data-feature-type="pillar" cx="296.00" cy="616.00" r="3.68" fill="#5c92ab" stroke="none" />
<g data-feature-type="coffin"><rect x="245.60" y="628.32" width="4.80" height="7.36" rx="0.80" ry="0.80" fill="none" /><line x1="248.00" y1="629.94" x2="248.00" y2="634.06" /></g>
<circle data-feature-type="pillar" cx="888.00" cy="728.00" r="3.68" fill="#5c92ab" stroke="none" />
<circle data-feature-type="pillar" cx="504.00" cy="1032.00" r="3.68" fill="#5c92ab" stroke="none" />
<g data-feature-type="statue"><circle cx="456.00" cy="1048.00" r="3.52" fill="none" /><line x1="453.76" y1="1048.00" x2="458.24" y2="1048.00" /><line x1="456.00" y1="1045.76" x2="456.00" y2="1050.24" /><line x1="454.39" y1="1046.39" x2="457.61" y2="1049.61" /><line x1="454.39" y1="1049.61" x2="457.61" y2="1046.39" /></g>
<circle data-feature-type="pillar" cx="1080.00" cy="168.00" r="3.68" fill="#5c92ab" stroke="none" />
<circle data-feature-type="pillar" cx="1080.00" cy="136.00" r="3.68" fill="#5c92ab" stroke="none" />
<g data-feature-type="statue"><circle cx="1064.00" cy="120.00" r="3.52" fill="none" /><line x1="1061.76" y1="120.00" x2="1066.24" y2="120.00" /><line x1="1064.00" y1="117.76" x2="1064.00" y2="122.24" /><line x1="1062.39" y1="118.39" x2="1065.61" y2="121.61" /><line x1="1062.39" y1="121.61" x2="1065.61" y2="118.39" /></g>
<path data-feature-type="curtain" d="M 1126.40 99.84 Q 1128.00 102.34 1126.40 104.00 Q 1128.00 105.66 1126.40 108.16" fill="none" /><path d="M 1129.60 99.84 Q 1128.00 102.34 1129.60 104.00 Q 1128.00 105.66 1129.60 108.16" fill="none" />
<circle data-feature-type="pillar" cx="600.00" cy="680.00" r="3.68" fill="#5c92ab" stroke="none" />
<circle data-feature-type="pillar" cx="584.00" cy="680.00" r="3.68" fill="#5c92ab" stroke="none" />
<circle data-feature-type="pillar" cx="728.00" cy="280.00" r="3.68" fill="#5c92ab" stroke="none" />
<circle data-feature-type="pillar" cx="1144.00" cy="824.00" r="3.68" fill="#5c92ab" stroke="none" />
<path data-feature-type="curtain" d="M 1126.40 851.84 Q 1128.00 854.34 1126.40 856.00 Q 1128.00 857.66 1126.40 860.16" fill="none" /><path d="M 1129.60 851.84 Q 1128.00 854.34 1129.60 856.00 Q 1128.00 857.66 1129.60 860.16" fill="none" />
<circle data-feature-type="pillar" cx="1112.00" cy="488.00" r="3.68" fill="#5c92ab" stroke="none" />
<circle data-feature-type="pillar" cx="1112.00" cy="472.00" r="3.68" fill="#5c92ab" stroke="none" />
<circle data-feature-type="pillar" cx="808.00" cy="408.00" r="3.68" fill="#5c92ab" stroke="none" />
<circle data-feature-type="pillar" cx="1128.00" cy="968.00" r="3.68" fill="#5c92ab" stroke="none" />
<circle data-feature-type="pillar" cx="1000.00" cy="360.00" r="3.68" fill="#5c92ab" stroke="none" />
<circle data-feature-type="pillar" cx="568.00" cy="1384.00" r="3.68" fill="#5c92ab" stroke="none" />
<g data-feature-type="chest"><rect x="565.28" y="1366.24" width="5.44" height="3.52" fill="none" /><line x1="565.28" y1="1368.00" x2="570.72" y2="1368.00" /><circle cx="568.00" cy="1368.18" r="0.70" fill="#5c92ab" stroke="none" /></g>
<circle data-feature-type="pillar" cx="312.00" cy="1416.00" r="3.68" fill="#5c92ab" stroke="none" />
<g data-feature-type="coffin"><rect x="1157.60" y="660.32" width="4.80" height="7.36" rx="0.80" ry="0.80" fill="none" /><line x1="1160.00" y1="661.94" x2="1160.00" y2="666.06" /></g>
<circle data-feature-type="pillar" cx="760.00" cy="1224.00" r="3.68" fill="#5c92ab" stroke="none" />
  </g>
  <g class="thresholds">
<rect data-threshold-type="door" x="131.52" y="1445.76" width="8.96" height="4.48" fill="#ffffff" stroke="#5c92ab" stroke-width="1.52" />
<rect data-threshold-type="door" x="675.52" y="85.76" width="8.96" height="4.48" fill="#ffffff" stroke="#5c92ab" stroke-width="1.52" />
<rect data-threshold-type="door" x="547.52" y="85.76" width="8.96" height="4.48" fill="#ffffff" stroke="#5c92ab" stroke-width="1.52" />
<g data-threshold-type="locked" stroke="#5c92ab" fill="none" stroke-width="1.52"><rect x="275.52" y="325.76" width="8.96" height="4.48" fill="#ffffff" /><circle cx="280.00" cy="324.77" r="1.61" /></g>
<g data-threshold-type="secret"><line x1="275.52" y1="840.00" x2="284.48" y2="840.00" stroke="#5c92ab" stroke-width="1.31" stroke-dasharray="1.31 1.31" /><text x="285.56" y="839.10" font-size="5.44" fill="#5c92ab" font-family="Courier New, monospace" font-weight="700">S</text></g>
<rect data-threshold-type="door" x="947.52" y="949.76" width="8.96" height="4.48" fill="#ffffff" stroke="#5c92ab" stroke-width="1.52" />
<rect data-threshold-type="door" x="211.52" y="1013.76" width="8.96" height="4.48" fill="#ffffff" stroke="#5c92ab" stroke-width="1.52" />
<g data-threshold-type="secret"><line x1="883.52" y1="1256.00" x2="892.48" y2="1256.00" stroke="#5c92ab" stroke-width="1.31" stroke-dasharray="1.31 1.31" /><text x="893.56" y="1255.10" font-size="5.44" fill="#5c92ab" font-family="Courier New, monospace" font-weight="700">S</text></g>
<rect data-threshold-type="door" x="291.52" y="1189.76" width="8.96" height="4.48" fill="#ffffff" stroke="#5c92ab" stroke-width="1.52" />
<rect data-threshold-type="door" x="275.52" y="645.76" width="8.96" height="4.48" fill="#ffffff" stroke="#5c92ab" stroke-width="1.52" />
<rect data-threshold-type="door" x="595.52" y="277.76" width="8.96" height="4.48" fill="#ffffff" stroke="#5c92ab" stroke-width="1.52" />
<g data-threshold-type="locked" stroke="#5c92ab" fill="none" stroke-width="1.52"><rect x="803.52" y="773.76" width="8.96" height="4.48" fill="#ffffff" /><circle cx="808.00" cy="772.77" r="1.61" /></g>
<g data-threshold-type="secret"><line x1="499.52" y1="1064.00" x2="508.48" y2="1064.00" stroke="#5c92ab" stroke-width="1.31" stroke-dasharray="1.31 1.31" /><text x="509.56" y="1063.10" font-size="5.44" fill="#5c92ab" font-family="Courier New, monospace" font-weight="700">S</text></g>
<rect data-threshold-type="door" x="995.52" y="133.76" width="8.96" height="4.48" fill="#ffffff" stroke="#5c92ab" stroke-width="1.52" />
<g data-threshold-type="secret"><line x1="659.52" y1="728.00" x2="668.48" y2="728.00" stroke="#5c92ab" stroke-width="1.31" stroke-dasharray="1.31 1.31" /><text x="669.56" y="727.10" font-size="5.44" fill="#5c92ab" font-family="Courier New, monospace" font-weight="700">S</text></g>
<rect data-threshold-type="door" x="579.52" y="485.76" width="8.96" height="4.48" fill="#ffffff" stroke="#5c92ab" stroke-width="1.52" />
<rect data-threshold-type="door" x="739.52" y="261.76" width="8.96" height="4.48" fill="#ffffff" stroke="#5c92ab" stroke-width="1.52" />
<rect data-threshold-type="door" x="99.52" y="1173.76" width="8.96" height="4.48" fill="#ffffff" stroke="#5c92ab" stroke-width="1.52" />
<rect data-threshold-type="door" x="1091.52" y="869.76" width="8.96" height="4.48" fill="#ffffff" stroke="#5c92ab" stroke-width="1.52" />
<rect data-threshold-type="door" x="1203.52" y="1173.76" width="8.96" height="4.48" fill="#ffffff" stroke="#5c92ab" stroke-width="1.52" />
<g data-threshold-type="locked" stroke="#5c92ab" fill="none" stroke-width="1.52"><rect x="1091.52" y="341.76" width="8.96" height="4.48" fill="#ffffff" /><circle cx="1096.00" cy="340.77" r="1.61" /></g>
<g data-threshold-type="secret"><line x1="1107.52" y1="456.00" x2="1116.48" y2="456.00" stroke="#5c92ab" stroke-width="1.31" stroke-dasharray="1.31 1.31" /><text x="1117.56" y="455.10" font-size="5.44" fill="#5c92ab" font-family="Courier New, monospace" font-weight="700">S</text></g>
<rect data-threshold-type="door" x="835.52" y="405.76" width="8.96" height="4.48" fill="#ffffff" stroke="#5c92ab" stroke-width="1.52" />
<rect data-threshold-type="door" x="1123.52" y="1029.76" width="8.96" height="4.48" fill="#ffffff" stroke="#5c92ab" stroke-width="1.52" />
<rect data-threshold-type="door" x="403.52" y="405.76" width="8.96" height="4.48" fill="#ffffff" stroke="#5c92ab" stroke-width="1.52" />
<g data-threshold-type="secret"><line x1="979.52" y1="328.00" x2="988.48" y2="328.00" stroke="#5c92ab" stroke-width="1.31" stroke-dasharray="1.31 1.31" /><text x="989.56" y="327.10" font-size="5.44" fill="#5c92ab" font-family="Courier New, monospace" font-weight="700">S</text></g>
<rect data-threshold-type="door" x="611.52" y="1381.76" width="8.96" height="4.48" fill="#ffffff" stroke="#5c92ab" stroke-width="1.52" />
<rect data-threshold-type="door" x="355.52" y="1381.76" width="8.96" height="4.48" fill="#ffffff" stroke="#5c92ab" stroke-width="1.52" />
<rect data-threshold-type="door" x="1139.52" y="709.76" width="8.96" height="4.48" fill="#ffffff" stroke="#5c92ab" stroke-width="1.52" />
<rect data-threshold-type="door" x="739.52" y="1285.76" width="8.96" height="4.48" fill="#ffffff" stroke="#5c92ab" stroke-width="1.52" />
  </g>
  <g class="labels">
<text x="136.00" y="1481.92" text-anchor="middle">1</text>
<text x="712.00" y="89.92" text-anchor="middle">2</text>
<text x="504.00" y="153.92" text-anchor="middle">3</text>
<text x="280.00" y="265.92" text-anchor="middle">4</text>
<text x="280.00" y="809.92" text-anchor="middle">5</text>
<text x="984.00" y="953.92" text-anchor="middle">6</text>
<text x="200.00" y="1017.92" text-anchor="middle">7</text>
<text x="888.00" y="1289.92" text-anchor="middle">8</text>
<text x="344.00" y="1241.92" text-anchor="middle">9</text>
<text x="280.00" y="617.92" text-anchor="middle">10</text>
<text x="584.00" y="313.92" text-anchor="middle">11</text>
<text x="872.00" y="729.92" text-anchor="middle">12</text>
<text x="488.00" y="1033.92" text-anchor="middle">13</text>
<text x="1080.00" y="153.92" text-anchor="middle">14</text>
<text x="616.00" y="681.92" text-anchor="middle">15</text>
<text x="584.00" y="521.92" text-anchor="middle">16</text>
<text x="712.00" y="281.92" text-anchor="middle">17</text>
<text x="104.00" y="1225.92" text-anchor="middle">18</text>
<text x="1128.00" y="825.92" text-anchor="middle">19</text>
<text x="1208.00" y="1209.92" text-anchor="middle">20</text>
<text x="1176.00" y="313.92" text-anchor="middle">21</text>
<text x="1112.00" y="505.92" text-anchor="middle">22</text>
<text x="792.00" y="409.92" text-anchor="middle">23</text>
<text x="1112.00" y="969.92" text-anchor="middle">24</text>
<text x="408.00" y="441.92" text-anchor="middle">25</text>
<text x="984.00" y="361.92" text-anchor="middle">26</text>
<text x="552.00" y="1385.92" text-anchor="middle">27</text>
<text x="296.00" y="1417.92" text-anchor="middle">28</text>
<text x="1144.00" y="665.92" text-anchor="middle">29</text>
<text x="744.00" y="1225.92" text-anchor="middle">30</text>
  </g>
</svg>